<svg id="Livello_1" data-name="Livello 1" xmlns="http://www.w3.org/2000/svg" viewBox="0 0 1125 2436"><defs><style>.cls-1{fill:#517446;}.cls-2{fill:#659157;}.cls-3{fill:#577e3a;}.cls-4{fill:#fff;}.cls-5{fill:#ebbd3c;}</style></defs><title>prato pag1</title><path class="cls-1" d="M1125,982.54c-.84-.18-1.69-.36-2.53-.52-127.41-24.17-249.73,102.59-357.36,174.4-116.87,78-290.33,110.07-414.28,53.58-74.45-33.93-149.28-72.39-225-101.35-32.71-12.51-63.25-18.68-96.89-9.3A261.87,261.87,0,0,0,0,1109v339H1125Z"/><path class="cls-2" d="M1125,1268.47a143.77,143.77,0,0,1-9.92,11.33c-72.18,72.24-148.41,101.3-229.2,114.45-186,30.25-343.18-150.35-516.42-246.72-63-35-139.66-47.83-203.7-21.54C99.65,1153.12,51.19,1228.17,0,1301V2304H1125Z"/><path class="cls-3" d="M690.47,1760.81a1.25,1.25,0,0,0-.88-2.1h-.75a2.87,2.87,0,0,0-1.33-.12,4.69,4.69,0,0,0-2.17.43,14.1,14.1,0,0,0-2.12.91,29.94,29.94,0,0,0-3.12,2c-.23.17-.44.37-.66.55a1.77,1.77,0,0,0,0-.2,45.1,45.1,0,0,0,.87-4.89c.17-1.41.51-3.14-.06-4.52,0-.23,0-.45-.06-.68a1.63,1.63,0,0,0-.25-.77l-.72-.92a.62.62,0,0,0-1.15-.31,5.66,5.66,0,0,1-1,.48,1.56,1.56,0,0,0-.58.53,6.77,6.77,0,0,0-.43.66,8.43,8.43,0,0,0-1.93,3.53,37.86,37.86,0,0,0-1.21,3.69c-.3,1.2-.61,2.4-.92,3.6-.1.41-.21.83-.32,1.24-.45-.42-.89-.84-1.36-1.24a14,14,0,0,0-1.71-1.34,7,7,0,0,0-2-.87,3.46,3.46,0,0,0-3.32.87,3.38,3.38,0,0,0-.87,3.32,8.48,8.48,0,0,0,.52,1.29,9.16,9.16,0,0,0,.92,1.23,8.32,8.32,0,0,0,1,1c.68.64,1.35,1.26,2.07,1.85l.79.61a3,3,0,0,0,1.44.46,2,2,0,0,0,1,0,3,3,0,0,0,.94-.23,1.09,1.09,0,0,0,.26,0,3.1,3.1,0,0,0,1.23-.7c.08,0,.14.13.22.18a3.25,3.25,0,0,0,2.46.4,5,5,0,0,0,.5.69l-.1-.16a1.55,1.55,0,0,0,1.24.73c.14,0,.09.09.14.11a3.86,3.86,0,0,0,1.69,0,4.47,4.47,0,0,0,1.84-1.11c.44-.4.83-.82,1.23-1.26.8-.86,1.68-1.63,2.5-2.48a30.24,30.24,0,0,1,2.48-2.32c.45-.37.86-.76,1.29-1.15a5.31,5.31,0,0,0,1.42-1.61,3.14,3.14,0,0,0,.42-.73C690.12,1761.22,690.29,1761,690.47,1760.81Z"/><path class="cls-3" d="M982,1846.85a2.5,2.5,0,0,0-.74-.68,3.27,3.27,0,0,0-2.15-.86l-.79-.08c-.1,0-.89-.16-.51-.07s-1-.13-1.2-.14h-.79c-.53,0-1.06,0-1.59,0a27.41,27.41,0,0,0-3.83.45,6.1,6.1,0,0,0-2.06.68c-.09.06-.15.13-.24.2l0-.14c.13-.58.27-1.15.4-1.73a14.42,14.42,0,0,1,.45-1.59c.08-.26.18-.51.27-.77h0l0,0c.32-.73.56-1.45.84-2.19.11-.31.11-.31.07-.23a4.53,4.53,0,0,0,.28-1v0a7.33,7.33,0,0,0,.53-2.31c0-.09.05-.19.09-.29.45-1.1-.82-2-1.78-1.78-.07,0-.05,0-.08,0l-.41-.06a4.06,4.06,0,0,0-1,.2,10.34,10.34,0,0,0-1.53.65,8.76,8.76,0,0,0-3.67,3.17,17.34,17.34,0,0,0-1.79,3.17,15.89,15.89,0,0,0-1,3.18,24.85,24.85,0,0,0-3.2-3.13,12.39,12.39,0,0,0-2-1.43,7.81,7.81,0,0,0-2.38-1s-.1,0-.14,0a2.67,2.67,0,0,0-.36-.14,3.31,3.31,0,0,0-.82-.16h-.08a12.59,12.59,0,0,0-1.93-.25,1.48,1.48,0,0,0-1.28,2.21,6.46,6.46,0,0,0,.81,1.28c.06.11.06.09,0-.07s-.06-.19.08.14a3.25,3.25,0,0,0,.51.84,2.43,2.43,0,0,0,.34.73l.36.46.05.08c.24.31.46.64.7,1,.55.78,1.19,1.48,1.8,2.22.44.6.87,1.2,1.28,1.83.23.35.49.67.73,1a14,14,0,0,0,1.34,1.8,3.8,3.8,0,0,0,3.79,1,9.1,9.1,0,0,0,1.21-.57,4,4,0,0,0,3.55,1.4,4.1,4.1,0,0,0,3.28-2.81,3.32,3.32,0,0,0,1.26.94,5.41,5.41,0,0,0,2.46.3,29.08,29.08,0,0,0,3.95-.54,13.9,13.9,0,0,0,3.47-1l.3-.14.75-.28a4.56,4.56,0,0,0,1.32-.62,2.21,2.21,0,0,0,.65-.8,2.49,2.49,0,0,0,.52-.83A.66.66,0,0,0,982,1846.85Z"/><path class="cls-3" d="M978.71,1850.75l-.06,0C978.48,1850.86,978.37,1850.93,978.71,1850.75Z"/><path class="cls-3" d="M71.47,1870.81a1.25,1.25,0,0,0-.88-2.1h-.75a2.87,2.87,0,0,0-1.33-.12,4.69,4.69,0,0,0-2.17.43,14.1,14.1,0,0,0-2.12.91,29.94,29.94,0,0,0-3.12,2c-.23.17-.44.37-.66.55a1.77,1.77,0,0,0,0-.2,45.1,45.1,0,0,0,.87-4.89c.17-1.41.51-3.14-.06-4.52,0-.23,0-.45-.06-.68a1.63,1.63,0,0,0-.25-.77l-.72-.92a.62.62,0,0,0-1.15-.31,5.66,5.66,0,0,1-1,.48,1.56,1.56,0,0,0-.58.53,6.77,6.77,0,0,0-.43.66,8.43,8.43,0,0,0-1.93,3.53,37.86,37.86,0,0,0-1.21,3.69c-.3,1.2-.61,2.4-.92,3.6-.1.41-.21.83-.32,1.24-.45-.42-.89-.84-1.36-1.24a14,14,0,0,0-1.71-1.34,7,7,0,0,0-2-.87,3.46,3.46,0,0,0-3.32.87,3.38,3.38,0,0,0-.87,3.32,8.48,8.48,0,0,0,.52,1.29,9.16,9.16,0,0,0,.92,1.23,8.32,8.32,0,0,0,1,1c.68.64,1.35,1.26,2.07,1.85l.79.61a3,3,0,0,0,1.44.46,2,2,0,0,0,1,0,3,3,0,0,0,.94-.23,1.09,1.09,0,0,0,.26,0,3.1,3.1,0,0,0,1.23-.7c.08,0,.14.13.22.18a3.25,3.25,0,0,0,2.46.4,5,5,0,0,0,.5.69l-.1-.16a1.55,1.55,0,0,0,1.24.73c.14,0,.09.09.14.11a3.86,3.86,0,0,0,1.69,0,4.47,4.47,0,0,0,1.84-1.11c.44-.4.83-.82,1.23-1.26.8-.86,1.68-1.63,2.5-2.48a30.24,30.24,0,0,1,2.48-2.32c.45-.37.86-.76,1.29-1.15a5.31,5.31,0,0,0,1.42-1.61,3.14,3.14,0,0,0,.42-.73C71.12,1871.22,71.29,1871,71.47,1870.81Z"/><path class="cls-3" d="M391,2067.85a2.5,2.5,0,0,0-.74-.68,3.27,3.27,0,0,0-2.15-.86l-.79-.08c-.1,0-.89-.16-.51-.07s-1-.13-1.2-.14h-.79c-.53,0-1.06,0-1.59,0a27.41,27.41,0,0,0-3.83.45,6.1,6.1,0,0,0-2.06.68c-.09.06-.15.13-.24.2l0-.14c.13-.58.27-1.15.4-1.73a14.42,14.42,0,0,1,.45-1.59c.08-.26.18-.51.27-.77h0l0,0c.32-.73.56-1.45.84-2.19.11-.31.11-.31.07-.23a4.53,4.53,0,0,0,.28-.95v0a7.33,7.33,0,0,0,.53-2.31c0-.09.05-.19.09-.29.45-1.1-.82-2-1.78-1.78-.07,0,0,0-.08,0l-.41-.06a4.06,4.06,0,0,0-1,.2,10.34,10.34,0,0,0-1.53.65,8.76,8.76,0,0,0-3.67,3.17,17.34,17.34,0,0,0-1.79,3.17,15.89,15.89,0,0,0-1,3.18,24.85,24.85,0,0,0-3.2-3.13,12.39,12.39,0,0,0-2-1.43,7.81,7.81,0,0,0-2.38-1c-.05,0-.1,0-.14,0a2.67,2.67,0,0,0-.36-.14,3.31,3.31,0,0,0-.82-.16h-.08a12.59,12.59,0,0,0-1.93-.25,1.48,1.48,0,0,0-1.28,2.21,6.46,6.46,0,0,0,.81,1.28c.06.11.06.09,0-.07s-.06-.19.08.14a3.25,3.25,0,0,0,.51.84,2.43,2.43,0,0,0,.34.73l.36.46.05.08c.24.31.46.64.7,1,.55.78,1.19,1.48,1.8,2.22.44.6.87,1.2,1.28,1.83.23.35.49.67.73,1a14,14,0,0,0,1.34,1.8,3.8,3.8,0,0,0,3.79,1,9.1,9.1,0,0,0,1.21-.57,4,4,0,0,0,3.55,1.4,4.1,4.1,0,0,0,3.28-2.81,3.32,3.32,0,0,0,1.26.94,5.41,5.41,0,0,0,2.46.3,29.08,29.08,0,0,0,3.95-.54,13.9,13.9,0,0,0,3.47-1l.3-.14.75-.28a4.56,4.56,0,0,0,1.32-.62,2.21,2.21,0,0,0,.65-.8,2.49,2.49,0,0,0,.52-.83A.66.66,0,0,0,391,2067.85Z"/><path class="cls-3" d="M387.71,2071.75l-.06,0C387.48,2071.86,387.37,2071.93,387.71,2071.75Z"/><path class="cls-3" d="M786.47,2056.81a1.25,1.25,0,0,0-.88-2.1h-.75a2.87,2.87,0,0,0-1.33-.12,4.69,4.69,0,0,0-2.17.43,14.1,14.1,0,0,0-2.12.91,29.94,29.94,0,0,0-3.12,2c-.23.17-.44.37-.66.55a1.77,1.77,0,0,0,0-.2,45.1,45.1,0,0,0,.87-4.89c.17-1.41.51-3.14-.06-4.52,0-.23,0-.45-.06-.68a1.63,1.63,0,0,0-.25-.77l-.72-.92a.62.62,0,0,0-1.15-.31,5.66,5.66,0,0,1-1,.48,1.56,1.56,0,0,0-.58.53,6.77,6.77,0,0,0-.43.66,8.43,8.43,0,0,0-1.93,3.53,37.86,37.86,0,0,0-1.21,3.69c-.3,1.2-.61,2.4-.92,3.6-.1.41-.21.83-.32,1.24-.45-.42-.89-.84-1.36-1.24a14,14,0,0,0-1.71-1.34,7,7,0,0,0-2-.87,3.46,3.46,0,0,0-3.32.87,3.38,3.38,0,0,0-.87,3.32,8.48,8.48,0,0,0,.52,1.29,9.16,9.16,0,0,0,.92,1.23,8.32,8.32,0,0,0,1,1c.68.64,1.35,1.26,2.07,1.85l.79.61a3,3,0,0,0,1.44.46,2,2,0,0,0,1,0,3,3,0,0,0,.94-.23,1.09,1.09,0,0,0,.26,0,3.1,3.1,0,0,0,1.23-.7c.08.05.14.13.22.18a3.25,3.25,0,0,0,2.46.4,5,5,0,0,0,.5.69l-.1-.16a1.55,1.55,0,0,0,1.24.73c.14,0,.09.09.14.11a3.86,3.86,0,0,0,1.69,0,4.47,4.47,0,0,0,1.84-1.11c.44-.4.83-.82,1.23-1.26.8-.86,1.68-1.63,2.5-2.48a30.24,30.24,0,0,1,2.48-2.32c.45-.37.86-.76,1.29-1.15a5.31,5.31,0,0,0,1.42-1.61,3.14,3.14,0,0,0,.42-.73C786.12,2057.22,786.29,2057,786.47,2056.81Z"/><path class="cls-3" d="M1078,2142.85a2.5,2.5,0,0,0-.74-.68,3.27,3.27,0,0,0-2.15-.86l-.79-.08c-.1,0-.89-.16-.51-.07s-1-.13-1.2-.14h-.79c-.53,0-1.06,0-1.59,0a27.41,27.41,0,0,0-3.83.45,6.1,6.1,0,0,0-2.06.68c-.09.06-.15.13-.24.2l0-.14c.13-.58.27-1.15.4-1.73a14.42,14.42,0,0,1,.45-1.59c.08-.26.18-.51.27-.77h0l0,0c.32-.73.56-1.45.84-2.19.11-.31.11-.31.07-.23a4.53,4.53,0,0,0,.28-.95v0a7.33,7.33,0,0,0,.53-2.31c0-.09,0-.19.09-.29.45-1.1-.82-2-1.78-1.78-.07,0,0,0-.08,0l-.41-.06a4.06,4.06,0,0,0-1,.2,10.34,10.34,0,0,0-1.53.65,8.76,8.76,0,0,0-3.67,3.17,17.34,17.34,0,0,0-1.79,3.17,15.89,15.89,0,0,0-1,3.18,24.85,24.85,0,0,0-3.2-3.13,12.39,12.39,0,0,0-2-1.43,7.81,7.81,0,0,0-2.38-1s-.1,0-.14,0a2.67,2.67,0,0,0-.36-.14,3.31,3.31,0,0,0-.82-.16h-.08a12.59,12.59,0,0,0-1.93-.25,1.48,1.48,0,0,0-1.28,2.21,6.46,6.46,0,0,0,.81,1.28c.06.11.06.09,0-.07s-.06-.19.08.14a3.25,3.25,0,0,0,.51.84,2.43,2.43,0,0,0,.34.73l.36.46,0,.08c.24.31.46.64.7,1,.55.78,1.19,1.48,1.8,2.22.44.6.87,1.2,1.28,1.83.23.35.49.67.73,1a14,14,0,0,0,1.34,1.8,3.8,3.8,0,0,0,3.79,1,9.1,9.1,0,0,0,1.21-.57,4,4,0,0,0,3.55,1.4,4.1,4.1,0,0,0,3.28-2.81,3.32,3.32,0,0,0,1.26.94,5.41,5.41,0,0,0,2.46.3,29.08,29.08,0,0,0,4-.54,13.9,13.9,0,0,0,3.47-1l.3-.14.75-.28a4.56,4.56,0,0,0,1.32-.62,2.21,2.21,0,0,0,.65-.8,2.49,2.49,0,0,0,.52-.83A.66.66,0,0,0,1078,2142.85Z"/><path class="cls-3" d="M1074.71,2146.75l-.06,0C1074.48,2146.86,1074.37,2146.93,1074.71,2146.75Z"/><path class="cls-3" d="M154.47,1637.81a1.25,1.25,0,0,0-.88-2.1h-.75a2.87,2.87,0,0,0-1.33-.12,4.69,4.69,0,0,0-2.17.43,14.1,14.1,0,0,0-2.12.91,29.94,29.94,0,0,0-3.12,2c-.23.17-.44.37-.66.55a1.77,1.77,0,0,0,0-.2,45.1,45.1,0,0,0,.87-4.89c.17-1.41.51-3.14-.06-4.52,0-.23,0-.45-.06-.68a1.63,1.63,0,0,0-.25-.77l-.72-.92a.62.62,0,0,0-1.15-.31,5.66,5.66,0,0,1-1,.48,1.56,1.56,0,0,0-.58.53,6.77,6.77,0,0,0-.43.66,8.43,8.43,0,0,0-1.93,3.53,37.86,37.86,0,0,0-1.21,3.69c-.3,1.2-.61,2.4-.92,3.6-.1.41-.21.83-.32,1.24-.45-.42-.89-.84-1.36-1.24a14,14,0,0,0-1.71-1.34,7,7,0,0,0-2-.87,3.46,3.46,0,0,0-3.32.87,3.38,3.38,0,0,0-.87,3.32,8.48,8.48,0,0,0,.52,1.29,9.16,9.16,0,0,0,.92,1.23,8.32,8.32,0,0,0,1,1c.68.64,1.35,1.26,2.07,1.85l.79.61a3,3,0,0,0,1.44.46,2,2,0,0,0,1,0,3,3,0,0,0,.94-.23,1.09,1.09,0,0,0,.26,0,3.1,3.1,0,0,0,1.23-.7c.08,0,.14.13.22.18a3.25,3.25,0,0,0,2.46.4,5,5,0,0,0,.5.69l-.1-.16a1.55,1.55,0,0,0,1.24.73c.14,0,.09.09.14.11a3.86,3.86,0,0,0,1.69,0,4.47,4.47,0,0,0,1.84-1.11c.44-.4.83-.82,1.23-1.26.8-.86,1.68-1.63,2.5-2.48a30.24,30.24,0,0,1,2.48-2.32c.45-.37.86-.76,1.29-1.15a5.31,5.31,0,0,0,1.42-1.61,3.14,3.14,0,0,0,.42-.73C154.12,1638.22,154.29,1638,154.47,1637.81Z"/><path class="cls-4" d="M474.27,1831.73a7.31,7.31,0,0,0-1.16-3.63c-1.3-2.62-3.85-4.34-6.16-6a21.93,21.93,0,0,0-5.54-2.6l-.12,0,3.09-3.9c1.35-1.71,2.85-3.27,3.46-5.43a15.7,15.7,0,0,0,.4-3,5.08,5.08,0,0,0,.05-1.17c-.26-2-.67-4-2.29-5.52-1.41-1.29-3.53-2.55-5.52-2.29a14.27,14.27,0,0,0-2.93.52,25,25,0,0,0-2.67,1.1c-2,1-3.14,2.83-4.44,4.56l-2.37,3.16a9.63,9.63,0,0,0-1.85-2.38,20.88,20.88,0,0,0-3.43-2.63,11.63,11.63,0,0,0-11.49,0,11.4,11.4,0,0,0-4.08,4.08,11.27,11.27,0,0,0-1.55,5.74,14.34,14.34,0,0,0,1.76,7.3c.26.5.57,1,.87,1.45s.72,1.07,1.09,1.59l.86,1.24c-.69.13-1.38.26-2.06.41-1.41.31-2.79.78-4.19,1.12-.74.18-1.48.33-2.21.5a9.41,9.41,0,0,0-3.69,1.83,10.46,10.46,0,0,0-3.56,5.24c-1.16,3.2.26,6.83,2.43,9.19a10.12,10.12,0,0,0,4.45,2.67,10.63,10.63,0,0,0,5.57-.07l2.21-.5a36.54,36.54,0,0,0,4.35-1.24c.53-.2,1.05-.44,1.57-.67-.11.79-.23,1.59-.32,2.38-.34,3.24-.72,6.38,1.21,9.35a9.26,9.26,0,0,0,6.77,4.43,9.11,9.11,0,0,0,7.8-2.55c2.71-2.7,3.08-5.94,3.46-9.53.14-1.34.3-2.68.34-4l.11-4c0-.17,0-.33,0-.5l.21.14-.21-.16v0c.66.5,1.29,1,2,1.47.34.23.66.47,1,.71a11.78,11.78,0,0,0,1.58,1.18,18.12,18.12,0,0,0,3.05,1.26l2.6.35,2.6-.35,2.33-1a7.33,7.33,0,0,0,2.75-2.52,4.87,4.87,0,0,0,1.25-2.15,4.78,4.78,0,0,0,.67-2.47A5,5,0,0,0,474.27,1831.73Z"/><path class="cls-5" d="M444.88,1816.11c-12.21,0-12.23,19,0,19S457.11,1816.11,444.88,1816.11Z"/><path class="cls-4" d="M925.77,2152.61a4.47,4.47,0,0,0-.7-2.22,11.1,11.1,0,0,0-3.75-3.65,13.38,13.38,0,0,0-3.38-1.58l-.07,0,1.88-2.37a10,10,0,0,0,2.11-3.31,11.06,11.06,0,0,0,.24-1.82,2.82,2.82,0,0,0,0-.71,5.16,5.16,0,0,0-1.39-3.37,4.57,4.57,0,0,0-3.37-1.39,7.55,7.55,0,0,0-1.78.32,13.55,13.55,0,0,0-1.63.66,8.28,8.28,0,0,0-2.71,2.78l-1.44,1.93a6,6,0,0,0-1.13-1.45,13,13,0,0,0-2.09-1.61,6.94,6.94,0,0,0-9.49,2.49,6.93,6.93,0,0,0-.94,3.5,8.77,8.77,0,0,0,1.07,4.45c.16.3.35.59.53.88s.44.65.67,1l.52.75-1.26.25c-.85.2-1.69.48-2.55.69l-1.34.3a5.85,5.85,0,0,0-2.26,1.12,6.47,6.47,0,0,0-2.17,3.19,5.74,5.74,0,0,0,1.49,5.6,6.23,6.23,0,0,0,2.71,1.63,6.39,6.39,0,0,0,3.39-.05l1.35-.3a23.62,23.62,0,0,0,2.65-.75c.33-.13.64-.28,1-.41-.07.48-.14,1-.2,1.45-.2,2-.44,3.89.74,5.7a5.64,5.64,0,0,0,4.13,2.69,5.53,5.53,0,0,0,4.75-1.55c1.65-1.65,1.88-3.62,2.11-5.81.08-.82.18-1.63.2-2.45l.07-2.46c0-.1,0-.2,0-.3l.13.08-.13-.09v0c.4.3.78.62,1.21.9.2.13.4.28.6.43a7.51,7.51,0,0,0,1,.72,10.08,10.08,0,0,0,1.86.76l1.58.22,1.59-.22,1.42-.6a4.47,4.47,0,0,0,1.67-1.53,2.94,2.94,0,0,0,.77-1.32,2.91,2.91,0,0,0,.4-1.5A2.83,2.83,0,0,0,925.77,2152.61Z"/><path class="cls-5" d="M907.87,2143.09c-7.45,0-7.46,11.56,0,11.56S915.32,2143.09,907.87,2143.09Z"/><path class="cls-4" d="M1002.77,1707.61a4.47,4.47,0,0,0-.7-2.22,11.1,11.1,0,0,0-3.75-3.65,13.38,13.38,0,0,0-3.38-1.58l-.07,0,1.88-2.37a10,10,0,0,0,2.11-3.31,11.06,11.06,0,0,0,.24-1.82,2.82,2.82,0,0,0,0-.71,5.16,5.16,0,0,0-1.39-3.37,4.57,4.57,0,0,0-3.37-1.39,7.55,7.55,0,0,0-1.78.32,13.55,13.55,0,0,0-1.63.66,8.28,8.28,0,0,0-2.71,2.78l-1.44,1.93a6,6,0,0,0-1.13-1.45,13,13,0,0,0-2.09-1.61,6.94,6.94,0,0,0-9.49,2.49,6.93,6.93,0,0,0-.94,3.5,8.77,8.77,0,0,0,1.07,4.45c.16.3.35.59.53.88s.44.65.67,1l.52.75-1.26.25c-.85.2-1.69.48-2.55.69l-1.34.3a5.85,5.85,0,0,0-2.26,1.12,6.47,6.47,0,0,0-2.17,3.19,5.74,5.74,0,0,0,1.49,5.6,6.23,6.23,0,0,0,2.71,1.63,6.39,6.39,0,0,0,3.39,0l1.35-.3a23.62,23.62,0,0,0,2.65-.75c.33-.13.64-.28,1-.41-.07.48-.14,1-.2,1.45-.2,2-.44,3.89.74,5.7a5.64,5.64,0,0,0,4.13,2.69,5.53,5.53,0,0,0,4.75-1.55c1.65-1.65,1.88-3.62,2.11-5.81.08-.82.18-1.63.2-2.45l.07-2.46c0-.1,0-.2,0-.3l.13.08-.13-.09v0c.4.3.78.62,1.21.9.2.13.4.28.6.43a7.51,7.51,0,0,0,1,.72,10.08,10.08,0,0,0,1.86.76l1.58.22,1.59-.22,1.42-.6a4.47,4.47,0,0,0,1.67-1.53,2.94,2.94,0,0,0,.77-1.32,2.91,2.91,0,0,0,.4-1.5A2.83,2.83,0,0,0,1002.77,1707.61Z"/><path class="cls-5" d="M984.87,1698.09c-7.45,0-7.46,11.56,0,11.56S992.32,1698.09,984.87,1698.09Z"/><path class="cls-3" d="M504,1384.85a2.5,2.5,0,0,0-.74-.68,3.27,3.27,0,0,0-2.15-.86l-.79-.08c-.1,0-.89-.16-.51-.07s-1-.13-1.2-.14h-.79c-.53,0-1.06,0-1.59,0a27.41,27.41,0,0,0-3.83.45,6.1,6.1,0,0,0-2.06.68c-.09.06-.15.13-.24.2l0-.14c.13-.58.27-1.15.4-1.73a14.42,14.42,0,0,1,.45-1.59c.08-.26.18-.51.27-.77h0l0,0c.32-.73.56-1.45.84-2.19.11-.31.11-.31.07-.23a4.53,4.53,0,0,0,.28-1v0a7.33,7.33,0,0,0,.53-2.31c0-.09.05-.19.09-.29.45-1.1-.82-2-1.78-1.78-.07,0,0,0-.08,0l-.41-.06a4.06,4.06,0,0,0-1,.2,10.34,10.34,0,0,0-1.53.65,8.76,8.76,0,0,0-3.67,3.17,17.34,17.34,0,0,0-1.79,3.17,15.89,15.89,0,0,0-1,3.18,24.85,24.85,0,0,0-3.2-3.13,12.39,12.39,0,0,0-2-1.43,7.81,7.81,0,0,0-2.38-1c-.05,0-.1,0-.14,0a2.67,2.67,0,0,0-.36-.14,3.31,3.31,0,0,0-.82-.16h-.08a12.59,12.59,0,0,0-1.93-.25,1.48,1.48,0,0,0-1.28,2.21,6.46,6.46,0,0,0,.81,1.28c.06.11.06.09,0-.07s-.06-.19.08.14a3.25,3.25,0,0,0,.51.84,2.43,2.43,0,0,0,.34.73l.36.46.05.08c.24.31.46.64.7,1,.55.78,1.19,1.48,1.8,2.22.44.6.87,1.2,1.28,1.83.23.35.49.67.73,1a14,14,0,0,0,1.34,1.8,3.8,3.8,0,0,0,3.79,1,9.1,9.1,0,0,0,1.21-.57,4,4,0,0,0,3.55,1.4,4.1,4.1,0,0,0,3.28-2.81,3.32,3.32,0,0,0,1.26.94,5.41,5.41,0,0,0,2.46.3,29.08,29.08,0,0,0,3.95-.54,13.9,13.9,0,0,0,3.47-1l.3-.14.75-.28a4.56,4.56,0,0,0,1.32-.62,2.21,2.21,0,0,0,.65-.8,2.49,2.49,0,0,0,.52-.83A.66.66,0,0,0,504,1384.85Z"/><path class="cls-3" d="M500.71,1388.75l-.06,0C500.48,1388.86,500.37,1388.93,500.71,1388.75Z"/><path class="cls-3" d="M253,1390.85a2.5,2.5,0,0,0-.74-.68,3.27,3.27,0,0,0-2.15-.86l-.79-.08c-.1,0-.89-.16-.51-.07s-1-.13-1.2-.14h-.79c-.53,0-1.06,0-1.59,0a27.41,27.41,0,0,0-3.83.45,6.1,6.1,0,0,0-2.06.68c-.09.06-.15.13-.24.2l0-.14c.13-.58.27-1.15.4-1.73a14.42,14.42,0,0,1,.45-1.59c.08-.26.18-.51.27-.77h0l0,0c.32-.73.56-1.45.84-2.19.11-.31.11-.31.07-.23a4.53,4.53,0,0,0,.28-1v0a7.33,7.33,0,0,0,.53-2.31c0-.09.05-.19.09-.29.45-1.1-.82-2-1.78-1.78-.07,0-.05,0-.08,0l-.41-.06a4.06,4.06,0,0,0-1,.2,10.34,10.34,0,0,0-1.53.65,8.76,8.76,0,0,0-3.67,3.17,17.34,17.34,0,0,0-1.79,3.17,15.89,15.89,0,0,0-1,3.18,24.85,24.85,0,0,0-3.2-3.13,12.39,12.39,0,0,0-2-1.43,7.81,7.81,0,0,0-2.38-1c-.05,0-.1,0-.14,0a2.67,2.67,0,0,0-.36-.14,3.31,3.31,0,0,0-.82-.16h-.08a12.59,12.59,0,0,0-1.93-.25,1.48,1.48,0,0,0-1.28,2.21,6.46,6.46,0,0,0,.81,1.28c.06.11.06.09,0-.07s-.06-.19.08.14a3.25,3.25,0,0,0,.51.84,2.43,2.43,0,0,0,.34.73l.36.46.05.08c.24.31.46.64.7,1,.55.78,1.19,1.48,1.8,2.22.44.6.87,1.2,1.28,1.83.23.35.49.67.73,1a14,14,0,0,0,1.34,1.8,3.8,3.8,0,0,0,3.79,1,9.1,9.1,0,0,0,1.21-.57,4,4,0,0,0,3.55,1.4,4.1,4.1,0,0,0,3.28-2.81,3.32,3.32,0,0,0,1.26.94,5.41,5.41,0,0,0,2.46.3,29.08,29.08,0,0,0,4-.54,13.9,13.9,0,0,0,3.47-1l.3-.14.75-.28a4.56,4.56,0,0,0,1.32-.62,2.21,2.21,0,0,0,.65-.8,2.49,2.49,0,0,0,.52-.83A.66.66,0,0,0,253,1390.85Z"/><path class="cls-3" d="M249.71,1394.75l-.06,0C249.48,1394.86,249.37,1394.93,249.71,1394.75Z"/><path class="cls-3" d="M453,1588.85a2.5,2.5,0,0,0-.74-.68,3.27,3.27,0,0,0-2.15-.86l-.79-.08c-.1,0-.89-.16-.51-.07s-1-.13-1.2-.14h-.79c-.53,0-1.06,0-1.59,0a27.41,27.41,0,0,0-3.83.45,6.1,6.1,0,0,0-2.06.68c-.09.06-.15.13-.24.2l0-.14c.13-.58.27-1.15.4-1.73a14.42,14.42,0,0,1,.45-1.59c.08-.26.18-.51.27-.77h0l0,0c.32-.73.56-1.45.84-2.19.11-.31.11-.31.07-.23a4.53,4.53,0,0,0,.28-1v0a7.33,7.33,0,0,0,.53-2.31c0-.09.05-.19.09-.29.45-1.1-.82-2-1.78-1.78-.07,0,0,0-.08,0l-.41-.06a4.06,4.06,0,0,0-1,.2,10.34,10.34,0,0,0-1.53.65,8.76,8.76,0,0,0-3.67,3.17,17.34,17.34,0,0,0-1.79,3.17,15.89,15.89,0,0,0-1,3.18,24.85,24.85,0,0,0-3.2-3.13,12.39,12.39,0,0,0-2-1.43,7.81,7.81,0,0,0-2.38-1c-.05,0-.1,0-.14,0a2.67,2.67,0,0,0-.36-.14,3.31,3.31,0,0,0-.82-.16h-.08a12.59,12.59,0,0,0-1.93-.25,1.48,1.48,0,0,0-1.28,2.21,6.46,6.46,0,0,0,.81,1.28c.06.11.06.09,0-.07s-.06-.19.08.14a3.25,3.25,0,0,0,.51.84,2.43,2.43,0,0,0,.34.73l.36.46.05.08c.24.31.46.64.7,1,.55.78,1.19,1.48,1.8,2.22.44.6.87,1.2,1.28,1.83.23.35.49.67.73,1a14,14,0,0,0,1.34,1.8,3.8,3.8,0,0,0,3.79,1,9.1,9.1,0,0,0,1.21-.57,4,4,0,0,0,3.55,1.4,4.1,4.1,0,0,0,3.28-2.81,3.32,3.32,0,0,0,1.26.94,5.41,5.41,0,0,0,2.46.3,29.08,29.08,0,0,0,3.95-.54,13.9,13.9,0,0,0,3.47-1l.3-.14.75-.28a4.56,4.56,0,0,0,1.32-.62,2.21,2.21,0,0,0,.65-.8,2.49,2.49,0,0,0,.52-.83A.66.66,0,0,0,453,1588.85Z"/><path class="cls-3" d="M449.71,1592.75l-.06,0C449.48,1592.86,449.37,1592.93,449.71,1592.75Z"/><path class="cls-3" d="M745,1568.85a2.5,2.5,0,0,0-.74-.68,3.27,3.27,0,0,0-2.15-.86l-.79-.08c-.1,0-.89-.16-.51-.07s-1-.13-1.2-.14h-.79c-.53,0-1.06,0-1.59,0a27.41,27.41,0,0,0-3.83.45,6.1,6.1,0,0,0-2.06.68c-.09.06-.15.13-.24.2l0-.14c.13-.58.27-1.15.4-1.73a14.42,14.42,0,0,1,.45-1.59c.08-.26.18-.51.27-.77h0l0,0c.32-.73.56-1.45.84-2.19.11-.31.11-.31.07-.23a4.53,4.53,0,0,0,.28-1v0a7.33,7.33,0,0,0,.53-2.31c0-.09.05-.19.09-.29.45-1.1-.82-2-1.78-1.78-.07,0-.05,0-.08,0l-.41-.06a4.06,4.06,0,0,0-1,.2,10.34,10.34,0,0,0-1.53.65,8.76,8.76,0,0,0-3.67,3.17,17.34,17.34,0,0,0-1.79,3.17,15.89,15.89,0,0,0-1,3.18,24.85,24.85,0,0,0-3.2-3.13,12.39,12.39,0,0,0-2-1.43,7.81,7.81,0,0,0-2.38-1s-.1,0-.14,0a2.67,2.67,0,0,0-.36-.14,3.31,3.31,0,0,0-.82-.16h-.08a12.59,12.59,0,0,0-1.93-.25,1.48,1.48,0,0,0-1.28,2.21,6.46,6.46,0,0,0,.81,1.28c.06.11.06.09,0-.07s-.06-.19.08.14a3.25,3.25,0,0,0,.51.84,2.43,2.43,0,0,0,.34.73l.36.46.05.08c.24.31.46.64.7,1,.55.78,1.19,1.48,1.8,2.22.44.6.87,1.2,1.28,1.83.23.35.49.67.73,1a14,14,0,0,0,1.34,1.8,3.8,3.8,0,0,0,3.79,1,9.1,9.1,0,0,0,1.21-.57,4,4,0,0,0,3.55,1.4,4.1,4.1,0,0,0,3.28-2.81,3.32,3.32,0,0,0,1.26.94,5.41,5.41,0,0,0,2.46.3,29.08,29.08,0,0,0,3.95-.54,13.9,13.9,0,0,0,3.47-1l.3-.14.75-.28a4.56,4.56,0,0,0,1.32-.62,2.21,2.21,0,0,0,.65-.8,2.49,2.49,0,0,0,.52-.83A.66.66,0,0,0,745,1568.85Z"/><path class="cls-3" d="M741.71,1572.75l-.06,0C741.48,1572.86,741.37,1572.93,741.71,1572.75Z"/><path class="cls-4" d="M176.77,1970.61a4.47,4.47,0,0,0-.7-2.22,11.1,11.1,0,0,0-3.75-3.65,13.38,13.38,0,0,0-3.38-1.58l-.07,0,1.88-2.37a10,10,0,0,0,2.11-3.31,11.06,11.06,0,0,0,.24-1.82,2.82,2.82,0,0,0,0-.71,5.16,5.16,0,0,0-1.39-3.37,4.57,4.57,0,0,0-3.37-1.39,7.55,7.55,0,0,0-1.78.32,13.55,13.55,0,0,0-1.63.66,8.28,8.28,0,0,0-2.71,2.78l-1.44,1.93a6,6,0,0,0-1.13-1.45,13,13,0,0,0-2.09-1.61,6.94,6.94,0,0,0-9.49,2.49,6.93,6.93,0,0,0-.94,3.5,8.77,8.77,0,0,0,1.07,4.45c.16.3.35.59.53.88s.44.65.67,1l.52.75-1.26.25c-.85.2-1.69.48-2.55.69l-1.34.3a5.85,5.85,0,0,0-2.26,1.12,6.47,6.47,0,0,0-2.17,3.19,5.74,5.74,0,0,0,1.49,5.6,6.23,6.23,0,0,0,2.71,1.63,6.39,6.39,0,0,0,3.39,0l1.35-.3a23.62,23.62,0,0,0,2.65-.75c.33-.13.64-.28,1-.41-.07.48-.14,1-.2,1.45-.2,2-.44,3.89.74,5.7a5.64,5.64,0,0,0,4.13,2.69,5.53,5.53,0,0,0,4.75-1.55c1.65-1.65,1.88-3.62,2.11-5.81.08-.82.18-1.63.2-2.45l.07-2.46c0-.1,0-.2,0-.3l.13.08-.13-.09v0c.4.3.78.62,1.21.9.2.13.4.28.6.43a7.51,7.51,0,0,0,1,.72,10.08,10.08,0,0,0,1.86.76l1.58.22,1.59-.22,1.42-.6a4.47,4.47,0,0,0,1.67-1.53,2.94,2.94,0,0,0,.77-1.32,2.91,2.91,0,0,0,.4-1.5A2.83,2.83,0,0,0,176.77,1970.61Z"/><path class="cls-5" d="M158.87,1961.09c-7.45,0-7.46,11.56,0,11.56S166.32,1961.09,158.87,1961.09Z"/><path class="cls-4" d="M89.77,1448.61a4.47,4.47,0,0,0-.7-2.22,11.1,11.1,0,0,0-3.75-3.65,13.38,13.38,0,0,0-3.38-1.58l-.07,0,1.88-2.37a10,10,0,0,0,2.11-3.31,11.06,11.06,0,0,0,.24-1.82,2.82,2.82,0,0,0,0-.71,5.16,5.16,0,0,0-1.39-3.37,4.57,4.57,0,0,0-3.37-1.39,7.55,7.55,0,0,0-1.78.32,13.55,13.55,0,0,0-1.63.66,8.28,8.28,0,0,0-2.71,2.78l-1.44,1.93a6,6,0,0,0-1.13-1.45,13,13,0,0,0-2.09-1.61,6.94,6.94,0,0,0-9.49,2.49,6.93,6.93,0,0,0-.94,3.5,8.77,8.77,0,0,0,1.07,4.45c.16.3.35.59.53.88s.44.65.67,1l.52.75-1.26.25c-.85.2-1.69.48-2.55.69l-1.34.3a5.85,5.85,0,0,0-2.26,1.12,6.47,6.47,0,0,0-2.17,3.19,5.74,5.74,0,0,0,1.49,5.6,6.23,6.23,0,0,0,2.71,1.63,6.39,6.39,0,0,0,3.39,0l1.35-.3a23.62,23.62,0,0,0,2.65-.75c.33-.13.64-.28,1-.41-.07.48-.14,1-.2,1.45-.2,2-.44,3.89.74,5.7a5.64,5.64,0,0,0,4.13,2.69,5.53,5.53,0,0,0,4.75-1.55c1.65-1.65,1.88-3.62,2.11-5.81.08-.82.18-1.63.2-2.45l.07-2.46c0-.1,0-.2,0-.3l.13.08-.13-.09v0c.4.3.78.62,1.21.9.2.13.4.28.6.43a7.51,7.51,0,0,0,1,.72,10.08,10.08,0,0,0,1.86.76l1.58.22,1.59-.22,1.42-.6A4.47,4.47,0,0,0,88.6,1453a2.94,2.94,0,0,0,.77-1.32,2.91,2.91,0,0,0,.4-1.5A2.83,2.83,0,0,0,89.77,1448.61Z"/><path class="cls-5" d="M71.87,1439.09c-7.45,0-7.46,11.56,0,11.56S79.32,1439.09,71.87,1439.09Z"/></svg>