<svg id="Livello_1" data-name="Livello 1" xmlns="http://www.w3.org/2000/svg" viewBox="0 0 1125 2436"><defs><style>.cls-1{fill:#a8d5e2;}.cls-2{fill:#86aab5;}.cls-3{fill:#b0d7f5;}</style></defs><title>Montagna</title><path class="cls-1" d="M1125,637.54c-18.19-17.37-39.54-32-52.33-63.42-25.36,25.27-49.3,58.82-75.23,83.19-17.93,16.85-37.05,55.74-56.4,58.89-12.41,2-24.44-20.29-36.07-32.74-19-20.33-37.74-43.6-56.38-65.41-23.47-27.49-40.71,37.71-66.88,22.68-25.21-14.47-42.55-42.14-64.86-68.81-10.09-12.06-30.52-47.73-40-48.85-7.08-.84-16.61,15.27-24.21,22.68-18.63,18.16-37.23,35.46-55.42,55.78-22.19,24.79-43.6-48.79-64.81-20.59-34.38,45.71-64.34,107.77-98.82,153.44-19.42,25.73-40.82,46.06-61.53,67.68-15.2,15.87-28.82,39.71-44.67,51.1-17.59,12.63-33.17,27.87-49.61,7.77-20.58-25.16-39.71-56.86-60.46-80-20-22.34-38.83-52.57-60.54-62.34-11.76-5.3-20-11.34-30.34-25.69-7.76-10.81-23.78-24-29.2-39.88-19,22.79-37.54,55-53.91,87.65-13.66,27.28-28.81,51-43.38,76v404.46c31.11,5.83,62.41,12.18,93.24,22.35,60,19.8,121.09,41,181.85,40.6,80.29-.5,160.91-17.17,240.94-30.78,91.94-15.64,184-26.71,276.13-34.77,106.85-9.35,212-18.9,316.38-78.37,4.89-2.79,10.44-5.61,16.46-8.58Z"/><path class="cls-2" d="M1062.47,796.81c1-17,5.18-39.16,3.88-56.28-1.25-16.4-10.54-25-11.25-34.29-1.42-18.5,11.32-24.27,9.78-42.63s-13.3-10.48-20.66-11.45c-1.32-25.34,17.69-51.49,24.37-68.91,1-2.56,2.15-5.4,3.42-8.46-25.12,25.2-48.87,58.37-74.57,82.52C979.74,673.94,960.89,712,941.79,716c-15.57,21.52-45.67,46.64-48.13,81.2-2.2,31,19.77,33.93,18.64,69.75-2,63.54-50.49,58-68.76,52.58-31.82-9.52-60.08-47.39-92.68-33-27.78,12.27-55.82,35.92-82.29,58.61-10.94,9.38-30.94,31.56-42.1,22.08,4.37-17.61,9.39-27,2-38s-34.45,5.25-43.43,3.43c-13.48-2.72-37.2-3-34.8-37.86,1.76-25.57,16.69-29.06,8.48-63-2.73-11.28-10.91-13-11.34-25.08-.38-11,17.26-32.54,21.54-39.07,12.91-19.71,26.87-36.85,37.86-62.27,8-18.57,17.67-40.76,20.56-66.09,2.59-22.76-3.79-41.52-1.78-62,3.52-35.72,27,28.1,36.18-3.05,5.25-17.9,11.75-33.86,17.94-50.1a7.24,7.24,0,0,0-2.79-1.1c-7.08-.84-16.61,15.27-24.21,22.68-18.63,18.16-37.23,35.46-55.42,55.78-22.19,24.8-43.6-48.79-64.81-20.59-34.38,45.71-64.34,107.77-98.82,153.44-19.42,25.73-40.82,46.06-61.53,67.68-15.2,15.87-28.82,39.71-44.67,51.1-13,9.32-24.87,20.05-36.82,17-16.65,10.87-40.43,19-50.28,45.67-6.78,18.41-7.23,48.75-13,70.11-8.72,32.26-25.36,46-41.13,56.85-48.39,33.42-95.21-.37-124.31-91.33-8.46-26.47-14-40.38-9.29-72.34,3.68-25.15,17.22-42.87,20-66.8,2.65-23.25-5.49-28.47.59-52,4.23-16.34,25-38.37,10.6-57.21a389.3,389.3,0,0,1,14.57-47.42c-.37-.87-.72-1.76-1-2.65-19,22.79-37.54,55-53.91,87.65-13.66,27.28-28.81,51-43.38,76v404.46c31.11,5.83,62.41,12.18,93.24,22.35,60,19.8,121.09,41,181.85,40.6,80.29-.5,160.91-17.17,240.94-30.78,91.94-15.64,184-26.71,276.13-34.77,89.38-7.82,177.55-15.8,265.11-53,4.51-17.72,8.47-36.11,11.72-55.27,13.21-77.8,9.47-145-1.6-223.05C1062.86,855.16,1060.45,830.49,1062.47,796.81Z"/><path class="cls-3" d="M217.37,780.93c-20-22.34-38.83-52.57-60.54-62.34-11.76-5.3-20-11.34-30.34-25.69-5.48-7.64-15.08-16.49-22.16-26.61,7.18,22.31,19.26,30.09,28.6,47.61,6.77,12.7,12.08,13.53,20.12,18.91,8.95,6,10.13,18.9,16.78,30.26s16.64,7.92,24,14.19c3.51,3,9.39,8.8,12.17,14.54,3.6,7.41,3.78,18.14,8.3,24.35,7.13,9.76,17.05,5.86,24.4,16.05s10,19.14,19,21.66c6.4,1.78,13.13,5.7,19.72,6.52C257,835.31,238,803.91,217.37,780.93Z"/></svg>