<svg id="Livello_1" data-name="Livello 1" xmlns="http://www.w3.org/2000/svg" viewBox="0 0 1125 2436"><defs><style>.cls-1{fill:#659157;}.cls-2{fill:#fddba6;}.cls-3{fill:#8aaf78;}.cls-4{fill:#36456a;}.cls-5{fill:#1d2947;}.cls-6{fill:#7ba567;}.cls-7{fill:#4e7266;}.cls-8{fill:#b3424f;}.cls-9{fill:#e8902c;}.cls-10{fill:#386053;}.cls-11{fill:#e9b800;}.cls-12{fill:#ff931e;}.cls-13{fill:#006837;}.cls-14{fill:#fbca79;}</style></defs><title>Fiori</title><path class="cls-1" d="M0,634.83c3.49-.76,6.81-1.43,9.92-2C82.1,620.32,158.33,615.27,239.12,613c186-5.26,343.18,26.1,516.42,42.84,63,6.09,139.66,8.31,203.7,3.74,66.11-4.71,114.57-17.74,165.76-30.39V455H0Z"/><path class="cls-2" d="M1125,624.13c-3.49.9-6.81,1.69-9.92,2.33-72.18,14.84-148.41,20.81-229.2,23.5-186,6.22-343.18-30.87-516.42-50.66-63-7.2-139.66-9.83-203.7-4.43C99.65,600.44,51.19,615.86,0,630.81V939H1125Z"/><path class="cls-3" d="M108.79,675.75Q114,619.1,115.61,562.2c1-37.91.94-75.84-.93-113.67-.15-3.33-1.06-3.3-1,0,.83,37.84-.34,75.69-2.59,113.44s-5.72,75.42-10,113C98,700.62,106.29,701.67,108.79,675.75Z"/><path class="cls-4" d="M133.48,388.43a22.47,22.47,0,0,0-34.77,2.95A75.83,75.83,0,0,0,94,470c4.59,8.68,12.31,17.2,22.13,17.11,14.07-.12,9.81,6.92,22.85-19.17,7.58-15.15,11.75-32.41,9.29-49.18A54.29,54.29,0,0,0,133.48,388.43Z"/><path class="cls-5" d="M108.87,392.11c-16.52,24-20.51,56.14-10.37,81C94.39,446.09,98.22,418,108.87,392.11Z"/><path class="cls-5" d="M113.47,392.73c-4,14.19-8,28.44-9.88,43.06s-1.61,29.73,3.28,43.15C105.11,451.55,107.34,423.92,113.47,392.73Z"/><path class="cls-5" d="M118.89,391.41q-2.88,43.68-5.77,87.35Q125.5,438,118.89,391.41Z"/><path class="cls-5" d="M123.31,392.5A310.64,310.64,0,0,1,121.4,475C134.19,449.55,135.73,418.69,123.31,392.5Z"/><path class="cls-5" d="M127.72,394.47a174.25,174.25,0,0,1,2.65,79.76c5.55-12.91,9.86-26.61,10.13-40.66S136.66,405,127.72,394.47Z"/><path class="cls-4" d="M115.55,386.44c-6.44-1.68-13.83-16.79-13.83-16.79l8.83,6.33c-1.35-6.29,1.47-19,1.47-19s3.78,10.64,4.2,16.24c1.37-5.34,9.6-13,9.6-13s-1.19,11.05-1.79,16.57c2.43-5.15,12.59-10.81,12.59-10.81S127,389.43,115.55,386.44Z"/><path class="cls-6" d="M114,491.2c-16.5-3-26.28-22.29-30.07-38.62a8,8,0,0,1-.24-3.6A3.08,3.08,0,0,1,86,446.5c1.76-.26,3.11,1.48,4,3q4.11,6.94,7.55,14.26A44.91,44.91,0,0,1,95,441.52a6.7,6.7,0,0,1,.87-2.82,2.5,2.5,0,0,1,2.53-1.16c1.08.27,1.67,1.41,2.1,2.44a135.83,135.83,0,0,1,7.38,22.73c-1-8.35-1.81-17.28,2.07-24.74.55-1.05,1.47-2.2,2.64-2s1.64,1.53,1.91,2.65c1.85,7.72,3.12,15.58,4.32,23.73a42.34,42.34,0,0,1,6.93-22.08c.84-1.27,2.31-2.65,3.67-2,1,.5,1.2,1.81,1.26,2.92a94.77,94.77,0,0,1-2,23.08A68.17,68.17,0,0,1,137,444.19c.56-.9,1.33-1.89,2.38-1.84a2.07,2.07,0,0,1,1.7,1.41,5.55,5.55,0,0,1,.22,2.3,65.55,65.55,0,0,1-3.41,17.28q2.79-5.7,5.59-11.38a5.28,5.28,0,0,1,1.34-1.93,1.78,1.78,0,0,1,2.19-.08,2.55,2.55,0,0,1,.52,2.1C147,461.15,133.77,494.84,114,491.2Z"/><path class="cls-3" d="M111.84,682.08q16.18-38.18,29.9-77.34c9.11-26.08,17.45-52.45,24.54-79.13.63-2.34,0-2.52-.7-.2-7.81,26.46-17,52.48-26.94,78.19s-20.68,51.11-32,76.21C98.83,697,104.36,699.53,111.84,682.08Z"/><path class="cls-4" d="M192.64,488.05a16.36,16.36,0,0,0-24.79-5.66,55.22,55.22,0,0,0-20.65,53.52c1.26,7.05,4.73,14.67,11.57,16.79,9.8,3,5.28,7,20.12-8.25,8.62-8.85,15.34-19.91,17.35-32.09A39.59,39.59,0,0,0,192.64,488.05Z"/><path class="cls-5" d="M174.74,485.15c-16.79,13-26.68,34.43-25.14,53.92A111.52,111.52,0,0,1,174.74,485.15Z"/><path class="cls-5" d="M177.8,486.6c-5.91,9-11.85,18-16.4,27.71s-7.71,20.28-7.29,30.68C159,525.59,166.63,506.9,177.8,486.6Z"/><path class="cls-5" d="M181.85,486.88q-11.67,29.69-23.36,59.37Q176.13,520.69,181.85,486.88Z"/><path class="cls-5" d="M184.68,488.62a226.55,226.55,0,0,1-19.6,56.87C179.6,530.64,187.5,509.55,184.68,488.62Z"/><path class="cls-5" d="M187.31,491a127,127,0,0,1-15.83,56c6.71-7.74,12.74-16.3,16-26S191.19,500.25,187.31,491Z"/><path class="cls-4" d="M180.64,482.69c-4.1-2.6-5.89-14.72-5.89-14.72l4.73,6.35c.46-4.67,5.23-12.85,5.23-12.85s.27,8.22-.69,12.2c2.14-3.4,9.55-6.89,9.55-6.89s-3.27,7.41-4.91,11.11c2.83-3,11.13-4.72,11.13-4.72S187.91,487.3,180.64,482.69Z"/><path class="cls-6" d="M156.31,555.08C145.53,549.32,143,533.78,144,521.6a5.9,5.9,0,0,1,.63-2.56,2.28,2.28,0,0,1,2.19-1.2c1.28.22,1.83,1.72,2.12,3q1.31,5.73,2.08,11.57a32.61,32.61,0,0,1,3.13-16,4.75,4.75,0,0,1,1.23-1.76,1.8,1.8,0,0,1,2-.25,2.72,2.72,0,0,1,.92,2.16,99.9,99.9,0,0,1,.09,17.42c1.18-6,2.57-12.4,6.91-16.72.61-.6,1.51-1.2,2.28-.8s.79,1.43.73,2.27c-.42,5.77-1.28,11.51-2.25,17.43a30.73,30.73,0,0,1,9.7-13.79c.87-.7,2.19-1.33,3-.55a2.35,2.35,0,0,1,.23,2.3,68.65,68.65,0,0,1-6.48,15.59,49.31,49.31,0,0,1,10.27-12.12c.59-.5,1.35-1,2.07-.75a1.5,1.5,0,0,1,.86,1.35,4.12,4.12,0,0,1-.36,1.65A47.46,47.46,0,0,1,179.14,541l6.4-6.66a3.93,3.93,0,0,1,1.36-1,1.3,1.3,0,0,1,1.54.43,1.86,1.86,0,0,1-.11,1.57C185.91,541.53,169.27,562,156.31,555.08Z"/><path class="cls-3" d="M105.91,678.84q-5.72-41.08-14-81.72c-5.57-27.07-12-54-19.57-80.51-.66-2.34-1.29-2.17-.7.19,6.88,26.71,12.35,53.76,17,80.93s8.48,54.47,11.66,81.82C102.39,698.28,108.45,697.64,105.91,678.84Z"/><path class="cls-4" d="M75.65,470.84a16.37,16.37,0,0,0-24.18,7.87,55.2,55.2,0,0,0,9.75,56.53c4.7,5.4,11.59,10.16,18.55,8.47,10-2.43,8.11,3.27,13-17.41,2.85-12,2.94-24.95-1.59-36.44A39.55,39.55,0,0,0,75.65,470.84Z"/><path class="cls-5" d="M58.79,477.54c-7.73,19.78-5.21,43.25,6.12,59.18A111.56,111.56,0,0,1,58.79,477.54Z"/><path class="cls-5" d="M62.17,477.22c-.47,10.73-.94,21.51.15,32.2s3.79,21.36,9.5,30.07C66,520.35,63,500.37,62.17,477.22Z"/><path class="cls-5" d="M65.79,475.38Q71,506.85,76.22,538.32C77.56,517.66,74.13,496.7,65.79,475.38Z"/><path class="cls-5" d="M69.11,475.41a226.38,226.38,0,0,1,12.37,58.87C86.32,514.09,82.28,491.93,69.11,475.41Z"/><path class="cls-5" d="M72.56,476.08a126.87,126.87,0,0,1,15.15,56.16c1.79-10.09,2.57-20.52.43-30.54S80.66,482.06,72.56,476.08Z"/><path class="cls-4" d="M62.6,472.4c-4.86-.12-12.61-9.61-12.61-9.61l7.31,3c-2-4.24-2.11-13.71-2.11-13.71s4.45,6.92,5.68,10.83c.09-4,4.66-10.82,4.66-10.82s1,8,1.48,12.06c.87-4.07,7.13-9.77,7.13-9.77S71.2,472.62,62.6,472.4Z"/><path class="cls-6" d="M78.88,547c-12.21.6-22.36-11.44-27.76-22.41a6,6,0,0,1-.77-2.51,2.25,2.25,0,0,1,1.26-2.15c1.21-.47,2.45.53,3.35,1.47q4.07,4.25,7.73,8.86a32.56,32.56,0,0,1-5.54-15.36,4.82,4.82,0,0,1,.14-2.14,1.83,1.83,0,0,1,1.61-1.25c.81,0,1.41.73,1.89,1.39a99.6,99.6,0,0,1,9,14.9c-2.07-5.77-4.16-12-2.65-17.9.22-.83.68-1.8,1.54-1.85s1.42.81,1.8,1.56c2.59,5.17,4.81,10.54,7,16.12a30.81,30.81,0,0,1,1.25-16.82c.39-1,1.2-2.26,2.28-2,.78.19,1.15,1.08,1.37,1.86a68.84,68.84,0,0,1,2.44,16.71,49.2,49.2,0,0,1,2.6-15.68c.24-.73.63-1.56,1.38-1.7a1.5,1.5,0,0,1,1.44.71,4.1,4.1,0,0,1,.54,1.61,47.39,47.39,0,0,1,.45,12.82c.69-3,1.39-6,2.08-9a3.83,3.83,0,0,1,.63-1.59,1.3,1.3,0,0,1,1.54-.43,1.86,1.86,0,0,1,.72,1.41C97.33,520.19,93.55,546.3,78.88,547Z"/><path class="cls-3" d="M474.38,652.65q-9.64-32.94-21.39-65.21c-7.83-21.48-16.31-42.74-25.75-63.54-.82-1.84-1.33-1.62-.56.24,8.87,21,16.62,42.52,23.74,64.2s13.53,43.57,19.44,65.58C473.85,669,478.73,667.74,474.38,652.65Z"/><path class="cls-5" d="M436.3,548c-9.92,2-19.69-6.66-25.44-15a4.83,4.83,0,0,1-.93-2,1.84,1.84,0,0,1,.77-1.91c.93-.54,2.07.14,2.92.8q3.84,3,7.4,6.32a27,27,0,0,1-6.4-11.91,3.94,3.94,0,0,1-.13-1.77,1.47,1.47,0,0,1,1.16-1.21,2.24,2.24,0,0,1,1.72.9,82.5,82.5,0,0,1,9.18,11.11c-2.39-4.47-4.85-9.29-4.33-14.33.07-.71.34-1.56,1-1.71s1.25.5,1.65,1.07c2.76,3.92,5.22,8,7.7,12.35a25.43,25.43,0,0,1-1-13.93c.18-.89.7-2,1.62-1.91.66.06,1.07.75,1.35,1.36a57.29,57.29,0,0,1,4,13.38,40.86,40.86,0,0,1,.22-13.15c.12-.63.33-1.35.93-1.56a1.27,1.27,0,0,1,1.27.41,3.51,3.51,0,0,1,.63,1.25A39.2,39.2,0,0,1,443.56,527q.31-3.81.61-7.62a3.12,3.12,0,0,1,.33-1.38,1.07,1.07,0,0,1,1.21-.53,1.5,1.5,0,0,1,.75,1.06C448.16,523.81,448.23,545.63,436.3,548Z"/><path class="cls-3" d="M477.49,655.52q.6-25-.4-50c-.68-16.66-1.85-33.29-3.8-49.83-.17-1.46-.56-1.42-.44,0,1.5,16.57,2.11,33.21,2.25,49.84s-.25,33.25-1,49.84C473.5,666.75,477.17,667,477.49,655.52Z"/><path class="cls-5" d="M474.24,574.42c-7.32-.84-12.19-9-14.34-16a3.53,3.53,0,0,1-.22-1.57,1.37,1.37,0,0,1,1-1.16c.76-.16,1.4.56,1.85,1.2,1.34,1.95,2.58,4,3.73,6a19.67,19.67,0,0,1-1.8-9.68,2.88,2.88,0,0,1,.3-1.26,1.09,1.09,0,0,1,1.07-.59c.48.09.77.57,1,1a60.23,60.23,0,0,1,3.91,9.75c-.67-3.63-1.31-7.52.17-10.91.21-.48.58-1,1.1-1s.76.63.91,1.11c1.05,3.33,1.84,6.74,2.61,10.28a18.59,18.59,0,0,1,2.38-9.89c.33-.58.93-1.23,1.55-1,.45.19.58.76.64,1.24a41.67,41.67,0,0,1-.18,10.19A29.89,29.89,0,0,1,483,553.1c.21-.41.52-.86,1-.87a.89.89,0,0,1,.78.56,2.47,2.47,0,0,1,.17,1,29.05,29.05,0,0,1-1,7.68l2.11-5.16a2.3,2.3,0,0,1,.53-.89.8.8,0,0,1,1-.1,1.12,1.12,0,0,1,.29.91C487.84,560.25,483.05,575.42,474.24,574.42Z"/><path class="cls-7" d="M615.28,590.86A112.29,112.29,0,0,1,632,563.18c6.48-8.13,13.52-15.37,20.56-22.77a201.42,201.42,0,0,0,20.22-24.25,103.36,103.36,0,0,0,15-31.54c.6-2.1,0-2.43-.6-.4a95.68,95.68,0,0,1-15.55,30,187.74,187.74,0,0,1-20.66,22.5c-7.23,6.86-14.57,13.69-21.49,21.64A110.65,110.65,0,0,0,611,586.76c-3.36,7.83-3.13,13.1-2,13.75C610.33,601.28,612.42,598,615.28,590.86Z"/><path class="cls-8" d="M670.47,517.71c-.38-10.22-.75-20.55.44-30.62s4.13-20,9.34-26.59c3.25-4.1,7.58-6.77,11.74-5.52,4.91,1.48,8.57,8.23,9.83,15.53a46.06,46.06,0,0,1-6.47,31.65C689.93,510.35,682.43,514.81,670.47,517.71Z"/><path class="cls-7" d="M621.63,702.75c-8-30-9.61-63.54-7.49-96.26,2.05-32.91,8.06-65.08,15.73-96.56s16.73-62.53,25-94.38a848.1,848.1,0,0,0,20-98.66c8.35-58,11.52-122.42,6.48-184.84-4.85-62.38-19-122.15-40-167.73-.64-1.45-1.16-.1-.68,1.49,36.9,116.69,43.7,253.72,20.36,378.38C648.74,411.55,625.18,473,611.28,541.62c-7,35.63-11.23,73.22-9.44,111.3.18,5.86.72,11.66,1.16,17.43.69,5.72,1.25,11.43,2.36,16.91a107.62,107.62,0,0,0,9.4,29.89c3.55,6.7,6.4,6.87,7.77,3.55a17.51,17.51,0,0,0,.86-7.22A59.68,59.68,0,0,0,621.63,702.75Z"/><path class="cls-7" d="M676.53,118a201.94,201.94,0,0,1,8.27-64.78c6.12-20.32,15.37-38.87,27.39-52.48,1-1.24.7-2-.38-.8-12.5,12.89-22.62,30.92-29.66,51.34a200.68,200.68,0,0,0-10.68,67c.14,8,1.84,11.77,3.1,11.5S676.85,125.49,676.53,118Z"/><path class="cls-8" d="M697.33,19.52c4.84-13.16,9.23-33.84,15.81-45.16,3-5.08,7.2-10.13,11.5-8.19,3.08,1.39,5.06,6.12,5.66,10.88,1.43,11.37-1.12,21.42-7.85,27S705.68,19.36,697.33,19.52Z"/><path class="cls-7" d="M677.48,151a252.27,252.27,0,0,0-19-49.26c-7.75-14.89-16.93-28.53-28-37.46-1-.81-1.24,0-.32.86,10.64,9.71,19,24,26,39.23a276.75,276.75,0,0,1,16.66,49.37C675.4,165.57,680.65,163.32,677.48,151Z"/><path class="cls-8" d="M647.14,84.4c-2.92-4.76-8.38-19.53-9.67-25.71S635,46.13,632.6,40.76s-6.39-9.64-10.68-9.3c-6.29.49-10.69,11.28-9.56,20.61s6.43,16.52,12.3,19.95S640.91,84.25,647.14,84.4Z"/><path class="cls-7" d="M680.63,238.25c9.7-32.55,25.42-61.58,45.48-81.88.88-.9.57-1.67-.34-.83-20.85,18.62-38.55,46.2-49.71,79.41C672.37,246.51,677.47,249.43,680.63,238.25Z"/><path class="cls-7" d="M660.18,394.33c18.55-16.55,35.21-37.56,49.56-61.51a421.62,421.62,0,0,0,36.39-79.14c.89-2.48.36-2.9-.57-.46-20.83,55.71-51.13,103.65-87.91,134.49-6.28,5.23-8.94,9.35-8.34,11.19S653.8,400,660.18,394.33Z"/><path class="cls-7" d="M641.32,430.8c-6-24.37-13.73-47.34-19.52-71.38s-9.7-49.48-7.6-75.06c.17-2.24-.42-2.4-.65-.14-2.8,25.66.42,52,5.46,76.61s12.16,48.38,17.53,72.52c1.83,8.25,3.89,11.84,5.17,11.27S643.38,439.18,641.32,430.8Z"/><path class="cls-7" d="M615,553c-2.32-22.16-8.38-42.15-12.67-62.59a219.32,219.32,0,0,1-4.51-31.36,112.94,112.94,0,0,1,2.09-31.74c.38-1.8-.17-2.14-.62-.34A116.5,116.5,0,0,0,596,459.25a231.13,231.13,0,0,0,3.42,32.4c3.63,21.13,8.88,41.5,10.49,62.42.53,7.09,1.82,10.59,3.17,10.56S615.72,560.66,615,553Z"/><path class="cls-8" d="M597.41,444.46c-8.06-12.92-10.4-33.24-5.7-49.51,1.17-4,2.79-7.93,5.15-10.54s5.56-3.78,8.3-2.21c4,2.27,5.76,9.3,5.93,15.66a65.47,65.47,0,0,1-4.25,23.9C604.18,429.08,600.66,435.6,597.41,444.46Z"/><path class="cls-8" d="M613.66,314.6c-7.82-9.91-11.24-27-8.34-41.81a31.75,31.75,0,0,1,4.31-11.5c2.12-3.11,5.06-5.1,8-4.71,4.91.64,8.61,7.81,9.25,15.17s-1.17,14.72-3.48,21.28A164.68,164.68,0,0,1,613.66,314.6Z"/><path class="cls-8" d="M729.64,296.54c.07-14.4.35-29.82,5.92-41.52,3-6.31,8-11.26,13.06-10.13,5.84,1.3,9.93,10.64,9.66,19.53a34.66,34.66,0,0,1-8.89,22C744.58,291.61,738.84,294.39,729.64,296.54Z"/><path class="cls-8" d="M703.05,183.24c1.48-8.57,3.26-17.11,6.2-24.78s7.12-14.48,12.44-18.27,11.83-4.22,17,0,8.51,13.57,7.29,22.23a23.43,23.43,0,0,1-10.43,16.74c-4.91,3-10.3,3.49-15.58,4S709.29,184.14,703.05,183.24Z"/><path class="cls-7" d="M1023.67,671.44c-2.61-6.54-3.15-13.85-2.46-21a84.18,84.18,0,0,1,5.17-21.05c2.49-6.87,5.49-13.62,8.2-20.57a131.6,131.6,0,0,0,6.58-21.5,123.17,123.17,0,0,0,2.13-40.29c-1.59-13.59-6.25-26.62-13.12-36.56-.22-.31-.38,0-.23.33,12.12,25.43,14.35,55.3,6.69,82.47-4.06,14.68-11.8,28.07-16.36,43a68.28,68.28,0,0,0-3.1,24.26c.06,1.28.24,2.54.38,3.8a32.21,32.21,0,0,0,.78,3.69,18.3,18.3,0,0,0,3.08,6.51c1.17,1.46,2.1,1.5,2.55.78a2.64,2.64,0,0,0,.29-1.58A9.44,9.44,0,0,0,1023.67,671.44Z"/><path class="cls-9" d="M1034,517a11.08,11.08,0,0,0-4.34-4.77,24,24,0,0,1-5.11-4,7.19,7.19,0,0,1-1.46-7c.88-2.32,3.66-3.9,6-3a5.39,5.39,0,0,1,2.93,3.08,14,14,0,0,1,.87,4.26C1033.14,508.9,1033.22,512.24,1034,517Z"/><path class="cls-7" d="M1041.7,544a30.28,30.28,0,0,1,2.71-14.12,29.62,29.62,0,0,1,9-11.44c.34-.27.23-.43-.12-.17A31.38,31.38,0,0,0,1040,544c0,1.75.61,2.57,1,2.51S1041.8,545.62,1041.7,544Z"/><path class="cls-9" d="M1048.52,522.52c1.59-2.86,3-7.37,5.19-9.84,1-1.11,2.37-2.21,3.78-1.78a3,3,0,0,1,1.86,2.37,5.19,5.19,0,0,1-2.58,5.88C1054.56,520.37,1051.26,522.49,1048.52,522.52Z"/><path class="cls-7" d="M1042,551.18a45.52,45.52,0,0,0-6.24-10.74,29.93,29.93,0,0,0-9.2-8.16c-.32-.18-.41,0-.11.18A28.73,28.73,0,0,1,1035,541a48.11,48.11,0,0,1,5.47,10.77C1041.32,554.36,1043.05,553.87,1042,551.18Z"/><path class="cls-9" d="M1032,536.67a22.35,22.35,0,0,1-3.17-5.61,14.57,14.57,0,0,0-1.6-3.91,4.21,4.21,0,0,0-3.51-2c-2.06.1-3.51,2.46-3.13,4.49a6.22,6.22,0,0,0,4,4.35C1026.59,534.72,1030,536.63,1032,536.67Z"/><path class="cls-7" d="M1043,570.2A42.72,42.72,0,0,1,1058,552.35c.29-.19.19-.36-.11-.18a42.81,42.81,0,0,0-16.32,17.31C1040.33,572,1042,572.64,1043,570.2Z"/><path class="cls-7" d="M1040,583.15a23.24,23.24,0,0,0-2-6.88c-1-2.16-2.07-4.21-3.15-6.27a53.1,53.1,0,0,1-2.91-6.27,17.52,17.52,0,0,1-1.19-6.75c0-.41-.19-.43-.21,0a18.22,18.22,0,0,0,.86,6.95,53.24,53.24,0,0,0,2.58,6.52c1.91,4.22,4,8.43,4.37,12.88.08,1.49.44,2.26.89,2.3.22,0,.43-.17.59-.58A3.84,3.84,0,0,0,1040,583.15Z"/><path class="cls-7" d="M1036.33,604.22a70.5,70.5,0,0,0,16.27-13.41,82.78,82.78,0,0,0,12-17.25c.29-.54.11-.63-.19-.1a76.34,76.34,0,0,1-28.86,29.32c-2.07,1.14-2.94,2-2.74,2.43S1034.23,605.45,1036.33,604.22Z"/><path class="cls-7" d="M1030.13,612.17c-2-5.31-4.5-10.32-6.41-15.56s-3.18-10.78-2.49-16.36c0-.49-.14-.52-.21,0-.92,5.59.13,11.33,1.79,16.7s4,10.54,5.76,15.8c.6,1.8,1.27,2.58,1.69,2.46S1030.81,614,1030.13,612.17Z"/><path class="cls-7" d="M1021.59,647.06a25,25,0,0,1,5.47-6c2.13-1.77,4.44-3.35,6.75-5a55,55,0,0,0,6.64-5.29,20.62,20.62,0,0,0,4.91-6.87c.19-.46,0-.53-.2-.09a19.84,19.84,0,0,1-5.1,6.54,54,54,0,0,1-6.79,4.9c-2.37,1.5-4.78,3-7,4.72a25.94,25.94,0,0,0-6,6.19c-1.1,1.71-1,2.86-.65,3S1020.64,648.62,1021.59,647.06Z"/><path class="cls-7" d="M1021.48,638.81c-.77-4.83-2.76-9.19-4.17-13.64a33.37,33.37,0,0,1-1.47-6.84,16.41,16.41,0,0,1,.68-6.92c.13-.39,0-.46-.2-.07a17.15,17.15,0,0,0-1.06,7,34.4,34.4,0,0,0,1.12,7.06c1.19,4.61,2.92,9.05,3.45,13.61.17,1.54.59,2.31,1,2.3S1021.73,640.47,1021.48,638.81Z"/><path class="cls-9" d="M1015.72,615.15a10.18,10.18,0,0,1-1.87-10.79,5.4,5.4,0,0,1,1.69-2.3,2.91,2.91,0,0,1,2.72-.48c1.3.49,1.89,2,2,3.41a10.14,10.14,0,0,1-1.4,5.21C1017.94,611.79,1016.78,613.21,1015.72,615.15Z"/><path class="cls-9" d="M1021.05,586.84a8.9,8.9,0,0,1-2.74-9.11,5.76,5.76,0,0,1,1.42-2.51,3.44,3.44,0,0,1,2.63-1,3.69,3.69,0,0,1,3,3.31,7.91,7.91,0,0,1-1.14,4.64A31.51,31.51,0,0,1,1021.05,586.84Z"/><path class="cls-9" d="M1059.13,582.9c0-3.13.12-6.49,1.94-9a4.75,4.75,0,0,1,4.29-2.2,4.09,4.09,0,0,1,3.17,4.25,6.51,6.51,0,0,1-2.92,4.8C1064,581.83,1062.15,582.44,1059.13,582.9Z"/><path class="cls-9" d="M1039.7,631.11a29.14,29.14,0,0,1,.15-6.67,9.67,9.67,0,0,1,3.06-5.8,4.77,4.77,0,0,1,3.86-1.2,4.52,4.52,0,0,1,3.23,3.38,7.43,7.43,0,0,1-2.13,6.9C1046.09,629.51,1043.63,630.48,1039.7,631.11Z"/><path class="cls-9" d="M1031.85,564.75c.48-2.6,1-5.21,1.43-7.82a11.19,11.19,0,0,0,.27-3,3.73,3.73,0,0,0-1.3-2.63,3.78,3.78,0,0,0-4.5.38,6.61,6.61,0,0,0-1.87,7.07C1026.68,561.23,1028.7,563.17,1031.85,564.75Z"/><path class="cls-9" d="M1050.4,558.21a21.47,21.47,0,0,1,2-5.4,9.55,9.55,0,0,1,4.08-4,6.26,6.26,0,0,1,5.58,0,4.67,4.67,0,0,1,2.39,4.85,5.42,5.42,0,0,1-3.42,3.65,16,16,0,0,1-5.12.86A34.09,34.09,0,0,1,1050.4,558.21Z"/><path class="cls-10" d="M898,696.68c1.36-15.38,3.48-30.63,5.57-45.86s4.76-30.37,6.65-45.62,3.4-30.53,4.31-45.87,1.4-30.73,1.31-46.12a.21.21,0,0,1,.2-.21.22.22,0,0,1,.22.2q1,23.09.37,46.22c-.49,15.41-1.55,30.81-3.07,46.16s-3.17,30.7-5.84,45.88-5.66,30.29-9.3,45.29a.22.22,0,0,1-.26.15A.21.21,0,0,1,898,696.68Z"/><path class="cls-10" d="M890.08,514.24q2.31,22.72,4.19,45.5t3.15,45.59c.88,15.21,2,30.42,2.08,45.66s-.07,30.49-1.11,45.72a.21.21,0,0,1-.42,0c-1.27-15.22-2-30.42-2.67-45.61s-.73-30.42-1.24-45.63-1.11-30.41-1.88-45.61-1.54-30.4-2.52-45.6a.21.21,0,0,1,.19-.22A.21.21,0,0,1,890.08,514.24Z"/><path class="cls-11" d="M897.91,464.28a8.13,8.13,0,0,0-15.17-1.15c-2.75,5.91-3.68,13-3.79,19.63a123.2,123.2,0,0,0,3.62,31.88,19.89,19.89,0,0,0,2.83,7.06,7.63,7.63,0,0,0,6.47,3.45c4.63-.35,6.91-5.74,7.87-10.29a105.32,105.32,0,0,0-1.8-50.45Z"/><path class="cls-12" d="M885.85,499.13A137.44,137.44,0,0,1,884.58,478c0-.8-.26-.83-.32,0-1.15,13.56-.68,27.92,2.43,41.3,1.17,4.87,3,4.78,2.35.58C888.09,513.49,886.77,506.37,885.85,499.13Z"/><path class="cls-12" d="M894,486.59c-.8,9-1.91,18.23-2.7,27.31-.17-4.26-.41-8.73-.55-13.22a166.4,166.4,0,0,1,.35-20.14c.06-.76-.22-.8-.33,0-1.89,12.8-2.79,26.35-1.52,39.32.36,3.46,1.44,4.45,2,3.15.51.8,1.33.17,1.71-2,1.82-10.41,1.17-23.77,1.41-34.39C894.29,486,894,485.93,894,486.59Z"/><path class="cls-12" d="M896.33,499.29c-.92,7.82-2.3,15.89-3,23.71-.25,2.85,1.51,3.23,2.09.8,1.76-7.37,1-16.92,1.22-24.49C896.67,498.85,896.38,498.82,896.33,499.29Z"/><path class="cls-13" d="M890.91,528.86a32.24,32.24,0,0,1-11.15-12,6,6,0,0,1-.88-2.7,2.34,2.34,0,0,1,1.4-2.28c1-.34,2.08.29,2.93,1a26.29,26.29,0,0,1,5.63,5.95,14.05,14.05,0,0,1-.47-10c.5-1.48,1.81-3.12,3.28-2.6a3.27,3.27,0,0,1,1.65,2.37A34.21,34.21,0,0,1,894.6,519a19.37,19.37,0,0,1,4.6-8.83,2.71,2.71,0,0,1,2.19-1.16c1.26.18,1.67,1.79,1.66,3.06A18.19,18.19,0,0,1,890.91,528.86Z"/><path d="M890.42,459c-.35-1.59-.7-3.17-1.06-4.76a20.26,20.26,0,0,0-1.19-4.7c-.65-1.32-3.07-1.36-3.15.4a19.8,19.8,0,0,0,.72,4.76c.32,1.59.64,3.18,1,4.77C887.17,461.88,890.94,461.39,890.42,459Z"/><path d="M888.65,461.92a3,3,0,0,1-1-.16,2.66,2.66,0,0,1-1.82-2.08l-1-4.78c-.07-.35-.15-.7-.23-1.06a14.85,14.85,0,0,1-.51-3.9,2.2,2.2,0,0,1,1.79-2.12,2.77,2.77,0,0,1,3,1.38,13.85,13.85,0,0,1,1,3.65c.07.43.15.84.24,1.24l1,4.77a2.4,2.4,0,0,1-.7,2.36A2.8,2.8,0,0,1,888.65,461.92Zm-2.15-12.44a.65.65,0,0,0-.2,0,.48.48,0,0,0-.43.52,13.24,13.24,0,0,0,.47,3.45c.09.37.17.74.24,1.1l.95,4.77a1,1,0,0,0,.69.8,1.27,1.27,0,0,0,1.19-.19.66.66,0,0,0,.17-.72l-1.05-4.77c-.09-.42-.17-.86-.26-1.3a12.3,12.3,0,0,0-.86-3.2A1,1,0,0,0,886.5,449.48Z"/><path class="cls-11" d="M936.48,462.64a8.13,8.13,0,0,0-14.56-4.39c-4,5.18-6.39,11.91-7.93,18.36a123.72,123.72,0,0,0-3.33,31.91A19.89,19.89,0,0,0,911.9,516a7.66,7.66,0,0,0,5.58,4.76c4.6.65,8-4.12,9.9-8.35a105.33,105.33,0,0,0,9.11-49.65Z"/><path class="cls-12" d="M929.57,482.08c.07-.63-.21-.67-.33-.05a91.63,91.63,0,0,1-8.55,24.91c2.09-6.06,3.51-12.91,5.12-18.57.13-.47-.14-.57-.32-.1-2.49,6.52-5.34,13.13-7.81,19.72.75-4.64,1.52-9.59,2.52-14.53a114.8,114.8,0,0,1,5.28-18.89c.26-.7,0-.82-.31-.13a120.93,120.93,0,0,0-9.46,30.15,77,77,0,0,1-.39-8,50.44,50.44,0,0,1,2.6-16.32c.2-.59-.06-.71-.3-.12-4.28,9.85-5.84,21.66-3.14,32.4a11.93,11.93,0,0,0,.38,1.15c.15,1.14.52,1.64.92,1.48.52.44,1,.15,1.08-.75a1.09,1.09,0,0,0,.29-.14c-.09,1,.6,1.26,1.63.27-.32,1.12.64,1.67,2,.59a23.5,23.5,0,0,0,6.39-9.2,44.85,44.85,0,0,0,2.76-10.85c.07-.42-.21-.48-.32-.07a44.43,44.43,0,0,1-8.76,16.67,52.68,52.68,0,0,0,5.7-13.16A93.72,93.72,0,0,0,929.57,482.08Z"/><path class="cls-13" d="M915.74,524.2a32.28,32.28,0,0,1-8.3-14.13,6,6,0,0,1-.28-2.82,2.37,2.37,0,0,1,1.86-1.93c1.06-.11,2,.74,2.66,1.56a26.45,26.45,0,0,1,4.22,7,14,14,0,0,1,1.7-9.92c.81-1.33,2.44-2.66,3.76-1.83a3.22,3.22,0,0,1,1.1,2.66,34.38,34.38,0,0,1-1,10.5,19.47,19.47,0,0,1,6.39-7.63,2.68,2.68,0,0,1,2.39-.66c1.19.44,1.25,2.11,1,3.35A18.17,18.17,0,0,1,915.74,524.2Z"/><path d="M930.3,455.92c0-1.63,0-3.25,0-4.88a20.58,20.58,0,0,0-.15-4.84c-.35-1.43-2.71-2-3.16-.29a19.73,19.73,0,0,0-.32,4.8l-.1,4.86C926.51,458,930.3,458.32,930.3,455.92Z"/><path d="M928.61,458.42A3.14,3.14,0,0,1,927,458a2.71,2.71,0,0,1-1.34-2.43l.1-4.87c0-.36,0-.72,0-1.09a14.49,14.49,0,0,1,.34-3.92,2.17,2.17,0,0,1,2.2-1.68,2.77,2.77,0,0,1,2.62,2,13.33,13.33,0,0,1,.21,3.79q0,.64,0,1.26v4.88a2.38,2.38,0,0,1-1.19,2.15A2.77,2.77,0,0,1,928.61,458.42Zm-.29-12.71a.49.49,0,0,0-.52.42,13,13,0,0,0-.28,3.47c0,.37,0,.75,0,1.12l-.1,4.87a1,1,0,0,0,.51.93,1.27,1.27,0,0,0,1.19.07.68.68,0,0,0,.33-.67V451c0-.43,0-.88,0-1.33a12,12,0,0,0-.16-3.31,1,1,0,0,0-1-.69Z"/><path class="cls-10" d="M299.18,424.84q4.23,26.27,7.7,52.59,3.28,26.34,5.78,52.71c1.61,17.58,3.63,35.16,3.81,52.78a434.33,434.33,0,0,1-2,52.85c0,.14-.2.24-.41.23s-.35-.11-.36-.22c-2.33-17.59-3.65-35.16-4.91-52.73s-1.33-35.15-2.27-52.73-2-35.16-3.46-52.73-2.82-35.15-4.62-52.71c0-.13.15-.25.36-.26S299.16,424.71,299.18,424.84Z"/><path class="cls-11" d="M313.55,367.09c-3.82-8.32-22-9.18-27.84-1.33-5,6.83-6.76,15-7,22.69a93.43,93.43,0,0,0,6.65,36.85c1.13,2.86,2.45,5.78,5.19,8.17a17.44,17.44,0,0,0,11.88,4c8.51-.41,12.7-6.63,14.46-11.89a78.56,78.56,0,0,0-3.3-58.32Z"/><path class="cls-12" d="M291.41,407.37A100.24,100.24,0,0,1,289.09,383c0-.93-.48-1-.6,0-2.1,15.67-1.25,32.27,4.48,47.74,2.14,5.63,5.55,5.52,4.3.67C295.52,424,293.1,415.75,291.41,407.37Z"/><path class="cls-12" d="M306.29,392.88c-1.48,10.4-3.51,21.07-5,31.56-.32-4.92-.77-10.08-1-15.28a122.79,122.79,0,0,1,.64-23.27c.12-.88-.39-.93-.59-.05-3.48,14.79-5.13,30.45-2.8,45.45.65,4,2.64,5.15,3.6,3.64.92.92,2.44.2,3.13-2.28,3.34-12,2.15-27.47,2.59-39.75C306.92,392.15,306.4,392.12,306.29,392.88Z"/><path class="cls-12" d="M310.66,407.55c-1.69,9.05-4.22,18.37-5.48,27.42-.45,3.29,2.79,3.73,3.85.92,3.23-8.52,1.9-19.55,2.23-28.31C311.28,407.05,310.76,407,310.66,407.55Z"/><path class="cls-13" d="M300.7,441.74c-8.57-3.41-15.7-8.25-20.47-13.89a5.44,5.44,0,0,1-1.61-3.11,2.92,2.92,0,0,1,2.56-2.64,8.64,8.64,0,0,1,5.39,1.1,43.4,43.4,0,0,1,10.34,6.88,10.76,10.76,0,0,1-.86-11.62,5.78,5.78,0,0,1,6-3,4.28,4.28,0,0,1,3,2.73,26,26,0,0,1,2.39,12.09,21.62,21.62,0,0,1,8.44-10.2,6.23,6.23,0,0,1,4-1.34,3.28,3.28,0,0,1,3.05,3.54C322.87,430.74,314,438.9,300.7,441.74Z"/><path d="M299.8,361l-1.93-5.5c-.62-1.76-.91-3.82-2.19-5.43s-5.64-1.58-5.79.46c-.14,1.84.76,3.69,1.33,5.5l1.74,5.52C293.83,364.31,300.75,363.75,299.8,361Z"/><path d="M296.55,364.36a8.79,8.79,0,0,1-1.77-.18c-1.76-.37-3-1.25-3.35-2.41l-1.75-5.52c-.13-.41-.28-.81-.42-1.22a11.27,11.27,0,0,1-.94-4.52c.09-1.25,1.35-2.19,3.27-2.44,2.18-.29,4.55.39,5.5,1.59a11.67,11.67,0,0,1,1.87,4.22c.14.49.28,1,.44,1.43l1.93,5.51a2.2,2.2,0,0,1-1.28,2.73A7.27,7.27,0,0,1,296.55,364.36ZM292.61,350a2.23,2.23,0,0,0-.37,0c-.66.09-.77.35-.79.6a10.24,10.24,0,0,0,.87,4c.15.43.3.85.44,1.27l1.74,5.52a1.5,1.5,0,0,0,1.27.92,3.46,3.46,0,0,0,2.18-.22.62.62,0,0,0,.32-.83l-1.93-5.51c-.17-.48-.32-1-.47-1.51a10.6,10.6,0,0,0-1.59-3.69A2.31,2.31,0,0,0,292.61,350Z"/><path class="cls-14" d="M1125,698.13c-3.49.9-6.81,1.69-9.92,2.33-72.18,14.84-148.41,20.81-229.2,23.5-186,6.22-343.18-30.87-516.42-50.66-63-7.2-139.66-9.83-203.7-4.43C99.65,674.44,51.19,689.86,0,704.81V939H1125Z"/></svg>