<svg id="Livello_1" data-name="Livello 1" xmlns="http://www.w3.org/2000/svg" viewBox="0 0 1125 2436"><defs><style>.cls-1{fill:#fbca79;}.cls-2{fill:#659157;}.cls-3{fill:none;stroke:#c7851a;stroke-linecap:round;stroke-miterlimit:10;stroke-width:8px;stroke-dasharray:20;}</style></defs><title>Grafiche web</title><path class="cls-1" d="M1125,392.13C1125,392,0,399,0,398.81V1021H1125Z"/><path class="cls-2" d="M1125,868.61c-3.49,3.13-158.33,81.29-239.12,90.78-186,21.83-343.18-108.51-516.42-178.07-63-25.3-139.66-34.52-203.7-15.55C99.65,785.36,51.19,839.52,0,892.07V1870H1125Z"/><path class="cls-3" d="M272,534c174.37,89.55,415,268,455,190,0,0,60-123-228,21-189.19,142.25,74,554,180,517,0,0,149.94-115.78-180-50-321,64,367,411,114,607"/></svg>