<svg id="Livello_1" data-name="Livello 1" xmlns="http://www.w3.org/2000/svg" viewBox="0 0 1125 2436"><defs><style>.cls-1{fill:#659157;}.cls-2{fill:#fff;}</style></defs><title>bici</title><path class="cls-1" d="M1125,295.61C1121.51,298.74,0,320,0,319.07V1663H1125Z"/><path class="cls-2" d="M1125,1390.69c-14.09,1.48-26.54,9.2-29.81,30-13.69-9.91-24.3,16.38-29,29-25-22.46-42.37,11.44-51.2,39.09-10.55-11.68-42.64-37.68-50.53-9.37-26.87-37.54-73.92-30-85.61,23.62-14.47-4.35-25.53-10.44-39.65-.71-11.56,8-28.36,28.39-28.07,45.53-17.18-15.28-39.38-22.91-46.24,6.94,2-18.94-19.78-44.43-36.16-47.67-22.13-4.39-40,11.08-54.33,29.79-5.8-37.8-45.31-70.58-67.38-32.07-17.69-56.17-83.29-37-98,11.87-14.73-20.9-32.59-7.28-41.31,13.18a2.46,2.46,0,0,1-.57.74c-10.43-21.53-29.26-21.34-43.18-4.46-6.09-40.07-53.3-57.07-75.64-30.26-4.39-18.92-29.82-18.1-41.51-15.93-23.31,4.33-38.62,17.68-43,48-18.44-21.25-53.45-27.64-61.54,12-7.5-11.52-24.42-15.22-31.74-1.78-4.12-13.49-20.62-21.85-28.52-10.33-8.76-19.71-29.53-51.76-49.64-32.36-4.61-33.21-33.22-70.22-56.36-39.05-7.94-25.65-21.44-33.53-36-30.91V1911c455-216,601,147,1125,0Z"/></svg>