<svg xmlns="http://www.w3.org/2000/svg" viewBox="0 0 1125 2436"><defs><style>.cls-1{isolation:isolate;}.cls-15,.cls-2{fill:#3c5998;}.cls-3{fill:#fff;}.cls-4{fill:#e9a828;}.cls-5{fill:#eecbad;}.cls-6{fill:#86313b;}.cls-7{fill:#153672;}.cls-8{fill:#7c8484;}.cls-9{fill:#2e3232;}.cls-10{fill:#575d5d;}.cls-11{fill:#5a2128;}.cls-12{fill:#f1ce37;}.cls-13{fill:#6c8e8e;opacity:0.3;}.cls-13,.cls-15{mix-blend-mode:multiply;}.cls-14{fill:#f4d9c1;}.cls-15{opacity:0.5;}</style></defs><title>bici</title><g class="cls-1"><g id="Livello_1" data-name="Livello 1"><path class="cls-2" d="M503.73,1683c-11.34-.59-22.2,2.82-33.18,5.25-15.85,3.51-32.09,6.39-48.19,8.61-26.19,3.61-54.24,9.92-81.14,9.73-2.7-1.86-5.44-3.68-8.13-5.57.05-.21.11-.42.16-.63,19.69-19.64,38.89-38.83,60.85-56.33,23.72-18.91,49-36.25,71.28-56.93,1.57-1.46-.44-4-2.1-2.62-23.17,19.74-47.39,38.07-71.23,57-20.76,16.46-39,34.56-57.39,53.07,7.62-30.74,18.81-61,31.6-90,9-20.37,22.78-43.73,23.43-66.53.08-3.07-4.63-3.6-4.79-.47-1.2,23.47-14.91,47.23-24.21,68.33a565.69,565.69,0,0,0-27.75,78.44c1.25-29.06,2.33-58.13,4.38-87.15,1.57-22.18,4.78-45.15,1.64-67.32-.4-2.83-4.76-2.11-4.36.71,3.3,23.29-.35,47.73-1.93,71.06-2.08,30.8-3,61.66-4.25,92.49-12.38-24.8-26-49.07-39.43-73.31-13.34-24.08-26-48.77-42.51-70.89-.63-.85-1.85.17-1.26,1,16.55,23.69,29.22,49.58,43.12,74.84,12.71,23.09,25.38,46.27,37.22,69.81-18.37-13.17-36.4-26.84-54.62-40.28-13.57-10-25.42-22.45-40-31s-32.7-5.6-46.19-15.52a1.28,1.28,0,0,0-1.53,2.06c11.72,9.25,26.1,7.44,39.33,13.13,15.36,6.6,26.71,18.9,39.49,29.27,20.94,17,42.85,33.32,65.18,48.81l-3.36,3.38c-12.18-1.8-24.33-5.82-36.5-7.66a195.28,195.28,0,0,0-42.68-1.3c-32.17,2.23-59.95,22.23-92.46,23.31-1.35,0-1.24,2.26.08,2.34,29.41,1.72,55.63-15,83.8-20.59,28.67-5.73,56,2.86,83.7,7.9-21.54,21.19-45.85,39.34-70.19,57.14-19.38,14.18-43.78,31-51.37,55.06-.37,1.18,1.4,1.88,1.8.69,8.76-25.52,36-42.74,56.93-57.76,23.28-16.74,45.82-34.52,66.4-54.5l2.66.43a329.21,329.21,0,0,1-33.52,79.74c-13.42,22.85-32.35,45.81-34,73.3a1.29,1.29,0,0,0,2.56.25c3.21-30.22,25.3-51.79,38.5-77.7,7.34-14.41,15-28.66,21.4-43.52a143.34,143.34,0,0,0,5.84-16.45c-1.12,20.25-2,40.44-.57,60.79,2.17,30.12,7.88,60.16,14.61,89.55.29,1.3,2.32,1,2.06-.34a842.73,842.73,0,0,1-12.8-85.4c-2.5-26.5-.2-53,1.49-79.47.53.06,1.07.13,1.61.18,10.6,23.29,19.24,47.45,31,70.22,13.85,26.71,28.39,53.17,41.28,80.38,1.12,2.37,4.35,1.18,4.18-1.25-.05-.83-.11-1.67-.17-2.5a1.7,1.7,0,0,0-1.62-1.61c-10.95-24.68-24.13-49.17-37.31-72.63-13.05-23.22-22.7-48.16-33.77-72.37,1.58.09,3.15.13,4.72.14,4.85,3.27,9.69,6.57,14.57,9.74,26.1,17,53.16,33.6,80.89,47.77,10.92,5.58,21.9,11,32.45,17.28,8.69,5.16,23.23,13.14,24.41,24.36.28,2.72,4.3,2,4.13-.68-1.13-17.8-29.21-29.36-42.38-36.3-28.92-15.28-57.31-31.25-85.25-48.31-7.35-4.5-14.56-9.2-21.69-14,20.26-1,40.69-6.37,60.52-8.46,17.16-1.81,33.93-4.46,50.86-7.85,13.32-2.65,27.7-7.46,41.4-7.2,1.3,1.78,4.64,1.64,4.64-1.07v-1.26A2.63,2.63,0,0,0,503.73,1683Z"/><path class="cls-2" d="M1052,1674.31c-11.35-.58-22.21,2.82-33.18,5.25-15.87,3.51-32.1,6.4-48.2,8.62-26.18,3.61-54.25,9.92-81.14,9.73-2.7-1.87-5.43-3.69-8.13-5.57,0-.22.11-.42.16-.63,19.69-19.63,38.89-38.83,60.85-56.34,23.72-18.91,49.05-36.23,71.28-56.93,1.57-1.46-.44-4-2.09-2.62-23.18,19.75-47.4,38.07-71.24,57-20.76,16.47-39,34.57-57.39,53.08,7.63-30.75,18.81-61.05,31.6-90,9-20.37,22.78-43.73,23.43-66.53.09-3.07-4.64-3.6-4.79-.47-1.2,23.47-14.91,47.22-24.2,68.33a565.73,565.73,0,0,0-27.76,78.44c1.25-29.06,2.34-58.13,4.38-87.15,1.56-22.18,4.77-45.15,1.64-67.32-.4-2.82-4.77-2.11-4.36.71,3.3,23.29-.35,47.73-1.92,71.06-2.08,30.8-3,61.66-4.26,92.49-12.38-24.8-26-49.07-39.43-73.31-13.34-24.08-26-48.77-42.51-70.9-.63-.84-1.85.17-1.26,1,16.56,23.69,29.23,49.58,43.13,74.83,12.71,23.09,25.37,46.27,37.21,69.82-18.37-13.18-36.4-26.84-54.61-40.29-13.57-10-25.43-22.45-40-31S746.51,1610,733,1600.1a1.28,1.28,0,0,0-1.52,2.06c11.72,9.25,26.09,7.44,39.32,13.12,15.37,6.61,26.71,18.91,39.49,29.28,20.94,17,42.85,33.32,65.18,48.82l-3.36,3.36c-12.18-1.79-24.33-5.81-36.49-7.66A194.73,194.73,0,0,0,793,1687.8C760.79,1690,733,1710,700.49,1711.09c-1.34.05-1.24,2.27.08,2.35,29.41,1.71,55.63-15,83.8-20.6,28.67-5.73,56,2.87,83.71,7.9-21.54,21.2-45.86,39.35-70.19,57.15-19.38,14.17-43.78,31-51.38,55.06-.37,1.18,1.4,1.88,1.81.69,8.75-25.51,36-42.74,56.93-57.76,23.27-16.74,45.81-34.52,66.39-54.51.89.16,1.77.29,2.66.43a328.55,328.55,0,0,1-33.52,79.75c-13.42,22.85-32.34,45.81-34,73.3a1.28,1.28,0,0,0,2.55.24c3.21-30.22,25.3-51.79,38.5-77.7,7.35-14.41,15-28.65,21.41-43.51a146.59,146.59,0,0,0,5.83-16.45c-1.12,20.24-2,40.45-.57,60.79,2.18,30.12,7.88,60.16,14.61,89.54.29,1.31,2.32,1,2.06-.33a845.33,845.33,0,0,1-12.8-85.41c-2.49-26.5-.2-53,1.49-79.47.54.06,1.07.14,1.61.18,10.6,23.3,19.24,47.45,31,70.22,13.85,26.72,28.4,53.18,41.28,80.39,1.12,2.37,4.36,1.18,4.18-1.26-.05-.82-.1-1.66-.16-2.49a1.72,1.72,0,0,0-1.63-1.61c-10.95-24.68-24.13-49.16-37.31-72.63-13.05-23.22-22.7-48.16-33.77-72.37,1.58.08,3.15.13,4.73.14,4.84,3.27,9.68,6.57,14.57,9.74,26.09,17,53.15,33.59,80.88,47.76,10.93,5.58,21.89,11,32.46,17.28,8.67,5.17,23.22,13.15,24.41,24.37.29,2.71,4.29,2,4.12-.68-1.12-17.8-29.2-29.37-42.38-36.31C975,1750,946.57,1734,918.64,1717c-7.37-4.49-14.57-9.18-21.7-14,20.26-1,40.69-6.38,60.52-8.46,17.17-1.81,33.93-4.46,50.86-7.85,13.32-2.66,27.7-7.46,41.4-7.2,1.3,1.77,4.65,1.64,4.65-1.08v-1.26A2.65,2.65,0,0,0,1052,1674.31Z"/><path class="cls-3" d="M565.5,1811.53c-7.72-3.86-15.41-7.24-22.13-12.44-5.8-4.47-10.4-10.37-16.81-14.14-4.91-2.9-10.68-3.59-15.6-5.81s-9.74-4.68-14.93-6.45-9.52-1.17-13.55,2.32a20.17,20.17,0,0,0-4,5c-7.47,7-11.51,17.22-5.81,26.33,3.73,6,11.41,7.59,18.35,8.88a92.67,92.67,0,0,1,19.76,6c12.05,5.16,23.91,11.67,37.48,12.8,8.37.71,28.93-1.45,27.27-12.39-.7-4.64-5.81-7.88-10.07-10"/><path class="cls-2" d="M545.77,1801.22c-1.42.72-2.81,1.53-4.19,2.26s-2.94,1.43-4.46,2.09a1.7,1.7,0,0,0-.59,2.59,2.44,2.44,0,0,0,3,.69c1.54-.68,3-1.34,4.5-2.12a13.25,13.25,0,0,0,4.11-3,1.45,1.45,0,0,0,0-2.08,2.11,2.11,0,0,0-2.33-.45"/><path class="cls-2" d="M537.1,1792.64a3.38,3.38,0,0,0-2.46.48c-.41.27-.82.51-1.24.76a31.48,31.48,0,0,1-2.91,1.44c-.5.21-1,.41-1.5.58,0,0,0,0,0,0a1.57,1.57,0,0,0-.4.14c-.24.07-.45.15-.69.21-1.08.35-2.14.68-3.24,1a2,2,0,0,0-1.57,2.66,2.8,2.8,0,0,0,3.15,1.57,56.37,56.37,0,0,0,6.92-2.36,22.45,22.45,0,0,0,3-1.56c1.12-.75,2.82-1.79,2.59-3.26a2,2,0,0,0-1.6-1.68"/><path class="cls-2" d="M529.47,1785.82a3.35,3.35,0,0,0-2.45-.07,24.5,24.5,0,0,0-2.68,1.14l-1.08.42a4.1,4.1,0,0,0-.48.21.69.69,0,0,0-.23.08c-.87.28-1.73.54-2.63.76-.47.11-.95.19-1.43.26a5.15,5.15,0,0,0-.53.07l-.41,0c-1.38.1-2.67,1-2.49,2.34a2.78,2.78,0,0,0,2.83,2.36,28.27,28.27,0,0,0,10.38-3c1-.51,2.26-1.18,2.49-2.29a2.11,2.11,0,0,0-1.29-2.33"/><path class="cls-4" d="M580.46,1564.26c-2.74-17-5.43-34-7.89-51-4.8-33.3-2.73-153.72-12.48-178.55-.54-1.37-2.71-1.7-3.89-.85a12.79,12.79,0,0,0-1.43,1.42L437.31,1355.9a1.64,1.64,0,0,0-1.9.34l-.46.08s.07.15.16.38c-.36,39.42,11.32,83.21,37.41,134.68,12.43,24.51,25.35,60,39.19,83.32,8.1,13.63,10,26.17,5.78,41.15-4.36,15.43-12.95,29.83-18.5,44.93-10.42,28.37-4.1,58.22-9.79,87.06-1.25,6.35-5.56,17.25-2,23.52,3.92,6.94,14,10.93,22.13,12.45,20.13,3.77,23.6-10.76,27.72-25.4,5.81-20.61,7.78-41.83,13.5-62.45,8.28-29.81,25-57.65,31.18-87.78C584.7,1593.48,582.82,1578.89,580.46,1564.26Z"/><polygon class="cls-5" points="485.05 1774.93 494.24 1748.65 530.8 1757.59 520.5 1781.77 485.05 1774.93"/><path class="cls-6" d="M333.61,1519.17c-103.51,0-187.42,83.92-187.42,187.43S230.1,1894,333.61,1894,521,1810.1,521,1706.6,437.12,1519.17,333.61,1519.17Zm0,343.24A155.81,155.81,0,1,1,489.42,1706.6,155.82,155.82,0,0,1,333.61,1862.41Z"/><path class="cls-7" d="M885.16,1668c-20.92,0-37.87,17.29-37.87,38.62s17,38.6,37.87,38.6S923,1727.92,923,1706.6,906.07,1668,885.16,1668Z"/><path class="cls-6" d="M885.16,1519.17c-103.51,0-187.42,83.92-187.42,187.43S781.65,1894,885.16,1894s187.42-83.9,187.42-187.4S988.67,1519.17,885.16,1519.17Zm0,343.24A155.81,155.81,0,1,1,1041,1706.6,155.82,155.82,0,0,1,885.16,1862.41Z"/><path class="cls-8" d="M562,1741.64a10.86,10.86,0,1,1-10.86-10.86A10.85,10.85,0,0,1,562,1741.64Z"/><path class="cls-9" d="M885.16,1698.22a8.38,8.38,0,1,0,8.21,8.38A8.3,8.3,0,0,0,885.16,1698.22Z"/><path class="cls-10" d="M338,1680.19a1.88,1.88,0,0,1-.34,0l-2.05-.19a3.07,3.07,0,1,1,.57-6.12l2,.18a3.06,3.06,0,0,1,2.78,3.34A3.1,3.1,0,0,1,338,1680.19Z"/><path class="cls-7" d="M552.93,1699.79a1.88,1.88,0,0,1-.34,0l-4.14-.37a3.09,3.09,0,0,1-2-1,3.13,3.13,0,0,1-2.14.61l-4.14-.38a3,3,0,0,0-4.12-.38l-4.14-.37a3.06,3.06,0,0,0-4.14-.38l-4.12-.37a3.13,3.13,0,0,1-2-1,3,3,0,0,1-2.13.61l-4.15-.38a3.11,3.11,0,0,0-4.13-.38l-4.14-.37a3.08,3.08,0,0,1-2-1,3.13,3.13,0,0,1-2.14.63l-4.12-.38a3.1,3.1,0,0,1-2-1,3.06,3.06,0,0,1-2.14.6l-4.14-.37a3.09,3.09,0,0,0-4.13-.37l-4.13-.38a3.08,3.08,0,0,0-4.13-.38l-4.14-.38a3.13,3.13,0,0,1-2-1,3.18,3.18,0,0,1-2.15.61l-4.13-.38a3.06,3.06,0,0,0-4.13-.37l-4.13-.38a3.06,3.06,0,0,0-4.14-.38l-4.13-.37a3.13,3.13,0,0,1-2-1,3,3,0,0,1-2.14.61l-4.13-.37a3.11,3.11,0,0,1-2-1,3,3,0,0,1-2.13.62l-4.14-.38a3.09,3.09,0,0,1-2-1,3.13,3.13,0,0,1-2.14.61l-4.13-.38a3.11,3.11,0,0,1-2-1,3.07,3.07,0,0,1-2.14.62l-4.13-.38a3.09,3.09,0,0,1-2-1,3,3,0,0,1-2.13.6l-4.14-.37a3.05,3.05,0,0,1-2-1,3,3,0,0,1-2.13.62l-4.14-.39a3.09,3.09,0,0,1-2-1,3.11,3.11,0,0,1-2.14.61l-4.13-.37a3.1,3.1,0,0,1-2-1,3.21,3.21,0,0,1-2.15.61l-4.13-.38a3,3,0,0,1-2-1,3.08,3.08,0,0,1-2.14.62l-4.14-.38a2.93,2.93,0,0,1-2-1,3.07,3.07,0,0,1-2.14.62l-4.13-.37a3.05,3.05,0,0,1-2-1,3.13,3.13,0,0,1-2.14.62l-4.13-.38a3.1,3.1,0,0,1-2-1,3.26,3.26,0,0,1-2.15.61l-4.13-.37a3.07,3.07,0,0,1-2-1,3,3,0,0,1-2.14.62l-4.14-.37a3.08,3.08,0,0,1,.56-6.14l4.14.38a3,3,0,0,1,2,1,3,3,0,0,1,2.14-.62l4.13.38a3,3,0,0,1,2,1,3,3,0,0,1,2.14-.62l4.13.37a3.13,3.13,0,0,1,2,1,3.15,3.15,0,0,1,2.13-.61l4.14.37a3.07,3.07,0,0,1,2,1,3.14,3.14,0,0,1,2.13-.61l4.14.38a3.05,3.05,0,0,1,2,1,3,3,0,0,1,2.13-.62l4.15.39a2.91,2.91,0,0,1,2,1,3.09,3.09,0,0,1,2.14-.61l4.14.37a3.12,3.12,0,0,1,2,1,3.24,3.24,0,0,1,2.14-.61l4.14.38a3.1,3.1,0,0,1,2,1,3.19,3.19,0,0,1,2.14-.62l4.13.38a3.06,3.06,0,0,1,2,1,3.13,3.13,0,0,1,2.14-.62l4.13.38a3,3,0,0,1,2,1,3.09,3.09,0,0,1,2.14-.6l4.14.38a3.06,3.06,0,0,1,2,1,3,3,0,0,1,2.14-.61l4.14.36a3.17,3.17,0,0,1,2,1,3.13,3.13,0,0,1,2.14-.61l4.14.37a3.08,3.08,0,0,0,4.13.38l4.13.38a3.06,3.06,0,0,0,4.13.37l4.14.38a3.08,3.08,0,0,0,4.13.38l4.13.37a3.14,3.14,0,0,1,2,1,3.18,3.18,0,0,1,2.15-.61l4.12.38a3.05,3.05,0,0,1,2,1,3.1,3.1,0,0,1,2.13-.61l4.14.37a3.11,3.11,0,0,1,2,1,3.17,3.17,0,0,1,2.14-.61l4.13.39a3.05,3.05,0,0,1,2,1,3,3,0,0,1,2.14-.62l4.14.38a3.06,3.06,0,0,0,4.12.38l4.14.37a3.05,3.05,0,0,0,4.13.38l4.14.38a3.07,3.07,0,0,1,2,1,3.14,3.14,0,0,1,2.14-.61l4.13.37a3.12,3.12,0,0,1,2,1,3,3,0,0,1,2.14-.6l4.13.38a3,3,0,0,1,2,1,3.07,3.07,0,0,1,2.14-.62l4.13.38a3.08,3.08,0,0,0,4.13.38l4.14.38a3.08,3.08,0,0,1-.22,6.14Z"/><path class="cls-10" d="M559.11,1700.35h-.35l-2-.18a3.08,3.08,0,0,1,.56-6.14l2.05.19a3.08,3.08,0,0,1-.22,6.14Z"/><path class="cls-10" d="M318.57,1737.34c-.11,0-.23,0-.34-.06l-2-.48a3.08,3.08,0,0,1,1.45-6l2,.48a3.08,3.08,0,0,1-1.1,6Z"/><path class="cls-7" d="M528.39,1787.91l-.33-.06-4-1a3,3,0,0,0-4-1l-4-1a3,3,0,0,1-1.83-1.26,3.15,3.15,0,0,1-2.21.29l-4-1a3,3,0,0,1-1.83-1.27,3.08,3.08,0,0,1-2.2.29l-4.05-1a3,3,0,0,1-1.82-1.27,3.08,3.08,0,0,1-2.2.3l-4-1a3,3,0,0,1-1.83-1.27,3.05,3.05,0,0,1-2.21.3l-4-1a3.13,3.13,0,0,1-1.83-1.27,2.9,2.9,0,0,1-2.19.28l-4-1a3.08,3.08,0,0,1-1.82-1.27,3.15,3.15,0,0,1-2.21.29l-4-1a3.07,3.07,0,0,1-1.83-1.28,3,3,0,0,1-2.2.31l-4-1a3.05,3.05,0,0,1-1.83-1.27,3,3,0,0,1-2.2.3l-4-1a3.14,3.14,0,0,1-1.83-1.27,3,3,0,0,1-2.2.29l-4-1a3.06,3.06,0,0,0-4-1l-4-1a3,3,0,0,1-1.84-1.27,3,3,0,0,1-2.2.29l-4-1a3.1,3.1,0,0,0-4-1l-4-1a3,3,0,0,1-1.83-1.26,3.15,3.15,0,0,1-2.21.3l-4-1a3.12,3.12,0,0,1-1.83-1.26,3,3,0,0,1-2.21.29l-4-1a3.12,3.12,0,0,1-1.83-1.28,3.1,3.1,0,0,1-2.21.3l-4-1a3,3,0,0,1-1.83-1.27,3.15,3.15,0,0,1-2.21.29l-4-1a3.09,3.09,0,0,1-1.83-1.26,3.18,3.18,0,0,1-2.2.29l-4-1a3.07,3.07,0,0,1-1.83-1.27,3.08,3.08,0,0,1-2.2.3l-4-1a3.07,3.07,0,0,1-1.83-1.27,3.06,3.06,0,0,1-2.21.3l-4-1a3.08,3.08,0,0,1-1.83-1.27,3.21,3.21,0,0,1-2.21.3l-4-1a3.06,3.06,0,0,1-1.82-1.28,3.1,3.1,0,0,1-2.21.3l-4-1a3.13,3.13,0,0,1-1.84-1.27,3.12,3.12,0,0,1-2.2.3l-4-1a3.09,3.09,0,0,1-1.82-1.28,3.06,3.06,0,0,1-2.21.3l-4-1a3,3,0,0,1-1.83-1.28,3.06,3.06,0,0,1-2.21.3l-4-1a3.08,3.08,0,1,1,1.44-6l4,1a3.1,3.1,0,0,1,1.82,1.28,3,3,0,0,1,2.21-.31l4,1a3.06,3.06,0,0,1,1.83,1.26,3.16,3.16,0,0,1,2.21-.29l4,1a3.08,3.08,0,0,1,1.83,1.26,3.18,3.18,0,0,1,2.2-.3l4,1a3,3,0,0,1,1.83,1.27,3.1,3.1,0,0,1,2.21-.3l4,1a3.17,3.17,0,0,1,1.83,1.26,3.12,3.12,0,0,1,2.2-.3l4,1a3.09,3.09,0,0,1,1.83,1.28,3.06,3.06,0,0,1,2.21-.3l4,1a3,3,0,0,1,1.82,1.28,3.11,3.11,0,0,1,2.21-.3l4,1a3.09,3.09,0,0,1,1.83,1.26,3.13,3.13,0,0,1,2.2-.28l4,1a3.05,3.05,0,0,1,1.82,1.27,3.16,3.16,0,0,1,2.21-.29l4,1a3.08,3.08,0,0,0,4,1l4,1a3.11,3.11,0,0,0,4,1l4,1a3.11,3.11,0,0,1,1.82,1.26,3.19,3.19,0,0,1,2.22-.28l4,1a3.09,3.09,0,0,0,4,1l4,1a3,3,0,0,1,1.83,1.25,3.15,3.15,0,0,1,2.21-.29l4,1a3.11,3.11,0,0,1,1.83,1.27,3.05,3.05,0,0,1,2.21-.3l4,1a3.14,3.14,0,0,1,1.83,1.26,3.1,3.1,0,0,1,2.21-.28l4,1a3.08,3.08,0,0,0,4,1l4,1a3.09,3.09,0,0,1,1.83,1.29,3.05,3.05,0,0,1,2.21-.31l4,1a3.05,3.05,0,0,1,1.82,1.27,3,3,0,0,1,2.21-.29l4,1a3.06,3.06,0,0,1,1.82,1.25,3.09,3.09,0,0,1,2.21-.29l4,1a3.08,3.08,0,0,0,4,1l4,1a3,3,0,0,1,1.82,1.27,3.1,3.1,0,0,1,2.21-.3l4,1a3,3,0,0,1,1.82,1.27,3,3,0,0,1,2.2-.3l4,1a3.06,3.06,0,0,1,1.83,1.26,3.16,3.16,0,0,1,2.21-.29l4,1a3.08,3.08,0,0,1,1.82,1.27,3.16,3.16,0,0,1,2.21-.29l4,1a3.07,3.07,0,0,1-1.11,6Z"/><path class="cls-10" d="M534.43,1789.36l-.34-.06-2-.48a3.08,3.08,0,0,1,1.45-6l2,.48a3.08,3.08,0,0,1-1.11,6Z"/><path class="cls-7" d="M333.61,1668c-20.91,0-37.86,17.29-37.86,38.62s16.95,38.6,37.86,38.6,37.86-17.28,37.86-38.6S354.53,1668,333.61,1668Z"/><path class="cls-11" d="M893.42,1705.24l-77.8-206a8,8,0,0,0,.69-7l-17.36-52a8.07,8.07,0,0,0-8.89-5.1c-3.46-11.29-7.73-26.25-10.22-34.94-1.24-4.33-.8-9.1,1.08-11.59.51-.67,2.07-2.73,7.24-2.73H823.7a7.19,7.19,0,0,0,0-14.37H788.16c-10.2,0-15.81,4.6-18.71,8.44-5.52,7.33-5.39,17.31-3.41,24.23,2.72,9.52,7,24.6,10.55,36a8,8,0,0,0-3.85,10l6.28,18.82H482.28l-.73-2.66a8,8,0,0,0,2.49-8.11l-16.6-62.63a8.07,8.07,0,0,0-9.87-5.72l-11.48,3a8.07,8.07,0,0,0-5.73,9.87L457,1465.33a8.06,8.06,0,0,0,7.83,6l2,7.22L328.4,1699.63a5,5,0,0,0-3.58,4l-1.18,7.31a5,5,0,0,0,4.17,5.78l222.67,33.73a5,5,0,0,0,5.78-4.16l.65-4a5,5,0,0,0,.53-3.28v0a5,5,0,0,0-1-3.81l-69.32-248.75H764.84L569,1702.32a5,5,0,0,0,.34,7.12l5.49,5a5,5,0,0,0,7.11-.34l203.85-224.75,4.28,12.83a8.05,8.05,0,0,0,9.77,4.87l77.2,204.41a5.06,5.06,0,0,0,6.5,2.93l6.92-2.62A5,5,0,0,0,893.42,1705.24ZM537.1,1730.75,347.52,1702l125.65-200.7Z"/><path class="cls-2" d="M333.61,1689.85A16.75,16.75,0,1,0,350,1706.6,16.58,16.58,0,0,0,333.61,1689.85Z"/><path class="cls-7" d="M333.61,1698.22a8.38,8.38,0,1,0,8.21,8.38A8.3,8.3,0,0,0,333.61,1698.22Z"/><path class="cls-2" d="M839.56,1376.76a17.13,17.13,0,1,1-17.13-17.13A17.12,17.12,0,0,1,839.56,1376.76Z"/><path class="cls-11" d="M510.25,1412.94c-19.94,0-37.95,12.23-62.22,12.23s-50-15.16-49.86-31.29c.13-11.29,12.87-23.38,25-17.12s15.64,13,34.41,13,40.83,4.47,49.26,6.43S513,1409.47,510.25,1412.94Z"/><path class="cls-2" d="M885.16,1689.85a16.75,16.75,0,1,0,16.44,16.75A16.59,16.59,0,0,0,885.16,1689.85Z"/><path class="cls-2" d="M559.05,1837.18c-.18,2.27-3.07,1.33-9.68,1.16,0,0-65.9,2.64-63.79-6.72l.4-5.21a4.1,4.1,0,0,1,4.4-3.79l65.28,5a4.08,4.08,0,0,1,3.78,4.39Z"/><path class="cls-2" d="M619.61,1642.38l-65.29-5a4.1,4.1,0,0,0-4.4,3.78l-.39,5.22a4.11,4.11,0,0,0,3.79,4.4l27.41,2.07-61.88,172.76,5.79,1.26,62.55-173.53,31.4,2.38A4.08,4.08,0,0,0,623,1652l.4-5.22A4.07,4.07,0,0,0,619.61,1642.38Z"/><polygon class="cls-7" points="589.64 1723.98 583.44 1714.38 555.08 1732.71 555.08 1698.94 543.65 1698.94 543.65 1732.71 515.3 1714.38 509.1 1723.98 538.85 1743.21 509.1 1762.44 515.3 1772.05 543.65 1753.71 543.65 1787.47 555.08 1787.47 555.08 1753.71 583.44 1772.05 589.64 1762.44 559.9 1743.21 589.64 1723.98"/><path class="cls-7" d="M601.5,1729.68a17.78,17.78,0,0,1-2.51-3.58,17,17,0,0,1-.12-4.66c.2-3.85.44-8.63-2.49-12.67s-7.62-5.32-11.35-6.31a17.29,17.29,0,0,1-4.32-1.51,16.84,16.84,0,0,1-2.7-3.59c-2.13-3.26-4.76-7.34-9.59-8.9a12.2,12.2,0,0,0-3.88-.59,25,25,0,0,0-8.82,2.11,8.36,8.36,0,0,1-9.17,0,25,25,0,0,0-8.82-2.11,12.06,12.06,0,0,0-3.87.59c-4.85,1.56-7.48,5.64-9.59,8.9a17.51,17.51,0,0,1-2.7,3.58,17.14,17.14,0,0,1-4.32,1.52c-3.74,1-8.39,2.24-11.36,6.31s-2.68,8.82-2.49,12.67a17.42,17.42,0,0,1-.12,4.66,17.78,17.78,0,0,1-2.51,3.58c-2.48,3-5.55,6.81-5.55,12s3.07,8.95,5.55,12a17.22,17.22,0,0,1,2.51,3.57,17.42,17.42,0,0,1,.12,4.66c-.19,3.84-.44,8.64,2.49,12.67s7.62,5.32,11.36,6.32a16.84,16.84,0,0,1,4.32,1.5,17.62,17.62,0,0,1,2.7,3.59c2.11,3.27,4.74,7.33,9.59,8.91a12.34,12.34,0,0,0,3.87.6c3.23,0,6.2-1.14,8.82-2.13a8.36,8.36,0,0,1,9.17,0c2.62,1,5.58,2.13,8.82,2.13a12.5,12.5,0,0,0,3.88-.6c4.83-1.58,7.46-5.63,9.59-8.91a16.84,16.84,0,0,1,2.7-3.59,16.56,16.56,0,0,1,4.32-1.5c3.73-1,8.38-2.25,11.35-6.32s2.69-8.83,2.49-12.67a17,17,0,0,1,.12-4.66,17.22,17.22,0,0,1,2.51-3.57c2.47-3,5.55-6.82,5.55-12S604,1732.71,601.5,1729.68Zm-50.37,48.69a36.72,36.72,0,1,1,36.73-36.73A36.73,36.73,0,0,1,551.13,1778.37Z"/><path class="cls-7" d="M575,1741.64a23.84,23.84,0,1,1-23.84-23.82A23.84,23.84,0,0,1,575,1741.64Z"/><path class="cls-2" d="M566.68,1741.64a15.55,15.55,0,1,1-15.55-15.54A15.54,15.54,0,0,1,566.68,1741.64Z"/><path class="cls-7" d="M558.16,1741.64a7,7,0,1,1-7-7A7,7,0,0,1,558.16,1741.64Z"/><path class="cls-3" d="M626.8,1628.68c-7.86-3.55-15.67-6.66-22.57-11.6-6-4.25-10.79-10-17.34-13.49-5-2.73-10.8-3.2-15.8-5.24s-9.91-4.31-15.16-5.88-9.56-.81-13.45,2.82a20.49,20.49,0,0,0-3.78,5.11c-7.2,7.28-10.85,17.64-4.82,26.52,4,5.84,11.69,7.16,18.67,8.2a91.11,91.11,0,0,1,20,5.21c12.23,4.7,24.33,10.77,37.93,11.39,8.39.4,28.86-2.54,26.79-13.4-.87-4.62-6.1-7.66-10.44-9.64"/><path class="cls-2" d="M606.71,1619.12c-1.4.77-2.76,1.64-4.1,2.42s-2.89,1.54-4.4,2.26a1.7,1.7,0,0,0-.49,2.59,2.43,2.43,0,0,0,3,.6c1.51-.75,3-1.46,4.42-2.28a13.63,13.63,0,0,0,4-3.15,1.44,1.44,0,0,0-.08-2.07,2.08,2.08,0,0,0-2.34-.37"/><path class="cls-2" d="M597.72,1610.87a3.38,3.38,0,0,0-2.44.57c-.41.29-.8.54-1.21.81-.92.56-1.86,1.06-2.86,1.55-.49.22-1,.44-1.47.64,0,0,0,0,0,0a1.58,1.58,0,0,0-.4.15l-.68.24c-1.07.38-2.11.75-3.2,1.09a2,2,0,0,0-1.47,2.73,2.79,2.79,0,0,0,3.21,1.44,56.47,56.47,0,0,0,6.82-2.61,22.46,22.46,0,0,0,2.94-1.67c1.1-.8,2.76-1.9,2.47-3.36a2,2,0,0,0-1.66-1.62"/><path class="cls-2" d="M589.84,1604.34a3.39,3.39,0,0,0-2.45,0,26.46,26.46,0,0,0-2.64,1.23l-1.06.47c-.15.06-.33.16-.48.23a.64.64,0,0,0-.22.1c-.86.3-1.7.59-2.6.83a13.32,13.32,0,0,1-1.42.33l-.52.09a1.93,1.93,0,0,0-.42,0c-1.37.13-2.63,1.08-2.4,2.43a2.79,2.79,0,0,0,2.92,2.25,28.39,28.39,0,0,0,10.26-3.36c1-.55,2.21-1.27,2.41-2.39a2.13,2.13,0,0,0-1.38-2.28"/><path class="cls-12" d="M735.36,1411.93a9.45,9.45,0,0,0-1.24-3.71c-.36-1.49-.91-3-1.32-4.54-12.16-46.59-185.07-102.59-203.82-108.86-15.55-5.2-22.31-15.23-39.88-10.27C468,1290.49,447.17,1297,425.75,1302c-1.16.28-2.43,1.21-2.35,2.4a45.1,45.1,0,0,0,.63,5c-3.3,18.76,1.75,36.42,13.66,52.18,14.06,18.61,34.95,25.68,57.58,33.08,28,9.15,53.55,17.66,83.65,19.92,16.28,1.23,31.87,1.24,48,4.22,12.61,2.34,25.05,5.32,37.64,7.76-10.64,6.76-56.45,35.27-67.72,46.59-21.29,21.43-37.56,52.34-44.83,79.91-2.78,10.56-5.76,21.41-7.66,32.12-1.39,7.79,3.77,10.29,11,13.27,6.62,2.7,17.33,7.22,24.79,4.78,11.18-3.66,17.25-17.65,24.69-25.25,23.55-24.08,42-51.37,66.7-74.62,10.42-9.81,21.05-19.51,30.71-29.84,19.47-17.51,35.41-36.74,32.82-59.72A5.94,5.94,0,0,0,735.36,1411.93Z"/><path class="cls-13" d="M673.65,1429.87c-14.21,3.07-26.51,12.45-34.4,22.86,9.79-5.21,19-11.55,29.6-16.15s21.41-6.17,26.21-17.13c-7,4.83-15.77,7.33-23,12"/><path class="cls-13" d="M684.08,1419.06c-17.44,2.4-30.4,2.24-46.28-5,7.56-.11,16.29.33,24.21.79,6.62.38,15.91,5.48,20.41,5"/><path class="cls-14" d="M836.29,1356.92c-19.22-8.75-40.41,1-59.73-7.67-22.19-10-37.62-36.08-50.81-55.39-16.16-23.66-27.42-49.75-38.07-76.22-5.37-13.32-9.08-27.81-25.21-19.66-12.46,6.29-21.51,13.22-13.34,26.6,7.44,12.19,12.48,24.2,17.82,37.41a89.77,89.77,0,0,0,7,13.37c9.92,22.83,21.41,44.85,39.11,61.79,26.39,25.25,69,48.3,106.5,44.86a2.09,2.09,0,0,0,1.29-3.35c-4.76-6-3.63-10.44,4-8.31,4.56,1.27,8.54,3.9,12.56,6.28,4.21,2.49,9.29,5.85,14.37,5.32C862.47,1380.85,839.13,1358.22,836.29,1356.92Z"/><path class="cls-14" d="M702.72,1056.06c-3-18.17-12.87-37.49-31.11-44.74a27.93,27.93,0,0,0-17.85-1.18,1,1,0,0,0-1.37-.08c-.2.14-.34.34-.53.5v-.06a1.52,1.52,0,0,1-.28.29s0,.08-.05.08a22.69,22.69,0,0,0-4,2.06c-.54-.9-1.28-1.26-2.2-.31-15.4,15.78-15.11,37.56-5.63,55.12-2.67,4.92-5.25,9.94-8.77,14.37-2.87,3.56-6,7-9,10.39-.83.72-1.65,1.43-2.41,2.17a33.85,33.85,0,0,0-5.89,7.43c-.37.49-.85,1-1.24,1.47a4.33,4.33,0,0,0-.29,3,15,15,0,0,0-.15,4c.67,5.76,4.54,10.15,9,13.66,8.25,6.46,24,14.53,32,4,4.92-6.48,8.48-14.1,12.59-21.08,2.28-3.93,4.36-8,6.65-11.86,0-.06.07-.11.09-.16,1.53.47,3.07,1,4.65,1.32,9.9,2.06,18.49-2.71,22.81-11.57s4.47-19.37,2.92-28.86"/><path class="cls-7" d="M712.88,1007.31c-3.35-16.07-26-9.78-29.85-22.52-3.51-11.7-19.7-15.14-30.12-12.29-9.72,2.66-17.57-2.9-27.15-2.48-8.58.38-14.88,3.07-21,9.09-7.85,7.69-13.53,27.41-9.16,37.93,6.44,15.48-15,29.1-3,43.57,3.26,3.94,9.22,5.85,13.8,7.49a55,55,0,0,0,10.59,2.68c8.93,1.34,5.64,6.27,9.63,9.89,6.1,5.53,17.19-.53,23.67-5.08-2.36-2.78-6.38-4-9.23-6.3-2.59-2-5.17-5.64-3.79-9.15,3.11-7.86,11.11-5.51,17.41-3.14a2.53,2.53,0,0,0,.11-.65c-.27-4.85-2.27-7.78-5.06-11.7-6.93-9.71,6.68-19.61,13.09-24.78,15.85-12.82,22.3,9.52,31.07,17.81a2.31,2.31,0,0,0,2.6.16c0,.17-.07.33-.08.51a.8.8,0,0,0,1.59.15,13.73,13.73,0,0,1,.67-2.45l.54-.73a2.31,2.31,0,0,0,.44-1.5C704,1025.17,714.88,1016.89,712.88,1007.31Z"/><path class="cls-2" d="M713.12,1227.15s-30.49-107.61-78.67-127.51c-57.92-23.92-166.68,43.15-197.13,114.42-14.28,33.4-18.92,67.33-18.92,95.7,0,38.37,157.15,8.43,152.73-.35.45-34.58,17-83.71,57.38-90.35l22.73,49.77Z"/><path class="cls-15" d="M563.26,1276.83c-5.11,35.72-52.14,47.11-83.69,38.35,33.26-12.17,63.74-11.36,87.06-43.41"/><path class="cls-15" d="M563.26,1223c-28.84,20.18-57.3,46.46-93.79,48.79,21.91,4,41.65,6.37,61.79-5,11.56-6.52,30.16-29.8,25.26-38.72"/><path class="cls-15" d="M619.05,1214.64c-5.45-16.4-18.16-33.19-30.24-43.68,3.61,14.86,11.47,37.15,20.54,48.57,2.43-1.93,6.09-1.78,8.31-3.32"/></g></g></svg>