<svg id="Livello_1" data-name="Livello 1" xmlns="http://www.w3.org/2000/svg" viewBox="0 0 1125 2436"><defs><style>.cls-1{fill:#f9a620;}.cls-2{fill:#fff;}.cls-3{fill:#43555a;}</style></defs><title>rondini giallo</title><path class="cls-1" d="M1125,664.17c-3.49.76-6.81,1.43-9.92,2-72.18,12.54-148.41,17.59-229.2,19.87-186,5.26-343.18-26.1-516.42-42.84-63-6.09-139.66-8.31-203.7-3.74C99.65,644.14,51.19,657.17,0,669.82V1827H1125Z"/><path class="cls-2" d="M1125,227.69c-14.09,1.48-26.54,9.2-29.81,30-13.69-9.91-24.3,16.38-29,29-25-22.46-42.37,11.44-51.2,39.09C1004.48,314,972.39,288,964.5,316.35c-26.87-37.54-73.92-30.05-85.61,23.62-14.47-4.35-25.53-10.44-39.65-.71-11.56,8-28.36,28.39-28.07,45.53-17.18-15.28-39.38-22.91-46.24,6.94,2-18.94-19.78-44.43-36.16-47.67-22.13-4.39-40,11.08-54.33,29.79-5.8-37.8-45.31-70.58-67.38-32.07-17.69-56.17-83.29-37-98,11.87-14.73-20.9-32.59-7.28-41.31,13.18a2.46,2.46,0,0,1-.57.74C456.76,346,437.93,346.23,424,363.11c-6.09-40.07-53.3-57.07-75.64-30.26-4.39-18.92-29.82-18.1-41.51-15.93-23.31,4.33-38.62,17.68-43,48-18.44-21.25-53.45-27.64-61.54,12-7.5-11.52-24.42-15.22-31.74-1.78-4.12-13.49-20.62-21.85-28.52-10.33-8.76-19.71-29.53-51.76-49.64-32.36C87.79,299.2,59.18,262.19,36,293.36,28.1,267.71,14.6,259.83,0,262.45V748c455-216,601,147,1125,0Z"/><path class="cls-3" d="M922,620.55a6.27,6.27,0,0,0-2.78-1.76A18.7,18.7,0,0,0,916,618a39.69,39.69,0,0,0-6.63-.39,92.28,92.28,0,0,0-13.28,1.17,121.74,121.74,0,0,0-13,2.76,119.49,119.49,0,0,0-12.56,4.07c-8.14,3.19-15.92,7.27-22.31,12.77a43.2,43.2,0,0,0-8.21,9.23,34.65,34.65,0,0,0-4.68,11.13l-4.32,19-3.32-19.12a38.05,38.05,0,0,0-18.8-27.81,58.11,58.11,0,0,0-8.1-4c-1.41-.58-2.86-1.08-4.31-1.56l-2.2-.71-2.23-.63a99.11,99.11,0,0,0-18.53-3,60.66,60.66,0,0,1,9.53-.78,70.59,70.59,0,0,1,9.62.52c1.6.2,3.21.43,4.81.73s3.18.69,4.76,1.14a58.23,58.23,0,0,1,9.29,3.4,46.27,46.27,0,0,1,8.56,5.33c.65.55,1.34,1,2,1.64l1.87,1.76a40.59,40.59,0,0,1,3.36,3.92,44.69,44.69,0,0,1,2.89,4.29l1.19,2.3a20.68,20.68,0,0,1,1.07,2.35,48.13,48.13,0,0,1,2.92,9.82l-7.64-.12a39.91,39.91,0,0,1,5.59-13.88,48.63,48.63,0,0,1,9.82-11,75.48,75.48,0,0,1,25.14-13.18,103.38,103.38,0,0,1,27.43-4.74,77.58,77.58,0,0,1,13.87.65,40.81,40.81,0,0,1,6.79,1.59,17.69,17.69,0,0,1,3.2,1.44A6.19,6.19,0,0,1,922,620.55Z"/><path class="cls-3" d="M992,689.55c-1.23-1.28-3-1.54-4.67-1.78a31,31,0,0,0-5.1-.16,75.5,75.5,0,0,0-10.17,1.12,99.61,99.61,0,0,0-19.5,5.5A59.51,59.51,0,0,0,935.68,704a33,33,0,0,0-6.15,6.93,26.09,26.09,0,0,0-3.5,8.26l-4.41,18.84-3.23-19a28.85,28.85,0,0,0-13.92-21,51.53,51.53,0,0,0-12.76-5.5,79.15,79.15,0,0,0-14.21-2.72,44.09,44.09,0,0,1,7.36-.81,53.51,53.51,0,0,1,7.48.22,46.44,46.44,0,0,1,14.77,3.89,35.83,35.83,0,0,1,6.77,4.12c.52.42,1.06.82,1.56,1.27l1.49,1.38a35.64,35.64,0,0,1,5,6.46,37.26,37.26,0,0,1,4.14,11.4l-7.64-.12a31.66,31.66,0,0,1,4.41-11,38.05,38.05,0,0,1,7.76-8.65,57.83,57.83,0,0,1,19.71-10.21,78,78,0,0,1,21.36-3.43,57.09,57.09,0,0,1,10.76.72,31.06,31.06,0,0,1,5.26,1.37,13,13,0,0,1,2.46,1.19A4.76,4.76,0,0,1,992,689.55Z"/></svg>