<svg id="Livello_1" data-name="Livello 1" xmlns="http://www.w3.org/2000/svg" xmlns:xlink="http://www.w3.org/1999/xlink" viewBox="0 0 1125 2436"><defs><style>.cls-1,.cls-18{fill:none;}.cls-1{clip-rule:evenodd;}.cls-2{fill:#feedd2;}.cls-3{fill:#fab84d;}.cls-4{fill:#f9a620;}.cls-5{fill:#f6b477;}.cls-6{fill:#3b2721;}.cls-10,.cls-11,.cls-12,.cls-13,.cls-14,.cls-16,.cls-20,.cls-21,.cls-23,.cls-25,.cls-27,.cls-28,.cls-30,.cls-6,.cls-7,.cls-9{fill-rule:evenodd;}.cls-7{fill:#3f302b;}.cls-8{clip-path:url(#clip-path);}.cls-9{fill:#4f3a31;}.cls-10{fill:#c08341;}.cls-11{fill:#ece4b7;}.cls-12{fill:#dfd07a;}.cls-13{fill:#573727;}.cls-14{fill:#79431f;}.cls-15{clip-path:url(#clip-path-2);}.cls-16{fill:#9d5522;}.cls-17{clip-path:url(#clip-path-3);}.cls-18{stroke:#bbbdca;stroke-linecap:round;stroke-linejoin:round;stroke-width:0.08px;}.cls-19{clip-path:url(#clip-path-4);}.cls-20{fill:#e0d280;}.cls-21{fill:#8e4e21;}.cls-22{clip-path:url(#clip-path-5);}.cls-23{fill:#a45823;}.cls-24{clip-path:url(#clip-path-6);}.cls-25{fill:#7c4520;}.cls-26{clip-path:url(#clip-path-7);}.cls-27{fill:#c36826;}.cls-28{fill:#8d3317;}.cls-29{clip-path:url(#clip-path-8);}.cls-30{fill:#5d2516;}.cls-31{fill:#c0523e;}.cls-32{fill:#d8735a;}</style><clipPath id="clip-path"><path class="cls-1" d="M919.07,854.29c-.14-6.73-20.18,79.4-29,99.13,7.72,49.54,8.19,137.11-7.51,135.22-20.52-2.47-41.75,4.65-42.74.12-3.07-14.08.11-109.51,8.5-139.3-.86-73-2-133.91,4.33-174.79,0,0,93.69-9.16,101.68-8.77s27,19.57,27,19.57l21.4,146.79c28.91,64.74,47.26,128.7,36.64,132,0,0-29.8,9-36.7,8-8.16-1.24-31.45-81.19-50-122.1C952.74,950.13,919.14,857.39,919.07,854.29Z"/></clipPath><clipPath id="clip-path-2"><path class="cls-1" d="M905.82,532.82s-27.94,119.34-12.2,237.93c3.19,24,133.42,18.66,136.73,5.44,18.38-73.2,22.14-219.07,1.47-237.9C1007.64,516.25,901.09,516.13,905.82,532.82Z"/></clipPath><clipPath id="clip-path-3"><path class="cls-1" d="M900.81,558s4.51-5.61,16.53-3.7c22.91,3.67,19.52,38.54,23.77,39.66,12.23,3.2,102.5,12.8,104.93,3.16,4.16-16.47,3.52-31.83,2.09-43.4-2.25-18.06-16.33-22.25-33.16-26.47-27.62-6.92-90.78-11.72-104.75-5.32S900.81,558,900.81,558Z"/></clipPath><clipPath id="clip-path-4"><path class="cls-1" d="M847.26,732a7.28,7.28,0,0,0,3-1.53c7.12-6.46,40-134.16,38.54-144.53s-1.51-16.51-14.73-16.63c-4.92,0-15.47-.82-20.66,8.29C840.77,599.72,826,642.94,817,675.12c-13.39,1.42-26.22,3.67-26.22,3.67-2.75-4.81-27.07,7.68-18.91,21.55,5,8.45,44,26.43,58,31.69C837.48,734.87,843,735.06,847.26,732Z"/></clipPath><clipPath id="clip-path-5"><path class="cls-1" d="M1002.22,672.08c1.13-4.47,45.63,1.63,44.93,4.29L1041.71,730c-11.91,4.07-24.87,2.17-40.25-1.71C1001.46,728.32,1001.83,673.63,1002.22,672.08Z"/></clipPath><clipPath id="clip-path-6"><path class="cls-1" d="M927.18,616.11c-.69-4.55-45.57-2.74-45.14,0l.29,53.93c11.46,5.2,24.54,4.55,40.22,2.16C922.55,672.17,927.42,617.69,927.18,616.11Z"/></clipPath><clipPath id="clip-path-7"><path class="cls-1" d="M940.17,668.69c1.13-4.47,45.63,1.63,44.93,4.29l-5.44,53.66c-11.91,4.07-24.87,2.17-40.26-1.71C939.4,724.93,939.78,670.24,940.17,668.69Z"/></clipPath><clipPath id="clip-path-8"><path class="cls-1" d="M908.22,731.17c-8.58-.41-16,9-16.59,21s5.93,22,14.51,22.45,16-9,16.58-21S916.8,731.58,908.22,731.17Z"/></clipPath></defs><title>Esploratore+sfondo</title><path class="cls-2" d="M0,1588c49-479,1125,144,1125-260V1154H0Z"/><path class="cls-3" d="M1125,1329C1125,1736.82,0,1091.5,0,1616.27V1826H1125Z"/><rect class="cls-4" y="262" width="1125" height="651"/><path class="cls-2" d="M1125,815.17c-3.49.76-6.81,1.43-9.92,2-72.18,12.54-148.41,17.59-229.2,19.87-186,5.26-343.18-26.1-516.42-42.84-63-6.09-139.66-8.31-203.7-3.74C99.65,795.14,51.19,808.17,0,820.82V1154H1125Z"/><path class="cls-5" d="M1134.25,465.34,1118.84,478a.34.34,0,1,1-.44-.53h0L1134,465a.21.21,0,0,1,.27.33Z"/><path class="cls-5" d="M1103.33,490.61l-15.61,12.45a.63.63,0,1,1-.78-1h0l15.77-12.23a.5.5,0,0,1,.69.08A.51.51,0,0,1,1103.33,490.61Z"/><path class="cls-5" d="M1072,515.37l-15.82,12.2a.86.86,0,0,1-1-1.36h0l15.94-12h0a.74.74,0,0,1,.9,1.18Z"/><path class="cls-5" d="M1040.16,539.71l-16,11.93a1.09,1.09,0,0,1-1.3-1.75h0L1039,538.15h0a1,1,0,0,1,1.16,1.57Z"/><path class="cls-5" d="M1008,563.42,991.78,575a1.31,1.31,0,0,1-1.52-2.13h0l16.34-11.43h0a1.21,1.21,0,0,1,1.39,2Z"/><path class="cls-5" d="M975.42,586.49l-16.5,11.27a1.5,1.5,0,0,1-1.69-2.48h0l16.57-11.09h0a1.41,1.41,0,0,1,1.58,2.33Z"/><path class="cls-5" d="M942.29,608.83,925.5,619.68a1.69,1.69,0,0,1-1.83-2.84h0l16.85-10.67h0a1.6,1.6,0,0,1,1.72,2.69Z"/><path class="cls-5" d="M908.56,630.29l-17.13,10.32a1.88,1.88,0,1,1-1.94-3.22h0l0,0,17.17-10.13h0a1.79,1.79,0,0,1,1.83,3.07Z"/><path class="cls-5" d="M874.1,650.61l-17.55,9.61a2.06,2.06,0,0,1-2-3.61h0l0,0,17.55-9.42,0,0a2,2,0,0,1,1.88,3.48Z"/><path class="cls-5" d="M838.74,669.37q-9,4.46-18.09,8.61a2.21,2.21,0,0,1-1.83-4h0q9.07-4,18-8.4a2.13,2.13,0,0,1,1.88,3.82Z"/><path class="cls-5" d="M802.22,685.9c-6.2,2.51-12.47,4.88-18.81,7.05a2.36,2.36,0,0,1-1.53-4.46h0c6.26-2.1,12.47-4.39,18.63-6.82a2.28,2.28,0,0,1,1.69,4.23Z"/><path class="cls-5" d="M764.15,698.82A196.64,196.64,0,0,1,744.38,703a2.5,2.5,0,1,1-.77-5h0a191.37,191.37,0,0,0,19.3-3.95,2.43,2.43,0,0,1,1.22,4.71Z"/><path class="cls-5" d="M724.1,704.68c-1.7,0-3.41,0-5.11-.14s-3.41-.21-5.11-.39a82.48,82.48,0,0,1-10.17-1.64,2.66,2.66,0,1,1,1.18-5.18h0a77.39,77.39,0,0,0,9.51,1.62c1.61.17,3.22.31,4.84.4s3.24.11,4.86.17h.14a2.58,2.58,0,0,1-.17,5.16Z"/><path class="cls-5" d="M684.5,694.28a37.12,37.12,0,0,1-7.75-7.43,34.15,34.15,0,0,1-5.18-9.5,2.78,2.78,0,1,1,5.25-1.86h0a28.55,28.55,0,0,0,4.29,8,31.78,31.78,0,0,0,6.58,6.36h0a2.73,2.73,0,0,1-3.2,4.43Z"/><path class="cls-5" d="M670.21,656.21a64.76,64.76,0,0,1,7.12-19.55,2.9,2.9,0,1,1,5.08,2.78v0h0a58.69,58.69,0,0,0-6.6,17.76h0a2.84,2.84,0,0,1-5.58-1Z"/><path class="cls-5" d="M689.36,619.94a105.07,105.07,0,0,1,15.21-13.77,3,3,0,0,1,3.58,4.82h0a99.34,99.34,0,0,0-14.42,12.9,2.94,2.94,0,0,1-4.36-4Z"/><path class="cls-5" d="M722,595.49a117.67,117.67,0,0,1,19.08-7.44,3.11,3.11,0,1,1,1.75,6h0a112.77,112.77,0,0,0-18.11,7,3.05,3.05,0,0,1-2.7-5.48Z"/><path class="cls-5" d="M761.18,584a128.08,128.08,0,0,1,20.44-.72,3.22,3.22,0,0,1-.28,6.43h0a120,120,0,0,0-19.42.58,3.17,3.17,0,0,1-.72-6.29Z"/><path class="cls-5" d="M801.91,585.71A151.72,151.72,0,0,1,821.6,591a3.32,3.32,0,1,1-2.15,6.29h0a144.51,144.51,0,0,0-18.8-5.17,3.27,3.27,0,0,1,1.28-6.42Z"/><path class="cls-5" d="M840.42,598.76a199.52,199.52,0,0,1,17.8,9.78,3.41,3.41,0,0,1-3.58,5.8h0a188.74,188.74,0,0,0-17.16-9.5,3.38,3.38,0,0,1,2.95-6.08Z"/><path class="cls-5" d="M875,620q8.1,6.07,15.71,12.74a3.48,3.48,0,0,1-4.58,5.23h0q-7.4-6.51-15.25-12.45A3.44,3.44,0,1,1,875,620Z"/><path class="cls-5" d="M905.4,646.5q7.14,7.13,13.84,14.67a3.54,3.54,0,0,1-5.29,4.71h0q-6.56-7.41-13.5-14.42a3.5,3.5,0,1,1,5-5Z"/><path class="cls-5" d="M932.18,676.77A144.82,144.82,0,0,1,943.27,694a3.6,3.6,0,1,1-6.33,3.45h0A135.64,135.64,0,0,0,926.44,681a3.57,3.57,0,0,1,5.74-4.26Z"/><path class="cls-5" d="M951.51,712.83a96.12,96.12,0,0,1,4.37,20.24,3.67,3.67,0,0,1-7.3.76h0a88.7,88.7,0,0,0-4-18.73,3.64,3.64,0,0,1,6.92-2.26Z"/><path class="cls-5" d="M955.65,753.83A98.35,98.35,0,0,1,950.88,774a3.73,3.73,0,1,1-7-2.45v0a91.61,91.61,0,0,0,4.48-18.61,3.7,3.7,0,0,1,7.34.93Z"/><path class="cls-5" d="M942.38,792.74a149.08,149.08,0,0,1-11.22,17.11,3.8,3.8,0,1,1-6.07-4.57h0a142.8,142.8,0,0,0,10.71-16.21,3.77,3.77,0,0,1,6.57,3.68Z"/><path class="cls-5" d="M918.12,825.28c-4.63,4.94-9.49,9.65-14.5,14.17a3.84,3.84,0,1,1-5.14-5.71h0c4.88-4.38,9.59-8.93,14.06-13.69a3.83,3.83,0,0,1,5.58,5.24Z"/><path class="cls-5" d="M888.13,852.42q-7.95,6.21-16.23,12a3.87,3.87,0,0,1-4.41-6.35h0q8.12-5.62,15.89-11.68a3.85,3.85,0,0,1,4.75,6.07Z"/><path class="cls-5" d="M855.1,875.45q-8.52,5.34-17.25,10.32A3.89,3.89,0,1,1,834,879h0q8.6-4.9,17-10.13a3.87,3.87,0,1,1,4.11,6.56Z"/><path class="cls-5" d="M820.22,895.4q-8.9,4.65-17.93,9a3.9,3.9,0,0,1-3.4-7h0q8.93-4.3,17.71-8.89a3.9,3.9,0,1,1,3.61,6.91Z"/><path class="cls-5" d="M784.1,912.87q-9.17,4.1-18.42,7.94a3.93,3.93,0,1,1-3-7.25h0q9.17-3.79,18.23-7.84a3.92,3.92,0,0,1,3.2,7.15Z"/><path class="cls-5" d="M747.05,928.27l-18.8,7a3.95,3.95,0,0,1-2.75-7.4h0l.09,0,18.63-6.91.09,0a3.94,3.94,0,1,1,2.74,7.38Z"/><path class="cls-5" d="M709.3,941.81l-19.1,6.12a4,4,0,0,1-2.42-7.57h0l.09,0,18.93-6,.09,0a4,4,0,0,1,2.41,7.54Z"/><path class="cls-5" d="M671,953.6l-19.36,5.24a4,4,0,1,1-2.08-7.7h0l.09,0,19.19-5.17.09,0A4,4,0,1,1,671,953.6Z"/><path class="cls-5" d="M632.12,963.63q-9.76,2.26-19.59,4.3a4,4,0,0,1-1.62-7.81q9.74-2,19.4-4.28a4,4,0,0,1,1.82,7.79Z"/><path class="cls-5" d="M592.82,971.71q-9.89,1.77-19.83,3.23a4,4,0,0,1-1.15-7.85c6.54-1,13.06-2,19.58-3.2a4,4,0,1,1,1.4,7.82Z"/><path class="cls-5" d="M553.05,977.52q-10,1.11-20,1.81a3.94,3.94,0,1,1-.53-7.87q9.85-.69,19.71-1.8a4,4,0,0,1,.88,7.86Z"/><path class="cls-5" d="M512.84,980.15c-6.74.08-13.5-.06-20.28-.53a3.92,3.92,0,0,1,.55-7.83c6.51.45,13.07.58,19.63.5a3.93,3.93,0,1,1,.1,7.86Z"/><path class="cls-5" d="M472.25,976.92a88.94,88.94,0,0,1-10.08-2.72,55.1,55.1,0,0,1-9.82-4.37,3.9,3.9,0,1,1,3.91-6.75h0c5.2,3,11.35,4.85,17.59,6.18h0a3.91,3.91,0,1,1-1.63,7.65Z"/><path class="cls-5" d="M438.88,951.6a27.75,27.75,0,0,1,1.1-11.48c.26-.86.58-1.82.87-2.57l.47-1.26c.17-.44.34-.86.52-1.28a52.87,52.87,0,0,1,2.39-4.83,3.88,3.88,0,0,1,6.78,3.76h0a44.88,44.88,0,0,0-2,4.12c-.15.35-.3.69-.43,1l-.39,1.08c-.31.81-.51,1.43-.73,2.15a20.05,20.05,0,0,0-.84,8.25h0a3.89,3.89,0,1,1-7.71,1Z"/><path class="cls-5" d="M457.88,913.81a51.72,51.72,0,0,1,19.06-9.76h0a3.86,3.86,0,0,1,2,7.44,44.15,44.15,0,0,0-16.22,8.32,3.86,3.86,0,1,1-4.88-6h0Z"/><path class="cls-5" d="M498,902.24a93,93,0,0,1,20.38,4.07,3.83,3.83,0,0,1-2.27,7.32h0a84.73,84.73,0,0,0-18.68-3.72h0a3.84,3.84,0,0,1,.58-7.66Z"/><path class="cls-5" d="M537.45,914a201,201,0,0,1,17.81,9.82,3.76,3.76,0,0,1-3.93,6.41,193.49,193.49,0,0,0-17.18-9.39,3.8,3.8,0,0,1,3.29-6.85Z"/><path class="cls-5" d="M572.07,935q8.19,5.91,16,12.26a3.69,3.69,0,0,1-4.62,5.75q-7.73-6.19-15.73-12a3.72,3.72,0,1,1,4.33-6.06Z"/><path class="cls-5" d="M603.13,961.33a56.85,56.85,0,0,1,11,18.12,3.62,3.62,0,1,1-6.82,2.41h0a49.81,49.81,0,0,0-9.71-15.73h0a3.65,3.65,0,1,1,5.5-4.81Z"/><path class="cls-5" d="M615.19,1001.19a43,43,0,0,1-4.1,10.06,58.16,58.16,0,0,1-6,8.74,3.55,3.55,0,0,1-5.48-4.52,42.25,42.25,0,0,0,8.66-16.07,3.59,3.59,0,1,1,7,1.77Z"/><path class="cls-5" d="M590,1034.18a157.91,157.91,0,0,1-17,11.22,3.48,3.48,0,0,1-3.48-6,151.44,151.44,0,0,0,16.25-10.77,3.52,3.52,0,0,1,4.29,5.57Z"/><path class="cls-5" d="M554.94,1054.71c-6.09,2.85-12.26,5.48-18.5,7.94a3.41,3.41,0,0,1-2.52-6.34c6.11-2.44,12.16-5,18.09-7.84a3.45,3.45,0,0,1,3,6.23Z"/><path class="cls-5" d="M517.58,1069.58q-9.51,3.23-19.13,6.07a3.32,3.32,0,0,1-1.9-6.37q9.48-2.87,18.84-6.1a3.38,3.38,0,0,1,2.2,6.39Z"/><path class="cls-5" d="M479.13,1081q-9.72,2.51-19.49,4.73a3.21,3.21,0,0,1-1.44-6.26q9.68-2.25,19.27-4.79a3.26,3.26,0,1,1,1.67,6.31Z"/><path class="cls-5" d="M440,1089.89q-9.84,1.93-19.73,3.59a3.1,3.1,0,0,1-1-6.11q9.79-1.69,19.53-3.67a3.15,3.15,0,1,1,1.25,6.18Z"/><path class="cls-5" d="M400.47,1096.51q-9.93,1.37-19.91,2.45a3,3,0,0,1-.65-5.93q9.87-1.12,19.71-2.54a3,3,0,0,1,.87,6Z"/><path class="cls-5" d="M360.58,1100.78q-10,.73-20.05,1.08a2.87,2.87,0,0,1-.2-5.73q9.9-.39,19.81-1.19a2.93,2.93,0,0,1,.46,5.84Z"/><path class="cls-5" d="M320.42,1102c-6.71-.13-13.43-.45-20.14-1.1a2.75,2.75,0,0,1,.51-5.48c6.54.58,13.13.87,19.72,1a2.82,2.82,0,0,1-.07,5.63Z"/><path class="cls-5" d="M280.2,1097.72a73.9,73.9,0,0,1-9.88-3.12,35.54,35.54,0,0,1-9.34-5.36,2.61,2.61,0,0,1,3.31-4l0,0a30,30,0,0,0,8,4.45,67.69,67.69,0,0,0,9.17,2.81h0a2.68,2.68,0,0,1-1.25,5.22Z"/><path class="cls-5" d="M257,1068.22a39.12,39.12,0,0,1,12.93-16.68,2.47,2.47,0,0,1,2.94,4h0a34.24,34.24,0,0,0-11.15,14.55v0a2.53,2.53,0,1,1-4.7-1.88Z"/><path class="cls-5" d="M290.33,1045.73a33.33,33.33,0,0,1,10.32,2.86,46.68,46.68,0,0,1,9,5.44,2.36,2.36,0,0,1-2.84,3.76h0a42.26,42.26,0,0,0-8.09-4.84,28.63,28.63,0,0,0-8.84-2.4h0a2.42,2.42,0,0,1,.46-4.81Z"/><path class="cls-5" d="M324,1068.7a147.43,147.43,0,0,1,11.15,16.92,2.24,2.24,0,1,1-3.88,2.23,143.52,143.52,0,0,0-10.89-16.33,2.3,2.3,0,1,1,3.61-2.84Z"/><path class="cls-5" d="M344.28,1103.57c2.81,6.09,5.39,12.27,7.82,18.51a2.12,2.12,0,0,1-4,1.55c-2.43-6.16-5-12.25-7.82-18.23a2.18,2.18,0,0,1,3.95-1.84Z"/><path class="cls-5" d="M358.93,1140.94q3.21,9.49,6.06,19.09a2,2,0,0,1-3.82,1.16q-2.91-9.53-6.14-18.92a2.06,2.06,0,0,1,3.89-1.35Z"/><path class="cls-5" d="M370.44,1179.3l4.94,19.38a1.85,1.85,0,0,1-3.58.93v0l-5.07-19.27v0a1.92,1.92,0,1,1,3.72-1Z"/><path class="cls-5" d="M379.9,1218.17l2.09,9.77,1,4.89c.36,1.62.67,3.28,1,4.92a1.7,1.7,0,0,1-3.32.69v0c-.34-1.62-.66-3.23-1-4.86l-1.08-4.86-2.16-9.73v0a1.77,1.77,0,0,1,3.46-.77Z"/><path class="cls-5" d="M386.92,1257.65a153.78,153.78,0,0,1,.68,20.14,1.49,1.49,0,0,1-3-.09,151.32,151.32,0,0,0-.86-19.73,1.59,1.59,0,0,1,3.16-.34Z"/><path class="cls-5" d="M385,1297.84a71.25,71.25,0,0,1-7.32,18.91,1.28,1.28,0,0,1-2.23-1.27,68.37,68.37,0,0,0,6.85-18.27,1.39,1.39,0,0,1,2.7.62Z"/><path class="cls-5" d="M364.67,1332.32a64.41,64.41,0,0,1-17.42,10.28,1,1,0,0,1-.79-1.93,62.19,62.19,0,0,0,16.71-10.12,1.16,1.16,0,1,1,1.51,1.76Z"/><path class="cls-5" d="M327.8,1347.82a132.77,132.77,0,0,1-20,1.54.79.79,0,0,1-.79-.79.78.78,0,0,1,.77-.79A131.27,131.27,0,0,0,327.5,1346a.91.91,0,1,1,.31,1.8Z"/><path class="cls-5" d="M287.8,1348.33c-6.64-.67-13.25-1.67-19.8-2.88a.52.52,0,0,1-.42-.61.51.51,0,0,1,.6-.42c6.55,1.11,13.14,2,19.75,2.59a.67.67,0,0,1,.6.72.66.66,0,0,1-.72.6Z"/><path class="cls-5" d="M248.47,1341.15q-9.69-2.45-19.22-5.42a.23.23,0,0,1-.15-.28.22.22,0,0,1,.28-.15q9.57,2.82,19.27,5.13a.37.37,0,0,1,.28.45.38.38,0,0,1-.45.28Z"/><path class="cls-5" d="M210,1329.15c-3.12-1.16-6.24-2.36-9.31-3.65,3.09,1.24,6.22,2.39,9.36,3.51a.09.09,0,0,1,.05.1.07.07,0,0,1-.1,0Z"/><path class="cls-6" d="M846.74,1078.25c-.44,3.66-1.23,40.85-1.23,40.85s-17.87-.08-21.14,9.88c-2.42,7.35-3.31,14.06,0,15.27s56.7-3.07,56.7-3.07l5.92-65.9S847.18,1074.58,846.74,1078.25Z"/><path class="cls-6" d="M1004.94,1065.19l7.22,37.71s-14.64,7.39-17.15,12.79-.79,12.14-.79,12.14c.76,3.21,39.19-2.26,53.42-4.35l-11.42-62.83Z"/><path class="cls-7" d="M764.84,681l.19,462.83s4.18,1.7,6,.93a2.68,2.68,0,0,0,1.42-2.91l-1.83-460.57Z"/><path class="cls-7" d="M763.43,678.53h9.24V722a4.37,4.37,0,0,1-4.38,4.38h-.48a4.37,4.37,0,0,1-4.38-4.38Z"/><path class="cls-7" d="M919.07,854.29c-.14-6.73-20.18,79.4-29,99.13,7.72,49.54,8.19,137.11-7.51,135.22-20.52-2.47-41.75,4.65-42.74.12-3.07-14.08.11-109.51,8.5-139.3-.86-73-2-133.91,4.33-174.79,0,0,93.69-9.16,101.68-8.77s27,19.57,27,19.57l21.4,146.79c28.91,64.74,47.26,128.7,36.64,132,0,0-29.8,9-36.7,8-8.16-1.24-31.45-81.19-50-122.1C952.74,950.13,919.14,857.39,919.07,854.29Z"/><g class="cls-8"><path class="cls-9" d="M920.08,1094c-6.85,4.63-52.88,20.09-61,5.9s-13.31-56.42-8-97.59,13.17-67.3,8.48-96.24,9.33-113.82,9.33-113.82L849,786l-31.82,13.1s-19.5,282.13,5.09,299.71,84.44,29.08,92.12,13S926.93,1089.34,920.08,1094Z"/><path class="cls-9" d="M1024.65,1085.42c-4.74-7.41-54.24-115.26-63.38-143.32s-38.67-102-38.67-102L917.91,854s31.45,138.36,51.79,189S1029.39,1092.83,1024.65,1085.42Z"/></g><path class="cls-10" d="M786.54,687.8c-2.71-5.18-.89-14-3.75-16.22s-4-.36-6.44-.13-5.05-7.39-9.77-3.43-8,18.26-3.86,22.3,11.06,5.58,11.06,5.58S789.26,693,786.54,687.8Z"/><path class="cls-10" d="M889.05,542.38c-1.38-3.61-4.7-37,2.56-58.72S917,458.18,934,465.81s20.52,31.77,17.18,47.13-12.55,34.54-12.55,34.54l-1.43,19L895.6,568l2.64-19.2S890.44,546,889.05,542.38Z"/><path class="cls-10" d="M892,495.57c-3.08,5.77-9.65,10.65-8,14.05a9.51,9.51,0,0,0,4.77,4.6S895.13,489.79,892,495.57Z"/><path class="cls-11" d="M854.66,576c4.15-1.65,28.41-11,53.74-14.62s75.7,18.43,79.58,22.32S1006.8,710,1006.39,757.13s-29.47,30.63-38.25,31c-51.51,2.17-91.67,6-116.36,2.89-5.8-.73-9.91-57.25-8.61-122.85C844.15,618.72,850.51,577.67,854.66,576Z"/><path class="cls-12" d="M1005,717.09c-.31,13.77,3.43,60.94-7.55,68.9s-8.62,4.29-12.73,4.63-16.84-2.89-19.11-2.23-57.35,4.11-65.57,2.77-17.56-30.32-23.73-52.9-1.31-97.11,1.11-124.6c1.43-16.22,8.41-38.36,12.08-40.84,5-3.36,15.05,12.72,23.57,11.31,20.77-3.46,90.84,9.1,94,43.11S1005.32,703.33,1005,717.09Z"/><polygon class="cls-13" points="859.5 663.42 894.85 727.86 892.8 740.54 857.4 673.79 859.5 663.42"/><path class="cls-13" d="M875,568.82c11.78,1.4,20.7,5,26.44,17.2l12.26-13.49L904.27,562C897.06,554.75,872.72,563.29,875,568.82Z"/><path class="cls-7" d="M897.8,485c-3.23.3-7.23-2.27-9.53-4.2-7.26-6.05-10.89-15.75-7.58-24.71,1.26-3.4,4.37-9.36,8.48-10.06,2-.35,3.61,1.2,4.56,2.81.4.67.85,2.26,1.84,2.24s1.78-1,2.53-1.35a10.88,10.88,0,0,1,3.72-.92,12.85,12.85,0,0,1,5.59.86,12.51,12.51,0,0,0,3.19,1.22c2,.18,4.19-1.24,6.17-1.5a19.05,19.05,0,0,1,13.09,3.53,23,23,0,0,1,7.4,7.71c.9,1.65.74,4.83,2.43,5.92,1,.68,2.48.17,3.63.08a10.52,10.52,0,0,1,4.3.63c8.1,2.75,11.94,10.57,13.35,18.54.58,3.27-.16,6.33-.86,9.52A43.47,43.47,0,0,1,955.2,509c-1.59,2.64-4.11,4.8-5.36,7.63-1,2.23-1,4.93-1.4,7.31-.71,4.4-2.41,9.54-5.9,12.6-4.81,4.21-13.22,1.7-18.36-.41-7.42-3.05-13.82-7.87-17-15.48-1.24-2.94-1-6.06-1.43-9.16-.28-2.23-.92-4.41-1.08-6.66a20,20,0,0,1,.53-6,13.17,13.17,0,0,0,.07-6C904.25,490.05,900.71,487.17,897.8,485Z"/><path class="cls-14" d="M905.82,532.82s-27.94,119.34-12.2,237.93c3.19,24,133.42,18.66,136.73,5.44,18.38-73.2,22.14-219.07,1.47-237.9C1007.64,516.25,901.09,516.13,905.82,532.82Z"/><g class="cls-15"><path class="cls-16" d="M919.53,528.17c6.23,1.78,22,21.33,24.22,37.28s-44.21,232.44,17.12,222.09c10.61-1.79-72.71,9.72-78.59-3.85s7.42-168.1,9.73-202.8,10-53.33,16.27-52.74S913.3,526.4,919.53,528.17Z"/></g><path class="cls-10" d="M907.27,503.72c-2.86-.14-5.38,3.88-5.62,9s1.88,9.32,4.73,9.46,5.38-3.88,5.62-9S910.12,503.86,907.27,503.72Z"/><path class="cls-13" d="M900.81,558s4.51-5.61,16.53-3.7c22.91,3.67,19.52,38.54,23.77,39.66,12.23,3.2,102.5,12.8,104.93,3.16,4.16-16.47,3.52-31.83,2.09-43.4-2.25-18.06-16.33-22.25-33.16-26.47-27.62-6.92-90.78-11.72-104.75-5.32S900.81,558,900.81,558Z"/><g class="cls-17"><path class="cls-18" d="M899.6,520.62s26.26-7.34,42.43,14.56c14.53,19.69,10,46.1,10,46.1,29.68,6,61.38,10.38,91.09,5.15,0,0,2.28-29.49-2.39-40.84-7.43-18.08-22-22.06-22-22.06"/></g><path class="cls-11" d="M847.26,732a7.28,7.28,0,0,0,3-1.53c7.12-6.46,40-134.16,38.54-144.53s-1.51-16.51-14.73-16.63c-4.92,0-15.47-.82-20.66,8.29C840.77,599.72,826,642.94,817,675.12c-13.39,1.42-26.22,3.67-26.22,3.67-2.75-4.81-27.07,7.68-18.91,21.55,5,8.45,44,26.43,58,31.69C837.48,734.87,843,735.06,847.26,732Z"/><g class="cls-19"><path class="cls-20" d="M887.48,577.92S854,708.4,842.17,716.15s-75.71-22.64-75.71-22.64,9.07,25.38,24.47,34.43,61.61,27.89,70.41,9.32S903.75,580,895.6,568,887.48,577.92,887.48,577.92Z"/></g><path class="cls-21" d="M1002.22,672.08c1.13-4.47,45.63,1.63,44.93,4.29L1041.71,730c-11.91,4.07-24.87,2.17-40.25-1.71C1001.46,728.32,1001.83,673.63,1002.22,672.08Z"/><g class="cls-22"><path class="cls-23" d="M1000.2,669.92c4.95.45,12.49,3.27,13,8.8s-4.69,30.4-3,44.66c1.49,12.36,8,10.81,5.31,11.76s-14.06,2.94-17-6.16S995.26,669.47,1000.2,669.92Z"/></g><path class="cls-21" d="M927.18,616.11c-.69-4.55-45.57-2.74-45.14,0l.29,53.93c11.46,5.2,24.54,4.55,40.22,2.16C922.55,672.17,927.42,617.69,927.18,616.11Z"/><g class="cls-24"><path class="cls-25" d="M929.39,614.16c-5,0-12.74,2.06-13.76,7.52s1.76,30.71-1.32,44.73c-2.67,12.16-9,10-6.42,11.2s13.72,4.27,17.49-4.5S934.36,614.19,929.39,614.16Z"/></g><path class="cls-21" d="M940.17,668.69c1.13-4.47,45.63,1.63,44.93,4.29l-5.44,53.66c-11.91,4.07-24.87,2.17-40.26-1.71C939.4,724.93,939.78,670.24,940.17,668.69Z"/><g class="cls-26"><path class="cls-23" d="M938.15,666.54c5,.45,12.49,3.27,13,8.79s-4.69,30.41-3,44.67c1.49,12.35,8,10.8,5.31,11.75s-14.06,3-17-6.15S933.21,666.09,938.15,666.54Z"/></g><path class="cls-27" d="M1002,677.08c14.35-3.53,13.54,10.66,13.61,11.08.49,3.08,30.8,8.8,32.43,2.13,1.6-6.52.48-14-.47-16.45-2.32-6.13-31.72-8.47-40.72-6.35S1002,677.08,1002,677.08Z"/><path class="cls-27" d="M927,621.11c-13.94-4.88-14.5,9.32-14.6,9.73-.79,3-31.51,5.81-32.5-1s.87-14,2-16.33c2.91-5.88,32.4-5.39,41.15-2.43S927,621.11,927,621.11Z"/><path class="cls-27" d="M939.9,673.69c14.34-3.53,13.54,10.67,13.61,11.08.48,3.09,30.8,8.8,32.43,2.14s.48-14-.47-16.45c-2.33-6.14-31.73-8.48-40.72-6.36S939.9,673.69,939.9,673.69Z"/><path class="cls-13" d="M955.81,592.25c.61,3.37-1.86,58.84-1.86,58.84l7.5.36L962.2,592S955.21,588.88,955.81,592.25Z"/><path class="cls-13" d="M1028.09,595.65c.61,3.22-2,58.9-2,58.9a9.34,9.34,0,0,1,7.58.36l2-60.15S1027.48,592.44,1028.09,595.65Z"/><path class="cls-7" d="M1060.48,738.5v0l-151.84-7.29-2.08,43.41,151.84,7.28h0l.64,0c8.58.41,16-9,16.58-21s-5.92-22-14.5-22.45C1060.91,738.5,1060.69,738.49,1060.48,738.5Z"/><path class="cls-28" d="M908.22,731.17c-8.58-.41-16,9-16.59,21s5.93,22,14.51,22.45,16-9,16.58-21S916.8,731.58,908.22,731.17Z"/><g class="cls-29"><path class="cls-30" d="M912.5,774.37a1.65,1.65,0,0,1-.67,0,11.16,11.16,0,0,1-2.28-.67c-3.06-1.18-7.58-3.61-8.95-5.39-3.41-4.39-4.34-10-4.56-15.45a20.65,20.65,0,0,1,.88-8.12c1.42-3.81,4.47-7.49,8.65-8.25,2.75-.5,4.61.51,6.86,1.93,2.4,1.51,7.26,6.93,6.21,15.38-.78,6.22-1.43,10.46-7.57,13.59-3.47,1.77-7.41-.54-9.15-3.62-.53-.94-3.08-7.42-2.69-13.07.26-3.87,1.89-7.35,6.34-8.53a4,4,0,0,1,3,.46,9.53,9.53,0,0,1,3.16,3.12c2.6,4,2.73,10.87-.49,14.69a4.56,4.56,0,0,1-4.42,1.66,3.57,3.57,0,0,1-2.45-2.26c-.75-1.84-.34-4.19.07-6.06a.39.39,0,0,1,.47-.3.4.4,0,0,1,.3.47c-.38,1.73-.81,3.89-.11,5.59a2.81,2.81,0,0,0,1.91,1.79,3.74,3.74,0,0,0,3.63-1.4c3-3.57,2.86-10,.42-13.76a8.57,8.57,0,0,0-2.87-2.84,3.2,3.2,0,0,0-2.39-.4c-4.07,1.08-5.52,4.29-5.76,7.83-.37,5.46,2.08,11.71,2.6,12.62,1.54,2.74,5,4.88,8.1,3.31,5.85-3,6.41-7.06,7.15-13,1-8-3.57-13.18-5.85-14.61-2.07-1.31-3.77-2.28-6.3-1.82-3.91.71-6.73,4.18-8.06,7.75a19.81,19.81,0,0,0-.82,7.81c.21,5.27,1.09,10.74,4.39,15,1.32,1.71,5.68,4,8.62,5.13a12.58,12.58,0,0,0,1.88.6,1.62,1.62,0,0,0,.58.05.38.38,0,0,1,.48.28A.39.39,0,0,1,912.5,774.37Z"/></g><path class="cls-14" d="M1017.48,781a12.52,12.52,0,0,0,3.62.72c9.34.45,17.43-9.66,18.05-22.55s-6.46-23.73-15.81-24.18a12.9,12.9,0,0,0-5.09.81c7.48,2.67,12.73,12.29,12.19,23.46C1029.94,769.78,1024.51,778.41,1017.48,781Z"/><path class="cls-14" d="M941.65,777.4a12.65,12.65,0,0,0,3.62.72c9.35.45,17.44-9.66,18.06-22.55s-6.47-23.73-15.82-24.18a12.61,12.61,0,0,0-5.09.82c7.49,2.66,12.73,12.28,12.2,23.45C954.11,766.13,948.68,774.77,941.65,777.4Z"/><path class="cls-7" d="M775.25,671.1s-5.13-2.85-8.25,6.83,1.22,15.1.18,15.49-2,3.08-2.35,1.5-4.8-11.55-2.17-17.68,4.65-10.41,6.93-10.34C772.93,667,775.25,671.1,775.25,671.1Z"/><path class="cls-31" d="M219.19,1315.81l-7.78,40.86-21-29.5L120,1255.53l63.61,27.81s30.72,19.24,32,21.48S219.19,1315.81,219.19,1315.81Z"/><polygon class="cls-32" points="256.06 1301.81 120 1255.53 219.19 1315.81 256.06 1301.81"/><polygon class="cls-32" points="162.31 1340.64 207.58 1323.69 120 1255.53 162.31 1340.64"/></svg>