<svg id="Livello_1" data-name="Livello 1" xmlns="http://www.w3.org/2000/svg" viewBox="0 0 1125 2436"><defs><style>.cls-1{fill:#c7851a;}.cls-2{fill:#fff9f0;}</style></defs><title>SoleNONBIANCO</title><circle class="cls-1" cx="592.94" cy="1054.64" r="273.62"/><path class="cls-2" d="M167.69,1290.76c-162.24,31.75,50.7,95.75,112.12,101.73,103.45,10.08,206.74-2.23,310.22-2.23,128,0,369,52.7,478.29-19.74,5.87-36-27.4-44.93-54.27-37.35,42.88-66.37-32.63-102.84-86.74-74.12,1.92-88-40.78-111.76-113.17-45.09,12.2-117.63-126.35-239.16-242.53-198.51-82.82,29-133,140.71-130,223.68-37-86.93-157.39-47.46-131.81,32.16-51.53-71-148.86-86.84-134.94,25C188.64,1295.67,196.06,1285.22,167.69,1290.76Z"/></svg>