<svg xmlns="http://www.w3.org/2000/svg" viewBox="0 0 1600 592.7"><defs><style>.cls-1{fill:#92d5e2;}.cls-2{fill:#75abb6;}.cls-3{fill:#9ed7f5;}</style></defs><g id="Livello_2" data-name="Livello 2"><g id="Livello_1-2" data-name="Livello 1"><path class="cls-1" d="M819.53,151.21c-13.25-11.63-28.8-21.41-38.12-42.48-18.47,16.94-35.91,39.41-54.8,55.73-13.06,11.29-27,37.34-41.09,39.45-9,1.35-17.8-13.6-26.28-21.93-13.85-13.62-27.49-29.21-41.06-43.82-17.1-18.41-29.66-44.4-48.73-54.46-18.36-9.7-31-28.23-47.25-46.1-7.34-8.08-22.23-32-29.09-32.72-5.17-.56-12.11,10.23-17.64,15.19C461.9,32.23,448.35,43.83,435.1,57.44c-16.17,16.6-31.77,37-47.22,55.86-25.05,30.62-46.87,72.19-72,102.78-14.15,17.24-29.74,30.85-44.83,45.33C260,272,250.08,288,238.53,295.64c-12.81,8.47-24.16,18.67-36.14,5.21-15-16.85-28.93-38.08-44-53.59-14.6-15-28.29-35.21-44.1-41.76-8.57-3.55-14.59-7.59-22.1-17.2-5.66-7.24-17.33-16.09-21.28-26.72C57,176.85,43.53,198.39,31.6,220.29c-10,18.28-21,34.17-31.6,50.88V542.09c22.66,3.9,45.47,8.16,67.92,15,43.73,13.26,88.21,27.45,132.48,27.19,58.48-.34,117.21-11.5,175.52-20.62,67-10.47,134-17.89,201.15-23.29,77.83-6.26,154.41-12.65,230.47-52.49,3.57-1.87,7.61-3.76,12-5.75Z"/><path class="cls-2" d="M774,257.9c.74-11.39,3.77-26.23,2.83-37.7-.91-11-7.68-16.76-8.2-23-1-12.4,8.25-16.26,7.13-28.56s-9.69-7-15-7.67c-1-17,12.88-34.49,17.75-46.16.71-1.71,1.56-3.62,2.49-5.66-18.3,16.88-35.6,39.09-54.32,55.27C713.72,175.6,700,201.1,686.07,203.8,674.73,218.21,652.8,235,651,258.19c-1.61,20.74,14.4,22.72,13.58,46.72-1.46,42.56-36.78,38.88-50.09,35.22-23.18-6.38-43.77-31.74-67.52-22.1-20.23,8.22-40.66,24.06-60,39.26-8,6.28-22.54,21.14-30.67,14.79,3.19-11.8,6.85-18.08,1.47-25.47s-25.09,3.52-31.64,2.3c-9.82-1.82-27.09-2-25.35-25.36,1.28-17.13,12.16-19.46,6.18-42.22-2-7.55-7.95-8.71-8.26-16.8-.28-7.37,12.58-21.79,15.69-26.17,9.41-13.2,19.58-24.68,27.58-41.71,5.84-12.44,12.88-27.3,15-44.27,1.89-15.24-2.76-27.81-1.3-41.5C458.28,87,475.41,60,482.07,39.18c3.82-12,8.56-22.68,13.06-33.56a5.57,5.57,0,0,0-2-.74c-5.17-.56-12.11,10.23-17.64,15.19C461.9,32.23,448.35,43.83,435.1,57.44c-16.17,16.6-31.77,37-47.22,55.86-25.05,30.62-46.87,72.19-72,102.78-14.15,17.24-29.74,30.85-44.83,45.34C260,272,250.08,288,238.53,295.64c-9.46,6.25-18.12,13.43-26.82,11.36-12.13,7.29-29.46,12.71-36.63,30.6-4.94,12.32-5.26,32.65-9.47,47-6.35,21.6-18.47,30.78-30,38.07-35.25,22.39-69.36-.24-90.56-61.17-6.16-17.73-10.17-27-6.76-48.45,2.68-16.85,12.54-28.72,14.53-44.75,1.93-15.57-4-19.07.43-34.81,3.08-10.95,18.21-25.7,7.72-38.33a247,247,0,0,1,10.61-31.76c-.27-.58-.52-1.18-.75-1.78C57,176.85,43.53,198.39,31.6,220.29c-10,18.28-21,34.17-31.6,50.88V542.09c22.66,3.9,45.47,8.16,67.92,15,43.73,13.26,88.21,27.45,132.48,27.19,58.48-.34,117.21-11.5,175.52-20.62,67-10.47,134-17.89,201.15-23.29,65.11-5.24,129.34-10.58,193.13-35.51,3.28-11.86,6.17-24.18,8.53-37,9.62-52.11,6.9-97.14-1.16-149.41C774.26,297,772.51,280.46,774,257.9Z"/><path class="cls-3" d="M158.35,247.26c-14.6-15-28.29-35.21-44.1-41.76-8.57-3.55-14.59-7.59-22.1-17.2-4-5.12-11-11.05-16.15-17.83,5.23,14.95,14,20.16,20.83,31.89,4.94,8.51,8.81,9.07,14.66,12.67,6.52,4,7.38,12.66,12.23,20.27s12.12,5.31,17.45,9.51c2.56,2,6.84,5.89,8.87,9.74,2.62,5,2.75,12.15,6.05,16.3,5.18,6.54,12.41,3.93,17.77,10.75s7.26,12.82,13.85,14.51c4.66,1.19,9.56,3.82,14.36,4.37C187.2,283.69,173.35,262.66,158.35,247.26Z"/><path class="cls-1" d="M1600,271V546.78l-2,.34c-23,3.88-46.21,8.15-69,14.89-45.74,13.5-92.26,27.94-138.56,27.68-61.17-.34-122.59-11.7-183.57-21q-40.1-6.11-80.25-10.91-29.79-3.59-59.59-6.53-35.26-3.54-70.54-6.27c-81.4-6.37-122.23,4-201.78-36.57l-13.4-391.35h0l-.28-8.21c6,5.39,11.94,11.35,17.81,17.51.22.22.44.45.65.68,12.67,13.36,25.18,27.58,38.54,38.81a117.67,117.67,0,0,1,10.33,10.23h0c10.9,11.85,22.52,26.14,33.66,27.76,9.45,1.38,19.65-15.11,28.52-23.6,14.48-13.86,28.75-29.72,43-44.59,17.88-18.74,31-45.19,51-55.44,19.2-9.86,32.41-28.73,49.41-46.91,7.69-8.22,23.25-32.54,30.44-33.3,5.39-.57,12.65,10.41,18.44,15.46,14.19,12.38,28.37,24.18,42.23,38,16.9,16.9,33.22,37.63,49.38,56.86,26.19,31.16,49,73.47,75.28,104.61,14.8,17.54,31.1,31.4,46.88,46.13,11.58,10.82,22,27.08,34,34.84,13.4,8.62,25.27,19,37.79,5.3,15.68-17.15,30.26-38.76,46.07-54.54,15.26-15.23,29.59-35.83,46.12-42.5,9-3.61,15.26-7.73,23.12-17.52,4.94-6.15,14.27-13.46,19.61-22,.37-.58.72-1.16,1-1.75a27.36,27.36,0,0,0,1.61-3.43c14.49,15.53,28.6,37.46,41.07,59.75C1577.36,237.86,1588.9,254,1600,271Z"/><path class="cls-2" d="M758,274.86c-.78-11.59,3-30.33,4-42,1-11.18-9.54-16.69-9-23,1.09-12.61-13.17-11.48-12-24s4.4-24.33,10-25c1-17.27,17-33,32.86-45.91,1.47-1.2-1.64-3.69-2.61-5.77,19.14,17.18,37.23,39.79,56.81,56.26,13.49,11.34,27.85,37.29,42.4,40,11.87,14.67,34.8,31.8,36.67,55.36,1.68,21.11-15.06,23.13-14.2,47.55,1.53,43.32,38.47,39.58,52.39,35.85,24.24-6.49,45.78-32.31,70.61-22.49,21.16,8.36,42.53,24.49,62.7,39.95,8.33,6.4,23.57,21.52,32.07,15.06-3.33-12-7.15-18.41-1.53-25.92s26.25,3.58,33.09,2.34c10.27-1.86,28.34-2.07,26.51-25.81-1.34-17.44-12.72-19.81-6.46-43,2.08-7.68,8.31-8.86,8.64-17.1.29-7.5-13.15-22.17-16.41-26.63-9.84-13.43-20.47-25.12-28.84-42.45-6.12-12.66-13.47-27.79-15.67-45.06-2-15.51,2.89-28.3,1.35-42.23-2.68-24.36-20.6-51.75-27.56-73-4-12.2-9-23.08-13.66-34.15a5.77,5.77,0,0,1,2.12-.75c5.39-.57,12.65,10.41,18.44,15.46,14.19,12.38,28.37,24.18,42.23,38,16.9,16.9,33.22,37.64,49.38,56.86,26.19,31.17,49,73.47,75.28,104.61,14.8,17.54,31.1,31.4,46.88,46.14,11.58,10.81,22,27.07,34,34.83,9.89,6.36,19,13.67,28,11.57,12.69,7.41,30.81,12.93,38.31,31.13,5.16,12.55,5.51,33.24,9.9,47.8,6.65,22,19.32,31.33,31.34,38.75,36.87,22.79,72.54-.24,94.71-62.26,6.45-18.05,10.63-27.53,7.07-49.31-2.8-17.15-13.11-29.23-15.19-45.54-2-15.85,4.18-19.41-.45-35.44-3.22-11.14-19-26.16-8.07-39a245.87,245.87,0,0,0-11.11-32.33c.29-.6.55-1.2.79-1.81,14.49,15.54,28.6,37.46,41.07,59.75,10.41,18.6,22,34.78,33,51.78V549.78c-23.7,4-47.55,8.3-71,15.24-45.74,13.5-92.26,27.94-138.56,27.68-61.17-.35-122.59-11.71-183.57-21-70-10.66-140.18-18.21-210.38-23.7-68.1-5.34-155.75-3.78-222.46-29.15-3.44-12.08-9.52-26.94-12-40-10.06-53-1.43-102.8,7-156C770.46,301.05,759.54,297.82,758,274.86Z"/><path class="cls-3" d="M1434.39,246.71c15.26-15.23,29.59-35.83,46.12-42.5,9-3.61,15.26-7.73,23.12-17.51,4.18-5.21,11.49-11.24,16.88-18.14-5.46,15.21-14.67,20.51-21.79,32.45-5.16,8.66-9.2,9.23-15.33,12.9-6.82,4.09-7.72,12.89-12.78,20.63s-12.68,5.4-18.26,9.67c-2.67,2-7.15,6-9.27,9.92-2.74,5.05-2.88,12.36-6.33,16.59-5.42,6.66-13,4-18.58,10.94s-7.6,13-14.49,14.77c-4.87,1.21-10,3.88-15,4.45C1404.21,283.79,1418.7,262.38,1434.39,246.71Z"/></g></g></svg>