<svg xmlns="http://www.w3.org/2000/svg" xmlns:xlink="http://www.w3.org/1999/xlink" viewBox="0 0 1600 875"><defs><style>.cls-1,.cls-21,.cls-7,.cls-8{fill:none;}.cls-1{clip-rule:evenodd;}.cls-2{fill:#fff;}.cls-3{fill:#fab84d;}.cls-4{fill:#ffa700;}.cls-5{fill:#db513a;}.cls-6{fill:#f47458;}.cls-7,.cls-8{stroke:#ffb474;stroke-miterlimit:12;stroke-width:6px;}.cls-21,.cls-7,.cls-8{stroke-linecap:round;}.cls-8{stroke-dasharray:20 20;}.cls-9{fill:#3f221b;}.cls-10,.cls-12,.cls-13,.cls-14,.cls-15,.cls-16,.cls-17,.cls-19,.cls-23,.cls-24,.cls-26,.cls-28,.cls-30,.cls-31,.cls-33,.cls-9{fill-rule:evenodd;}.cls-10{fill:#422c26;}.cls-11{clip-path:url(#clip-path);}.cls-12{fill:#55372d;}.cls-13{fill:#fdd9c0;}.cls-14{fill:#efe4b5;}.cls-15{fill:#e4d075;}.cls-16{fill:#603421;}.cls-17{fill:#884116;}.cls-18{clip-path:url(#clip-path-2);}.cls-19{fill:#b15417;}.cls-20{clip-path:url(#clip-path-3);}.cls-21{stroke:#bbbdcb;stroke-linejoin:round;stroke-width:0.08px;}.cls-22{clip-path:url(#clip-path-4);}.cls-23{fill:#e5d27c;}.cls-24{fill:#a04d17;}.cls-25{clip-path:url(#clip-path-5);}.cls-26{fill:#b95718;}.cls-27{clip-path:url(#clip-path-6);}.cls-28{fill:#8b4317;}.cls-29{clip-path:url(#clip-path-7);}.cls-30{fill:#dc6819;}.cls-31{fill:#a2300d;}.cls-32{clip-path:url(#clip-path-8);}.cls-33{fill:#6b200d;}</style><clipPath id="clip-path"><path class="cls-1" d="M1238.7,310.74c-.08-3.88-11.63,45.78-16.73,57.16,4.46,28.57,4.73,79.07-4.32,78-11.84-1.42-24.08,2.68-24.65.07-1.77-8.12.06-63.15,4.9-80.33-.5-42.1-1.17-77.22,2.5-100.8,0,0,54-5.28,58.64-5.05s15.58,11.28,15.58,11.28L1287,355.7c16.67,37.34,27.25,74.22,21.12,76.11,0,0-17.18,5.21-21.16,4.61-4.7-.71-18.14-46.82-28.8-70.41C1258.12,366,1238.74,312.52,1238.7,310.74Z"/></clipPath><clipPath id="clip-path-2"><path class="cls-1" d="M1231.06,125.35s-16.11,68.83-7,137.22c1.84,13.86,76.94,10.76,78.85,3.13,10.6-42.21,12.77-126.33.85-137.19C1289.78,115.8,1228.33,115.73,1231.06,125.35Z"/></clipPath><clipPath id="clip-path-3"><path class="cls-1" d="M1228.17,139.89s2.6-3.24,9.53-2.13c13.22,2.11,11.26,22.22,13.71,22.86,7,1.85,59.11,7.39,60.51,1.83a67.77,67.77,0,0,0,1.2-25c-1.29-10.41-9.41-12.83-19.12-15.26-15.93-4-52.35-6.76-60.4-3.07S1228.17,139.89,1228.17,139.89Z"/></clipPath><clipPath id="clip-path-4"><path class="cls-1" d="M1197.29,240.21a4.23,4.23,0,0,0,1.72-.88c4.11-3.73,23.09-77.36,22.23-83.35s-.87-9.52-8.5-9.59c-2.83,0-8.92-.47-11.91,4.78-7.29,12.77-15.82,37.69-21,56.24-7.72.82-15.12,2.12-15.12,2.12-1.59-2.77-15.61,4.43-10.91,12.43,2.87,4.87,25.37,15.24,33.46,18.27C1191.65,241.87,1194.83,242,1197.29,240.21Z"/></clipPath><clipPath id="clip-path-5"><path class="cls-1" d="M1286.65,205.66c.65-2.57,26.31.94,25.91,2.48l-3.14,30.94c-6.87,2.35-14.34,1.25-23.21-1C1286.21,238.1,1286.43,206.55,1286.65,205.66Z"/></clipPath><clipPath id="clip-path-6"><path class="cls-1" d="M1243.38,173.39c-.4-2.63-26.28-1.59-26,0l.16,31.1c6.61,3,14.15,2.62,23.2,1.24C1240.71,205.71,1243.51,174.3,1243.38,173.39Z"/></clipPath><clipPath id="clip-path-7"><path class="cls-1" d="M1250.87,203.71c.65-2.58,26.31.94,25.91,2.47l-3.14,30.95c-6.87,2.35-14.34,1.25-23.21-1C1250.43,236.14,1250.64,204.6,1250.87,203.71Z"/></clipPath><clipPath id="clip-path-8"><path class="cls-1" d="M1232.44,239.74c-4.94-.24-9.23,5.18-9.56,12.08s3.41,12.71,8.36,12.95,9.23-5.18,9.57-12.09S1237.39,240,1232.44,239.74Z"/></clipPath></defs><g id="Livello_2" data-name="Livello 2"><g id="gabbiano"><rect class="cls-2" y="219" width="1600" height="656"/><path class="cls-3" d="M1600,553C1600,960.8,0,315.49,0,840.25V875H1600Z"/><path class="cls-4" d="M0,256.83c5-.76,9.69-1.43,14.11-2,102.66-12.55,211.07-17.59,326-19.87,264.51-5.26,488.08,26.1,734.47,42.84,89.62,6.09,198.62,8.31,289.7,3.74,94-4.71,163-17.74,235.75-30.39V0H0Z"/><path class="cls-5" d="M227.36,519l-6.46,34-17.45-24.53L144.93,469l52.86,23.11s25.54,16,26.59,17.85S227.36,519,227.36,519Z"/><polygon class="cls-6" points="258.01 507.41 144.93 468.95 227.36 519.04 258.01 507.41"/><polygon class="cls-6" points="180.09 539.68 217.72 525.6 144.93 468.95 180.09 539.68"/><path class="cls-7" d="M1179,353.74s-3.52.53-9.9,1.41"/><path class="cls-8" d="M1149.26,357.76c-75.92,9.49-275.3,29.33-336.33-14.84C737,288,927.07,207.74,947,402.39c21,205.5-469.79,35.58-395.49-19.34,0,0,49.65-40.7,80.46,65.05C667.45,570,351.7,432.69,383.63,395.58c13-15.84,79.54-28.21,9.27,147.87C352.5,644.69,286.25,579,259.34,545.62"/><path class="cls-7" d="M253.21,537.72c-3.71-5-5.78-8.15-5.78-8.15"/><path class="cls-9" d="M1197,439.89c-.26,2.11-.71,23.56-.71,23.56s-10.31-.05-12.19,5.69c-1.39,4.24-1.91,8.11,0,8.81s32.7-1.77,32.7-1.77l3.41-38S1197.24,437.77,1197,439.89Z"/><path class="cls-9" d="M1288.22,432.36l4.16,21.75s-8.44,4.26-9.89,7.37-.46,7-.46,7c.44,1.85,22.61-1.3,30.82-2.51l-6.59-36.23Z"/><path class="cls-10" d="M1149.76,210.83l.11,266.9s2.41,1,3.46.53a1.53,1.53,0,0,0,.82-1.67L1153.09,211Z"/><path class="cls-10" d="M1149,209.38h5.32v25.06a2.53,2.53,0,0,1-2.52,2.53h-.28a2.53,2.53,0,0,1-2.52-2.53Z"/><path class="cls-10" d="M1238.7,310.74c-.08-3.88-11.63,45.78-16.73,57.16,4.46,28.57,4.73,79.07-4.32,78-11.84-1.42-24.08,2.68-24.65.07-1.77-8.12.06-63.15,4.9-80.33-.5-42.1-1.17-77.22,2.5-100.8,0,0,54-5.28,58.64-5.05s15.58,11.28,15.58,11.28L1287,355.7c16.67,37.34,27.25,74.22,21.12,76.11,0,0-17.18,5.21-21.16,4.61-4.7-.71-18.14-46.82-28.8-70.41C1258.12,366,1238.74,312.52,1238.7,310.74Z"/><g class="cls-11"><path class="cls-12" d="M1239.28,449c-4,2.67-30.49,11.59-35.19,3.4s-7.68-32.53-4.63-56.27,7.6-38.81,4.9-55.5,5.38-65.64,5.38-65.64l-11.46-3.6-18.35,7.55s-11.25,162.7,2.93,172.84,48.7,16.77,53.12,7.53S1243.23,446.29,1239.28,449Z"/><path class="cls-12" d="M1299.59,444c-2.74-4.28-31.28-66.47-36.56-82.65s-22.29-58.84-22.29-58.84l-2.71,8s18.13,79.79,29.87,109S1302.32,448.3,1299.59,444Z"/></g><path class="cls-13" d="M1162.28,214.73c-1.57-3-.52-8.07-2.17-9.35s-2.3-.21-3.71-.08-2.91-4.26-5.64-2-4.62,10.53-2.22,12.86a15.37,15.37,0,0,0,6.38,3.22S1163.84,217.72,1162.28,214.73Z"/><path class="cls-13" d="M1221.39,130.87c-.8-2.08-2.71-21.34,1.48-33.86s14.61-14.69,24.42-10.3,11.83,18.32,9.91,27.18-7.24,19.92-7.24,19.92l-.82,11-24,.89,1.52-11.07S1222.19,133,1221.39,130.87Z"/><path class="cls-13" d="M1223.11,103.87c-1.77,3.33-5.56,6.15-4.64,8.11a5.53,5.53,0,0,0,2.75,2.65S1224.89,100.54,1223.11,103.87Z"/><path class="cls-14" d="M1201.56,150.27a149.25,149.25,0,0,1,31-8.43c14.61-2.08,43.65,10.63,45.89,12.87s10.85,72.81,10.61,100-17,17.67-22,17.88c-29.71,1.25-52.87,3.47-67.1,1.66-3.35-.42-5.72-33-5-70.84C1195.5,174.89,1199.16,151.22,1201.56,150.27Z"/><path class="cls-15" d="M1288.26,231.62c-.17,7.94,2,35.14-4.35,39.73s-5,2.47-7.34,2.67-9.71-1.67-11-1.28-33.07,2.37-37.81,1.59-10.13-17.48-13.69-30.5-.75-56,.64-71.85c.83-9.36,4.85-22.12,7-23.56,2.86-1.94,8.68,7.34,13.59,6.52,12-2,52.38,5.26,54.2,24.87S1288.44,223.68,1288.26,231.62Z"/><polygon class="cls-16" points="1204.35 200.67 1224.73 237.83 1223.55 245.14 1203.14 206.65 1204.35 200.67"/><path class="cls-16" d="M1213.27,146.12c6.79.81,11.93,2.9,15.24,9.91l7.08-7.78-5.43-6.09C1226,138,1212,142.92,1213.27,146.12Z"/><path class="cls-10" d="M1226.43,97.79c-1.86.18-4.16-1.31-5.49-2.42-4.19-3.49-6.28-9.08-4.37-14.25.72-2,2.52-5.4,4.89-5.8a2.71,2.71,0,0,1,2.63,1.62c.23.38.49,1.3,1.06,1.29s1-.57,1.46-.78a6.35,6.35,0,0,1,2.14-.53,7.43,7.43,0,0,1,3.23.5,7.28,7.28,0,0,0,1.83.7c1.15.11,2.42-.72,3.57-.87a11,11,0,0,1,7.54,2,13.36,13.36,0,0,1,4.27,4.45c.52,1,.43,2.78,1.4,3.41.61.4,1.43.1,2.09,0a6,6,0,0,1,2.48.36c4.67,1.58,6.89,6.1,7.7,10.69a13.8,13.8,0,0,1-.49,5.49,25.21,25.21,0,0,1-2.83,7.85c-.92,1.52-2.37,2.77-3.1,4.4a17.59,17.59,0,0,0-.8,4.22c-.41,2.54-1.39,5.5-3.41,7.26-2.77,2.43-7.62,1-10.58-.23-4.28-1.77-8-4.54-9.83-8.93-.72-1.69-.61-3.5-.83-5.28-.16-1.29-.53-2.55-.62-3.84a11.35,11.35,0,0,1,.3-3.48,7.36,7.36,0,0,0,0-3.46C1230.15,100.69,1228.11,99,1226.43,97.79Z"/><path class="cls-17" d="M1231.06,125.35s-16.11,68.83-7,137.22c1.84,13.86,76.94,10.76,78.85,3.13,10.6-42.21,12.77-126.33.85-137.19C1289.78,115.8,1228.33,115.73,1231.06,125.35Z"/><g class="cls-18"><path class="cls-19" d="M1239,122.68c3.59,1,12.69,12.29,14,21.49s-25.49,134.05,9.87,128.08c6.12-1-41.92,5.6-45.32-2.22s4.28-96.94,5.61-116.95,5.77-30.76,9.39-30.42S1235.37,121.65,1239,122.68Z"/></g><path class="cls-13" d="M1231.89,108.58c-1.64-.08-3.1,2.23-3.24,5.17s1.09,5.37,2.73,5.45,3.1-2.24,3.24-5.17S1233.54,108.65,1231.89,108.58Z"/><path class="cls-16" d="M1228.17,139.89s2.6-3.24,9.53-2.13c13.22,2.11,11.26,22.22,13.71,22.86,7,1.85,59.11,7.39,60.51,1.83a67.77,67.77,0,0,0,1.2-25c-1.29-10.41-9.41-12.83-19.12-15.26-15.93-4-52.35-6.76-60.4-3.07S1228.17,139.89,1228.17,139.89Z"/><g class="cls-20"><path class="cls-21" d="M1227.47,118.32s15.15-4.23,24.47,8.4c8.38,11.35,5.79,26.58,5.79,26.58,17.11,3.48,35.39,6,52.52,3,0,0,1.32-17-1.37-23.55-4.29-10.43-12.68-12.72-12.68-12.72"/></g><path class="cls-14" d="M1197.29,240.21a4.23,4.23,0,0,0,1.72-.88c4.11-3.73,23.09-77.36,22.23-83.35s-.87-9.52-8.5-9.59c-2.83,0-8.92-.47-11.91,4.78-7.29,12.77-15.82,37.69-21,56.24-7.72.82-15.12,2.12-15.12,2.12-1.59-2.77-15.61,4.43-10.91,12.43,2.87,4.87,25.37,15.24,33.46,18.27C1191.65,241.87,1194.83,242,1197.29,240.21Z"/><g class="cls-22"><path class="cls-23" d="M1220.48,151.36s-19.29,75.25-26.13,79.71-43.66-13-43.66-13,5.24,14.63,14.12,19.86,35.52,16.08,40.6,5.37,24.45-90.66,19.76-97.59S1220.48,151.36,1220.48,151.36Z"/></g><path class="cls-24" d="M1286.65,205.66c.65-2.57,26.31.94,25.91,2.48l-3.14,30.94c-6.87,2.35-14.34,1.25-23.21-1C1286.21,238.1,1286.43,206.55,1286.65,205.66Z"/><g class="cls-25"><path class="cls-26" d="M1285.49,204.42c2.85.26,7.2,1.89,7.48,5.07s-2.7,17.54-1.71,25.76c.86,7.12,4.64,6.23,3.07,6.78s-8.11,1.69-9.79-3.55S1282.64,204.16,1285.49,204.42Z"/></g><path class="cls-24" d="M1243.38,173.39c-.4-2.63-26.28-1.59-26,0l.16,31.1c6.61,3,14.15,2.62,23.2,1.24C1240.71,205.71,1243.51,174.3,1243.38,173.39Z"/><g class="cls-27"><path class="cls-28" d="M1244.65,172.26c-2.86,0-7.35,1.19-7.93,4.34s1,17.71-.77,25.8c-1.54,7-5.21,5.76-3.7,6.45s7.91,2.47,10.09-2.59S1247.51,172.28,1244.65,172.26Z"/></g><path class="cls-24" d="M1250.87,203.71c.65-2.58,26.31.94,25.91,2.47l-3.14,30.95c-6.87,2.35-14.34,1.25-23.21-1C1250.43,236.14,1250.64,204.6,1250.87,203.71Z"/><g class="cls-29"><path class="cls-26" d="M1249.71,202.47c2.85.26,7.2,1.88,7.48,5.07s-2.71,17.53-1.71,25.75c.86,7.13,4.63,6.24,3.06,6.78s-8.11,1.7-9.78-3.55S1246.85,202.21,1249.71,202.47Z"/></g><path class="cls-30" d="M1286.5,208.54c8.27-2,7.8,6.16,7.84,6.4.28,1.77,17.77,5.07,18.71,1.23a19.35,19.35,0,0,0-.27-9.49c-1.35-3.54-18.3-4.89-23.49-3.67S1286.5,208.54,1286.5,208.54Z"/><path class="cls-30" d="M1243.25,176.27c-8-2.81-8.36,5.38-8.42,5.61-.45,1.75-18.17,3.35-18.73-.56a19.35,19.35,0,0,1,1.17-9.42c1.68-3.39,18.68-3.11,23.73-1.4S1243.25,176.27,1243.25,176.27Z"/><path class="cls-30" d="M1250.71,206.59c8.27-2,7.81,6.15,7.85,6.39.28,1.78,17.76,5.08,18.7,1.23a19.18,19.18,0,0,0-.27-9.48c-1.34-3.54-18.29-4.89-23.48-3.67S1250.71,206.59,1250.71,206.59Z"/><path class="cls-16" d="M1259.89,159.63c.35,1.94-1.08,33.93-1.08,33.93l4.33.2.43-34.29S1259.54,157.68,1259.89,159.63Z"/><path class="cls-16" d="M1301.57,161.59c.35,1.85-1.15,34-1.15,34a5.39,5.39,0,0,1,4.37.21l1.15-34.69S1301.22,159.74,1301.57,161.59Z"/><path class="cls-10" d="M1320.25,244h0l-87.56-4.2-1.2,25,87.56,4.2h0a2.22,2.22,0,0,0,.37,0c4.94.24,9.23-5.18,9.56-12.08s-3.42-12.71-8.36-13Z"/><path class="cls-31" d="M1232.44,239.74c-4.94-.24-9.23,5.18-9.56,12.08s3.41,12.71,8.36,12.95,9.23-5.18,9.57-12.09S1237.39,240,1232.44,239.74Z"/><g class="cls-32"><path class="cls-33" d="M1234.91,264.65a.84.84,0,0,1-.39,0,6.28,6.28,0,0,1-1.31-.39c-1.76-.67-4.37-2.08-5.16-3.1-2-2.54-2.5-5.78-2.63-8.91a11.91,11.91,0,0,1,.5-4.68c.82-2.2,2.59-4.32,5-4.76a5.13,5.13,0,0,1,4,1.11,9.32,9.32,0,0,1,3.58,8.87c-.45,3.59-.82,6-4.36,7.83-2,1-4.28-.31-5.28-2.08a17.48,17.48,0,0,1-1.55-7.54c.15-2.23,1.09-4.24,3.66-4.92a2.34,2.34,0,0,1,1.71.27,5.5,5.5,0,0,1,1.82,1.8c1.5,2.33,1.58,6.26-.28,8.47a2.63,2.63,0,0,1-2.55.95,2.06,2.06,0,0,1-1.42-1.3,6.28,6.28,0,0,1,0-3.49.25.25,0,0,1,.28-.18.23.23,0,0,1,.17.27,5.73,5.73,0,0,0-.06,3.23,1.6,1.6,0,0,0,1.1,1,2.15,2.15,0,0,0,2.09-.81c1.74-2.06,1.65-5.74.25-7.93a5.1,5.1,0,0,0-1.66-1.64,1.86,1.86,0,0,0-1.38-.23c-2.34.62-3.18,2.47-3.32,4.51a16.83,16.83,0,0,0,1.5,7.28c.89,1.58,2.89,2.82,4.67,1.91,3.37-1.72,3.69-4.07,4.12-7.49a8.84,8.84,0,0,0-3.37-8.42,4.69,4.69,0,0,0-3.63-1.05c-2.26.41-3.88,2.41-4.65,4.47a11.37,11.37,0,0,0-.47,4.5c.12,3,.62,6.19,2.53,8.65.76,1,3.27,2.31,5,3a9,9,0,0,0,1.09.34.89.89,0,0,0,.34,0,.23.23,0,0,1,.11.44Z"/></g><path class="cls-17" d="M1295.45,268.5a7,7,0,0,0,2.09.41c5.39.26,10-5.57,10.41-13s-3.73-13.69-9.12-13.94a7.35,7.35,0,0,0-2.94.46c4.32,1.54,7.34,7.09,7,13.53C1302.63,262,1299.5,267,1295.45,268.5Z"/><path class="cls-17" d="M1251.72,266.4a7.05,7.05,0,0,0,2.09.41c5.39.26,10-5.56,10.41-13s-3.73-13.68-9.12-13.94a7.11,7.11,0,0,0-2.93.47c4.31,1.53,7.34,7.08,7,13.52C1258.91,259.9,1255.78,264.88,1251.72,266.4Z"/><path class="cls-10" d="M1155.76,205.1s-3-1.65-4.76,3.94.71,8.7.11,8.93-1.18,1.77-1.36.86-2.76-6.65-1.25-10.19,2.68-6,4-6C1154.42,202.73,1155.76,205.1,1155.76,205.1Z"/></g></g></svg>