<svg id="Livello_1" data-name="Livello 1" xmlns="http://www.w3.org/2000/svg" viewBox="0 0 2286 2436"><defs><style>.cls-1{fill:#bb594e;}.cls-2{fill:#3b6689;}.cls-3{fill:#34597d;}.cls-4{fill:#27343c;}.cls-5{fill:#f4d9c1;}.cls-6{fill:#e0bfa3;}.cls-7{fill:#e2f0f6;}.cls-8{fill:#a0c6eb;opacity:0.37;}.cls-9{fill:#3c2d31;}.cls-10{fill:#5776b6;}.cls-11{fill:#49679a;}.cls-12{fill:#ae7962;}.cls-13{fill:#986554;}.cls-14{fill:#e6b15b;}.cls-15{fill:#ca964c;}.cls-16{fill:#6faf8d;}.cls-17{fill:#5f9778;}.cls-18{fill:#e5c3a6;}.cls-19{fill:#674670;}.cls-20{fill:#5d3e66;}.cls-21{fill:#77a1d9;}.cls-22{fill:#678cc8;}.cls-23{fill:#53373e;}.cls-24{fill:#cfa177;}.cls-25{fill:#365c73;}.cls-26{fill:#eac4a2;}.cls-27{fill:#3d365f;}.cls-28{fill:#daae8b;}.cls-29{fill:#c6e1f4;}.cls-30{fill:#9fbd5e;}.cls-31{fill:#8caa55;}.cls-32{fill:#cf6469;}.cls-33{fill:#b8555e;}.cls-34{fill:#f1f1f1;}.cls-35{fill:#5d4596;}.cls-36{fill:#4e3e79;}.cls-37{fill:#5ca2c4;}.cls-38{fill:#2c2224;}.cls-39{fill:#ff7683;}</style></defs><title>Amici</title><path class="cls-1" d="M698.79,429.93a9.13,9.13,0,0,1,7.84,1.82,14.37,14.37,0,0,1,4.56,14,13.59,13.59,0,0,1-5.47,7.42Z"/><path class="cls-2" d="M569,538.92a26.4,26.4,0,0,0-1.38,11.14,27.3,27.3,0,0,1-1.16,11.26c-1.33,4.44-3.63,12.43-3.63,12.43H603.1V527s-11.07-2.49-19.23,1.77A85,85,0,0,0,569,538.92Z"/><path class="cls-3" d="M583.87,528.77A85,85,0,0,0,569,538.92a17.25,17.25,0,0,0-.87,2.93c.08.1,3.34,4.23,10.68,6.1s9.06,1.26,9.06,1.26l4-11L592.8,550a67.59,67.59,0,0,0,10.3,1.12V527S592,524.51,583.87,528.77Z"/><path class="cls-4" d="M616,392.6S623.5,389,628.6,396s1.22,15.94-4.53,16.9S616,392.6,616,392.6Z"/><path class="cls-5" d="M622.79,402.55a56.46,56.46,0,0,1,1.05,18C623,427.45,618,437,615,438.88s-7.8-.56-7.8-.56a27,27,0,0,0-1,3.29c-.35,1.71,1.48,4,4.12,7.62a33.18,33.18,0,0,1,4.12,7.75s-21.53-5.34-25.41-18.14a28.24,28.24,0,0,0,3.64-9.86s-5.87-6-6.69-12.57,1.41-14.33,8.45-20.32S616.8,388.69,622.79,402.55Z"/><path class="cls-6" d="M596.49,435.57c2.08,2.45,8.3,4.78,9.92,5.36a27.08,27.08,0,0,1,.81-2.61c-2.83-1-8.62-4.42-10.1-7.14s-1.19-8.63-1.19-8.63a8.58,8.58,0,0,0-1.37,3.7C594,429.07,594.09,432.73,596.49,435.57Z"/><path class="cls-4" d="M592.29,430.93a14.07,14.07,0,0,0,2.27-3.7,20,20,0,0,0,1.37-4.68c-1.52.47-5.4-.84-6.26-4.44-.92-3.88-.26-5.89,1.26-7.06s3.88-1.27,5.52,1.19c1.41,2.11,1,3.83,1.86,4.18s3.87-2.59,4.1-7.88c0,0,4.47,3.06,8.46,0a6.57,6.57,0,0,0,2.58-7.16,6.2,6.2,0,0,0,5.11,3.29c3.7.23,4.23-2.12,4.23-2.12a8.09,8.09,0,0,0-3.41-8.11s.43-6.92-7.58-8.91c-8.51-2.11-15.84,1.87-17.22,7.83,0,0-6.58-.84-9.44,4.27-3.44,6.12-2.18,11.76-.36,18.55a63.25,63.25,0,0,0,4.65,12.33C591,431.23,592.29,430.93,592.29,430.93Z"/><path class="cls-7" d="M590.42,436.33c-.93,1.84-5.94,3.65-9.27,5.79s-11.1,9.72-8.85,25,5.49,42.57,5.12,47.63-1.48,8.26-4.31,14-4.69,9.49-4.69,9.49,4.32,5.92,18.37,7.15l5.42-13.68,1.24,14.92s17.42,2.65,24,.41c0,0,4.15-60.27,3.09-70.85C618.61,457,608,446,608,446s-5.39.6-9.3-1.57C591.87,440.61,590.42,436.33,590.42,436.33Z"/><path class="cls-8" d="M620.08,501.84l-14.47-11.52-14.75-19.17-3.82-20-11.24-3.44c-2.67,4.12-4.83,10.43-3.5,19.41.19,1.28.38,2.65.58,4.08a150.93,150.93,0,0,0,5.69,19.34,5,5,0,0,0,2.58,0l3.8,8.84-7.54,12.86a23.34,23.34,0,0,1,0,2.51,30.36,30.36,0,0,1-3.17,11.64c5.18,1.12,22.33-8.39,26.49-11.06a10.21,10.21,0,0,0,1.23,3.54c1,1.72.08,4,1.13,5.17s-9.86,20.13-9.86,20.13l.21,2.51s17.42,2.65,24,.41C617.44,547.05,619.14,522.38,620.08,501.84Z"/><path class="cls-9" d="M649.73,429.76a8.35,8.35,0,0,1,7.4,2.16c3.91,3.81,5.24,14.76-3.29,19.19,0,0-4.35-5.61-5.4-10.75S649.73,429.76,649.73,429.76Z"/><path class="cls-10" d="M651.1,543.84l4.1,29.91H589.85s1.95-16.57,10.15-30.32Z"/><path class="cls-11" d="M603.1,573.75s1.64-14.79,7.06-22.61h2.24s-5.45,7.08-7.4,22.61Z"/><path class="cls-11" d="M651.1,543.84l-51.1-.41q-1.46,2.45-2.65,5c0,.08.44,7.79,13.29,11.08s23,.6,30.8-6.46c0,0,4.88,5.82,11.68,5.53Z"/><path class="cls-12" d="M605.78,481c-3.5,2.63-24.37,19.06-29.92,24.4s-7.15,11.71-5,14.73,4.54,3.33,9.58,1.21,25-13.74,25-13.74,1.26-1.89,2-9.95A56.61,56.61,0,0,0,605.78,481Z"/><path class="cls-13" d="M607.33,497.6a44.76,44.76,0,0,0,0-7c-3.41-.65-8-1.51-11.24-2.1-3.72,2.95-7.9,6.32-11.6,9.36,1.14,3.94,4.62,11,7.25,12,1.84.66,7.55-.16,10.85-.73,1.71-1,2.78-1.61,2.78-1.61S606.62,505.66,607.33,497.6Z"/><path class="cls-12" d="M646.36,476.53c-4-.57-5.42-1.11-5.67-1.65s.1-5.66,1.08-7.24a10.75,10.75,0,0,0,5.28.87c2.8-.31,4-2.14,5.53-7.63s1.71-18.67.86-22.58-11.35-11.16-22.58-6.55-13.05,21.2-11.22,26.32S626,466.61,626,468.2s.25,4.66-1.58,5.57a47,47,0,0,1-7,2s.37,3.89,13.42,5.17S646.36,476.53,646.36,476.53Z"/><path class="cls-14" d="M642.83,475.78s-4.81,3.32-13.25,2.41-7.84-3.48-7.84-3.48-5.72.88-7.93,1.49c-4.31,1.18-6.79,2-8,4.75-.83,1.81-2.34,16-1,23.24l1.41,7.75s2.38,8.6,1.82,12.81-9.94,18-9.94,18-.61,11.31,17.69,13.27,27.09-10.74,27.09-10.74A10.18,10.18,0,0,0,654.18,553c-1.93-5.49-2.82-22.09-2.12-27.86s7.56-42.34,5.4-44.19c-4.21-3.59-10.6-4.59-14.63-5.17"/><path class="cls-15" d="M654.86,487.11l-30.26,6.05-20.12,9c.07.71.16,1.39.27,2l.83,4.53c3-.75,10.34-3,17.79-4.72,10.21-2.41,22.21-5.59,27.42-6.86l6.47-5.88c.14-1.16.26-2.27.35-3.29Z"/><path class="cls-15" d="M636.75,524.54l-16.32-3.11-7-8.7-3.33-6.2c-1.24,1.35-1.22,3.6-.69,5.47a42.44,42.44,0,0,0,2.47,5.58L608,522.43a13.35,13.35,0,0,1-.06,2.32,12.33,12.33,0,0,1-1.08,3.12,16.68,16.68,0,0,0,6.33,2.69,116.63,116.63,0,0,1,22,5.51c9.26,3.48,12.65,3.69,14.21,3.17A7.93,7.93,0,0,0,652,537a81.74,81.74,0,0,1,.06-11.85c0-.36.11-.83.2-1.41l0-.29Z"/><path class="cls-5" d="M637.25,517.76c-2.39-.14-12.5-.54-14-.77a3,3,0,0,1-2.66-2,8,8,0,0,0-2.75-4c-1.72-1.17-3.66-2-4.38-3s-1.08-3.07-2.57-2.44-.9,3.38-.36,4.6,2.16,3.48,2.3,4-.5.63-1.71.27a46.67,46.67,0,0,1-5-2.43l-.36-1.9a2.25,2.25,0,0,0-2.26,1.26,4.48,4.48,0,0,0,0,3.89c.46.9-.09,2,.77,3.38s1.36,1.49,1.54,2.39a6.47,6.47,0,0,0,2.66,4.18c1.89,1.24,5.23,1.6,9,2.18s17.77,4.94,17.77,4.94,1.18-1.45,2-5.3A20.58,20.58,0,0,0,637.25,517.76Z"/><path class="cls-9" d="M653.6,439.25a12.24,12.24,0,0,1-4.59,6.13c-2.09,1.61-2.34,2.65-2.9,4.91s-1.77,3.7-2.9,3.54-.64-2.41-1.45-4-2.25-3.83-5.31-2.7-2.63,7.24-.75,9.26,3.25,2,4.29,1.52,1.61.33,1.37,1.61-.63,5.29-3.69,7.54-10.7,1.36-11.83.56a31,31,0,0,1-6.36-5.39,17,17,0,0,1-4.42-10.65c-.29-5.18.65-11.39,2.38-13L628,426.78s2.86-4.75,11-4.18a12.55,12.55,0,0,1,10.78,7.16S656,435.1,653.6,439.25Z"/><ellipse class="cls-9" cx="619.48" cy="431.92" rx="11.4" ry="9.05" transform="translate(-118.75 591.05) rotate(-47.05)"/><path class="cls-5" d="M711.94,481c-4.62-.73-8.51-.78-13.15-1.56s-6.82-1.24-6.36-5.63.92-7.27.92-7.27l-14.89-.81s-.69,7-1,8.66-.46,1.61-3.92,2.19-10.64,2-10.64,2,.94,3.9,19.87,7.36S711.94,481,711.94,481Z"/><path class="cls-16" d="M697.31,479.13s11,1.31,14.63,1.82,6.64,1.61,9.73,9.11c0,0-7.83,21.95-7.22,25.42.87,5-1.08,19-1.68,22.24s.5,10.62,2.73,21.25,3.26,14.78,3.26,14.78H640.62A159.61,159.61,0,0,1,654.18,553c7.79-9.92,13.46-18.62,14.37-21.45s-3.74-18.82-3.74-18.82S652.06,531.85,650.54,534s-2.33,1.92-6.37.91-8.91-2.63-8.91-2.63a12.63,12.63,0,0,1-.71-8.26c1.12-4.9,2.7-6.24,2.7-6.24l2.87,0c.81,0,2.22-.1,3.44-2.94s9.71-24.08,12-29,3.87-7.65,8.81-8.48a58.81,58.81,0,0,1,9.09-.8s2.67,4.08,10.44,4.89A24.63,24.63,0,0,0,697.31,479.13Z"/><path class="cls-17" d="M712.62,540.79h0L706.43,550c.87,5,1.74,11.76-7.2,16.61s-42.71,7.12-42.71,7.12h62.24s-1-4.16-3.26-14.78C713.81,550.91,712.77,544.72,712.62,540.79Z"/><path class="cls-17" d="M715.89,507.92l-6.66,2.21L694,502.54s-15.1-18.81-15.27-19.07-6.82-2.52-6.82-2.52l-16.31,4.83v0c-.88,1.88-2.89,6.68-4.81,11.33a101.93,101.93,0,0,1,10.73-1.42c3.58-.26,7.64-3.28,7.64-3.28s12.86,19.5,17.94,24.68,8.46,9.66,13.29,9.92,8.32-5.79,12.34-9.15l1.79-1.92c0-.17,0-.34-.07-.49-.19-1.1.46-4,1.44-7.56Z"/><path class="cls-17" d="M705.62,534.88l2.2,5.26,5.46,6.91h0c-.65-4.33-.86-7.5-.51-9.33.55-2.94,2.2-14.79,1.85-20.67l0-.28-4.44-8.85s-.78,9.14-1.71,15.41A108.43,108.43,0,0,1,705.62,534.88Z"/><path class="cls-17" d="M702.85,540.79l-36.23-5.41c-1.34,2.28-3.3,5.25-5.71,8.64,3.3.49,17.07,2.54,27.63,4.38,12.07,2.1,17,3.7,20.69,2.76s3-2.83,4-4.11h0a58.33,58.33,0,0,1-.66-6.26C710.32,541,702.85,540.79,702.85,540.79Z"/><path class="cls-5" d="M704.58,438.77c1.72,5,2.9,16.32,1.29,22.11s-3.44,6.76-5.8,6.76-10.51-1.36-10.51-1.36l-11.1-.6a4.6,4.6,0,0,0-1.68-3.94c-1.93-1.4-9.87-10.84-4.5-23s18.67-13.1,24.57-8.59S704.58,438.77,704.58,438.77Z"/><path class="cls-18" d="M700.07,467.64a4.21,4.21,0,0,0,2.8-.87c-1.8.11-4.09-.56-7.19-3.44l-3.1,1.14-.13,2.27C695,467.13,698.63,467.64,700.07,467.64Z"/><path class="cls-1" d="M704.58,438.77c0-2.52-5.79-8.84-5.79-8.84a18.72,18.72,0,0,0-12.09-4.6c-7.53-.11-14,3.75-16.26,13.22s-3.28,8.86-5,12.3c-1.56,3.18-3.59,12.44,6.63,18.29,10.94,6.27,21.53,3.76,24.11,2.68s3.2-2.85,1.43-5.71a16,16,0,0,1-2-7.1c-.09-1.72.16-2.54-.71-2.23-.65.23-2.25.26-3.59-1.92-1.5-2.45-.68-7.64,1.79-8.09s3.71,1.35,4,3.61-.34,3.13.89,3.35,2.36-.67,4.16-3.35S704.77,442.62,704.58,438.77Z"/><path class="cls-10" d="M922.72,528.34c2.41,2.54,5.69,8.41,6.28,13a36.83,36.83,0,0,1-.82,13,20.37,20.37,0,0,0,0,9c.7,3.52,2.23,10.34,2.23,10.34H899.66L894,533.68Z"/><path class="cls-11" d="M909.83,538.5c9-1.41,12.67-4.34,15-7.33a19.73,19.73,0,0,0-2.16-2.83L894,533.68l.73,5.14A59.58,59.58,0,0,0,909.83,538.5Z"/><path class="cls-19" d="M917.69,476.5c.81,5.46.53,19.25-2.35,25s-2.73,8.31-1,11.4c2.46,4.29,10,15.42,10,15.42s-2.48,4.06-10.26,6.27-21,1.52-21,1.52a75.23,75.23,0,0,1-5-28.76c.58-15.65,8.19-40.81,8.19-40.81s9.12-4.82,14.35-1.57S917.69,476.5,917.69,476.5Z"/><path class="cls-20" d="M917.83,489.82l-1.83-3.1-14.75-13.13-8,4.59c-.33,1.3.55,2,.21,3.42,1.55,5.21,3.83,14.63,5.82,16.5,2.69,2.52,10,6.94,14.72,6.23.53-1.15.66-1.35,1.39-2.81C916.69,498.82,917.46,494.36,917.83,489.82Z"/><path class="cls-5" d="M905.56,449.8s1.29,6.27,1.5,7.62.89,3.08,2.22,3.37c0,0-1.09,4.27-5,5.77a12.35,12.35,0,0,1-7.91,0,28.46,28.46,0,0,0-1.73-4.38,6.84,6.84,0,0,0-3.15-2.42Z"/><path class="cls-6" d="M905.66,450.29c-.07-.3-.1-.49-.1-.49l-14.08,10a6.84,6.84,0,0,1,3.15,2.42s6.62-1.38,9.44-4.21C906.38,455.66,905.91,451.67,905.66,450.29Z"/><path class="cls-4" d="M895.27,420.57s-6.64-3.38-12,.85-5.33,15-.72,17.74c0,0,8.92-1.65,12-7S895.27,420.57,895.27,420.57Z"/><path class="cls-5" d="M888.65,426c-2.78,1.19-5.25,5.71-6,12.34-.58,4.8.57,13.71,2,17.79s6.63,3.86,10.94,3.24,7.59-2.81,8.68-5.49a24.2,24.2,0,0,0,1.37-4.12s2.28,2.39,4.37,2.09,6.26-4.61,6.07-9.46-.5-13.9-7.66-16.39S888.65,426,888.65,426Z"/><path class="cls-6" d="M893.94,457.42l3.57,1.57a13.35,13.35,0,0,0,2.62-1s-5.42-7.94-7.14-9.68-10.41-5.06-10.49-5.09c0,.44,0,.89.08,1.35l4.08,3.74Z"/><path class="cls-4" d="M888.65,426s.09,3.58,5.27,7.24,7.44,5.08,7.91,5.88-.58,3.84.13,4.72,2.53-.08,3.45-2.45,3.73-3.42,5.25-2.27,2.1,3,.86,6.62c-1,3-4.18,5.05-6,4,0,0-.09,5,1.5,7.62a30,30,0,0,1,4.38-4.49c2.95-2.52,6.14-5.55,7.09-14s-5.49-17.05-8.84-19-10.75-2.65-14.42.67Z"/><path class="cls-4" d="M909.28,419.68a15.21,15.21,0,0,1,5.43-7c3.9-2.54,12.82-3.1,16.81,0a21.06,21.06,0,0,1,7.72,13.47c.88,5.63,1.91,8.37,6.29,11.71s9.72,9.39,6.14,18.55-14.66,9.32-16.81,9-2.79-1.84-1.27-3.91,3.5-5.87.95-8.55-4.46-3.56-8-5.79-6.06-4.84-5.9-9.31,1.52-10,.16-12.9-4.09-5.06-8.13-2.38A4,4,0,0,1,909.28,419.68Z"/><path class="cls-20" d="M909.28,460.79c3.46,0,7.71,1.12,9.08,8.76s2.07,15.37,1.77,19.88a26.09,26.09,0,0,1-2.08,8.28l-14-8.18s-1-13.71-1.21-18.74S903.81,461,909.28,460.79Z"/><path class="cls-21" d="M897.09,539.74a55.79,55.79,0,0,1,3.14,17.42c0,4.71-.57,16.59-.57,16.59H846.79L844.49,548s3.81-12.26,16.51-15.45S892.25,529.55,897.09,539.74Z"/><path class="cls-22" d="M897.09,539.74c-4.84-10.19-23.39-10.42-36.09-7.22S844.49,548,844.49,548l.38,4.21a23.35,23.35,0,0,0,20.54,1.45l-.43-11,5.32,10.4c17.31-.11,24.2-6.23,27.84-10.09C897.76,541.64,897.4,540.52,897.09,539.74Z"/><path class="cls-23" d="M851.79,405a14.28,14.28,0,0,1-7.86,1.37c-2.26-.3-3.47-2-4.89-.74-1.76,1.61-5.07,11.67,1.74,16.19C849.44,427.59,851.79,405,851.79,405Z"/><path class="cls-24" d="M841.61,416.59c-1.13,4-1.2,9.09,0,16.33s3.5,13.93,5.67,14.86a15.28,15.28,0,0,0,6.59.5c2.21-.25,2.93-.45,3.37,3.22s14.44-.52,16.29-3.34c0,0-1.72-6.64-1.23-8.6s3-4.79,3.68-10.81-.12-16.83-8.35-20.52-18-.58-21.75,2.21A10.83,10.83,0,0,0,841.61,416.59Z"/><path class="cls-23" d="M857.24,437.46c-.13,1,1.31,3.36,2.06,5s2.39,3.21,4.22,3.31,6.85,0,9-2.15c1.2-1.08,1.2-3.24,2.92-7.11a31.77,31.77,0,0,0,2.16-15.92c-.87-5.3-1.23-10.79-6.32-10.68,0,0-1.44-5.82-6.93-6.9s-9.75.53-13.68,2.59-8.38,5.23-8.45,9.21a4.49,4.49,0,0,0,3.18,2.74c1.83.41,1,1.55,1.1,2.77.17,2.11.49,3.45,2.05,4.61s2.13,1.21,2.12,3.61c0,3.23.11,4,1.08,4.2s2.05-.65,3.23-3.77,3.45-3.48,5.28-1.47,1.3,7.61,0,9.13C858.7,438.46,857.42,436.06,857.24,437.46Z"/><path class="cls-2" d="M794.1,549.73c-.88,3.91-2.14,20.1-2.31,24H853.4s-1.54-11.49-5.61-18.33c0,0-12.78-10.23-26.64-11.88S794.1,549.73,794.1,549.73Z"/><path class="cls-25" d="M794.1,549.73c-.4,1.79-.89,6.17-1.31,10.76h0s2.12.62,4.87-2,2.76-3.89,3.41-3.52,1.7,3.35,5.5,7.21c2.89,2.94,15.26,9.64,28.72,7,9.83-1.89,13.44-6.75,14.68-9.23a30.29,30.29,0,0,0-2.18-4.62A67.65,67.65,0,0,0,837.66,549l-9.28,1.78-17.88-6.88A53.38,53.38,0,0,0,794.1,549.73Z"/><path class="cls-10" d="M790.28,547.25s2.25,13.3,3.05,26.5H719.67s2.35-21,3.85-31Z"/><path class="cls-11" d="M722.34,551.44s6.37,17.52,35.17,16.29,33.54-15.5,33.54-15.5l-.77-5-66.76-4.47Z"/><path class="cls-26" d="M752.41,404.58c-5.1,0-14.61,2.94-14.61,17.07,0,0-1.08-1.87-2.45-1.08s-.89,5.29,0,7.94,2.81,3.2,4,3.11a38.32,38.32,0,0,0,2.59,6.12,36.24,36.24,0,0,0,4.1,4.72l-.09,7.92h17.95v-8.92c0-2.95,4.26-9.71,4.26-9.71s1.94.74,3.27-1.72c1.53-2.8,2.22-8.37.82-9.46-2.2-1.72-3,2-3,2s-1-11.08-6.87-13.83S752.41,404.58,752.41,404.58Z"/><path class="cls-27" d="M737.76,423.2c-.32-2.84-1.48-8.48-1-13.69s2.74-9,4.33-9.37,1.68,1.32,3.44,1.68a4.88,4.88,0,0,1,.8-4.16c1.5-2,2.75.46,5.66,1.95,3.54,1.82,5.17,1,7.74,2.55,3,1.88,3.12,4.1,3.12,4.1a4.57,4.57,0,0,1,3.77.51c2.63,1.5,4.69,6.65,3.84,16.18-.76,8.46-2.84,15.24-5.62,18.51s-13.7,3-17.86,1c0,0-3.48-1-6-8.81A54.49,54.49,0,0,1,737.76,423.2Z"/><path class="cls-7" d="M738.7,453.68a33.11,33.11,0,0,1-10.56,3.75c-4.7.74-7.47,1.06-9.38,3.5,0,0,6.82,7.67,8,21.61.85,10.06-2,15-2,15a40,40,0,0,0,3.86,9.7c2.52,4.17-2.86,19-4.17,24s-2.78,12-2.78,12c.48,1.9,9.47,19.29,33.94,19.29s35-14.82,35.45-16.83-2.48-13.45-4.28-22.94-3.06-17.56-1.53-24.52,4.22-16.4,4.86-24.63-.9-15.88-2.06-16.83-2.64-.79-6.8-1.63a39.61,39.61,0,0,1-8.71-2.63s-1.21-.85-7.49-.22-10.86,2.27-16.45.95S740.37,452.75,738.7,453.68Z"/><path class="cls-7" d="M788.69,458a10.35,10.35,0,0,0-.64-1.11A3,3,0,0,1,788.69,458Z"/><path class="cls-8" d="M786.78,522.83c-.32-1.69-.62-3.34-.89-4.94H736.58l-6.83-16.81c3.57-10.13,2.53-20.53,0-25.3l-4,.37a46.31,46.31,0,0,1,1,6.39c.85,10.06-2,15-2,15a40,40,0,0,0,3.86,9.7c2.52,4.17-2.86,19-4.17,24-.49,1.85-.88,3.45-1.15,4.83,1.85,1.18,7.29-1,7.29-1s35,12.9,38.73,11.93c3.12-.81,14.92-13.58,18.75-17.8C787.62,527.06,787.17,524.9,786.78,522.83Z"/><path class="cls-5" d="M793.33,516.77,776,535.52s-4.09,4.59-5.45,5.66-1.65,2.43-8.77.58-36.87-12-36.87-12a5.66,5.66,0,0,1-.62-5.72c1.46-3.18,3.34-3.57,3.34-3.57L762,528l2.63-2.95Z"/><path class="cls-5" d="M724.76,497.57s6.87,14.64,7.8,16.34,1.07,1.84,4.39,1.57S778.46,512,778.46,512l1,9.6S730.87,532,727,532.84c-2.65.6-3.88-.27-5.61-3.12s-11.54-22.35-11.54-22.35Z"/><path class="cls-16" d="M739.27,515.29h0l-2.32.19c-3.32.27-3.46.14-4.39-1.57s-7.8-16.34-7.8-16.34l-15,9.8s9.81,19.51,11.54,22.35,3,3.72,5.61,3.12c1.09-.25,5.69-1.24,11.74-2.53C741.32,525.66,740.06,518.11,739.27,515.29Z"/><path class="cls-26" d="M698.79,498s-20.22-18.2-23.66-22.18-4.73-6.9-7.74-8.1-2.84-.26-4.73,0-3.09-.09-4.64,1.12-2.41,1-3.53,2-2.66,3.83-2.4,5,.43,5.31,6.27,5.91,8.26,1.89,8.26,1.89l22,30.33Z"/><path class="cls-28" d="M664.49,470.57c.64,1.06,1.31,2.42.32,3.55s-4.27,4.64-4.27,4.64-3.17,1.56-2.66-.54S664.49,470.57,664.49,470.57Z"/><path class="cls-28" d="M675.48,476.53c.92,3.29,1,7.76-.05,9.81a15.31,15.31,0,0,1-3.81,4.16L669.83,488Z"/><path class="cls-7" d="M718.76,460.93c-2.58,3-4.44,6.87-7.73,14.15S698.79,498,698.79,498l-3.63-3.55s-7.45,8.52-7.28,18.63c0,0,6.12,7.72,8.43,9.58s4.7,2.13,8.07-1.06,20.38-24,20.38-24,4.64-2.71,5.7-12.29S725.68,459.91,718.76,460.93Z"/><path class="cls-29" d="M697.94,497.12c-1.55,1.38-8.05,10.69-6.49,20.27l.74.87s-.7.6-1.71-.5a64.87,64.87,0,0,1-5.16-5.91c-.59-1.1-.25-6,2.2-11.83s5.48-8.64,6.92-7.48a25.65,25.65,0,0,1,3,2.83c.74.79,1.51,1.63,1.3,2.59Z"/><path class="cls-30" d="M800.94,494.32c-3.26-1.76-8.89-2.58-13.17.53a9.13,9.13,0,0,0-2.31,2.52c-5.49,8.05-20.88,27.71-20.88,27.71s.83,7,11.39,10.44l17.36-18.75a102.79,102.79,0,0,1,2.1,11.87c.59,5.69-2.85,29.63-2.85,29.63a7,7,0,0,0,5-2.81c2.37-2.85,2.72-4.51,3.37-4.51s1.35,4.41,7.79,9c5.1,3.68,19.64,8.67,28.76,5.77,10.45-3.31,10.48-8.15,11.08-10.4a47.52,47.52,0,0,0-4.84-6.79c-3-3.56-3.56-5.17-3.56-5.79s1.19-3.34.71-4.41-2.94-3.32-2.42-5,4.68-14.83,5.86-22.42,0-17.33,0-17.33Z"/><path class="cls-31" d="M790,493.81c3.44-1,11.3,2,13.22,3.9s2.8,10.39,12.4,13.87,25.21,1.15,25.21,1.15l-8.54-20.45L803,487.93Z"/><path class="cls-31" d="M842.24,520.34c.87-3.32,1.66-6.7,2.08-9.38a53,53,0,0,0,.53-8.24c-4,.79-39.15,7.77-39.39,7.53s-13.67-7.73-13.67-7.73l-9-1.35c-4.12,5.68-10.11,13.49-14.08,18.62a52.28,52.28,0,0,0,6.87,3.39,23.16,23.16,0,0,0,10.54,1.4l7.23-7.81s.69,2.82,1.32,6.4c3.6,0,14.12-.15,25-.8C831.26,521.68,840,520.62,842.24,520.34Z"/><path class="cls-32" d="M857.24,451.5c3.52-1.3,14.15-4.29,19.76-3.62s13.4,3.59,16.54,7,2.92,14.74,2.92,18.64-1.79,12.76-3.18,16.78-1.76,13-1.53,20.34,4.79,25.07,5.68,27.16-3.38,5.46-9.9,8c-8.11,3.18-20.56,4-20.56,4l-4.11-11.45L862,550.19a30.43,30.43,0,0,1-10.26.3c-5.46-.83-7.56-2.55-8-3.22s-1.88-19.83-.68-30.5c0,0,9.14-5.95,10.56-13.13S857.24,451.5,857.24,451.5Z"/><path class="cls-33" d="M867.32,455.24c2.49,2.09,6.2,5.18,6.19,12,0,5.37-2.82,16.26-2.82,16.26l-5.28-1.5Z"/><path class="cls-33" d="M893.28,490.26c1.39-4,3.18-12.89,3.18-16.78,0-3.37.17-12.31-1.81-16.85l-2.52-3.05c-3.68-2.81-10.23-5.11-15.13-5.7a25.75,25.75,0,0,0-6.3.27,11.55,11.55,0,0,1,4.38,4.15c.78,1.63,3.26,3,6.37,2.26s2.8.37,4.51,5.2,4,12.92,4,12.92l-8,3.1s-17.76,9-27,13.66c-.25,3.46-.5,6.6-.75,9.11,6-1.36,14.3-3.19,16.67-3.33,3.81-.23,10.18.62,13.37,1.16,1.8.31,5.38-1.24,8.16-2.65A21.51,21.51,0,0,1,893.28,490.26Z"/><path class="cls-33" d="M868,495.64V484.76l-12.77,1.68c-.54,7.93-1.11,14.75-1.6,17.2-1.42,7.18-10.56,13.13-10.56,13.13-.12,1.09-.21,2.26-.29,3.5a91.55,91.55,0,0,0,10.58-.4c3.77-.55,6-1.66,8.2-8.45S866.07,496,868,495.64Z"/><path class="cls-24" d="M840.86,498.87l-38.17,5.8c-2.42.34-6.3-1.21-9.36-2.67s-3.51-1.94-7.26-2-7.23-1.54-8-.38,1.22,3.48,3.84,4.11,4.29,1,4.29,1-3,0-5.81,0-4.13.4-5,1.32-.68,2.65-1.44,3.13a3.24,3.24,0,0,0-1.77,2.57c0,1.24-2,2.17-2.08,3.29s-.39,1.41.33,2.41,6.24,3.81,11,4.13a37.63,37.63,0,0,0,11.84-1.46,29.14,29.14,0,0,1,7.93-1.14l23.31-1.08Z"/><path class="cls-34" d="M863.05,452.14c-4-2.05-11.35-.94-13.73,8.14s-8.46,38.59-8.46,38.59l-16.29,2.47s2.27,9.74,0,16.55c0,0,19.54-1,23.34-1.12s8.33-.62,10.92-7.32S869,476.27,870.3,472.17,873.42,457.47,863.05,452.14Z"/><path class="cls-35" d="M814,436.4a18.46,18.46,0,0,0-13.46,14.87c-1.53,8.15-.94,11.79,2,18.72s6.31,11.51,5,18.79,1.08,11.4,6.41,16.57c7.6,7.38,26.65,9.17,36.18,0,8.89-8.54,1.66-20.77,1.66-20.77s6.6-6,5.07-12.6-4-8.11-9.63-11.1-8.71-9.49-10.35-13.6S828.35,432.64,814,436.4Z"/><path class="cls-36" d="M807.54,488.78c-.85,4.88-.07,8.35,2.15,11.66,4.07,1.68,12.07,4.58,13.92,4.91s13.68-2.54,14.85-2.46a13.67,13.67,0,0,0,5.77,0,6.9,6.9,0,0,0,4.34-2.47l5.47-1.58a18.64,18.64,0,0,0-.76-10.93H807.66C807.62,488.21,807.59,488.49,807.54,488.78Z"/><path class="cls-26" d="M842.42,481.32s27.5-3.41,30.06-3.89,4.25-2.4,7.14-4.25,5.38-2.64,7.38-2.32,5.14.48,6.1.56.48,1.92-1.12,2.4-4.74,1-4.5,1.29,5.62.32,6.5-.24a3.82,3.82,0,0,0,1.85-1.85c.48-1,1.68-.8,2.32.08a3.69,3.69,0,0,1,.4,4c-.88,1.53-1.76,2.27-1.84,3a36.47,36.47,0,0,0,.32,3.68c.08,1.12-1.53,2.57-1.85,3.37a5.55,5.55,0,0,1-2.32,3.45,17.53,17.53,0,0,1-7,2.67c-1.76.17-8.88-.9-12-1s-7.7,1.05-15.44,2.51c-6,1.14-16.85,3.95-16.85,3.95Z"/><path class="cls-7" d="M788.05,456.85a6.65,6.65,0,0,1,4.89,1.25c2.77,1.79,35.63,23.31,36.26,23.67s13.22-.45,13.22-.45,2,10.09-.81,17.42c0,0-13.57,2.32-15.63,2.95s-3.48.35-7.5-1.17-17-6.43-20.9-7-9.26-.7-12.17,4.16c0,0-1.51-6.45.25-16.68A221.57,221.57,0,0,0,788.05,456.85Z"/><path class="cls-8" d="M842.37,496.21a19,19,0,0,1-.76,2.53S828,501.06,826,501.69s-3.48.35-7.5-1.17-17-6.43-20.9-7-9.25-.7-12.17,4.15c1.55-6.89,4.08-16,4.7-23.94.52-6.76-.42-13.13-1.42-15.71A34.25,34.25,0,0,1,792,468.91a59.53,59.53,0,0,1,.77,13.88c-.13,2.7,3.22,5.37,11.32,8.36s18.61,7.08,20.49,7.59C826.31,499.21,840.33,496.59,842.37,496.21Z"/><path class="cls-29" d="M838.46,481.55c0-1.05,1.41-1.19,3.62-1.32s3.3-.42,4.1.66,1.76,5.52,1.73,10c0,3.31-.78,7.53-2,8.07a13.68,13.68,0,0,1-3.77.87c-1.41.2-3.41.6-3.69-.51l.94-.16a27.47,27.47,0,0,0,1.47-8.27,35.08,35.08,0,0,0-1.07-9.37Z"/><path class="cls-5" d="M883.76,452.14c-.77.08-3.43,1.2-5.86.46s-5.15-4.78-7.2-4.45l-6.84,1.38a10.91,10.91,0,0,1,2.9-2.66c1.72-1,6.89-2.51,8.74-3,2.44-.66,5.47-1.25,7.23-.57,4,1.53,9.22,4.65,10.06,5.67s18.71,26.35,21.41,30,5.59,8.29,4.75,14.62-2.8,7.94-4.84,8.44-9.31-3.69-11.64-6.95-15.45-37.61-16.2-39.38S884.61,452.05,883.76,452.14Z"/><path class="cls-12" d="M713.34,534.09l-.39,2.6a12.67,12.67,0,0,1-3.56.47c-1.28-.16-1.82-.54-1.49-.95s2.39-1.46,3.42-2.35c2.25-1.92,2.24-4.72.7-4.14a13.85,13.85,0,0,1-2.79,1.18c-1.26.23-2.39.58-4.47,1a10.78,10.78,0,0,0-4.48,2,3.31,3.31,0,0,1-2.6.91l-14.53-5h0c-6-2-11.63-4-12.65-4.32-2.26-.78-2.82-1.51-3.15-3.1-.66-3.19-2.54-9.73-2.54-9.73l-10.74,16a36,36,0,0,0,1.47,5.54c1.18,3.55,2.76,4.92,5.51,5.22,1.46.15,10.1,1.77,18.42,3.44h0s14.68,3.15,18.42,4.11,7.34,1.58,9.61,1.19a6.63,6.63,0,0,0,4.17-2.84c.53-.77,1.05-.69,2.4-1.61s.57-3,1.1-3.89c.62-1,1.23-1.47,1.15-3.16S713.34,534.09,713.34,534.09Z"/><path class="cls-5" d="M600,465.45s6.86,16.53,7.45,17.82,1.85,1.15,10,.86,25.36-1,27.66-1.72,3-2.16,4.17-4.17,2.15-3.59,7-5.16,7.68-3.45,8.19-2.51c.27.52.72,1.94-1.21,3.46s-4.7,3.52-4.32,4,11.29-1.85,12.84-3.14,1-2.05,1-2.05a2,2,0,0,1,2.08.91c.76,1.23.89,5.46.59,7.39s-.69,4.59-3.06,6.77a25.33,25.33,0,0,1-10,5.17c-2.94.75-7.08.32-12.41,1.56s-24.37,5.65-34.63,8c-9.25,2.08-19.21,4.35-22,3.4s-5.89-7-9.88-18.19Z"/><path class="cls-37" d="M580.34,443.06c-3.66,1.58-8.9,6.75-5,22.62s6.89,22.9,6.89,22.9,14.93,2.59,23.4-10.91c-.14-.86-4.45-12.92-8.32-22S588.67,439.47,580.34,443.06Z"/><path class="cls-8" d="M738.7,453.68s4.9.76,7.52,2.27,5.48,2.14,9.89,2a22,22,0,0,0,9.95-2.68c2.69-1.34,4.59-2.84,6.48-2.7,0,0-1-1.74-16.5-1.74S738.7,453.68,738.7,453.68Z"/><path class="cls-7" d="M755,448.16c-4,.19-7-1.06-9.1-1.4s-4.41.84-7.24,6.92a19.61,19.61,0,0,1,6,.58c3.17.84,6.34,1.9,10.92,1.65,5.59-.29,8.83-1.85,11.4-2.49a28.34,28.34,0,0,1,5.52-.83s-4.53-8.13-8.65-6.66C760.85,447,758.54,448,755,448.16Z"/><path class="cls-6" d="M740.14,534.88l19-7.47-3.32-.73h-.16l-24.41,5.22Z"/><path class="cls-37" d="M590.76,435.57s2.91,5,7.28,7.35a17.44,17.44,0,0,0,9.37,2.15l1.86,2.37a19.78,19.78,0,0,1-20.07-9.84Z"/><path class="cls-17" d="M661.52,543.16l2.68-.49v-3.43Q663,541.07,661.52,543.16Z"/><path class="cls-17" d="M650.54,534c1.52-2.13,14.27-21.25,14.27-21.25a44.48,44.48,0,0,1-1.95-16.08,42.09,42.09,0,0,0-2,16.27s-10.08,16.52-12.74,18.56-12.91.78-12.91.78,4.86,1.62,8.91,2.63S649,536.1,650.54,534Z"/><polygon class="cls-13" points="666.08 517.32 655.2 533.02 654.07 528.78 664.81 512.73 666.08 517.32"/><path class="cls-38" d="M615.82,442.19s7.87,0,13-8.38c0,0-2.39,10.64-13.35,9.95C615.59,443.2,615.7,442.68,615.82,442.19Z"/><path class="cls-11" d="M913.4,540.08c.9,4.12,2.24,10.19,3.05,11s12,2.2,12,2.2l.19-1s-9.76-1.36-11-1.86C916.73,550,914.39,543.31,913.4,540.08Z"/><path class="cls-22" d="M858.74,573.75a174,174,0,0,1-1.65-24.25h-1.35s-1.22,8,1.32,24.25Z"/><path class="cls-11" d="M615.28,558.59s-1.9,7-1.9,9.2,4.93,5.39,6.07,5.26,9.72-1.9,10.86-3.16,2.4-13.64,2.4-13.64-2.35,12-3.13,12.74-8.5,3-9.89,2.87-5.17-3.17-5.17-4.2S615.28,558.59,615.28,558.59Z"/><path class="cls-11" d="M602.56,554.87c-1.88,4.16-3.47,9.78-4.09,10.68s-7.4,1.42-7.4,1.42l.3-1.3s4.35-.4,5.44-.61,1.38-1.14,2-2.61S602.56,554.87,602.56,554.87Z"/><polygon class="cls-3" points="571.9 573.75 579.34 545.17 580.44 545.17 573.32 573.75 571.9 573.75"/><path class="cls-3" d="M578.27,552.86c5.14.68,12.34-.29,15-8.73l.15,1.84s-1,4.6-5,6.64a15.23,15.23,0,0,1-10.52,1.18Z"/><path class="cls-22" d="M864.17,552.84c.66,5.19,1.37,10.67,2.69,11.81s10.66,1.75,11.93,1.3,4.92-4.24,5-5.63-1.65-12.65-1.65-12.65.4,11.16.29,12.29-3,4.47-4.35,4.69-9,.27-10.06-1S864.17,552.84,864.17,552.84Z"/><path class="cls-11" d="M908.39,536.8s2.33,9.12,3.8,17.39,2.2,19.56,2.2,19.56H913a145.24,145.24,0,0,0-2-19.56c-1.8-10-3.84-17.39-3.84-17.39Z"/><path class="cls-22" d="M888.13,547.93c1.22,7.24,2,13.3,1,18.7s-1.35,7.12-1.35,7.12h.91s1-5.46,1.56-8.22.37-7.23-1.24-17.86Z"/><path class="cls-22" d="M894.32,545.24c.68,4.56,1.29,9.79,1.82,11s4.07,2.28,4.07,2.28v1s-3.91-.78-5-2.63S894.32,545.24,894.32,545.24Z"/><path class="cls-39" d="M931,550.57C815,623,563,483,563,570.83V613l368,9Z"/></svg>