<svg xmlns="http://www.w3.org/2000/svg" viewBox="0 0 1600 1327"><defs><style>.cls-1{fill:#3a7541;}.cls-2{fill:#499153;}.cls-3{fill:#3d7f31;}.cls-4{fill:#fff;}.cls-5{fill:#fabd28;}</style></defs><g id="Livello_2" data-name="Livello 2"><g id="Livello_1-2" data-name="Livello 1"><path class="cls-1" d="M1125,6.08A3.11,3.11,0,0,0,1122.49,3h0C995.06-21.15,872.74,105.61,765.11,177.42,648.24,255.4,474.78,287.49,350.83,231c-74.45-33.93-149.28-72.39-225-101.35-32.71-12.51-63.25-18.68-96.89-9.3a270.7,270.7,0,0,0-27,8.89,3.13,3.13,0,0,0-2,2.9V465.88A3.12,3.12,0,0,0,3.12,469H1121.88a3.12,3.12,0,0,0,3.12-3.12Z"/><path class="cls-2" d="M1125,287.47a143.77,143.77,0,0,1-9.92,11.33C1042.9,371,966.67,400.1,885.88,413.25,699.9,443.5,542.7,262.9,369.46,166.53c-63-35.05-139.66-47.83-203.7-21.54C99.65,172.12,51.19,247.17,0,320V1323H1125Z"/><path class="cls-1" d="M1600,249V469H1070.12a3.12,3.12,0,0,1-3.12-3.12V6.08A3.11,3.11,0,0,1,1069.51,3h0c37.12-7,73.81-1.27,109.83,12.22,70.34,26.34,138.13,82.12,201.6,129.43,15.58,11.61,30.9,22.72,45.93,32.75,49.56,33.07,109.29,57.89,171.11,71.19Z"/><path class="cls-2" d="M1600,207.28V1327H563V291.47a143.77,143.77,0,0,0,9.92,11.33C645.1,375,721.33,404.1,802.12,417.25c93.68,15.24,180.07-23,264.88-77.08,18.6-11.86,37.13-24.48,55.64-37.46l3.95-2.77c63.3-44.54,126.48-93,192-129.41A292,292,0,0,1,1381,144.67a257.12,257.12,0,0,1,45.34-8.59c33-3.17,65.84.55,95.94,12.91q3.23,1.32,6.39,2.79c25.3,11.75,48,30.52,69.37,53.34C1598.67,205.83,1599.34,206.56,1600,207.28Z"/><path class="cls-3" d="M833.58,305.91a1.25,1.25,0,0,0-.87-2.11H832a3,3,0,0,0-1.34-.12,4.68,4.68,0,0,0-2.16.44,14.2,14.2,0,0,0-2.12.9,29,29,0,0,0-3.12,2c-.24.17-.44.36-.66.54,0-.06,0-.13,0-.2.36-1.62.67-3.22.87-4.88.16-1.41.51-3.14-.07-4.52a5.05,5.05,0,0,0-.06-.68,1.55,1.55,0,0,0-.24-.78l-.72-.91c0-.59-.89-.88-1.15-.32a5,5,0,0,1-1,.48,1.61,1.61,0,0,0-.59.54,4.93,4.93,0,0,0-.42.66,8.32,8.32,0,0,0-1.93,3.53,36.16,36.16,0,0,0-1.21,3.69l-.92,3.59c-.1.42-.21.83-.33,1.25-.44-.42-.88-.84-1.35-1.24a13.82,13.82,0,0,0-1.71-1.34,7.3,7.3,0,0,0-2-.88,3.47,3.47,0,0,0-3.32.88,3.38,3.38,0,0,0-.88,3.32,9.7,9.7,0,0,0,.53,1.29,9,9,0,0,0,.92,1.23,8.23,8.23,0,0,0,1,1c.67.64,1.35,1.27,2.07,1.85l.78.61a2.82,2.82,0,0,0,1.45.46,2,2,0,0,0,1,0,2.75,2.75,0,0,0,.94-.22c.09,0,.18,0,.26,0a3.19,3.19,0,0,0,1.23-.71,1.92,1.92,0,0,0,.22.18,3.28,3.28,0,0,0,2.45.41,6.23,6.23,0,0,0,.5.68l-.09-.16a1.53,1.53,0,0,0,1.24.73c.14,0,.08.1.14.11a3.58,3.58,0,0,0,1.69,0,4.4,4.4,0,0,0,1.84-1.1c.43-.4.83-.83,1.23-1.26.8-.87,1.68-1.64,2.5-2.49a28.49,28.49,0,0,1,2.48-2.31c.45-.37.86-.77,1.29-1.16a5.53,5.53,0,0,0,1.42-1.6,3.62,3.62,0,0,0,.42-.74Z"/><path class="cls-3" d="M1186.15,426a2.5,2.5,0,0,0-.74-.68,3.22,3.22,0,0,0-2.15-.86l-.79-.08c-.11,0-.89-.16-.52-.08.53.13-1-.12-1.2-.13H1180c-.53,0-1,0-1.58,0a27.42,27.42,0,0,0-3.83.46,6,6,0,0,0-2.06.68,2.23,2.23,0,0,0-.24.19l0-.14c.13-.57.27-1.15.4-1.72s.27-1.07.44-1.59c.09-.26.19-.51.28-.77v0l0,0c.33-.72.57-1.45.85-2.18.11-.31.11-.31.07-.23a5.08,5.08,0,0,0,.28-1v0a7.75,7.75,0,0,0,.53-2.31c0-.1,0-.19.09-.29.45-1.1-.82-2-1.78-1.78l-.08,0-.41-.05a3.23,3.23,0,0,0-1,.2,9,9,0,0,0-1.53.65,8.68,8.68,0,0,0-3.67,3.16,17.68,17.68,0,0,0-1.79,3.17,15.53,15.53,0,0,0-1,3.19,26.31,26.31,0,0,0-3.2-3.14,12,12,0,0,0-2-1.42,7.19,7.19,0,0,0-2.37-1,.76.76,0,0,0-.15,0,1.7,1.7,0,0,0-.35-.14,2.92,2.92,0,0,0-.82-.17H1155a12.44,12.44,0,0,0-1.93-.26,1.49,1.49,0,0,0-1.27,2.22,7.26,7.26,0,0,0,.8,1.28c.07.11.07.08,0-.08s-.06-.19.07.15a3.81,3.81,0,0,0,.52.84,2.43,2.43,0,0,0,.34.73c.12.15.24.3.35.46s0,0,.06.07c.24.32.46.65.69,1,.56.77,1.2,1.48,1.81,2.22.44.59.87,1.2,1.28,1.82.23.35.48.68.72,1a14.08,14.08,0,0,0,1.35,1.8,3.81,3.81,0,0,0,3.79,1,9.64,9.64,0,0,0,1.2-.57,4,4,0,0,0,3.55,1.4,4.11,4.11,0,0,0,3.29-2.81,3.36,3.36,0,0,0,1.25.93,5.48,5.48,0,0,0,2.47.31,29.32,29.32,0,0,0,4-.55,13.47,13.47,0,0,0,3.47-1l.3-.14.74-.28a4.76,4.76,0,0,0,1.33-.62,2.48,2.48,0,0,0,.65-.81,2.45,2.45,0,0,0,.52-.82A.66.66,0,0,0,1186.15,426Z"/><path class="cls-3" d="M1182.83,429.85l-.06,0C1182.6,430,1182.49,430,1182.83,429.85Z"/><path class="cls-3" d="M104.58,422.91a1.25,1.25,0,0,0-.87-2.11H103a3,3,0,0,0-1.34-.12,4.68,4.68,0,0,0-2.16.44,14.2,14.2,0,0,0-2.12.9,29,29,0,0,0-3.12,2c-.24.17-.44.36-.66.54,0-.06,0-.13,0-.2.36-1.62.67-3.22.87-4.88.16-1.41.51-3.14-.07-4.52a5.05,5.05,0,0,0-.06-.68,1.55,1.55,0,0,0-.24-.78l-.72-.91c0-.59-.89-.88-1.15-.32a5,5,0,0,1-1,.48,1.61,1.61,0,0,0-.59.54,4.93,4.93,0,0,0-.42.66,8.32,8.32,0,0,0-1.93,3.53,36.16,36.16,0,0,0-1.21,3.69l-.92,3.59c-.1.42-.21.83-.33,1.25-.44-.42-.88-.84-1.35-1.24a13.82,13.82,0,0,0-1.71-1.34,7.3,7.3,0,0,0-2-.88,3.47,3.47,0,0,0-3.32.88,3.38,3.38,0,0,0-.88,3.32,9.7,9.7,0,0,0,.53,1.29,9,9,0,0,0,.92,1.23,8.23,8.23,0,0,0,1,1c.67.64,1.35,1.27,2.07,1.85l.78.61a2.82,2.82,0,0,0,1.45.46,2,2,0,0,0,1,0,2.75,2.75,0,0,0,.94-.22c.09,0,.18,0,.26,0a3.19,3.19,0,0,0,1.23-.71,1.92,1.92,0,0,0,.22.18,3.28,3.28,0,0,0,2.45.41,6.23,6.23,0,0,0,.5.68l-.09-.16a1.53,1.53,0,0,0,1.24.73c.14,0,.08.1.14.11a3.58,3.58,0,0,0,1.69,0,4.4,4.4,0,0,0,1.84-1.1c.43-.4.83-.83,1.23-1.26.8-.87,1.68-1.64,2.5-2.49a28.49,28.49,0,0,1,2.48-2.31c.45-.37.86-.77,1.29-1.16a5.53,5.53,0,0,0,1.42-1.6,3.62,3.62,0,0,0,.42-.74Z"/><path class="cls-3" d="M1347.58,233.91a1.25,1.25,0,0,0-.87-2.11H1346a3,3,0,0,0-1.34-.12,4.68,4.68,0,0,0-2.16.44,14.2,14.2,0,0,0-2.12.9,29,29,0,0,0-3.12,2c-.24.17-.44.36-.66.54,0-.06,0-.13,0-.2.36-1.62.67-3.22.87-4.88.16-1.41.51-3.14-.07-4.52a5.05,5.05,0,0,0-.06-.68,1.55,1.55,0,0,0-.24-.78l-.72-.91c0-.59-.89-.88-1.15-.32a5,5,0,0,1-1,.48,1.61,1.61,0,0,0-.59.54,4.93,4.93,0,0,0-.42.66,8.32,8.32,0,0,0-1.93,3.53,36.16,36.16,0,0,0-1.21,3.69l-.92,3.59c-.1.42-.21.83-.33,1.25-.44-.42-.88-.84-1.35-1.24a13.82,13.82,0,0,0-1.71-1.34,7.3,7.3,0,0,0-2-.88,3.47,3.47,0,0,0-3.32.88,3.38,3.38,0,0,0-.88,3.32,9.7,9.7,0,0,0,.53,1.29,9,9,0,0,0,.92,1.23,8.23,8.23,0,0,0,1,1c.67.64,1.35,1.27,2.07,1.85l.78.61a2.82,2.82,0,0,0,1.45.46,2,2,0,0,0,1,0,2.75,2.75,0,0,0,.94-.22c.09,0,.18,0,.26,0a3.19,3.19,0,0,0,1.23-.71,1.92,1.92,0,0,0,.22.18,3.28,3.28,0,0,0,2.45.41,6.23,6.23,0,0,0,.5.68l-.09-.16a1.53,1.53,0,0,0,1.24.73c.14,0,.08.1.14.11a3.58,3.58,0,0,0,1.69,0,4.4,4.4,0,0,0,1.84-1.1c.43-.4.83-.83,1.23-1.26.8-.87,1.68-1.64,2.5-2.49a28.49,28.49,0,0,1,2.48-2.31c.45-.37.86-.77,1.29-1.16a5.53,5.53,0,0,0,1.42-1.6,3.62,3.62,0,0,0,.42-.74Z"/><path class="cls-3" d="M1041.15,194a2.5,2.5,0,0,0-.74-.68,3.22,3.22,0,0,0-2.15-.86l-.79-.08c-.11,0-.89-.16-.52-.08.53.13-1-.12-1.2-.13H1035c-.53,0-1,0-1.58,0a27.42,27.42,0,0,0-3.83.46,6,6,0,0,0-2.06.68,2.23,2.23,0,0,0-.24.19l0-.14c.13-.57.27-1.15.4-1.72s.27-1.07.44-1.59c.09-.26.19-.51.28-.77v0l0,0c.33-.72.57-1.45.85-2.18.11-.31.11-.31.07-.23a5.08,5.08,0,0,0,.28-1v0a7.75,7.75,0,0,0,.53-2.31c0-.1,0-.19.09-.29.45-1.1-.82-2-1.78-1.78l-.08,0-.41-.05a3.23,3.23,0,0,0-1,.2,9,9,0,0,0-1.53.65,8.68,8.68,0,0,0-3.67,3.16,17.68,17.68,0,0,0-1.79,3.17,15.53,15.53,0,0,0-1,3.19,26.31,26.31,0,0,0-3.2-3.14,12,12,0,0,0-2-1.42,7.19,7.19,0,0,0-2.37-1,.76.76,0,0,0-.15,0,1.7,1.7,0,0,0-.35-.14,2.92,2.92,0,0,0-.82-.17H1010a12.44,12.44,0,0,0-1.93-.26,1.49,1.49,0,0,0-1.27,2.22,7.26,7.26,0,0,0,.8,1.28c.07.11.07.08,0-.08s-.06-.19.07.15a3.81,3.81,0,0,0,.52.84,2.43,2.43,0,0,0,.34.73c.12.15.24.3.35.46s0,0,.06.07c.24.32.46.65.69,1,.56.77,1.2,1.48,1.81,2.22.44.59.87,1.2,1.28,1.82.23.35.48.68.72,1a14.08,14.08,0,0,0,1.35,1.8,3.81,3.81,0,0,0,3.79,1,9.64,9.64,0,0,0,1.2-.57,4,4,0,0,0,3.55,1.4,4.11,4.11,0,0,0,3.29-2.81,3.36,3.36,0,0,0,1.25.93,5.48,5.48,0,0,0,2.47.31,29.32,29.32,0,0,0,4-.55,13.47,13.47,0,0,0,3.47-1l.3-.14.74-.28a4.76,4.76,0,0,0,1.33-.62,2.48,2.48,0,0,0,.65-.81,2.45,2.45,0,0,0,.52-.82A.66.66,0,0,0,1041.15,194Z"/><path class="cls-3" d="M1037.83,197.85l-.06,0C1037.6,198,1037.49,198,1037.83,197.85Z"/><path class="cls-3" d="M211.58,262.91a1.25,1.25,0,0,0-.87-2.11H210a3,3,0,0,0-1.34-.12,4.68,4.68,0,0,0-2.16.44,14.2,14.2,0,0,0-2.12.9,29,29,0,0,0-3.12,2c-.24.17-.44.36-.66.54,0-.06,0-.13,0-.2.36-1.62.67-3.22.87-4.88.16-1.41.51-3.14-.07-4.52a5.05,5.05,0,0,0-.06-.68,1.55,1.55,0,0,0-.24-.78l-.72-.91c0-.59-.89-.88-1.15-.32a5,5,0,0,1-1,.48,1.61,1.61,0,0,0-.59.54,4.93,4.93,0,0,0-.42.66,8.32,8.32,0,0,0-1.93,3.53,36.16,36.16,0,0,0-1.21,3.69l-.92,3.59c-.1.42-.21.83-.33,1.25-.44-.42-.88-.84-1.35-1.24a13.82,13.82,0,0,0-1.71-1.34,7.3,7.3,0,0,0-2-.88,3.47,3.47,0,0,0-3.32.88,3.38,3.38,0,0,0-.88,3.32,9.7,9.7,0,0,0,.53,1.29,9,9,0,0,0,.92,1.23,8.23,8.23,0,0,0,.95,1c.67.64,1.35,1.27,2.07,1.85l.78.61a2.82,2.82,0,0,0,1.45.46,2,2,0,0,0,1,0,2.75,2.75,0,0,0,.94-.22c.09,0,.18,0,.26,0a3.19,3.19,0,0,0,1.23-.71,1.92,1.92,0,0,0,.22.18,3.28,3.28,0,0,0,2.45.41,6.23,6.23,0,0,0,.5.68l-.09-.16a1.53,1.53,0,0,0,1.24.73c.14,0,.08.1.14.11a3.58,3.58,0,0,0,1.69,0,4.4,4.4,0,0,0,1.84-1.1c.43-.4.83-.83,1.23-1.26.8-.87,1.68-1.64,2.5-2.49a28.49,28.49,0,0,1,2.48-2.31c.45-.37.86-.77,1.29-1.16a5.53,5.53,0,0,0,1.42-1.6,3.62,3.62,0,0,0,.42-.74Z"/><path class="cls-4" d="M452.39,368.83a7.38,7.38,0,0,0-1.16-3.64c-1.31-2.61-3.85-4.34-6.16-6a21.93,21.93,0,0,0-5.54-2.6l-.12,0,3.09-3.9c1.34-1.7,2.85-3.27,3.46-5.43a17.5,17.5,0,0,0,.4-3,5.12,5.12,0,0,0,.05-1.17c-.26-2.05-.67-4-2.29-5.52-1.41-1.3-3.53-2.56-5.53-2.29a13,13,0,0,0-2.92.52,27.14,27.14,0,0,0-2.67,1.09c-2,1-3.14,2.84-4.44,4.57l-2.38,3.16a9.27,9.27,0,0,0-1.85-2.39,21,21,0,0,0-3.42-2.63,11.68,11.68,0,0,0-11.49,0,11.43,11.43,0,0,0-5.64,9.83,14.45,14.45,0,0,0,1.77,7.3,16.19,16.19,0,0,0,.87,1.44c.35.54.72,1.07,1.09,1.6.27.37.56.8.86,1.23-.69.13-1.38.26-2.06.42-1.41.31-2.79.78-4.19,1.12-.74.18-1.48.32-2.21.5a9.39,9.39,0,0,0-3.7,1.83,10.5,10.5,0,0,0-3.56,5.23c-1.15,3.21.27,6.84,2.43,9.2a10.4,10.4,0,0,0,4.46,2.67,10.53,10.53,0,0,0,5.57-.08c.73-.15,1.47-.32,2.2-.5a34.39,34.39,0,0,0,4.36-1.23c.53-.2,1.05-.45,1.57-.67-.11.79-.24,1.58-.32,2.38-.34,3.24-.72,6.38,1.21,9.35a9.27,9.27,0,0,0,6.77,4.43,9.09,9.09,0,0,0,7.8-2.56c2.71-2.7,3.08-5.93,3.46-9.52.14-1.35.3-2.68.34-4l.11-4c0-.17,0-.34,0-.5l.21.14-.21-.16v-.05c.65.5,1.29,1,2,1.48.34.22.66.47,1,.71a12.7,12.7,0,0,0,1.58,1.18,18.08,18.08,0,0,0,3.05,1.25l2.6.35,2.6-.35,2.33-1a7.47,7.47,0,0,0,2.74-2.52,9.66,9.66,0,0,0,1.93-4.62A5,5,0,0,0,452.39,368.83Z"/><path class="cls-5" d="M423,353.2c-12.21,0-12.23,19,0,19S435.23,353.2,423,353.2Z"/><path class="cls-4" d="M977.89,337.7a4.4,4.4,0,0,0-.7-2.21,10.86,10.86,0,0,0-3.76-3.65,13.5,13.5,0,0,0-3.37-1.59l-.08,0c.63-.79,1.26-1.58,1.88-2.38a9.78,9.78,0,0,0,2.12-3.3,11.2,11.2,0,0,0,.24-1.82,3.47,3.47,0,0,0,0-.72,5.07,5.07,0,0,0-1.4-3.36,4.56,4.56,0,0,0-3.36-1.4,9,9,0,0,0-1.79.32,16.25,16.25,0,0,0-1.62.67,8.1,8.1,0,0,0-2.71,2.78l-1.45,1.92a5.92,5.92,0,0,0-1.12-1.45,12.9,12.9,0,0,0-2.09-1.6,7.08,7.08,0,0,0-7,0,7,7,0,0,0-2.49,2.49,6.83,6.83,0,0,0-.94,3.5,8.79,8.79,0,0,0,1.07,4.45,9.61,9.61,0,0,0,.53.87l.66,1c.17.22.35.49.53.75l-1.26.25c-.86.19-1.7.48-2.55.69l-1.35.3a5.79,5.79,0,0,0-2.25,1.11,6.43,6.43,0,0,0-2.17,3.2,5.76,5.76,0,0,0,1.48,5.6,6.21,6.21,0,0,0,2.72,1.62,6.4,6.4,0,0,0,3.39,0l1.35-.31a20.47,20.47,0,0,0,2.65-.75c.32-.12.64-.27,1-.41-.07.49-.15,1-.2,1.45-.21,2-.44,3.89.74,5.7a5.62,5.62,0,0,0,4.13,2.7,5.51,5.51,0,0,0,4.74-1.56c1.66-1.64,1.88-3.61,2.11-5.8.09-.82.19-1.63.21-2.46l.07-2.45c0-.1,0-.21,0-.31l.12.09-.12-.1v0c.4.31.78.63,1.2.9l.61.43a7.51,7.51,0,0,0,1,.72,10.87,10.87,0,0,0,1.86.77l1.58.21,1.59-.21,1.42-.6a4.58,4.58,0,0,0,1.67-1.54,5.92,5.92,0,0,0,1.17-4.4Z"/><path class="cls-5" d="M960,328.18c-7.44,0-7.45,11.57,0,11.57S967.44,328.18,960,328.18Z"/><path class="cls-4" d="M1464.89,399.7a4.4,4.4,0,0,0-.7-2.21,10.86,10.86,0,0,0-3.76-3.65,13.5,13.5,0,0,0-3.37-1.59l-.08,0c.63-.79,1.26-1.58,1.88-2.38a9.78,9.78,0,0,0,2.12-3.3,11.2,11.2,0,0,0,.24-1.82,3.47,3.47,0,0,0,0-.72,5.07,5.07,0,0,0-1.4-3.36,4.56,4.56,0,0,0-3.36-1.4,9,9,0,0,0-1.79.32,16.25,16.25,0,0,0-1.62.67,8.1,8.1,0,0,0-2.71,2.78l-1.45,1.92a5.92,5.92,0,0,0-1.12-1.45,12.9,12.9,0,0,0-2.09-1.6,7.08,7.08,0,0,0-7,0,7,7,0,0,0-2.49,2.49,6.83,6.83,0,0,0-.94,3.5,8.79,8.79,0,0,0,1.07,4.45,9.61,9.61,0,0,0,.53.87l.66,1c.17.22.35.49.53.75l-1.26.25c-.86.19-1.7.48-2.55.69-.45.1-.9.19-1.35.3a5.79,5.79,0,0,0-2.25,1.11,6.43,6.43,0,0,0-2.17,3.2,5.76,5.76,0,0,0,1.48,5.6,6.21,6.21,0,0,0,2.72,1.62,6.4,6.4,0,0,0,3.39,0l1.35-.31a20.47,20.47,0,0,0,2.65-.75c.32-.12.64-.27,1-.41-.07.49-.15,1-.2,1.45-.21,2-.44,3.89.74,5.7a5.62,5.62,0,0,0,4.13,2.7,5.51,5.51,0,0,0,4.74-1.56c1.66-1.64,1.88-3.61,2.11-5.8.09-.82.19-1.63.21-2.46l.07-2.45c0-.1,0-.21,0-.31l.12.09-.12-.1v0c.4.31.78.63,1.2.9l.61.43a7.51,7.51,0,0,0,1,.72,10.87,10.87,0,0,0,1.86.77l1.58.21,1.59-.21,1.42-.6a4.58,4.58,0,0,0,1.67-1.54,5.92,5.92,0,0,0,1.17-4.4Z"/><path class="cls-5" d="M1447,390.18c-7.44,0-7.45,11.57,0,11.57S1454.44,390.18,1447,390.18Z"/></g></g></svg>