<svg id="Livello_1" data-name="Livello 1" xmlns="http://www.w3.org/2000/svg" viewBox="0 0 1125 2436"><defs><style>.cls-1{fill:#283a23;}.cls-2{fill:#f0d68c;}.cls-3{fill:#659157;}.cls-4{fill:#e7bc72;}.cls-5{fill:#bace74;}.cls-6{fill:#3f552a;}.cls-7{fill:#577e3a;}.cls-8{fill:#2e3f1e;}.cls-9{fill:#fff;}.cls-10{fill:#ebbd3c;}</style></defs><title>Grafiche web</title><path class="cls-1" d="M1122,1612.82c-.84-.24-1.69-.49-2.53-.71-127.41-32.93-249.73,139.78-357.36,237.62-116.87,106.24-290.33,150-414.28,73-74.45-46.22-149.28-98.63-225-138.09-32.71-17-63.25-25.45-96.89-12.66A217,217,0,0,0-3,1785.16V2247H1122Z"/><path class="cls-2" d="M704.65,2018.52c16.62,14.61,32.52,32.6,47.78,51.33,17.68,21.72,52.36,7.11,72.61,2.5,5.52-1.26,27-3.28,28.25-18.46,1.69-20.19-26.49-28.25-33.5-31.9-13.89-7.23-27.76-15.51-41.86-20.64-18.38-6.68-37.33-12.68-54.71-25.79-13.59-10.25-27.51-16.66-35.75-39.23-2.73-7.48-6.21-16.55-6.11-25.8q-9,5.15-18.2,9.86c-5.63,17.6-7,37-.09,56.45C671.21,1999.85,691.78,2007.2,704.65,2018.52Z"/><path class="cls-3" d="M1122,1900.05a135.07,135.07,0,0,1-9.92,10.23c-72.18,65.21-148.41,91.45-229.2,103.31-186,27.32-343.18-135.72-516.42-222.71-63-31.64-139.66-43.18-203.7-19.45-66.11,24.49-114.57,92.25-165.76,158L-4,2431H1121Z"/><path class="cls-4" d="M677.39,1934.59c-.85-6.1-6-9.26-8.4-4-2.63,5.76-5.2,17-2.68,23.93,1.56,4.26,4.76,6.24,7.34,3.43s3.16-6.45,3.69-11.21A49.23,49.23,0,0,0,677.39,1934.59Z"/><path class="cls-4" d="M686.65,1956.43c-.56-2.24-2.18-3.56-3.48-3.56s-2.92,1.32-3.48,3.56a16.38,16.38,0,0,0-.65,4.28,24.91,24.91,0,0,0,.19,3c.34,3,2.25,5.48,3.94,5.35s3.57-2.14,3.94-5.35a24.91,24.91,0,0,0,.19-3A16.38,16.38,0,0,0,686.65,1956.43Z"/><path class="cls-5" d="M72.32,1860.63c23.13-23.7,46.1-45.24,71.71-55.16,40.56-15.72,85.75-33.25,127.91-25.79,27.9,4.94,53.45,3,80.76,17,14.57,7.47,30.44,12.87,44.7,23,13.36,9.51,25.06,24.16,38.9,31.31,31.14,16.07,62.75,29.48,92.9,52,38.52,28.83,81,52.08,122,67.8a435.68,435.68,0,0,0,43.18,14.33c-110.69-48.32-216-137.21-328-194-63-32-139.66-43.62-203.7-19.65C96.65,1796.3,48.19,1864.75-3,1931.14v14.69C20.66,1913.46,46.89,1886.68,72.32,1860.63Z"/><path class="cls-6" d="M81.82,2350.36C85.49,2360.42,225.54,2235,171.25,2089,171.25,2089,11.77,2158.55,81.82,2350.36Z"/><path class="cls-6" d="M103.82,2360.69c-.67,8.14,136.38-34,145.38-152.48C249.2,2208.21,116.53,2205.47,103.82,2360.69Z"/><path class="cls-7" d="M-6,2092.11c37.71,4.2,65.72,26.59,30.16,67.11,52.49,14.77,48.37,51.92,21.14,89.87a29.92,29.92,0,0,1,2.48,2.43c29-21.72,38.71,21.25,38.72,42.19,29.36-13.91,43,12.22,53.57,35.19,22.27-25.61,48.11-33,74.25-8.32,23.55-26.11,56.26-54.48,94.86-50.69,48.09,4.73,73.6,52.36,71,92.58,18.8-3,36.15-20.51,56.53-13.06,21,7.68,29.43,32.63,21.4,52,28.61-19.73,47.75,1.85,46.8,27.56H-6Z"/><path class="cls-6" d="M-6,2429v-94.42c28.87-21.44,38.54,21.39,38.56,42.29,29.35-13.9,43,12.23,53.57,35.19,22.26-25.61,48.1-33,74.25-8.31,23.54-26.12,56.25-54.49,94.86-50.69,41.57,4.08,66.25,40.23,70.51,75.94Z"/><path class="cls-6" d="M-6,2328.45v-75.54C19.26,2270.37,14,2299-6,2328.45Z"/><path class="cls-8" d="M81.87,2196.69a1.4,1.4,0,0,1,2.31-.6c2.95,2.78,4,7.4,5.43,11.1,1.54,4,2.87,8.12,4.34,12.17,2.28,6.23,4.76,12.39,7.3,18.52q4.13-13.11,8.73-26.06,6.81-19.18,14.53-38a13.93,13.93,0,0,1-2.11-4.51c-.59-1.65-1.17-3.3-1.72-5-1-3.1-1.93-6.23-2.77-9.39s-1.6-6.33-2.28-9.52c-.65-3-1.78-7.08.62-9.51a1.59,1.59,0,0,1,1.85-.24c2.85,1.29,3.4,5.2,4.05,8,.75,3.18,1.58,6.34,2.47,9.47s1.88,6.26,2.87,9.36c.26.82.54,1.62.8,2.43,4-9.38,8.07-18.71,12.37-27.95,3.23-6.94,6.72-13.77,10.16-20.62,1.72-3.42,3.46-6.83,5.26-10.21,1.34-2.51,2.49-5.65,5.44-6.4a.89.89,0,0,1,1.07.61c1.2,2.86-.76,5.81-1.93,8.46-1.66,3.76-3.32,7.51-5,11.28-3.38,7.7-6.54,15.49-9.78,23.25l-.11.27c5.07-2.32,10.17-4.57,15.25-6.85,3.45-1.55,6.89-3.13,10.4-4.52.87-.34,6.56-2.69,6.74-.41.21,2.54-3.74,4.24-5.52,5.3-2.94,1.73-6,3.26-9,4.86-6,3.2-12,6.49-18.13,9.56A21.24,21.24,0,0,1,142,2153q-6.93,17.22-13.37,34.61-3.72,10-7.24,20.08,10.65-3.77,21.3-7.48c4.53-1.58,9.06-3.14,13.64-4.59s8.9-2.64,13.78-2.32a.31.31,0,0,1,.22.52c-3.39,3.23-7.17,5-11.51,6.84-4.61,1.92-9.27,3.71-13.94,5.48-8.79,3.32-17.57,6.66-26.37,9.92-1.89,5.49-3.78,11-5.59,16.48-2.55,7.78-5,15.61-7.41,23.41,5.94-2.23,12-4.09,18.09-6,4.62-1.44,9.24-3,13.76-4.69,4.24-1.63,8.55-4.16,13.14-4.37a.59.59,0,0,1,.51.88c-1.89,4-6.33,6.45-10.16,8.39a137.25,137.25,0,0,1-13.74,5.86c-8,3-16.08,5.87-23.74,9.68a29.05,29.05,0,0,0,0,6.32,1.51,1.51,0,0,1-1.12,1.47c-4.38,1.42-7-2.62-7.82-6.38a11.89,11.89,0,0,1-.15-1.18,3.9,3.9,0,0,1,.19-4.9,89.25,89.25,0,0,1,2.68-9.75c.25-.88.53-1.75.79-2.63a2.72,2.72,0,0,1-.86-1q-5.41-12.53-9.74-25.44c-1.42-4.22-2.89-8.45-3.95-12.77C82.46,2205.45,80.77,2200.74,81.87,2196.69Z"/><path class="cls-8" d="M140.63,2303.35c.9-4.82,5.56-8.84,8.7-12.36,2.07-2.31,4.21-4.56,6.32-6.83a10.49,10.49,0,0,1-.55-2q-.48-2.67-.71-5.35a27.2,27.2,0,0,1-.09-4.51,10.88,10.88,0,0,1,1.21-5.12,1.88,1.88,0,0,1,3.21,0,13.13,13.13,0,0,1,1.42,4.67c.18.9.31,1.79.42,2.7,0,.37.09.74.13,1.11,0,.09.1.64.09.63.11.68.22,1.36.32,2.05,7.51-7.82,15.39-15.28,23.47-22.5.81-.73,1.66-1.42,2.48-2.14.26-4.63.64-9.27,1-13.9q.28-3.53.55-7.06c.18-2.27.17-4.86,1-7,.69-1.79,3.39-2.1,4,0s.38,4.72.32,7l-.18,7.06c-.07,2.79-.14,5.58-.23,8.37,1.16-1,2.29-2,3.46-3a2.38,2.38,0,0,1,1.43-2.38,15,15,0,0,1,2.73-1c3-2.44,6-4.89,9-7.26,4-3.09,8-6.13,12.13-9.07,4.39-3.13,8.75-6.55,13.81-8.49,1.58-.61,2.44,1.54,1.52,2.6-3.59,4.1-8.41,7.15-12.7,10.48-4,3.15-8,6.32-12,9.57,2.07-.4,4.14-.8,6.22-1.17,3.47-.62,6.94-1.37,10.44-1.82a43.09,43.09,0,0,1,4.81-.38c2,0,3.66.57,5.63.82a.37.37,0,0,1,.18.67,37.12,37.12,0,0,1-4.44,2.68,45.14,45.14,0,0,1-4.64,1.56c-3.4,1-6.93,1.54-10.38,2.28s-6.94,1.42-10.42,2.11l-4.81.95c-.74.15-1.5.33-2.26.5-5.11,4.42-10.17,8.91-15.09,13.55-3.47,3.27-6.86,6.62-10.22,10,1,.11,1.9.22,2.78.27,3.47.22,6.94.5,10.4.81s6.67.67,10,1.11c2.93.39,6.81.38,9.26,2.19a.83.83,0,0,1,0,1.41c-2.56,1.33-6.08.88-8.87.85q-5.21,0-10.39-.17l-10-.25-5-.12a17.26,17.26,0,0,1-3.84-.27c-2.17,2.23-4.35,4.45-6.48,6.72-2.85,3-5.62,6.1-8.38,9.19.53,0,1.08,0,1.58,0,3.44,0,6.88.16,10.32.36s6.63.43,9.9.91,6.42.76,9.13,2.53a.61.61,0,0,1,0,1.05c-2.71,1.38-5.74,1.44-8.71,1.7-3.43.3-6.88.4-10.32.52s-6.63.28-9.94.36c-2.65.06-5.78.54-8.54.18-2.05,2.37-4.29,4.54-7.12,5.6C141.74,2307.08,140.33,2305,140.63,2303.35Z"/><path class="cls-9" d="M274.93,2368.69a6.87,6.87,0,0,1,1.11-3.46c1.24-2.49,3.67-4.14,5.86-5.71a21,21,0,0,1,5.29-2.48l.11,0-2.94-3.71c-1.29-1.63-2.72-3.12-3.3-5.18a16.88,16.88,0,0,1-.39-2.84,5.25,5.25,0,0,1,0-1.12c.25-2,.64-3.85,2.18-5.26,1.34-1.24,3.37-2.44,5.27-2.18a12.45,12.45,0,0,1,2.79.49,23.4,23.4,0,0,1,2.54,1.05c1.93,1,3,2.7,4.23,4.35l2.27,3a9,9,0,0,1,1.76-2.27,19.45,19.45,0,0,1,3.26-2.51,11.08,11.08,0,0,1,10.95,0,10.82,10.82,0,0,1,5.38,9.37,13.88,13.88,0,0,1-1.68,7c-.26.48-.54.93-.84,1.38s-.68,1-1,1.52-.54.76-.82,1.18c.65.12,1.31.24,2,.39,1.34.3,2.66.75,4,1.07.7.17,1.4.31,2.1.48a9,9,0,0,1,3.52,1.74,10,10,0,0,1,3.4,5c1.1,3.06-.25,6.51-2.32,8.77a9.79,9.79,0,0,1-4.25,2.54,10.14,10.14,0,0,1-5.3-.07c-.71-.15-1.41-.31-2.11-.48a35,35,0,0,1-4.15-1.17c-.5-.2-1-.43-1.49-.64.1.75.22,1.5.3,2.27.33,3.08.69,6.08-1.15,8.91a8.85,8.85,0,0,1-6.46,4.22,8.69,8.69,0,0,1-7.43-2.43c-2.58-2.58-2.94-5.66-3.3-9.09-.13-1.28-.28-2.55-.32-3.84l-.11-3.84c0-.16,0-.32,0-.48l-.19.14.19-.15v0c-.62.48-1.23,1-1.88,1.41-.33.21-.63.45-.95.67a11.63,11.63,0,0,1-1.51,1.13,16.39,16.39,0,0,1-2.9,1.2l-2.48.33-2.48-.33-2.22-.94a7.12,7.12,0,0,1-2.62-2.4,4.7,4.7,0,0,1-1.19-2.06,4.51,4.51,0,0,1-.64-2.35A4.74,4.74,0,0,1,274.93,2368.69Z"/><path class="cls-10" d="M302.94,2353.8c11.64,0,11.66,18.09,0,18.09S291.29,2353.8,302.94,2353.8Z"/><path class="cls-9" d="M224.26,2362a5.24,5.24,0,0,1,.16-2.69c.44-2,1.88-3.64,3.17-5.17a15.21,15.21,0,0,1,3.33-2.75l.08,0-2.79-2.13a11.46,11.46,0,0,1-3.32-3.11,11.62,11.62,0,0,1-.8-2,3.93,3.93,0,0,1-.23-.79,5.91,5.91,0,0,1,.6-4.18,5.24,5.24,0,0,1,3.38-2.53,9.77,9.77,0,0,1,2.09-.16,17.24,17.24,0,0,1,2,.29,9.5,9.5,0,0,1,3.83,2.34l2.17,1.75a7,7,0,0,1,.85-2,15,15,0,0,1,1.88-2.39,8.21,8.21,0,0,1,7.86-2,8.06,8.06,0,0,1,3.51,2.08,8,8,0,0,1,2.06,3.66,10.14,10.14,0,0,1,.07,5.3c-.09.38-.21.76-.34,1.14s-.3.85-.47,1.28-.24.64-.37,1l1.48-.08c1,0,2,0,3.06,0,.54,0,1.07,0,1.6,0a6.6,6.6,0,0,1,2.85.6,7.5,7.5,0,0,1,3.35,3c1.35,2,1,4.72-.06,6.72a7.22,7.22,0,0,1-2.58,2.6,7.58,7.58,0,0,1-3.82.92c-.53,0-1.06,0-1.6,0a24.28,24.28,0,0,1-3.19-.08c-.4,0-.79-.12-1.19-.19.21.53.44,1.05.63,1.58.8,2.15,1.61,4.23.81,6.6a6.5,6.5,0,0,1-3.86,4.21,6.38,6.38,0,0,1-5.78-.38c-2.32-1.37-3.14-3.52-4-5.91-.33-.89-.67-1.78-.93-2.7l-.79-2.73c0-.12,0-.23-.07-.35l-.11.13a1.34,1.34,0,0,1,.11-.14v0c-.36.45-.7.92-1.09,1.35-.2.21-.37.44-.56.66a9.75,9.75,0,0,1-.87,1.08,12.77,12.77,0,0,1-1.87,1.39l-1.72.7-1.83.21-1.77-.26a5.3,5.3,0,0,1-2.32-1.25,3.43,3.43,0,0,1-1.23-1.25,3.39,3.39,0,0,1-.89-1.57A3.58,3.58,0,0,1,224.26,2362Z"/><path class="cls-10" d="M241.63,2346.15c8.36-2.13,11.68,10.84,3.32,13S233.27,2348.29,241.63,2346.15Z"/><path class="cls-9" d="M12.42,2211.42a4,4,0,0,1,.13-2.15,10.12,10.12,0,0,1,2.53-4.14,12.53,12.53,0,0,1,2.66-2.19l.06,0-2.23-1.7a9.22,9.22,0,0,1-2.65-2.48,9,9,0,0,1-.64-1.58,3.51,3.51,0,0,1-.19-.63,4.79,4.79,0,0,1,.48-3.34,4.23,4.23,0,0,1,2.7-2A7.93,7.93,0,0,1,17,2191c.53.06,1.08.12,1.61.23a7.64,7.64,0,0,1,3.06,1.87l1.74,1.4A5.6,5.6,0,0,1,24,2193a11.64,11.64,0,0,1,1.51-1.92,6.56,6.56,0,0,1,6.28-1.6,6.41,6.41,0,0,1,4.45,4.58,8.24,8.24,0,0,1,.06,4.24c-.08.31-.18.61-.28.91s-.24.69-.37,1-.2.52-.3.8c.39,0,.79,0,1.18-.06.82,0,1.64,0,2.45,0l1.28,0a5.33,5.33,0,0,1,2.27.49,5.89,5.89,0,0,1,2.68,2.36,5.34,5.34,0,0,1,0,5.37,5.81,5.81,0,0,1-2.07,2.08,6,6,0,0,1-3,.73l-1.28,0a19.75,19.75,0,0,1-2.55-.07c-.32,0-.63-.09-.95-.14.17.41.35.83.51,1.25.63,1.73,1.28,3.39.64,5.28a5.24,5.24,0,0,1-3.09,3.37,5.11,5.11,0,0,1-4.61-.31c-1.86-1.1-2.52-2.81-3.22-4.72-.27-.72-.54-1.43-.75-2.16l-.63-2.18a2.3,2.3,0,0,0-.06-.28l-.09.1.09-.11v0c-.28.37-.56.74-.87,1.09-.16.17-.3.35-.44.52a9.16,9.16,0,0,1-.7.87,10.88,10.88,0,0,1-1.49,1.11l-1.38.55-1.47.18-1.41-.22a4.16,4.16,0,0,1-1.85-1,2.71,2.71,0,0,1-1-1,2.83,2.83,0,0,1-.71-1.26A2.71,2.71,0,0,1,12.42,2211.42Z"/><path class="cls-10" d="M26.3,2198.77c6.68-1.7,9.34,8.67,2.65,10.38S19.62,2200.48,26.3,2198.77Z"/><path class="cls-7" d="M1121,2092.11c-37.71,4.2-65.72,26.59-30.16,67.11-52.49,14.77-48.37,51.92-21.14,89.87a29.92,29.92,0,0,0-2.48,2.43c-29-21.72-38.71,21.25-38.72,42.19-29.36-13.91-43,12.22-53.57,35.19-22.27-25.61-48.11-33-74.25-8.32-23.55-26.11-56.26-54.48-94.86-50.69-48.09,4.73-73.6,52.36-71,92.58-18.8-3-36.15-20.51-56.53-13.06-21,7.68-29.43,32.63-21.4,52-28.61-19.73-47.75,1.85-46.8,27.56H1121Z"/><path class="cls-6" d="M1121,2429v-94.42c-28.87-21.44-38.54,21.39-38.56,42.29-29.35-13.9-43,12.23-53.57,35.19-22.26-25.61-48.1-33-74.25-8.31-23.54-26.12-56.25-54.49-94.86-50.69-41.57,4.08-66.25,40.23-70.51,75.94Z"/><path class="cls-6" d="M1121,2328.45v-75.54C1095.74,2270.37,1101,2299,1121,2328.45Z"/><path class="cls-9" d="M685.07,2403.69a6.87,6.87,0,0,0-1.11-3.46c-1.24-2.49-3.67-4.14-5.86-5.71a21,21,0,0,0-5.29-2.48l-.11,0,2.94-3.71c1.29-1.63,2.72-3.12,3.3-5.18a16.88,16.88,0,0,0,.39-2.84,5.25,5.25,0,0,0,0-1.12c-.25-2-.64-3.85-2.18-5.26-1.34-1.24-3.37-2.44-5.27-2.18a12.45,12.45,0,0,0-2.79.49,23.4,23.4,0,0,0-2.54,1.05c-1.93,1-3,2.7-4.23,4.35l-2.27,3a9,9,0,0,0-1.76-2.27,19.45,19.45,0,0,0-3.26-2.51,11.08,11.08,0,0,0-11,0,10.82,10.82,0,0,0-5.38,9.37,13.88,13.88,0,0,0,1.68,7c.26.48.54.93.84,1.38s.68,1,1,1.52.54.76.82,1.18c-.65.12-1.31.24-2,.39-1.34.3-2.66.75-4,1.07-.7.17-1.4.31-2.1.48a9,9,0,0,0-3.52,1.74,10,10,0,0,0-3.4,5c-1.1,3.06.25,6.51,2.32,8.77a9.79,9.79,0,0,0,4.25,2.54,10.14,10.14,0,0,0,5.3-.07c.71-.15,1.41-.31,2.11-.48a35,35,0,0,0,4.15-1.17c.5-.2,1-.43,1.49-.64-.1.75-.22,1.5-.3,2.27-.33,3.08-.69,6.08,1.15,8.91a8.85,8.85,0,0,0,6.46,4.22,8.69,8.69,0,0,0,7.43-2.43c2.58-2.58,2.94-5.66,3.3-9.09.13-1.28.28-2.55.32-3.84l.11-3.84c0-.16,0-.32,0-.48l.19.14-.19-.15v0c.62.48,1.23,1,1.88,1.41.33.21.63.45.95.67a11.63,11.63,0,0,0,1.51,1.13,16.39,16.39,0,0,0,2.9,1.2l2.48.33,2.48-.33,2.22-.94a7.12,7.12,0,0,0,2.62-2.4,4.7,4.7,0,0,0,1.19-2.06,4.51,4.51,0,0,0,.64-2.35A4.74,4.74,0,0,0,685.07,2403.69Z"/><path class="cls-10" d="M657.06,2388.8c-11.64,0-11.66,18.09,0,18.09S668.71,2388.8,657.06,2388.8Z"/><path class="cls-9" d="M1003.74,2402a5.24,5.24,0,0,0-.16-2.69c-.44-2-1.88-3.64-3.17-5.17a15.21,15.21,0,0,0-3.33-2.75l-.08,0,2.79-2.13a11.46,11.46,0,0,0,3.32-3.11,11.62,11.62,0,0,0,.8-2,3.93,3.93,0,0,0,.23-.79,5.91,5.91,0,0,0-.6-4.18,5.24,5.24,0,0,0-3.38-2.53,9.77,9.77,0,0,0-2.09-.16,17.24,17.24,0,0,0-2,.29,9.5,9.5,0,0,0-3.83,2.34l-2.17,1.75a7,7,0,0,0-.85-2,15,15,0,0,0-1.88-2.39,8.21,8.21,0,0,0-7.86-2,8.06,8.06,0,0,0-3.51,2.08,8,8,0,0,0-2.06,3.66,10.14,10.14,0,0,0-.07,5.3c.09.38.21.76.34,1.14s.3.85.47,1.28.24.64.37,1l-1.48-.08c-1,0-2,0-3.06,0-.54,0-1.07,0-1.6,0a6.6,6.6,0,0,0-2.85.6,7.5,7.5,0,0,0-3.35,3c-1.35,2-1,4.72.06,6.72a7.22,7.22,0,0,0,2.58,2.6,7.58,7.58,0,0,0,3.82.92c.53,0,1.06,0,1.6,0a24.28,24.28,0,0,0,3.19-.08c.4,0,.79-.12,1.19-.19-.21.53-.44,1.05-.63,1.58-.8,2.15-1.61,4.23-.81,6.6a6.5,6.5,0,0,0,3.86,4.21,6.38,6.38,0,0,0,5.78-.38c2.32-1.37,3.14-3.52,4-5.91.33-.89.67-1.78.93-2.7l.79-2.73c0-.12,0-.23.07-.35l.11.13a1.34,1.34,0,0,0-.11-.14v0c.36.45.7.92,1.09,1.35.2.21.37.44.56.66a9.75,9.75,0,0,0,.87,1.08,12.77,12.77,0,0,0,1.87,1.39l1.72.7,1.83.21,1.77-.26a5.3,5.3,0,0,0,2.32-1.25,3.43,3.43,0,0,0,1.23-1.25,3.39,3.39,0,0,0,.89-1.57A3.58,3.58,0,0,0,1003.74,2402Z"/><path class="cls-10" d="M986.37,2386.15c-8.36-2.13-11.68,10.84-3.32,13S994.73,2388.29,986.37,2386.15Z"/><path class="cls-9" d="M1064.57,2282.6a6.55,6.55,0,0,0-.2-3.37c-.55-2.53-2.35-4.56-4-6.48a19,19,0,0,0-4.18-3.44l-.09-.06,3.5-2.66c1.52-1.17,3.15-2.18,4.15-3.9a14.35,14.35,0,0,0,1-2.47,4.91,4.91,0,0,0,.3-1c.22-1.82.3-3.61-.76-5.23-.92-1.42-2.46-3-4.23-3.17a12.18,12.18,0,0,0-2.62-.2,24.07,24.07,0,0,0-2.53.36c-2,.42-3.31,1.74-4.8,2.94l-2.72,2.18a8.35,8.35,0,0,0-1.07-2.44,18.32,18.32,0,0,0-2.35-3,10.3,10.3,0,0,0-9.85-2.51,10.09,10.09,0,0,0-7,7.19,12.74,12.74,0,0,0-.08,6.63c.12.49.27,1,.43,1.43s.38,1.08.58,1.6l.47,1.25c-.62,0-1.24-.08-1.86-.1-1.27,0-2.56.07-3.83,0-.67,0-1.34,0-2,0a8.35,8.35,0,0,0-3.57.75,9.24,9.24,0,0,0-4.19,3.71c-1.69,2.5-1.27,5.91.07,8.41a9,9,0,0,0,3.23,3.26,9.39,9.39,0,0,0,4.78,1.15q1,0,2,.06a31.43,31.43,0,0,0,4-.1c.5-.06,1-.16,1.49-.24-.27.66-.55,1.31-.8,2-1,2.69-2,5.3-1,8.27a8.19,8.19,0,0,0,4.84,5.27,8,8,0,0,0,7.23-.48c2.92-1.72,3.94-4.41,5-7.4.42-1.12.84-2.23,1.17-3.38l1-3.43c0-.14.06-.29.1-.43,0,.06.1.11.14.16l-.14-.17s0,0,0-.05c.45.57.88,1.16,1.37,1.7.24.27.46.55.7.82a10.29,10.29,0,0,0,1.09,1.36,15.44,15.44,0,0,0,2.34,1.74l2.15.87,2.3.27,2.22-.33a6.61,6.61,0,0,0,2.9-1.56,4.32,4.32,0,0,0,1.55-1.57,4.4,4.4,0,0,0,1.11-2A4.32,4.32,0,0,0,1064.57,2282.6Z"/><path class="cls-10" d="M1042.81,2262.78c-10.46-2.67-14.63,13.58-4.16,16.26S1053.28,2265.46,1042.81,2262.78Z"/></svg>