<svg id="Livello_1" data-name="Livello 1" xmlns="http://www.w3.org/2000/svg" viewBox="0 0 1125 2436"><defs><style>.cls-1{fill:#283a23;}.cls-2{fill:#f0d68c;}.cls-3{fill:#659157;}.cls-4{fill:#e7bc72;}.cls-5{fill:#bace74;}</style></defs><title>Colline</title><path class="cls-1" d="M1125,609.82c-.84-.24-1.69-.49-2.53-.71C995.06,576.18,872.74,748.89,765.11,846.73c-116.87,106.24-290.33,150-414.28,73-74.45-46.22-149.28-98.63-225-138.09-32.71-17-63.25-25.45-96.89-12.66A217,217,0,0,0,0,782.16V1244H1125Z"/><path class="cls-2" d="M707.65,1015.52c16.62,14.61,32.52,32.6,47.78,51.33,17.68,21.72,52.36,7.11,72.61,2.5,5.52-1.26,27-3.28,28.25-18.46,1.69-20.19-26.49-28.25-33.5-31.9-13.89-7.23-27.76-15.51-41.86-20.64-18.38-6.68-37.33-12.68-54.71-25.79-13.59-10.25-27.51-16.66-35.75-39.23-2.73-7.48-6.21-16.55-6.11-25.8q-9,5.15-18.2,9.86c-5.63,17.6-7,37-.09,56.45C674.21,996.85,694.78,1004.2,707.65,1015.52Z"/><path class="cls-3" d="M1125,897.05a135.07,135.07,0,0,1-9.92,10.23c-72.18,65.21-148.41,91.45-229.2,103.31-186,27.32-343.18-135.72-516.42-222.71-63-31.64-139.66-43.18-203.7-19.45C99.65,792.92,51.19,860.68,0,926.39V1244H1125Z"/><path class="cls-2" d="M866.15,1244c16.38-34.25,24.4-76.53,28.18-120.31,3.91-45.19-1.63-77.91-10.64-110.2A289.3,289.3,0,0,1,845,1016.2c-16.05,33.62-42.85,62.94-61.61,81-35.33,34.1-74,64.06-113.22,81.21-49.78,21.78-101.92,27.21-152.79,38.34-34.87,7.63-69.77,17.68-104.7,27.21Z"/><path class="cls-4" d="M528.43,1244c16-5.78,32-11.21,47.73-17.08,13.61-5.09,24.74-5.87,38.26-7,32-2.59,65-24.52,93.94-46.66,27.76-21.22,55.78-38.09,80.25-69.58,10.42-13.43,21.06-28.65,30.61-43.89,1.32-2.09,2.56-4.31,3.77-6.62a357.3,357.3,0,0,1-39.62,44.68c-35.33,33.95-74,63.78-113.22,80.85-49.78,21.68-101.92,27.08-152.79,38.17-34.87,7.59-69.77,17.6-104.7,27.09Z"/><path class="cls-4" d="M883.16,1013.56c9.91,38.92,6.58,78.06,2.21,119.84-2,19.24-7.49,39-11.92,57.6-4.84,20.34-11.26,36.6-17.93,53h10.63c16.38-34.25,24.4-76.53,28.18-120.31,3.91-45.19-1.63-77.91-10.64-110.2Z"/><path class="cls-4" d="M849.39,1085.12c-12.41,7.78-26.09,23.16-29.08,28.91-8.36,16.16,1.81,21,12.37,17,9.71-3.71,41.74-21.55,37.87-41.56C867.93,1075.91,856.07,1080.94,849.39,1085.12Z"/><path class="cls-4" d="M861,1029.52a8.69,8.69,0,0,1-.81-.4c-2.56-2.43-6.79.3-8.18,4.44a9.36,9.36,0,0,0,.5,6.8c1.77,3.27,4.34,2.88,6.49,1.24a7.22,7.22,0,0,0,2.75-4.37c.12-.52.56-3.65.28-1.87.1-.6.18-1.18.26-1.79C862.52,1031.91,862.05,1029.91,861,1029.52Z"/><path class="cls-4" d="M680.39,931.59c-.85-6.1-6-9.26-8.4-4-2.63,5.76-5.2,17-2.68,23.93,1.56,4.26,4.76,6.24,7.34,3.43s3.16-6.45,3.69-11.21A49.23,49.23,0,0,0,680.39,931.59Z"/><path class="cls-4" d="M689.65,953.43c-.56-2.24-2.18-3.56-3.48-3.56s-2.92,1.32-3.48,3.56a16.38,16.38,0,0,0-.65,4.28,24.91,24.91,0,0,0,.19,3c.34,3,2.25,5.48,3.94,5.35s3.57-2.14,3.94-5.35a24.91,24.91,0,0,0,.19-3A16.38,16.38,0,0,0,689.65,953.43Z"/><path class="cls-5" d="M75.32,857.63c23.13-23.7,46.1-45.24,71.71-55.16,40.56-15.72,85.75-33.25,127.91-25.79,27.9,4.94,53.45,3,80.76,17,14.57,7.47,30.44,12.87,44.7,23,13.36,9.51,25.06,24.16,38.9,31.31,31.14,16.07,62.75,29.48,92.9,52,38.52,28.83,81,52.08,122,67.8a435.68,435.68,0,0,0,43.18,14.33c-110.69-48.32-216-137.21-328-194-63-32-139.66-43.62-203.7-19.65C99.65,793.3,51.19,861.75,0,928.14v14.69C23.66,910.46,49.89,883.68,75.32,857.63Z"/><path class="cls-2" d="M-42,1249c-32.82,35-48.9,78.19-56.47,122.92-7.82,46.17,3.27,79.6,21.32,112.59q39.2-2.76,77.56-2.77c32.16-34.35,85.85-64.31,123.43-82.8,70.8-34.84,148.28-65.45,226.85-83,99.73-22.25,204.19-27.79,306.11-39.17,69.87-7.79,139.79-18.06,209.78-27.8Z"/><path class="cls-4" d="M626.64,1249c-32,5.93-64.16,11.5-95.63,17.53-27.27,5.23-49.56,6-76.65,7.14-64,2.66-130.17,25.16-188.21,47.88-55.62,21.78-111.77,39.09-160.78,71.41-20.89,13.77-42.19,29.4-61.34,45-2.63,2.15-5.13,4.43-7.54,6.8,26.68-18.56,56.11-34.4,79.37-45.85,70.8-34.84,148.27-65.45,226.85-83,99.73-22.25,204.18-27.79,306.11-39.17,69.86-7.79,139.79-18.06,209.77-27.8Z"/><path class="cls-4" d="M-16.42,1412.88c24.88-7.78,52.29-23.16,58.26-28.91,16.77-16.16-3.61-21-24.77-17-19.45,3.71-83.63,21.55-75.87,41.56C-53.55,1422.08-29.8,1417.06-16.42,1412.88Z"/><path class="cls-4" d="M7.28,1337.64c7.71,5.51,14.19,5.14,23.51,4.16,8.23-.86,15.56-2,21.57-7.52,3.92-3.59,3.74-9.11,0-12.73-6-5.8-14.47-7.2-23-7-10.1.23-17.92,1.39-24.1,9.09C2.24,1327.41,3.13,1334.68,7.28,1337.64Z"/><path class="cls-4" d="M237,1291.29c8.12,7.19,19.11,5.5,29.33,3.93,9.94-1.53,22.45-2,29.33-9.3,3.51-3.71,4.42-9.49,0-13.12-9.17-7.54-22.29-6.22-33.86-4.72s-23.09,4.09-27.29,14.83C233.36,1285.75,234.64,1289.23,237,1291.29Z"/><path class="cls-4" d="M200.64,1311.69c3.61,3.37,10.41,4.27,15.41,4s10.29-3.12,11.48-7.79c1.09-4.27-.6-10-5.47-12-4.57-1.87-8.8-3-13.76-1.43s-8.42,3.55-10.31,8.22C196.76,1305.84,198.24,1309.45,200.64,1311.69Z"/><path class="cls-4" d="M142.65,1280c8.84,6.17,23,6.44,33,2.25,6.17-2.57,7.29-11.52,2.23-15.41-7.76-5.95-23.94-9.39-32.86-3.54C139.63,1266.86,136,1275.36,142.65,1280Z"/><path class="cls-4" d="M52.44,1417.48c.55.1,1.08.26,1.61.4,5.14,2.43,13.61-.3,16.38-4.44a5.26,5.26,0,0,0-1-6.8c-3.55-3.27-8.7-2.88-13-1.24-2.37.9-4.45,2.17-5.49,4.37-.25.52-1.13,3.65-.58,1.87-.18.59-.36,1.18-.5,1.79A3.31,3.31,0,0,0,52.44,1417.48Z"/></svg>