<svg xmlns="http://www.w3.org/2000/svg" viewBox="0 0 1622.09 1059.26"><defs><style>.cls-1{fill:#17371c;}.cls-2{fill:#f9d688;}.cls-3{fill:#499153;}.cls-4{fill:#f5bc6e;}.cls-5{fill:#b2ce6f;}.cls-6{fill:#3d7f31;}.cls-7{fill:#fff;}.cls-8{fill:#fabd28;}.cls-9{fill:#ffbac2;}.cls-10{fill:#78b076;}.cls-11{fill:#2a436c;}.cls-12{fill:#0e2446;}.cls-13{fill:#64a663;}.cls-14{fill:#0b6052;}.cls-15{fill:#fd9aa6;}.cls-16{fill:#ff80aa;}.cls-17{fill:#f8778b;}.cls-18{fill:#fb709f;}.cls-19{fill:#f95d92;}.cls-20{fill:#f73582;}.cls-21{fill:#f9b800;}</style></defs><g id="Livello_2" data-name="Livello 2"><g id="gabbiano"><path class="cls-1" d="M1622.09,4.94V653.26H22.09V181.92a378.25,378.25,0,0,1,41.15-13.54c47.84-13.13,91.27-4.49,137.79,13q4.69,1.77,9.39,3.57C314.93,225,418.24,277.11,521,323.2c109.77,49.21,246.84,50.37,374.78,17.89,77.54-19.67,151.71-51.69,214.43-92.86,153.07-100.48,327-277.83,508.24-244C1619.69,4.44,1620.89,4.7,1622.09,4.94Z"/><path class="cls-2" d="M1028.87,420.67c23.62,15.21,46.23,33.94,67.91,53.45,25.13,22.6,74.43,7.4,103.22,2.59,7.83-1.31,38.33-3.41,40.14-19.21,2.4-21-37.64-29.41-47.61-33.21-19.75-7.52-39.46-16.15-59.5-21.48-26.13-7-53.06-13.2-77.76-26.85-19.32-10.67-39.11-17.34-50.82-40.84-3.87-7.79-8.82-17.23-8.68-26.86Q983,313.63,969.9,318.52c-8,18.33-9.95,38.48-.14,58.78C981.34,401.25,1010.58,408.9,1028.87,420.67Z"/><path class="cls-3" d="M1622.09,299.91v759.35H22.09V330c60-55.62,117.37-112.66,188.33-145.08a300.65,300.65,0,0,1,47.42-17.14c91.08-24.36,200.08-12.52,289.7,20,119,43.15,232.72,104.53,348.28,153.29,105.91,44.68,213.38,78.78,327.94,78.54h.13c18.24,0,36.66-.95,55.29-2.84h.14l.36,0,2.33-.24c114.9-12.18,223.31-39.12,326-106.09A173.84,173.84,0,0,0,1622.09,299.91Z"/><path class="cls-4" d="M990.13,335.38c-1.22-6.27-8.51-9.52-12-4.07-3.73,5.92-7.38,17.51-3.8,24.57,2.22,4.37,6.76,6.42,10.43,3.53,3.5-2.77,4.49-6.63,5.25-11.51A37.07,37.07,0,0,0,990.13,335.38Z"/><path class="cls-4" d="M1003.29,357.81a5.18,5.18,0,0,0-9.9,0,12.56,12.56,0,0,0-.92,4.39,17.72,17.72,0,0,0,.27,3.08c.48,3.07,3.2,5.63,5.6,5.49a6.36,6.36,0,0,0,5.6-5.49,17.72,17.72,0,0,0,.27-3.08A12.56,12.56,0,0,0,1003.29,357.81Z"/><path class="cls-5" d="M129.24,257.45c32.92-24.72,65.59-47.18,102-57.53,57.71-16.39,122-34.67,182-26.89,39.69,5.15,76,3.16,114.89,17.77,20.73,7.79,43.32,13.42,63.6,24,19,9.92,35.65,25.2,55.35,32.65,44.29,16.75,89.27,30.74,132.16,54.27a839.83,839.83,0,0,0,173.64,70.7c20.29,5.7,41.56,8.78,62.19,12.82-157.48-50.38-308-141-467.36-200.21-89.65-33.33-198.69-45.48-289.8-20.49C163.87,190.37,94.92,261.74,22.09,331v15.32C55.76,312.54,93.07,284.61,129.24,257.45Z"/><path class="cls-2" d="M1286.34,567.11c-8.55,40.09-23.53,65.82-44,86.15-11.28,11.19-24.23,20.75-38.69,30.16-25.1,16.32-53.9,26-82.86,33.65-157.06,41.31-332.92,18.71-494.56,34.4-92.36,9-183.39,28.5-273.37,51.19C259.9,826.09,162.2,856.47,98.37,927q-3.51,3.86-6.85,7.88L90.64,936l-68.35-.54h-.2V771.23a332.81,332.81,0,0,1,19.34-28.6c13.82-18.32,36-37.2,53.66-48.24,20.58-12.86,74.9-30.11,99-33,32.16-3.85,63.45-6.4,94.18-8.13,137.89-7.74,264.66,1.1,408.82-17,98.74-12.39,191.66-24.9,285-59.27,92.34-34,179.26-81.32,241.66-157.36l.3-.37,55-3c.08.17.16.35.23.52C1301.06,464.66,1296.43,519.74,1286.34,567.11Z"/><path class="cls-4" d="M0,935.05l.1.2h0Z"/><path class="cls-4" d="M1224.09,419.26l-.2.37c-24.85,44.69-33.51,56.2-62.8,76.63-139.28,97.18-307.53,142.63-478,157-44.63,3.76-89.41,5.39-133.86,5.26-106.56-.31-213.76-8.2-319.27,6.74-39.15,5.54-78.68,14.54-112.34,35.29-50.31,31-81,84.51-95.51,142.7v-77c22-33.79,52.76-62.57,87-80.94,43.38-23.28,98.8-29.13,150.75-32,13.24-.74,26.26-1.28,38.8-1.87,164.08-7.7,329-3.8,491.45-28.13C952.38,599,1114.5,542,1223.76,419.63Z"/><path class="cls-4" d="M133.68,798.55c35.36-8,74.33-23.78,82.82-29.69,23.83-16.59-5.14-21.57-35.22-17.42-27.65,3.81-118.87,22.13-107.83,42.68C80.91,808,114.66,802.85,133.68,798.55Z"/><path class="cls-4" d="M167.37,721.29c10.95,5.66,20.18,5.27,33.42,4.27,11.7-.88,22.11-2.07,30.65-7.72,5.58-3.69,5.32-9.35,0-13.07-8.52-6-20.57-7.39-32.7-7.19-14.35.25-25.47,1.43-34.25,9.34C160.21,710.78,161.48,718.25,167.37,721.29Z"/><path class="cls-4" d="M482.83,715.69c11.55,7.39,27.17,5.65,41.7,4,14.12-1.57,31.9-2.08,41.68-9.55,5-3.82,6.29-9.75,0-13.48-13-7.74-31.67-6.39-48.13-4.85-16.3,1.53-32.82,4.21-38.78,15.23C477.72,710,479.54,713.58,482.83,715.69Z"/><path class="cls-4" d="M431.2,736.64c5.14,3.46,14.81,4.38,21.92,4.16s14.62-3.2,16.31-8c1.55-4.38-.85-10.26-7.77-12.3-6.5-1.91-12.51-3-19.56-1.46-7.2,1.59-12,3.64-14.65,8.45C425.69,730.63,427.79,734.34,431.2,736.64Z"/><path class="cls-4" d="M348.78,704.1c12.56,6.33,32.67,6.61,47,2.31,8.77-2.64,10.36-11.83,3.17-15.82-11-6.12-34-9.65-46.71-3.64C344.48,690.61,339.32,699.33,348.78,704.1Z"/><path class="cls-4" d="M1209.31,529.88c13.11-4,21.91-17,30.1-29.14,7.95-11.77,19.09-25.64,19.73-37.94.33-6.27-3.35-11.1-10.26-8.73-14.34,4.91-25.39,20-34.88,33.52s-18.06,27.72-13.53,39.4C1201.67,530.09,1205.57,531,1209.31,529.88Z"/><path class="cls-4" d="M1222.82,588.78c6-1.67,12.93-8.43,17.36-14s7-13.22,4.49-17.61c-2.34-4-8.37-6-14.41-2-5.67,3.71-10.41,7.57-13.79,14s-5,11.48-3.06,16.63C1214.66,589.09,1218.86,589.89,1222.82,588.78Z"/><path class="cls-4" d="M1153.62,612.47c13-5.46,26.21-20.6,32.2-34.28,3.68-8.39-2.3-15.56-10-12.67-11.8,4.44-29.39,19.67-33,33.22C1140.56,607,1143.86,616.59,1153.62,612.47Z"/><path class="cls-4" d="M871.2,727.64c5.14,3.46,14.81,4.38,21.92,4.16s14.62-3.2,16.31-8c1.55-4.38-.85-10.26-7.77-12.3-6.5-1.91-12.51-3-19.56-1.46-7.2,1.59-12,3.64-14.65,8.45C865.69,721.63,867.79,725.34,871.2,727.64Z"/><path class="cls-4" d="M788.78,695.1c12.56,6.33,32.67,6.61,47,2.31,8.77-2.64,10.36-11.83,3.17-15.82-11-6.12-34-9.65-46.71-3.64C784.48,681.61,779.32,690.33,788.78,695.1Z"/><path class="cls-4" d="M231.56,803.28c.78.1,1.53.26,2.29.41,7.31,2.49,19.34-.31,23.29-4.56,2.06-2.23,1.35-5.16-1.4-7-5.05-3.36-12.36-3-18.5-1.28-3.38.92-6.34,2.23-7.82,4.49-.35.54-1.61,3.75-.81,1.92a18.75,18.75,0,0,0-.72,1.83C227.32,800.82,228.65,802.87,231.56,803.28Z"/><path class="cls-4" d="M1000.35,655c-17.65,8-37.1,23.78-41.34,29.69-11.89,16.59,2.57,21.57,17.58,17.42,13.8-3.81,59.33-22.13,53.82-42.68C1026.69,645.58,1009.84,650.74,1000.35,655Z"/><path class="cls-4" d="M1005.88,624.94c-.39-.11-.76-.27-1.14-.41-3.65-2.5-9.66.3-11.63,4.56a7.21,7.21,0,0,0,.7,7c2.52,3.36,6.17,3,9.24,1.28a7.69,7.69,0,0,0,3.89-4.49c.18-.54.81-3.75.41-1.92.14-.61.26-1.22.36-1.84C1008,627.4,1007.33,625.35,1005.88,624.94Z"/><path class="cls-4" d="M1273.21,585.57c-9.81,28.36-22.68,56.66-44.58,77.17-20.48,19.18-47.26,30.06-73.94,38.76-166.86,54.38-344.63,34.19-519.6,47.76-102.94,8-206.82,33.35-306.79,59.15C228.09,834.26,144.54,862.92,91.09,935.26,221.2,831,387.57,790.72,553.33,772.64s333.52-13.44,498.89-34.72c66.61-8.57,136.46-23.15,186-68.54,32.85-30.13,52.54-72,59.5-115.68a246.41,246.41,0,0,0,1.35-66.55c-1.82-16-7-61-19.94-70.89C1288.85,473.53,1292.8,529,1273.21,585.57Z"/><path class="cls-6" d="M294.67,219.17a1.25,1.25,0,0,0-.87-2.1h-.75a3,3,0,0,0-1.34-.13,4.81,4.81,0,0,0-2.16.44,13.27,13.27,0,0,0-2.12.91,28.92,28.92,0,0,0-3.12,2c-.24.17-.44.37-.66.55,0-.07,0-.14,0-.2.36-1.63.67-3.23.87-4.89.16-1.41.51-3.14-.07-4.52a5.2,5.2,0,0,0-.06-.68,1.55,1.55,0,0,0-.24-.78l-.72-.91a.62.62,0,0,0-1.15-.31,5.66,5.66,0,0,1-1,.48,1.67,1.67,0,0,0-.59.53,6.65,6.65,0,0,0-.42.66,8.32,8.32,0,0,0-1.93,3.53,37.86,37.86,0,0,0-1.21,3.69c-.31,1.2-.61,2.4-.92,3.6-.1.41-.21.83-.33,1.24-.44-.42-.88-.84-1.35-1.24a14.84,14.84,0,0,0-1.71-1.34,7,7,0,0,0-2-.87,3.46,3.46,0,0,0-3.32.87,3.38,3.38,0,0,0-.88,3.32,9.7,9.7,0,0,0,.53,1.29,13.61,13.61,0,0,0,1.87,2.25c.67.64,1.35,1.26,2.07,1.85l.78.61a3,3,0,0,0,1.45.46,2,2,0,0,0,1,0,3,3,0,0,0,.94-.23,1.09,1.09,0,0,0,.26,0,3.07,3.07,0,0,0,1.23-.71,2,2,0,0,0,.22.19,3.23,3.23,0,0,0,2.45.4,7.48,7.48,0,0,0,.5.69l-.09-.16a1.55,1.55,0,0,0,1.24.73c.14,0,.08.09.14.11a3.86,3.86,0,0,0,1.69,0,4.53,4.53,0,0,0,1.84-1.11c.43-.4.83-.82,1.23-1.26.8-.86,1.68-1.63,2.5-2.48a30.24,30.24,0,0,1,2.48-2.32c.45-.37.86-.76,1.29-1.15a5.44,5.44,0,0,0,1.42-1.61,3.54,3.54,0,0,0,.42-.73Z"/><path class="cls-6" d="M125.24,366.21a2.5,2.5,0,0,0-.74-.68,3.22,3.22,0,0,0-2.15-.86l-.79-.08c-.11,0-.89-.16-.52-.07.53.12-1-.13-1.2-.14h-.79c-.53,0-1,0-1.58,0a27.41,27.41,0,0,0-3.83.45,6,6,0,0,0-2.06.68,2.31,2.31,0,0,0-.24.2l0-.14c.13-.58.27-1.15.4-1.73s.27-1.07.44-1.59c.09-.26.19-.51.28-.77h0l0,0c.33-.73.57-1.45.85-2.19.11-.31.11-.31.07-.23a5.22,5.22,0,0,0,.28-.95v0a7.62,7.62,0,0,0,.53-2.31c0-.09.05-.19.09-.29.45-1.1-.82-2-1.78-1.78-.07,0,0,0-.08,0l-.41-.06a4,4,0,0,0-1,.2,9,9,0,0,0-1.53.65,8.75,8.75,0,0,0-3.67,3.16,17.76,17.76,0,0,0-1.79,3.18,15.26,15.26,0,0,0-1,3.18,25.51,25.51,0,0,0-3.2-3.13,12.06,12.06,0,0,0-2-1.43,7.65,7.65,0,0,0-2.37-1c-.05,0-.1,0-.15,0a2.55,2.55,0,0,0-.35-.14,3.31,3.31,0,0,0-.82-.16H94.1a11.33,11.33,0,0,0-1.93-.25,1.48,1.48,0,0,0-1.27,2.21,6.91,6.91,0,0,0,.8,1.28c.07.11.07.09,0-.07s-.06-.19.07.14a3.59,3.59,0,0,0,.52.84,2.43,2.43,0,0,0,.34.73l.35.46.06.08c.24.31.46.64.69,1,.56.78,1.2,1.48,1.81,2.22.44.6.87,1.2,1.28,1.83.23.35.48.67.72,1a14.08,14.08,0,0,0,1.35,1.8,3.79,3.79,0,0,0,3.79,1,8.4,8.4,0,0,0,1.2-.57,4,4,0,0,0,3.55,1.4,4.1,4.1,0,0,0,3.29-2.81,3.16,3.16,0,0,0,1.25.93,5.34,5.34,0,0,0,2.47.31,29.3,29.3,0,0,0,4-.54,13.9,13.9,0,0,0,3.47-1l.3-.14.74-.28a4.5,4.5,0,0,0,1.33-.62,2.44,2.44,0,0,0,.65-.8,2.49,2.49,0,0,0,.52-.83A.66.66,0,0,0,125.24,366.21Z"/><path class="cls-6" d="M121.92,370.11l-.06,0C121.69,370.22,121.58,370.29,121.92,370.11Z"/><path class="cls-6" d="M571.67,846.17a1.25,1.25,0,0,0-.87-2.1h-.75a3,3,0,0,0-1.34-.13,4.81,4.81,0,0,0-2.16.44,13.27,13.27,0,0,0-2.12.91,28.92,28.92,0,0,0-3.12,2c-.24.17-.44.37-.66.55,0-.07,0-.14,0-.2.36-1.63.67-3.23.87-4.89.16-1.41.51-3.14-.07-4.52a5.2,5.2,0,0,0-.06-.68,1.55,1.55,0,0,0-.24-.78l-.72-.91a.62.62,0,0,0-1.15-.31,5.66,5.66,0,0,1-1,.48,1.67,1.67,0,0,0-.59.53,6.65,6.65,0,0,0-.42.66,8.32,8.32,0,0,0-1.93,3.53,37.86,37.86,0,0,0-1.21,3.69c-.31,1.2-.61,2.4-.92,3.6-.1.41-.21.83-.33,1.24-.44-.42-.88-.84-1.35-1.24a14.84,14.84,0,0,0-1.71-1.34,7,7,0,0,0-2-.87,3.46,3.46,0,0,0-3.32.87,3.38,3.38,0,0,0-.88,3.32,9.7,9.7,0,0,0,.53,1.29,13.61,13.61,0,0,0,1.87,2.25c.67.64,1.35,1.26,2.07,1.85l.78.61a3,3,0,0,0,1.45.46,2,2,0,0,0,1,0,3,3,0,0,0,.94-.23,1.09,1.09,0,0,0,.26,0,3.07,3.07,0,0,0,1.23-.71,2,2,0,0,0,.22.19,3.23,3.23,0,0,0,2.45.4,7.48,7.48,0,0,0,.5.69l-.09-.16a1.55,1.55,0,0,0,1.24.73c.14,0,.08.09.14.11a3.86,3.86,0,0,0,1.69,0,4.53,4.53,0,0,0,1.84-1.11c.43-.4.83-.82,1.23-1.26.8-.86,1.68-1.63,2.5-2.48a30.24,30.24,0,0,1,2.48-2.32c.45-.37.86-.76,1.29-1.15a5.44,5.44,0,0,0,1.42-1.61,3.54,3.54,0,0,0,.42-.73Z"/><path class="cls-6" d="M388.24,956.21a2.5,2.5,0,0,0-.74-.68,3.22,3.22,0,0,0-2.15-.86l-.79-.08c-.11,0-.89-.16-.52-.07.53.12-1-.13-1.2-.14h-.79c-.53,0-1.05,0-1.58,0a27.41,27.41,0,0,0-3.83.45,6,6,0,0,0-2.06.68,2.31,2.31,0,0,0-.24.2l0-.14c.13-.58.27-1.15.4-1.73s.27-1.07.44-1.59c.09-.26.19-.51.28-.77h0l0,0c.33-.73.57-1.45.85-2.19.11-.31.11-.31.07-.23a5.22,5.22,0,0,0,.28-.95v0a7.62,7.62,0,0,0,.53-2.31c0-.09.05-.19.09-.29.45-1.1-.82-2-1.78-1.78-.07,0-.05,0-.08,0l-.41-.06a4,4,0,0,0-1,.2,9,9,0,0,0-1.53.65,8.75,8.75,0,0,0-3.67,3.16,17.76,17.76,0,0,0-1.79,3.18,15.26,15.26,0,0,0-1,3.18,25.51,25.51,0,0,0-3.2-3.13,12.06,12.06,0,0,0-2-1.43,7.65,7.65,0,0,0-2.37-1c-.05,0-.1,0-.15,0a2.55,2.55,0,0,0-.35-.14,3.31,3.31,0,0,0-.82-.16h-.09a11.33,11.33,0,0,0-1.93-.25,1.48,1.48,0,0,0-1.27,2.21,6.91,6.91,0,0,0,.8,1.28c.07.11.07.09,0-.07s-.06-.19.07.14a3.59,3.59,0,0,0,.52.84,2.43,2.43,0,0,0,.34.73l.35.46.06.08c.24.31.46.64.69,1,.56.78,1.2,1.48,1.81,2.22.44.6.87,1.2,1.28,1.83.23.35.48.67.72,1a14.08,14.08,0,0,0,1.35,1.8,3.79,3.79,0,0,0,3.79,1,8.4,8.4,0,0,0,1.2-.57,4,4,0,0,0,3.55,1.4,4.1,4.1,0,0,0,3.29-2.81,3.16,3.16,0,0,0,1.25.93,5.34,5.34,0,0,0,2.47.31,29.3,29.3,0,0,0,3.95-.54,13.9,13.9,0,0,0,3.47-1l.3-.14.74-.28a4.5,4.5,0,0,0,1.33-.62,2.44,2.44,0,0,0,.65-.8,2.49,2.49,0,0,0,.52-.83A.66.66,0,0,0,388.24,956.21Z"/><path class="cls-6" d="M384.92,960.11l-.06,0C384.69,960.22,384.58,960.29,384.92,960.11Z"/><path class="cls-6" d="M1466.67,550.17a1.25,1.25,0,0,0-.87-2.1h-.75a3,3,0,0,0-1.34-.13,4.81,4.81,0,0,0-2.16.44,13.27,13.27,0,0,0-2.12.91,28.92,28.92,0,0,0-3.12,2c-.24.17-.44.37-.66.55,0-.07,0-.14,0-.2.36-1.63.67-3.23.87-4.89.16-1.41.51-3.14-.07-4.52a5.2,5.2,0,0,0-.06-.68,1.55,1.55,0,0,0-.24-.78l-.72-.91a.62.62,0,0,0-1.15-.31,5.66,5.66,0,0,1-1,.48,1.67,1.67,0,0,0-.59.53,6.65,6.65,0,0,0-.42.66,8.32,8.32,0,0,0-1.93,3.53,37.86,37.86,0,0,0-1.21,3.69c-.31,1.2-.61,2.4-.92,3.6-.1.41-.21.83-.33,1.24-.44-.42-.88-.84-1.35-1.24a14.84,14.84,0,0,0-1.71-1.34,7,7,0,0,0-2-.87,3.46,3.46,0,0,0-3.32.87,3.38,3.38,0,0,0-.88,3.32,9.7,9.7,0,0,0,.53,1.29,13.61,13.61,0,0,0,1.87,2.25c.67.64,1.35,1.26,2.07,1.85l.78.61a3,3,0,0,0,1.45.46,2,2,0,0,0,1,0,3,3,0,0,0,.94-.23,1.09,1.09,0,0,0,.26,0,3.07,3.07,0,0,0,1.23-.71,2,2,0,0,0,.22.19,3.23,3.23,0,0,0,2.45.4,7.48,7.48,0,0,0,.5.69l-.09-.16a1.55,1.55,0,0,0,1.24.73c.14,0,.08.09.14.11a3.86,3.86,0,0,0,1.69,0,4.53,4.53,0,0,0,1.84-1.11c.43-.4.83-.82,1.23-1.26.8-.86,1.68-1.63,2.5-2.48a30.24,30.24,0,0,1,2.48-2.32c.45-.37.86-.76,1.29-1.15a5.44,5.44,0,0,0,1.42-1.61,3.54,3.54,0,0,0,.42-.73Z"/><path class="cls-6" d="M518.24,456.21a2.5,2.5,0,0,0-.74-.68,3.22,3.22,0,0,0-2.15-.86l-.79-.08c-.11,0-.89-.16-.52-.07.53.12-1-.13-1.2-.14h-.79c-.53,0-1,0-1.58,0a27.41,27.41,0,0,0-3.83.45,6,6,0,0,0-2.06.68,2.31,2.31,0,0,0-.24.2l0-.14c.13-.58.27-1.15.4-1.73s.27-1.07.44-1.59c.09-.26.19-.51.28-.77h0l0,0c.33-.73.57-1.45.85-2.19.11-.31.11-.31.07-.23a5.22,5.22,0,0,0,.28-.95v0a7.62,7.62,0,0,0,.53-2.31c0-.09.05-.19.09-.29.45-1.1-.82-2-1.78-1.78-.07,0-.05,0-.08,0l-.41-.06a4,4,0,0,0-1,.2,9,9,0,0,0-1.53.65,8.75,8.75,0,0,0-3.67,3.16,17.76,17.76,0,0,0-1.79,3.18,15.26,15.26,0,0,0-1,3.18,25.51,25.51,0,0,0-3.2-3.13,12.06,12.06,0,0,0-2-1.43,7.65,7.65,0,0,0-2.37-1c-.05,0-.1,0-.15,0a2.55,2.55,0,0,0-.35-.14,3.31,3.31,0,0,0-.82-.16h-.09a11.33,11.33,0,0,0-1.93-.25,1.48,1.48,0,0,0-1.27,2.21,6.91,6.91,0,0,0,.8,1.28c.07.11.07.09,0-.07s-.06-.19.07.14a3.59,3.59,0,0,0,.52.84,2.43,2.43,0,0,0,.34.73l.35.46.06.08c.24.31.46.64.69,1,.56.78,1.2,1.48,1.81,2.22.44.6.87,1.2,1.28,1.83.23.35.48.67.72,1a14.08,14.08,0,0,0,1.35,1.8,3.79,3.79,0,0,0,3.79,1,8.4,8.4,0,0,0,1.2-.57,4,4,0,0,0,3.55,1.4,4.1,4.1,0,0,0,3.29-2.81,3.16,3.16,0,0,0,1.25.93,5.34,5.34,0,0,0,2.47.31,29.3,29.3,0,0,0,3.95-.54,13.9,13.9,0,0,0,3.47-1l.3-.14.74-.28a4.5,4.5,0,0,0,1.33-.62,2.44,2.44,0,0,0,.65-.8,2.49,2.49,0,0,0,.52-.83A.66.66,0,0,0,518.24,456.21Z"/><path class="cls-6" d="M514.92,460.11l-.06,0C514.69,460.22,514.58,460.29,514.92,460.11Z"/><path class="cls-7" d="M570,270a4.43,4.43,0,0,0-.7-2.22,11,11,0,0,0-3.76-3.65,13.87,13.87,0,0,0-3.37-1.59l-.08,0,1.88-2.37a9.92,9.92,0,0,0,2.12-3.31,11.2,11.2,0,0,0,.24-1.82,3.38,3.38,0,0,0,0-.71,5.12,5.12,0,0,0-1.4-3.37,4.51,4.51,0,0,0-3.36-1.39,8.28,8.28,0,0,0-1.79.31,16.25,16.25,0,0,0-1.62.67,8.28,8.28,0,0,0-2.71,2.78L554,255.21a5.56,5.56,0,0,0-1.12-1.45,13,13,0,0,0-2.09-1.61,6.94,6.94,0,0,0-9.49,2.49,6.94,6.94,0,0,0-.95,3.5,8.88,8.88,0,0,0,1.08,4.45c.16.3.34.59.53.88l.66,1c.17.23.35.49.53.75l-1.26.25c-.86.2-1.7.48-2.55.69l-1.35.3a5.68,5.68,0,0,0-2.25,1.12,6.4,6.4,0,0,0-2.17,3.19,5.76,5.76,0,0,0,1.48,5.6,6.33,6.33,0,0,0,2.72,1.63,6.4,6.4,0,0,0,3.39-.05q.68-.14,1.35-.3a24.24,24.24,0,0,0,2.65-.75l1-.41c-.07.48-.15,1-.2,1.45-.21,2-.44,3.89.74,5.69a5.62,5.62,0,0,0,4.13,2.7,5.5,5.5,0,0,0,4.74-1.55c1.66-1.65,1.88-3.62,2.11-5.81.09-.82.19-1.63.21-2.45l.07-2.46c0-.1,0-.2,0-.3l.12.08-.12-.09v0c.4.3.78.62,1.2.9.21.13.41.28.61.43a7.51,7.51,0,0,0,1,.72,10.83,10.83,0,0,0,1.86.76l1.58.22,1.59-.22,1.42-.6a4.47,4.47,0,0,0,1.67-1.53A5.94,5.94,0,0,0,570,270Z"/><path class="cls-8" d="M552.07,260.45c-7.44,0-7.45,11.56,0,11.56S559.53,260.45,552.07,260.45Z"/><path class="cls-7" d="M1370,615a4.43,4.43,0,0,0-.7-2.22,11,11,0,0,0-3.76-3.65,13.87,13.87,0,0,0-3.37-1.59l-.08,0,1.88-2.37a9.92,9.92,0,0,0,2.12-3.31,11.2,11.2,0,0,0,.24-1.82,3.38,3.38,0,0,0,0-.71,5.12,5.12,0,0,0-1.4-3.37,4.51,4.51,0,0,0-3.36-1.39,8.28,8.28,0,0,0-1.79.31,16.25,16.25,0,0,0-1.62.67,8.28,8.28,0,0,0-2.71,2.78l-1.45,1.93a5.56,5.56,0,0,0-1.12-1.45,13,13,0,0,0-2.09-1.61,6.94,6.94,0,0,0-9.49,2.49,6.94,6.94,0,0,0-1,3.5,8.88,8.88,0,0,0,1.08,4.45c.16.3.34.59.53.88l.66,1c.17.23.35.49.53.75l-1.26.25c-.86.2-1.7.48-2.55.69-.45.11-.9.2-1.35.3a5.68,5.68,0,0,0-2.25,1.12,6.4,6.4,0,0,0-2.17,3.19,5.76,5.76,0,0,0,1.48,5.6,6.33,6.33,0,0,0,2.72,1.63,6.4,6.4,0,0,0,3.39-.05l1.35-.3a24.24,24.24,0,0,0,2.65-.75l1-.41c-.07.48-.15,1-.2,1.45-.21,2-.44,3.89.74,5.69a5.62,5.62,0,0,0,4.13,2.7,5.5,5.5,0,0,0,4.74-1.55c1.66-1.65,1.88-3.62,2.11-5.81.09-.82.19-1.63.21-2.45l.07-2.46c0-.1,0-.2,0-.3l.12.08-.12-.09v0c.4.3.78.62,1.2.9.21.13.41.28.61.43a7.51,7.51,0,0,0,1,.72,10.83,10.83,0,0,0,1.86.76l1.58.22,1.59-.22,1.42-.6a4.47,4.47,0,0,0,1.67-1.53A5.94,5.94,0,0,0,1370,615Z"/><path class="cls-8" d="M1352.07,605.45c-7.44,0-7.45,11.56,0,11.56S1359.53,605.45,1352.07,605.45Z"/><path class="cls-7" d="M1560,812a4.43,4.43,0,0,0-.7-2.22,11,11,0,0,0-3.76-3.65,13.87,13.87,0,0,0-3.37-1.59l-.08,0,1.88-2.37a9.92,9.92,0,0,0,2.12-3.31,11.2,11.2,0,0,0,.24-1.82,3.38,3.38,0,0,0,0-.71,5.12,5.12,0,0,0-1.4-3.37,4.51,4.51,0,0,0-3.36-1.39,8.28,8.28,0,0,0-1.79.31,16.25,16.25,0,0,0-1.62.67,8.28,8.28,0,0,0-2.71,2.78l-1.45,1.93a5.56,5.56,0,0,0-1.12-1.45,13,13,0,0,0-2.09-1.61,6.94,6.94,0,0,0-9.49,2.49,6.94,6.94,0,0,0-1,3.5,8.88,8.88,0,0,0,1.08,4.45c.16.3.34.59.53.88l.66,1c.17.23.35.49.53.75l-1.26.25c-.86.2-1.7.48-2.55.69-.45.11-.9.2-1.35.3a5.68,5.68,0,0,0-2.25,1.12,6.4,6.4,0,0,0-2.17,3.19,5.76,5.76,0,0,0,1.48,5.6,6.33,6.33,0,0,0,2.72,1.63,6.4,6.4,0,0,0,3.39-.05l1.35-.3a24.24,24.24,0,0,0,2.65-.75l1-.41c-.07.48-.15,1-.2,1.45-.21,2-.44,3.89.74,5.69a5.62,5.62,0,0,0,4.13,2.7,5.5,5.5,0,0,0,4.74-1.55c1.66-1.65,1.88-3.62,2.11-5.81.09-.82.19-1.63.21-2.45l.07-2.46c0-.1,0-.2,0-.3l.12.08-.12-.09v0c.4.3.78.62,1.2.9.21.13.41.28.61.43a7.51,7.51,0,0,0,1,.72,10.83,10.83,0,0,0,1.86.76l1.58.22,1.59-.22,1.42-.6a4.47,4.47,0,0,0,1.67-1.53A5.94,5.94,0,0,0,1560,812Z"/><path class="cls-8" d="M1542.07,802.45c-7.44,0-7.45,11.56,0,11.56S1549.53,802.45,1542.07,802.45Z"/><path class="cls-7" d="M798,517a4.43,4.43,0,0,0-.7-2.22,11,11,0,0,0-3.76-3.65,13.87,13.87,0,0,0-3.37-1.59l-.08,0,1.88-2.37a9.92,9.92,0,0,0,2.12-3.31,11.2,11.2,0,0,0,.24-1.82,3.38,3.38,0,0,0,0-.71,5.12,5.12,0,0,0-1.4-3.37,4.51,4.51,0,0,0-3.36-1.39,8.28,8.28,0,0,0-1.79.31,16.25,16.25,0,0,0-1.62.67,8.28,8.28,0,0,0-2.71,2.78L782,502.21a5.56,5.56,0,0,0-1.12-1.45,13,13,0,0,0-2.09-1.61,6.94,6.94,0,0,0-9.49,2.49,6.94,6.94,0,0,0-.95,3.5,8.88,8.88,0,0,0,1.08,4.45c.16.3.34.59.53.88l.66,1c.17.23.35.49.53.75l-1.26.25c-.86.2-1.7.48-2.55.69l-1.35.3a5.68,5.68,0,0,0-2.25,1.12,6.4,6.4,0,0,0-2.17,3.19,5.76,5.76,0,0,0,1.48,5.6,6.33,6.33,0,0,0,2.72,1.63,6.4,6.4,0,0,0,3.39-.05q.68-.13,1.35-.3a24.24,24.24,0,0,0,2.65-.75l1-.41c-.07.48-.15,1-.2,1.45-.21,2-.44,3.89.74,5.69a5.62,5.62,0,0,0,4.13,2.7,5.5,5.5,0,0,0,4.74-1.55c1.66-1.65,1.88-3.62,2.11-5.81.09-.82.19-1.63.21-2.45l.07-2.46c0-.1,0-.2,0-.3l.12.08-.12-.09v0c.4.3.78.62,1.2.9.21.13.41.28.61.43a7.51,7.51,0,0,0,1,.72,10.83,10.83,0,0,0,1.86.76l1.58.22,1.59-.22,1.42-.6a4.47,4.47,0,0,0,1.67-1.53A5.94,5.94,0,0,0,798,517Z"/><path class="cls-8" d="M780.07,507.45c-7.44,0-7.45,11.56,0,11.56S787.53,507.45,780.07,507.45Z"/><path class="cls-7" d="M437,465a4.43,4.43,0,0,0-.7-2.22,11,11,0,0,0-3.76-3.65,13.87,13.87,0,0,0-3.37-1.59l-.08,0,1.88-2.37a9.92,9.92,0,0,0,2.12-3.31,11.2,11.2,0,0,0,.24-1.82,3.38,3.38,0,0,0,0-.71,5.12,5.12,0,0,0-1.4-3.37,4.51,4.51,0,0,0-3.36-1.39,8.28,8.28,0,0,0-1.79.31,16.25,16.25,0,0,0-1.62.67,8.28,8.28,0,0,0-2.71,2.78L421,450.21a5.56,5.56,0,0,0-1.12-1.45,13,13,0,0,0-2.09-1.61,6.94,6.94,0,0,0-9.49,2.49,6.94,6.94,0,0,0-.95,3.5,8.88,8.88,0,0,0,1.08,4.45c.16.3.34.59.53.88l.66,1c.17.23.35.49.53.75l-1.26.25c-.86.2-1.7.48-2.55.69l-1.35.3a5.68,5.68,0,0,0-2.25,1.12,6.4,6.4,0,0,0-2.17,3.19,5.76,5.76,0,0,0,1.48,5.6,6.33,6.33,0,0,0,2.72,1.63,6.4,6.4,0,0,0,3.39-.05l1.35-.3a24.24,24.24,0,0,0,2.65-.75l1-.41c-.07.48-.15,1-.2,1.45-.21,2-.44,3.89.74,5.69a5.62,5.62,0,0,0,4.13,2.7,5.5,5.5,0,0,0,4.74-1.55c1.66-1.65,1.88-3.62,2.11-5.81.09-.82.19-1.63.21-2.45l.07-2.46c0-.1,0-.2,0-.3l.12.08-.12-.09v0c.4.3.78.62,1.2.9.21.13.41.28.61.43a7.51,7.51,0,0,0,1,.72,10.83,10.83,0,0,0,1.86.76l1.58.22,1.59-.22,1.42-.6a4.47,4.47,0,0,0,1.67-1.53A5.94,5.94,0,0,0,437,465Z"/><path class="cls-8" d="M419.07,455.45c-7.44,0-7.45,11.56,0,11.56S426.53,455.45,419.07,455.45Z"/><path class="cls-6" d="M236.69,609.07a2,2,0,0,0-.64-.6,2.85,2.85,0,0,0-1.87-.75l-.69-.07c-.1,0-.78-.14-.45-.06s-.86-.12-1-.12h-.69c-.46,0-.92,0-1.38,0a24.76,24.76,0,0,0-3.34.4,5.22,5.22,0,0,0-1.8.59c-.08,0-.14.12-.21.17s0-.08,0-.12c.12-.5.24-1,.35-1.51s.24-.93.39-1.38l.24-.67v-.05c.28-.64.5-1.26.74-1.91.1-.27.09-.27.06-.2a4.51,4.51,0,0,0,.25-.83v0a7,7,0,0,0,.46-2c0-.08,0-.16.08-.25.39-1-.72-1.74-1.55-1.55l-.08,0-.36,0a3.58,3.58,0,0,0-.85.18,7.79,7.79,0,0,0-1.33.56,7.63,7.63,0,0,0-3.21,2.76,16.4,16.4,0,0,0-1.56,2.77,14,14,0,0,0-.84,2.78,21.83,21.83,0,0,0-2.8-2.73,9.93,9.93,0,0,0-1.77-1.25,6.46,6.46,0,0,0-2.08-.84h-.12a2,2,0,0,0-.31-.12,2.49,2.49,0,0,0-.72-.14h-.07a10.59,10.59,0,0,0-1.68-.22,1.29,1.29,0,0,0-1.11,1.94,5.08,5.08,0,0,0,.7,1.11c.05.1.05.08,0-.06s-.05-.17.07.12a3.25,3.25,0,0,0,.45.74,2.12,2.12,0,0,0,.29.63c.1.14.21.27.31.4l0,.07.61.84c.48.68,1,1.29,1.57,1.94s.76,1,1.12,1.59c.2.31.42.59.63.89a12.88,12.88,0,0,0,1.18,1.57,3.32,3.32,0,0,0,3.3.87,6.85,6.85,0,0,0,1.05-.5,3.47,3.47,0,0,0,3.1,1.22,3.58,3.58,0,0,0,2.87-2.45,2.88,2.88,0,0,0,1.09.82,4.63,4.63,0,0,0,2.15.26,23.64,23.64,0,0,0,3.45-.47,12.29,12.29,0,0,0,3-.9l.26-.13.65-.24a4.54,4.54,0,0,0,1.16-.54,2.07,2.07,0,0,0,.56-.71,1.92,1.92,0,0,0,.45-.71A.58.58,0,0,0,236.69,609.07Z"/><path class="cls-6" d="M233.8,612.47l-.05,0C233.6,612.56,233.5,612.62,233.8,612.47Z"/><path class="cls-6" d="M693.67,374.17a1.25,1.25,0,0,0-.87-2.1h-.75a3,3,0,0,0-1.34-.13,4.81,4.81,0,0,0-2.16.44,13.27,13.27,0,0,0-2.12.91,28.92,28.92,0,0,0-3.12,2c-.24.17-.44.37-.66.55,0-.07,0-.14,0-.2.36-1.63.67-3.23.87-4.89.16-1.41.51-3.14-.07-4.52a5.2,5.2,0,0,0-.06-.68,1.55,1.55,0,0,0-.24-.78l-.72-.91a.62.62,0,0,0-1.15-.31,5.66,5.66,0,0,1-1,.48,1.67,1.67,0,0,0-.59.53,6.65,6.65,0,0,0-.42.66,8.32,8.32,0,0,0-1.93,3.53,37.86,37.86,0,0,0-1.21,3.69c-.31,1.2-.61,2.4-.92,3.6-.1.41-.21.83-.33,1.24-.44-.42-.88-.84-1.35-1.24a14.84,14.84,0,0,0-1.71-1.34,7,7,0,0,0-2-.87,3.46,3.46,0,0,0-3.32.87,3.38,3.38,0,0,0-.88,3.32,9.7,9.7,0,0,0,.53,1.29,13.61,13.61,0,0,0,1.87,2.25c.67.64,1.35,1.26,2.07,1.85l.78.61a3,3,0,0,0,1.45.46,2,2,0,0,0,1,0,3,3,0,0,0,.94-.23,1.09,1.09,0,0,0,.26,0,3.07,3.07,0,0,0,1.23-.71,2,2,0,0,0,.22.19,3.23,3.23,0,0,0,2.45.4,7.48,7.48,0,0,0,.5.69l-.09-.16a1.55,1.55,0,0,0,1.24.73c.14,0,.08.09.14.11a3.86,3.86,0,0,0,1.69,0,4.53,4.53,0,0,0,1.84-1.11c.43-.4.83-.82,1.23-1.26.8-.86,1.68-1.63,2.5-2.48a30.24,30.24,0,0,1,2.48-2.32c.45-.37.86-.76,1.29-1.15a5.44,5.44,0,0,0,1.42-1.61,3.54,3.54,0,0,0,.42-.73Z"/><path class="cls-6" d="M1020.24,795.21a2.5,2.5,0,0,0-.74-.68,3.22,3.22,0,0,0-2.15-.86l-.79-.08c-.11,0-.89-.16-.52-.07.53.12-1-.13-1.2-.14h-.79c-.53,0-1,0-1.58,0a27.41,27.41,0,0,0-3.83.45,6,6,0,0,0-2.06.68,2.31,2.31,0,0,0-.24.2l0-.14c.13-.58.27-1.15.4-1.73s.27-1.07.44-1.59c.09-.26.19-.51.28-.77h0l0,0c.33-.73.57-1.45.85-2.19.11-.31.11-.31.07-.23a5.22,5.22,0,0,0,.28-.95v0a7.62,7.62,0,0,0,.53-2.31c0-.09,0-.19.09-.29.45-1.1-.82-2-1.78-1.78-.07,0,0,0-.08,0l-.41-.06a4,4,0,0,0-1,.2,9,9,0,0,0-1.53.65,8.75,8.75,0,0,0-3.67,3.16,17.76,17.76,0,0,0-1.79,3.18,15.26,15.26,0,0,0-1,3.18,25.51,25.51,0,0,0-3.2-3.13,12.06,12.06,0,0,0-2-1.43,7.65,7.65,0,0,0-2.37-1s-.1,0-.15,0a2.55,2.55,0,0,0-.35-.14,3.31,3.31,0,0,0-.82-.16h-.09a11.33,11.33,0,0,0-1.93-.25,1.48,1.48,0,0,0-1.27,2.21,6.91,6.91,0,0,0,.8,1.28c.07.11.07.09,0-.07s-.06-.19.07.14a3.59,3.59,0,0,0,.52.84,2.43,2.43,0,0,0,.34.73l.35.46.06.08c.24.31.46.64.69,1,.56.78,1.2,1.48,1.81,2.22.44.6.87,1.2,1.28,1.83.23.35.48.67.72,1a14.08,14.08,0,0,0,1.35,1.8,3.79,3.79,0,0,0,3.79,1,8.4,8.4,0,0,0,1.2-.57,4,4,0,0,0,3.55,1.4,4.1,4.1,0,0,0,3.29-2.81,3.16,3.16,0,0,0,1.25.93,5.34,5.34,0,0,0,2.47.31,29.3,29.3,0,0,0,3.95-.54,13.9,13.9,0,0,0,3.47-1l.3-.14.74-.28a4.5,4.5,0,0,0,1.33-.62,2.44,2.44,0,0,0,.65-.8,2.49,2.49,0,0,0,.52-.83A.66.66,0,0,0,1020.24,795.21Z"/><path class="cls-6" d="M1016.92,799.11l-.06,0C1016.69,799.22,1016.58,799.29,1016.92,799.11Z"/><path class="cls-6" d="M1588.69,593.07a2,2,0,0,0-.64-.6,2.85,2.85,0,0,0-1.87-.75l-.69-.07c-.1,0-.78-.14-.45-.06s-.86-.12-1-.12h-.69c-.46,0-.92,0-1.38,0a24.76,24.76,0,0,0-3.34.4,5.22,5.22,0,0,0-1.8.59c-.08,0-.14.12-.21.17s0-.08,0-.12c.12-.5.24-1,.35-1.51s.24-.93.39-1.38l.24-.67v-.05c.28-.64.5-1.26.74-1.91.1-.27.09-.27.06-.2a4.51,4.51,0,0,0,.25-.83v0a7,7,0,0,0,.46-2c0-.08,0-.16.08-.25.39-1-.72-1.74-1.55-1.55l-.08,0-.36,0a3.58,3.58,0,0,0-.85.18,7.79,7.79,0,0,0-1.33.56,7.63,7.63,0,0,0-3.21,2.76,16.4,16.4,0,0,0-1.56,2.77,14,14,0,0,0-.84,2.78,21.83,21.83,0,0,0-2.8-2.73,9.93,9.93,0,0,0-1.77-1.25,6.46,6.46,0,0,0-2.08-.84h-.12a2,2,0,0,0-.31-.12,2.49,2.49,0,0,0-.72-.14h-.07a10.59,10.59,0,0,0-1.68-.22,1.29,1.29,0,0,0-1.11,1.94,5.08,5.08,0,0,0,.7,1.11c0,.1,0,.08,0-.06s0-.17.07.12a3.25,3.25,0,0,0,.45.74,2.12,2.12,0,0,0,.29.63c.1.14.21.27.31.4l0,.07.61.84c.48.68,1,1.29,1.57,1.94s.76,1,1.12,1.59c.2.31.42.59.63.89a12.88,12.88,0,0,0,1.18,1.57,3.32,3.32,0,0,0,3.3.87,6.85,6.85,0,0,0,1-.5,3.47,3.47,0,0,0,3.1,1.22,3.58,3.58,0,0,0,2.87-2.45,2.88,2.88,0,0,0,1.09.82,4.63,4.63,0,0,0,2.15.26,23.64,23.64,0,0,0,3.45-.47,12.29,12.29,0,0,0,3-.9l.26-.13.65-.24a4.54,4.54,0,0,0,1.16-.54,2.07,2.07,0,0,0,.56-.71,1.92,1.92,0,0,0,.45-.71A.58.58,0,0,0,1588.69,593.07Z"/><path class="cls-6" d="M1585.8,596.47l0,0C1585.6,596.56,1585.5,596.62,1585.8,596.47Z"/><path class="cls-6" d="M1437.69,686.07a2,2,0,0,0-.64-.6,2.85,2.85,0,0,0-1.87-.75l-.69-.07c-.1,0-.78-.14-.45-.06s-.86-.12-1-.12h-.69c-.46,0-.92,0-1.38,0a24.76,24.76,0,0,0-3.34.4,5.22,5.22,0,0,0-1.8.59c-.08,0-.14.12-.21.17s0-.08,0-.12c.12-.5.24-1,.35-1.51s.24-.93.39-1.38l.24-.67v-.05c.28-.64.5-1.26.74-1.91.1-.27.09-.27.06-.2a4.51,4.51,0,0,0,.25-.83v0a7,7,0,0,0,.46-2c0-.08,0-.16.08-.25.39-1-.72-1.74-1.55-1.55l-.08,0-.36,0a3.58,3.58,0,0,0-.85.18,7.79,7.79,0,0,0-1.33.56,7.63,7.63,0,0,0-3.21,2.76,16.4,16.4,0,0,0-1.56,2.77,14,14,0,0,0-.84,2.78,21.83,21.83,0,0,0-2.8-2.73,9.93,9.93,0,0,0-1.77-1.25,6.46,6.46,0,0,0-2.08-.84h-.12a2,2,0,0,0-.31-.12,2.49,2.49,0,0,0-.72-.14h-.07a10.59,10.59,0,0,0-1.68-.22,1.29,1.29,0,0,0-1.11,1.94,5.08,5.08,0,0,0,.7,1.11c0,.1,0,.08,0-.06s0-.17.07.12a3.25,3.25,0,0,0,.45.74,2.12,2.12,0,0,0,.29.63c.1.14.21.27.31.4l0,.07.61.84c.48.68,1,1.29,1.57,1.94s.76,1,1.12,1.59c.2.31.42.59.63.89a12.88,12.88,0,0,0,1.18,1.57,3.32,3.32,0,0,0,3.3.87,6.85,6.85,0,0,0,1-.5,3.47,3.47,0,0,0,3.1,1.22,3.58,3.58,0,0,0,2.87-2.45,2.88,2.88,0,0,0,1.09.82,4.63,4.63,0,0,0,2.15.26,23.64,23.64,0,0,0,3.45-.47,12.29,12.29,0,0,0,3-.9l.26-.13.65-.24a4.54,4.54,0,0,0,1.16-.54,2.07,2.07,0,0,0,.56-.71,1.92,1.92,0,0,0,.45-.71A.58.58,0,0,0,1437.69,686.07Z"/><path class="cls-6" d="M1434.8,689.47l0,0C1434.6,689.56,1434.5,689.62,1434.8,689.47Z"/><path class="cls-6" d="M1201.69,851.07a2,2,0,0,0-.64-.6,2.85,2.85,0,0,0-1.87-.75l-.69-.07c-.1,0-.78-.14-.45-.06s-.86-.12-1-.12h-.69c-.46,0-.92,0-1.38,0a24.76,24.76,0,0,0-3.34.4,5.22,5.22,0,0,0-1.8.59c-.08,0-.14.12-.21.17s0-.08,0-.12c.12-.5.24-1,.35-1.51s.24-.93.39-1.38l.24-.67v-.05c.28-.64.5-1.26.74-1.91.1-.27.09-.27.06-.2a4.51,4.51,0,0,0,.25-.83v0a7,7,0,0,0,.46-2c0-.08,0-.16.08-.25.39-1-.72-1.74-1.55-1.55l-.08,0-.36,0a3.58,3.58,0,0,0-.85.18,7.79,7.79,0,0,0-1.33.56,7.63,7.63,0,0,0-3.21,2.76,16.4,16.4,0,0,0-1.56,2.77,14,14,0,0,0-.84,2.78,21.83,21.83,0,0,0-2.8-2.73,9.93,9.93,0,0,0-1.77-1.25,6.46,6.46,0,0,0-2.08-.84h-.12a2,2,0,0,0-.31-.12,2.49,2.49,0,0,0-.72-.14h-.07a10.59,10.59,0,0,0-1.68-.22,1.29,1.29,0,0,0-1.11,1.94,5.08,5.08,0,0,0,.7,1.11c0,.1,0,.08,0-.06s0-.17.07.12a3.25,3.25,0,0,0,.45.74,2.12,2.12,0,0,0,.29.63c.1.14.21.27.31.4l0,.07.61.84c.48.68,1,1.29,1.57,1.94s.76,1,1.12,1.59c.2.31.42.59.63.89a12.88,12.88,0,0,0,1.18,1.57,3.32,3.32,0,0,0,3.3.87,6.85,6.85,0,0,0,1-.5,3.47,3.47,0,0,0,3.1,1.22,3.58,3.58,0,0,0,2.87-2.45,2.88,2.88,0,0,0,1.09.82,4.63,4.63,0,0,0,2.15.26,23.64,23.64,0,0,0,3.45-.47,12.29,12.29,0,0,0,3-.9l.26-.13.65-.24a4.54,4.54,0,0,0,1.16-.54,2.07,2.07,0,0,0,.56-.71,1.92,1.92,0,0,0,.45-.71A.58.58,0,0,0,1201.69,851.07Z"/><path class="cls-6" d="M1198.8,854.47l0,0C1198.6,854.56,1198.5,854.62,1198.8,854.47Z"/><path class="cls-9" d="M22.29,900.53c5,3.14,225.16,81.3,340,90.78,264.48,21.84,488-108.51,734.37-178.06,89.62-25.3,198.6-34.53,289.67-15.56,94,19.59,162.93,73.76,235.72,126.3v135.27H22.29Z"/></g><g id="Fiori"><path class="cls-10" d="M1518.38,508.91q1.69-18.41,2.21-36.9c.34-12.31.31-24.64-.3-36.93,0-1.08-.34-1.07-.32,0,.27,12.3-.11,24.59-.84,36.86s-1.86,24.5-3.27,36.7C1514.87,517,1517.57,517.33,1518.38,508.91Z"/><path class="cls-11" d="M1526.4,415.56a7.3,7.3,0,0,0-11.3,1,24.61,24.61,0,0,0-1.51,25.52c1.49,2.82,4,5.59,7.19,5.56,4.57,0,3.18,2.25,7.42-6.23a27.3,27.3,0,0,0,3-16A17.59,17.59,0,0,0,1526.4,415.56Z"/><path class="cls-12" d="M1518.4,416.75c-5.36,7.8-6.66,18.24-3.36,26.31A49.67,49.67,0,0,1,1518.4,416.75Z"/><path class="cls-12" d="M1519.9,417a97.7,97.7,0,0,0-3.21,14,30,30,0,0,0,1.06,14A107.27,107.27,0,0,1,1519.9,417Z"/><path class="cls-12" d="M1521.66,416.53q-.95,14.19-1.87,28.37A64.83,64.83,0,0,0,1521.66,416.53Z"/><path class="cls-12" d="M1523.1,416.88a101.57,101.57,0,0,1-.62,26.81A30.83,30.83,0,0,0,1523.1,416.88Z"/><path class="cls-12" d="M1524.53,417.52a56.59,56.59,0,0,1,.86,25.91,35.61,35.61,0,0,0,3.29-13.21A19.22,19.22,0,0,0,1524.53,417.52Z"/><path class="cls-11" d="M1520.58,414.91c-2.1-.54-4.5-5.45-4.5-5.45l2.87,2.05c-.44-2,.48-6.16.48-6.16a28.26,28.26,0,0,1,1.36,5.27c.45-1.73,3.12-4.22,3.12-4.22s-.39,3.59-.58,5.39c.79-1.68,4.09-3.52,4.09-3.52S1524.29,415.88,1520.58,414.91Z"/><path class="cls-13" d="M1520.05,449c-5.35-1-8.53-7.24-9.77-12.55a2.74,2.74,0,0,1-.07-1.17,1,1,0,0,1,.76-.81c.58-.08,1,.48,1.31,1,.89,1.51,1.71,3.05,2.45,4.64a14.51,14.51,0,0,1-.84-7.23,2.1,2.1,0,0,1,.28-.92.8.8,0,0,1,.82-.38c.35.09.54.46.68.8a44,44,0,0,1,2.4,7.38c-.31-2.71-.59-5.61.67-8,.18-.34.48-.71.86-.64s.53.49.62.86c.6,2.51,1,5.06,1.4,7.71a13.8,13.8,0,0,1,2.26-7.18c.27-.41.75-.86,1.19-.63s.39.58.41,1a31.58,31.58,0,0,1-.64,7.49,21.8,21.8,0,0,1,2.72-6.54c.18-.29.43-.61.77-.59a.67.67,0,0,1,.55.45,1.73,1.73,0,0,1,.07.75,21.21,21.21,0,0,1-1.1,5.61l1.81-3.69a1.64,1.64,0,0,1,.44-.63.57.57,0,0,1,.71,0,.84.84,0,0,1,.17.68C1530.79,439.18,1526.5,450.13,1520.05,449Z"/><path class="cls-10" d="M1519.37,511q5.25-12.4,9.71-25.12c3-8.48,5.67-17,8-25.71.2-.76,0-.82-.23-.07-2.54,8.6-5.53,17.05-8.75,25.41s-6.72,16.6-10.4,24.75C1515.14,515.8,1516.94,516.63,1519.37,511Z"/><path class="cls-11" d="M1545.62,447.92a5.31,5.31,0,0,0-8-1.83,17.91,17.91,0,0,0-6.71,17.38c.41,2.29,1.54,4.77,3.76,5.46,3.18,1,1.71,2.26,6.53-2.68a19.94,19.94,0,0,0,5.64-10.43A12.81,12.81,0,0,0,1545.62,447.92Z"/><path class="cls-12" d="M1539.8,447c-5.45,4.23-8.66,11.19-8.16,17.52A36.2,36.2,0,0,1,1539.8,447Z"/><path class="cls-12" d="M1540.8,447.45a72.29,72.29,0,0,0-5.33,9,21.91,21.91,0,0,0-2.37,10A78.42,78.42,0,0,1,1540.8,447.45Z"/><path class="cls-12" d="M1542.12,447.55l-7.59,19.28A47.31,47.31,0,0,0,1542.12,447.55Z"/><path class="cls-12" d="M1543,448.11a73.61,73.61,0,0,1-6.37,18.47A22.47,22.47,0,0,0,1543,448.11Z"/><path class="cls-12" d="M1543.89,448.87a41.36,41.36,0,0,1-5.15,18.19,26,26,0,0,0,5.22-8.45A14,14,0,0,0,1543.89,448.87Z"/><path class="cls-11" d="M1541.72,446.18c-1.33-.84-1.91-4.78-1.91-4.78l1.53,2.06a14.85,14.85,0,0,1,1.7-4.17,20.74,20.74,0,0,1-.22,4c.7-1.1,3.1-2.24,3.1-2.24l-1.59,3.61c.92-1,3.61-1.53,3.61-1.53S1544.08,447.68,1541.72,446.18Z"/><path class="cls-13" d="M1533.82,469.7c-3.5-1.87-4.33-6.92-4-10.88a2,2,0,0,1,.21-.83.75.75,0,0,1,.71-.39c.42.07.6.56.69,1,.28,1.24.51,2.5.67,3.76a10.73,10.73,0,0,1,1-5.2,1.59,1.59,0,0,1,.4-.58.61.61,0,0,1,.66-.08.87.87,0,0,1,.29.7,32.28,32.28,0,0,1,0,5.66c.39-1.95.84-4,2.25-5.43.2-.2.49-.39.74-.26s.26.46.24.74c-.14,1.87-.42,3.74-.74,5.66a10,10,0,0,1,3.16-4.48c.28-.23.71-.43,1-.18a.79.79,0,0,1,.07.75,22.67,22.67,0,0,1-2.11,5.07,16,16,0,0,1,3.34-3.94.73.73,0,0,1,.67-.25.5.5,0,0,1,.28.44,1.41,1.41,0,0,1-.11.54,15.34,15.34,0,0,1-2,3.65l2.08-2.16a1.15,1.15,0,0,1,.45-.34.41.41,0,0,1,.49.14.58.58,0,0,1,0,.51C1543.44,465.3,1538,472,1533.82,469.7Z"/><path class="cls-10" d="M1517.44,509.91q-1.85-13.35-4.56-26.55c-1.81-8.8-3.88-17.54-6.36-26.16-.21-.76-.42-.7-.22.06,2.23,8.68,4,17.47,5.53,26.3s2.75,17.69,3.79,26.58C1516.3,516.23,1518.27,516,1517.44,509.91Z"/><path class="cls-11" d="M1507.61,442.33a5.32,5.32,0,0,0-7.86,2.56,18,18,0,0,0,3.17,18.37c1.53,1.75,3.77,3.3,6,2.75,3.24-.79,2.63,1.06,4.23-5.66a19.92,19.92,0,0,0-.51-11.84A12.84,12.84,0,0,0,1507.61,442.33Z"/><path class="cls-12" d="M1502.14,444.51c-2.52,6.42-1.7,14.05,2,19.23A36.29,36.29,0,0,1,1502.14,444.51Z"/><path class="cls-12" d="M1503.23,444.4a73.17,73.17,0,0,0,0,10.47,21.66,21.66,0,0,0,3.09,9.76A77.69,77.69,0,0,1,1503.23,444.4Z"/><path class="cls-12" d="M1504.41,443.81l3.39,20.45A47.28,47.28,0,0,0,1504.41,443.81Z"/><path class="cls-12" d="M1505.49,443.82a73.62,73.62,0,0,1,4,19.12A22.43,22.43,0,0,0,1505.49,443.82Z"/><path class="cls-12" d="M1506.61,444a41.36,41.36,0,0,1,4.92,18.25,25.88,25.88,0,0,0,.14-9.92A14,14,0,0,0,1506.61,444Z"/><path class="cls-11" d="M1503.37,442.84c-1.58,0-4.1-3.12-4.1-3.12l2.38,1a14.78,14.78,0,0,1-.68-4.46,21.16,21.16,0,0,1,1.84,3.52c0-1.31,1.51-3.51,1.51-3.51l.49,3.91c.28-1.32,2.31-3.17,2.31-3.17S1506.17,442.91,1503.37,442.84Z"/><path class="cls-13" d="M1508.66,467.08c-4,.19-7.26-3.72-9-7.28a1.87,1.87,0,0,1-.25-.82.75.75,0,0,1,.41-.7c.39-.15.8.18,1.09.48.88.92,1.72,1.88,2.51,2.88a10.54,10.54,0,0,1-1.8-5,1.6,1.6,0,0,1,.05-.69.59.59,0,0,1,.52-.41c.26,0,.46.24.61.45a30.91,30.91,0,0,1,2.93,4.84c-.67-1.87-1.35-3.89-.86-5.81.07-.28.23-.59.51-.61s.46.27.58.51c.84,1.68,1.56,3.42,2.28,5.24a10,10,0,0,1,.4-5.47c.13-.33.39-.73.74-.65s.38.36.45.61a22.64,22.64,0,0,1,.79,5.43,16.37,16.37,0,0,1,.84-5.1c.08-.23.21-.5.46-.55a.48.48,0,0,1,.46.23,1.4,1.4,0,0,1,.18.52,15.72,15.72,0,0,1,.14,4.17c.23-1,.45-1.95.68-2.93a1.27,1.27,0,0,1,.2-.51.42.42,0,0,1,.5-.14.6.6,0,0,1,.24.46C1514.66,458.37,1513.43,466.85,1508.66,467.08Z"/><path class="cls-14" d="M118.53,649.91q1.78-18.4,2.33-36.9c.36-12.31.33-24.64-.31-36.93,0-1.08-.37-1.07-.35,0,.29,12.3-.11,24.59-.88,36.86s-2,24.5-3.44,36.7C114.83,658,117.67,658.33,118.53,649.91Z"/><path class="cls-14" d="M119.67,652.06q5.43-12.34,10-25c3-8.47,5.7-17,7.94-25.72.2-.77,0-.83-.26-.08-2.51,8.61-5.54,17-8.84,25.38s-6.93,16.53-10.76,24.64C115.06,656.77,117.15,657.7,119.67,652.06Z"/><path class="cls-14" d="M117.1,651q-1.62-13.41-4.25-26.62c-1.76-8.81-3.84-17.55-6.4-26.15-.22-.76-.47-.69-.27.07,2.27,8.67,4,17.47,5.41,26.32s2.49,17.76,3.33,26.69C115.46,657.42,117.81,657.12,117.1,651Z"/><path class="cls-15" d="M117.68,575.63c-3.37-3.24-6.84-6.65-8.42-11a6.77,6.77,0,0,1-.45-3.38,3.25,3.25,0,0,1,2-2.59,3.29,3.29,0,0,1,2.86.58,7.41,7.41,0,0,1,1.93,2.3,17.1,17.1,0,0,1,2.34,6.42,61.12,61.12,0,0,0-.48-7.39c-.14-2.46.14-5.1,1.64-7.07s4.5-2.93,6.53-1.51,2.2,4.12,1.92,6.47a62.69,62.69,0,0,1-2.55,10.1,23.37,23.37,0,0,1,5.27-8.13c1.36-1.36,3.43-2.62,5.1-1.65s1.59,3.52.78,5.32c-1.45,3.21-4.28,5.58-7.17,7.59s-6,3.83-8.37,6.43C120,577.31,119,576.93,117.68,575.63Z"/><path class="cls-16" d="M122.81,572.43c.71-5.35,1.35-10.72,2-16.08,0-.23-.09-.25-.13,0-1,5.32-2,10.63-2.92,15.95C121.49,574.1,122.56,574.27,122.81,572.43Z"/><path class="cls-16" d="M120.73,571.27a117.27,117.27,0,0,1,.68-18.73c0-.27-.08-.29-.13,0a113.29,113.29,0,0,0-1.56,18.77C119.74,573.45,120.82,573.4,120.73,571.27Z"/><path class="cls-16" d="M121.79,571.49c.6-5.14,1.12-10.29,1.71-15.42,0-.23-.09-.25-.13,0-.85,5.1-1.76,10.19-2.58,15.3C120.51,573.09,121.58,573.25,121.79,571.49Z"/><path class="cls-16" d="M123,571.48a45,45,0,0,0,3.1-13.3c0-.2-.1-.21-.13,0a45.9,45.9,0,0,1-3.89,12.91C121.46,572.46,122.43,572.94,123,571.48Z"/><path class="cls-16" d="M121.59,571.57a46.54,46.54,0,0,1,1.24-16.4c.06-.24,0-.27-.12,0a46,46,0,0,0-2.12,16.51C120.72,573.57,121.8,573.43,121.59,571.57Z"/><path class="cls-16" d="M124.74,572.52a49,49,0,0,0,9.15-10.87c.12-.17,0-.24-.1-.07a50.32,50.32,0,0,1-9.7,10.17C122.84,572.73,123.49,573.59,124.74,572.52Z"/><path class="cls-16" d="M125.61,572.3a39.6,39.6,0,0,0,9.5-9.7c.12-.16,0-.23-.1-.08a39.84,39.84,0,0,1-10,8.94C123.75,572.26,124.31,573.19,125.61,572.3Z"/><path class="cls-16" d="M125,570.68a67.18,67.18,0,0,1,7.38-9.94c.13-.14,0-.22-.09-.09a64.06,64.06,0,0,0-8.13,9.48C123.37,571.32,124.29,571.89,125,570.68Z"/><path class="cls-17" d="M121,578.08c-4.26-1.39-8.62-2.83-12.1-5.64a7.26,7.26,0,0,1-2.27-2.69,3.42,3.42,0,0,1,.24-3.39c.92-1.19,2.67-1.38,4.15-1.09a9.33,9.33,0,0,1,6.46,5.13c-1-3.65-2-7.57-.74-11.16a5.34,5.34,0,0,1,1.49-2.38,2.81,2.81,0,0,1,2.66-.6c1.27.45,1.85,1.9,2.14,3.22a21.44,21.44,0,0,1-.5,10.59,12.73,12.73,0,0,1,3.81-6.18,5.59,5.59,0,0,1,2.2-1.29,2.6,2.6,0,0,1,2.41.51c1,1,.76,2.64.24,3.93C129.22,571.87,124.76,575.15,121,578.08Z"/><path class="cls-15" d="M121.16,578c-.56-4.65-1.09-9.52.65-13.86a5.71,5.71,0,0,1,1.25-2,2.43,2.43,0,0,1,4.15.88,5.64,5.64,0,0,1,.26,2.68C127,570.19,124,574,121.16,578Z"/><path class="cls-15" d="M121,578.12a41.16,41.16,0,0,0-3.89-9.22,7.22,7.22,0,0,0-2-2.27,3.23,3.23,0,0,0-2.92-.44,3.3,3.3,0,0,0-1.63,3.87,7.53,7.53,0,0,0,2.64,3.65A23.78,23.78,0,0,0,121,578.12Z"/><path class="cls-15" d="M121.24,577.83c5-.47,10.26-1.08,14-4.33a5.9,5.9,0,0,0,1.7-2.21,2.9,2.9,0,0,0-.2-2.7,3,3,0,0,0-2.45-1.14,7.11,7.11,0,0,0-2.71.67A19.43,19.43,0,0,0,121.24,577.83Z"/><path class="cls-18" d="M122.29,574.73a30.87,30.87,0,0,1-.36-7.75c0-.11-.1-.13-.12,0a28.54,28.54,0,0,0-.51,7.89C121.38,575.77,122.45,575.59,122.29,574.73Z"/><path class="cls-18" d="M122.48,575.11c.63-2.86,1.3-5.72,2.17-8.53,0-.13-.07-.17-.12-.05-1.12,2.73-2.17,5.5-3,8.33C121.22,575.84,122.27,576.09,122.48,575.11Z"/><path class="cls-18" d="M123,575.51c.68-1.78,1.28-3.59,1.94-5.39,0-.07-.08-.12-.12,0-.9,1.68-1.86,3.34-2.74,5C121.79,575.68,122.77,576.13,123,575.51Z"/><path class="cls-18" d="M123.06,576.27c2.67-2,5.3-4.16,7.95-6.22.12-.09.05-.19-.07-.1-2.81,1.84-5.66,3.64-8.46,5.5C121.52,576.09,122.15,577,123.06,576.27Z"/><path class="cls-18" d="M123.62,576.39a35.94,35.94,0,0,0,7.65-4.25c.11-.08,0-.18-.07-.11a38.22,38.22,0,0,1-7.92,3.42C122.35,575.73,122.67,576.76,123.62,576.39Z"/><path class="cls-18" d="M123.25,576.89a20.19,20.19,0,0,0,7.06-2.1c.1,0,.05-.15-.05-.12a20.45,20.45,0,0,1-7.06,1.22A.51.51,0,1,0,123.25,576.89Z"/><path class="cls-18" d="M120.22,575.62a45.46,45.46,0,0,1-4.73-6.65c-.06-.11-.16-.05-.11.06a41.29,41.29,0,0,0,4.05,7.21C120,577,120.82,576.32,120.22,575.62Z"/><path class="cls-18" d="M119.64,576c-1.74-1.65-3.53-3.25-5.29-4.88-.08-.08-.16,0-.09.09,1.56,1.82,3.08,3.68,4.65,5.49C119.45,577.27,120.24,576.53,119.64,576Z"/><path class="cls-18" d="M119.12,576c-2-1.15-4-2.22-6.05-3.34-.09,0-.15,0-.07.11,1.87,1.34,3.7,2.75,5.58,4.08A.51.51,0,1,0,119.12,576Z"/><path class="cls-14" d="M120.41,579a29.24,29.24,0,0,1-3.42-3.44c-.24-.29-.49-.67-.32-1s.68-.35,1.06-.23a3.89,3.89,0,0,1,2.4,2.09,5.64,5.64,0,0,1,.83-3.3c.19-.3.47-.61.82-.57s.63.68.61,1.17a9.61,9.61,0,0,1-.57,3,4.51,4.51,0,0,1,2.8-2.14,1.18,1.18,0,0,1,1,.07.91.91,0,0,1,.17,1.14,2.48,2.48,0,0,1-.92.84A26.8,26.8,0,0,1,120.41,579Z"/><path class="cls-15" d="M134.93,600.58c-2.06-3.62-4.16-7.42-4.4-11.58a6.05,6.05,0,0,1,.47-3,2.9,2.9,0,0,1,2.38-1.7,2.94,2.94,0,0,1,2.3,1.22,6.57,6.57,0,0,1,1.07,2.45,15.06,15.06,0,0,1,.37,6.09,56.14,56.14,0,0,0,1.47-6.44,9.43,9.43,0,0,1,3.18-5.63c1.78-1.31,4.6-1.37,6,.35s.85,4.09,0,6a55.45,55.45,0,0,1-4.74,8,21.06,21.06,0,0,1,6.56-5.61c1.51-.82,3.6-1.38,4.78-.13s.47,3.42-.67,4.75c-2.06,2.39-5.08,3.69-8.06,4.68s-6.09,1.75-8.78,3.38C136.47,602.59,135.75,602,134.93,600.58Z"/><path class="cls-16" d="M140.13,599.14c2-4.39,3.87-8.83,5.82-13.23.08-.2,0-.24-.11,0-2.16,4.3-4.38,8.59-6.52,12.9C138.58,600.24,139.45,600.65,140.13,599.14Z"/><path class="cls-16" d="M138.64,597.62A105.66,105.66,0,0,1,144,581.78c.1-.23,0-.27-.1,0a100,100,0,0,0-6.08,15.65C137.25,599.23,138.19,599.47,138.64,597.62Z"/><path class="cls-16" d="M139.49,598.07c1.82-4.23,3.57-8.5,5.37-12.75.08-.19,0-.23-.11-.05-2,4.15-4.08,8.28-6.07,12.43C138,599.13,138.87,599.53,139.49,598.07Z"/><path class="cls-16" d="M140.57,598.39a40,40,0,0,0,6-10.59c.07-.17,0-.21-.1,0a41,41,0,0,1-6.6,10.06C139,598.82,139.67,599.48,140.57,598.39Z"/><path class="cls-16" d="M139.31,598.09a41.42,41.42,0,0,1,5.21-13.71c.11-.18,0-.24-.1-.06a40.88,40.88,0,0,0-6,13.58C138.06,599.58,139,599.73,139.31,598.09Z"/><path class="cls-16" d="M141.76,599.71a44.06,44.06,0,0,0,10.57-7c.14-.12.08-.21-.07-.09a45,45,0,0,1-10.86,6.24C140.08,599.41,140.42,600.31,141.76,599.71Z"/><path class="cls-16" d="M142.56,599.73a35.3,35.3,0,0,0,10.58-5.88c.14-.11.07-.2-.07-.1a35.75,35.75,0,0,1-10.78,5.13C141,599.23,141.22,600.17,142.56,599.73Z"/><path class="cls-16" d="M142.46,598.2a59.72,59.72,0,0,1,8.83-6.63c.14-.09.09-.18-.06-.1a57,57,0,0,0-9.35,6C140.89,598.33,141.53,599.05,142.46,598.2Z"/><path class="cls-17" d="M137.15,603.51c-3.29-2.26-6.66-4.6-8.93-7.88a6.65,6.65,0,0,1-1.26-2.88,3,3,0,0,1,1.07-2.83,3.7,3.7,0,0,1,3.82.11,8.27,8.27,0,0,1,4.22,6c.09-3.37.24-7,2.2-9.73a4.7,4.7,0,0,1,1.88-1.66,2.5,2.5,0,0,1,2.42.16c1,.71,1.11,2.1,1,3.3a19.15,19.15,0,0,1-3.11,8.93,11.31,11.31,0,0,1,4.82-4.32,4.92,4.92,0,0,1,2.21-.55,2.33,2.33,0,0,1,1.93,1.05c.62,1.08,0,2.44-.79,3.42C145.75,600.28,141.11,602,137.15,603.51Z"/><path class="cls-15" d="M137.31,603.47c.7-4.11,1.48-8.42,4.07-11.69a5.12,5.12,0,0,1,1.58-1.42,2.16,2.16,0,0,1,3.32,1.8,4.86,4.86,0,0,1-.45,2.36C144.27,598.28,140.75,600.81,137.31,603.47Z"/><path class="cls-15" d="M137.18,603.56a36.63,36.63,0,0,0-1-8.87,6.47,6.47,0,0,0-1.15-2.46,2.88,2.88,0,0,0-2.39-1.11,2.93,2.93,0,0,0-2.37,2.9,6.74,6.74,0,0,0,1.34,3.79A21.29,21.29,0,0,0,137.18,603.56Z"/><path class="cls-15" d="M137.42,603.36c4.36.85,9.05,1.67,13.09-.16a5.23,5.23,0,0,0,2-1.45,2.6,2.6,0,0,0,.5-2.36,2.66,2.66,0,0,0-1.8-1.6,6.32,6.32,0,0,0-2.49-.11A17.34,17.34,0,0,0,137.42,603.36Z"/><path class="cls-18" d="M139.11,601a27.11,27.11,0,0,1,1.65-6.71c0-.1-.06-.14-.11,0a26.26,26.26,0,0,0-2.43,6.62C138.06,601.63,139,601.75,139.11,601Z"/><path class="cls-18" d="M139.17,601.35c1.26-2.29,2.56-4.56,4-6.75.07-.1,0-.16-.09-.07-1.64,2.05-3.25,4.15-4.69,6.36C137.91,601.65,138.74,602.14,139.17,601.35Z"/><path class="cls-18" d="M139.52,601.83c1-1.36,2-2.76,3-4.12.05-.06,0-.13-.09-.08-1.19,1.21-2.43,2.39-3.61,3.61C138.44,601.66,139.17,602.29,139.52,601.83Z"/><path class="cls-18" d="M139.38,602.49c2.8-1.08,5.57-2.22,8.37-3.31.12,0,.08-.15,0-.11-2.87.87-5.76,1.68-8.63,2.57C138.1,601.94,138.42,602.85,139.38,602.49Z"/><path class="cls-18" d="M139.82,602.73a31.87,31.87,0,0,0,7.62-1.7c.11,0,.08-.14,0-.11a34.1,34.1,0,0,1-7.64.92C138.9,601.84,138.92,602.81,139.82,602.73Z"/><path class="cls-18" d="M139.38,603.07a18.13,18.13,0,0,0,6.57,0c.09,0,.08-.12,0-.12a18.27,18.27,0,0,1-6.35-.74C138.9,602,138.63,602.91,139.38,603.07Z"/><path class="cls-18" d="M137.11,601.21a39.89,39.89,0,0,1-2.36-6.88c0-.11-.13-.09-.11,0a37.38,37.38,0,0,0,1.63,7.19C136.56,602.34,137.45,602,137.11,601.21Z"/><path class="cls-18" d="M136.53,601.36c-1.07-1.86-2.2-3.68-3.29-5.52-.05-.08-.14,0-.1,0,.87,2,1.7,3.93,2.59,5.88A.46.46,0,1,0,136.53,601.36Z"/><path class="cls-18" d="M136.09,601.22c-1.42-1.48-2.9-2.92-4.34-4.39-.06-.06-.14,0-.08.08,1.25,1.63,2.47,3.29,3.74,4.9A.46.46,0,1,0,136.09,601.22Z"/><path class="cls-14" d="M136.43,604.12a26.42,26.42,0,0,1-2.06-3.81c-.13-.31-.25-.7,0-.94s.68-.12,1,.07a3.48,3.48,0,0,1,1.52,2.4,5,5,0,0,1,1.55-2.61.85.85,0,0,1,.84-.29c.4.17.37.75.23,1.16a8.46,8.46,0,0,1-1.26,2.42,4.09,4.09,0,0,1,3-1.12,1,1,0,0,1,.8.31.79.79,0,0,1-.15,1,2.24,2.24,0,0,1-1,.49A25,25,0,0,1,136.43,604.12Z"/><path class="cls-15" d="M103.44,599.94c-4.16-1.2-8.48-2.5-11.73-5.44a6.64,6.64,0,0,1-1.89-2.6,3,3,0,0,1,.46-3,2.92,2.92,0,0,1,2.54-.78,7,7,0,0,1,2.59,1.06,16.27,16.27,0,0,1,4.77,4.28,57.8,57.8,0,0,0-3.72-5.9A10.23,10.23,0,0,1,94.59,581c.3-2.28,2.28-4.39,4.54-4.11s3.63,2.44,4.47,4.5a61.16,61.16,0,0,1,2.51,9.46,22.06,22.06,0,0,1,.55-9c.48-1.73,1.57-3.67,3.34-3.61s2.87,2.22,3,4.06c.29,3.29-.91,6.48-2.32,9.41s-3.07,5.78-3.8,9C106,600.33,105.1,600.43,103.44,599.94Z"/><path class="cls-16" d="M106.11,595.06c-1.84-4.74-3.76-9.46-5.62-14.19-.08-.21-.18-.17-.11,0,1.63,4.81,3.21,9.65,4.86,14.45C105.81,597,106.74,596.68,106.11,595.06Z"/><path class="cls-16" d="M103.91,595A114.4,114.4,0,0,1,96,579.23c-.1-.24-.2-.2-.11,0a108.89,108.89,0,0,0,7.22,16.19C104.11,597.23,105,596.72,103.91,595Z"/><path class="cls-16" d="M104.86,594.72c-1.83-4.51-3.73-9-5.59-13.49-.08-.2-.18-.16-.11,0,1.63,4.59,3.2,9.19,4.84,13.77C104.56,596.61,105.49,596.26,104.86,594.72Z"/><path class="cls-16" d="M105.86,594.17a43.25,43.25,0,0,0-3.51-12.35c-.08-.17-.18-.13-.11,0A44.29,44.29,0,0,1,105,594.24C105,595.67,106,595.64,105.86,594.17Z"/><path class="cls-16" d="M104.74,594.87a45.07,45.07,0,0,1-6.4-14.09c-.06-.22-.17-.2-.12,0A44.65,44.65,0,0,0,104,595.37C105,596.9,105.75,596.32,104.74,594.87Z"/><path class="cls-16" d="M107.7,594.28a46.33,46.33,0,0,0,2.43-13c0-.19-.1-.2-.12,0a46.9,46.9,0,0,1-3.18,12.65C106.27,595.29,107.18,595.71,107.7,594.28Z"/><path class="cls-16" d="M108.29,593.72a36.54,36.54,0,0,0,3.24-12.17c0-.19-.09-.2-.12,0a36.76,36.76,0,0,1-4,11.74C106.79,594.5,107.65,595,108.29,593.72Z"/><path class="cls-16" d="M107.09,592.64a63.13,63.13,0,0,1,1.43-11.45c0-.16-.07-.19-.12,0a59.73,59.73,0,0,0-2.23,11.4C106.06,593.89,107.05,594,107.09,592.64Z"/><path class="cls-17" d="M107.2,600.51c-4,.72-8.18,1.44-12.24.65a7,7,0,0,1-3-1.24,3.31,3.31,0,0,1-1.33-2.9,3.74,3.74,0,0,1,2.83-2.72,8.51,8.51,0,0,1,7.49,1.42c-2.44-2.6-5-5.41-5.62-8.9a5,5,0,0,1,.12-2.63,2.5,2.5,0,0,1,1.86-1.66c1.22-.18,2.34.76,3.16,1.73a20.68,20.68,0,0,1,4.38,9,12,12,0,0,1,.27-6.77,5,5,0,0,1,1.18-2,2.35,2.35,0,0,1,2.16-.63c1.24.36,1.8,1.85,2,3.14C111,591.79,108.9,596.45,107.2,600.51Z"/><path class="cls-15" d="M107.29,600.36c-2.54-3.59-5.17-7.38-5.73-11.73a5.39,5.39,0,0,1,.08-2.23,2.42,2.42,0,0,1,1.38-1.62,2.48,2.48,0,0,1,2.34.53,5.26,5.26,0,0,1,1.42,2.1C108.45,591.37,107.79,595.85,107.29,600.36Z"/><path class="cls-15" d="M107.26,600.52a39.58,39.58,0,0,0-7.28-5.91,6.78,6.78,0,0,0-2.65-1,2.87,2.87,0,0,0-2.54.91,3.15,3.15,0,0,0,.45,3.91A7.14,7.14,0,0,0,99,600.31,21.57,21.57,0,0,0,107.26,600.52Z"/><path class="cls-15" d="M107.29,600.2c3.76-2.56,7.73-5.38,9.28-9.72a5.52,5.52,0,0,0,.37-2.57,2.82,2.82,0,0,0-1.38-2.14,2.72,2.72,0,0,0-2.48.13,6.32,6.32,0,0,0-1.87,1.74A18,18,0,0,0,107.29,600.2Z"/><path class="cls-18" d="M106.73,597.18a29.32,29.32,0,0,1-3.78-6.25c0-.1-.15-.06-.11,0a27.59,27.59,0,0,0,3.15,6.74C106.47,598.43,107.24,597.82,106.73,597.18Z"/><path class="cls-18" d="M107.06,597.41c-.79-2.63-1.54-5.3-2.12-8,0-.12-.13-.1-.12,0,.34,2.74.74,5.49,1.34,8.2C106.37,598.56,107.33,598.31,107.06,597.41Z"/><path class="cls-18" d="M107.66,597.51c-.26-1.77-.6-3.53-.88-5.3a.06.06,0,0,0-.12,0c0,1.78,0,3.57.08,5.35C106.76,598.18,107.75,598.12,107.66,597.51Z"/><path class="cls-18" d="M108,598.11c1.22-2.86,2.37-5.75,3.57-8.62,0-.12,0-.17-.11,0-1.42,2.76-2.89,5.49-4.29,8.25C106.73,598.64,107.63,599.09,108,598.11Z"/><path class="cls-18" d="M108.54,598a32.11,32.11,0,0,0,4.22-6.87c0-.1-.05-.16-.11-.06a33.75,33.75,0,0,1-4.8,6.29C107.23,598,108,598.69,108.54,598Z"/><path class="cls-18" d="M108.48,598.54a18.14,18.14,0,0,0,4.71-4.82c0-.08,0-.15-.1-.08a18.33,18.33,0,0,1-5.11,4.1A.48.48,0,1,0,108.48,598.54Z"/><path class="cls-18" d="M105.47,598.82a41.88,41.88,0,0,1-6.78-3.43c-.1-.06-.16,0-.07.1a39.59,39.59,0,0,0,6.5,4.19C105.91,600.07,106.27,599.14,105.47,598.82Z"/><path class="cls-18" d="M105.16,599.35c-2.14-.6-4.3-1.13-6.44-1.72-.09,0-.13.08,0,.12,2.07.82,4.13,1.7,6.2,2.5C105.61,600.52,105.89,599.56,105.16,599.35Z"/><path class="cls-18" d="M104.75,599.58c-2.12-.07-4.24-.06-6.36-.11-.1,0-.1.11,0,.12,2.11.3,4.21.65,6.32.92A.47.47,0,1,0,104.75,599.58Z"/><path class="cls-14" d="M107.14,601.5a26.82,26.82,0,0,1-4.3-1.35c-.32-.13-.7-.34-.71-.68s.39-.59.75-.66a3.59,3.59,0,0,1,2.87.68,5.39,5.39,0,0,1-.83-3.09.91.91,0,0,1,.39-.84c.42-.17.82.29,1,.7a9.46,9.46,0,0,1,.89,2.74,4.17,4.17,0,0,1,1.28-3,1,1,0,0,1,.8-.36.87.87,0,0,1,.65.87,2.47,2.47,0,0,1-.36,1.1A24.69,24.69,0,0,1,107.14,601.5Z"/><path class="cls-14" d="M639.83,865.89c.74-8.28,1.88-16.5,3-24.7s2.57-16.36,3.59-24.57,1.83-16.45,2.31-24.71.76-16.55.71-24.84a.11.11,0,0,1,.11-.11.13.13,0,0,1,.12.11q.52,12.43.19,24.89c-.26,8.3-.83,16.6-1.65,24.86s-1.7,16.54-3.14,24.72-3.05,16.31-5,24.39a.11.11,0,0,1-.14.08A.11.11,0,0,1,639.83,865.89Z"/><path class="cls-14" d="M635.58,731.4q1.24,16.76,2.26,33.53t1.7,33.6c.47,11.21,1.06,22.42,1.11,33.65s0,22.46-.59,33.69c0,.08-.06.15-.12.14s-.1-.06-.11-.14c-.68-11.21-1.07-22.41-1.44-33.61s-.39-22.41-.66-33.62-.6-22.41-1-33.61-.83-22.4-1.35-33.6a.15.15,0,0,1,.1-.17A.13.13,0,0,1,635.58,731.4Z"/><path class="cls-19" d="M657.53,763.32c3,3.71,6.09,7.75,6.42,12.5a5.13,5.13,0,0,1-.35,2.49,2.39,2.39,0,0,1-1.94,1.45c-.74,0-1.5-.37-2.2-.14-1.1.36-1.38,2-2.49,2.29-.83.22-1.61-.43-2.16-1.09s-1.11-1.42-2-1.55-1.6.42-2.41.31a2,2,0,0,1-1.53-1.38,4.87,4.87,0,0,1-.16-2.15A16.2,16.2,0,0,1,657.53,763.32Z"/><path class="cls-19" d="M656.83,764.54c-2.61,4-5.48,8.2-9.9,10a5.09,5.09,0,0,1-2.48.45,2.44,2.44,0,0,1-2-1.4c-.26-.7-.11-1.54-.54-2.14-.68-.94-2.33-.69-2.95-1.66a2.29,2.29,0,0,1,.37-2.39,3.49,3.49,0,0,0,.86-2.34c-.13-.8-.89-1.4-1-2.2a2.05,2.05,0,0,1,.84-1.89,5,5,0,0,1,2-.81A16.2,16.2,0,0,1,656.83,764.54Z"/><path class="cls-19" d="M655.45,764.26c-4.59-1.25-9.48-2.69-12.54-6.34a5.06,5.06,0,0,1-1.19-2.22,2.4,2.4,0,0,1,.72-2.31c.58-.46,1.43-.58,1.87-1.18.68-.93-.06-2.43.67-3.32a2.31,2.31,0,0,1,2.38-.38,3.58,3.58,0,0,0,2.49.1c.73-.38,1.06-1.28,1.78-1.67a2,2,0,0,1,2,.22,4.91,4.91,0,0,1,1.39,1.64A16.2,16.2,0,0,1,655.45,764.26Z"/><path class="cls-19" d="M655.3,762.86c-.23-4.76-.38-9.85,2.15-13.88a5.07,5.07,0,0,1,1.74-1.82,2.41,2.41,0,0,1,2.42,0c.62.41,1,1.18,1.7,1.41,1.1.36,2.29-.81,3.37-.39.79.31,1,1.3,1.1,2.15a3.51,3.51,0,0,0,.67,2.4c.59.57,1.55.61,2.14,1.17a2,2,0,0,1,.42,2,4.84,4.84,0,0,1-1.13,1.83A16.18,16.18,0,0,1,655.3,762.86Z"/><path class="cls-19" d="M656.58,762.28c4.45-1.69,9.25-3.4,13.87-2.24a4.92,4.92,0,0,1,2.26,1.09,2.42,2.42,0,0,1,.78,2.3c-.19.71-.81,1.31-.81,2.05,0,1.15,1.47,1.93,1.41,3.08-.05.85-.92,1.39-1.71,1.71a3.51,3.51,0,0,0-2.07,1.38c-.36.74-.1,1.66-.46,2.39a2.05,2.05,0,0,1-1.79,1,5,5,0,0,1-2.09-.52A16.19,16.19,0,0,1,656.58,762.28Z"/><path class="cls-20" d="M656.17,762.82c-3.06-3.34-6.22-6.63-9.28-10,0,0-.06,0,0,0,1.28,1.88,2.55,3.8,3.92,5.64a40.64,40.64,0,0,0,4.5,5.21C655.68,764.12,656.55,763.24,656.17,762.82Z"/><path class="cls-20" d="M656.37,762.84a24.24,24.24,0,0,0-5.11-7.72s-.06,0,0,0a36,36,0,0,1,2.1,4.1c.62,1.4,1.21,2.79,1.9,4.12C655.39,763.71,656.52,763.21,656.37,762.84Z"/><path class="cls-20" d="M657.19,762.09a16.68,16.68,0,0,0-1.39-5.4,17.75,17.75,0,0,0-3-4.66s-.06,0,0,0a19.71,19.71,0,0,1,2.09,5,50.7,50.7,0,0,1,1.07,5.18C656,762.68,657.22,762.57,657.19,762.09Z"/><path class="cls-20" d="M656.75,763.86a43.41,43.41,0,0,1,1.44-6.06,36.5,36.5,0,0,1,2.39-5.8s0,0-.05,0a30.83,30.83,0,0,0-3.31,5.48,19.21,19.21,0,0,0-1.73,6.25C655.44,764.25,656.67,764.37,656.75,763.86Z"/><path class="cls-20" d="M657.36,763.46c2.07-3.31,4.07-6.7,6.17-10,0,0,0-.06,0,0-1.31,1.47-2.66,2.94-3.91,4.49a29.65,29.65,0,0,0-3.32,4.94C656,763.27,657.09,763.88,657.36,763.46Z"/><path class="cls-20" d="M657.66,763.59a16.74,16.74,0,0,0,4.87-3.29,18,18,0,0,0,3.49-4.68s0,0,0,0a19.8,19.8,0,0,1-4.13,3.95,41.57,41.57,0,0,1-4.74,2.91C656.69,762.67,657.2,763.8,657.66,763.59Z"/><path class="cls-20" d="M657.45,763.47a19.67,19.67,0,0,0,4.1,4.77,21.23,21.23,0,0,0,5.31,3.3s0,0,0-.06a22.6,22.6,0,0,1-4.65-4,52.19,52.19,0,0,1-3.73-4.72C658.22,762.36,657.17,763,657.45,763.47Z"/><path class="cls-20" d="M657.86,763.19a15.9,15.9,0,0,0,3.92,2.67,17.54,17.54,0,0,0,4.47,1.49s0-.05,0-.06a20.11,20.11,0,0,1-4-2.33c-1.25-.89-2.4-1.84-3.59-2.75C658.38,762,657.56,762.91,657.86,763.19Z"/><path class="cls-20" d="M658.67,763.81a30.09,30.09,0,0,1,5,.46,25.69,25.69,0,0,1,4.89,1.4s0,0,0-.06a22.33,22.33,0,0,0-4.69-2.34,13.32,13.32,0,0,0-5.28-.74C658.16,762.57,658.25,763.8,658.67,763.81Z"/><path class="cls-20" d="M657.66,762.88a33.9,33.9,0,0,1,5-.52,28.3,28.3,0,0,1,5.11.32s0,0,0-.06a24.23,24.23,0,0,0-5.11-1.29,13.93,13.93,0,0,0-5.34.31C656.94,761.75,657.24,763,657.66,762.88Z"/><path class="cls-20" d="M656.44,763.12a27.93,27.93,0,0,0-2.85,6.15,31.35,31.35,0,0,0-1.38,6.61s.06,0,.06,0a35.34,35.34,0,0,1,2.29-6.27c.93-2,2-3.94,3-5.87C657.8,763.27,656.74,762.63,656.44,763.12Z"/><path class="cls-20" d="M656.45,763.14a90.36,90.36,0,0,0,.08,11.4s.06,0,.06,0c.42-3.78,1.2-7.57,1.14-11.37C657.72,762.69,656.49,762.66,656.45,763.14Z"/><path class="cls-20" d="M656.78,763.54a43.07,43.07,0,0,1,1.68,6,36.11,36.11,0,0,1,.68,6.24s.06,0,.07,0a31,31,0,0,0,.26-6.4,18.92,18.92,0,0,0-1.51-6.32C657.74,762.56,656.61,763.05,656.78,763.54Z"/><path class="cls-20" d="M657.15,764a20.68,20.68,0,0,1,2.63,5,19.28,19.28,0,0,1,1.11,5.65s.05,0,.06,0a17.62,17.62,0,0,0-.19-6,12.9,12.9,0,0,0-2.6-5.52C657.82,762.79,656.88,763.59,657.15,764Z"/><path class="cls-20" d="M656.54,762.65a16.3,16.3,0,0,0-4.56-1.34,18.28,18.28,0,0,0-4.73,0s0,.06,0,.06a20.86,20.86,0,0,1,4.54,1c1.47.47,2.86,1,4.27,1.51C656.42,764,656.91,762.82,656.54,762.65Z"/><path class="cls-20" d="M657.1,762.7a26,26,0,0,0-10.66,2.83s0,.06,0,.06a32.17,32.17,0,0,1,5.38-1.05c1.8-.22,3.59-.36,5.36-.57C657.64,763.91,657.57,762.68,657.1,762.7Z"/><path class="cls-20" d="M656.12,763.68a32.09,32.09,0,0,1-5.28,3,28.66,28.66,0,0,1-5.83,1.92s0,.06,0,.06a25.2,25.2,0,0,0,6.21-1,16.57,16.57,0,0,0,5.67-3C657.32,764.35,656.54,763.39,656.12,763.68Z"/><path class="cls-20" d="M657,762.56a23.5,23.5,0,0,0-6.9-.38,25,25,0,0,0-6.7,1.57s0,.06,0,.06a26.91,26.91,0,0,1,6.74-.6,57.94,57.94,0,0,1,6.62.61C657.35,763.89,657.6,762.68,657,762.56Z"/><circle class="cls-21" cx="656.54" cy="762.46" r="3.7"/><path class="cls-19" d="M633.86,726.89c1.11,4.63,2.2,9.61.47,14A5,5,0,0,1,633,743a2.41,2.41,0,0,1-2.37.48c-.69-.29-1.2-1-1.93-1.07-1.15-.15-2.1,1.22-3.24,1-.83-.16-1.26-1.08-1.48-1.91a3.51,3.51,0,0,0-1.11-2.23c-.68-.45-1.63-.31-2.31-.76a2,2,0,0,1-.8-1.9,5,5,0,0,1,.78-2A16.19,16.19,0,0,1,633.86,726.89Z"/><path class="cls-19" d="M632.71,727.7c-4.06,2.48-8.46,5.06-13.21,4.78a5,5,0,0,1-2.43-.66,2.38,2.38,0,0,1-1.19-2.11c.06-.74.56-1.44.42-2.16-.22-1.14-1.81-1.62-2-2.77-.11-.84.64-1.54,1.36-2s1.55-.92,1.78-1.74-.21-1.65,0-2.43a2,2,0,0,1,1.57-1.35,4.91,4.91,0,0,1,2.15.12A16.16,16.16,0,0,1,632.71,727.7Z"/><path class="cls-19" d="M631.59,726.85c-3.62-3.09-7.43-6.48-8.63-11.09a5,5,0,0,1-.13-2.51,2.39,2.39,0,0,1,1.64-1.78c.72-.18,1.54.08,2.19-.27,1-.56,1-2.23,2-2.72a2.31,2.31,0,0,1,2.32.67,3.51,3.51,0,0,0,2.21,1.16c.82,0,1.5-.71,2.32-.75a2,2,0,0,1,1.76,1.07,4.84,4.84,0,0,1,.55,2.08A16.17,16.17,0,0,1,631.59,726.85Z"/><path class="cls-19" d="M632,725.52c1.83-4.4,3.87-9.07,7.88-11.63a5,5,0,0,1,2.35-.9,2.38,2.38,0,0,1,2.2,1c.39.63.4,1.49.94,2,.84.79,2.42.24,3.21,1.08a2.32,2.32,0,0,1,.07,2.42,3.55,3.55,0,0,0-.41,2.46c.28.76,1.13,1.2,1.43,2a2,2,0,0,1-.48,2,4.76,4.76,0,0,1-1.81,1.17A16.18,16.18,0,0,1,632,725.52Z"/><path class="cls-19" d="M633.45,725.54c4.75.38,9.82.88,13.5,3.9a5,5,0,0,1,1.58,2,2.42,2.42,0,0,1-.28,2.41c-.48.56-1.29.83-1.61,1.5-.49,1.05.51,2.38,0,3.39a2.32,2.32,0,0,1-2.27.82,3.51,3.51,0,0,0-2.47.36c-.64.51-.8,1.46-1.43,2a2.08,2.08,0,0,1-2.06.17,5,5,0,0,1-1.67-1.36A16.19,16.19,0,0,1,633.45,725.54Z"/><path class="cls-20" d="M632.85,725.86c-1.34-4.33-2.79-8.65-4.12-13,0,0-.07,0-.06,0,.35,2.25.68,4.53,1.13,6.78a41,41,0,0,0,1.84,6.63C631.85,726.82,633,726.4,632.85,725.86Z"/><path class="cls-20" d="M633,726a24.11,24.11,0,0,0-1.32-9.16s-.07,0-.06,0a35.51,35.51,0,0,1,.14,4.61c0,1.53-.09,3,0,4.53C631.76,726.33,633,726.36,633,726Z"/><path class="cls-20" d="M634.08,725.63a16.71,16.71,0,0,0,1.06-5.47,18.15,18.15,0,0,0-.71-5.5s-.07,0-.06,0a19.56,19.56,0,0,1-.26,5.41,50.87,50.87,0,0,1-1.24,5.15C632.75,725.66,633.91,726.08,634.08,725.63Z"/><path class="cls-20" d="M632.93,727a42.26,42.26,0,0,1,3.89-4.86,36.44,36.44,0,0,1,4.64-4.22s0-.06,0-.05a31.9,31.9,0,0,0-5.34,3.54,19.49,19.49,0,0,0-4.23,4.91C631.58,726.84,632.64,727.47,632.93,727Z"/><path class="cls-20" d="M633.65,726.94c3.29-2.11,6.54-4.32,9.86-6.42,0,0,0-.07,0-.06-1.81.77-3.65,1.52-5.45,2.39a30.27,30.27,0,0,0-5.11,3C632.52,726.2,633.23,727.21,633.65,726.94Z"/><path class="cls-20" d="M633.87,727.19a16.92,16.92,0,0,0,5.81-.89,18.21,18.21,0,0,0,5.15-2.74s0-.07,0-.06a19.33,19.33,0,0,1-5.42,1.81,43.49,43.49,0,0,1-5.53.61C633.39,726,633.36,727.18,633.87,727.19Z"/><path class="cls-20" d="M633.73,727a19.79,19.79,0,0,0,1.67,6.07,21.76,21.76,0,0,0,3.39,5.25s.07,0,.05,0a22.84,22.84,0,0,1-2.49-5.61,51,51,0,0,1-1.36-5.85C634.9,726.32,633.68,726.46,633.73,727Z"/><path class="cls-20" d="M634.22,726.91a16.33,16.33,0,0,0,2.4,4.09,17.83,17.83,0,0,0,3.41,3.26s.06,0,0,0a21.23,21.23,0,0,1-2.62-3.82c-.74-1.34-1.38-2.7-2.07-4C635.21,726.05,634.07,726.53,634.22,726.91Z"/><path class="cls-20" d="M634.68,727.82a29.5,29.5,0,0,1,4.33,2.56,24.72,24.72,0,0,1,3.82,3.35s.06,0,0,0a21.15,21.15,0,0,0-3.24-4.12,13.26,13.26,0,0,0-4.45-2.93C634.76,726.48,634.31,727.63,634.68,727.82Z"/><path class="cls-20" d="M634.17,726.55a33.88,33.88,0,0,1,4.78,1.68,28.48,28.48,0,0,1,4.49,2.47s0,0,0,0a23.66,23.66,0,0,0-4.07-3.35,14.14,14.14,0,0,0-5-2C634,725.22,633.76,726.43,634.17,726.55Z"/><path class="cls-20" d="M633,726.24a28.39,28.39,0,0,0-5.2,4.35,31.25,31.25,0,0,0-4.07,5.39s0,0,0,0a35.75,35.75,0,0,1,4.75-4.7c1.7-1.42,3.46-2.72,5.2-4C634.13,727,633.45,725.93,633,726.24Z"/><path class="cls-20" d="M633,726.27a89.84,89.84,0,0,0-4.8,10.34s0,0,.05,0c2-3.24,4.32-6.34,5.89-9.8C634.31,726.4,633.2,725.85,633,726.27Z"/><path class="cls-20" d="M633.09,726.77a42.56,42.56,0,0,1-1,6.14,35.26,35.26,0,0,1-2,5.93s0,0,.06,0a30.31,30.31,0,0,0,3-5.68,18.88,18.88,0,0,0,1.34-6.35C634.38,726.29,633.14,726.25,633.09,726.77Z"/><path class="cls-20" d="M633.24,727.32a20.84,20.84,0,0,1,.22,5.69,18.85,18.85,0,0,1-1.41,5.58s0,0,.05,0a17.38,17.38,0,0,0,2.38-5.48,12.71,12.71,0,0,0,0-6.1C634.35,726.53,633.16,726.85,633.24,727.32Z"/><path class="cls-20" d="M633.26,725.86a16.22,16.22,0,0,0-3.55-3.16,18.2,18.2,0,0,0-4.27-2s0,0,0,.05a20.88,20.88,0,0,1,3.69,2.83c1.12,1,2.14,2.14,3.21,3.19C632.59,727,633.52,726.17,633.26,725.86Z"/><path class="cls-20" d="M633.74,726.14a26.08,26.08,0,0,0-10.85-2s0,.06,0,.06a33.05,33.05,0,0,1,5.31,1.35c1.72.58,3.39,1.21,5.09,1.77C633.71,727.48,634.17,726.33,633.74,726.14Z"/><path class="cls-20" d="M632.44,726.62a33.29,33.29,0,0,1-6.07.48,28.52,28.52,0,0,1-6.09-.76s0,0,0,.06a25.12,25.12,0,0,0,6.06,1.72,16.58,16.58,0,0,0,6.39-.26C633.24,727.73,632.94,726.53,632.44,726.62Z"/><path class="cls-20" d="M633.73,726a23.17,23.17,0,0,0-6.07-3.29,24.46,24.46,0,0,0-6.72-1.44s0,0,0,.06a27.15,27.15,0,0,1,6.35,2.33A60.11,60.11,0,0,1,633,727C633.46,727.33,634.2,726.34,633.73,726Z"/><circle class="cls-21" cx="633.34" cy="725.69" r="3.7"/><path class="cls-9" d="M.1,935.25h0L0,935.05Z"/></g></g></svg>