<svg xmlns="http://www.w3.org/2000/svg" viewBox="0 0 1600 625"><defs><style>.cls-1{fill:#bfe6ee;}.cls-2{fill:#3a7541;}.cls-3{fill:#f9d688;}.cls-4{fill:#f5bc6e;}.cls-5{fill:#499153;}.cls-6{fill:#3d7f31;}.cls-7{fill:#fff;}.cls-8{fill:#fabd28;}.cls-9{fill:#78b076;}.cls-10{fill:#2a436c;}.cls-11{fill:#0e2446;}.cls-12{fill:#64a663;}.cls-13{fill:#0b6052;}.cls-14{fill:#ff9019;}.cls-15{fill:#f65b00;}.cls-16{fill:#fffdfa;}.cls-17{fill:#5a2c04;}.cls-18{fill:#ffe428;}.cls-19{fill:#ff9300;}.cls-20{fill:#fd9aa6;}.cls-21{fill:#ff80aa;}.cls-22{fill:#f8778b;}.cls-23{fill:#fb709f;}.cls-24{fill:#f95d92;}.cls-25{fill:#f73582;}.cls-26{fill:#f9b800;}</style></defs><g id="Livello_2" data-name="Livello 2"><g id="colline"><rect class="cls-1" width="1600" height="274"/><path class="cls-2" d="M1600,135.59V467H0V95.51l1-.16a271.21,271.21,0,0,1,47.83-3.19c46.31.94,91.82,13,137,29.9C224,136.34,262,154.07,300,171.48c26.56,12.16,53.16,24.15,79.9,34.7a791.62,791.62,0,0,0,138.35,40.66q33.91,6.66,68.1,10.16a717.59,717.59,0,0,0,147.26,0,695.74,695.74,0,0,0,173.08-40.82c108.2-40.68,209.75-108.78,318-149.34,65.81-24.67,136.49-38.18,204-28.9,43.5,6,85.69,21.44,124.41,49.48q7.55,5.46,14.51,11.63A202.73,202.73,0,0,1,1599,134.19Z"/><path class="cls-3" d="M950.31,324.31c18.74,15.72,36.68,35.07,53.88,55.23,19.94,23.35,59,7.64,81.88,2.68,6.22-1.35,30.41-3.53,31.85-19.86,1.9-21.71-29.87-30.38-37.77-34.31-15.67-7.77-31.31-16.68-47.21-22.2-20.72-7.19-42.09-13.64-61.68-27.74-15.33-11-31-17.92-40.32-42.2A67,67,0,0,1,926.17,210c-7.9,2.15-15.65,4.16-22.56,7.53-6.34,18.94-8,41-.19,62C912.61,304.24,935.8,312.14,950.31,324.31Z"/><path class="cls-4" d="M917.16,232.35c-.85-6.11-6-9.26-8.4-4-2.63,5.76-5.2,17.05-2.68,23.92,1.56,4.26,4.76,6.25,7.34,3.44s3.16-6.45,3.69-11.21A50.22,50.22,0,0,0,917.16,232.35Z"/><path class="cls-4" d="M926.42,254.19c-.56-2.24-2.19-3.56-3.48-3.56s-2.93,1.32-3.49,3.56a16.31,16.31,0,0,0-.64,4.28,23,23,0,0,0,.19,3c.34,3,2.25,5.48,3.94,5.35s3.57-2.14,3.93-5.35a23,23,0,0,0,.2-3A16.74,16.74,0,0,0,926.42,254.19Z"/><path class="cls-4" d="M1004.42,342.35c-6-1.34-10.78,2.36-6.66,6.48,4.48,4.48,14.15,10.85,21.47,10.9,4.54,0,7.52-2.27,5.79-5.67s-4.93-5.22-9.2-7.39A49.93,49.93,0,0,0,1004.42,342.35Z"/><path class="cls-4" d="M1028.12,341.34c-2.3-.27-4.1.79-4.56,2s.21,3.2,2.12,4.51a16.16,16.16,0,0,0,3.77,2.1,25.09,25.09,0,0,0,2.88.88c2.92.73,5.93-.18,6.39-1.82s-.75-4.09-3.63-5.56a24.09,24.09,0,0,0-2.74-1.23A16.32,16.32,0,0,0,1028.12,341.34Z"/><path class="cls-4" d="M949.42,285.35c-6-1.34-10.78,2.36-6.66,6.48,4.48,4.48,14.15,10.85,21.47,10.9,4.54,0,7.52-2.27,5.79-5.67s-4.93-5.22-9.2-7.39A49.93,49.93,0,0,0,949.42,285.35Z"/><path class="cls-4" d="M999.12,314.34c-2.3-.27-4.1.79-4.56,2s.21,3.2,2.12,4.51a16.16,16.16,0,0,0,3.77,2.1,25.09,25.09,0,0,0,2.88.88c2.92.73,5.93-.18,6.39-1.82s-.75-4.09-3.63-5.56a24.09,24.09,0,0,0-2.74-1.23A16.32,16.32,0,0,0,999.12,314.34Z"/><path class="cls-5" d="M1600,222.05V625H0V311.18A235.48,235.48,0,0,1,30.6,257a188.85,188.85,0,0,1,44.87-42.31c68-45.64,146.88-54.62,224.57-43.21,33.13,4.88,66,13.46,97.8,24.49,40.87,14.2,80.78,32.1,120.45,50.87Q529,251.9,539.61,257C595.87,284,651.94,311.61,710,331.82c168.14,58.59,349.59,52.17,517.11-9.09,54-19.74,107.4-45.05,161.1-65.73,69.19-26.65,138.86-45.62,210.84-35.09Z"/><path class="cls-6" d="M1320.58,143.91a1.25,1.25,0,0,0-.87-2.11H1319a3,3,0,0,0-1.34-.12,4.68,4.68,0,0,0-2.16.44,14.2,14.2,0,0,0-2.12.9,29,29,0,0,0-3.12,2c-.24.17-.44.36-.66.54,0-.06,0-.13,0-.2.36-1.62.67-3.22.87-4.88.16-1.41.51-3.14-.07-4.52a5.05,5.05,0,0,0-.06-.68,1.55,1.55,0,0,0-.24-.78l-.72-.91c0-.59-.89-.88-1.15-.32a5,5,0,0,1-1,.48,1.61,1.61,0,0,0-.59.54,4.93,4.93,0,0,0-.42.66,8.32,8.32,0,0,0-1.93,3.53,36.16,36.16,0,0,0-1.21,3.69l-.92,3.59c-.1.42-.21.83-.33,1.25-.44-.42-.88-.84-1.35-1.24a13.82,13.82,0,0,0-1.71-1.34,7.3,7.3,0,0,0-2-.88,3.47,3.47,0,0,0-3.32.88,3.38,3.38,0,0,0-.88,3.32,9.7,9.7,0,0,0,.53,1.29,9,9,0,0,0,.92,1.23,8.23,8.23,0,0,0,1,1c.67.64,1.35,1.27,2.07,1.85l.78.61a2.82,2.82,0,0,0,1.45.46,2,2,0,0,0,1,0,2.75,2.75,0,0,0,.94-.22c.09,0,.18,0,.26,0a3.19,3.19,0,0,0,1.23-.71,1.92,1.92,0,0,0,.22.18,3.28,3.28,0,0,0,2.45.41,6.23,6.23,0,0,0,.5.68l-.09-.16a1.53,1.53,0,0,0,1.24.73c.14,0,.08.1.14.11a3.58,3.58,0,0,0,1.69,0,4.4,4.4,0,0,0,1.84-1.1c.43-.4.83-.83,1.23-1.26.8-.87,1.68-1.64,2.5-2.49a28.49,28.49,0,0,1,2.48-2.31c.45-.37.86-.77,1.29-1.16a5.53,5.53,0,0,0,1.42-1.6,3.62,3.62,0,0,0,.42-.74Z"/><path class="cls-6" d="M1544.15,381a2.5,2.5,0,0,0-.74-.68,3.22,3.22,0,0,0-2.15-.86l-.79-.08c-.11,0-.89-.16-.52-.08.53.13-1-.12-1.2-.13H1538c-.53,0-1,0-1.58,0a27.42,27.42,0,0,0-3.83.46,6,6,0,0,0-2.06.68,2.23,2.23,0,0,0-.24.19l0-.14c.13-.57.27-1.15.4-1.72s.27-1.07.44-1.59c.09-.26.19-.51.28-.77v0l0,0c.33-.72.57-1.45.85-2.18.11-.31.11-.31.07-.23a5.08,5.08,0,0,0,.28-1v0a7.75,7.75,0,0,0,.53-2.31c0-.1,0-.19.09-.29.45-1.1-.82-2-1.78-1.78l-.08,0-.41-.05a3.23,3.23,0,0,0-1,.2,9,9,0,0,0-1.53.65,8.68,8.68,0,0,0-3.67,3.16,17.68,17.68,0,0,0-1.79,3.17,15.53,15.53,0,0,0-1,3.19,26.31,26.31,0,0,0-3.2-3.14,12,12,0,0,0-2-1.42,7.19,7.19,0,0,0-2.37-1,.76.76,0,0,0-.15,0,1.7,1.7,0,0,0-.35-.14,2.92,2.92,0,0,0-.82-.17H1513a12.44,12.44,0,0,0-1.93-.26,1.49,1.49,0,0,0-1.27,2.22,7.26,7.26,0,0,0,.8,1.28c.07.11.07.08,0-.08s-.06-.19.07.15a3.81,3.81,0,0,0,.52.84,2.43,2.43,0,0,0,.34.73c.12.15.24.3.35.46s0,0,.06.07c.24.32.46.65.69,1,.56.77,1.2,1.48,1.81,2.22.44.59.87,1.2,1.28,1.82.23.35.48.68.72,1a14.08,14.08,0,0,0,1.35,1.8,3.81,3.81,0,0,0,3.79,1,9.64,9.64,0,0,0,1.2-.57,4,4,0,0,0,3.55,1.4,4.11,4.11,0,0,0,3.29-2.81,3.36,3.36,0,0,0,1.25.93,5.48,5.48,0,0,0,2.47.31,29.32,29.32,0,0,0,4-.55,13.47,13.47,0,0,0,3.47-1l.3-.14.74-.28a4.76,4.76,0,0,0,1.33-.62,2.48,2.48,0,0,0,.65-.81,2.45,2.45,0,0,0,.52-.82A.66.66,0,0,0,1544.15,381Z"/><path class="cls-6" d="M1540.83,384.85l-.06,0C1540.6,385,1540.49,385,1540.83,384.85Z"/><path class="cls-7" d="M509.89,536.7a4.4,4.4,0,0,0-.7-2.21,10.86,10.86,0,0,0-3.76-3.65,13.5,13.5,0,0,0-3.37-1.59l-.08,0c.63-.79,1.26-1.58,1.88-2.38a9.78,9.78,0,0,0,2.12-3.3,11.2,11.2,0,0,0,.24-1.82,3.47,3.47,0,0,0,0-.72,5.07,5.07,0,0,0-1.4-3.36,4.56,4.56,0,0,0-3.36-1.4,9,9,0,0,0-1.79.32,16.25,16.25,0,0,0-1.62.67,8.1,8.1,0,0,0-2.71,2.78l-1.45,1.92a5.92,5.92,0,0,0-1.12-1.45,12.9,12.9,0,0,0-2.09-1.6,7.08,7.08,0,0,0-7,0,7,7,0,0,0-2.49,2.49,6.83,6.83,0,0,0-.94,3.5,8.79,8.79,0,0,0,1.07,4.45,9.61,9.61,0,0,0,.53.87l.66,1c.17.22.35.49.53.75l-1.26.25c-.86.19-1.7.48-2.55.69l-1.35.3a5.79,5.79,0,0,0-2.25,1.11,6.43,6.43,0,0,0-2.17,3.2,5.76,5.76,0,0,0,1.48,5.6,6.21,6.21,0,0,0,2.72,1.62,6.4,6.4,0,0,0,3.39,0l1.35-.31a20.47,20.47,0,0,0,2.65-.75c.32-.12.64-.27,1-.41-.07.49-.15,1-.2,1.45-.21,2-.44,3.89.74,5.7a5.62,5.62,0,0,0,4.13,2.7,5.51,5.51,0,0,0,4.74-1.56c1.66-1.64,1.88-3.61,2.11-5.8.09-.82.19-1.63.21-2.46l.07-2.45c0-.1,0-.21,0-.31l.12.09-.12-.1v0c.4.31.78.63,1.2.9l.61.43a7.51,7.51,0,0,0,1,.72,10.87,10.87,0,0,0,1.86.77l1.58.21,1.59-.21,1.42-.6a4.58,4.58,0,0,0,1.67-1.54,5.92,5.92,0,0,0,1.17-4.4Z"/><path class="cls-8" d="M492,527.18c-7.44,0-7.45,11.57,0,11.57S499.44,527.18,492,527.18Z"/><path class="cls-7" d="M732.89,428.7a4.4,4.4,0,0,0-.7-2.21,10.86,10.86,0,0,0-3.76-3.65,13.5,13.5,0,0,0-3.37-1.59l-.08,0c.63-.79,1.26-1.58,1.88-2.38a9.78,9.78,0,0,0,2.12-3.3,11.2,11.2,0,0,0,.24-1.82,3.47,3.47,0,0,0,0-.72,5.07,5.07,0,0,0-1.4-3.36,4.56,4.56,0,0,0-3.36-1.4,9,9,0,0,0-1.79.32,16.25,16.25,0,0,0-1.62.67,8.1,8.1,0,0,0-2.71,2.78l-1.45,1.92a5.92,5.92,0,0,0-1.12-1.45,12.9,12.9,0,0,0-2.09-1.6,7.08,7.08,0,0,0-7,0,7,7,0,0,0-2.49,2.49,6.83,6.83,0,0,0-.94,3.5,8.79,8.79,0,0,0,1.07,4.45,9.61,9.61,0,0,0,.53.87l.66,1c.17.22.35.49.53.75l-1.26.25c-.86.19-1.7.48-2.55.69l-1.35.3a5.79,5.79,0,0,0-2.25,1.11,6.43,6.43,0,0,0-2.17,3.2,5.76,5.76,0,0,0,1.48,5.6,6.21,6.21,0,0,0,2.72,1.62,6.4,6.4,0,0,0,3.39,0l1.35-.31a20.47,20.47,0,0,0,2.65-.75c.32-.12.64-.27,1-.41-.07.49-.15,1-.2,1.45-.21,2-.44,3.89.74,5.7a5.62,5.62,0,0,0,4.13,2.7,5.51,5.51,0,0,0,4.74-1.56c1.66-1.64,1.88-3.61,2.11-5.8.09-.82.19-1.63.21-2.46l.07-2.45c0-.1,0-.21,0-.31l.12.09-.12-.1v0c.4.31.78.63,1.2.9l.61.43a7.51,7.51,0,0,0,1,.72,10.87,10.87,0,0,0,1.86.77l1.58.21,1.59-.21,1.42-.6a4.58,4.58,0,0,0,1.67-1.54,5.92,5.92,0,0,0,1.17-4.4Z"/><path class="cls-8" d="M715,419.18c-7.44,0-7.45,11.57,0,11.57S722.44,419.18,715,419.18Z"/><path class="cls-7" d="M973.89,561.7a4.4,4.4,0,0,0-.7-2.21,10.86,10.86,0,0,0-3.76-3.65,13.5,13.5,0,0,0-3.37-1.59l-.08,0c.63-.79,1.26-1.58,1.88-2.38a9.78,9.78,0,0,0,2.12-3.3,11.2,11.2,0,0,0,.24-1.82,3.47,3.47,0,0,0,0-.72,5.07,5.07,0,0,0-1.4-3.36,4.56,4.56,0,0,0-3.36-1.4,9,9,0,0,0-1.79.32,16.25,16.25,0,0,0-1.62.67,8.1,8.1,0,0,0-2.71,2.78l-1.45,1.92a5.92,5.92,0,0,0-1.12-1.45,12.9,12.9,0,0,0-2.09-1.6,7.08,7.08,0,0,0-7,0,7,7,0,0,0-2.49,2.49,6.83,6.83,0,0,0-.94,3.5,8.79,8.79,0,0,0,1.07,4.45,9.61,9.61,0,0,0,.53.87l.66,1c.17.22.35.49.53.75l-1.26.25c-.86.19-1.7.48-2.55.69l-1.35.3a5.79,5.79,0,0,0-2.25,1.11,6.43,6.43,0,0,0-2.17,3.2,5.76,5.76,0,0,0,1.48,5.6,6.21,6.21,0,0,0,2.72,1.62,6.4,6.4,0,0,0,3.39,0l1.35-.31a20.47,20.47,0,0,0,2.65-.75c.32-.12.64-.27,1-.41-.07.49-.15,1-.2,1.45-.21,2-.44,3.89.74,5.7a5.62,5.62,0,0,0,4.13,2.7,5.51,5.51,0,0,0,4.74-1.56c1.66-1.64,1.88-3.61,2.11-5.8.09-.82.19-1.63.21-2.46l.07-2.45c0-.1,0-.21,0-.31l.12.09-.12-.1v0c.4.31.78.63,1.2.9l.61.43a7.51,7.51,0,0,0,1,.72,10.87,10.87,0,0,0,1.86.77l1.58.21,1.59-.21,1.42-.6a4.58,4.58,0,0,0,1.67-1.54,5.92,5.92,0,0,0,1.17-4.4Z"/><path class="cls-8" d="M956,552.18c-7.44,0-7.45,11.57,0,11.57S963.44,552.18,956,552.18Z"/><path class="cls-7" d="M227.89,297.7a4.4,4.4,0,0,0-.7-2.21,10.86,10.86,0,0,0-3.76-3.65,13.5,13.5,0,0,0-3.37-1.59l-.08,0c.63-.79,1.26-1.58,1.88-2.38a9.78,9.78,0,0,0,2.12-3.3,11.2,11.2,0,0,0,.24-1.82,3.47,3.47,0,0,0,0-.72,5.07,5.07,0,0,0-1.4-3.36,4.56,4.56,0,0,0-3.36-1.4,9,9,0,0,0-1.79.32,16.25,16.25,0,0,0-1.62.67,8.1,8.1,0,0,0-2.71,2.78l-1.45,1.92a5.92,5.92,0,0,0-1.12-1.45,12.9,12.9,0,0,0-2.09-1.6,7.08,7.08,0,0,0-7,0,7,7,0,0,0-2.49,2.49,6.83,6.83,0,0,0-.94,3.5,8.79,8.79,0,0,0,1.07,4.45,9.61,9.61,0,0,0,.53.87l.66,1c.17.22.35.49.53.75l-1.26.25c-.86.19-1.7.48-2.55.69l-1.35.3a5.79,5.79,0,0,0-2.25,1.11,6.43,6.43,0,0,0-2.17,3.2,5.76,5.76,0,0,0,1.48,5.6,6.21,6.21,0,0,0,2.72,1.62,6.4,6.4,0,0,0,3.39,0l1.35-.31a20.47,20.47,0,0,0,2.65-.75c.32-.12.64-.27,1-.41-.07.49-.15,1-.2,1.45-.21,2-.44,3.89.74,5.7a5.62,5.62,0,0,0,4.13,2.7,5.51,5.51,0,0,0,4.74-1.56c1.66-1.64,1.88-3.61,2.11-5.8.09-.82.19-1.63.21-2.46l.07-2.45c0-.1,0-.21,0-.31l.12.09-.12-.1v0c.4.31.78.63,1.2.9l.61.43a7.51,7.51,0,0,0,1,.72,10.87,10.87,0,0,0,1.86.77l1.58.21,1.59-.21,1.42-.6a4.58,4.58,0,0,0,1.67-1.54,5.92,5.92,0,0,0,1.17-4.4Z"/><path class="cls-8" d="M210,288.18c-7.44,0-7.45,11.57,0,11.57S217.44,288.18,210,288.18Z"/><path class="cls-7" d="M1468.89,501.7a4.4,4.4,0,0,0-.7-2.21,10.86,10.86,0,0,0-3.76-3.65,13.5,13.5,0,0,0-3.37-1.59l-.08,0c.63-.79,1.26-1.58,1.88-2.38a9.78,9.78,0,0,0,2.12-3.3,11.2,11.2,0,0,0,.24-1.82,3.47,3.47,0,0,0,0-.72,5.07,5.07,0,0,0-1.4-3.36,4.56,4.56,0,0,0-3.36-1.4,9,9,0,0,0-1.79.32,16.25,16.25,0,0,0-1.62.67,8.1,8.1,0,0,0-2.71,2.78l-1.45,1.92a5.92,5.92,0,0,0-1.12-1.45,12.9,12.9,0,0,0-2.09-1.6,7.08,7.08,0,0,0-7,0,7,7,0,0,0-2.49,2.49,6.83,6.83,0,0,0-.94,3.5,8.79,8.79,0,0,0,1.07,4.45,9.61,9.61,0,0,0,.53.87l.66,1c.17.22.35.49.53.75l-1.26.25c-.86.19-1.7.48-2.55.69-.45.1-.9.19-1.35.3a5.79,5.79,0,0,0-2.25,1.11,6.43,6.43,0,0,0-2.17,3.2,5.76,5.76,0,0,0,1.48,5.6,6.21,6.21,0,0,0,2.72,1.62,6.4,6.4,0,0,0,3.39,0l1.35-.31a20.47,20.47,0,0,0,2.65-.75c.32-.12.64-.27,1-.41-.07.49-.15,1-.2,1.45-.21,2-.44,3.89.74,5.7a5.62,5.62,0,0,0,4.13,2.7,5.51,5.51,0,0,0,4.74-1.56c1.66-1.64,1.88-3.61,2.11-5.8.09-.82.19-1.63.21-2.46l.07-2.45c0-.1,0-.21,0-.31l.12.09-.12-.1v0c.4.31.78.63,1.2.9l.61.43a7.51,7.51,0,0,0,1,.72,10.87,10.87,0,0,0,1.86.77l1.58.21,1.59-.21,1.42-.6a4.58,4.58,0,0,0,1.67-1.54,5.92,5.92,0,0,0,1.17-4.4Z"/><path class="cls-8" d="M1451,492.18c-7.44,0-7.45,11.57,0,11.57S1458.44,492.18,1451,492.18Z"/><path class="cls-7" d="M1091.89,211.7a4.4,4.4,0,0,0-.7-2.21,10.86,10.86,0,0,0-3.76-3.65,13.5,13.5,0,0,0-3.37-1.59l-.08,0c.63-.79,1.26-1.58,1.88-2.38a9.78,9.78,0,0,0,2.12-3.3,11.2,11.2,0,0,0,.24-1.82,3.47,3.47,0,0,0,0-.72,5.07,5.07,0,0,0-1.4-3.36,4.56,4.56,0,0,0-3.36-1.4,9,9,0,0,0-1.79.32,16.25,16.25,0,0,0-1.62.67,8.1,8.1,0,0,0-2.71,2.78l-1.45,1.92a5.92,5.92,0,0,0-1.12-1.45,12.9,12.9,0,0,0-2.09-1.6,7.08,7.08,0,0,0-7,0,7,7,0,0,0-2.49,2.49,6.83,6.83,0,0,0-.94,3.5,8.79,8.79,0,0,0,1.07,4.45,9.61,9.61,0,0,0,.53.87l.66,1c.17.22.35.49.53.75l-1.26.25c-.86.19-1.7.48-2.55.69-.45.1-.9.19-1.35.3a5.79,5.79,0,0,0-2.25,1.11,6.43,6.43,0,0,0-2.17,3.2,5.76,5.76,0,0,0,1.48,5.6,6.21,6.21,0,0,0,2.72,1.62,6.4,6.4,0,0,0,3.39,0l1.35-.31a20.47,20.47,0,0,0,2.65-.75c.32-.12.64-.27,1-.41-.07.49-.15,1-.2,1.45-.21,2-.44,3.89.74,5.7a5.62,5.62,0,0,0,4.13,2.7,5.51,5.51,0,0,0,4.74-1.56c1.66-1.64,1.88-3.61,2.11-5.8.09-.82.19-1.63.21-2.46l.07-2.45c0-.1,0-.21,0-.31l.12.09-.12-.1v0c.4.31.78.63,1.2.9l.61.43a7.51,7.51,0,0,0,1,.72,10.87,10.87,0,0,0,1.86.77l1.58.21,1.59-.21,1.42-.6a4.58,4.58,0,0,0,1.67-1.54,5.92,5.92,0,0,0,1.17-4.4Z"/><path class="cls-8" d="M1074,202.18c-7.44,0-7.45,11.57,0,11.57S1081.44,202.18,1074,202.18Z"/><path class="cls-6" d="M1262.6,533.8a1.89,1.89,0,0,0-.64-.59,2.75,2.75,0,0,0-1.87-.75l-.69-.07c-.1,0-.78-.14-.45-.07s-.86-.11-1-.11h-.69c-.46,0-.92,0-1.38,0a21.92,21.92,0,0,0-3.34.4,5.22,5.22,0,0,0-1.8.59,1.73,1.73,0,0,0-.21.17s0-.08,0-.12c.12-.5.24-1,.35-1.51s.24-.93.39-1.38l.24-.68h0v0c.28-.63.5-1.26.74-1.9.1-.27.09-.27.06-.2a4.6,4.6,0,0,0,.25-.84v0a7.06,7.06,0,0,0,.46-2c0-.08,0-.16.08-.25.39-1-.72-1.74-1.55-1.56l-.08,0-.36,0a3.13,3.13,0,0,0-.85.17,7.83,7.83,0,0,0-1.33.57,7.63,7.63,0,0,0-3.21,2.76,16,16,0,0,0-1.56,2.77,13.82,13.82,0,0,0-.84,2.78,21.92,21.92,0,0,0-2.8-2.74,10.41,10.41,0,0,0-1.77-1.24,6.48,6.48,0,0,0-2.08-.85s-.08,0-.12,0a2,2,0,0,0-.31-.12,2.88,2.88,0,0,0-.72-.15h-.07a10.59,10.59,0,0,0-1.68-.22,1.29,1.29,0,0,0-1.11,1.93,5.4,5.4,0,0,0,.7,1.12c.05.1.05.07,0-.07s0-.16.07.13a3.42,3.42,0,0,0,.45.73,2.07,2.07,0,0,0,.29.64l.31.4s0,0,0,.06c.21.28.4.57.61.85.48.67,1,1.29,1.57,1.93s.76,1,1.12,1.6c.2.3.42.59.63.88a12.15,12.15,0,0,0,1.18,1.57,3.3,3.3,0,0,0,3.3.88,9.43,9.43,0,0,0,1-.5,3.47,3.47,0,0,0,3.1,1.22,3.59,3.59,0,0,0,2.87-2.45,3,3,0,0,0,1.09.81,4.77,4.77,0,0,0,2.15.27,25.11,25.11,0,0,0,3.45-.48,11.88,11.88,0,0,0,3-.9l.26-.12.65-.24a4.57,4.57,0,0,0,1.16-.55,7.52,7.52,0,0,0,1-1.42A.58.58,0,0,0,1262.6,533.8Z"/><path class="cls-6" d="M1259.71,537.21h0C1259.51,537.3,1259.41,537.36,1259.71,537.21Z"/><path class="cls-6" d="M123.58,154.91a1.25,1.25,0,0,0-.87-2.11H122a3,3,0,0,0-1.34-.12,4.68,4.68,0,0,0-2.16.44,14.2,14.2,0,0,0-2.12.9,29,29,0,0,0-3.12,2c-.24.17-.44.36-.66.54,0-.06,0-.13,0-.2.36-1.62.67-3.22.87-4.88.16-1.41.51-3.14-.07-4.52a5.05,5.05,0,0,0-.06-.68,1.55,1.55,0,0,0-.24-.78l-.72-.91c0-.59-.89-.88-1.15-.32a5,5,0,0,1-1,.48,1.61,1.61,0,0,0-.59.54,4.93,4.93,0,0,0-.42.66,8.32,8.32,0,0,0-1.93,3.53,36.16,36.16,0,0,0-1.21,3.69l-.92,3.59c-.1.42-.21.83-.33,1.25-.44-.42-.88-.84-1.35-1.24a13.82,13.82,0,0,0-1.71-1.34,7.3,7.3,0,0,0-2-.88,3.47,3.47,0,0,0-3.32.88,3.38,3.38,0,0,0-.88,3.32,9.7,9.7,0,0,0,.53,1.29,9,9,0,0,0,.92,1.23,8.23,8.23,0,0,0,1,1c.67.64,1.35,1.27,2.07,1.85l.78.61a2.82,2.82,0,0,0,1.45.46,2,2,0,0,0,1,0,2.75,2.75,0,0,0,.94-.22c.09,0,.18,0,.26,0a3.19,3.19,0,0,0,1.23-.71,1.92,1.92,0,0,0,.22.18,3.28,3.28,0,0,0,2.45.41,6.23,6.23,0,0,0,.5.68l-.09-.16a1.53,1.53,0,0,0,1.24.73c.14,0,.08.1.14.11a3.58,3.58,0,0,0,1.69,0,4.4,4.4,0,0,0,1.84-1.1c.43-.4.83-.83,1.23-1.26.8-.87,1.68-1.64,2.5-2.49a28.49,28.49,0,0,1,2.48-2.31c.45-.37.86-.77,1.29-1.16a5.53,5.53,0,0,0,1.42-1.6,3.62,3.62,0,0,0,.42-.74Z"/><path class="cls-6" d="M437.15,360a2.5,2.5,0,0,0-.74-.68,3.22,3.22,0,0,0-2.15-.86l-.79-.08c-.11,0-.89-.16-.52-.08.53.13-1-.12-1.2-.13H431c-.53,0-1,0-1.58,0a27.42,27.42,0,0,0-3.83.46,6,6,0,0,0-2.06.68,2.23,2.23,0,0,0-.24.19l0-.14c.13-.57.27-1.15.4-1.72s.27-1.07.44-1.59c.09-.26.19-.51.28-.77v0l0,0c.33-.72.57-1.45.85-2.18.11-.31.11-.31.07-.23a5.08,5.08,0,0,0,.28-1v0a7.75,7.75,0,0,0,.53-2.31c0-.1.05-.19.09-.29.45-1.1-.82-2-1.78-1.78l-.08,0-.41-.05a3.23,3.23,0,0,0-1,.2,9,9,0,0,0-1.53.65,8.68,8.68,0,0,0-3.67,3.16A17.68,17.68,0,0,0,416,354.6a15.53,15.53,0,0,0-1,3.19,26.31,26.31,0,0,0-3.2-3.14,12,12,0,0,0-2-1.42,7.19,7.19,0,0,0-2.37-1,.76.76,0,0,0-.15,0,1.7,1.7,0,0,0-.35-.14,2.92,2.92,0,0,0-.82-.17H406a12.44,12.44,0,0,0-1.93-.26,1.49,1.49,0,0,0-1.27,2.22,7.26,7.26,0,0,0,.8,1.28c.07.11.07.08,0-.08s-.06-.19.07.15a3.81,3.81,0,0,0,.52.84,2.43,2.43,0,0,0,.34.73c.12.15.24.3.35.46s0,0,.06.07c.24.32.46.65.69,1,.56.77,1.2,1.48,1.81,2.22.44.59.87,1.2,1.28,1.82.23.35.48.68.72,1a14.08,14.08,0,0,0,1.35,1.8,3.81,3.81,0,0,0,3.79,1,9.64,9.64,0,0,0,1.2-.57,4,4,0,0,0,3.55,1.4,4.11,4.11,0,0,0,3.29-2.81,3.36,3.36,0,0,0,1.25.93,5.48,5.48,0,0,0,2.47.31,29.32,29.32,0,0,0,3.95-.55,13.47,13.47,0,0,0,3.47-1l.3-.14.74-.28a4.76,4.76,0,0,0,1.33-.62,2.48,2.48,0,0,0,.65-.81,2.45,2.45,0,0,0,.52-.82A.66.66,0,0,0,437.15,360Z"/><path class="cls-6" d="M433.83,363.85l-.06,0C433.6,364,433.49,364,433.83,363.85Z"/></g><g id="Fiori"><path class="cls-9" d="M1088.29,515.64q1.7-18.4,2.21-36.89c.34-12.31.31-24.64-.3-36.93,0-1.08-.34-1.07-.32,0,.27,12.29-.11,24.59-.84,36.85s-1.86,24.51-3.27,36.7C1084.78,523.72,1087.48,524.06,1088.29,515.64Z"/><path class="cls-10" d="M1096.31,422.3a7.29,7.29,0,0,0-11.3.95,24.64,24.64,0,0,0-1.51,25.53c1.49,2.82,4,5.59,7.19,5.56,4.57,0,3.18,2.25,7.42-6.23a27.32,27.32,0,0,0,3-16A17.59,17.59,0,0,0,1096.31,422.3Z"/><path class="cls-11" d="M1088.31,423.49c-5.36,7.8-6.66,18.24-3.36,26.3A49.73,49.73,0,0,1,1088.31,423.49Z"/><path class="cls-11" d="M1089.81,423.69a97.7,97.7,0,0,0-3.21,14,30.05,30.05,0,0,0,1.06,14A107.31,107.31,0,0,1,1089.81,423.69Z"/><path class="cls-11" d="M1091.57,423.26q-.94,14.19-1.87,28.38A64.88,64.88,0,0,0,1091.57,423.26Z"/><path class="cls-11" d="M1093,423.62a101.48,101.48,0,0,1-.62,26.8A30.81,30.81,0,0,0,1093,423.62Z"/><path class="cls-11" d="M1094.44,424.26a56.58,56.58,0,0,1,.86,25.91,35.65,35.65,0,0,0,3.29-13.21A19.18,19.18,0,0,0,1094.44,424.26Z"/><path class="cls-10" d="M1090.49,421.65c-2.1-.55-4.5-5.46-4.5-5.46l2.87,2.06c-.44-2,.48-6.17.48-6.17a28.43,28.43,0,0,1,1.36,5.28c.45-1.74,3.12-4.22,3.12-4.22s-.39,3.59-.58,5.38c.79-1.67,4.09-3.51,4.09-3.51S1094.2,422.62,1090.49,421.65Z"/><path class="cls-12" d="M1090,455.68c-5.35-1-8.53-7.24-9.77-12.55a2.72,2.72,0,0,1-.07-1.17,1,1,0,0,1,.76-.8c.58-.08,1,.48,1.31,1,.89,1.5,1.71,3.05,2.45,4.63a14.48,14.48,0,0,1-.84-7.23,2,2,0,0,1,.28-.91.8.8,0,0,1,.82-.38c.35.09.54.46.68.79a43.86,43.86,0,0,1,2.4,7.39c-.31-2.72-.59-5.62.67-8,.18-.34.48-.71.86-.65s.53.5.62.87c.6,2.5,1,5.05,1.4,7.7a13.8,13.8,0,0,1,2.26-7.17c.27-.41.75-.86,1.19-.64a1.08,1.08,0,0,1,.41.95,31.62,31.62,0,0,1-.64,7.5,21.59,21.59,0,0,1,2.72-6.54c.18-.29.43-.61.77-.6a.67.67,0,0,1,.55.46,1.73,1.73,0,0,1,.07.75,21.21,21.21,0,0,1-1.1,5.61c.6-1.23,1.21-2.46,1.81-3.7a1.53,1.53,0,0,1,.44-.62.57.57,0,0,1,.71,0,.84.84,0,0,1,.17.68C1100.7,445.92,1096.41,456.87,1090,455.68Z"/><path class="cls-9" d="M1089.28,517.7q5.25-12.41,9.71-25.13c3-8.47,5.67-17,8-25.71.2-.76,0-.82-.23-.06-2.54,8.59-5.53,17.05-8.75,25.4s-6.72,16.6-10.4,24.76C1085.05,522.53,1086.85,523.37,1089.28,517.7Z"/><path class="cls-10" d="M1115.53,454.66a5.32,5.32,0,0,0-8-1.84,17.95,17.95,0,0,0-6.71,17.39c.41,2.29,1.54,4.77,3.76,5.45,3.18,1,1.71,2.27,6.53-2.68a19.87,19.87,0,0,0,5.64-10.42A12.8,12.8,0,0,0,1115.53,454.66Z"/><path class="cls-11" d="M1109.71,453.72c-5.45,4.22-8.66,11.19-8.16,17.52A36.15,36.15,0,0,1,1109.71,453.72Z"/><path class="cls-11" d="M1110.71,454.19a72.17,72.17,0,0,0-5.33,9,22,22,0,0,0-2.37,10A78.26,78.26,0,0,1,1110.71,454.19Z"/><path class="cls-11" d="M1112,454.28l-7.59,19.29A47.35,47.35,0,0,0,1112,454.28Z"/><path class="cls-11" d="M1113,454.84a73.68,73.68,0,0,1-6.37,18.48A22.48,22.48,0,0,0,1113,454.84Z"/><path class="cls-11" d="M1113.8,455.61a41.15,41.15,0,0,1-5.15,18.18,25.87,25.87,0,0,0,5.22-8.44A14,14,0,0,0,1113.8,455.61Z"/><path class="cls-10" d="M1111.63,452.92c-1.33-.84-1.91-4.78-1.91-4.78l1.53,2.06A14.81,14.81,0,0,1,1113,446a20.87,20.87,0,0,1-.22,4c.7-1.11,3.1-2.24,3.1-2.24l-1.59,3.61c.92-1,3.61-1.53,3.61-1.53S1114,454.41,1111.63,452.92Z"/><path class="cls-12" d="M1103.73,476.44c-3.5-1.87-4.33-6.92-4-10.88a2,2,0,0,1,.21-.83.73.73,0,0,1,.71-.39c.42.07.6.56.69,1,.28,1.24.51,2.5.67,3.76a10.74,10.74,0,0,1,1-5.21,1.64,1.64,0,0,1,.4-.57.58.58,0,0,1,.66-.08.87.87,0,0,1,.29.7,32.28,32.28,0,0,1,0,5.66c.39-1.95.84-4,2.25-5.43.2-.2.49-.39.74-.26s.26.46.24.73c-.14,1.88-.42,3.74-.74,5.67a10,10,0,0,1,3.16-4.48c.28-.23.71-.44,1-.18a.78.78,0,0,1,.07.75,22.6,22.6,0,0,1-2.11,5.06,16.18,16.18,0,0,1,3.34-3.94c.19-.16.44-.33.67-.24a.49.49,0,0,1,.28.44,1.4,1.4,0,0,1-.11.53,15.41,15.41,0,0,1-2,3.66l2.08-2.17a1.37,1.37,0,0,1,.45-.34.41.41,0,0,1,.49.14.57.57,0,0,1,0,.51C1113.35,472,1107.94,478.68,1103.73,476.44Z"/><path class="cls-9" d="M1087.35,516.64q-1.85-13.33-4.56-26.55c-1.81-8.79-3.88-17.53-6.36-26.15-.21-.76-.42-.71-.22.06,2.23,8.68,4,17.47,5.53,26.29s2.75,17.7,3.79,26.59C1086.21,523,1088.18,522.75,1087.35,516.64Z"/><path class="cls-10" d="M1077.52,449.07a5.32,5.32,0,0,0-7.86,2.56,18,18,0,0,0,3.17,18.36c1.53,1.76,3.77,3.3,6,2.75,3.24-.79,2.63,1.07,4.23-5.65a19.91,19.91,0,0,0-.51-11.84A12.79,12.79,0,0,0,1077.52,449.07Z"/><path class="cls-11" d="M1072.05,451.25c-2.52,6.42-1.7,14.05,2,19.22A36.25,36.25,0,0,1,1072.05,451.25Z"/><path class="cls-11" d="M1073.14,451.14a73,73,0,0,0,0,10.46,21.74,21.74,0,0,0,3.09,9.77A77.83,77.83,0,0,1,1073.14,451.14Z"/><path class="cls-11" d="M1074.32,450.54l3.39,20.45A47.32,47.32,0,0,0,1074.32,450.54Z"/><path class="cls-11" d="M1075.4,450.55a73.61,73.61,0,0,1,4,19.13A22.45,22.45,0,0,0,1075.4,450.55Z"/><path class="cls-11" d="M1076.52,450.77a41.29,41.29,0,0,1,4.92,18.25,25.93,25.93,0,0,0,.14-9.93A14,14,0,0,0,1076.52,450.77Z"/><path class="cls-10" d="M1073.28,449.58c-1.58,0-4.1-3.13-4.1-3.13l2.38,1a14.78,14.78,0,0,1-.68-4.46,21.16,21.16,0,0,1,1.84,3.52c0-1.31,1.51-3.52,1.51-3.52l.49,3.92c.28-1.32,2.31-3.17,2.31-3.17S1076.08,449.65,1073.28,449.58Z"/><path class="cls-12" d="M1078.57,473.82c-4,.19-7.26-3.72-9-7.28a1.87,1.87,0,0,1-.25-.82.73.73,0,0,1,.41-.7c.39-.15.8.17,1.09.48.88.92,1.72,1.88,2.51,2.88a10.58,10.58,0,0,1-1.8-5,1.64,1.64,0,0,1,0-.7.57.57,0,0,1,.52-.4c.26,0,.46.23.61.45a30.91,30.91,0,0,1,2.93,4.84c-.67-1.88-1.35-3.89-.86-5.82.07-.27.23-.58.51-.6s.46.26.58.51c.84,1.68,1.56,3.42,2.28,5.24a10,10,0,0,1,.4-5.47c.13-.34.39-.74.74-.65s.38.35.45.61a22.55,22.55,0,0,1,.79,5.42,16.31,16.31,0,0,1,.84-5.09c.08-.24.21-.51.46-.55a.47.47,0,0,1,.46.23,1.34,1.34,0,0,1,.18.52,15.72,15.72,0,0,1,.14,4.17c.23-1,.45-2,.68-2.93a1.37,1.37,0,0,1,.2-.52.43.43,0,0,1,.5-.13.58.58,0,0,1,.24.45C1084.57,465.1,1083.34,473.58,1078.57,473.82Z"/><path class="cls-13" d="M126.64,567.19q3.88-28,5.07-56.18a490.63,490.63,0,0,0-.69-56.23c-.11-1.64-.78-1.63-.74,0a459.17,459.17,0,0,1-1.93,56.11c-1.68,18.68-4.24,37.31-7.45,55.88C118.63,579.49,124.79,580,126.64,567.19Z"/><path class="cls-13" d="M127.18,570.71a393.82,393.82,0,0,0,16.29-37.78,326.94,326.94,0,0,0,11.94-39.21c.28-1.17-.24-1.32-.57-.17A307.46,307.46,0,0,1,141,532.05c-5.42,12.56-11.49,24.88-18,37C118.37,577.31,122.93,579.17,127.18,570.71Z"/><path class="cls-13" d="M123.91,569q-2.09-20.49-6-40.65a377.62,377.62,0,0,0-9.81-39.8c-.34-1.15-.79-1-.49.13a357.41,357.41,0,0,1,8.06,40.12c2,13.52,3.38,27.14,4.33,40.82C120.63,578.94,124.81,578.35,123.91,569Z"/><path class="cls-14" d="M113.16,428a30.1,30.1,0,0,1-3.73-6.6,8.56,8.56,0,0,1,.47-7.32c1.37-2.14,4.44-3.23,6.6-1.89a4.54,4.54,0,0,1,8.28-3.66,3.08,3.08,0,0,1,2.89-3,4.83,4.83,0,0,1,4,2,11.69,11.69,0,0,1,1.85,4.24,59.92,59.92,0,0,1,1.73,12.15,70.27,70.27,0,0,1-2.62,24.67c-.51,1.63-1.32,3.44-3,3.89-2,.54-3.85-1.32-4.75-3.18S116.72,433.34,113.16,428Z"/><path class="cls-14" d="M154.69,413.88a5,5,0,0,0-9.25-3.73,4.23,4.23,0,0,0-3.19-4,5.28,5.28,0,0,0-4.46,1.51,12.78,12.78,0,0,0-2.7,4c-6,12.59-6.05,27.13-5.2,40.55a2.9,2.9,0,0,0,3.59.42,8.39,8.39,0,0,0,2.67-2.82l11.7-17c2.5-3.64,5.1-7.37,8.8-9.77,1.56-1,3.42-1.91,4.13-3.63a3.74,3.74,0,0,0-.73-3.92C159.08,414.43,157.49,414.06,154.69,413.88Z"/><path class="cls-14" d="M130.31,452.38c1.4,1.48,3.74,1.66,5.68,1.07a24.3,24.3,0,0,0,5.37-2.85,33.42,33.42,0,0,1,17-4.75,23.09,23.09,0,0,0,5.58-.33,5.34,5.34,0,0,0,4-3.5,2.85,2.85,0,0,0-3.26-3.57,10.21,10.21,0,0,0,2.8-3.69,5,5,0,0,0-.24-4.5,3.54,3.54,0,0,0-4.44-1.25,2.87,2.87,0,0,0,.72-3.71,4.43,4.43,0,0,0-3.44-2.06,10.22,10.22,0,0,0-4.09.59,35.43,35.43,0,0,0-15.38,10.22C136.42,438.66,133.26,444.13,130.31,452.38Z"/><path class="cls-14" d="M129.35,452.62c-2.91.66-6-.42-8.5-2s-4.68-3.73-7.12-5.46-5.34-3.08-8.32-2.83c-1.33.11-3,.43-3.77-.64a2.21,2.21,0,0,1,0-2.29,4,4,0,0,1,1.94-1.7,15.94,15.94,0,0,1-2.18-4.72,5.38,5.38,0,0,1,1.13-4.89c1.52-1.54,4-1.58,6.9-1a2.4,2.4,0,0,1,.36-3.4,3.81,3.81,0,0,1,3.66-.45,9.81,9.81,0,0,1,3.17,2.14C124,432.13,129.25,441.3,129.35,452.62Z"/><path class="cls-15" d="M124.74,446.82l-.95-.91c-.33-.3-.65-.59-1-.91a23.2,23.2,0,0,0-2.32-1.72c-.8-.55-1.62-1.06-2.43-1.58l-1.21-.78-1.21-.83c-1.67-1.11-3.36-2.14-5-3.2s-3.07-2.21-4.49-3.28c-.34-.26-.5-.08-.17.22,1.36,1.22,2.66,2.54,4.08,3.77s2.87,2.41,4.3,3.6l1.06.91c.37.31.74.6,1.12.89.75.58,1.52,1.13,2.27,1.67s1.5,1.07,2.22,1.61l2.19,1.69c.14.1.27.2.4.28a3,3,0,0,0,.36.18,2.37,2.37,0,0,0,.51.19,1.21,1.21,0,0,0,.73,0,.53.53,0,0,0,.3-.62,1.49,1.49,0,0,0-.23-.58A3.1,3.1,0,0,0,124.74,446.82Z"/><path class="cls-15" d="M124.82,445.24c-.49-.63-1-1.22-1.54-1.82s-1.1-1.21-1.7-1.81a35.78,35.78,0,0,0-4-3.44c-1.41-1-2.84-2.06-4.23-3-.35-.25-.69-.5-1.06-.74s-.72-.46-1.08-.67-.72-.41-1.08-.6a7.9,7.9,0,0,0-1.09-.54c-.21-.08-.35,0-.35.05s.08.13.25.2a8.62,8.62,0,0,1,1,.65c.33.23.66.47,1,.72s.63.5.93.77.59.56.88.84l3.56,3.42c1.2,1.13,2.3,2.3,3.42,3.49l1.68,1.77c.28.29.58.6.88.89s.59.57.88.84c.85.8,1.53,1,1.9.73S125.46,446.06,124.82,445.24Z"/><path class="cls-15" d="M127.52,445.74a5.88,5.88,0,0,0-.2-.59,6.28,6.28,0,0,0-.27-.59c-.2-.39-.41-.74-.6-1.06l-.58-1a12.29,12.29,0,0,0-.72-1.12c-.14-.19-.29-.38-.45-.56s-.23-.27-.35-.42c-.23-.3-.47-.64-.73-1l-.43-.55-.22-.26-.22-.24-.88-1a34.07,34.07,0,0,0-3.85-3.57l-1-.77-1-.76q-.93-.78-1.8-1.56c-.28-.25-.45-.08-.19.2l1.63,1.79c.28.29.56.59.85.88l.85.87a36.86,36.86,0,0,1,3,3.75l.71,1c.23.33.48.68.67,1s.41.67.64,1q.17.27.36.54l.2.28.19.25a17.9,17.9,0,0,1,1.22,1.93l.34.56.35.51a8.58,8.58,0,0,1,.56.9,3.3,3.3,0,0,0,.84,1.12.79.79,0,0,0,.8.2.7.7,0,0,0,.34-.59A2.66,2.66,0,0,0,127.52,445.74Z"/><path class="cls-15" d="M127.44,447.43l0-.41,0-.46c0-.31,0-.61,0-.92q0-.93-.12-1.86a18.36,18.36,0,0,0-.28-1.89c-.12-.63-.27-1.26-.44-1.88s-.35-1.23-.53-1.84l-.54-1.82c-.36-1.22-.72-2.47-1.11-3.73s-.8-2.51-1.32-3.74c-.26-.61-.55-1.22-.86-1.8s-.65-1.13-1-1.68-.67-1.09-1-1.62-.7-1-1-1.55c-.65-1-1.21-2.07-1.75-3.09-.27-.5-.49-.4-.25.12.49,1.1,1,2.21,1.54,3.3s1.15,2.14,1.67,3.24c.26.54.52,1.1.76,1.65s.44,1.11.62,1.68c.37,1.14.65,2.32.92,3.51l.78,3.58c.13.6.27,1.21.42,1.81s.31,1.2.45,1.78a34.72,34.72,0,0,1,.76,3.46,27.52,27.52,0,0,1,.36,3.44c0,.21,0,.38,0,.58a4,4,0,0,0,.07.6,5.35,5.35,0,0,0,.18.74,1.49,1.49,0,0,0,.4.66.34.34,0,0,0,.29.12.6.6,0,0,0,.42-.25,2,2,0,0,0,.32-.73A6.18,6.18,0,0,0,127.44,447.43Z"/><path class="cls-15" d="M129.54,446.6a26.39,26.39,0,0,0,.23-3.85,16.39,16.39,0,0,0-.18-2.06l-.18-1-.18-1c-.25-1.31-.52-2.64-.82-4-.08-.34-.15-.68-.23-1s-.17-.69-.27-1c-.18-.68-.38-1.35-.58-2s-.38-1.3-.55-2-.36-1.34-.55-2c-.37-1.34-.77-2.65-1.17-3.94-.2-.65-.41-1.29-.61-1.92s-.39-1.27-.62-1.89a12.19,12.19,0,0,0-.78-1.81c-.07-.15-.15-.29-.23-.43a3.07,3.07,0,0,0-.28-.42,5.48,5.48,0,0,1-.52-.73c-.13-.23-.19-.35-.26-.35s-.13.18,0,.47a6.12,6.12,0,0,0,.51.83,5.11,5.11,0,0,1,.43.84,14.4,14.4,0,0,1,.61,1.82c.16.61.29,1.25.44,1.88s.27,1.27.41,1.9c.27,1.27.53,2.54.76,3.82.12.64.24,1.28.35,1.92s.22,1.31.36,1.95c.26,1.29.57,2.55.76,3.79s.43,2.58.64,3.86l.33,1.92.16.93c0,.3.08.6.11.9a35,35,0,0,1,.09,3.71c0,1.84.31,2.89.73,3S129.34,448.21,129.54,446.6Z"/><path class="cls-15" d="M130.24,446.8a35.6,35.6,0,0,0,.53-3.57c.13-1.22.17-2.51.18-3.76v-1.91c0-.32,0-.64,0-1v-.48c0-.17,0-.34,0-.51-.06-1.36-.25-2.68-.43-4-.39-2.53-.53-5.14-.94-7.7q-.15-1-.36-1.89c-.08-.31-.14-.62-.24-.94a8.18,8.18,0,0,0-.35-.91c-.25-.57-.54-1.11-.79-1.64a6.48,6.48,0,0,1-.31-.81c0-.14-.1-.28-.16-.43s-.14-.27-.19-.39-.13-.31-.2-.34-.07,0-.09.1a.53.53,0,0,0,0,.34c0,.15.12.28.17.42a3,3,0,0,1,.12.43c.08.29.16.59.27.88.22.57.46,1.13.65,1.7a6.76,6.76,0,0,1,.24.85c.06.28.09.59.14.89.07.6.13,1.2.17,1.8.14,2.42,0,4.88.17,7.38.07,1.23.16,2.45.17,3.64,0,.6,0,1.17-.05,1.79l-.06,1.84c0,.61,0,1.22,0,1.83s0,1.2-.07,1.8c-.07,1.19-.16,2.38-.27,3.56-.16,1.72.09,2.7.49,2.89S129.93,448.3,130.24,446.8Z"/><path class="cls-15" d="M129.54,446.68c0-.35,0-.68.06-1s.05-.69.08-1c0-.69.1-1.39.16-2.09s.14-1.39.24-2.09.23-1.4.36-2.12c.28-1.44.61-2.92.89-4.44a42.24,42.24,0,0,1,.92-4.4c.1-.35.21-.69.34-1s.27-.7.41-1.06c.28-.7.58-1.41.88-2.11l.9-2.12c.33-.79.45-1.54.7-2.17a9.4,9.4,0,0,1,.45-1l.5-1c.33-.66.66-1.3,1-1.9.19-.29.39-.58.6-.85l.67-.82.68-.81c.1-.13.23-.28.34-.43l.29-.42c.18-.26.26-.39.22-.45s-.22,0-.44.28l-.33.42a4.38,4.38,0,0,1-.36.39l-.73.79c-.25.26-.5.51-.75.79s-.47.56-.69.85c-.43.59-.81,1.22-1.18,1.84l-.56.92a10.14,10.14,0,0,0-.55,1c-.35.69-.54,1.41-.83,2l-.25.47-.25.48-.52,1c-.34.64-.67,1.29-1,1.94s-.66,1.31-.95,2a29.91,29.91,0,0,0-1.27,4.29c-.33,1.41-.67,2.82-1,4.23a33.24,33.24,0,0,0-.74,4.39c-.14,1.49-.16,2.94-.16,4.39a10,10,0,0,0,.1,1.39c0,.38.1.67.15.91a1.63,1.63,0,0,0,.37.91.3.3,0,0,0,.32.05.85.85,0,0,0,.4-.34A3.93,3.93,0,0,0,129.54,446.68Z"/><path class="cls-15" d="M129.86,446.75a15.58,15.58,0,0,1,.19-1.93c.11-.61.3-1.24.48-1.93.09-.33.19-.7.27-1.05l.24-1c.16-.69.33-1.36.54-2,.42-1.39.84-2.79,1.31-4.17.24-.7.49-1.38.76-2.07s.54-1.39.82-2.08.58-1.36.89-2,.63-1.32,1-2,.74-1.27,1.13-1.89.81-1.26,1.21-1.85c.2-.29.41-.58.63-.85s.46-.56.69-.84l.68-.87c.22-.3.41-.59.62-.89l2.38-3.4c.2-.25.26-.41.21-.46s-.21,0-.43.29c-.87,1.1-1.75,2.19-2.64,3.28-.45.55-.89,1.08-1.38,1.59-.25.25-.5.49-.75.76s-.48.54-.71.82c-.46.56-.89,1.11-1.33,1.68s-.86,1.15-1.27,1.74-.8,1.22-1.16,1.85-.7,1.26-1,1.9c-.66,1.29-1.28,2.58-1.84,3.92s-1.05,2.69-1.5,4.05l-.33,1c-.11.35-.21.71-.3,1.06-.19.71-.35,1.41-.5,2.11s-.32,1.32-.47,2.05c-.08.37-.14.74-.19,1.14s0,.8,0,1.17,0,.5,0,.72,0,.41.05.61a5.42,5.42,0,0,0,.18,1.07c.19.62.49.94.71,1s.38-.2.51-.6c.06-.2.13-.44.19-.74A9.77,9.77,0,0,0,129.86,446.75Z"/><path class="cls-15" d="M130.44,446.65a14.83,14.83,0,0,1,.44-1.54c.19-.56.37-1.12.54-1.69s.34-1.12.53-1.66l.3-.8c.11-.27.23-.54.35-.82.47-1.1,1-2.23,1.51-3.42s.94-2.34,1.48-3.45c.13-.27.27-.54.41-.81s.3-.52.46-.8c.32-.54.65-1.08,1-1.6a26.08,26.08,0,0,1,2.18-3,17.09,17.09,0,0,1,1.25-1.3,11.63,11.63,0,0,0,1.26-1.4,14.74,14.74,0,0,1,1.17-1.31l1.25-1.2c.4-.41.23-.58-.19-.21s-.92.75-1.37,1.14-.89.82-1.31,1.25a11.09,11.09,0,0,1-1.29,1.19,15.61,15.61,0,0,0-1.4,1.18,25.37,25.37,0,0,0-2.47,2.71c-.39.47-.76,1-1.12,1.45s-.73,1-1,1.53a36.54,36.54,0,0,0-1.74,3.25c-.52,1.07-1.08,2.13-1.61,3.23-.26.56-.52,1.11-.76,1.69s-.43,1.2-.61,1.79-.32,1.18-.47,1.75l-.22.85a7.82,7.82,0,0,0-.21,1,4.88,4.88,0,0,0,0,2.14c.14.49.34.75.54.82s.43-.06.62-.4A5.19,5.19,0,0,0,130.44,446.65Z"/><path class="cls-15" d="M132.91,449.85l.33-.74.31-.77c.2-.48.42-1,.67-1.44s.5-1,.78-1.44l.43-.71.47-.75c.63-1,1.2-2.07,1.81-3.07.3-.5.61-1,.94-1.45s.7-.93,1.07-1.38c.76-.91,1.59-1.82,2.39-2.74s1.59-1.78,2.43-2.58a17.84,17.84,0,0,1,2.68-2.14c.47-.3,1-.56,1.47-.84l.73-.42a6.87,6.87,0,0,1,.72-.35l.1,0a.75.75,0,0,0,.2-.1.35.35,0,0,0,.11-.19c0-.12,0-.15-.05-.16s-.07,0-.11.08a.54.54,0,0,1-.24.11l-.12,0c-.26.1-.53.2-.8.32l-.76.37c-.52.23-1.05.45-1.57.72a19.6,19.6,0,0,0-2.92,1.88c-.93.71-1.8,1.48-2.65,2.26s-1.7,1.56-2.54,2.38c-.42.41-.83.84-1.23,1.28s-.77.93-1.12,1.41c-.7,1-1.32,1.95-1.93,2.91l-.92,1.44c-.32.51-.62,1-.89,1.56a17.42,17.42,0,0,0-.75,1.65c-.11.28-.21.57-.31.85l-.25.81a4.92,4.92,0,0,0-.31,2c.07.54.29.84.49.9s.42-.08.63-.37A7.9,7.9,0,0,0,132.91,449.85Z"/><path class="cls-15" d="M132.69,450.41a12.48,12.48,0,0,1,1.83-2.27,27.33,27.33,0,0,1,2.37-2.05l2.68-2.1c.9-.7,1.79-1.43,2.68-2.17l.67-.55.69-.57,1.33-1.12c.44-.36.87-.71,1.32-1s.93-.61,1.4-.89,1-.54,1.47-.78,1-.45,1.49-.65,1-.38,1.52-.6a12.15,12.15,0,0,1,1.44-.59c.23-.07.34-.15.33-.22s-.15-.11-.4-.05a14.78,14.78,0,0,0-1.55.5c-.51.16-1,.29-1.56.44s-1.06.31-1.58.5-1,.4-1.54.62-1,.47-1.5.73-1,.56-1.45.86l-1.37.93c-.45.31-.9.59-1.36.9l-2.73,1.87-1.36.94-1.34,1a25.93,25.93,0,0,0-2.63,2.14,12.2,12.2,0,0,0-2.17,2.8,3.91,3.91,0,0,0-.55,2c0,.52.21.82.41.9s.43,0,.66-.29A7.62,7.62,0,0,0,132.69,450.41Z"/><path class="cls-15" d="M133.89,450.21a12.75,12.75,0,0,1,2.09-1.63l.27-.15.33-.17.66-.35,1.34-.72c1.78-1,3.59-2,5.45-2.88s3.8-1.87,5.69-2.59a19.37,19.37,0,0,1,2.86-.85l1.46-.29a6.58,6.58,0,0,0,1.45-.37.43.43,0,0,0,.24-.26c0-.1,0-.15,0-.15s-.07,0-.11.06l-.21.1a6,6,0,0,1-1.43.22l-1.48.14a21.49,21.49,0,0,0-3,.53,58.44,58.44,0,0,0-5.76,1.82,44.58,44.58,0,0,0-5.59,2.4c-.9.45-1.78.92-2.65,1.4l-.33.19a2.85,2.85,0,0,0-.37.23,6.16,6.16,0,0,0-.69.51,10.38,10.38,0,0,0-1.16,1.13A4.44,4.44,0,0,0,132,450a1,1,0,0,0,0,.85c.12.18.35.24.68.15A3.16,3.16,0,0,0,133.89,450.21Z"/><path class="cls-15" d="M133.46,448.7c1.06-1.16,2-2.47,3.08-3.64l1.74-1.84,1.77-1.92c.59-.66,1.18-1.32,1.76-2l.21-.26.22-.26.41-.51c.13-.16.26-.32.39-.45a2.67,2.67,0,0,1,.42-.35A6.61,6.61,0,0,0,144,437l.47-.45a7.11,7.11,0,0,1,.89-.79,4.38,4.38,0,0,1,1-.54l.29-.12c.11-.05.2-.11.29-.16a5.4,5.4,0,0,1,.49-.3c.14-.07.2-.13.2-.2s-.11-.13-.31-.05a4.79,4.79,0,0,0-.56.26l-.27.11-.29.08a5.42,5.42,0,0,0-1.19.46c-.76.39-1.37,1-2.05,1.35a5.26,5.26,0,0,0-.58.35c-.19.14-.34.28-.51.43s-.6.56-.91.83l-1.88,1.63c-1.26,1.08-2.52,2.18-3.73,3.34a24,24,0,0,0-3.18,4c-.65,1-.69,1.71-.4,2S132.75,449.48,133.46,448.7Z"/><path class="cls-15" d="M133.25,451.19l.33-.06.17-.05.13,0,.5-.1c.36-.07.76-.13,1.2-.25l1.16-.36c.37-.12.77-.23,1.18-.37a12.52,12.52,0,0,0,1.25-.5c.42-.2.82-.42,1.2-.65.76-.46,1.42-.93,2.12-1.32,1.44-.82,3-1.56,4.49-2.28l.57-.26.28-.13.25-.11.56-.2a3.36,3.36,0,0,0,.62-.23l.54-.27a1.22,1.22,0,0,1,.24-.1l.29-.11a5.53,5.53,0,0,1,1.06-.36c.16,0,.23-.07.25-.14s-.08-.15-.28-.14a7.49,7.49,0,0,0-1.18.26l-.29.07-.3.08c-.2.07-.39.15-.57.2-.34.12-.75.14-1.16.24l-.31.08-.29.09-.58.17c-1.54.47-3.1.93-4.64,1.54-.38.15-.78.32-1.16.5l-1.1.55c-.35.18-.7.35-1,.5s-.68.28-1,.4c-.72.23-1.5.43-2.3.72l-.31.11-.23.08-.52.14a12.1,12.1,0,0,0-1.26.41l-.28.12-.31.14a3.37,3.37,0,0,0-.32.19,1.54,1.54,0,0,0-.25.2c-.09.12,0,.18,0,.28s-.07.19-.09.29a.58.58,0,0,0,0,.32.44.44,0,0,0,.28.29,2.26,2.26,0,0,0,.56.07A2.7,2.7,0,0,0,133.25,451.19Z"/><path class="cls-16" d="M128.58,450.3l-.24-.06a54.78,54.78,0,0,0-1-30.35l.23-.08A55,55,0,0,1,128.58,450.3Z"/><path class="cls-16" d="M128.68,451.15l-.23-.09a55,55,0,0,0,3.43-26.57l.25,0A55.38,55.38,0,0,1,128.68,451.15Z"/><path class="cls-16" d="M128.39,449.54l-.24,0a92.45,92.45,0,0,0-1.24-24l.24,0A92,92,0,0,1,128.39,449.54Z"/><path class="cls-16" d="M130.16,449.32l-.22-.11a64.33,64.33,0,0,0,6.16-27.79h.24A64.58,64.58,0,0,1,130.16,449.32Z"/><path class="cls-16" d="M130.25,451.67l-.18-.16a41.2,41.2,0,0,0,9.65-25.94H140A41.37,41.37,0,0,1,130.25,451.67Z"/><path class="cls-16" d="M130.74,449.77l-.21-.12a60,60,0,0,0,8.06-31.46h.25A60.23,60.23,0,0,1,130.74,449.77Z"/><path class="cls-16" d="M130.79,447.81l-.23-.08A57,57,0,0,0,132,417.65l.24-.06A57.15,57.15,0,0,1,130.79,447.81Z"/><path class="cls-13" d="M130.4,457.25a14,14,0,0,0,.52-10.12,14.15,14.15,0,0,0-6.28-7.72C122.52,445.4,124.51,452.62,130.4,457.25Z"/><path class="cls-13" d="M130.08,445.45a12.54,12.54,0,0,1,10.45-7.11,26.25,26.25,0,0,1-10.07,19.2C128.69,453.65,128.46,449,130.08,445.45Z"/><path class="cls-17" d="M127.15,418.61a1.24,1.24,0,0,0,0,2.47A1.24,1.24,0,0,0,127.15,418.61Z"/><path class="cls-17" d="M132.33,416.39a1.24,1.24,0,0,0,0,2.47A1.24,1.24,0,0,0,132.33,416.39Z"/><path class="cls-17" d="M136.21,420.64a1.24,1.24,0,0,0,0,2.47A1.24,1.24,0,0,0,136.21,420.64Z"/><path class="cls-17" d="M132,422.86a1.24,1.24,0,0,0,0,2.47A1.24,1.24,0,0,0,132,422.86Z"/><path class="cls-17" d="M138.61,417.13a1.24,1.24,0,0,0,0,2.47A1.24,1.24,0,0,0,138.61,417.13Z"/><path class="cls-17" d="M139.91,424.16a1.24,1.24,0,0,0,0,2.47A1.24,1.24,0,0,0,139.91,424.16Z"/><path class="cls-17" d="M127.15,424.16a1.24,1.24,0,0,0,0,2.47A1.24,1.24,0,0,0,127.15,424.16Z"/><path class="cls-14" d="M86.13,486.1a24.05,24.05,0,0,1-5.31-3,6.91,6.91,0,0,1-2.7-5.28c.07-2,1.75-4.06,3.8-4a3.66,3.66,0,0,1,4.23-6,2.5,2.5,0,0,1,.75-3.31,3.9,3.9,0,0,1,3.61-.26,9.45,9.45,0,0,1,3,2.18,48.07,48.07,0,0,1,6.21,7.72,56.5,56.5,0,0,1,8.37,18.2c.32,1.34.51,2.93-.45,3.92-1.16,1.2-3.21.68-4.61-.24S90.81,488.35,86.13,486.1Z"/><path class="cls-14" d="M109.13,459.16a4.06,4.06,0,0,0-8,1.24,3.4,3.4,0,0,0-3.88-1.5,4.32,4.32,0,0,0-2.48,2.89,10.53,10.53,0,0,0-.2,3.92c1,11.21,7,21.32,13.14,30.29a2.34,2.34,0,0,0,2.66-1.19,6.81,6.81,0,0,0,.69-3.07q.54-8.33,1.09-16.65c.23-3.56.49-7.22,2.06-10.42.67-1.35,1.59-2.73,1.38-4.22a3,3,0,0,0-2.13-2.41C112.4,457.73,111.14,458.13,109.13,459.16Z"/><path class="cls-14" d="M108.11,495.94a4.53,4.53,0,0,0,4.38-1.59,19.42,19.42,0,0,0,2.54-4.2,27.18,27.18,0,0,1,9.81-10.3,18.48,18.48,0,0,0,3.74-2.53,4.31,4.31,0,0,0,1.35-4.1,2.29,2.29,0,0,0-3.73-1.13,8.27,8.27,0,0,0,.41-3.72,4,4,0,0,0-2-3,2.86,2.86,0,0,0-3.59,1,2.34,2.34,0,0,0-1-2.88,3.59,3.59,0,0,0-3.24,0,8.16,8.16,0,0,0-2.59,2.1A28.64,28.64,0,0,0,107.67,479C106.67,483.9,106.74,489,108.11,495.94Z"/><path class="cls-14" d="M107.54,496.51a9.33,9.33,0,0,1-6.74,2.1c-2.41-.08-4.79-.66-7.2-.84a10.5,10.5,0,0,0-6.94,1.46c-.88.63-1.88,1.52-2.88,1.11a1.77,1.77,0,0,1-1-1.57,3.22,3.22,0,0,1,.64-2A12.77,12.77,0,0,1,80,494.41a4.32,4.32,0,0,1-1.23-3.85c.41-1.7,2.11-2.75,4.37-3.54A2,2,0,0,1,82,484.5a3.08,3.08,0,0,1,2.36-1.81,7.69,7.69,0,0,1,3.09.17C95.38,484.48,102.8,488.7,107.54,496.51Z"/><path class="cls-15" d="M101.94,494.39c-.35-.08-.69-.17-1-.24s-.69-.14-1.08-.21a19.82,19.82,0,0,0-2.32-.24c-.78-.05-1.56-.06-2.33-.09l-1.17,0-1.18-.08c-1.62-.08-3.22-.09-4.76-.17s-3-.26-4.47-.42c-.35,0-.38.15,0,.22,1.46.29,2.91.67,4.4.93s3,.49,4.47.73l1.11.18c.38.07.76.12,1.14.17.77.09,1.52.15,2.27.21l2.2.2,2.22.27.39,0,.33,0a1.5,1.5,0,0,0,.43-.08.93.93,0,0,0,.51-.29.43.43,0,0,0,0-.56,1,1,0,0,0-.4-.3A2.33,2.33,0,0,0,101.94,494.39Z"/><path class="cls-15" d="M101.34,493.26c-.59-.23-1.21-.43-1.81-.62s-1.27-.39-1.94-.56a27.93,27.93,0,0,0-4.17-.75c-1.4-.14-2.82-.25-4.19-.36l-1-.08c-.34,0-.69,0-1,0s-.67,0-1,0a6.88,6.88,0,0,0-1,.07c-.17,0-.24.14-.21.19s.11,0,.25,0a5.3,5.3,0,0,1,1,0c.32,0,.65,0,1,.09s.65.09,1,.15l1,.22,3.88.91c1.3.28,2.55.64,3.82,1l1.9.54c.31.09.64.17,1,.25l1,.22c.92.2,1.46,0,1.62-.28S102.12,493.56,101.34,493.26Z"/><path class="cls-15" d="M103.43,492.49a4,4,0,0,0-.38-.32c-.14-.11-.29-.21-.44-.31s-.59-.33-.86-.48l-.82-.48a8,8,0,0,0-1-.48,5,5,0,0,0-.54-.2l-.42-.16-.92-.38-.52-.21-.26-.09-.25-.08L96,489a26,26,0,0,0-4.15-.89l-1-.12-1-.13c-.65-.1-1.28-.21-1.89-.34-.3-.06-.35.13-.06.22l1.88.56c.31.1.63.19,1,.27l.94.25a28.86,28.86,0,0,1,3.67,1.35l.89.39.88.4.86.45.47.23.25.11.25.09a15,15,0,0,1,1.63.84l.48.24.45.21c.28.14.53.26.76.4a2.78,2.78,0,0,0,1,.43.65.65,0,0,0,.64-.19.57.57,0,0,0,0-.55A2.12,2.12,0,0,0,103.43,492.49Z"/><path class="cls-15" d="M104.06,493.7l-.14-.3-.16-.33c-.12-.22-.24-.44-.37-.65-.26-.43-.55-.84-.85-1.25s-.63-.81-1-1.19-.71-.76-1.08-1.12l-1.14-1.06-1.12-1c-.76-.7-1.52-1.42-2.31-2.13s-1.59-1.41-2.46-2.05c-.44-.32-.88-.62-1.35-.9l-1.37-.76c-.45-.24-.91-.48-1.36-.7L88,479.56c-.87-.43-1.69-.93-2.49-1.42-.4-.24-.51-.08-.13.19.8.56,1.59,1.13,2.44,1.65s1.67,1,2.49,1.56c.4.27.82.55,1.21.83s.76.59,1.12.91c.73.64,1.41,1.34,2.09,2.06l2,2.16,1,1.08q.53.54,1.05,1.05c.69.69,1.36,1.37,2,2.09a21.57,21.57,0,0,1,1.66,2.24c.09.14.16.26.26.4s.21.28.29.38a4.48,4.48,0,0,0,.44.44,1.25,1.25,0,0,0,.54.29.34.34,0,0,0,.26,0,.55.55,0,0,0,.18-.35,1.67,1.67,0,0,0-.07-.64A5.37,5.37,0,0,0,104.06,493.7Z"/><path class="cls-15" d="M105.18,492.26a20.87,20.87,0,0,0-1.43-2.77,12.24,12.24,0,0,0-1-1.36l-.53-.62-.53-.61c-.72-.81-1.46-1.62-2.21-2.42l-.59-.62c-.2-.2-.4-.41-.61-.6-.41-.4-.82-.78-1.23-1.15s-.81-.75-1.19-1.14l-1.21-1.17c-.82-.77-1.63-1.52-2.45-2.25L91,476.47c-.4-.36-.8-.72-1.21-1.06a10.53,10.53,0,0,0-1.29-.93,3.79,3.79,0,0,0-.34-.2,3,3,0,0,0-.36-.18,3.75,3.75,0,0,1-.67-.29c-.18-.11-.27-.16-.32-.13s0,.17.2.32a6.7,6.7,0,0,0,.7.37,3.59,3.59,0,0,1,.64.4,11.31,11.31,0,0,1,1.17,1c.37.36.72.74,1.08,1.12l1.08,1.15q1.07,1.15,2.1,2.34c.35.39.69.79,1,1.19s.7.81,1.06,1.2c.72.79,1.45,1.54,2.1,2.32l2,2.41,1,1.2.5.58c.15.19.3.38.44.58a24.85,24.85,0,0,1,1.6,2.54c.73,1.29,1.41,1.88,1.76,1.8S105.7,493.45,105.18,492.26Z"/><path class="cls-15" d="M105.75,492.1a28.73,28.73,0,0,0-1.1-2.69c-.42-.9-.93-1.81-1.44-2.68-.25-.44-.51-.89-.78-1.33l-.41-.66-.2-.34-.22-.34c-.6-.92-1.28-1.76-1.93-2.57-1.32-1.6-2.49-3.35-3.83-5-.34-.4-.68-.79-1-1.16l-.56-.56c-.2-.17-.41-.33-.61-.48-.42-.29-.84-.55-1.23-.81a4.61,4.61,0,0,1-.55-.44l-.29-.23c-.11-.08-.21-.13-.3-.19s-.21-.17-.27-.16,0,.05,0,.11a.45.45,0,0,0,.17.22c.1.09.2.15.29.22l.26.25a5.27,5.27,0,0,0,.55.5c.39.31.78.6,1.15.91a4.93,4.93,0,0,1,.52.5c.16.17.31.37.46.55.3.39.59.79.86,1.19,1.11,1.62,2,3.37,3.17,5,.56.83,1.12,1.64,1.62,2.46.25.41.47.82.71,1.27l.72,1.3.72,1.29.69,1.28c.45.85.87,1.71,1.28,2.58.6,1.26,1.18,1.84,1.54,1.8S106.15,493.27,105.75,492.1Z"/><path class="cls-15" d="M105.22,492.31l-.38-.72c-.12-.25-.24-.5-.37-.75-.25-.5-.51-1-.75-1.52s-.48-1-.7-1.55-.42-1.07-.62-1.62c-.4-1.11-.79-2.27-1.22-3.45s-.88-2.29-1.18-3.43c-.07-.28-.14-.57-.19-.86l-.15-.9c-.1-.6-.18-1.22-.26-1.83s-.17-1.23-.25-1.84-.33-1.26-.41-1.8a7.56,7.56,0,0,1-.09-.86l-.07-.9c0-.6-.08-1.18-.07-1.75a7.93,7.93,0,0,1,.07-.84l.12-.84.14-.84c0-.14,0-.29.06-.44l0-.42c0-.25,0-.37,0-.4s-.15.1-.19.38l0,.43c0,.14-.06.27-.09.42l-.19.84c-.06.29-.13.57-.19.86s-.09.58-.12.88c-.06.59-.06,1.18-.07,1.76v.87c0,.3,0,.6,0,.91,0,.62.21,1.19.26,1.73,0,.14,0,.28,0,.43l0,.44,0,.88c0,.59.06,1.18.1,1.77s.09,1.17.18,1.79a24.9,24.9,0,0,0,.89,3.5l1,3.35a26.27,26.27,0,0,0,1.29,3.35c.52,1.1,1.11,2.11,1.7,3.11a8.38,8.38,0,0,0,.65.93c.19.24.34.42.48.57s.45.45.63.48a.24.24,0,0,0,.24-.1.65.65,0,0,0,.14-.4A3.13,3.13,0,0,0,105.22,492.31Z"/><path class="cls-15" d="M105.46,492.23c-.24-.51-.5-1-.66-1.42s-.31-1-.46-1.54c-.07-.27-.16-.56-.25-.84l-.26-.82c-.17-.54-.33-1.07-.46-1.62-.28-1.14-.57-2.29-.81-3.44-.12-.58-.24-1.16-.34-1.75s-.19-1.19-.28-1.78-.16-1.19-.22-1.78-.11-1.18-.12-1.77,0-1.19,0-1.78,0-1.2.08-1.78c0-.29,0-.57.08-.85s.09-.58.13-.87.08-.59.11-.88,0-.58.07-.87c.08-1.15.17-2.26.25-3.34,0-.26,0-.4,0-.41s-.14.1-.18.37c-.16,1.13-.32,2.25-.49,3.37a15.34,15.34,0,0,1-.3,1.67c-.06.28-.14.55-.2.84s-.12.57-.16.86c-.09.58-.15,1.14-.22,1.72s-.13,1.15-.17,1.73,0,1.18,0,1.76,0,1.17.07,1.75c.07,1.16.18,2.31.34,3.48s.39,2.3.64,3.43l.19.84c.07.29.14.58.22.87.17.56.35,1.12.53,1.66s.32,1,.52,1.62c.1.29.21.57.34.87s.29.57.44.83.22.35.32.49l.28.41a4.84,4.84,0,0,0,.57.66c.39.36.73.45.89.37s.18-.29.11-.62c0-.16-.1-.36-.18-.59A6.79,6.79,0,0,0,105.46,492.23Z"/><path class="cls-15" d="M105.83,491.92a10,10,0,0,1-.33-1.25c-.1-.47-.21-.93-.33-1.4s-.22-.91-.31-1.37c0-.23-.09-.45-.12-.68s-.07-.47-.1-.71c-.13-1-.23-2-.37-3s-.31-2-.39-3c0-.25,0-.49,0-.74s0-.48,0-.74c0-.51,0-1,0-1.52a20.47,20.47,0,0,1,.29-3,13.32,13.32,0,0,1,.33-1.42,10.35,10.35,0,0,0,.3-1.49,12.2,12.2,0,0,1,.26-1.39c.13-.46.25-.91.38-1.35s-.08-.5-.22-.07-.32.9-.48,1.36-.28.94-.39,1.4a8.57,8.57,0,0,1-.41,1.36,14.46,14.46,0,0,0-.48,1.4,21.94,21.94,0,0,0-.6,2.9c-.07.49-.13,1-.17,1.47a14.53,14.53,0,0,0-.1,1.5,29.12,29.12,0,0,0,.13,3c.08,1,.13,1.92.22,2.91,0,.49.1,1,.17,1.48a14.78,14.78,0,0,0,.32,1.5c.12.48.26.95.39,1.41l.2.68c.07.24.15.5.25.75a4.23,4.23,0,0,0,.91,1.47c.3.28.55.38.72.34s.27-.22.26-.53A4.52,4.52,0,0,0,105.83,491.92Z"/><path class="cls-15" d="M108.86,493.12l-.08-.65-.1-.66c-.06-.42-.1-.85-.13-1.28s0-.88,0-1.32c0-.22,0-.45,0-.67v-.72c0-1,0-1.93,0-2.87,0-.47,0-.94.06-1.4a13.7,13.7,0,0,1,.17-1.4c.15-.94.35-1.91.52-2.88s.37-1.9.63-2.8a14.27,14.27,0,0,1,1-2.59c.21-.4.45-.79.68-1.19l.33-.59c.1-.19.23-.36.35-.55l0-.06a.37.37,0,0,0,.1-.16.28.28,0,0,0,0-.18c0-.08-.08-.09-.1-.08s0,.05,0,.1,0,.09-.13.17l-.06.08a6.11,6.11,0,0,0-.42.55c-.13.19-.25.38-.39.57-.26.37-.53.74-.78,1.14a15.6,15.6,0,0,0-1.26,2.52c-.34.87-.63,1.76-.9,2.66s-.53,1.78-.78,2.7c-.12.45-.23.92-.32,1.39s-.16,1-.2,1.44c-.09,1-.11,1.9-.14,2.82l0,1.38c0,.49,0,1,0,1.45s.09,1,.16,1.45c.05.24.09.49.14.72l.16.67a3.91,3.91,0,0,0,.64,1.55c.27.35.54.47.71.42s.25-.23.28-.52A6.2,6.2,0,0,0,108.86,493.12Z"/><path class="cls-15" d="M109,493.6a10.53,10.53,0,0,1,.32-2.33,22.63,22.63,0,0,1,.8-2.41q.5-1.26,1-2.55c.34-.87.66-1.74,1-2.62l.23-.66c.09-.23.17-.46.25-.68.16-.44.31-.89.46-1.33a12.52,12.52,0,0,1,.5-1.25q.27-.61.6-1.2t.69-1.14c.24-.38.5-.72.77-1.07s.55-.68.81-1a12,12,0,0,1,.75-1c.13-.14.18-.24.14-.29s-.14,0-.3.13c-.32.31-.58.66-.87,1s-.59.63-.9.95-.6.65-.88,1-.55.7-.81,1.07-.51.74-.75,1.12-.45.8-.64,1.2-.39.81-.57,1.21-.38.78-.57,1.19c-.38.8-.75,1.61-1.13,2.42l-.56,1.21c-.17.41-.35.82-.53,1.22a20.58,20.58,0,0,0-.94,2.57,10,10,0,0,0-.35,2.84,3.07,3.07,0,0,0,.45,1.62c.23.35.48.48.65.45s.29-.2.34-.47A6.63,6.63,0,0,0,109,493.6Z"/><path class="cls-15" d="M109.69,493a10.85,10.85,0,0,1,.78-2,2.39,2.39,0,0,1,.13-.21l.15-.26.32-.52.63-1.05c.83-1.41,1.67-2.86,2.59-4.25s1.86-2.86,2.89-4.14a14.59,14.59,0,0,1,1.63-1.78l.89-.8a5.68,5.68,0,0,0,.85-.85.36.36,0,0,0,.06-.29c0-.07-.07-.09-.09-.08a.12.12,0,0,0,0,.08c0,.05-.06.09-.1.17a6.23,6.23,0,0,1-.91.74l-1,.7a18.56,18.56,0,0,0-1.84,1.59c-1.17,1.15-2.21,2.41-3.25,3.65a37.13,37.13,0,0,0-2.88,4q-.66,1-1.26,2.07l-.15.26c-.06.11-.12.21-.17.32s-.19.42-.27.64a9,9,0,0,0-.33,1.26,3.64,3.64,0,0,0,0,1.37.8.8,0,0,0,.35.59c.15.08.35,0,.54-.17A2.53,2.53,0,0,0,109.69,493Z"/><path class="cls-15" d="M108.77,492.1c.25-1.25.38-2.55.64-3.81l.44-2c.15-.68.3-1.37.44-2.07s.27-1.4.39-2.1l0-.27,0-.27.07-.52c0-.16.06-.33.09-.47a2.07,2.07,0,0,1,.14-.42,4.69,4.69,0,0,0,.21-.54c0-.17.09-.34.13-.5a5.84,5.84,0,0,1,.3-.92,3.74,3.74,0,0,1,.49-.8l.15-.2a1.1,1.1,0,0,0,.13-.23c.08-.15.15-.29.22-.41s.09-.17.06-.22-.13,0-.24.09-.19.28-.28.41a.94.94,0,0,1-.14.19l-.17.18a4.12,4.12,0,0,0-.63.8c-.37.59-.53,1.28-.87,1.79a3.57,3.57,0,0,0-.26.48c-.07.18-.12.34-.17.51-.11.33-.19.64-.29.95l-.64,1.91c-.42,1.27-.85,2.55-1.21,3.86a19.58,19.58,0,0,0-.55,4.08c0,1,.22,1.47.56,1.57S108.6,492.92,108.77,492.1Z"/><path class="cls-15" d="M109.65,493.91a1.71,1.71,0,0,0,.2-.18l.11-.11a.45.45,0,0,1,.07-.07l.31-.28c.22-.19.47-.4.73-.67l.65-.72c.22-.24.44-.48.67-.75a10.21,10.21,0,0,0,.66-.86,8.43,8.43,0,0,0,.56-.95c.34-.63.6-1.23.93-1.79.66-1.17,1.42-2.31,2.18-3.43l.28-.42.14-.21.13-.18c.09-.12.2-.24.31-.36s.24-.28.34-.42l.25-.41.13-.17.16-.2a4,4,0,0,1,.59-.68c.1-.09.13-.15.11-.2s-.11-.07-.25,0a5.64,5.64,0,0,0-.72.66l-.17.17-.17.18-.31.38c-.19.21-.47.4-.71.64l-.18.19-.16.18-.33.35c-.89,1-1.78,1.93-2.59,3-.2.26-.41.54-.6.82l-.53.84-.52.78c-.18.25-.36.47-.56.7-.4.46-.86.92-1.3,1.45l-.17.2-.12.15-.3.32a7.4,7.4,0,0,0-.71.8l-.15.2-.15.23a1.35,1.35,0,0,0-.15.26,1,1,0,0,0-.09.25c0,.12.07.12.1.2a1.69,1.69,0,0,1,.05.24.49.49,0,0,0,.13.23.36.36,0,0,0,.31.08,2,2,0,0,0,.42-.18A2.21,2.21,0,0,0,109.65,493.91Z"/><path class="cls-16" d="M106,495.22l-.19,0a44.19,44.19,0,0,0-13.26-20.62l.13-.15A44.35,44.35,0,0,1,106,495.22Z"/><path class="cls-16" d="M106.46,495.77l-.19,0a44.61,44.61,0,0,0-8.59-19.86l.16-.12A44.67,44.67,0,0,1,106.46,495.77Z"/><path class="cls-16" d="M105.6,494.77l-.18.09a74.2,74.2,0,0,0-10.77-16.15l.15-.14A74.64,74.64,0,0,1,105.6,494.77Z"/><path class="cls-16" d="M106.74,493.88l-.2,0a51.94,51.94,0,0,0-7.21-21.83l.17-.1A52,52,0,0,1,106.74,493.88Z"/><path class="cls-16" d="M107.77,495.48l-.2,0a33.18,33.18,0,0,0-4-22l.17-.1A33.47,33.47,0,0,1,107.77,495.48Z"/><path class="cls-16" d="M107.33,494h-.2a48.41,48.41,0,0,0-7.4-25.16l.17-.11A48.64,48.64,0,0,1,107.33,494Z"/><path class="cls-16" d="M106.55,492.58l-.2,0A45.89,45.89,0,0,0,95,471.13l.15-.14A46.26,46.26,0,0,1,106.55,492.58Z"/><path class="cls-13" d="M110.18,499.29a11.29,11.29,0,0,0-11.37-10A13,13,0,0,0,110.18,499.29Z"/><path class="cls-13" d="M105.08,491.23a10.19,10.19,0,0,1,4.31-9.25,21.21,21.21,0,0,1,1,17.49A12.19,12.19,0,0,1,105.08,491.23Z"/><path class="cls-17" d="M92,473.82a1,1,0,0,0,1,1.71A1,1,0,0,0,92,473.82Z"/><path class="cls-17" d="M94.64,470.14a1,1,0,0,0,1,1.71A1,1,0,0,0,94.64,470.14Z"/><path class="cls-17" d="M99.09,471.49a1,1,0,0,0,1,1.71A1,1,0,0,0,99.09,471.49Z"/><path class="cls-17" d="M97.06,474.78a1,1,0,0,0,1,1.72A1,1,0,0,0,97.06,474.78Z"/><path class="cls-17" d="M99.31,468.06a1,1,0,0,0,1,1.71A1,1,0,0,0,99.31,468.06Z"/><path class="cls-17" d="M103.11,472.4a1,1,0,0,0,1,1.71A1,1,0,0,0,103.11,472.4Z"/><path class="cls-17" d="M94.25,477.67a1,1,0,0,0,1,1.71A1,1,0,0,0,94.25,477.67Z"/><path class="cls-14" d="M148.25,476.8a17.11,17.11,0,0,1-1.33-4.22,5,5,0,0,1,1.15-4.12,3,3,0,0,1,4-.28,2.65,2.65,0,0,1,5.17-1.09,1.8,1.8,0,0,1,2-1.39,2.77,2.77,0,0,1,2,1.63,6.79,6.79,0,0,1,.55,2.65,34.86,34.86,0,0,1-.48,7.14,41,41,0,0,1-4.49,13.77c-.48.87-1.16,1.81-2.15,1.86-1.21.07-2-1.21-2.33-2.38S149.63,480.29,148.25,476.8Z"/><path class="cls-14" d="M173.67,473.77a2.93,2.93,0,0,0-4.83-3.25,2.48,2.48,0,0,0-1.33-2.7,3.09,3.09,0,0,0-2.73.32,7.5,7.5,0,0,0-2,2c-4.95,6.47-6.74,14.76-7.88,22.53a1.7,1.7,0,0,0,2,.68,5,5,0,0,0,1.87-1.29l8.74-8.32c1.87-1.77,3.8-3.59,6.21-4.51,1-.39,2.18-.68,2.8-1.57a2.2,2.2,0,0,0,0-2.33C176.11,474.61,175.25,474.21,173.67,473.77Z"/><path class="cls-14" d="M155.09,492.8a3.29,3.29,0,0,0,3.12,1.31,14.66,14.66,0,0,0,3.4-1,19.49,19.49,0,0,1,10.27-.67,13.08,13.08,0,0,0,3.22.49,3.11,3.11,0,0,0,2.73-1.51A1.66,1.66,0,0,0,176.4,489a6,6,0,0,0,2-1.77,2.93,2.93,0,0,0,.41-2.6,2.06,2.06,0,0,0-2.38-1.25,1.69,1.69,0,0,0,.86-2,2.59,2.59,0,0,0-1.72-1.58,5.75,5.75,0,0,0-2.41-.16,20.59,20.59,0,0,0-10,4A30.17,30.17,0,0,0,155.09,492.8Z"/><path class="cls-14" d="M154.52,492.82a6.68,6.68,0,0,1-4.61-2.18c-1.25-1.23-2.22-2.7-3.41-4a7.56,7.56,0,0,0-4.41-2.62c-.77-.1-1.74-.12-2.07-.83a1.27,1.27,0,0,1,.25-1.31,2.36,2.36,0,0,1,1.32-.74,9.24,9.24,0,0,1-.68-3,3.15,3.15,0,0,1,1.24-2.65c1-.69,2.47-.42,4.06.27a1.42,1.42,0,0,1,.61-1.91,2.26,2.26,0,0,1,2.15.19,5.66,5.66,0,0,1,1.55,1.61A21.46,21.46,0,0,1,154.52,492.82Z"/><path class="cls-15" d="M152.58,489l-.43-.63-.47-.64a16.53,16.53,0,0,0-1.11-1.27l-1.2-1.19-.6-.59-.59-.62c-.82-.84-1.66-1.63-2.45-2.43s-1.48-1.63-2.16-2.42c-.17-.19-.28-.1-.13.11.63.86,1.21,1.77,1.88,2.64s1.35,1.73,2,2.58l.5.65.53.64c.36.43.73.83,1.1,1.23s.73.79,1.07,1.19l1.05,1.23.19.21.18.15a1.43,1.43,0,0,0,.27.16.71.71,0,0,0,.42.1.32.32,0,0,0,.25-.32,1,1,0,0,0-.07-.36A1.8,1.8,0,0,0,152.58,489Z"/><path class="cls-15" d="M152.82,488.06c-.2-.41-.43-.82-.66-1.22s-.48-.83-.75-1.24a21.17,21.17,0,0,0-1.85-2.44c-.68-.77-1.38-1.52-2.05-2.26l-.51-.55-.54-.51-.54-.47a4.94,4.94,0,0,0-.56-.44c-.11-.07-.2-.05-.21,0s0,.08.12.14a5.75,5.75,0,0,1,.5.49c.16.17.32.35.47.53s.3.37.44.56.27.38.4.58l1.62,2.39c.55.78,1,1.58,1.53,2.4l.75,1.22c.12.2.25.41.39.61l.4.59c.39.55.76.73,1,.64S153.08,488.61,152.82,488.06Z"/><path class="cls-15" d="M154.3,488.67c0-.11,0-.23,0-.35s0-.26-.08-.38-.15-.47-.22-.68l-.2-.65c-.08-.24-.17-.49-.28-.74s-.12-.25-.19-.37l-.15-.28-.3-.66c-.05-.12-.11-.24-.17-.36l-.1-.18-.09-.17-.39-.66a19.44,19.44,0,0,0-1.76-2.51l-.49-.56-.45-.55c-.3-.37-.58-.74-.84-1.1-.13-.18-.25-.11-.14.09l.72,1.21c.12.21.25.41.38.61l.38.6a21.15,21.15,0,0,1,1.28,2.51l.29.65c.09.21.19.44.26.64s.16.43.24.66.09.23.14.35l.08.18.08.17a10.6,10.6,0,0,1,.46,1.25l.13.36.14.33a4.73,4.73,0,0,1,.21.59,2,2,0,0,0,.34.74.47.47,0,0,0,.44.21c.12,0,.2-.14.26-.3A1.5,1.5,0,0,0,154.3,488.67Z"/><path class="cls-15" d="M154.05,489.63l.07-.23.08-.26.12-.52c.07-.36.12-.72.16-1.08s.06-.74.07-1.11,0-.75,0-1.12-.05-.75-.08-1.12l-.09-1.11c0-.74-.11-1.5-.18-2.26s-.16-1.53-.3-2.3c-.08-.38-.17-.76-.28-1.13s-.23-.72-.35-1.08-.25-.7-.38-1-.27-.69-.4-1c-.24-.66-.44-1.33-.62-2-.09-.32-.23-.29-.16,0,.15.69.29,1.38.48,2.07s.4,1.36.56,2.05c.08.34.17.7.24,1s.11.68.15,1c.07.7.09,1.4.1,2.11s0,1.43,0,2.15c0,.36,0,.72,0,1.08s0,.72,0,1.07c0,.7,0,1.4,0,2.07a15.91,15.91,0,0,1-.21,2c0,.13,0,.22-.06.34a1.64,1.64,0,0,0,0,.35,3,3,0,0,0,0,.45.93.93,0,0,0,.15.42.22.22,0,0,0,.15.11.38.38,0,0,0,.27-.1,1.11,1.11,0,0,0,.27-.37A4.61,4.61,0,0,0,154.05,489.63Z"/><path class="cls-15" d="M155.35,489.41a15.88,15.88,0,0,0,.6-2.17,9.37,9.37,0,0,0,.14-1.2c0-.2,0-.39,0-.59l0-.59c0-.78,0-1.57,0-2.37v-.61l0-.62L156,480c0-.4-.06-.79-.08-1.18s0-.82-.07-1.22c-.05-.81-.12-1.61-.19-2.39l-.12-1.17c0-.39-.07-.77-.12-1.16a7.3,7.3,0,0,0-.23-1.13,2.76,2.76,0,0,0-.08-.27,2.18,2.18,0,0,0-.11-.27,3.9,3.9,0,0,1-.21-.48c0-.15-.06-.22-.1-.23s-.1.08-.06.27a5,5,0,0,0,.2.54,2.74,2.74,0,0,1,.14.53,8,8,0,0,1,.13,1.11c0,.37,0,.75,0,1.12s0,.76,0,1.14c0,.76,0,1.52,0,2.27,0,.38,0,.76,0,1.14s0,.78,0,1.16c0,.77,0,1.52,0,2.26s-.07,1.52-.1,2.28c0,.38,0,.76-.05,1.14l0,.54c0,.18,0,.35,0,.53a18.09,18.09,0,0,1-.4,2.13c-.25,1.05-.17,1.69.05,1.82S155,490.3,155.35,489.41Z"/><path class="cls-15" d="M155.73,489.61a19.09,19.09,0,0,0,.73-2c.22-.69.4-1.42.56-2.13.08-.36.15-.72.23-1.09l.11-.55,0-.28.06-.29c.13-.78.18-1.56.23-2.31.09-1.49.32-3,.4-4.51,0-.38,0-.75,0-1.13,0-.18,0-.37,0-.56a5,5,0,0,0-.09-.56c-.08-.36-.18-.7-.26-1a3.85,3.85,0,0,1-.07-.49,2.51,2.51,0,0,1,0-.27c0-.09,0-.17-.07-.25s0-.19-.07-.21,0,0-.06,0a.29.29,0,0,0,0,.2c0,.09,0,.18.05.26s0,.17,0,.26a3.39,3.39,0,0,0,.05.54c.05.35.12.7.16,1a4.67,4.67,0,0,1,0,.52c0,.17,0,.35,0,.52,0,.35-.08.7-.13,1-.21,1.4-.57,2.79-.79,4.24-.11.71-.21,1.41-.35,2.1-.06.34-.15.66-.24,1l-.25,1c-.09.34-.17.69-.26,1s-.16.68-.26,1c-.18.68-.37,1.34-.58,2-.3,1-.27,1.55-.07,1.7S155.37,490.43,155.73,489.61Z"/><path class="cls-15" d="M155.34,489.46c0-.2.1-.39.16-.57l.17-.58c.11-.39.22-.78.34-1.17s.25-.78.39-1.17.3-.77.47-1.17c.33-.78.69-1.59,1-2.42A24,24,0,0,1,159,480c.1-.18.2-.37.31-.54l.37-.56c.24-.37.5-.73.75-1.1l.78-1.1c.28-.41.44-.83.66-1.15.11-.17.24-.34.37-.51l.41-.51c.27-.34.53-.66.82-1a4.38,4.38,0,0,1,.45-.41l.48-.39.48-.38.25-.2.22-.21c.13-.13.19-.19.18-.23s-.13,0-.29.11l-.24.2-.25.18-.52.36-.52.36a6.12,6.12,0,0,0-.49.4c-.32.29-.61.6-.9.91l-.43.46c-.15.15-.3.31-.44.48-.28.36-.47.74-.71,1.05l-.2.24-.2.24-.41.49q-.42.49-.81,1c-.27.34-.54.67-.79,1a17.71,17.71,0,0,0-1.24,2.3L156,483.82a19.65,19.65,0,0,0-1,2.42c-.25.83-.44,1.66-.62,2.48a6.35,6.35,0,0,0-.11.81c0,.22,0,.4,0,.54a.94.94,0,0,0,.1.56.16.16,0,0,0,.17.07.49.49,0,0,0,.28-.15A2.34,2.34,0,0,0,155.34,489.46Z"/><path class="cls-15" d="M155.51,489.53a11.21,11.21,0,0,1,.35-1.07c.14-.34.32-.68.51-1l.28-.57.26-.56c.18-.37.35-.73.55-1.09.41-.74.82-1.49,1.26-2.22.22-.37.44-.73.68-1.09s.47-.73.72-1.09.5-.71.76-1.05.52-.68.8-1,.57-.64.87-.95l.91-.9.47-.42c.15-.12.33-.25.49-.39s.33-.27.49-.42.31-.28.47-.43l1.77-1.65q.21-.18.18-.24s-.13,0-.28.12L165.14,475c-.32.26-.64.51-1,.74l-.52.34c-.18.12-.34.25-.51.38l-1,.8-.94.85c-.3.29-.6.59-.88.91s-.55.64-.82,1c-.53.66-1,1.32-1.52,2s-.93,1.41-1.35,2.13l-.31.54c-.11.19-.21.38-.31.57-.19.38-.36.77-.53,1.14s-.35.72-.52,1.12a6.62,6.62,0,0,0-.24.62,6.74,6.74,0,0,0-.18.67c0,.15,0,.29-.07.41s0,.24-.05.36a2.71,2.71,0,0,0,0,.63c0,.38.17.59.29.63s.24-.07.36-.28.12-.23.2-.4A4.15,4.15,0,0,0,155.51,489.53Z"/><path class="cls-15" d="M155.86,489.55a7.36,7.36,0,0,1,.44-.83l.51-.9c.16-.3.33-.59.5-.88l.27-.42.3-.43c.4-.57.84-1.15,1.27-1.77s.83-1.22,1.27-1.79l.33-.41a4.48,4.48,0,0,1,.36-.4c.25-.28.5-.54.76-.8a15.3,15.3,0,0,1,1.6-1.43c.29-.21.58-.41.88-.59a7.25,7.25,0,0,0,.89-.65,7.81,7.81,0,0,1,.82-.6l.86-.54c.27-.18.2-.3-.09-.14s-.61.32-.92.49a10.13,10.13,0,0,0-.89.55,6.66,6.66,0,0,1-.89.52,9.56,9.56,0,0,0-.94.51,16.18,16.18,0,0,0-1.74,1.24l-.81.7c-.26.23-.53.48-.79.75a21,21,0,0,0-1.38,1.64c-.43.55-.88,1.08-1.31,1.65-.22.29-.43.57-.64.88s-.39.63-.56.94-.33.64-.48.94l-.23.46c-.09.17-.17.35-.24.52a3,3,0,0,0-.24,1.23c0,.3.1.47.22.54s.25,0,.4-.15A3.46,3.46,0,0,0,155.86,489.55Z"/><path class="cls-15" d="M156.88,491.67l.28-.38.27-.4c.17-.25.36-.5.56-.74s.4-.49.62-.73l.33-.35.36-.37c.48-.52.93-1,1.4-1.54a9.63,9.63,0,0,1,.72-.71,8.47,8.47,0,0,1,.78-.66c.54-.43,1.12-.85,1.69-1.27s1.12-.83,1.7-1.19a11,11,0,0,1,1.79-.89c.31-.12.62-.21.94-.3l.46-.16.46-.11h.06l.13,0a.19.19,0,0,0,.09-.09c0-.06,0-.09,0-.1l-.07,0a.38.38,0,0,1-.15,0h-.07c-.16,0-.33.05-.49.09l-.49.12c-.32.07-.65.13-1,.22a11.44,11.44,0,0,0-1.9.72c-.62.29-1.21.63-1.79,1s-1.16.68-1.74,1.05c-.29.19-.57.38-.85.59a8.63,8.63,0,0,0-.81.66c-.52.46-1,1-1.46,1.43l-.7.71c-.24.25-.48.51-.7.79a8.81,8.81,0,0,0-.62.85,4.92,4.92,0,0,0-.28.45l-.25.43a3.1,3.1,0,0,0-.42,1.13c0,.32.06.52.17.58s.25,0,.41-.14A4.27,4.27,0,0,0,156.88,491.67Z"/><path class="cls-15" d="M156.69,492a7.39,7.39,0,0,1,1.32-1.08,14.92,14.92,0,0,1,1.6-.88l1.78-.87,1.8-.92.45-.24c.15-.08.31-.15.46-.24l.9-.48.87-.42c.3-.12.6-.24.91-.34s.62-.19.93-.27.61-.14.93-.19.63-.09.94-.15a7.86,7.86,0,0,1,.9-.17c.14,0,.21,0,.21-.08s-.07-.08-.22-.08a7.46,7.46,0,0,0-.95.1c-.31,0-.62,0-.94.06s-.64,0-1,.1-.64.1-1,.16-.63.15-.94.24a9.25,9.25,0,0,0-.93.32c-.31.11-.6.24-.9.36l-.88.35-1.79.74-.89.37-.88.38a14.7,14.7,0,0,0-1.76.91,7.16,7.16,0,0,0-1.58,1.33,2.38,2.38,0,0,0-.56,1.08c0,.3,0,.49.13.56s.25,0,.41-.08A4.83,4.83,0,0,0,156.69,492Z"/><path class="cls-15" d="M157.4,492a7.73,7.73,0,0,1,1.39-.68l.17-.05.21-.06.42-.12.85-.25c1.14-.34,2.29-.7,3.46-1s2.4-.61,3.57-.79a11.45,11.45,0,0,1,1.73-.15l.87,0a4.36,4.36,0,0,0,.87,0,.23.23,0,0,0,.17-.12s0-.08,0-.09-.05,0-.07,0l-.14,0a4.91,4.91,0,0,1-.84-.05l-.86-.1a11.51,11.51,0,0,0-1.76-.06,33.91,33.91,0,0,0-3.51.34,26.8,26.8,0,0,0-3.48.7c-.57.15-1.13.31-1.69.48l-.21.06-.24.09a3.1,3.1,0,0,0-.45.21,6.83,6.83,0,0,0-.8.5,2.68,2.68,0,0,0-.7.71.55.55,0,0,0-.1.48c0,.12.17.19.37.17A1.82,1.82,0,0,0,157.4,492Z"/><path class="cls-15" d="M157.33,491.09c.75-.54,1.46-1.17,2.21-1.71l1.21-.84c.41-.29.83-.58,1.25-.89l1.24-.92.15-.12.16-.12.29-.24.28-.21a1.74,1.74,0,0,1,.28-.16,2.5,2.5,0,0,0,.37-.18l.32-.2a3.73,3.73,0,0,1,.61-.34,3.27,3.27,0,0,1,.65-.19l.18,0a1.06,1.06,0,0,0,.19-.06l.31-.11c.09,0,.13,0,.14-.08s0-.09-.17-.08a3.58,3.58,0,0,0-.35.09l-.17,0h-.18a3.68,3.68,0,0,0-.73.11c-.48.14-.9.43-1.34.53a2.36,2.36,0,0,0-.37.13l-.34.18-.62.37-1.27.7c-.85.47-1.71.94-2.54,1.46a13.8,13.8,0,0,0-2.29,1.89c-.5.49-.6.89-.48,1.11S156.84,491.44,157.33,491.09Z"/><path class="cls-15" d="M156.92,492.48h.67a5.74,5.74,0,0,0,.72,0l.7-.06.72-.07a7.28,7.28,0,0,0,.77-.13c.27-.07.52-.15.77-.23.49-.17.92-.36,1.37-.5.92-.29,1.89-.53,2.84-.75l.35-.09.18,0,.16,0,.34,0a2.71,2.71,0,0,0,.38-.06l.34-.09.15,0,.18,0a3.07,3.07,0,0,1,.65-.07c.09,0,.14,0,.16-.05s0-.1-.14-.12a4.19,4.19,0,0,0-.71,0h-.36l-.34.05c-.21,0-.45,0-.7,0h-.18l-.18,0-.35,0a27.73,27.73,0,0,0-2.84.32c-.23,0-.48.08-.72.14l-.69.18c-.23.06-.45.12-.66.16a4.49,4.49,0,0,1-.64.1c-.44.05-.91.07-1.4.13l-.19,0-.14,0-.31,0a4.48,4.48,0,0,0-.77.08l-.18,0-.19.05-.21.06-.17.09c-.06.05,0,.1-.05.15a1.29,1.29,0,0,1-.09.16.34.34,0,0,0,0,.18.29.29,0,0,0,.13.2,1.28,1.28,0,0,0,.31.11A2,2,0,0,0,156.92,492.48Z"/><path class="cls-16" d="M154.36,491.41l-.13-.07a32.08,32.08,0,0,0,3.07-17.46h.14A32.19,32.19,0,0,1,154.36,491.41Z"/><path class="cls-16" d="M154.31,491.91l-.12-.08a32.08,32.08,0,0,0,5.17-14.76h.15A32.35,32.35,0,0,1,154.31,491.91Z"/><path class="cls-16" d="M154.34,491l-.14,0a53.4,53.4,0,0,0,2.2-13.86h.14A53.63,53.63,0,0,1,154.34,491Z"/><path class="cls-16" d="M155.38,491l-.12-.09a37.6,37.6,0,0,0,6.88-15.13l.14,0A37.69,37.69,0,0,1,155.38,491Z"/><path class="cls-16" d="M155.15,492.39l-.09-.11a24.09,24.09,0,0,0,8.65-13.64l.14,0A24.14,24.14,0,0,1,155.15,492.39Z"/><path class="cls-16" d="M155.66,491.37l-.11-.1a35,35,0,0,0,8.41-17l.14,0A35.27,35.27,0,0,1,155.66,491.37Z"/><path class="cls-16" d="M155.92,490.25l-.13-.07a33.18,33.18,0,0,0,4.49-17h.15A33.42,33.42,0,0,1,155.92,490.25Z"/><path class="cls-13" d="M154.56,495.6a8.16,8.16,0,0,0-1.14-10.89A9.38,9.38,0,0,0,154.56,495.6Z"/><path class="cls-13" d="M155.8,488.82a7.32,7.32,0,0,1,6.82-2.8,15.28,15.28,0,0,1-8.07,9.75A8.8,8.8,0,0,1,155.8,488.82Z"/><path class="cls-17" d="M157.37,473.14a.72.72,0,0,0-.3,1.41A.72.72,0,0,0,157.37,473.14Z"/><path class="cls-17" d="M160.6,472.5a.72.72,0,0,0-.3,1.41A.72.72,0,0,0,160.6,472.5Z"/><path class="cls-17" d="M162.3,475.39a.73.73,0,0,0-.3,1.42A.73.73,0,0,0,162.3,475.39Z"/><path class="cls-17" d="M159.6,476.15a.72.72,0,0,0-.3,1.41A.72.72,0,0,0,159.6,476.15Z"/><path class="cls-17" d="M164.1,473.68a.72.72,0,0,0-.3,1.41A.72.72,0,0,0,164.1,473.68Z"/><path class="cls-17" d="M164,477.85a.72.72,0,0,0-.3,1.41A.72.72,0,0,0,164,477.85Z"/><path class="cls-17" d="M156.7,476.3a.73.73,0,0,0-.3,1.42A.73.73,0,0,0,156.7,476.3Z"/><path class="cls-13" d="M1478.89,95q1.92,10.76,3.5,21.54T1485,138.1c.73,7.2,1.65,14.4,1.73,21.61a161.47,161.47,0,0,1-.92,21.64c0,.06-.09.1-.19.1s-.16,0-.16-.1c-1.06-7.2-1.66-14.39-2.23-21.58s-.6-14.4-1-21.59-.93-14.4-1.57-21.59-1.28-14.39-2.1-21.58c0-.06.07-.1.17-.11S1478.88,94.94,1478.89,95Z"/><path class="cls-12" d="M1484.82,137.81a25.13,25.13,0,0,1,.51-19.19,27.11,27.11,0,0,1,14.36-13.54c3.3,5.68,2.73,13.06-.29,18.9S1491.23,134.29,1484.82,137.81Z"/><path class="cls-13" d="M1484.38,141.73a106.68,106.68,0,0,1,6.82-19.79c1.24-2.75,2.78-5.59,4.3-8.38a87.56,87.56,0,0,0,4.1-8.24c0-.08,0-.08-.1,0a139.41,139.41,0,0,0-9.69,17.77q-2.26,5-4.06,10.18c-.3.9-.61,1.79-.88,2.7s-.56,1.82-.81,2.73a10.65,10.65,0,0,0-.64,3.3C1483.44,142.86,1484.16,142.65,1484.38,141.73Z"/><path class="cls-13" d="M1487.48,131.63c2-1.83,4-3.71,6-5.55.09-.08,0-.14-.06-.06-2.13,1.71-4.29,3.39-6.42,5.11C1486.33,131.72,1486.79,132.26,1487.48,131.63Z"/><path class="cls-13" d="M1488.33,127.3c-.43-1.94-.92-3.86-1.36-5.79,0-.09-.1-.07-.09,0,.28,2,.51,3.94.8,5.9C1487.78,128.09,1488.47,128,1488.33,127.3Z"/><path class="cls-13" d="M1491.49,121.79c1.91-1.12,3.8-2.3,5.7-3.44.08,0,0-.12,0-.07-2,1-4,1.93-6,2.93C1490.5,121.56,1490.83,122.18,1491.49,121.79Z"/><path class="cls-13" d="M1492.71,118c-.36-1.69-.77-3.37-1.14-5.06,0-.07-.1-.06-.09,0,.2,1.71.36,3.44.58,5.15C1492.13,118.72,1492.83,118.6,1492.71,118Z"/><path class="cls-13" d="M1494.61,114.62c1.2-.78,2.37-1.61,3.57-2.4a0,0,0,1,0,0-.08c-1.28.65-2.58,1.26-3.85,1.92A.33.33,0,1,0,1494.61,114.62Z"/><path class="cls-12" d="M1483.25,161.6a25.08,25.08,0,0,0-1.67-19.12,27.07,27.07,0,0,0-15.14-12.64c-3,5.86-1.94,13.19,1.43,18.84S1476.64,158.48,1483.25,161.6Z"/><path class="cls-13" d="M1483.94,165.49a107.81,107.81,0,0,0-8-19.35c-1.41-2.66-3.12-5.4-4.8-8.1a87,87,0,0,1-4.59-8c0-.08,0-.09.1,0a140.52,140.52,0,0,1,10.75,17.15c1.7,3.23,3.27,6.53,4.67,9.91.35.88.71,1.76,1,2.65s.67,1.78,1,2.68a10.91,10.91,0,0,1,.84,3.25C1484.94,166.56,1484.21,166.4,1483.94,165.49Z"/><path class="cls-13" d="M1480.23,155.6c-2.14-1.71-4.25-3.46-6.37-5.18-.1-.07,0-.14.05-.07,2.23,1.58,4.49,3.13,6.71,4.72C1481.38,155.62,1481,156.18,1480.23,155.6Z"/><path class="cls-13" d="M1479.12,151.32c.31-2,.68-3.91,1-5.86,0-.09.09-.08.08,0-.15,2-.27,4-.44,5.93C1479.72,152.08,1479,152,1479.12,151.32Z"/><path class="cls-13" d="M1475.63,146c-2-1-3.93-2.07-5.9-3.09-.08-.05,0-.12,0-.08,2,.86,4.1,1.69,6.14,2.57C1476.61,145.72,1476.31,146.36,1475.63,146Z"/><path class="cls-13" d="M1474.19,142.33c.25-1.71.56-3.41.83-5.12,0-.08.09-.07.08,0-.09,1.72-.15,3.45-.26,5.18C1474.8,143,1474.1,142.91,1474.19,142.33Z"/><path class="cls-13" d="M1472.09,139.05c-1.25-.71-2.47-1.46-3.71-2.19-.06,0,0-.1,0-.07,1.31.56,2.65,1.09,4,1.67A.33.33,0,1,1,1472.09,139.05Z"/><path class="cls-13" d="M1477.35,96.74c-1.19,1-2.71,1.52-3.9,2.52s-2,2.83-1.06,4.1,2.74,1.17,4,.46a36.6,36.6,0,0,0,3.46-2.78,4,4,0,1,0,7.23-3.05,6.51,6.51,0,0,0,5.57-1.67,2.41,2.41,0,0,0,.86-2.57c-.45-1-1.71-1.11-2.76-1.07C1486.46,92.83,1481.57,93.24,1477.35,96.74Z"/><path class="cls-18" d="M1481.62,85.21A18.9,18.9,0,0,0,1471.29,90a6.57,6.57,0,0,0-2.35,3.8c-.19,1.51.8,3.24,2.32,3.35a1.56,1.56,0,0,0-.9,2.11,3.72,3.72,0,0,0,1.88,1.74,13.6,13.6,0,0,0,18.36-6,3.66,3.66,0,0,0,.48-2.52,1.55,1.55,0,0,0-2-1.13,4.84,4.84,0,0,0-1.12-5.18C1486.6,84.83,1484.51,84.85,1481.62,85.21Z"/><path d="M1483.64,88a9.84,9.84,0,0,0-7.84,2.71c-.64.63-1.22,1.63-.73,2.39s1.49.68,2.32.54c2.43-.41,4.93-1,6.83-2.56a2.41,2.41,0,0,0,1-1.7C1485.29,88.65,1484.53,88.05,1483.64,88Z"/><path class="cls-7" d="M1476.52,93.69a1.62,1.62,0,0,1-1.48-.62c-.49-.77.09-1.79.75-2.43a9.75,9.75,0,0,1,7.85-2.71h0c.95.1,1.67.72,1.66,1.4a2.35,2.35,0,0,1-1.06,1.72,14.23,14.23,0,0,1-6.84,2.56A4.79,4.79,0,0,1,1476.52,93.69Zm6.09-5.77a9.79,9.79,0,0,0-6.79,2.76c-.63.62-1.21,1.62-.73,2.36.35.55,1.11.72,2.3.52A14.17,14.17,0,0,0,1484.2,91a2.35,2.35,0,0,0,1-1.68c0-.64-.71-1.25-1.61-1.35A9,9,0,0,0,1482.61,87.92Z"/><path class="cls-19" d="M1486.69,91.32a13.64,13.64,0,0,1-11.78,4.24,3.11,3.11,0,0,1-1.36-.43,1.31,1.31,0,0,1-.62-1.22c-.89.34-.91,1.83-.29,2.56a3.73,3.73,0,0,0,2.58,1.06,12.64,12.64,0,0,0,6.86-1.16A9.92,9.92,0,0,0,1486.69,91.32Z"/><path class="cls-19" d="M1472.72,92.94a5.76,5.76,0,0,1,4.39-4.25,4.15,4.15,0,0,0-3.42.94A3.93,3.93,0,0,0,1472.72,92.94Z"/><path class="cls-19" d="M1480.79,87.1a12.09,12.09,0,0,1,2.47-.38,3.81,3.81,0,0,1,2.36.69,2.35,2.35,0,0,1,1,2.18,2,2,0,0,0,0-2.83,3.24,3.24,0,0,0-2.89-.9A9.6,9.6,0,0,0,1480.79,87.1Z"/><path class="cls-19" d="M1488.14,92.79a10.43,10.43,0,0,1-10.33,6.52,8.29,8.29,0,0,0,7-.48C1486.92,97.62,1487.75,95.19,1488.14,92.79Z"/><path class="cls-13" d="M295.44,247.64q1.79-18.4,2.33-36.89c.36-12.31.33-24.64-.31-36.93,0-1.08-.37-1.07-.35,0,.29,12.29-.11,24.59-.88,36.85s-2,24.51-3.44,36.7C291.74,255.72,294.58,256.06,295.44,247.64Z"/><path class="cls-13" d="M296.58,249.79q5.43-12.34,9.95-25c3-8.46,5.7-17,7.94-25.72.2-.76,0-.83-.26-.07-2.51,8.6-5.54,17-8.84,25.37s-6.93,16.54-10.76,24.65C292,254.51,294.06,255.43,296.58,249.79Z"/><path class="cls-13" d="M294,248.72q-1.62-13.4-4.25-26.62c-1.76-8.8-3.84-17.54-6.4-26.14-.22-.76-.47-.7-.27.07,2.27,8.67,4,17.47,5.41,26.32S291,240.11,291.83,249C292.37,255.16,294.72,254.86,294,248.72Z"/><path class="cls-20" d="M294.59,173.37c-3.37-3.24-6.84-6.65-8.42-11.05a6.8,6.8,0,0,1-.45-3.39,3.23,3.23,0,0,1,2-2.58,3.32,3.32,0,0,1,2.86.57,7.53,7.53,0,0,1,1.93,2.3,17.14,17.14,0,0,1,2.34,6.43,61,61,0,0,0-.48-7.39c-.14-2.47.14-5.1,1.64-7.07s4.5-2.93,6.53-1.52,2.2,4.12,1.92,6.48a62.3,62.3,0,0,1-2.55,10.09,23.33,23.33,0,0,1,5.27-8.12c1.36-1.37,3.43-2.62,5.1-1.66s1.59,3.53.78,5.33c-1.45,3.21-4.28,5.57-7.17,7.58s-6,3.83-8.37,6.44C296.88,175.05,295.93,174.67,294.59,173.37Z"/><path class="cls-21" d="M299.72,170.17c.71-5.35,1.35-10.72,2-16.08,0-.24-.09-.26-.13,0-1,5.31-2,10.63-2.92,16C298.4,171.84,299.47,172,299.72,170.17Z"/><path class="cls-21" d="M297.64,169a117.19,117.19,0,0,1,.68-18.72c0-.28-.08-.29-.13,0A113.17,113.17,0,0,0,296.63,169C296.65,171.18,297.73,171.14,297.64,169Z"/><path class="cls-21" d="M298.7,169.22c.6-5.13,1.12-10.28,1.71-15.42,0-.22-.09-.24-.13,0-.85,5.1-1.76,10.19-2.58,15.29C297.42,170.83,298.49,171,298.7,169.22Z"/><path class="cls-21" d="M300,169.22a45.19,45.19,0,0,0,3.1-13.3c0-.2-.1-.22-.13,0A46,46,0,0,1,299,168.82C298.37,170.2,299.34,170.68,300,169.22Z"/><path class="cls-21" d="M298.5,169.3a46.58,46.58,0,0,1,1.24-16.4c.06-.23-.05-.27-.12,0a46,46,0,0,0-2.12,16.51C297.63,171.3,298.71,171.16,298.5,169.3Z"/><path class="cls-21" d="M301.65,170.26a49.25,49.25,0,0,0,9.15-10.87c.12-.18,0-.24-.1-.07a50.32,50.32,0,0,1-9.7,10.17C299.75,170.47,300.4,171.33,301.65,170.26Z"/><path class="cls-21" d="M302.52,170a39.21,39.21,0,0,0,9.5-9.69c.12-.17,0-.23-.1-.08a40,40,0,0,1-10,8.94C300.66,170,301.22,170.93,302.52,170Z"/><path class="cls-21" d="M301.93,168.42a66.66,66.66,0,0,1,7.38-9.94c.13-.14,0-.22-.09-.09a64.06,64.06,0,0,0-8.13,9.48C300.28,169.06,301.2,169.63,301.93,168.42Z"/><path class="cls-22" d="M297.9,175.82c-4.26-1.39-8.62-2.83-12.1-5.64a7.29,7.29,0,0,1-2.27-2.7,3.4,3.4,0,0,1,.24-3.38c.92-1.2,2.67-1.39,4.15-1.09a9.31,9.31,0,0,1,6.46,5.13c-1-3.66-2-7.58-.74-11.16a5.37,5.37,0,0,1,1.49-2.39,2.83,2.83,0,0,1,2.66-.6c1.27.45,1.86,1.91,2.14,3.22a21.49,21.49,0,0,1-.5,10.6,12.68,12.68,0,0,1,3.81-6.18,5.47,5.47,0,0,1,2.2-1.29,2.58,2.58,0,0,1,2.41.51c1,1,.76,2.63.24,3.93C306.13,169.61,301.67,172.89,297.9,175.82Z"/><path class="cls-20" d="M298.07,175.72c-.56-4.64-1.09-9.52.65-13.86a5.75,5.75,0,0,1,1.25-2,2.43,2.43,0,0,1,4.15.88,5.6,5.6,0,0,1,.26,2.67C303.9,167.93,300.92,171.77,298.07,175.72Z"/><path class="cls-20" d="M298,175.86a41,41,0,0,0-3.89-9.22,7.26,7.26,0,0,0-2-2.28,3.23,3.23,0,0,0-2.92-.44,3.3,3.3,0,0,0-1.63,3.87,7.56,7.56,0,0,0,2.64,3.66A23.88,23.88,0,0,0,298,175.86Z"/><path class="cls-20" d="M298.15,175.57c5-.47,10.26-1.08,14-4.34a5.79,5.79,0,0,0,1.7-2.2,2.9,2.9,0,0,0-.2-2.7,3,3,0,0,0-2.45-1.14,6.94,6.94,0,0,0-2.71.67A19.43,19.43,0,0,0,298.15,175.57Z"/><path class="cls-23" d="M299.2,172.47a30.89,30.89,0,0,1-.36-7.75c0-.12-.1-.14-.12,0a28.52,28.52,0,0,0-.51,7.89C298.29,173.5,299.36,173.33,299.2,172.47Z"/><path class="cls-23" d="M299.39,172.85c.63-2.86,1.3-5.72,2.17-8.54,0-.12-.07-.16-.12,0-1.12,2.73-2.17,5.49-3,8.33C298.13,173.57,299.18,173.83,299.39,172.85Z"/><path class="cls-23" d="M299.92,173.25c.68-1.78,1.28-3.6,1.94-5.39a.07.07,0,1,0-.12-.05c-.9,1.68-1.86,3.34-2.74,5C298.7,173.42,299.68,173.86,299.92,173.25Z"/><path class="cls-23" d="M300,174c2.67-2,5.3-4.15,7.95-6.21.12-.09.05-.19-.07-.11-2.81,1.85-5.66,3.64-8.46,5.51C298.43,173.82,299.06,174.71,300,174Z"/><path class="cls-23" d="M300.53,174.13a36.42,36.42,0,0,0,7.65-4.26c.11-.07,0-.17-.07-.11a37.69,37.69,0,0,1-7.92,3.42C299.26,173.46,299.58,174.5,300.53,174.13Z"/><path class="cls-23" d="M300.16,174.63a20.19,20.19,0,0,0,7.06-2.1c.1-.05,0-.16-.05-.12a20.94,20.94,0,0,1-7.06,1.22A.51.51,0,1,0,300.16,174.63Z"/><path class="cls-23" d="M297.13,173.36a45.46,45.46,0,0,1-4.73-6.65c-.06-.11-.16-.06-.11,0a40.58,40.58,0,0,0,4,7.21C296.9,174.75,297.73,174.06,297.13,173.36Z"/><path class="cls-23" d="M296.55,173.7c-1.74-1.66-3.53-3.25-5.29-4.89-.08-.07-.16,0-.09.09,1.56,1.82,3.08,3.69,4.65,5.49C296.36,175,297.15,174.26,296.55,173.7Z"/><path class="cls-23" d="M296,173.69c-2-1.14-4-2.21-6-3.34-.09,0-.15.05-.07.11,1.87,1.35,3.7,2.75,5.58,4.08A.51.51,0,1,0,296,173.69Z"/><path class="cls-13" d="M297.32,176.7a29.33,29.33,0,0,1-3.42-3.45c-.24-.28-.49-.66-.32-1s.68-.35,1.06-.24a3.91,3.91,0,0,1,2.4,2.1,5.64,5.64,0,0,1,.83-3.3c.19-.3.47-.61.82-.58s.63.68.61,1.17a9.67,9.67,0,0,1-.57,3,4.52,4.52,0,0,1,2.8-2.15,1.18,1.18,0,0,1,1,.08.9.9,0,0,1,.17,1.14,2.57,2.57,0,0,1-.92.84A26.8,26.8,0,0,1,297.32,176.7Z"/><path class="cls-20" d="M311.84,198.32c-2.06-3.63-4.16-7.42-4.4-11.58a6,6,0,0,1,.47-3,2.9,2.9,0,0,1,2.38-1.7,2.93,2.93,0,0,1,2.3,1.21,6.62,6.62,0,0,1,1.07,2.46,15,15,0,0,1,.37,6.08,55.66,55.66,0,0,0,1.47-6.44,9.49,9.49,0,0,1,3.18-5.63c1.78-1.3,4.6-1.36,6,.36s.85,4.08,0,6a55.56,55.56,0,0,1-4.74,8,20.93,20.93,0,0,1,6.56-5.61c1.51-.83,3.6-1.38,4.78-.13s.47,3.42-.67,4.75c-2.06,2.38-5.08,3.68-8.06,4.67s-6.09,1.76-8.78,3.39C313.38,200.33,312.66,199.76,311.84,198.32Z"/><path class="cls-21" d="M317,196.88c2-4.4,3.87-8.83,5.82-13.24.08-.19,0-.23-.11,0-2.16,4.31-4.38,8.59-6.52,12.91C315.49,198,316.36,198.39,317,196.88Z"/><path class="cls-21" d="M315.55,195.35a105.54,105.54,0,0,1,5.32-15.83c.1-.23,0-.28-.1-.05a101,101,0,0,0-6.08,15.65C314.16,197,315.1,197.2,315.55,195.35Z"/><path class="cls-21" d="M316.4,195.81c1.82-4.24,3.57-8.51,5.37-12.75.08-.19,0-.23-.11-.05-2,4.15-4.08,8.27-6.07,12.43C314.9,196.86,315.78,197.26,316.4,195.81Z"/><path class="cls-21" d="M317.48,196.12a40,40,0,0,0,6-10.59c.07-.16,0-.2-.1,0a41,41,0,0,1-6.6,10.06C315.88,196.56,316.58,197.21,317.48,196.12Z"/><path class="cls-21" d="M316.22,195.83a41.34,41.34,0,0,1,5.21-13.71c.11-.19,0-.25-.1-.06a40.88,40.88,0,0,0-6,13.58C315,197.32,315.92,197.47,316.22,195.83Z"/><path class="cls-21" d="M318.67,197.44a44.31,44.31,0,0,0,10.58-7c.13-.12.07-.2-.08-.09a44.73,44.73,0,0,1-10.86,6.25C317,197.14,317.33,198,318.67,197.44Z"/><path class="cls-21" d="M319.47,197.47a35.33,35.33,0,0,0,10.58-5.89c.14-.11.07-.19-.07-.09a35.48,35.48,0,0,1-10.78,5.12C317.89,197,318.13,197.91,319.47,197.47Z"/><path class="cls-21" d="M319.37,195.94a59.72,59.72,0,0,1,8.83-6.63c.14-.09.09-.18-.06-.1a56.77,56.77,0,0,0-9.35,6C317.8,196.07,318.44,196.79,319.37,195.94Z"/><path class="cls-22" d="M314.06,201.25c-3.29-2.27-6.66-4.6-8.93-7.89a6.61,6.61,0,0,1-1.26-2.87,3.06,3.06,0,0,1,1.07-2.84,3.7,3.7,0,0,1,3.82.12,8.25,8.25,0,0,1,4.22,6c.09-3.37.24-7,2.2-9.73a4.7,4.7,0,0,1,1.88-1.66,2.48,2.48,0,0,1,2.42.16c1,.7,1.11,2.09,1,3.29a19.11,19.11,0,0,1-3.11,8.93,11.23,11.23,0,0,1,4.82-4.31,4.79,4.79,0,0,1,2.21-.55,2.3,2.3,0,0,1,1.93,1.05c.62,1.08,0,2.44-.79,3.41C322.66,198,318,199.7,314.06,201.25Z"/><path class="cls-20" d="M314.22,201.21c.7-4.11,1.48-8.42,4.07-11.69a5,5,0,0,1,1.58-1.42,2.16,2.16,0,0,1,3.32,1.8,4.8,4.8,0,0,1-.45,2.35C321.18,196,317.66,198.55,314.22,201.21Z"/><path class="cls-20" d="M314.09,201.29a36.55,36.55,0,0,0-1-8.86,6.47,6.47,0,0,0-1.15-2.46,2.62,2.62,0,0,0-4.76,1.78,6.79,6.79,0,0,0,1.34,3.8A21.26,21.26,0,0,0,314.09,201.29Z"/><path class="cls-20" d="M314.33,201.1c4.36.85,9.05,1.67,13.09-.16a5.36,5.36,0,0,0,2-1.46,2.6,2.6,0,0,0,.5-2.36,2.64,2.64,0,0,0-1.8-1.59,6.32,6.32,0,0,0-2.49-.11A17.3,17.3,0,0,0,314.33,201.1Z"/><path class="cls-23" d="M316,198.71a27.29,27.29,0,0,1,1.65-6.72c0-.09-.06-.14-.11,0a26.33,26.33,0,0,0-2.43,6.61C315,199.37,315.93,199.49,316,198.71Z"/><path class="cls-23" d="M316.08,199.09c1.26-2.29,2.56-4.57,4-6.75.07-.1,0-.16-.09-.07-1.64,2-3.25,4.15-4.69,6.36C314.82,199.39,315.65,199.87,316.08,199.09Z"/><path class="cls-23" d="M316.43,199.56c1-1.35,2-2.75,3-4.12.05-.06,0-.12-.09-.07-1.19,1.21-2.43,2.38-3.61,3.61C315.35,199.4,316.08,200,316.43,199.56Z"/><path class="cls-23" d="M316.29,200.22c2.8-1.07,5.57-2.21,8.37-3.3.12,0,.08-.15,0-.11-2.87.86-5.76,1.68-8.63,2.56C315,199.68,315.33,200.59,316.29,200.22Z"/><path class="cls-23" d="M316.73,200.47a32.38,32.38,0,0,0,7.62-1.71c.11,0,.08-.13,0-.11a33.53,33.53,0,0,1-7.64.92C315.81,199.58,315.83,200.54,316.73,200.47Z"/><path class="cls-23" d="M316.29,200.81a18.13,18.13,0,0,0,6.57,0c.09,0,.08-.12,0-.11a18.52,18.52,0,0,1-6.35-.75C315.81,199.72,315.54,200.65,316.29,200.81Z"/><path class="cls-23" d="M314,199a40.19,40.19,0,0,1-2.36-6.88c0-.11-.13-.09-.11,0a37.12,37.12,0,0,0,1.63,7.18C313.47,200.08,314.36,199.7,314,199Z"/><path class="cls-23" d="M313.44,199.09c-1.07-1.85-2.2-3.67-3.29-5.51,0-.08-.14,0-.1,0,.87,2,1.7,3.93,2.59,5.87A.46.46,0,1,0,313.44,199.09Z"/><path class="cls-23" d="M313,199c-1.42-1.48-2.9-2.92-4.34-4.39-.06-.06-.14,0-.08.08,1.25,1.62,2.47,3.28,3.74,4.9A.46.46,0,1,0,313,199Z"/><path class="cls-13" d="M313.34,201.85a25.91,25.91,0,0,1-2.06-3.81c-.13-.3-.25-.69,0-.93s.68-.12,1,.07a3.44,3.44,0,0,1,1.52,2.4A5,5,0,0,1,315.3,197a.85.85,0,0,1,.84-.28c.4.16.37.74.23,1.16a8.73,8.73,0,0,1-1.26,2.42,4,4,0,0,1,2.95-1.12,1,1,0,0,1,.8.3.8.8,0,0,1-.15,1,2.35,2.35,0,0,1-1,.49A24.13,24.13,0,0,1,313.34,201.85Z"/><path class="cls-20" d="M280.35,197.68c-4.16-1.21-8.48-2.5-11.73-5.45a6.54,6.54,0,0,1-1.89-2.59,3,3,0,0,1,.46-3,2.91,2.91,0,0,1,2.54-.77,7,7,0,0,1,2.59,1,16.3,16.3,0,0,1,4.77,4.29,57.8,57.8,0,0,0-3.72-5.9c-1.22-2-2.18-4.28-1.87-6.55s2.28-4.4,4.54-4.12,3.63,2.44,4.47,4.51a60.86,60.86,0,0,1,2.51,9.46,22.11,22.11,0,0,1,.55-9c.48-1.72,1.57-3.67,3.34-3.6s2.87,2.22,3,4c.29,3.29-.91,6.48-2.32,9.41s-3.07,5.79-3.8,9C283,198.06,282,198.16,280.35,197.68Z"/><path class="cls-21" d="M283,192.79c-1.84-4.74-3.76-9.45-5.62-14.18-.08-.21-.18-.18-.11,0,1.63,4.81,3.21,9.64,4.86,14.45C282.72,194.74,283.65,194.42,283,192.79Z"/><path class="cls-21" d="M280.82,192.74a114.4,114.4,0,0,1-7.9-15.77c-.1-.24-.2-.21-.11,0A109.35,109.35,0,0,0,280,193.2C281,195,281.86,194.46,280.82,192.74Z"/><path class="cls-21" d="M281.77,192.45c-1.83-4.5-3.73-9-5.59-13.48-.08-.2-.18-.16-.11,0,1.63,4.58,3.2,9.19,4.84,13.77C281.47,194.34,282.4,194,281.77,192.45Z"/><path class="cls-21" d="M282.77,191.9a43.28,43.28,0,0,0-3.51-12.34c-.08-.18-.18-.14-.11,0A44.3,44.3,0,0,1,281.86,192C282,193.4,282.94,193.38,282.77,191.9Z"/><path class="cls-21" d="M281.65,192.61a45,45,0,0,1-6.4-14.1c-.06-.22-.17-.2-.12,0a44.65,44.65,0,0,0,5.75,14.57C281.86,194.64,282.66,194.05,281.65,192.61Z"/><path class="cls-21" d="M284.61,192A46.4,46.4,0,0,0,287,179c0-.19-.1-.2-.12,0a46.73,46.73,0,0,1-3.18,12.64C283.18,193,284.09,193.45,284.61,192Z"/><path class="cls-21" d="M285.2,191.45a36.48,36.48,0,0,0,3.24-12.17c0-.18-.09-.2-.12,0A36.82,36.82,0,0,1,284.37,191C283.7,192.23,284.56,192.76,285.2,191.45Z"/><path class="cls-21" d="M284,190.38a63.13,63.13,0,0,1,1.43-11.45c0-.17-.07-.2-.12,0a59.78,59.78,0,0,0-2.23,11.39C283,191.63,284,191.69,284,190.38Z"/><path class="cls-22" d="M284.11,198.25c-4,.72-8.18,1.44-12.24.64a6.94,6.94,0,0,1-3-1.23,3.31,3.31,0,0,1-1.33-2.9,3.75,3.75,0,0,1,2.83-2.73,8.57,8.57,0,0,1,7.49,1.42c-2.44-2.59-5-5.4-5.62-8.9a5,5,0,0,1,.12-2.62,2.48,2.48,0,0,1,1.86-1.66c1.22-.19,2.34.76,3.16,1.72a20.79,20.79,0,0,1,4.38,9,12,12,0,0,1,.27-6.77,5,5,0,0,1,1.18-2,2.3,2.3,0,0,1,2.16-.63c1.24.36,1.8,1.84,2,3.14C287.9,189.52,285.81,194.18,284.11,198.25Z"/><path class="cls-20" d="M284.2,198.1c-2.54-3.59-5.17-7.39-5.73-11.74a5.35,5.35,0,0,1,.08-2.22,2.4,2.4,0,0,1,1.38-1.62,2.45,2.45,0,0,1,2.34.53,5.29,5.29,0,0,1,1.42,2.09C285.36,189.11,284.7,193.58,284.2,198.1Z"/><path class="cls-20" d="M284.17,198.26a39.58,39.58,0,0,0-7.28-5.91,6.8,6.8,0,0,0-2.65-1,2.9,2.9,0,0,0-2.54.92,3.15,3.15,0,0,0,.45,3.91,7.06,7.06,0,0,0,3.77,1.86A21.36,21.36,0,0,0,284.17,198.26Z"/><path class="cls-20" d="M284.2,197.93c3.76-2.55,7.73-5.38,9.28-9.71a5.52,5.52,0,0,0,.37-2.57,2.8,2.8,0,0,0-1.38-2.14,2.69,2.69,0,0,0-2.48.13,6.19,6.19,0,0,0-1.87,1.74A18,18,0,0,0,284.2,197.93Z"/><path class="cls-23" d="M283.64,194.91a29.5,29.5,0,0,1-3.78-6.24c-.05-.1-.15-.06-.11,0a27.94,27.94,0,0,0,3.15,6.74C283.38,196.17,284.15,195.56,283.64,194.91Z"/><path class="cls-23" d="M284,195.15c-.79-2.64-1.54-5.3-2.12-8,0-.12-.13-.11-.12,0,.34,2.74.74,5.49,1.34,8.21C283.28,196.3,284.24,196.05,284,195.15Z"/><path class="cls-23" d="M284.57,195.25c-.26-1.77-.6-3.54-.88-5.3a.06.06,0,1,0-.12,0c0,1.79,0,3.58.08,5.36C283.67,195.92,284.66,195.85,284.57,195.25Z"/><path class="cls-23" d="M285,195.85c1.22-2.86,2.37-5.75,3.57-8.62.05-.12,0-.17-.11,0-1.42,2.75-2.89,5.48-4.29,8.25C283.64,196.37,284.54,196.83,285,195.85Z"/><path class="cls-23" d="M285.45,195.71a32.61,32.61,0,0,0,4.22-6.87c.05-.11-.05-.16-.11-.06a34.08,34.08,0,0,1-4.8,6.29C284.14,195.71,284.86,196.42,285.45,195.71Z"/><path class="cls-23" d="M285.39,196.28a18.18,18.18,0,0,0,4.71-4.83c0-.08,0-.15-.1-.07a18.11,18.11,0,0,1-5.11,4.09A.48.48,0,1,0,285.39,196.28Z"/><path class="cls-23" d="M282.38,196.56a42.71,42.71,0,0,1-6.78-3.43c-.1-.06-.16,0-.07.1a39.54,39.54,0,0,0,6.5,4.18C282.82,197.81,283.18,196.87,282.38,196.56Z"/><path class="cls-23" d="M282.07,197.09c-2.14-.6-4.3-1.14-6.44-1.72-.09,0-.12.08,0,.11,2.07.83,4.13,1.7,6.2,2.5C282.52,198.26,282.8,197.3,282.07,197.09Z"/><path class="cls-23" d="M281.66,197.31c-2.12-.07-4.24-.06-6.36-.11-.1,0-.1.11,0,.12,2.11.3,4.21.66,6.32.93A.48.48,0,1,0,281.66,197.31Z"/><path class="cls-13" d="M284.05,199.23a27.83,27.83,0,0,1-4.3-1.34c-.32-.13-.7-.34-.71-.69s.39-.59.75-.66a3.63,3.63,0,0,1,2.87.68,5.35,5.35,0,0,1-.83-3.09c0-.33.1-.71.39-.83s.82.29,1,.7a9.4,9.4,0,0,1,.89,2.73,4.19,4.19,0,0,1,1.28-3,1,1,0,0,1,.8-.35.86.86,0,0,1,.65.86,2.39,2.39,0,0,1-.36,1.1A24.24,24.24,0,0,1,284.05,199.23Z"/><path class="cls-13" d="M1346.74,368.63c.74-8.29,1.88-16.5,3-24.71s2.57-16.35,3.59-24.56,1.83-16.45,2.31-24.71.76-16.55.71-24.84a.11.11,0,0,1,.11-.11.12.12,0,0,1,.12.11q.53,12.42.19,24.89c-.26,8.3-.83,16.59-1.65,24.86s-1.7,16.54-3.14,24.71-3,16.32-5,24.39a.13.13,0,0,1-.14.09A.13.13,0,0,1,1346.74,368.63Z"/><path class="cls-13" d="M1342.49,234.14q1.24,16.74,2.26,33.53t1.7,33.59c.47,11.21,1.06,22.42,1.11,33.65s0,22.47-.59,33.69c0,.09-.06.16-.12.15a.15.15,0,0,1-.11-.14c-.68-11.21-1.07-22.41-1.44-33.61s-.39-22.42-.66-33.62-.6-22.41-1-33.61-.83-22.41-1.35-33.61a.14.14,0,0,1,.1-.16C1342.43,234,1342.49,234.06,1342.49,234.14Z"/><path class="cls-24" d="M1364.44,266.06c3,3.71,6.09,7.75,6.42,12.5a5.15,5.15,0,0,1-.35,2.49,2.41,2.41,0,0,1-1.94,1.45c-.74,0-1.5-.37-2.2-.14-1.1.35-1.38,2-2.49,2.29-.83.22-1.61-.44-2.16-1.1s-1.11-1.42-2-1.54-1.6.42-2.41.3a2,2,0,0,1-1.53-1.38,4.83,4.83,0,0,1-.16-2.14A16.2,16.2,0,0,1,1364.44,266.06Z"/><path class="cls-24" d="M1363.74,267.28c-2.61,4-5.48,8.19-9.9,10a5.09,5.09,0,0,1-2.48.44,2.4,2.4,0,0,1-2-1.4c-.26-.69-.11-1.54-.54-2.14-.68-.93-2.33-.69-2.95-1.66a2.28,2.28,0,0,1,.37-2.38,3.49,3.49,0,0,0,.86-2.34c-.13-.81-.89-1.4-1-2.21a2,2,0,0,1,.84-1.88,4.77,4.77,0,0,1,2-.81A16.2,16.2,0,0,1,1363.74,267.28Z"/><path class="cls-24" d="M1362.36,267c-4.59-1.25-9.48-2.68-12.54-6.33a5.11,5.11,0,0,1-1.19-2.22,2.4,2.4,0,0,1,.72-2.31c.58-.47,1.43-.58,1.87-1.19.68-.93-.06-2.42.67-3.31a2.31,2.31,0,0,1,2.38-.39,3.55,3.55,0,0,0,2.5.1c.72-.38,1-1.28,1.77-1.66a2.05,2.05,0,0,1,2,.21,5,5,0,0,1,1.39,1.65A16.18,16.18,0,0,1,1362.36,267Z"/><path class="cls-24" d="M1362.21,265.6c-.23-4.76-.38-9.86,2.15-13.89a5,5,0,0,1,1.74-1.81,2.38,2.38,0,0,1,2.42,0c.62.4,1,1.18,1.7,1.41,1.1.35,2.29-.81,3.37-.4.79.31,1,1.31,1.1,2.16a3.52,3.52,0,0,0,.67,2.4c.59.57,1.55.6,2.14,1.17a2,2,0,0,1,.42,2,4.88,4.88,0,0,1-1.13,1.82A16.19,16.19,0,0,1,1362.21,265.6Z"/><path class="cls-24" d="M1363.49,265c4.45-1.69,9.25-3.41,13.87-2.25a5,5,0,0,1,2.26,1.1,2.41,2.41,0,0,1,.78,2.29c-.19.72-.81,1.31-.81,2.06,0,1.15,1.47,1.92,1.41,3.07,0,.86-.92,1.4-1.71,1.72s-1.7.61-2.07,1.38-.1,1.65-.46,2.39a2,2,0,0,1-1.79,1,4.85,4.85,0,0,1-2.09-.52A16.18,16.18,0,0,1,1363.49,265Z"/><path class="cls-25" d="M1363.08,265.56c-3.06-3.34-6.22-6.63-9.28-10,0,0-.06,0,0,0,1.28,1.89,2.55,3.8,3.92,5.65a40.55,40.55,0,0,0,4.5,5.2C1362.59,266.85,1363.46,266,1363.08,265.56Z"/><path class="cls-25" d="M1363.28,265.58a24,24,0,0,0-5.11-7.72s-.06,0-.05,0a34.58,34.58,0,0,1,2.1,4.11c.62,1.4,1.21,2.78,1.9,4.11C1362.3,266.45,1363.43,266,1363.28,265.58Z"/><path class="cls-25" d="M1364.1,264.83a16.62,16.62,0,0,0-1.39-5.4,18,18,0,0,0-3-4.67s-.06,0,0,0a19.71,19.71,0,0,1,2.09,5,49.61,49.61,0,0,1,1.07,5.18C1362.9,265.42,1364.13,265.3,1364.1,264.83Z"/><path class="cls-25" d="M1363.66,266.59a44.09,44.09,0,0,1,1.44-6.06,36.39,36.39,0,0,1,2.39-5.79s0-.06,0,0a31.28,31.28,0,0,0-3.31,5.49,19.14,19.14,0,0,0-1.73,6.25C1362.35,267,1363.58,267.11,1363.66,266.59Z"/><path class="cls-25" d="M1364.27,266.2c2.07-3.32,4.07-6.7,6.17-10,0,0,0-.05,0,0-1.31,1.46-2.66,2.93-3.91,4.48a29.32,29.32,0,0,0-3.32,4.95C1362.93,266,1364,266.61,1364.27,266.2Z"/><path class="cls-25" d="M1364.57,266.33a16.94,16.94,0,0,0,4.87-3.29,18.2,18.2,0,0,0,3.49-4.68s0-.05,0,0a19.3,19.3,0,0,1-4.13,3.95,41.66,41.66,0,0,1-4.74,2.92C1363.6,265.41,1364.11,266.53,1364.57,266.33Z"/><path class="cls-25" d="M1364.36,266.2a19.72,19.72,0,0,0,4.1,4.78,21.52,21.52,0,0,0,5.31,3.3s0,0,0-.06a23.22,23.22,0,0,1-4.65-4,53.63,53.63,0,0,1-3.73-4.72C1365.13,265.1,1364.08,265.75,1364.36,266.2Z"/><path class="cls-25" d="M1364.77,265.92a16.21,16.21,0,0,0,3.92,2.68,17.94,17.94,0,0,0,4.47,1.49s0,0,0-.06a20.61,20.61,0,0,1-4-2.33c-1.25-.9-2.4-1.85-3.59-2.75C1365.29,264.72,1364.47,265.65,1364.77,265.92Z"/><path class="cls-25" d="M1365.58,266.54a30.11,30.11,0,0,1,5,.47,25,25,0,0,1,4.89,1.4s0-.05,0-.06a21.41,21.41,0,0,0-4.69-2.34,13.15,13.15,0,0,0-5.28-.74C1365.07,265.31,1365.16,266.54,1365.58,266.54Z"/><path class="cls-25" d="M1364.57,265.62a32.62,32.62,0,0,1,5-.52,28.29,28.29,0,0,1,5.11.31s0-.05,0-.06a24.21,24.21,0,0,0-5.11-1.28,13.93,13.93,0,0,0-5.34.3C1363.85,264.49,1364.15,265.69,1364.57,265.62Z"/><path class="cls-25" d="M1363.35,265.85a27.79,27.79,0,0,0-2.85,6.16,31.35,31.35,0,0,0-1.38,6.61s.06,0,.06,0a35.44,35.44,0,0,1,2.29-6.28c.93-2,2-3.93,3-5.86C1364.71,266,1363.65,265.36,1363.35,265.85Z"/><path class="cls-25" d="M1363.36,265.87a90.52,90.52,0,0,0,.08,11.41s.06,0,.06,0c.42-3.78,1.2-7.58,1.14-11.38C1364.63,265.43,1363.4,265.4,1363.36,265.87Z"/><path class="cls-25" d="M1363.69,266.28a42.32,42.32,0,0,1,1.68,6,36,36,0,0,1,.68,6.23s.06,0,.07,0a31.09,31.09,0,0,0,.26-6.41,18.86,18.86,0,0,0-1.51-6.31C1364.65,265.3,1363.52,265.79,1363.69,266.28Z"/><path class="cls-25" d="M1364.06,266.71a20.74,20.74,0,0,1,2.63,5.05,19.21,19.21,0,0,1,1.11,5.65s0,0,.06,0a17.61,17.61,0,0,0-.19-6,12.85,12.85,0,0,0-2.6-5.52C1364.73,265.53,1363.79,266.32,1364.06,266.71Z"/><path class="cls-25" d="M1363.45,265.39a16,16,0,0,0-4.56-1.34,18.28,18.28,0,0,0-4.73,0s0,.06,0,.06a20.29,20.29,0,0,1,4.54,1c1.47.47,2.86,1,4.27,1.51C1363.33,266.69,1363.82,265.56,1363.45,265.39Z"/><path class="cls-25" d="M1364,265.43a26,26,0,0,0-10.66,2.84s0,.06,0,.05a33.18,33.18,0,0,1,5.38-1c1.8-.22,3.59-.36,5.36-.58C1364.55,266.65,1364.48,265.42,1364,265.43Z"/><path class="cls-25" d="M1363,266.42a32,32,0,0,1-5.28,3,28.06,28.06,0,0,1-5.83,1.92,0,0,0,0,0,0,.06,25.2,25.2,0,0,0,6.21-1,16.55,16.55,0,0,0,5.67-3C1364.23,267.08,1363.45,266.12,1363,266.42Z"/><path class="cls-25" d="M1363.94,265.3a23.16,23.16,0,0,0-6.9-.38,25,25,0,0,0-6.7,1.57s0,.06,0,.05a27.87,27.87,0,0,1,6.74-.6,58,58,0,0,1,6.62.62C1364.26,266.63,1364.51,265.42,1363.94,265.3Z"/><circle class="cls-26" cx="1363.45" cy="265.2" r="3.7"/><path class="cls-24" d="M1340.77,229.63c1.11,4.63,2.2,9.61.47,14a5,5,0,0,1-1.38,2.11,2.38,2.38,0,0,1-2.37.47c-.69-.28-1.2-1-1.93-1.06-1.15-.15-2.1,1.22-3.24,1-.83-.16-1.26-1.09-1.48-1.91a3.54,3.54,0,0,0-1.11-2.24c-.68-.45-1.63-.31-2.31-.75a2.07,2.07,0,0,1-.8-1.91,4.92,4.92,0,0,1,.78-2A16.17,16.17,0,0,1,1340.77,229.63Z"/><path class="cls-24" d="M1339.62,230.43c-4.06,2.49-8.46,5.07-13.21,4.79a5.08,5.08,0,0,1-2.43-.66,2.4,2.4,0,0,1-1.19-2.11c.06-.74.56-1.44.42-2.17-.22-1.13-1.81-1.62-2-2.76-.11-.85.64-1.54,1.36-2s1.55-.92,1.78-1.74-.21-1.65,0-2.44A2,2,0,0,1,1326,220a4.76,4.76,0,0,1,2.15.12A16.17,16.17,0,0,1,1339.62,230.43Z"/><path class="cls-24" d="M1338.5,229.59c-3.62-3.1-7.43-6.48-8.63-11.09a5,5,0,0,1-.13-2.51,2.39,2.39,0,0,1,1.64-1.79c.72-.17,1.54.09,2.19-.27,1-.55,1-2.22,2-2.71a2.31,2.31,0,0,1,2.32.67,3.55,3.55,0,0,0,2.21,1.15c.82,0,1.5-.7,2.32-.74a2,2,0,0,1,1.76,1.07,4.8,4.8,0,0,1,.55,2.08A16.18,16.18,0,0,1,1338.5,229.59Z"/><path class="cls-24" d="M1339,228.26c1.83-4.4,3.87-9.07,7.88-11.64a5.15,5.15,0,0,1,2.35-.9,2.41,2.41,0,0,1,2.2,1c.39.64.4,1.49.94,2,.84.79,2.42.25,3.21,1.09a2.31,2.31,0,0,1,.07,2.41,3.55,3.55,0,0,0-.41,2.46c.28.77,1.13,1.21,1.43,2a2.06,2.06,0,0,1-.48,2,5,5,0,0,1-1.81,1.17A16.21,16.21,0,0,1,1339,228.26Z"/><path class="cls-24" d="M1340.36,228.28c4.75.37,9.82.88,13.5,3.9a5,5,0,0,1,1.58,2,2.4,2.4,0,0,1-.28,2.4c-.48.57-1.29.84-1.61,1.51-.49,1,.51,2.37,0,3.39a2.31,2.31,0,0,1-2.27.81,3.57,3.57,0,0,0-2.47.37c-.64.51-.8,1.45-1.43,2a2.05,2.05,0,0,1-2.06.16,4.76,4.76,0,0,1-1.67-1.36A16.17,16.17,0,0,1,1340.36,228.28Z"/><path class="cls-25" d="M1339.76,228.59c-1.34-4.32-2.79-8.64-4.12-13,0,0-.07,0-.06,0,.35,2.25.68,4.52,1.13,6.78a40.85,40.85,0,0,0,1.84,6.62C1338.76,229.55,1339.93,229.14,1339.76,228.59Z"/><path class="cls-25" d="M1339.93,228.7a24.19,24.19,0,0,0-1.32-9.17s-.07,0-.06,0a35.71,35.71,0,0,1,.14,4.62c0,1.52-.09,3,0,4.53C1338.67,229.07,1339.91,229.09,1339.93,228.7Z"/><path class="cls-25" d="M1341,228.37a16.76,16.76,0,0,0,1.06-5.47,18.11,18.11,0,0,0-.71-5.5s-.07,0-.06,0a19.61,19.61,0,0,1-.26,5.42,50,50,0,0,1-1.24,5.14C1339.66,228.39,1340.82,228.82,1341,228.37Z"/><path class="cls-25" d="M1339.84,229.78a43.24,43.24,0,0,1,3.89-4.87,37.12,37.12,0,0,1,4.64-4.21s0-.07,0-.06a31.35,31.35,0,0,0-5.34,3.55,19.15,19.15,0,0,0-4.23,4.91C1338.49,229.57,1339.55,230.21,1339.84,229.78Z"/><path class="cls-25" d="M1340.56,229.68c3.29-2.11,6.54-4.32,9.86-6.43,0,0,0-.06,0-.05-1.81.77-3.65,1.52-5.45,2.39a29.57,29.57,0,0,0-5.11,3C1339.43,228.94,1340.14,229.94,1340.56,229.68Z"/><path class="cls-25" d="M1340.78,229.93a16.93,16.93,0,0,0,5.81-.9,18.21,18.21,0,0,0,5.15-2.74s0-.06,0,0a19.33,19.33,0,0,1-5.42,1.81,43.49,43.49,0,0,1-5.53.61C1340.3,228.68,1340.27,229.92,1340.78,229.93Z"/><path class="cls-25" d="M1340.64,229.73a19.81,19.81,0,0,0,1.67,6.06,21.37,21.37,0,0,0,3.39,5.25s.07,0,0,0a22.84,22.84,0,0,1-2.49-5.61,50.66,50.66,0,0,1-1.36-5.86C1341.81,229.05,1340.59,229.19,1340.64,229.73Z"/><path class="cls-25" d="M1341.13,229.65a16.33,16.33,0,0,0,2.4,4.09,18.14,18.14,0,0,0,3.41,3.26s.06,0,0-.05a20.55,20.55,0,0,1-2.62-3.82c-.74-1.34-1.38-2.69-2.07-4C1342.12,228.78,1341,229.27,1341.13,229.65Z"/><path class="cls-25" d="M1341.6,230.55a29.93,29.93,0,0,1,4.32,2.56,24.72,24.72,0,0,1,3.82,3.35s.06,0,0,0a21.45,21.45,0,0,0-3.24-4.12,13.23,13.23,0,0,0-4.45-2.92C1341.67,229.22,1341.22,230.37,1341.6,230.55Z"/><path class="cls-25" d="M1341.08,229.28a33.92,33.92,0,0,1,4.78,1.69,27.69,27.69,0,0,1,4.49,2.47s.05,0,0-.05a23.6,23.6,0,0,0-4.07-3.34,14,14,0,0,0-5-2C1340.91,228,1340.67,229.17,1341.08,229.28Z"/><path class="cls-25" d="M1339.87,229a28.74,28.74,0,0,0-5.2,4.34,31.64,31.64,0,0,0-4.07,5.39s0,.06.05,0a35.15,35.15,0,0,1,4.75-4.7c1.7-1.42,3.46-2.72,5.2-4C1341,229.69,1340.36,228.66,1339.87,229Z"/><path class="cls-25" d="M1339.88,229a91.43,91.43,0,0,0-4.8,10.34s0,0,.05,0c2-3.24,4.32-6.34,5.89-9.8C1341.22,229.14,1340.11,228.58,1339.88,229Z"/><path class="cls-25" d="M1340,229.51a42.8,42.8,0,0,1-1,6.14,35.26,35.26,0,0,1-2,5.93s0,0,.06,0a30.94,30.94,0,0,0,3-5.68,18.93,18.93,0,0,0,1.34-6.35C1341.29,229,1340.05,229,1340,229.51Z"/><path class="cls-25" d="M1340.15,230.06a20.78,20.78,0,0,1,.22,5.68,18.85,18.85,0,0,1-1.41,5.58s0,.05,0,0a17.32,17.32,0,0,0,2.38-5.47,12.71,12.71,0,0,0,0-6.1C1341.26,229.27,1340.07,229.59,1340.15,230.06Z"/><path class="cls-25" d="M1340.17,228.6a16,16,0,0,0-3.55-3.16,18.24,18.24,0,0,0-4.27-2.05s0,.05,0,.06a20.83,20.83,0,0,1,3.69,2.82c1.12,1,2.14,2.14,3.21,3.19C1339.5,229.73,1340.43,228.91,1340.17,228.6Z"/><path class="cls-25" d="M1340.65,228.88a25.76,25.76,0,0,0-10.85-2s0,.06,0,.06a32.79,32.79,0,0,1,5.31,1.35c1.72.57,3.39,1.21,5.09,1.77C1340.62,230.21,1341.08,229.06,1340.65,228.88Z"/><path class="cls-25" d="M1339.35,229.35a31.6,31.6,0,0,1-6.07.48,27.3,27.3,0,0,1-6.09-.76s0,.05,0,.06a25.13,25.13,0,0,0,6.06,1.73,16.78,16.78,0,0,0,6.39-.26C1340.15,230.47,1339.85,229.27,1339.35,229.35Z"/><path class="cls-25" d="M1340.64,228.73a23.21,23.21,0,0,0-6.07-3.3,25.22,25.22,0,0,0-6.72-1.44s0,.06,0,.06a27.17,27.17,0,0,1,6.35,2.34,56.17,56.17,0,0,1,5.72,3.38C1340.37,230.07,1341.11,229.08,1340.64,228.73Z"/><circle class="cls-26" cx="1340.25" cy="228.43" r="3.7"/></g></g></svg>