<svg xmlns="http://www.w3.org/2000/svg" viewBox="0 0 1600 590"><defs><style>.cls-1{fill:#3a7541;}.cls-2{fill:#499153;}.cls-3{fill:#3d7f31;}.cls-4{fill:#fff;}.cls-5{fill:#fabd28;}</style></defs><g id="Livello_2" data-name="Livello 2"><g id="colline"><path class="cls-1" d="M1600,100.59V432H0V60.51l1-.16a271.21,271.21,0,0,1,47.83-3.19c46.31.94,91.82,13,137,29.9C224,101.34,262,119.07,300,136.48c26.56,12.16,53.16,24.15,79.9,34.7a791.62,791.62,0,0,0,138.35,40.66q33.91,6.66,68.1,10.16a717.59,717.59,0,0,0,147.26,0,695.74,695.74,0,0,0,173.08-40.82c108.2-40.68,209.75-108.78,318-149.34,65.81-24.67,136.49-38.18,204-28.9,43.5,6,85.69,21.44,124.41,49.48q7.55,5.46,14.51,11.63A202.73,202.73,0,0,1,1599,99.19Z"/><path class="cls-2" d="M1600,187.05V590H0V276.18A235.48,235.48,0,0,1,30.6,222a188.85,188.85,0,0,1,44.87-42.31c68-45.64,146.88-54.62,224.57-43.21,33.13,4.88,66,13.46,97.8,24.49,40.87,14.2,80.78,32.1,120.45,50.87Q529,216.9,539.61,222C595.87,249,651.94,276.61,710,296.82c168.14,58.59,349.59,52.17,517.11-9.09,54-19.74,107.4-45.05,161.1-65.73,69.19-26.65,138.86-45.62,210.84-35.09Z"/><path class="cls-3" d="M1268.58,106.91a1.25,1.25,0,0,0-.87-2.11H1267a3,3,0,0,0-1.34-.12,4.81,4.81,0,0,0-2.16.44,14.2,14.2,0,0,0-2.12.9,29,29,0,0,0-3.12,2c-.24.17-.44.36-.66.54,0-.06,0-.13,0-.2.36-1.62.67-3.22.87-4.88.16-1.41.51-3.14-.07-4.52a5.05,5.05,0,0,0-.06-.68,1.55,1.55,0,0,0-.24-.78l-.72-.91c0-.59-.89-.88-1.15-.31a5,5,0,0,1-1,.47,1.61,1.61,0,0,0-.59.54,4.93,4.93,0,0,0-.42.66,8.32,8.32,0,0,0-1.93,3.53,36.16,36.16,0,0,0-1.21,3.69c-.31,1.2-.61,2.4-.92,3.59-.1.42-.21.83-.33,1.25-.44-.42-.88-.84-1.35-1.24a13.82,13.82,0,0,0-1.71-1.34,7.3,7.3,0,0,0-2-.88,3.47,3.47,0,0,0-3.32.88,3.38,3.38,0,0,0-.88,3.32,9.7,9.7,0,0,0,.53,1.29,9,9,0,0,0,.92,1.23,8.23,8.23,0,0,0,1,1c.67.64,1.35,1.27,2.07,1.86l.78.6a2.82,2.82,0,0,0,1.45.46,1.81,1.81,0,0,0,1,0,2.75,2.75,0,0,0,.94-.22c.09,0,.18,0,.26,0a3.19,3.19,0,0,0,1.23-.71,1.92,1.92,0,0,0,.22.18,3.24,3.24,0,0,0,2.45.41,6.23,6.23,0,0,0,.5.68l-.09-.16a1.53,1.53,0,0,0,1.24.73c.14,0,.08.1.14.11a3.58,3.58,0,0,0,1.69,0,4.4,4.4,0,0,0,1.84-1.1c.43-.4.83-.83,1.23-1.26.8-.86,1.68-1.64,2.5-2.49a30.12,30.12,0,0,1,2.48-2.31c.45-.37.86-.76,1.29-1.16a5.53,5.53,0,0,0,1.42-1.6,3.62,3.62,0,0,0,.42-.74Z"/><path class="cls-3" d="M1099.15,254a2.5,2.5,0,0,0-.74-.68,3.22,3.22,0,0,0-2.15-.86l-.79-.08c-.11,0-.89-.16-.52-.08.53.13-1-.12-1.2-.13H1093c-.53,0-1,0-1.58,0a27.42,27.42,0,0,0-3.83.46,6,6,0,0,0-2.06.68,2.23,2.23,0,0,0-.24.19l0-.13c.13-.58.27-1.16.4-1.73s.27-1.07.44-1.59c.09-.26.19-.51.28-.77v0l0,0c.33-.72.57-1.44.85-2.18.11-.31.11-.31.07-.23a5.08,5.08,0,0,0,.28-1v0a7.75,7.75,0,0,0,.53-2.31c0-.09,0-.19.09-.29.45-1.1-.82-2-1.78-1.78l-.08,0-.41-.05a4,4,0,0,0-1,.2,9,9,0,0,0-1.53.65,8.68,8.68,0,0,0-3.67,3.16,17.68,17.68,0,0,0-1.79,3.17,15.53,15.53,0,0,0-1,3.19,26.31,26.31,0,0,0-3.2-3.14,12,12,0,0,0-2-1.42,7.19,7.19,0,0,0-2.37-1,.76.76,0,0,0-.15,0,1.7,1.7,0,0,0-.35-.14,3.33,3.33,0,0,0-.82-.17H1068a12.44,12.44,0,0,0-1.93-.26,1.49,1.49,0,0,0-1.27,2.22,7.26,7.26,0,0,0,.8,1.28c.07.11.07.09,0-.08s-.06-.19.07.15a3.59,3.59,0,0,0,.52.84,2.43,2.43,0,0,0,.34.73c.12.15.24.3.35.46s0,0,.06.07c.24.32.46.65.69,1,.56.77,1.2,1.48,1.81,2.22.44.59.87,1.2,1.28,1.83.23.34.48.67.72,1a14.08,14.08,0,0,0,1.35,1.8,3.81,3.81,0,0,0,3.79,1,9.64,9.64,0,0,0,1.2-.57,4,4,0,0,0,3.55,1.4,4.11,4.11,0,0,0,3.29-2.81,3.26,3.26,0,0,0,1.25.93,5.48,5.48,0,0,0,2.47.31,29.32,29.32,0,0,0,4-.55,13.47,13.47,0,0,0,3.47-1l.3-.14.74-.28a4.76,4.76,0,0,0,1.33-.62,2.48,2.48,0,0,0,.65-.81,2.35,2.35,0,0,0,.52-.82A.66.66,0,0,0,1099.15,254Z"/><path class="cls-3" d="M1095.83,257.85l-.06,0C1095.6,258,1095.49,258,1095.83,257.85Z"/><path class="cls-3" d="M828.58,262.91a1.25,1.25,0,0,0-.87-2.11H827a3,3,0,0,0-1.34-.12,4.81,4.81,0,0,0-2.16.44,14.2,14.2,0,0,0-2.12.9,29,29,0,0,0-3.12,2c-.24.17-.44.36-.66.54,0-.06,0-.13,0-.2.36-1.62.67-3.22.87-4.88.16-1.41.51-3.14-.07-4.52a5.05,5.05,0,0,0-.06-.68,1.55,1.55,0,0,0-.24-.78l-.72-.91c0-.59-.89-.88-1.15-.31a5,5,0,0,1-1,.47,1.61,1.61,0,0,0-.59.54,4.93,4.93,0,0,0-.42.66,8.32,8.32,0,0,0-1.93,3.53,36.16,36.16,0,0,0-1.21,3.69c-.31,1.2-.61,2.4-.92,3.59-.1.42-.21.83-.33,1.25-.44-.42-.88-.84-1.35-1.24a13.82,13.82,0,0,0-1.71-1.34,7.3,7.3,0,0,0-2-.88,3.47,3.47,0,0,0-3.32.88,3.38,3.38,0,0,0-.88,3.32,9.7,9.7,0,0,0,.53,1.29,9,9,0,0,0,.92,1.23,8.23,8.23,0,0,0,1,1c.67.64,1.35,1.27,2.07,1.86l.78.6a2.82,2.82,0,0,0,1.45.46,1.81,1.81,0,0,0,1,0,2.75,2.75,0,0,0,.94-.22c.09,0,.18,0,.26,0a3.19,3.19,0,0,0,1.23-.71,1.92,1.92,0,0,0,.22.18,3.24,3.24,0,0,0,2.45.41,6.23,6.23,0,0,0,.5.68l-.09-.16a1.53,1.53,0,0,0,1.24.73c.14,0,.08.1.14.11a3.58,3.58,0,0,0,1.69,0,4.4,4.4,0,0,0,1.84-1.1c.43-.4.83-.83,1.23-1.26.8-.86,1.68-1.64,2.5-2.49a30.12,30.12,0,0,1,2.48-2.31c.45-.37.86-.76,1.29-1.16a5.53,5.53,0,0,0,1.42-1.6,3.62,3.62,0,0,0,.42-.74Z"/><path class="cls-3" d="M1492.15,344a2.5,2.5,0,0,0-.74-.68,3.22,3.22,0,0,0-2.15-.86l-.79-.08c-.11,0-.89-.16-.52-.08.53.13-1-.12-1.2-.13H1486c-.53,0-1,0-1.58,0a27.42,27.42,0,0,0-3.83.46,6,6,0,0,0-2.06.68,2.23,2.23,0,0,0-.24.19l0-.13c.13-.58.27-1.16.4-1.73s.27-1.07.44-1.59c.09-.26.19-.51.28-.77v0l0,0c.33-.72.57-1.44.85-2.18.11-.31.11-.31.07-.23a5.08,5.08,0,0,0,.28-1v0a7.75,7.75,0,0,0,.53-2.31c0-.09,0-.19.09-.29.45-1.1-.82-2-1.78-1.78l-.08,0-.41-.05a4,4,0,0,0-1,.2,9,9,0,0,0-1.53.65,8.68,8.68,0,0,0-3.67,3.16,17.68,17.68,0,0,0-1.79,3.17,15.53,15.53,0,0,0-1,3.19,26.31,26.31,0,0,0-3.2-3.14,12,12,0,0,0-2-1.42,7.19,7.19,0,0,0-2.37-1,.76.76,0,0,0-.15,0,1.7,1.7,0,0,0-.35-.14,3.33,3.33,0,0,0-.82-.17H1461a12.44,12.44,0,0,0-1.93-.26,1.49,1.49,0,0,0-1.27,2.22,7.26,7.26,0,0,0,.8,1.28c.07.11.07.09,0-.08s-.06-.19.07.15a3.59,3.59,0,0,0,.52.84,2.43,2.43,0,0,0,.34.73c.12.15.24.3.35.46s0,0,.06.07c.24.32.46.65.69,1,.56.77,1.2,1.48,1.81,2.22.44.59.87,1.2,1.28,1.83.23.34.48.67.72,1a14.08,14.08,0,0,0,1.35,1.8,3.81,3.81,0,0,0,3.79,1,9.64,9.64,0,0,0,1.2-.57,4,4,0,0,0,3.55,1.4,4.11,4.11,0,0,0,3.29-2.81,3.26,3.26,0,0,0,1.25.93,5.48,5.48,0,0,0,2.47.31,29.32,29.32,0,0,0,4-.55,13.47,13.47,0,0,0,3.47-1l.3-.14.74-.28a4.76,4.76,0,0,0,1.33-.62,2.48,2.48,0,0,0,.65-.81,2.35,2.35,0,0,0,.52-.82A.66.66,0,0,0,1492.15,344Z"/><path class="cls-3" d="M1488.83,347.85l-.06,0C1488.6,348,1488.49,348,1488.83,347.85Z"/><path class="cls-4" d="M482.89,487.7a4.4,4.4,0,0,0-.7-2.21,11,11,0,0,0-3.76-3.65,13.5,13.5,0,0,0-3.37-1.59l-.08,0,1.88-2.37a9.92,9.92,0,0,0,2.12-3.31,11.2,11.2,0,0,0,.24-1.82,3.47,3.47,0,0,0,0-.72,5.07,5.07,0,0,0-1.4-3.36,4.56,4.56,0,0,0-3.36-1.4,9,9,0,0,0-1.79.32,16.25,16.25,0,0,0-1.62.67,8.19,8.19,0,0,0-2.71,2.78L466.92,473a5.79,5.79,0,0,0-1.12-1.46,12.9,12.9,0,0,0-2.09-1.6,6.94,6.94,0,0,0-9.49,2.49,6.83,6.83,0,0,0-.94,3.5,8.79,8.79,0,0,0,1.07,4.45,9.61,9.61,0,0,0,.53.87l.66,1c.17.23.35.49.53.75l-1.26.25c-.86.19-1.7.48-2.55.69l-1.35.3a5.79,5.79,0,0,0-2.25,1.11,6.43,6.43,0,0,0-2.17,3.2,5.76,5.76,0,0,0,1.48,5.6,6.33,6.33,0,0,0,2.72,1.63,6.5,6.5,0,0,0,3.39,0c.45-.09.9-.2,1.35-.31a20.47,20.47,0,0,0,2.65-.75c.32-.12.64-.27,1-.41-.07.49-.15,1-.2,1.46-.21,2-.44,3.88.74,5.69a5.62,5.62,0,0,0,4.13,2.7,5.53,5.53,0,0,0,4.74-1.55c1.66-1.65,1.88-3.62,2.11-5.81.09-.82.19-1.63.21-2.46l.07-2.45c0-.1,0-.2,0-.31l.12.09-.12-.1v0c.4.31.78.63,1.2.9.21.14.41.29.61.44a8.45,8.45,0,0,0,1,.71,10.12,10.12,0,0,0,1.86.77l1.58.21,1.59-.21,1.42-.6a4.55,4.55,0,0,0,1.67-1.53,3.09,3.09,0,0,0,.77-1.32,3,3,0,0,0,.4-1.5A3.06,3.06,0,0,0,482.89,487.7Z"/><path class="cls-5" d="M465,478.18c-7.44,0-7.45,11.57,0,11.57S472.44,478.18,465,478.18Z"/><path class="cls-4" d="M682.89,398.7a4.4,4.4,0,0,0-.7-2.21,11,11,0,0,0-3.76-3.65,13.5,13.5,0,0,0-3.37-1.59l-.08,0,1.88-2.37a9.92,9.92,0,0,0,2.12-3.31,11.2,11.2,0,0,0,.24-1.82,3.47,3.47,0,0,0,0-.72,5.07,5.07,0,0,0-1.4-3.36,4.56,4.56,0,0,0-3.36-1.4,9,9,0,0,0-1.79.32,16.25,16.25,0,0,0-1.62.67,8.19,8.19,0,0,0-2.71,2.78L666.92,384a5.79,5.79,0,0,0-1.12-1.46,12.9,12.9,0,0,0-2.09-1.6,6.94,6.94,0,0,0-9.49,2.49,6.83,6.83,0,0,0-.94,3.5,8.79,8.79,0,0,0,1.07,4.45,9.61,9.61,0,0,0,.53.87l.66,1c.17.23.35.49.53.75l-1.26.25c-.86.19-1.7.48-2.55.69l-1.35.3a5.79,5.79,0,0,0-2.25,1.11,6.43,6.43,0,0,0-2.17,3.2,5.76,5.76,0,0,0,1.48,5.6,6.33,6.33,0,0,0,2.72,1.63,6.5,6.5,0,0,0,3.39,0c.45-.09.9-.2,1.35-.31a20.47,20.47,0,0,0,2.65-.75c.32-.12.64-.27,1-.41-.07.49-.15,1-.2,1.46-.21,2-.44,3.88.74,5.69a5.62,5.62,0,0,0,4.13,2.7,5.53,5.53,0,0,0,4.74-1.55c1.66-1.65,1.88-3.62,2.11-5.81.09-.82.19-1.63.21-2.46l.07-2.45c0-.1,0-.2,0-.31l.12.09-.12-.1v0c.4.31.78.63,1.2.9.21.14.41.29.61.44a8.45,8.45,0,0,0,1,.71,10.12,10.12,0,0,0,1.86.77l1.58.21,1.59-.21,1.42-.6a4.55,4.55,0,0,0,1.67-1.53,3.09,3.09,0,0,0,.77-1.32,3,3,0,0,0,.4-1.5A3.06,3.06,0,0,0,682.89,398.7Z"/><path class="cls-5" d="M665,389.18c-7.44,0-7.45,11.57,0,11.57S672.44,389.18,665,389.18Z"/><path class="cls-4" d="M921.89,524.7a4.4,4.4,0,0,0-.7-2.21,11,11,0,0,0-3.76-3.65,13.5,13.5,0,0,0-3.37-1.59l-.08,0,1.88-2.37a9.92,9.92,0,0,0,2.12-3.31,11.2,11.2,0,0,0,.24-1.82,3.47,3.47,0,0,0,0-.72,5.07,5.07,0,0,0-1.4-3.36,4.56,4.56,0,0,0-3.36-1.4,9,9,0,0,0-1.79.32,16.25,16.25,0,0,0-1.62.67,8.19,8.19,0,0,0-2.71,2.78L905.92,510a5.79,5.79,0,0,0-1.12-1.46,12.9,12.9,0,0,0-2.09-1.6,6.94,6.94,0,0,0-9.49,2.49,6.83,6.83,0,0,0-.94,3.5,8.79,8.79,0,0,0,1.07,4.45,9.61,9.61,0,0,0,.53.87l.66,1c.17.23.35.49.53.75l-1.26.25c-.86.19-1.7.48-2.55.69l-1.35.3a5.79,5.79,0,0,0-2.25,1.11,6.43,6.43,0,0,0-2.17,3.2,5.76,5.76,0,0,0,1.48,5.6,6.33,6.33,0,0,0,2.72,1.63,6.5,6.5,0,0,0,3.39-.05c.45-.09.9-.2,1.35-.31a20.47,20.47,0,0,0,2.65-.75c.32-.12.64-.27,1-.41-.07.49-.15,1-.2,1.46-.21,2-.44,3.88.74,5.69a5.62,5.62,0,0,0,4.13,2.7,5.53,5.53,0,0,0,4.74-1.55c1.66-1.65,1.88-3.62,2.11-5.81.09-.82.19-1.63.21-2.46l.07-2.45c0-.1,0-.2,0-.31l.12.09-.12-.1v0c.4.31.78.63,1.2.9.21.14.41.29.61.44a8.45,8.45,0,0,0,1,.71,10.12,10.12,0,0,0,1.86.77l1.58.21,1.59-.21,1.42-.6a4.55,4.55,0,0,0,1.67-1.53,3.09,3.09,0,0,0,.77-1.32,3,3,0,0,0,.4-1.5A3.06,3.06,0,0,0,921.89,524.7Z"/><path class="cls-5" d="M904,515.18c-7.44,0-7.45,11.57,0,11.57S911.44,515.18,904,515.18Z"/><path class="cls-4" d="M175.89,260.7a4.4,4.4,0,0,0-.7-2.21,11,11,0,0,0-3.76-3.65,13.5,13.5,0,0,0-3.37-1.59l-.08,0,1.88-2.37a9.92,9.92,0,0,0,2.12-3.31,11.2,11.2,0,0,0,.24-1.82,3.47,3.47,0,0,0,0-.72,5.07,5.07,0,0,0-1.4-3.36,4.56,4.56,0,0,0-3.36-1.4,9,9,0,0,0-1.79.32,16.25,16.25,0,0,0-1.62.67,8.19,8.19,0,0,0-2.71,2.78L159.92,246a5.79,5.79,0,0,0-1.12-1.46,12.9,12.9,0,0,0-2.09-1.6,6.94,6.94,0,0,0-9.49,2.49,6.83,6.83,0,0,0-.94,3.5,8.79,8.79,0,0,0,1.07,4.45,9.61,9.61,0,0,0,.53.87l.66,1c.17.23.35.49.53.75l-1.26.25c-.86.19-1.7.48-2.55.69l-1.35.3a5.79,5.79,0,0,0-2.25,1.11,6.43,6.43,0,0,0-2.17,3.2,5.76,5.76,0,0,0,1.48,5.6,6.33,6.33,0,0,0,2.72,1.63,6.5,6.5,0,0,0,3.39,0c.45-.09.9-.2,1.35-.31a20.47,20.47,0,0,0,2.65-.75c.32-.12.64-.27,1-.41-.07.49-.15,1-.2,1.46-.21,2-.44,3.88.74,5.69a5.62,5.62,0,0,0,4.13,2.7,5.53,5.53,0,0,0,4.74-1.55c1.66-1.65,1.88-3.62,2.11-5.81.09-.82.19-1.63.21-2.46l.07-2.45c0-.1,0-.2,0-.31l.12.09-.12-.1v0c.4.31.78.63,1.2.9.21.14.41.29.61.44a8.45,8.45,0,0,0,1,.71,10.12,10.12,0,0,0,1.86.77l1.58.21,1.59-.21,1.42-.6a4.55,4.55,0,0,0,1.67-1.53,3.09,3.09,0,0,0,.77-1.32,3,3,0,0,0,.4-1.5A3.06,3.06,0,0,0,175.89,260.7Z"/><path class="cls-5" d="M158,251.18c-7.44,0-7.45,11.57,0,11.57S165.44,251.18,158,251.18Z"/><path class="cls-4" d="M1410.89,352.7a4.4,4.4,0,0,0-.7-2.21,11,11,0,0,0-3.76-3.65,13.5,13.5,0,0,0-3.37-1.59l-.08,0,1.88-2.37a9.92,9.92,0,0,0,2.12-3.31,11.2,11.2,0,0,0,.24-1.82,3.47,3.47,0,0,0,0-.72,5.07,5.07,0,0,0-1.4-3.36,4.56,4.56,0,0,0-3.36-1.4,9,9,0,0,0-1.79.32,16.25,16.25,0,0,0-1.62.67,8.19,8.19,0,0,0-2.71,2.78l-1.45,1.93a5.79,5.79,0,0,0-1.12-1.46,12.9,12.9,0,0,0-2.09-1.6,6.94,6.94,0,0,0-9.49,2.49,6.83,6.83,0,0,0-.94,3.5,8.79,8.79,0,0,0,1.07,4.45,9.61,9.61,0,0,0,.53.87l.66,1c.17.23.35.49.53.75l-1.26.25c-.86.19-1.7.48-2.55.69-.45.1-.9.19-1.35.3a5.79,5.79,0,0,0-2.25,1.11,6.43,6.43,0,0,0-2.17,3.2,5.76,5.76,0,0,0,1.48,5.6,6.33,6.33,0,0,0,2.72,1.63,6.5,6.5,0,0,0,3.39,0c.45-.09.9-.2,1.35-.31a20.47,20.47,0,0,0,2.65-.75c.32-.12.64-.27,1-.41-.07.49-.15,1-.2,1.46-.21,2-.44,3.88.74,5.69a5.62,5.62,0,0,0,4.13,2.7,5.53,5.53,0,0,0,4.74-1.55c1.66-1.65,1.88-3.62,2.11-5.81.09-.82.19-1.63.21-2.46l.07-2.45c0-.1,0-.2,0-.31l.12.09-.12-.1v0c.4.31.78.63,1.2.9.21.14.41.29.61.44a8.45,8.45,0,0,0,1,.71,10.12,10.12,0,0,0,1.86.77l1.58.21,1.59-.21,1.42-.6a4.55,4.55,0,0,0,1.67-1.53,3.09,3.09,0,0,0,.77-1.32,3,3,0,0,0,.4-1.5A3.06,3.06,0,0,0,1410.89,352.7Z"/><path class="cls-5" d="M1393,343.18c-7.44,0-7.45,11.57,0,11.57S1400.44,343.18,1393,343.18Z"/><path class="cls-3" d="M1210.6,496.8a2.11,2.11,0,0,0-.64-.59,2.75,2.75,0,0,0-1.87-.75l-.69-.07c-.1,0-.78-.14-.45-.07s-.86-.11-1-.11h-.69c-.46,0-.92,0-1.38,0a24.76,24.76,0,0,0-3.34.4,5.22,5.22,0,0,0-1.8.59,1.73,1.73,0,0,0-.21.17s0-.08,0-.12c.12-.5.24-1,.35-1.51s.24-.93.39-1.38l.24-.68h0v0c.28-.64.5-1.27.74-1.91.1-.27.09-.27.06-.2a4.38,4.38,0,0,0,.25-.84v0a7,7,0,0,0,.46-2c0-.08,0-.16.08-.25.39-1-.72-1.74-1.55-1.56-.07,0,0,0-.08,0l-.36-.05a2.81,2.81,0,0,0-.85.18,7.79,7.79,0,0,0-1.33.56,7.63,7.63,0,0,0-3.21,2.76,16,16,0,0,0-1.56,2.77,13.82,13.82,0,0,0-.84,2.78,21.92,21.92,0,0,0-2.8-2.74,10.41,10.41,0,0,0-1.77-1.24,6.48,6.48,0,0,0-2.08-.85s-.08,0-.12,0a2,2,0,0,0-.31-.12,2.88,2.88,0,0,0-.72-.15h-.07a10.59,10.59,0,0,0-1.68-.22,1.29,1.29,0,0,0-1.11,1.93,5.15,5.15,0,0,0,.7,1.12c.05.1.05.07,0-.07s0-.16.07.13a3.18,3.18,0,0,0,.45.73,2.07,2.07,0,0,0,.29.64l.31.4s0,0,0,.07c.21.27.4.56.61.84.48.67,1,1.29,1.57,1.93s.76,1.05,1.12,1.6c.2.3.42.59.63.88a11.5,11.5,0,0,0,1.18,1.57,3.3,3.3,0,0,0,3.3.88,7.94,7.94,0,0,0,1-.5,3.47,3.47,0,0,0,3.1,1.22,3.59,3.59,0,0,0,2.87-2.45,3,3,0,0,0,1.09.81,4.64,4.64,0,0,0,2.15.27,25.11,25.11,0,0,0,3.45-.48,11.49,11.49,0,0,0,3-.9l.26-.12.65-.24a4.26,4.26,0,0,0,1.16-.55,7.52,7.52,0,0,0,1-1.42A.58.58,0,0,0,1210.6,496.8Z"/><path class="cls-3" d="M1207.71,500.21h0C1207.51,500.3,1207.41,500.36,1207.71,500.21Z"/><path class="cls-3" d="M71.58,117.91a1.25,1.25,0,0,0-.87-2.11H70a3,3,0,0,0-1.34-.12,4.81,4.81,0,0,0-2.16.44,14.2,14.2,0,0,0-2.12.9,29,29,0,0,0-3.12,2c-.24.17-.44.36-.66.54,0-.06,0-.13,0-.2.36-1.62.67-3.22.87-4.88.16-1.41.51-3.14-.07-4.52a5.05,5.05,0,0,0-.06-.68,1.55,1.55,0,0,0-.24-.78l-.72-.91c0-.59-.89-.88-1.15-.31a5,5,0,0,1-1,.47,1.61,1.61,0,0,0-.59.54,4.93,4.93,0,0,0-.42.66,8.32,8.32,0,0,0-1.93,3.53,36.16,36.16,0,0,0-1.21,3.69c-.31,1.2-.61,2.4-.92,3.59-.1.42-.21.83-.33,1.25-.44-.42-.88-.84-1.35-1.24a13.82,13.82,0,0,0-1.71-1.34,7.3,7.3,0,0,0-2-.88,3.47,3.47,0,0,0-3.32.88,3.38,3.38,0,0,0-.88,3.32,9.7,9.7,0,0,0,.53,1.29,9,9,0,0,0,.92,1.23,8.23,8.23,0,0,0,.95,1c.67.64,1.35,1.27,2.07,1.86l.78.6a2.82,2.82,0,0,0,1.45.46,1.81,1.81,0,0,0,1,0,2.75,2.75,0,0,0,.94-.22c.09,0,.18,0,.26,0a3.19,3.19,0,0,0,1.23-.71,1.92,1.92,0,0,0,.22.18,3.24,3.24,0,0,0,2.45.41,6.23,6.23,0,0,0,.5.68l-.09-.16a1.53,1.53,0,0,0,1.24.73c.14,0,.08.1.14.11a3.58,3.58,0,0,0,1.69,0,4.4,4.4,0,0,0,1.84-1.1c.43-.4.83-.83,1.23-1.26.8-.86,1.68-1.64,2.5-2.49A30.12,30.12,0,0,1,67.94,122c.45-.37.86-.76,1.29-1.16a5.53,5.53,0,0,0,1.42-1.6,3.62,3.62,0,0,0,.42-.74Z"/><path class="cls-3" d="M385.15,323a2.5,2.5,0,0,0-.74-.68,3.22,3.22,0,0,0-2.15-.86l-.79-.08c-.11,0-.89-.16-.52-.08.53.13-1-.12-1.2-.13H379c-.53,0-1,0-1.58,0a27.42,27.42,0,0,0-3.83.46,6,6,0,0,0-2.06.68,2.23,2.23,0,0,0-.24.19l0-.13c.13-.58.27-1.16.4-1.73s.27-1.07.44-1.59c.09-.26.19-.51.28-.77v0l0,0c.33-.72.57-1.44.85-2.18.11-.31.11-.31.07-.23a5.08,5.08,0,0,0,.28-1v0a7.75,7.75,0,0,0,.53-2.31c0-.09.05-.19.09-.29.45-1.1-.82-2-1.78-1.78l-.08,0-.41-.05a4,4,0,0,0-1,.2,9,9,0,0,0-1.53.65,8.68,8.68,0,0,0-3.67,3.16A17.68,17.68,0,0,0,364,317.6a15.53,15.53,0,0,0-1,3.19,26.31,26.31,0,0,0-3.2-3.14,12,12,0,0,0-2-1.42,7.19,7.19,0,0,0-2.37-1,.76.76,0,0,0-.15,0,1.7,1.7,0,0,0-.35-.14,3.33,3.33,0,0,0-.82-.17H354a12.44,12.44,0,0,0-1.93-.26,1.49,1.49,0,0,0-1.27,2.22,7.26,7.26,0,0,0,.8,1.28c.07.11.07.09,0-.08s-.06-.19.07.15a3.59,3.59,0,0,0,.52.84,2.43,2.43,0,0,0,.34.73c.12.15.24.3.35.46s0,0,.06.07c.24.32.46.65.69,1,.56.77,1.2,1.48,1.81,2.22.44.59.87,1.2,1.28,1.83.23.34.48.67.72,1a14.08,14.08,0,0,0,1.35,1.8,3.81,3.81,0,0,0,3.79,1,9.64,9.64,0,0,0,1.2-.57,4,4,0,0,0,3.55,1.4,4.11,4.11,0,0,0,3.29-2.81,3.26,3.26,0,0,0,1.25.93,5.48,5.48,0,0,0,2.47.31,29.32,29.32,0,0,0,3.95-.55,13.47,13.47,0,0,0,3.47-1l.3-.14.74-.28a4.76,4.76,0,0,0,1.33-.62,2.48,2.48,0,0,0,.65-.81,2.35,2.35,0,0,0,.52-.82A.66.66,0,0,0,385.15,323Z"/><path class="cls-3" d="M381.83,326.85l-.06,0C381.6,327,381.49,327,381.83,326.85Z"/><path class="cls-3" d="M113.6,463.8a2.11,2.11,0,0,0-.64-.59,2.75,2.75,0,0,0-1.87-.75l-.69-.07c-.1,0-.78-.14-.45-.07s-.86-.11-1-.11h-.69c-.46,0-.92,0-1.38,0a24.76,24.76,0,0,0-3.34.4,5.22,5.22,0,0,0-1.8.59,1.73,1.73,0,0,0-.21.17s0-.08,0-.12c.12-.5.24-1,.35-1.51s.24-.93.39-1.38l.24-.68h0v0c.28-.64.5-1.27.74-1.91.1-.27.09-.27.06-.2a4.38,4.38,0,0,0,.25-.84v0a7,7,0,0,0,.46-2c0-.08,0-.16.08-.25.39-1-.72-1.74-1.55-1.56-.07,0-.05,0-.08,0l-.36-.05a2.81,2.81,0,0,0-.85.18,7.79,7.79,0,0,0-1.33.56,7.63,7.63,0,0,0-3.21,2.76,16,16,0,0,0-1.56,2.77,13.82,13.82,0,0,0-.84,2.78,21.92,21.92,0,0,0-2.8-2.74,10.41,10.41,0,0,0-1.77-1.24,6.48,6.48,0,0,0-2.08-.85s-.08,0-.12,0a2,2,0,0,0-.31-.12,2.88,2.88,0,0,0-.72-.15h-.07a10.59,10.59,0,0,0-1.68-.22,1.29,1.29,0,0,0-1.11,1.93,5.15,5.15,0,0,0,.7,1.12c.05.1.05.07,0-.07s0-.16.07.13a3.18,3.18,0,0,0,.45.73,2.07,2.07,0,0,0,.29.64l.31.4s0,0,.05.07c.21.27.4.56.61.84.48.67,1,1.29,1.57,1.93s.76,1.05,1.12,1.6c.2.3.42.59.63.88a11.5,11.5,0,0,0,1.18,1.57,3.3,3.3,0,0,0,3.3.88,7.94,7.94,0,0,0,1-.5,3.47,3.47,0,0,0,3.1,1.22,3.59,3.59,0,0,0,2.87-2.45,3,3,0,0,0,1.09.81,4.64,4.64,0,0,0,2.15.27,25.11,25.11,0,0,0,3.45-.48,11.49,11.49,0,0,0,3-.9l.26-.12.65-.24a4.26,4.26,0,0,0,1.16-.55,7.52,7.52,0,0,0,1-1.42A.58.58,0,0,0,113.6,463.8Z"/><path class="cls-3" d="M110.71,467.21h0C110.51,467.3,110.41,467.36,110.71,467.21Z"/><path class="cls-3" d="M799.6,398.8a2.11,2.11,0,0,0-.64-.59,2.75,2.75,0,0,0-1.87-.75l-.69-.07c-.1,0-.78-.14-.45-.07s-.86-.11-1.05-.11h-.69c-.46,0-.92,0-1.38,0a24.76,24.76,0,0,0-3.34.4,5.22,5.22,0,0,0-1.8.59,1.73,1.73,0,0,0-.21.17s0-.08,0-.12c.12-.5.24-1,.35-1.51s.24-.93.39-1.38l.24-.68h0v0c.28-.64.5-1.27.74-1.91.1-.27.09-.27.06-.2a4.38,4.38,0,0,0,.25-.84v0a7,7,0,0,0,.46-2c0-.08,0-.16.08-.25.39-1-.72-1.74-1.55-1.56-.07,0,0,0-.08,0l-.36-.05a2.81,2.81,0,0,0-.85.18,7.79,7.79,0,0,0-1.33.56,7.63,7.63,0,0,0-3.21,2.76,16,16,0,0,0-1.56,2.77,13.82,13.82,0,0,0-.84,2.78,21.92,21.92,0,0,0-2.8-2.74,10.41,10.41,0,0,0-1.77-1.24,6.48,6.48,0,0,0-2.08-.85s-.08,0-.12,0a2,2,0,0,0-.31-.12,2.88,2.88,0,0,0-.72-.15h-.07a10.59,10.59,0,0,0-1.68-.22,1.29,1.29,0,0,0-1.11,1.93,5.15,5.15,0,0,0,.7,1.12c0,.1,0,.07,0-.07s-.05-.16.07.13a3.18,3.18,0,0,0,.45.73,2.07,2.07,0,0,0,.29.64l.31.4s0,0,0,.07c.21.27.4.56.61.84.48.67,1,1.29,1.57,1.93s.76,1.05,1.12,1.6c.2.3.42.59.63.88a11.5,11.5,0,0,0,1.18,1.57,3.3,3.3,0,0,0,3.3.88,7.94,7.94,0,0,0,1.05-.5,3.47,3.47,0,0,0,3.1,1.22,3.59,3.59,0,0,0,2.87-2.45,3,3,0,0,0,1.09.81,4.64,4.64,0,0,0,2.15.27,25.11,25.11,0,0,0,3.45-.48,11.49,11.49,0,0,0,3-.9l.26-.12.65-.24a4.26,4.26,0,0,0,1.16-.55,7.52,7.52,0,0,0,1-1.42A.58.58,0,0,0,799.6,398.8Z"/><path class="cls-3" d="M796.71,402.21h-.05C796.51,402.3,796.41,402.36,796.71,402.21Z"/></g></g></svg>