<svg xmlns="http://www.w3.org/2000/svg" viewBox="0 0 751.3 363.7"><defs><style>.cls-1{fill:#d4594c;}.cls-2{fill:#09668b;}.cls-3{fill:#0a597f;}.cls-4{fill:#1a313a;}.cls-5{fill:#fdd9c0;}.cls-6{fill:#ebbfa2;}.cls-7{fill:#dceff6;}.cls-8{fill:#8ec6ec;opacity:0.37;}.cls-9{fill:#3f292e;}.cls-10{fill:#4477b9;}.cls-11{fill:#35679c;}.cls-12{fill:#bf7a61;}.cls-13{fill:#a86552;}.cls-14{fill:#f7b254;}.cls-15{fill:#db9645;}.cls-16{fill:#3fb08c;}.cls-17{fill:#339777;}.cls-18{fill:#f0c3a5;}.cls-19{fill:#724472;}.cls-20{fill:#673c68;}.cls-21{fill:#60a1db;}.cls-22{fill:#528cca;}.cls-23{fill:#5b343c;}.cls-24{fill:#dea176;}.cls-25{fill:#0c5c75;}.cls-26{fill:#f6c4a1;}.cls-27{fill:#3d3360;}.cls-28{fill:#e8af89;}.cls-29{fill:#bae1f4;}.cls-30{fill:#91bd56;}.cls-31{fill:#7fab4e;}.cls-32{fill:#ea646a;}.cls-33{fill:#d1545e;}.cls-34{fill:#f0f0f0;}.cls-35{fill:#654399;}.cls-36{fill:#533c7c;}.cls-37{fill:#06a2c6;}.cls-38{fill:#2b1c1f;}</style></defs><g id="Livello_2" data-name="Livello 2"><g id="campeggio"><path class="cls-1" d="M261.89,86.64A17.58,17.58,0,0,1,277,90.13c7.29,5.83,11.29,17.59,8.77,27s-10.52,14.28-10.52,14.28Z"/><path class="cls-2" d="M11.89,296.58C9.74,301.81,8.71,309.5,9.23,318S9.57,331.2,7,339.74s-7,24-7,24H77.54V273.62S56.21,268.84,40.49,277A164,164,0,0,0,11.89,296.58Z"/><path class="cls-3" d="M40.49,277A163.65,163.65,0,0,0,11.9,296.58a32.71,32.71,0,0,0-1.68,5.66c.16.2,6.44,8.14,20.57,11.74,14.3,3.65,17.46,2.44,17.46,2.44L56,295.25,57.7,318a130.41,130.41,0,0,0,19.84,2.17V273.62S56.21,268.84,40.49,277Z"/><path class="cls-4" d="M102.43,14.71s14.42-6.92,24.23,6.59S129,52,117.94,53.86,102.43,14.71,102.43,14.71Z"/><path class="cls-5" d="M115.47,33.89c1.59,5.43,3.62,21.44,2,34.7s-11.34,31.65-17,35.27-15-1.08-15-1.08a53.22,53.22,0,0,0-1.85,6.35c-.67,3.29,2.85,7.71,7.94,14.68a64.79,64.79,0,0,1,7.93,14.94S58,128.46,50.54,103.8c0,0,4.75-7,7-19,0,0-11.31-11.54-12.89-24.21S47.37,33,61,21.45,103.93,7.19,115.47,33.89Z"/><path class="cls-6" d="M64.82,97.49c4,4.73,16,9.22,19.1,10.33.65-2.56,1.55-5,1.55-5C80,100.87,68.87,94.28,66,89s-2.29-16.62-2.29-16.62-1.52,1.7-2.64,7.13S60.19,92,64.82,97.49Z"/><path class="cls-4" d="M56.73,88.55a26.77,26.77,0,0,0,4.37-7.12,40.1,40.1,0,0,0,2.64-9c-2.94.91-10.41-1.61-12.06-8.54-1.79-7.49-.51-11.35,2.43-13.61s7.47-2.45,10.63,2.3c2.71,4.06,1.91,7.38,3.58,8s7.45-5,7.9-15.18c0,0,8.6,5.88,16.29,0s5-13.8,5-13.8A11.9,11.9,0,0,0,107.33,38c7.13.46,8.14-4.07,8.14-4.07s2.26-9.07-6.56-15.63c0,0,.82-13.32-14.6-17.15C77.91-3,63.79,4.71,61.13,16.18c0,0-12.67-1.62-18.19,8.22-6.62,11.8-4.19,22.66-.69,35.74,2.75,10.28,6.86,20.06,9,23.75C54.2,89.13,56.73,88.55,56.73,88.55Z"/><path class="cls-7" d="M53.13,99c-1.81,3.56-11.45,7-17.86,11.17s-21.4,18.73-17.06,48.08,10.58,82,9.87,91.75S25.23,265.86,19.77,277s-9,18.29-9,18.29,8.31,11.4,35.39,13.77l10.45-26.36L59,311.46s33.56,5.1,46.23.8c0,0,8-116.12,5.94-136.5-3.69-37-24.06-58.16-24.06-58.16s-10.39,1.15-17.92-3C55.91,107.2,53.13,99,53.13,99Z"/><path class="cls-8" d="M110.26,225.16,82.39,203,54,166l-7.36-38.6L25,120.81c-5.15,7.93-9.31,20.1-6.75,37.39.37,2.46.74,5.1,1.13,7.85,3.16,13.26,7.17,28,11,37.26,0,0,1.61.66,5,0l7.31,17L28.06,245.12a45.81,45.81,0,0,1,0,4.83c-.61,8.29-2.26,14-6.11,22.42,10,2.17,43-16.16,51-21.29a19.49,19.49,0,0,0,2.38,6.81c2,3.31.14,7.63,2.16,9.95s-19,38.78-19,38.79l.4,4.83s33.56,5.1,46.23.8C105.18,312.26,108.44,264.74,110.26,225.16Z"/><path class="cls-9" d="M167.38,86.3a16.09,16.09,0,0,1,14.25,4.16c7.53,7.34,10.1,28.45-6.33,37,0,0-8.4-10.8-10.4-20.71S167.38,86.3,167.38,86.3Z"/><path class="cls-10" d="M170,306.07l7.91,57.63H52s3.76-31.94,19.57-58.42Z"/><path class="cls-11" d="M77.54,363.7s3.16-28.51,13.6-43.57h4.32S85,333.77,81.21,363.7Z"/><path class="cls-11" d="M170,306.07l-98.43-.79c-1.87,3.13-3.57,6.35-5.12,9.57,0,.16.86,15,25.62,21.34s44.27,1.16,59.32-12.44c0,0,9.4,11.22,22.5,10.65Z"/><path class="cls-12" d="M82.7,184.92c-6.73,5.06-46.94,36.7-57.62,47s-13.79,22.54-9.71,28.37,8.74,6.41,18.45,2.33,48.09-26.47,48.09-26.47,2.42-3.64,3.78-19.18S82.7,184.92,82.7,184.92Z"/><path class="cls-13" d="M85.69,217a84.12,84.12,0,0,0,0-13.38c-6.57-1.25-15.37-2.91-21.65-4-7.16,5.69-15.22,12.17-22.34,18,2.19,7.58,8.89,21.21,14,23.06,3.54,1.29,14.55-.31,20.9-1.4l5.36-3.1S84.33,232.52,85.69,217Z"/><path class="cls-12" d="M160.88,176.4c-7.76-1.1-10.44-2.13-10.91-3.17s.19-10.9,2.07-14A20.75,20.75,0,0,0,162.2,161c5.41-.6,7.61-4.13,10.67-14.69s3.29-36,1.64-43.5S152.65,81.26,131,90.13,105.88,131,109.41,140.84s12.22,16.45,12.22,19.51.47,9-3.06,10.73S105.18,175,105.18,175s.7,7.5,25.85,10S160.88,176.4,160.88,176.4Z"/><path class="cls-14" d="M154.09,175s-9.27,6.4-25.52,4.63-15.12-6.7-15.12-6.7-11,1.71-15.26,2.87c-8.32,2.29-13.09,3.92-15.49,9.16-1.59,3.48-4.5,30.88-2,44.77l2.71,14.92S88,261.18,87,269.28,67.8,304,67.8,304s-1.17,21.79,34.08,25.55,52.18-20.68,52.18-20.68c5.18,17.63,21.89,14.81,21.89,14.81-3.73-10.57-5.43-42.55-4.09-53.66s14.58-81.57,10.4-85.13c-8.1-6.93-20.41-8.85-28.17-10"/><path class="cls-15" d="M177.26,196.78,119,208.44,80.2,225.82c.14,1.37.31,2.67.53,3.87l1.59,8.72c5.78-1.44,19.92-5.71,34.27-9.09,19.68-4.64,42.8-10.77,52.84-13.21l12.45-11.33c.26-2.24.49-4.37.68-6.33Z"/><path class="cls-15" d="M142.36,268.89l-31.44-6L97.41,246.13,91,234.2c-2.39,2.6-2.35,6.93-1.33,10.54s4.76,10.75,4.76,10.75l-7.35,9.34a26.52,26.52,0,0,1-.12,4.45,24.39,24.39,0,0,1-2.08,6,32.13,32.13,0,0,0,12.19,5.18c7.41,1.26,24.6,3.91,42.44,10.61s24.37,7.11,27.37,6.11c1.34-.45,3.22-2.36,4.88-4.34-.48-9.23-.47-18,.11-22.82.09-.69.21-1.61.38-2.73l-.09-.55Z"/><path class="cls-5" d="M143.34,255.82c-4.61-.26-24.08-1-26.95-1.48a5.85,5.85,0,0,1-5.13-3.82c-.87-2.09-2-5.48-5.3-7.74s-7-3.82-8.43-5.82-2.09-5.91-5-4.7-1.74,6.52-.69,8.87,4.17,6.69,4.43,7.65-1,1.22-3.3.52-9.57-4.69-9.57-4.69L82.75,241a4.28,4.28,0,0,0-4.35,2.43,8.58,8.58,0,0,0,0,7.48c.87,1.74-.17,3.91,1.48,6.52s2.61,2.87,3,4.6A12.48,12.48,0,0,0,88,270.05c3.66,2.38,10.09,3.07,17.3,4.2s34.24,9.5,34.24,9.5,2.27-2.78,3.84-10.19A39.84,39.84,0,0,0,143.34,255.82Z"/><path class="cls-9" d="M174.83,104.58c-1.25,4.68-4.81,8.71-8.84,11.81s-4.5,5.12-5.59,9.46-3.41,7.13-5.58,6.82S153.58,128,152,125s-4.34-7.37-10.23-5.2-5.07,14-1.45,17.83,6.25,3.88,8.27,3,3.1.62,2.63,3.1-1.21,10.18-7.1,14.52-20.61,2.62-22.8,1.07A59.5,59.5,0,0,1,109.1,148.9a32.69,32.69,0,0,1-8.51-20.53c-.56-10,1.25-21.93,4.59-25l20.26-22.77s5.5-9.15,21.16-8.07a24.24,24.24,0,0,1,20.78,13.8S179.47,96.59,174.83,104.58Z"/><ellipse class="cls-9" cx="109.1" cy="90.46" rx="21.96" ry="17.44" transform="translate(-31.45 108.68) rotate(-47.05)"/><path class="cls-5" d="M287.21,184.92c-8.89-1.4-16.39-1.51-25.32-3s-13.15-2.4-12.26-10.85,1.78-14,1.78-14l-28.68-1.56s-1.34,13.56-2,16.68-.89,3.11-7.56,4.22-20.51,3.83-20.51,3.83,1.83,7.51,38.29,14.18S287.21,184.92,287.21,184.92Z"/><path class="cls-16" d="M259,181.4s21.12,2.53,28.18,3.52S300,188,306,202.47c0,0-15.07,42.29-13.91,49,1.68,9.59-2.07,36.61-3.24,42.85s1,20.47,5.26,40.93,6.28,28.49,6.28,28.49H149.83a307.16,307.16,0,0,1,26.12-40c15-19.1,25.93-35.86,27.68-41.32s-7.21-36.26-7.21-36.26S171.86,283,168.94,287.07s-4.49,3.7-12.28,1.75-17.16-5.07-17.16-5.07-3.51-6.49-1.36-15.91,5.2-12,5.2-12,4,.06,5.52.06,4.29-.2,6.63-5.65,18.71-46.39,23.19-55.95,7.46-14.73,17-16.33a113.81,113.81,0,0,1,17.51-1.55s5.14,7.85,20.1,9.41A47.47,47.47,0,0,0,259,181.4Z"/><path class="cls-17" d="M288.53,300.19h0L276.61,318c1.67,9.54,3.34,22.67-13.88,32s-82.27,13.73-82.27,13.73H300.35s-2-8-6.28-28.49C290.82,319.69,288.81,307.77,288.53,300.19Z"/><path class="cls-17" d="M294.83,236.87,282,241.13,252.68,226.5s-29.09-36.24-29.43-36.73-13.13-4.85-13.13-4.85l-31.41,9.31,0,.05c-1.69,3.61-5.56,12.87-9.25,21.83,3.84-.94,15.56-2.37,20.66-2.74,6.89-.5,14.71-6.32,14.71-6.32s24.77,37.57,34.56,47.54,16.31,18.62,25.62,19.12,16-11.15,23.76-17.62l3.45-3.72c0-.33-.09-.64-.14-.94-.37-2.11.89-7.79,2.78-14.56Z"/><path class="cls-17" d="M275,288.8,279.27,299l10.53,13.3h0c-1.25-8.34-1.65-14.44-1-18,1.06-5.67,4.25-28.5,3.57-39.82l-.09-.54-8.57-17s-1.49,17.62-3.29,29.69C279.15,275.14,275,288.8,275,288.8Z"/><path class="cls-17" d="M269.71,300.2l-69.79-10.43c-2.6,4.4-6.36,10.12-11,16.64,6.35.94,32.88,4.89,53.22,8.43,23.26,4.06,32.72,7.15,39.86,5.33s5.87-5.44,7.8-7.92h0a111.57,111.57,0,0,1-1.27-12.06C284.1,300.65,269.71,300.2,269.71,300.2Z"/><path class="cls-5" d="M273,103.66c3.31,9.71,5.58,31.44,2.48,42.6s-6.61,13-11.16,13-20.26-2.61-20.26-2.61l-21.37-1.16s.48-4.91-3.24-7.6-19-20.88-8.68-44.24,36-25.23,47.34-16.54S273,103.66,273,103.66Z"/><path class="cls-18" d="M264.36,159.27a8.05,8.05,0,0,0,5.39-1.67c-3.48.22-7.88-1.09-13.85-6.62l-6,2.18-.25,4.38A144.6,144.6,0,0,0,264.36,159.27Z"/><path class="cls-1" d="M273,103.66c0-4.85-11.15-17-11.15-17a36.12,36.12,0,0,0-23.3-8.87c-14.5-.22-26.94,7.22-31.31,25.46-4.32,18-6.33,17.08-9.57,23.7-3,6.13-6.91,24,12.77,35.24,21.08,12.07,41.49,7.23,46.46,5.16s6.17-5.49,2.75-11c-2.79-4.5-3.77-10.32-3.95-13.68s.31-4.88-1.37-4.29c-1.26.44-4.33.51-6.92-3.7-2.89-4.71-1.29-14.71,3.46-15.57s7.14,2.59,7.79,7-.65,6,1.73,6.46,4.54-1.3,8-6.46S273.41,111.08,273,103.66Z"/><path class="cls-10" d="M693.27,276.2c4.63,4.9,11,16.22,12.1,25a71.06,71.06,0,0,1-1.59,25.11,39.58,39.58,0,0,0,0,17.42c1.36,6.79,4.3,19.93,4.3,19.93H648.85l-11-77.21Z"/><path class="cls-11" d="M668.44,295.77c17.36-2.71,24.4-8.34,29-14.11a39.56,39.56,0,0,0-4.15-5.46L637.9,286.49l1.4,9.9A114.11,114.11,0,0,0,668.44,295.77Z"/><path class="cls-19" d="M683.57,176.34c1.57,10.52,1,37.08-4.53,48.21s-5.25,16-1.83,21.95c4.74,8.27,19.2,29.7,19.2,29.7s-4.78,7.83-19.78,12.08-40.38,2.93-40.38,2.93-10.66-25.27-9.54-55.4,15.77-78.61,15.77-78.61,17.58-9.29,27.66-3S683.57,176.34,683.57,176.34Z"/><path class="cls-20" d="M683.84,202l-3.51-6L651.9,170.74l-15.51,8.83c-.63,2.52,1.07,3.84.42,6.59,3,10,7.36,28.2,11.2,31.79,5.19,4.86,19.37,13.36,28.36,12,1-2.21,1.27-2.59,2.67-5.4C681.64,219.34,683.14,210.75,683.84,202Z"/><path class="cls-5" d="M660.2,124.92s2.5,12.06,2.9,14.67,1.71,5.94,4.28,6.49c0,0-2.1,8.23-9.66,11.12s-15.24,0-15.24,0a55.44,55.44,0,0,0-3.32-8.45c-1.67-3-6.08-4.66-6.08-4.66Z"/><path class="cls-6" d="M660.39,125.86l-.19-.94-27.12,19.17s4.41,1.66,6.08,4.66c0,0,12.74-2.65,18.18-8.1C661.79,136.2,660.88,128.52,660.39,125.86Z"/><path class="cls-4" d="M640.39,68.59s-12.8-6.51-23.17,1.64S607,99.16,615.85,104.41c0,0,17.18-3.18,23.16-13.47S640.39,68.59,640.39,68.59Z"/><path class="cls-5" d="M627.64,79.14c-5.37,2.29-10.11,11-11.65,23.77-1.11,9.25,1.11,26.41,3.79,34.27s12.77,7.44,21.08,6.25,14.61-5.42,16.72-10.59a47.45,47.45,0,0,0,2.62-7.92s4.41,4.59,8.43,4,12.07-8.89,11.68-18.24-1-26.78-14.75-31.56S627.64,79.14,627.64,79.14Z"/><path class="cls-6" d="M637.83,139.59l6.86,3a25.74,25.74,0,0,0,5.06-2S639.31,125.35,636,122s-20.06-9.76-20.21-9.81c0,.85.08,1.72.14,2.59l7.86,7.22Z"/><path class="cls-4" d="M627.64,79.14s.17,6.89,10.14,14,14.33,9.79,15.25,11.32-1.13,7.4.25,9.09,4.88-.15,6.64-4.71c1.68-4.38,7.18-6.6,10.11-4.38,2.77,2.1,4.06,5.79,1.66,12.75-2,5.78-8.05,9.73-11.49,7.76,0,0-.17,9.6,2.9,14.67a57.23,57.23,0,0,1,8.44-8.65c5.68-4.86,11.82-10.69,13.66-26.95s-10.59-32.84-17-36.68-20.72-5.11-27.78,1.28Z"/><path class="cls-4" d="M667.38,66.88s2.93-8.62,10.45-13.53,24.71-6,32.38,0a40.52,40.52,0,0,1,14.88,25.93c1.69,10.85,3.69,16.14,12.13,22.57S755.94,120,749,137.59s-28.23,18-32.38,17.34-5.37-3.53-2.45-7.52S721,136.1,716,130.94s-8.59-6.85-15.5-11.15-11.66-9.33-11.35-17.94,2.91-19.29.3-24.84-7.87-9.76-15.66-4.6C673.83,72.41,668.44,71.82,667.38,66.88Z"/><path class="cls-20" d="M667.38,146.08c6.66,0,14.85,2.15,17.48,16.87s4,29.62,3.41,38.3a50.12,50.12,0,0,1-4,15.95l-26.89-15.76s-1.86-26.4-2.34-36.1S656.83,146.46,667.38,146.08Z"/><path class="cls-21" d="M643.88,298.16a107.13,107.13,0,0,1,6.06,33.57c0,9.07-1.09,32-1.09,32H547L542.56,314s7.34-23.61,31.81-29.78S634.57,278.55,643.88,298.16Z"/><path class="cls-22" d="M643.88,298.16c-9.31-19.61-45-20.07-69.51-13.91S542.56,314,542.56,314l.73,8.11c20.23,11.89,39.56,2.78,39.56,2.78l-.82-21.1,10.25,20c33.34-.21,46.63-12,53.63-19.44A64.65,64.65,0,0,0,643.88,298.16Z"/><path class="cls-23" d="M556.62,38.66a27.6,27.6,0,0,1-15.13,2.64c-4.36-.58-6.68-3.94-9.44-1.42-3.38,3.1-9.74,22.48,3.37,31.18C552.11,82.13,556.62,38.66,556.62,38.66Z"/><path class="cls-24" d="M537,60.92c-2.18,7.67-2.31,17.52,0,31.48s6.73,26.83,10.91,28.62c2.94,1.26,8.44,1.43,12.7,1s5.64-.86,6.49,6.2,27.83-1,31.38-6.44c0,0-3.32-12.78-2.37-16.56s5.68-9.23,7.1-20.83S603,51.93,587.14,44.83s-34.62-1.11-41.89,4.26C538.21,54.29,537,60.92,537,60.92Z"/><path class="cls-23" d="M567.12,101.13c-.24,1.85,2.52,6.48,4,9.59s4.6,6.19,8.13,6.39,13.21,0,17.39-4.15c2.32-2.08,2.32-6.23,5.64-13.7s5.81-20.47,4.15-30.67S604,47.81,594.22,48c0,0-2.76-11.2-13.34-13.28s-18.78,1-26.35,5-16.15,10.07-16.28,17.74a8.64,8.64,0,0,0,6.12,5.29c3.52.78,2,3,2.13,5.33.31,4.07.93,6.65,3.94,8.89,2.83,2.1,4.1,2.32,4.09,6.94,0,6.23.21,7.67,2.08,8.09s3.94-1.25,6.22-7.26,6.64-6.69,10.17-2.83,2.5,14.67,0,17.6C569.94,103.06,567.47,98.43,567.12,101.13Z"/><path class="cls-2" d="M445.5,317.41c-1.71,7.54-4.13,38.72-4.45,46.29H559.73s-3-22.15-10.81-35.33c0,0-24.62-19.7-51.31-22.88S445.5,317.41,445.5,317.41Z"/><path class="cls-25" d="M445.5,317.41c-.79,3.46-1.72,11.89-2.53,20.74h0s4.09,1.19,9.38-3.78,5.32-7.5,6.56-6.78,3.29,6.45,10.61,13.89c5.57,5.66,29.39,18.57,55.32,13.58,18.94-3.64,25.9-13,28.28-17.78a57.66,57.66,0,0,0-4.2-8.91A130.73,130.73,0,0,0,529.4,316l-17.86,3.42-34.46-13.24A102.7,102.7,0,0,0,445.5,317.41Z"/><path class="cls-10" d="M438.14,312.64s4.33,25.62,5.86,51.06H302.12s4.52-40.39,7.41-59.67Z"/><path class="cls-11" d="M307.26,320.71s12.26,33.75,67.75,31.38,64.6-29.87,64.6-29.87l-1.47-9.58L309.53,304Z"/><path class="cls-26" d="M365.18,37.8c-9.82,0-28.15,5.66-28.15,32.87,0,0-2.08-3.59-4.72-2.08s-1.7,10.2,0,15.31,5.43,6.17,7.69,6c0,0,2.72,8.21,5,11.8s7.89,9.08,7.89,9.08L352.71,126h34.57v-17.2c0-5.66,8.22-18.7,8.22-18.7s3.74,1.43,6.31-3.3c2.93-5.39,4.26-16.14,1.56-18.24-4.23-3.3-5.87,3.78-5.87,3.78S395.6,51,384.26,45.73,365.18,37.8,365.18,37.8Z"/><path class="cls-27" d="M337,73.67c-.61-5.48-2.85-16.33-1.83-26.38s5.28-17.37,8.34-18,3.24,2.55,6.64,3.24a9.34,9.34,0,0,1,1.54-8c2.89-3.91,5.29.87,10.89,3.75,6.83,3.5,10,1.85,14.91,4.92,5.85,3.62,6,7.89,6,7.89a8.78,8.78,0,0,1,7.27,1c5.07,2.89,9,12.82,7.4,31.17-1.46,16.31-5.47,29.35-10.84,35.65s-26.38,5.83-34.4,1.93c0,0-6.69-2-11.48-17A105.81,105.81,0,0,1,337,73.67Z"/><path class="cls-7" d="M338.77,132.38a64,64,0,0,1-20.35,7.23c-9,1.43-14.39,2-18.07,6.74,0,0,13.15,14.78,15.43,41.63,1.64,19.37-3.86,29-3.86,29s2.57,10.67,7.43,18.7-5.5,36.57-8,46.22-5.35,23.2-5.35,23.2c.92,3.66,18.25,37.15,65.39,37.15s67.36-28.55,68.28-32.41-4.78-25.91-8.23-44.19-5.9-33.84-2.95-47.25,8.13-31.59,9.35-47.44-1.73-30.58-4-32.41-5.08-1.53-13.11-3.15A77.73,77.73,0,0,1,404,130.29s-2.33-1.65-14.42-.43-20.93,4.37-31.7,1.83S342,130.6,338.77,132.38Z"/><path class="cls-7" d="M435.07,140.65a21.39,21.39,0,0,0-1.24-2.15A5.59,5.59,0,0,1,435.07,140.65Z"/><path class="cls-8" d="M431.4,265.6q-.93-4.89-1.73-9.52h-95L321.52,223.7c6.88-19.51,4.88-39.56,0-48.74l-7.66.71A89.59,89.59,0,0,1,315.78,188c1.64,19.37-3.86,29-3.86,29s2.57,10.67,7.43,18.7-5.5,36.57-8,46.22c-.94,3.56-1.68,6.65-2.2,9.31,3.56,2.26,14-2,14-2s67.39,24.85,74.61,23c6-1.56,28.75-26.15,36.13-34.28C433,273.75,432.15,269.59,431.4,265.6Z"/><path class="cls-5" d="M444,253.92,410.56,290s-7.87,8.83-10.49,10.9-3.19,4.69-16.89,1.12-71-23.19-71-23.19a10.93,10.93,0,0,1-1.21-11c2.82-6.12,6.44-6.86,6.44-6.86l66.18,14.63,5.05-5.69Z"/><path class="cls-5" d="M311.92,216.93s13.23,28.21,15,31.49,2.05,3.53,8.46,3,80-6.66,80-6.66l1.88,18.49s-93.56,19.9-101.1,21.6c-5.09,1.16-7.47-.52-10.8-6s-22.22-43.06-22.22-43.06Z"/><path class="cls-16" d="M339.86,251.08h0l-4.46.36c-6.41.51-6.66.26-8.46-3s-15-31.49-15-31.49l-28.8,18.88s18.89,37.58,22.22,43.06,5.71,7.16,10.8,6c2.12-.47,11-2.38,22.63-4.87C343.82,271,341.4,256.5,339.86,251.08Z"/><path class="cls-26" d="M261.89,217.69s-39-35.07-45.59-42.73-9.11-13.29-14.9-15.61-5.47-.5-9.11,0-6-.16-8.95,2.15-4.63,2-6.79,3.81-5.13,7.37-4.63,9.65.82,10.23,12.09,11.39,15.9,3.64,15.9,3.64l42.32,58.43Z"/><path class="cls-28" d="M195.8,164.92c1.25,2,2.53,4.67.62,6.84s-8.22,8.94-8.22,8.94-6.11,3-5.13-1S195.8,164.92,195.8,164.92Z"/><path class="cls-28" d="M217,176.4c1.78,6.35,1.86,14.94-.1,18.9s-7.33,8-7.33,8l-3.45-4.77Z"/><path class="cls-7" d="M300.35,146.35c-5,5.72-8.55,13.24-14.88,27.25s-23.58,44.09-23.58,44.09l-7-6.84s-14.36,16.41-14,35.88c0,0,11.79,14.87,16.23,18.46s9.05,4.1,15.55-2.05,39.26-46.21,39.26-46.21,8.92-5.22,11-23.68S313.69,144.38,300.35,146.35Z"/><path class="cls-29" d="M260.24,216.07c-3,2.65-15.5,20.58-12.49,39l1.43,1.68s-1.35,1.16-3.31-1-8.79-9.28-9.93-11.39-.48-11.56,4.24-22.79,10.55-16.64,13.32-14.4a46.14,46.14,0,0,1,5.88,5.45c1.44,1.51,2.91,3.14,2.51,5Z"/><path class="cls-30" d="M458.68,210.67c-6.28-3.38-17.14-5-25.37,1a17.41,17.41,0,0,0-4.46,4.85c-10.57,15.52-40.24,53.38-40.24,53.38s1.6,13.49,21.95,20.12L444,253.92a198.59,198.59,0,0,1,4.05,22.86c1.15,11-5.48,57.08-5.48,57.08s5,.07,9.6-5.41,5.24-8.69,6.51-8.69,2.59,8.5,15,17.42c9.83,7.08,37.83,16.7,55.41,11.12,20.13-6.38,20.19-15.7,21.34-20a92.57,92.57,0,0,0-9.32-13.07c-5.72-6.86-6.86-10-6.86-11.16s2.28-6.44,1.37-8.5-5.67-6.4-4.66-9.6,9-28.58,11.29-43.21,0-33.38,0-33.38Z"/><path class="cls-31" d="M437.66,209.69c6.62-1.87,21.75,3.88,25.47,7.51s5.38,20,23.88,26.71,48.55,2.22,48.55,2.22l-16.44-39.38-56.53-8.4Z"/><path class="cls-31" d="M538.24,260.79c1.67-6.39,3.19-12.9,4-18.07a101.61,101.61,0,0,0,1-15.87c-7.67,1.53-75.41,15-75.88,14.5s-26.32-14.89-26.32-14.89l-17.38-2.6c-7.94,11-19.48,26-27.13,35.87a99.49,99.49,0,0,0,13.24,6.53c6.83,2.81,14.17,3.19,20.29,2.71L444,253.92s1.33,5.43,2.54,12.33c6.95,0,27.2-.28,48.22-1.53C517.07,263.39,533.94,261.34,538.24,260.79Z"/><path class="cls-32" d="M567.12,128.18c6.79-2.5,27.26-8.27,38.08-7s25.8,6.92,31.86,13.41,5.62,28.4,5.62,35.9-3.44,24.59-6.12,32.33-3.39,25.05-3,39.18,9.23,48.3,11,52.33-6.52,10.52-19.09,15.45c-15.62,6.12-39.59,7.76-39.59,7.76L578,295.52l-1.59,22.77a58.19,58.19,0,0,1-19.75.58c-10.52-1.58-14.56-4.9-15.42-6.2s-3.64-38.2-1.32-58.75c0,0,17.61-11.46,20.35-25.3S567.12,128.18,567.12,128.18Z"/><path class="cls-33" d="M586.54,135.39c4.8,4,11.94,10,11.93,23.09,0,10.36-5.43,31.33-5.43,31.33l-10.19-2.88Z"/><path class="cls-33" d="M636.56,202.85c2.68-7.74,6.12-24.83,6.12-32.33,0-6.48.32-23.71-3.5-32.46l-4.84-5.87c-7.09-5.42-19.71-9.85-29.14-11a49.66,49.66,0,0,0-12.14.52c1.84.66,6.93,4.85,8.43,8s6.29,5.69,12.28,4.34,5.39.72,8.69,10S630.25,169,630.25,169l-15.43,6s-34.22,17.4-51.94,26.31c-.48,6.67-1,12.71-1.43,17.55,11.47-2.62,27.53-6.14,32.1-6.42,7.34-.45,19.62,1.2,25.76,2.25,3.47.59,10.36-2.39,15.72-5.11A40.85,40.85,0,0,1,636.56,202.85Z"/><path class="cls-33" d="M587.9,213.21v-21l-24.61,3.23c-1,15.28-2.14,28.42-3.07,33.13-2.74,13.84-20.35,25.3-20.35,25.3-.23,2.09-.42,4.36-.55,6.73,5.49,0,15.29,0,20.36-.76,7.28-1.06,11.54-3.19,15.8-16.29S584.13,213.92,587.9,213.21Z"/><path class="cls-24" d="M535.56,219.43,462,230.61c-4.65.65-12.13-2.33-18-5.14s-6.75-3.75-14-3.8-13.94-3-15.31-.74,2.35,6.72,7.4,7.92,8.26,1.85,8.26,1.85H419.18c-5.4,0-7.95.78-9.58,2.56s-1.31,5.1-2.78,6-3.4,2.54-3.4,4.94-3.94,4.17-4,6.34-.75,2.71.63,4.64,12,7.33,21.15,8,17.47-1.45,22.81-2.8c4-1,6.25-1.83,15.28-2.21,6.9-.29,44.92-2.08,44.92-2.08Z"/><path class="cls-34" d="M578.31,129.41c-7.66-3.94-21.86-1.8-26.44,15.69s-16.31,74.33-16.31,74.33L504.2,224.2s4.37,18.76,0,31.87c0,0,37.64-2,44.94-2.15s16.05-1.19,21.05-14.1,19.62-63.91,22.09-71.82S598.3,139.69,578.31,129.41Z"/><path class="cls-35" d="M483.73,99.09c-12,3.13-23,12.94-25.93,28.64s-1.81,22.72,3.85,36.07S473.81,186,471.38,200s2.08,22,12.35,31.94c14.63,14.2,51.34,17.66,69.7,0,17.12-16.46,3.19-40,3.19-40s12.72-11.59,9.78-24.26-7.69-15.62-18.55-21.38-16.78-18.3-20-26.21S511.46,91.85,483.73,99.09Z"/><path class="cls-36" d="M471.38,200c-1.64,9.41-.13,16.09,4.14,22.47,7.84,3.24,23.26,8.82,26.82,9.47S528.68,227,531,227.19s5,1.31,11.11,0,8.36-4.77,8.36-4.77l10.54-3c2.15-7.91.42-15.78-1.46-21.07H471.6C471.54,198.9,471.48,199.43,471.38,200Z"/><path class="cls-26" d="M538.57,185.63s53-6.56,57.92-7.49,8.19-4.63,13.75-8.19,10.36-5.1,14.22-4.48,9.89.93,11.74,1.08.93,3.71-2.16,4.64-9.12,1.85-8.65,2.47,10.81.62,12.51-.46,2.63-1.55,3.56-3.56,3.24-1.54,4.48.16,2.47,4.79.77,7.72-3.4,4.37-3.55,5.74.46,4.93.61,7.09-2.93,4.94-3.55,6.49-.77,4-4.48,6.64a33.66,33.66,0,0,1-13.38,5.16c-3.4.31-17.12-1.74-23.14-1.89s-14.83,2-29.74,4.83c-11.56,2.19-32.46,7.6-32.46,7.6Z"/><path class="cls-7" d="M433.84,138.5s4.08-1,9.41,2.4,68.65,44.9,69.86,45.59,25.46-.86,25.46-.86,3.78,19.44-1.55,33.55c0,0-26.15,4.48-30.11,5.68s-6.71.69-14.45-2.24S459.77,210.24,452.2,209s-17.84-1.34-23.46,8c0,0-2.9-12.43.49-32.13C432.82,164,433.84,138.5,433.84,138.5Z"/><path class="cls-8" d="M538.47,214.31a37.64,37.64,0,0,1-1.45,4.88s-26.15,4.47-30.11,5.67-6.71.69-14.45-2.24S459.77,210.23,452.19,209s-17.81-1.34-23.44,8c3-13.27,7.87-30.79,9.05-46.12,1-13-.8-25.29-2.73-30.26a66.22,66.22,0,0,1,6.38,21.07c2.22,15.36,1.73,21.54,1.48,26.74s6.2,10.34,21.8,16.1,35.85,13.65,39.47,14.63C507.54,220.09,534.55,215.05,538.47,214.31Z"/><path class="cls-29" d="M531,186.08c0-2,2.71-2.29,7-2.55s6.34-.82,7.9,1.27,3.37,10.64,3.31,19.19c0,6.37-1.5,14.5-3.83,15.54a26.07,26.07,0,0,1-7.25,1.68c-2.72.39-6.58,1.16-7.11-1l1.8-.32A52.68,52.68,0,0,0,535.6,204c0-11.21-2.07-18.06-2.07-18.06Z"/><path class="cls-5" d="M618.21,129.41c-1.48.15-6.61,2.32-11.29.88s-9.91-9.2-13.86-8.56l-13.18,2.66a21.07,21.07,0,0,1,5.58-5.13c3.31-2,13.27-4.84,16.84-5.8,4.69-1.27,10.55-2.41,13.93-1.1,7.68,3,17.76,9,19.37,10.94s36,50.75,41.25,57.75,10.76,16,9.15,28.15-5.38,15.31-9.33,16.27-17.93-7.12-22.41-13.4-29.78-72.45-31.21-75.86S619.86,129.24,618.21,129.41Z"/><path class="cls-12" d="M289.91,287.28l-.75,5s-4.38,1.19-6.85.89-3.51-1-2.88-1.82,4.6-2.82,6.59-4.52c4.34-3.71,4.32-9.1,1.35-8-1.71.65-3.16,1.86-5.37,2.27-2.44.45-4.61,1.12-8.61,1.9a20.58,20.58,0,0,0-8.63,3.93c-1.52,1.17-2.89,2-5,1.75-5.53-1.9-17.09-5.84-28-9.55h0c-11.59-3.94-22.41-7.63-24.37-8.31-4.36-1.52-5.45-2.92-6.08-6-1.27-6.14-4.89-18.75-4.89-18.75l-20.69,30.93a70.65,70.65,0,0,0,2.84,10.67c2.28,6.83,5.31,9.48,10.62,10,2.81.3,19.44,3.42,35.48,6.63h0s28.28,6.07,35.48,7.93,14.13,3,18.5,2.28a12.77,12.77,0,0,0,8.05-5.46c1-1.49,2-1.35,4.62-3.12s1.09-5.8,2.12-7.49c1.19-2,2.36-2.84,2.22-6.08S289.91,287.28,289.91,287.28Z"/><path class="cls-5" d="M71.6,155.06S84.81,186.9,86,189.39s3.56,2.21,19.23,1.66,48.85-1.94,53.28-3.32,5.81-4.15,8-8,4.15-6.91,13.55-9.95,14.8-6.65,15.77-4.83c.53,1,1.4,3.74-2.33,6.67s-9,6.78-8.31,7.69,21.74-3.56,24.72-6,1.86-4,1.86-4a3.78,3.78,0,0,1,4,1.75c1.46,2.38,1.71,10.53,1.13,14.24s-1.32,8.84-5.9,13.05-12.28,8.14-19.33,9.95c-5.66,1.46-13.65.62-23.9,3s-47,10.89-66.72,15.35c-17.82,4-37,8.39-42.41,6.56s-11.36-13.43-19-35Z"/><path class="cls-37" d="M33.7,111.93c-7,3-17.15,13-9.68,43.57S37.3,199.62,37.3,199.62s28.77,5,45.09-21c-.28-1.66-8.58-24.89-16-42.32S49.75,105,33.7,111.93Z"/><path class="cls-8" d="M338.77,132.38s9.44,1.48,14.48,4.38,10.57,4.13,19.05,3.88,14-2.58,19.18-5.16,8.84-5.46,12.48-5.19c0,0-1.9-3.36-31.78-3.36S338.77,132.38,338.77,132.38Z"/><path class="cls-7" d="M370.24,121.75c-7.72.36-13.54-2-17.53-2.69s-8.48,1.6-13.94,13.32a37.79,37.79,0,0,1,11.56,1.12c6.1,1.61,12.22,3.66,21,3.19,10.77-.57,17-3.57,22-4.8a54,54,0,0,1,10.63-1.6s-8.74-15.66-16.68-12.84C381.44,119.53,377,121.43,370.24,121.75Z"/><path class="cls-6" d="M341.55,288.8l36.65-14.37L371.81,273h-.31l-47,10.05C329.37,284.72,335.31,286.72,341.55,288.8Z"/><path class="cls-37" d="M53.77,97.49s5.62,9.65,14,14.16a33.65,33.65,0,0,0,18.06,4.14l3.57,4.58s-10.63,2.57-23-3.86c-11.6-6-15.7-15.1-15.7-15.1Z"/><path class="cls-17" d="M190.09,304.76l5.15-.94v-6.61C193.7,299.55,192,302.08,190.09,304.76Z"/><path class="cls-17" d="M168.94,287.07c2.92-4.1,27.48-40.94,27.48-40.94a85.91,85.91,0,0,1-3.76-31,80.89,80.89,0,0,0-3.74,31.33s-19.43,31.83-24.54,35.75-24.88,1.5-24.88,1.5,9.36,3.12,17.16,5.07S166,291.16,168.94,287.07Z"/><polygon class="cls-13" points="198.87 254.98 177.92 285.22 175.73 277.06 196.42 246.13 198.87 254.98"/><path class="cls-38" d="M102,110.26s15.17,0,25.09-16.15c0,0-4.6,20.5-25.71,19.17C101.6,112.2,101.82,111.19,102,110.26Z"/><path class="cls-11" d="M675.32,298.83c1.73,7.94,4.32,19.62,5.87,21.12s23,4.24,23,4.24l.38-2s-18.81-2.61-21.25-3.57C681.73,318,677.22,305,675.32,298.83Z"/><path class="cls-22" d="M570,363.7A336.44,336.44,0,0,1,566.84,317h-2.6s-2.36,15.46,2.54,46.73Z"/><path class="cls-11" d="M101,334.49s-3.64,13.44-3.64,17.72,9.48,10.37,11.67,10.13,18.74-3.65,20.93-6.09S134.58,330,134.58,330s-4.51,23.09-6,24.55-16.36,5.76-19.05,5.52-10-6.11-10-8.09S101,334.49,101,334.49Z"/><path class="cls-11" d="M76.5,327.32c-3.61,8-6.68,18.83-7.88,20.57s-14.24,2.74-14.24,2.74l.57-2.51s8.38-.76,10.49-1.17,2.64-2.2,3.85-5S76.5,327.32,76.5,327.32Z"/><polygon class="cls-3" points="17.43 363.7 31.77 308.63 33.89 308.63 20.18 363.7 17.43 363.7"/><path class="cls-3" d="M29.7,323.44c9.91,1.31,23.79-.55,28.85-16.81l.29,3.53S57,319,49.24,323A29.47,29.47,0,0,1,29,325.25Z"/><path class="cls-22" d="M580.48,323.41c1.26,10,2.63,20.56,5.17,22.75s20.55,3.37,23,2.49,9.48-8.16,9.62-10.83-3.16-24.37-3.16-24.37.76,21.49.55,23.68-5.75,8.6-8.39,9-17.31.52-19.36-1.87S580.48,323.41,580.48,323.41Z"/><path class="cls-11" d="M665.66,292.52s4.5,17.55,7.33,33.49,4.22,37.69,4.22,37.69h-2.77A279.15,279.15,0,0,0,670.51,326c-3.46-19.17-7.39-33.49-7.39-33.49Z"/><path class="cls-22" d="M626.62,314c2.36,13.94,3.94,25.63,1.93,36S626,363.7,626,363.7h1.76s2-10.52,3-15.84.71-13.94-2.37-34.41Z"/><path class="cls-22" d="M638.56,308.77c1.31,8.78,2.48,18.86,3.51,21.2s7.84,4.4,7.84,4.4l0,1.89s-7.52-1.5-9.71-5.06S638.56,308.77,638.56,308.77Z"/></g></g></svg>