<svg xmlns="http://www.w3.org/2000/svg" viewBox="0 0 1600 939"><defs><style>.cls-1{fill:#578089;}.cls-2{fill:#96d9c9;}.cls-3{fill:#50bfa5;}.cls-4{fill:#50bda3;}.cls-5{fill:#3c8f7c;}.cls-6{fill:#bfe6ee;}</style></defs><title>erbette</title><g id="campeggio"><rect class="cls-1" y="320" width="1600" height="356"/><path class="cls-2" d="M394.14,615.18c-39.08-18.48-66.41-62.56-82.46-96.28a419.57,419.57,0,0,1-25.76-69.58l-1.73.89a422.49,422.49,0,0,0,25.93,70.08c16.21,34.06,43.82,78.58,83.39,97.29Z"/><path class="cls-2" d="M287.45,437.46a46.71,46.71,0,0,1,2.27,27.17c-6.21-2-12-7.68-15.53-16.38a46.56,46.56,0,0,1-2.27-27.17C278.13,423,283.89,428.75,287.45,437.46Z"/><path class="cls-2" d="M283.62,470.75c6.79,3.46,11.79,10.4,14.18,18.56A18.93,18.93,0,0,1,278,490.53c-6.79-3.46-11.79-10.4-14.19-18.56A18.94,18.94,0,0,1,283.62,470.75Z"/><ellipse class="cls-2" cx="287.84" cy="511.58" rx="18.52" ry="10.39" transform="translate(-103.45 74.02) rotate(-12.44)"/><ellipse class="cls-2" cx="301.62" cy="540.69" rx="18.52" ry="10.39" transform="translate(-109.4 77.67) rotate(-12.44)"/><path class="cls-2" d="M299.81,484.9c.4-9.19,3.35-17.49,7.69-23.15,3.86,5.47,6.11,13.65,5.71,22.84s-3.35,17.49-7.69,23.16C301.66,502.27,299.41,494.1,299.81,484.9Z"/><path class="cls-2" d="M314.2,515c.29-9.2,3.15-17.57,7.43-23.33,3.92,5.37,6.26,13.49,6,22.68s-3.15,17.57-7.43,23.33C316.24,532.35,313.91,524.23,314.2,515Z"/><path class="cls-2" d="M324.41,560.35a7.7,7.7,0,0,1,8.4-.52,14.44,14.44,0,0,1-5.49,9,7.7,7.7,0,0,1-8.4.51A14.42,14.42,0,0,1,324.41,560.35Z"/><path class="cls-2" d="M611.35,644.65a49.26,49.26,0,0,1-4.54,9.35H432.74c5.37-5.27,12.31-12,20.07-19.4l2.74-2.6s0,0,0,0l1.26-1.18C481,608,511.53,580.61,528.55,571c5.42-3.08,9.47-4.35,11.51-3.12,15.26,9.29,11.14,32.34,11.14,32.34s28.58-29,47.11-24.72a15.24,15.24,0,0,1,9.39,6.74c.12.17.23.34.34.51C618.44,599.18,618.16,626.3,611.35,644.65Z"/><path class="cls-3" d="M456.16,632.87l1.17-1.29c-26.55-42-37.89-94.68-42.73-131.46-5.25-39.92-4.18-70.27-4.17-70.57l-1.61-.38c0,.31-1.09,30.86,4.19,71C417.88,537.28,429.33,590.41,456.16,632.87Z"/><path class="cls-3" d="M414,422.88c.79,9.06-1,16.9-4.51,21.93A46.76,46.76,0,0,1,401,421.38c-.78-9.07,1-16.9,4.51-21.94C410,405.39,413.19,413.81,414,422.88Z"/><path class="cls-3" d="M403.62,444a47.52,47.52,0,0,1,6.88,24.08c-5.51-1.24-11.34-5.87-15.89-13.35a47.58,47.58,0,0,1-6.88-24.09C393.24,431.88,399.07,436.51,403.62,444Z"/><path class="cls-3" d="M399.35,469.22c6,4.32,10.7,11.41,13.21,19.11-4.79,2.48-10.92,1.83-16.94-2.48s-10.71-11.41-13.22-19.11C387.19,464.26,393.32,464.91,399.35,469.22Z"/><path class="cls-3" d="M410.12,510.76a15.15,15.15,0,0,1,5.94,7.51c-1.94,1.25-4.49,1.24-7.1-.32a15.2,15.2,0,0,1-5.93-7.52C405,509.18,407.52,509.19,410.12,510.76Z"/><path class="cls-3" d="M413.39,526.24a15.22,15.22,0,0,1,5.94,7.52c-1.94,1.25-4.49,1.24-7.1-.33a15.17,15.17,0,0,1-5.93-7.51C408.23,524.66,410.79,524.68,413.39,526.24Z"/><path class="cls-3" d="M418.32,461.06a12.9,12.9,0,0,1,14.46-2.54c-.23,6.91-2.56,13.33-6.81,17.29a12.93,12.93,0,0,1-14.47,2.54C411.74,471.44,414.07,465,418.32,461.06Z"/><path class="cls-3" d="M421.15,484.68a12.93,12.93,0,0,1,14.47-2.55c-.24,6.92-2.57,13.33-6.82,17.3A12.93,12.93,0,0,1,414.33,502C414.57,495.05,416.9,488.64,421.15,484.68Z"/><path class="cls-3" d="M423,518.78a8.42,8.42,0,0,1,9.42-1.66c-.16,4.5-1.67,8.68-4.44,11.26a8.41,8.41,0,0,1-9.42,1.65C418.73,525.53,420.24,521.36,423,518.78Z"/><path class="cls-4" d="M469.79,654H363.27a7.81,7.81,0,0,1-.5-1.16c-4-11.68,11.5-9.22,17.35-7.91-9.63-2.51-47.9-13.87-41.82-34.13,3.51-11.71,23-9.8,31.52-8.37,2.26.37,3.73.72,3.93.76-.09-.11-.45-.57-.94-1.32-2.12-3.27-6.5-12.13.38-21.46,8.56-11.61,44.63,34.09,45.63,35.37-.44-1.11-14.7-36.43,2.32-26,7.91,4.83,21.18,22.68,32.7,39.72.58.84,1.15,1.68,1.71,2.53C461.07,640.22,466.08,648.09,469.79,654Z"/><path class="cls-4" d="M542.54,578.26c.33,14.22-20.89,36-20.89,36s11.56,25.21.48,39.73H449.22c.88-5,2.1-11.81,3.59-19.4q.49-2.52,1-5.13c0-.09,0-.19.05-.28.17-.8.33-1.61.5-2.42,6.2-30.14,15.84-68.29,25.33-71,8.39-2.39,6.64,14.61,6.46,16.24.54-2.67,9.77-47.52,22.18-43,8.32,3,.77,21.67.46,22.43.71-1,27.22-40.53,37.44-26.83,5.28,7.08-15.61,42.81-17.71,46.37-.09.14-.14.23-.16.27C528.81,571,542.22,564.24,542.54,578.26Z"/><path class="cls-4" d="M644,440.43l5-15.73c3.87-11.56,13.79-17.09,22.14-12.33h0c21.06,12,30.21,45.31,20.45,74.46l-7.14,21.31c-3.13,9.34-2,19.61,2.18,26.85,3.83,6.58,4.46,15.73,1.8,23.65l-3.76,11.24c-4.08,12.16-12,21.17-21.41,24.89-5.5,2.17-10.35,7.55-12.92,15.21L645,625.89c-5.89,17.59-21,26-33.67,18.76l-7.25-4.12c-12.7-7.23-18.23-27.35-12.34-44.93h0c9.53-21,8.77-36.73,5.4-47.37a81.57,81.57,0,0,1,.46-49.69l.75-2.25c5.67-16.92,16.61-29.55,29.65-35C633.77,458.94,639.77,453.11,644,440.43Z"/><path class="cls-2" d="M819.21,594.57c-1.67,6.1-3.51,12.29-5.43,18.39-.37,1.19-.75,2.36-1.13,3.53-5.75,17.93-12,34.74-16.18,45.51H557.71c6.67-11.36,18.26-30.44,31.88-50.31h0c5.75-8.39,11.85-16.9,18.1-25.07,16.76-21.87,34.53-41,49.09-47.49,39.51-17.49,3.84,50.23,2.37,53,1-1.4,14.09-20.93,30.87-42.16,3.06-3.88,6.24-7.8,9.49-11.69l.21-.25c.21-.26.43-.52.65-.76h0c.88-1,1.76-2.1,2.65-3.13,8.94-10.44,18.24-20.32,26.89-27.64h0a91.76,91.76,0,0,1,8.12-6.21c7.37-5,13.92-7.28,18.86-5.47,13,4.79,12,26.42,8.23,45.27-.22,1.09-.44,2.17-.67,3.23-.49,2.24-1,4.41-1.52,6.49-.67,2.68-1.36,5.2-2,7.49-2.1,7.36-3.91,12.4-4,12.71a108.86,108.86,0,0,1,8.22-9.49c2.23-2.32,4.86-4.88,7.83-7.49a98.78,98.78,0,0,1,15.85-11.45,71.45,71.45,0,0,1,7.2-3.65,52.62,52.62,0,0,1,20.87-4.65C831.89,533.27,827.94,562.65,819.21,594.57Z"/><path class="cls-5" d="M755.47,432.28c-.32.15-.64.32-1,.49h0c-.42.24-.83.47-1.23.73s-.56.36-.84.56c-9.77,6.7-15.85,20.6-21.62,32.35q-1.75,3.57-3.46,7.17c-.36.75-.71,1.51-1.06,2.26q-4.83,10.26-9.34,20.88l-1,2.38q-6.84,16.23-12.92,33.12A788.13,788.13,0,0,0,670.11,654h-2.87a786.82,786.82,0,0,1,32.28-117.82c.05-.15.1-.29.16-.43h0c.43-1.2.86-2.38,1.3-3.58,4.14-11.28,8.53-22.39,13.15-33.23.61-1.43,1.22-2.87,1.85-4.29q4.75-11,9.83-21.6c.91-1.89,1.82-3.77,2.74-5.66h0c3-6.13,6.13-12.78,9.79-18.73,1-1.62,2-3.19,3.11-4.69A38.51,38.51,0,0,1,752,433.55c.13-.09.27-.17.41-.25a26,26,0,0,1,3-1.52.15.15,0,0,1,.21.12A.3.3,0,0,1,755.47,432.28Z"/><path class="cls-5" d="M795.32,507.84l-.36.36c-.41.4-.82.82-1.22,1.24l-1,1.06q-7.61,7.69-15,15.73-2.17,2.34-4.34,4.74-4.49,4.92-8.87,10-3.24,3.71-6.44,7.51h0L754.2,553a733.84,733.84,0,0,0-70.06,101h-2.92a746.39,746.39,0,0,1,62.11-90.32c.47-.61.95-1.19,1.43-1.77q9.91-12.25,20.38-24,13.35-15,27.59-29.17c.65-.66,1.3-1.31,2-2C795.16,506.29,795.8,507.37,795.32,507.84Z"/><path class="cls-5" d="M733.48,429.52c.75,1.45,3.63,5.21,4.48,10.15A26.87,26.87,0,0,1,738.1,450a24.41,24.41,0,0,0,4.44-10c1.44-6,.43-14.24-1.35-17-3.09-6.2-8.47-6.83-9.52-3.82S732,426.24,733.48,429.52Z"/><path class="cls-5" d="M740.47,482.63c-1.09-1-3.92-4.84-7.69-6a12.47,12.47,0,0,0-7.94-.39c-.09.28,3-4.27,7.77-5.59,4.61-1.75,10.94-.28,13,2.1,4.69,4.14,5.07,11.18,2.74,12.48S743,484.66,740.47,482.63Z"/><path class="cls-5" d="M729.92,505.9c-1.09-1-3.92-4.83-7.7-6a12.37,12.37,0,0,0-7.93-.39c-.1.28,3-4.27,7.77-5.59,4.6-1.76,10.94-.28,13,2.1,4.7,4.14,5.07,11.17,2.75,12.48S732.41,507.94,729.92,505.9Z"/><path class="cls-5" d="M767.56,559.89c-1.09-1-3.92-4.84-7.69-6a12.47,12.47,0,0,0-7.94-.39c-.09.28,3-4.27,7.77-5.59,4.61-1.75,10.94-.28,13,2.1,4.69,4.14,5.07,11.18,2.74,12.48S770.05,561.92,767.56,559.89Z"/><path class="cls-5" d="M786.79,537.81c-1.09-1-3.92-4.84-7.69-6a12.47,12.47,0,0,0-7.94-.39c-.09.28,3-4.27,7.77-5.59,4.61-1.75,10.94-.28,13,2.1,4.69,4.14,5.07,11.18,2.74,12.48S789.28,539.84,786.79,537.81Z"/><path class="cls-5" d="M718.71,455.86c.92,1.27,4.22,4.39,5.65,9.1a26.74,26.74,0,0,1,1.4,10.19,26.48,26.48,0,0,0,3.17-10.8c.7-6.19-1.3-14.16-3.39-16.5-3.8-5.49-9.19-5-9.86-1.82S716.82,452.93,718.71,455.86Z"/><path class="cls-5" d="M703.2,482.25c1.3.91,5.86,2.54,8.16,7,2.6,4,2.93,10.73,2.75,10.6-.24.29,3.26-6.54,3.1-13.84.33-7.29-3-15.07-5.93-16.51-5.42-4-12.36-.43-12.93,3.5S700.47,480,703.2,482.25Z"/><path class="cls-5" d="M686.86,522.23c1.41.61,6.12,1.22,8.95,5.1,3.07,3.34,4.27,9.94,4.08,9.84-.2.34,2.37-7.15,1.28-14.32-.63-7.26-4.91-14.19-8-15-5.87-2.75-12.25,2.28-12.3,6.28S683.9,520.65,686.86,522.23Z"/><path class="cls-5" d="M735.19,550.08c1,.83,4.67,2.5,6.34,6.29a18.49,18.49,0,0,1,1.78,8.82c-.22.22,2.93-5.07,3.12-11,.58-5.91-1.78-12.48-4.1-13.87-4.24-3.66-10-1.27-10.68,1.88S733.08,548.08,735.19,550.08Z"/><path class="cls-5" d="M760.35,438.88c-.61-.66-2.15-3.08-4.34-4a7.52,7.52,0,0,0-4.69-.68,9.71,9.71,0,0,1,4.79-2.86c2.78-.78,6.48.45,7.62,2,2.64,2.72,2.63,6.9,1.21,7.54S761.76,440.23,760.35,438.88Z"/><path class="cls-5" d="M754.5,421.89c0,1,.55,4.11-.22,6.94a13.14,13.14,0,0,1-2.45,5.25,9.47,9.47,0,0,0,4.66-3.19c2.17-2.4,3.68-7,3.45-9.08,0-4.38-2.59-6.92-3.84-5.84S754.53,419.63,754.5,421.89Z"/><path class="cls-5" d="M800.64,515.32c-.61-.66-2.15-3.09-4.35-4a7.45,7.45,0,0,0-4.68-.69,9.73,9.73,0,0,1,4.79-2.86c2.78-.77,6.47.46,7.62,2,2.64,2.71,2.62,6.89,1.2,7.53S802.05,516.66,800.64,515.32Z"/><path class="cls-5" d="M793.57,498.18c.09,1,.82,4,.22,6.94a14,14,0,0,1-2.1,5.49,10,10,0,0,0,4.44-3.67c2-2.63,3.23-7.34,2.87-9.42-.32-4.36-3-6.62-4.2-5.42S793.47,495.92,793.57,498.18Z"/><path class="cls-2" d="M813.45,632.08C845.17,597.15,859,543.5,865.1,504.65a467.49,467.49,0,0,0,5.59-76.87l1.85.06a470.17,470.17,0,0,1-5.61,77.41c-6.11,39.23-20.13,93.43-52.24,128.79Z"/><path class="cls-2" d="M866.09,417.34a45.16,45.16,0,0,0,5.12,26.51c5.3-4.64,9.18-12.59,10.19-22.36A45.17,45.17,0,0,0,876.28,395C871,399.62,867.1,407.57,866.09,417.34Z"/><path class="cls-2" d="M878.56,446.84c-5.44,6.31-8.28,15.07-8.35,23.8,6.53,1.09,13.45-1.46,18.9-7.77s8.28-15.07,8.35-23.79C890.93,438,884,440.53,878.56,446.84Z"/><ellipse class="cls-2" cx="885.5" cy="487.04" rx="18.69" ry="10.29" transform="translate(-108.41 304.11) rotate(-18.38)"/><ellipse class="cls-2" cx="880.35" cy="520.55" rx="18.69" ry="10.29" transform="translate(-119.24 304.19) rotate(-18.38)"/><path class="cls-2" d="M867.16,467.41c-2.83-8.44-7.81-14.9-13.4-18.25-2.16,6.87-2.08,15.55.74,24s7.81,14.9,13.4,18.26C870.06,484.53,870,475.85,867.16,467.41Z"/><path class="cls-2" d="M861.7,502.15c-2.72-8.49-7.64-15-13.19-18.53-2.25,6.8-2.28,15.47.45,24s7.65,15.06,13.2,18.54C864.41,519.31,864.43,510.65,861.7,502.15Z"/><path class="cls-2" d="M864.22,549.25a8.32,8.32,0,0,0-8,3.3c1.74,3.17,4.43,5.45,7.55,6a8.32,8.32,0,0,0,8-3.3C870,552.07,867.33,549.79,864.22,549.25Z"/><path class="cls-2" d="M1009.35,644.65a49.26,49.26,0,0,1-4.54,9.35H830.74c5.37-5.27,12.31-12,20.07-19.4l2.74-2.6c24.34-23,55.67-51.22,73-61,5.42-3.08,9.47-4.35,11.51-3.12,15.26,9.29,11.14,32.34,11.14,32.34s28.58-29,47.11-24.72a15.24,15.24,0,0,1,9.39,6.74c.12.17.23.34.34.51C1016.44,599.18,1016.16,626.3,1009.35,644.65Z"/><path class="cls-3" d="M610.16,574.43l1.17-1.3c-26.55-42-37.89-94.68-42.73-131.46-5.25-39.91-4.18-70.26-4.17-70.57l-1.61-.37c0,.3-1.09,30.86,4.19,71C571.88,478.84,583.33,532,610.16,574.43Z"/><path class="cls-3" d="M568,364.43c.79,9.07-1,16.9-4.51,21.94A46.8,46.8,0,0,1,555,362.93c-.78-9.06,1-16.9,4.51-21.93C564,347,567.19,355.36,568,364.43Z"/><path class="cls-3" d="M557.62,385.55a47.55,47.55,0,0,1,6.88,24.09c-5.51-1.25-11.34-5.87-15.89-13.36a47.53,47.53,0,0,1-6.88-24.09C547.24,373.44,553.07,378.07,557.62,385.55Z"/><path class="cls-3" d="M553.35,410.78c6,4.32,10.7,11.41,13.21,19.11-4.79,2.48-10.92,1.83-16.94-2.49S538.91,416,536.4,408.3C541.19,405.82,547.32,406.47,553.35,410.78Z"/><path class="cls-3" d="M564.12,452.31a15.22,15.22,0,0,1,5.94,7.52c-1.94,1.25-4.49,1.24-7.1-.33A15.13,15.13,0,0,1,557,452C559,450.74,561.52,450.75,564.12,452.31Z"/><path class="cls-3" d="M567.39,467.8a15.15,15.15,0,0,1,5.94,7.51c-1.94,1.25-4.49,1.24-7.1-.32a15.2,15.2,0,0,1-5.93-7.52C562.23,466.22,564.79,466.23,567.39,467.8Z"/><path class="cls-3" d="M572.32,402.62a12.92,12.92,0,0,1,14.46-2.55c-.23,6.92-2.56,13.33-6.81,17.3a12.93,12.93,0,0,1-14.47,2.54C565.74,413,568.07,406.58,572.32,402.62Z"/><path class="cls-3" d="M575.15,426.23a12.93,12.93,0,0,1,14.47-2.54c-.24,6.91-2.57,13.33-6.82,17.29a12.93,12.93,0,0,1-14.47,2.55C568.57,436.61,570.9,430.2,575.15,426.23Z"/><path class="cls-3" d="M577,460.33a8.41,8.41,0,0,1,9.42-1.65c-.16,4.5-1.67,8.67-4.44,11.25a8.41,8.41,0,0,1-9.42,1.66C572.73,467.09,574.24,462.91,577,460.33Z"/><path class="cls-4" d="M867.79,654H761.27a7.81,7.81,0,0,1-.5-1.16c-4-11.68,11.5-9.22,17.35-7.91-9.63-2.51-47.9-13.87-41.82-34.13,4.44-14.83,34.51-7.82,35.45-7.61-.46-.57-9-11.31-.56-22.78,6.88-9.34,31.52,18.35,41.46,30.25,2.42,2.91,4,4.87,4.17,5.12-.13-.34-1.59-4-3-8.48-3.23-10.11-6.4-24.73,5.36-17.55l.07,0c3.77,2.34,8.75,7.6,14.17,14.3.46.57.94,1.17,1.41,1.77,5.56,7,11.51,15.41,17.05,23.61.58.84,1.15,1.68,1.71,2.53C859.07,640.22,864.08,648.09,867.79,654Z"/><path class="cls-4" d="M940.54,578.26c.33,14.22-20.89,36-20.89,36s11.56,25.21.48,39.73H847.22c.88-5,2.1-11.81,3.59-19.4q.5-2.52,1-5.13C858,599,868,558.55,877.72,555.78c8.39-2.39,6.64,14.61,6.46,16.24.54-2.67,9.77-47.52,22.18-43,8.32,3,.77,21.67.46,22.43.71-1,27.22-40.53,37.44-26.83,5.28,7.08-15.61,42.81-17.71,46.37-.09.14-.14.23-.16.27C926.81,571,940.22,564.24,940.54,578.26Z"/><path class="cls-4" d="M1042,440.43l5-15.73c3.87-11.56,13.79-17.09,22.14-12.33h0c21.06,12,30.21,45.31,20.45,74.46l-7.14,21.31c-3.13,9.34-2,19.61,2.18,26.85,3.83,6.58,4.46,15.73,1.8,23.65l-3.76,11.24c-4.08,12.16-12,21.17-21.41,24.89-5.5,2.17-10.35,7.55-12.92,15.21L1043,625.89c-5.89,17.59-21,26-33.67,18.76l-7.25-4.12c-12.7-7.23-18.23-27.35-12.34-44.93h0c9.53-21,8.77-36.73,5.4-47.37a81.57,81.57,0,0,1,.46-49.69l.75-2.25c5.67-16.92,16.61-29.55,29.65-35C1031.77,458.94,1037.77,453.11,1042,440.43Z"/><path class="cls-2" d="M1192.46,678H938c7.11-12.44,19.46-33.34,34-55.11h0c6.13-9.19,12.63-18.51,19.29-27.46,17.86-24,36.8-44.95,52.32-52,42.11-19.17,4.09,55,2.52,58.06,1-1.54,15-22.93,32.9-46.19a435.44,435.44,0,0,1,31.16-36.76c3.78-3.9,7.53-7.51,11.16-10.68,8.73-7.63,16.84-12.76,23.39-13.53a11.63,11.63,0,0,1,2-.09.13.13,0,0,1,.12,0h0a8.86,8.86,0,0,1,1.8.2,6.43,6.43,0,0,1,.76.17l.85.28a14.72,14.72,0,0,1,7.75,7h0c11.46,20.92-7.76,75.38-7.76,75.38a131.64,131.64,0,0,1,18.25-19.61,112.94,112.94,0,0,1,9.51-7.52c7.5-5.27,16.14-9.8,25.42-11.87.85-.21,1.7-.38,2.55-.52a47.62,47.62,0,0,1,8.2-.72,9.49,9.49,0,0,1,3.09.48h0a9.37,9.37,0,0,1,5.56,5.6C1232.78,565.8,1204.52,646,1192.46,678Z"/><path class="cls-5" d="M1191.47,431c-.32.15-.64.32-1,.49h0c-.42.24-.83.47-1.23.73l-.84.56c-9.77,6.7-15.85,20.6-21.62,32.35q-1.75,3.57-3.46,7.17c-.36.75-.71,1.51-1.06,2.26q-4.59,9.76-8.89,19.85c-.16.33-.31.68-.45,1l-1,2.38c-20.44,48.52-36,101.89-46.08,156.19H1103a784.69,784.69,0,0,1,32.68-119.55h0c.43-1.2.86-2.38,1.3-3.57,4.14-11.29,8.53-22.4,13.15-33.24.48-1.14,1-2.29,1.46-3.42l.39-.87q4.76-11,9.83-21.59c.91-1.9,1.82-3.78,2.74-5.67h0c3-6.13,6.13-12.78,9.79-18.73,1-1.62,2-3.19,3.11-4.69a38.51,38.51,0,0,1,10.53-10.4c.13-.09.27-.17.41-.25a27.68,27.68,0,0,1,3-1.52.16.16,0,0,1,.21.12A.3.3,0,0,1,1191.47,431Z"/><path class="cls-5" d="M1231.32,506.54l-.36.36c-.41.41-.82.82-1.22,1.24h0l-1,1.05c-5.07,5.13-10.07,10.35-15,15.72h0q-2.17,2.34-4.34,4.74c-.72.78-1.43,1.57-2.14,2.36-4.45,5-8.84,10-13.17,15.15h0l-3.81,4.55A733.79,733.79,0,0,0,1119.39,654h-2.93a745,745,0,0,1,62.87-91.61c.47-.61,1-1.2,1.43-1.78q11.65-14.4,24-28.12,11.64-12.88,23.91-25.05v0c.65-.66,1.3-1.31,2-2C1231.16,505,1231.8,506.07,1231.32,506.54Z"/><path class="cls-5" d="M1169.48,428.23c.75,1.44,3.63,5.2,4.48,10.14a26.85,26.85,0,0,1,.14,10.35,24.32,24.32,0,0,0,4.44-10c1.44-6,.43-14.24-1.35-17-3.09-6.2-8.47-6.83-9.52-3.82S1168,424.94,1169.48,428.23Z"/><path class="cls-5" d="M1176.47,481.33c-1.09-1-3.92-4.84-7.69-6a12.47,12.47,0,0,0-7.94-.39c-.09.28,3-4.27,7.77-5.59,4.61-1.75,10.94-.28,13,2.1,4.69,4.14,5.07,11.18,2.74,12.48S1179,483.37,1176.47,481.33Z"/><path class="cls-5" d="M1165.92,504.6c-1.09-1-3.92-4.83-7.7-6a12.37,12.37,0,0,0-7.93-.39c-.1.28,3-4.27,7.77-5.59,4.6-1.76,10.94-.28,13,2.1,4.7,4.14,5.07,11.17,2.75,12.48S1168.41,506.64,1165.92,504.6Z"/><path class="cls-5" d="M1203.56,558.59c-1.09-1-3.92-4.84-7.69-6a12.47,12.47,0,0,0-7.94-.39c-.09.28,3-4.27,7.77-5.59,4.61-1.75,10.94-.28,13,2.1,4.69,4.14,5.07,11.18,2.74,12.48S1206.05,560.62,1203.56,558.59Z"/><path class="cls-5" d="M1222.79,536.51c-1.09-1-3.92-4.84-7.69-6a12.47,12.47,0,0,0-7.94-.39c-.09.28,3-4.27,7.77-5.59,4.61-1.75,10.94-.28,13,2.1,4.69,4.14,5.07,11.18,2.74,12.48S1225.28,538.54,1222.79,536.51Z"/><path class="cls-5" d="M1154.71,454.56c.92,1.27,4.22,4.39,5.65,9.1a26.74,26.74,0,0,1,1.4,10.19,26.48,26.48,0,0,0,3.17-10.8c.7-6.19-1.3-14.16-3.39-16.5-3.8-5.49-9.19-5-9.86-1.82S1152.82,451.63,1154.71,454.56Z"/><path class="cls-5" d="M1139.2,481c1.3.9,5.86,2.53,8.16,7,2.6,4,2.93,10.74,2.75,10.6-.24.29,3.26-6.53,3.1-13.84.33-7.29-3-15.07-5.93-16.51-5.42-4-12.36-.43-12.93,3.5S1136.47,478.75,1139.2,481Z"/><path class="cls-5" d="M1122.86,520.93c1.41.61,6.12,1.22,9,5.1,3.07,3.34,4.27,9.94,4.08,9.84-.2.34,2.37-7.15,1.28-14.32-.63-7.26-4.91-14.19-8-15-5.87-2.75-12.25,2.28-12.3,6.28S1119.9,519.35,1122.86,520.93Z"/><path class="cls-5" d="M1171.19,548.78c1,.83,4.67,2.5,6.34,6.29a18.49,18.49,0,0,1,1.78,8.82c-.22.22,2.93-5.07,3.12-11,.58-5.91-1.78-12.48-4.1-13.87-4.24-3.66-10-1.27-10.68,1.88S1169.08,546.78,1171.19,548.78Z"/><path class="cls-5" d="M1196.35,437.58c-.61-.65-2.15-3.08-4.34-4a7.48,7.48,0,0,0-4.69-.69,9.71,9.71,0,0,1,4.79-2.86c2.78-.78,6.48.46,7.62,2,2.64,2.72,2.63,6.9,1.21,7.54S1197.76,438.93,1196.35,437.58Z"/><path class="cls-5" d="M1190.5,420.6c0,1,.55,4.11-.22,6.93a13.14,13.14,0,0,1-2.45,5.25,9.38,9.38,0,0,0,4.66-3.19c2.17-2.4,3.68-7,3.45-9.08,0-4.38-2.59-6.92-3.84-5.84S1190.53,418.33,1190.5,420.6Z"/><path class="cls-5" d="M1236.64,514c-.61-.66-2.15-3.09-4.35-4a7.33,7.33,0,0,0-4.68-.68,9.63,9.63,0,0,1,4.79-2.87c2.78-.77,6.47.46,7.62,2,2.64,2.71,2.62,6.9,1.2,7.53S1238.05,515.36,1236.64,514Z"/><path class="cls-5" d="M1229.57,496.88c.09,1,.82,4,.22,6.94a14,14,0,0,1-2.1,5.49,10,10,0,0,0,4.44-3.67c2-2.63,3.23-7.34,2.87-9.42-.32-4.36-3-6.62-4.2-5.41S1229.47,494.62,1229.57,496.88Z"/><path class="cls-6" d="M1600,572.51l0,209L0,766-.2,580.7c20.77-1.55,39.93,3.89,51.06,21.11,33.11-20.49,73.55,4.6,79.91,26.83,28.72-12.69,58,9,70.4,22.27,11.29-7.59,34.71-1.79,40.48,7.27,10.5-8.87,34.54-6.17,45.14,1.61,11.75-26.34,61.49-21.6,87.59-7.17,6.45-20.17,28.31-28.87,61.48-31.45,16.64-1.3,52.81-1.5,58.94,11.18,31.94-17.6,99-5.62,107.38,21.21,19.9-11.08,46.69-11,61.37,3.56a2.79,2.79,0,0,0,.82-.49c12.53-13.54,38-22.4,58.83-8.24,21.21-32.45,114.64-44.36,139.44-6.62,31.63-25.42,87.61-3,95.63,22.3,20.43-12.29,46-22.38,77.45-19.16,23.27,2.39,54,19.69,51.13,32.31,9.94-19.84,41.46-14.45,65.79-4-.31-11.44,23.73-24.85,40.21-30,20.14-6.32,35.83-2.1,56.39,1,17-35.67,83.92-40,121.89-14.62,11.41-18.8,56.87-1,71.8,6.93,12.74-18.34,37.57-40.74,73.07-25.41,6.7-8.35,22-25.76,41.37-19C1562.15,578.31,1579.89,573.32,1600,572.51Z"/></g></svg>