<svg id="Livello_1" data-name="Livello 1" xmlns="http://www.w3.org/2000/svg" viewBox="0 0 2436 1125"><defs><style>.cls-1{fill:#e67582;}.cls-2{fill:#658088;}.cls-3{fill:#fff;}.cls-4{fill:#ffd95e;}.cls-5{fill:#f9efda;}.cls-6{fill:#298aab;}.cls-7{fill:#ffe89e;}.cls-8{fill:#1d6178;}</style></defs><title>Grafiche web</title><path class="cls-1" d="M1876.5,0c0-.61-1125,.93-1125,0V784c399.5-294.93,861-545,1125-255Z"/><path class="cls-2" d="M1879.5,1125H751.5V770c291-208,825-582,1125-255Z"/><path class="cls-3" d="M1072,663.81c-47.33,8.6-92.81,5.11-132.11-10.06A139.59,139.59,0,0,1,932,665.93c-17.71,24.61-43.15,43.26-75.62,55.43-2.14.8-4.27,1.56-6.43,2.29-82.64,28-187.07,7.52-210.82-21.37l5.58-4.59c11,13.38,43,25.09,81.64,29.83,26.17,3.21,77.52,5.81,127.49-12.93,28.12-10.54,59.26-29.51,79.2-63.61l-.83-.36a196.45,196.45,0,0,1-60.64-41.21c-18.86-18.78-34.66-41.95-47-68.87-11.55-25.26-16.79-48.82-15.58-70,1.08-19,7.4-35.17,18.29-46.82a54.7,54.7,0,0,1,28.29-16.25,59.33,59.33,0,0,1,33.66,2.8c19.21,7.26,35.91,23.3,48.31,46.39,14.3,26.66,22.16,61.07,23.37,102.29,1,33.85-5,63.55-17.7,88.57,49.7,18.68,99.57,14.28,127.43,9.22,106.42-19.35,197.21-95.69,202.38-170.18l7.21.5c-2.68,38.57-26.42,78.25-66.85,111.74a299.2,299.2,0,0,1-65.19,40.75,324.4,324.4,0,0,1-32.2,12.88A311.49,311.49,0,0,1,1072,663.81ZM832.62,428.62c-21.53,23-22.06,63.76-1.41,108.91,26.83,58.68,65.67,90.63,105.27,107.25,11.44-22.13,18.3-50.17,17.26-85.66C952.57,519,945,485.7,931.23,460c-11.56-21.53-26.94-36.42-44.49-43.05-11.89-4.48-23.85-4.78-34.5-1.17A47.69,47.69,0,0,0,832.62,428.62Z"/><path class="cls-4" d="M1342.09,276.35c73,21.71,82.7,122.33,15.2,158.22a57.31,57.31,0,0,0-26.27,30.1l-17,44.07a25,25,0,0,1-30.41,14.93l-27.65-8.23a25,25,0,0,1-17.31-29.12c9.87-46.48,16.88-62.9,4.26-85.79C1206,333.58,1269.1,254.64,1342.09,276.35Z"/><path class="cls-5" d="M1305.31,473.24c9.34-37.21,21-77.8,25.93-92.84a115.52,115.52,0,0,1-38.74-16.55c-6.22,31.2-13.32,62.52-21.14,93.26l-4-1c7.94-31.25,15.15-63.09,21.45-94.8-7-5.06-15-11.4-16.81-19.7a15,15,0,0,1,2.32-11.61c6.13-8.72,18-4.56,20.92,5.56,2,6.7,0,14.1-1.9,23.93a111,111,0,0,0,39.2,17c2.73-7.53,6.28-14.27,12.56-18.78,22-15.81,32.56,31.28-9.86,23.51-3.84,11.76-16,53.38-26,93Zm42.21-112.19c-5.26,3.78-8.42,9.63-10.89,16.26,9.23,1.6,15.82.61,20.13-3C1364,368.25,1359.37,352.54,1347.52,361.05Zm-65.24-31.67c-4.69.59-7.3,6.66-6.26,11.33,1.49,6.66,8,11.9,13.69,16.14,1.53-7.79,3.29-14.51,1.63-20.15C1290.18,332.75,1282.79,329.32,1282.28,329.38Z"/><path class="cls-6" d="M1331.49,463.59c-.15.36-.33.71-.47,1.08l-17,44.07a25,25,0,0,1-30.41,14.93l-27.65-8.23a25,25,0,0,1-17.31-29.12c4.39-20.68,8.21-35.4,10-47.39Z"/><path class="cls-7" d="M1395.7,255.78l27.43-37.85a8.19,8.19,0,1,0-13.26-9.62l-27.44,37.85a8.2,8.2,0,1,0,13.27,9.62Z"/><path class="cls-7" d="M1437.88,354l49.11,1.91a8.19,8.19,0,0,0,.63-16.37l-49.11-1.91a8.19,8.19,0,1,0-.63,16.37Z"/><path class="cls-7" d="M1467.16,509a8.18,8.18,0,0,0,1.39-11.5,267.6,267.6,0,0,0-35-36.79,8.19,8.19,0,0,0-10.75,12.37,251.25,251.25,0,0,1,32.85,34.53A8.19,8.19,0,0,0,1467.16,509Z"/><path class="cls-7" d="M1291.54,238.73a8.19,8.19,0,0,0,7-9.22,310.86,310.86,0,0,1-2-64.39,8.19,8.19,0,0,0-16.34-1.18,328.15,328.15,0,0,0,2.12,67.77A8.19,8.19,0,0,0,1291.54,238.73Z"/><path class="cls-7" d="M1224,288.07a8.2,8.2,0,0,0-4.16-10.82l-48.57-21.62a8.19,8.19,0,0,0-6.66,15l48.57,21.62A8.19,8.19,0,0,0,1224,288.07Z"/><path class="cls-7" d="M1124,411.93a8.41,8.41,0,0,0,2.24,0A256.94,256.94,0,0,0,1179.35,398a8.19,8.19,0,1,0-5.81-15.32,240.81,240.81,0,0,1-49.75,13,8.19,8.19,0,0,0,.18,16.23Z"/><polygon class="cls-8" points="626.47 695.69 642.56 709.73 653.38 701.1 643.64 681.99 626.47 695.69"/><path class="cls-3" d="M539.18,628.39,565,660.73l9.21-7.34L548.39,621a5.89,5.89,0,0,0-8.28-.93h0A5.89,5.89,0,0,0,539.18,628.39Z"/><path class="cls-6" d="M634.22,605.11l28.88,36.2a24.36,24.36,0,0,1-3.84,34.23l-42.55,34a24.35,24.35,0,0,1-34.22-3.85l-28.89-36.2Z"/><path class="cls-3" d="M589.27,588.63,615.08,621l9.21-7.35-25.81-32.34a5.89,5.89,0,0,0-8.28-.93h0A5.88,5.88,0,0,0,589.27,588.63Z"/><rect class="cls-8" x="589.62" y="583.24" width="16.23" height="114.59" rx="4.38" transform="translate(469.87 1507.27) rotate(-128.59)"/></svg>