<svg xmlns="http://www.w3.org/2000/svg" viewBox="0 0 1598.05 538.02"><defs><style>.cls-1{fill:#92d5e2;}.cls-2{fill:#9ed7f5;}.cls-3{fill:#75abb6;}</style></defs><g id="Livello_2" data-name="Livello 2"><g id="Livello_1-2" data-name="Livello 1"><path class="cls-1" d="M869,117,659.14,538H0V284.89c11.83-17.74,24.12-34.61,35.2-54C48.49,207.63,63.52,184.76,79,168.55c.19.48.39.95.61,1.42,4.88,10.65,17.06,19.58,23.09,26.94,8.36,10.21,15.07,14.5,24.62,18.27,17.61,6.95,32.87,28.44,49.13,44.33,16.83,16.46,32.36,39,49.07,56.89a21.42,21.42,0,0,0,9.16,6.21c10.1,3.17,20.12-4.83,31.09-11.74,12.87-8.1,23.92-25.05,36.26-36.34,16.81-15.37,34.17-29.83,49.93-48.12,28-32.48,52.3-76.6,80.2-109.11,17.21-20,34.59-41.68,52.6-59.31,14.76-14.44,29.86-26.75,45-39.66,3.63-3.1,8-9.08,12.19-13.37l0,0c2.92-3,5.73-5.16,8.09-4.91,7.65.79,23.58,28.34,31.76,36.91,18.11,19,32.18,38.65,52.64,48.94,21.24,10.68,35.23,38.28,54.28,57.82C703.8,159.2,719,175.74,734.43,190.2c9.44,8.85,19.21,24.72,29.27,23.28,5.22-.74,10.41-4.29,15.55-9.13l.17-.17c10.3-9.73,20.39-24.61,30.06-32.57C830.52,154.28,848.41,135,869,117Z"/><path class="cls-2" d="M176.41,259.51c-16.26-15.89-31.52-37.38-49.13-44.33-9.55-3.77-16.26-8.06-24.62-18.27-4.46-5.43-12.24-11.72-18-18.92,5.82,15.86,15.63,21.4,23.21,33.85,5.5,9,9.81,9.62,16.33,13.45,7.26,4.27,8.22,13.44,13.62,21.52s13.5,5.63,19.44,10.09c2.85,2.14,7.62,6.26,9.88,10.34,2.92,5.27,3.06,12.9,6.74,17.31,5.78,6.94,13.83,4.17,19.79,11.41s8.09,13.61,15.44,15.41c5.19,1.26,10.65,4.05,16,4.64C208.55,298.18,193.12,275.85,176.41,259.51Z"/><path class="cls-3" d="M1598.05,281.57l0,.45V538H0V284.46a1.88,1.88,0,0,1,.32-1c11.73-17.56,23.9-34.31,34.88-53.53,13-22.7,27.6-45,42.66-61.16a1.05,1.05,0,0,1,1.72.28,0,0,0,0,1,0,0,1,1,0,0,1,0,.85l0,.1a251.87,251.87,0,0,0-11.34,32.22,2,2,0,0,0,.37,1.74c10.41,13.22-5.87,28.51-9.24,39.91-4.93,16.72,1.68,20.43-.47,37-2.22,17-13.2,29.62-16.19,47.5-3.79,22.73.67,32.62,7.54,51.44,23.61,64.68,61.61,88.7,100.88,64.94,12.8-7.74,26.3-17.48,33.38-40.42,4.68-15.19,5.05-36.77,10.55-49.85,7.76-18.43,26.15-24.39,39.59-31.8.22-.11.43-.23.64-.35a1.84,1.84,0,0,1,1.24-.2c9.47,1.72,18.92-5.71,29.21-12.19,12.87-8.1,23.92-25.05,36.26-36.34,16.81-15.37,34.17-29.83,49.93-48.12,28-32.48,52.3-76.6,80.2-109.11,17.21-20,34.59-41.68,52.6-59.31,14.76-14.44,29.86-26.75,45-39.66,3.75-3.2,8.08-8.69,12.19-12.37l0,0c2.64-2.35,5.18-4,7.43-3.73,0,0,0,0,0,0a1.87,1.87,0,0,1,1.44,2.62c-4.78,10.91-9.72,21.73-13.75,33.78-7.42,22.15-26.51,50.72-29.36,76.12-1.63,14.53,3.54,27.87,1.44,44.05-2.34,18-10.18,33.8-16.69,47-8.91,18.07-20.24,30.26-30.72,44.28-3.47,4.64-17.79,19.95-17.48,27.78.35,8.59,7,9.81,9.2,17.83,6.66,24.16-5.45,26.64-6.88,44.82-1.95,24.77,17.3,25,28.24,26.93,7.29,1.29,29.23-10.32,35.25-2.44,5.75,7.53,2.21,14-1.23,25.61a1.93,1.93,0,0,0,1.05,2.29c9.25,4.27,24.29-10.25,32.71-16.57,21.49-16.14,44.24-32.95,66.79-41.68,26.45-10.23,49.38,16.69,75.21,23.46,14.83,3.89,54.17,7.8,55.8-37.38.92-25.48-16.91-27.58-15.12-49.61,2-24.45,24.89-39.63,37.56-54.87a.77.77,0,0,1,.45-.26c5.25-1.07,10.62-5.19,16-10.62l.17-.17c10.36-10.53,20.69-25.86,30.06-33.57,20-16.45,38.51-36,57.95-53.31a4.38,4.38,0,0,1,5.39-.34C894.26,131.65,1033,223.23,1057.7,247c32.3,31,47.18,29.23,64.3,27,31-4,131-48,170.09-96,19.6-24.1,106.88-90.47,120.91-91,28-1,129,127,135,137C1553.82,233.72,1595,279.3,1598.05,281.57Z"/><path class="cls-1" d="M1401,128c-1.12,22.32,19.71,40.61,20.27,62.95.32,12.37-5.83,26,.86,36.4,3.67,5.7,10.37,8.72,14.73,13.91,9.67,11.51,5.05,28.78.13,43-5.94,17.11-11.71,35-9.48,53s14.85,36,32.8,38.36c4.36.59,8.84.24,13.16,1.09,11.69,2.29,19.81,12.51,28.63,20.52s22.28,14.33,32.2,7.74c7.56-5,9.76-15.65,17.23-20.81,9.63-6.64,24.16-1.69,33.51-8.73,7.23-5.45,8.34-15.94,6.94-24.88s-4.65-17.79-3.78-26.8c1-9.68,6.61-18.59,6.61-28.32,0-14.16-7.72-26.44-17.81-36.39-14-13.78-30.54-27.63-41.7-43.78-15.06-21.79-27.61-45.79-47-63.81-7.36-6.84-12.45-14-19.28-21.41-8.77-9.48-20-20.85-30-29C1407,75,1403,88,1401,128Z"/><path class="cls-1" d="M866,135c-2.26,5.66-6.63,6.47-8.33,11.64-2.52,7.68,2,15.65,5.07,23.12A69.49,69.49,0,0,1,866.4,211a18.15,18.15,0,0,0,1.43,12.15c3.79,7.5,9.21,4,13.87,5.37,8.3,2.48,8.07,9.51,8.64,16,1.53,17.27,3,35.06-2.12,51.62-4.19,13.54-12.8,27.12-9.05,40.79S897.52,358,911,362.65s28.36,8.9,36.37,20.63c3.65,5.33,6,12.27,11.91,14.85,3.63,1.58,7.78,1.09,11.69.51,22.48-3.3,45.5-8.22,67.65-3.14,8.16,1.88,16.63,5.09,24.66,2.71,10-3,15.55-13.39,23.82-19.72,8.9-6.82,20.6-8.64,30.51-13.87S1136,347.51,1131,337.48c-2.69-5.39-9-10-7.37-15.83,1.14-4.06,5.73-6,8.16-9.48,5.94-8.44-3.28-19.24-11.92-24.88-11.8-7.7-24.91-12.88-36.9-20.27a104.83,104.83,0,0,1-14-10c-6-5-11.77-9.44-17-14-49.35-43.05-105.81-79.33-160.67-115.1-3.85-2.51-12.79-8-16.93-10.59a6.94,6.94,0,0,0-10.64,5.41C863.59,126,868,130,866,135Z"/><path class="cls-2" d="M1041.52,226.41c-18.74-13.39-39.09-27.57-56.11-36.82C977,185,973,182,961,174c-5.9-3.94-22-17-24.07-15.11,8.12,14.85,18.86,18.93,28.3,30.16,6.84,8.14,11.31,8.11,18.47,11,8,3.18,10.22,12.12,16.83,19.33s14.52,3.64,21.17,7.2c3.2,1.71,8.62,5.1,11.48,8.82,3.7,4.79,4.91,12.31,9.26,16.15,6.84,6,14.64,2.15,21.71,8.46s10.11,12.3,17.83,13c5.45.51,11.39,2.49,16.91,2.31C1079.57,260.05,1060.78,240.18,1041.52,226.41Z"/><path class="cls-2" d="M1550,219.62c-12.86-14.85-27-30.6-38-41.6-5.74-5.74-7.66-10-16-19-4.1-4.44-15-18.24-17-17,4,14.17,9.83,20.48,15.5,31.8,4.12,8.21,7.76,9,13.08,12.73,5.93,4.17,6.16,12.22,10.25,19.58s11.18,5.76,16,10c2.3,2,6.11,5.93,7.77,9.63,2.16,4.76,1.79,11.41,4.65,15.49,4.49,6.4,11.54,4.5,16.17,11.18s6,12.35,12.19,14.37c4.35,1.43,8.84,4.2,13.37,5.05C1574.94,255.3,1563.19,234.89,1550,219.62Z"/></g></g></svg>