<svg xmlns="http://www.w3.org/2000/svg" viewBox="0 0 1600 409"><defs><style>.cls-1{fill:#578089;}.cls-2{fill:#bfe6ee;}.cls-3{fill:#fff;}</style></defs><g id="Livello_2" data-name="Livello 2"><g id="campeggio"><rect class="cls-1" width="1600" height="409"/><path class="cls-2" d="M.2,159.07c5-3.14,225.16-81.29,340-90.78,264.48-21.84,488,108.51,734.37,178.07,89.62,25.29,198.6,34.52,289.67,15.55,94-19.59,162.93-73.76,235.72-126.3V.34H.2Z"/><path class="cls-3" d="M1180.52,252c-59.56,11.65,18.61,35.15,41.16,37.35,38,3.7,75.91-.82,113.9-.82,47,0,135.46,19.34,175.6-7.25,2.15-13.23-10.06-16.5-19.92-13.71,15.74-24.37-12-37.76-31.85-27.22.7-32.32-15-41-41.55-16.55,4.48-43.19-46.39-87.81-89-72.88-30.41,10.64-48.84,51.66-47.73,82.12-13.6-31.91-57.78-17.43-48.39,11.81-18.92-26.05-54.65-31.88-49.54,9.17C1188.21,253.82,1190.94,250,1180.52,252Z"/><path class="cls-3" d="M943.87,367.25c-41.37,8.1,12.93,24.42,28.6,25.94,26.38,2.57,52.72-.57,79.11-.57,32.62,0,94.08,13.44,122-5,1.49-9.19-7-11.46-13.84-9.53,10.93-16.92-8.33-26.22-22.12-18.9.49-22.45-10.4-28.5-28.86-11.5,3.11-30-32.22-61-61.85-50.62-21.12,7.39-33.92,35.88-33.15,57-9.45-22.17-40.14-12.1-33.62,8.2-13.14-18.09-38-22.14-34.41,6.38C949.22,368.5,951.11,365.83,943.87,367.25Z"/><path class="cls-3" d="M85.87,220.25c-41.37,8.1,12.93,24.42,28.6,25.94,26.38,2.57,52.72-.57,79.11-.57,32.62,0,94.08,13.44,122-5,1.49-9.19-7-11.46-13.84-9.53,10.93-16.92-8.33-26.22-22.12-18.9.49-22.45-10.4-28.5-28.86-11.5,3.11-30-32.22-61-61.85-50.62-21.12,7.39-33.92,35.88-33.15,57-9.45-22.17-40.14-12.1-33.62,8.2-13.14-18.09-38-22.14-34.41,6.38C91.22,221.5,93.11,218.83,85.87,220.25Z"/></g></g></svg>