<svg xmlns="http://www.w3.org/2000/svg" viewBox="0 0 1600.16 593.42"><defs><style>.cls-1{fill:#fff;}.cls-2{fill:#37545a;}.cls-3{fill:#ffa700;}</style></defs><g id="Livello_2" data-name="Livello 2"><g id="Fiori"><path class="cls-1" d="M1600.16,0c-20.05,1.48-37.74,9.2-42.4,30-19.47-9.91-34.57,16.38-41.19,29-35.64-22.46-60.26,11.44-72.83,39.09-15-11.68-60.64-37.68-71.88-9.37-38.2-37.54-105.13-30-121.76,23.62-20.58-4.35-36.31-10.44-56.39-.71-16.44,8-40.35,28.39-39.94,45.53-24.43-15.28-56-22.91-65.75,6.94,2.77-18.94-28.15-44.43-51.44-47.67-31.47-4.39-57,11.08-77.28,29.79-8.25-37.8-64.44-70.58-95.84-32.07C838.3,57.92,745,77.07,724.08,126c-20.94-20.9-46.35-7.27-58.75,13.18a3,3,0,0,1-.82.74c-14.83-21.53-41.62-21.34-61.41-4.46-8.67-40.07-75.81-57.07-107.59-30.26-6.24-18.92-42.41-18.1-59.05-15.93-33.14,4.33-54.92,17.68-61.19,48-26.22-21.24-76-27.64-87.52,12C277.08,137.67,253,134,242.6,147.41c-5.86-13.49-29.34-21.85-40.56-10.33-12.47-19.71-42-51.76-70.61-32.36-6.56-33.21-47.25-70.22-80.17-39C40,40,20.76,32.14,0,34.76V520.31c647.18-216,854.84,147,1600.16,0Z"/><path class="cls-2" d="M1431,392.86a6.27,6.27,0,0,0-2.78-1.76,18.7,18.7,0,0,0-3.23-.75,39.69,39.69,0,0,0-6.63-.39,92.28,92.28,0,0,0-13.28,1.17,121.74,121.74,0,0,0-13,2.76,120.25,120.25,0,0,0-12.56,4.07c-8.14,3.19-15.92,7.27-22.31,12.77A43.2,43.2,0,0,0,1349,420a34.65,34.65,0,0,0-4.68,11.13l-4.32,19L1336.67,431a38.05,38.05,0,0,0-18.8-27.81,58.11,58.11,0,0,0-8.1-4c-1.41-.58-2.86-1.08-4.31-1.56l-2.2-.71-2.23-.63a99.11,99.11,0,0,0-18.53-3,61.78,61.78,0,0,1,9.53-.78,70.59,70.59,0,0,1,9.62.52c1.6.2,3.21.44,4.81.73s3.18.69,4.75,1.14a58,58,0,0,1,9.3,3.4,46.81,46.81,0,0,1,8.56,5.33c.65.55,1.34,1.05,2,1.64l1.87,1.76a40.59,40.59,0,0,1,3.36,3.92,44.69,44.69,0,0,1,2.89,4.29l1.19,2.3a20.68,20.68,0,0,1,1.07,2.35,48.13,48.13,0,0,1,2.92,9.82l-7.64-.12a39.91,39.91,0,0,1,5.59-13.88,48.63,48.63,0,0,1,9.82-11,75.48,75.48,0,0,1,25.14-13.18,103.38,103.38,0,0,1,27.43-4.74,77.58,77.58,0,0,1,13.87.65,40.81,40.81,0,0,1,6.79,1.59,17.69,17.69,0,0,1,3.2,1.44A6.19,6.19,0,0,1,1431,392.86Z"/><path class="cls-3" d="M1600.16,436.48c-5,.76-9.69,1.43-14.11,2C1483.38,451,1375,456,1260.05,458.32c-264.54,5.26-488.13-26.1-734.54-42.84-89.64-6.09-198.65-8.31-289.73-3.74-94,4.71-163,17.75-235.78,30.39V593.42H1600.16Z"/><path class="cls-2" d="M1466.15,435.19a6.08,6.08,0,0,0-3.77-1.29,26.33,26.33,0,0,0-4.07,0,62.59,62.59,0,0,0-8.07,1.09,82.3,82.3,0,0,0-15.43,4.6,48.13,48.13,0,0,0-13.23,7.8,22.08,22.08,0,0,0-7.47,11.71l-4.44,19.12-3.2-19.24a22.75,22.75,0,0,0-10.64-16.47,41.59,41.59,0,0,0-10-4.57,67.85,67.85,0,0,0-11.31-2.51,34.34,34.34,0,0,1,5.91-.83,40.48,40.48,0,0,1,6,0,36.62,36.62,0,0,1,12,3,28.16,28.16,0,0,1,5.57,3.3,27,27,0,0,1,2.52,2.15,26.54,26.54,0,0,1,2.22,2.51,29.66,29.66,0,0,1,1.92,2.77,31,31,0,0,1,1.49,3,29.56,29.56,0,0,1,2,6.34l-7.64-.12a25.58,25.58,0,0,1,3.62-9.09,31.22,31.22,0,0,1,6.37-7.1,46.27,46.27,0,0,1,16.06-8.22,61.78,61.78,0,0,1,17.28-2.54,46.07,46.07,0,0,1,8.68.76,26.06,26.06,0,0,1,4.22,1.22,10.51,10.51,0,0,1,2,1A3.83,3.83,0,0,1,1466.15,435.19Z"/></g></g></svg>