<svg xmlns="http://www.w3.org/2000/svg" viewBox="0 0 1400.87 331.8"><defs><style>.cls-1{fill:#3d7f31;}.cls-2{fill:#fff;}.cls-3{fill:#fabd28;}.cls-4{fill:#78b076;}.cls-5{fill:#2a436c;}.cls-6{fill:#0e2446;}.cls-7{fill:#64a663;}.cls-8{fill:#357366;}.cls-9{fill:#ff9019;}.cls-10{fill:#0b6052;}.cls-11{fill:#f9b800;}.cls-12{fill:#ff9300;}.cls-13{fill:#006830;}</style></defs><g id="Livello_2" data-name="Livello 2"><g id="Livello_1-2" data-name="Livello 1"><path class="cls-1" d="M65.39,159.62a1.17,1.17,0,0,0-.4-.37,1.71,1.71,0,0,0-1.16-.46l-.42,0c-.06,0-.48-.08-.28,0s-.53-.07-.65-.07h-.42a8,8,0,0,0-.85,0,16,16,0,0,0-2.07.25,3.36,3.36,0,0,0-1.11.36,1.27,1.27,0,0,0-.13.11l0-.08c.07-.31.14-.62.22-.93a8.19,8.19,0,0,1,.23-.85l.15-.42h0v0c.17-.39.3-.78.45-1.17.06-.17.06-.17,0-.13a2.23,2.23,0,0,0,.15-.51h0a4.08,4.08,0,0,0,.29-1.24.58.58,0,0,1,.05-.16c.24-.59-.45-1.07-1-1l-.05,0-.22,0a1.62,1.62,0,0,0-.53.11,4.89,4.89,0,0,0-.82.34A4.77,4.77,0,0,0,55,155a9.25,9.25,0,0,0-1,1.71,8.58,8.58,0,0,0-.52,1.71,13.78,13.78,0,0,0-1.73-1.69,6.86,6.86,0,0,0-1.09-.76,4.19,4.19,0,0,0-1.28-.53H49.3l-.19-.08a1.7,1.7,0,0,0-.45-.08h0a6,6,0,0,0-1-.14.8.8,0,0,0-.68,1.19,3.21,3.21,0,0,0,.43.69c0,.06,0,0,0,0s0-.1,0,.08a1.68,1.68,0,0,0,.27.45,1.47,1.47,0,0,0,.19.4l.19.24,0,0,.37.52c.3.42.65.8,1,1.2s.47.65.69,1,.26.37.39.55a7.69,7.69,0,0,0,.73,1,2.06,2.06,0,0,0,2,.54,5.65,5.65,0,0,0,.65-.31,2.12,2.12,0,0,0,1.91.75,2.21,2.21,0,0,0,1.77-1.51,1.72,1.72,0,0,0,.68.5,2.82,2.82,0,0,0,1.32.17,15.38,15.38,0,0,0,2.13-.3,7.18,7.18,0,0,0,1.87-.55l.16-.08.4-.15a2.76,2.76,0,0,0,.72-.33,1.45,1.45,0,0,0,.35-.44,1.09,1.09,0,0,0,.27-.44A.35.35,0,0,0,65.39,159.62Z"/><path class="cls-1" d="M63.6,161.72h0C63.48,161.78,63.42,161.81,63.6,161.72Z"/><path class="cls-2" d="M426.11,201.72a2.46,2.46,0,0,0-.38-1.2,6,6,0,0,0-2-2,7.22,7.22,0,0,0-1.82-.86h0c.34-.42.67-.85,1-1.28a5.32,5.32,0,0,0,1.14-1.78,5.26,5.26,0,0,0,.13-1,1.61,1.61,0,0,0,0-.38,2.74,2.74,0,0,0-.75-1.82,2.49,2.49,0,0,0-1.81-.75,5.08,5.08,0,0,0-1,.17c-.29.11-.6.22-.88.36a4.34,4.34,0,0,0-1.45,1.5l-.78,1a3.15,3.15,0,0,0-.61-.78,6.9,6.9,0,0,0-1.12-.87,3.81,3.81,0,0,0-3.77,0,3.73,3.73,0,0,0-1.85,3.23,4.74,4.74,0,0,0,.57,2.39c.09.17.19.32.29.48l.36.52c.09.12.18.26.28.41l-.68.13c-.46.1-.91.26-1.37.37l-.73.16a3.35,3.35,0,0,0-1.21.6,3.44,3.44,0,0,0-1.17,1.72,3.1,3.1,0,0,0,.8,3,3.38,3.38,0,0,0,1.46.88,3.44,3.44,0,0,0,1.83,0l.72-.16a11.69,11.69,0,0,0,1.43-.41,4.77,4.77,0,0,0,.52-.22c0,.26-.08.52-.11.78a4.42,4.42,0,0,0,.4,3.07,3,3,0,0,0,2.22,1.46,3,3,0,0,0,2.56-.84,4.7,4.7,0,0,0,1.14-3.13c0-.44.1-.88.11-1.32l0-1.32c0-.06,0-.11,0-.17l.07,0-.07,0v0a7.89,7.89,0,0,0,.65.49l.32.23c.18.14.35.28.52.39a6.18,6.18,0,0,0,1,.41l.86.11.85-.11.77-.33a2.45,2.45,0,0,0,.9-.82,3.22,3.22,0,0,0,.63-1.52A1.75,1.75,0,0,0,426.11,201.72Z"/><path class="cls-3" d="M416.46,196.59c-4,0-4,6.23,0,6.23S420.48,196.59,416.46,196.59Z"/><path class="cls-2" d="M441.19,222.72a2.46,2.46,0,0,0-.38-1.19,6,6,0,0,0-2-2,7.55,7.55,0,0,0-1.82-.85h0l1-1.28a5.42,5.42,0,0,0,1.14-1.78,5.49,5.49,0,0,0,.13-1,2.55,2.55,0,0,0,0-.39,2.74,2.74,0,0,0-.76-1.81,2.44,2.44,0,0,0-1.81-.75,4.39,4.39,0,0,0-1,.17c-.29.11-.6.22-.88.36a4.34,4.34,0,0,0-1.45,1.5l-.78,1A3.29,3.29,0,0,0,432,214a6.83,6.83,0,0,0-1.12-.86,3.81,3.81,0,0,0-3.77,0,3.74,3.74,0,0,0-1.34,1.34,3.66,3.66,0,0,0-.51,1.88,4.69,4.69,0,0,0,.58,2.4,4.48,4.48,0,0,0,.28.47l.36.53.28.4-.68.14c-.46.1-.91.25-1.37.37l-.73.16a3.06,3.06,0,0,0-1.21.6,3.5,3.5,0,0,0-1.17,1.72,3.11,3.11,0,0,0,.8,3,3.36,3.36,0,0,0,1.46.87,3.55,3.55,0,0,0,1.83,0l.73-.17a10,10,0,0,0,1.42-.4l.52-.22c0,.26-.08.52-.1.78a4.37,4.37,0,0,0,.39,3.07,3,3,0,0,0,2.23,1.45,3,3,0,0,0,2.55-.84,4.66,4.66,0,0,0,1.14-3.12c.05-.44.1-.88.11-1.32l0-1.33s0-.11,0-.16l.07,0-.07,0h0c.22.16.42.33.65.48l.33.23a3.46,3.46,0,0,0,.51.39,6.18,6.18,0,0,0,1,.41l.86.12.85-.12.77-.32a2.47,2.47,0,0,0,.9-.83,1.61,1.61,0,0,0,.41-.7,1.64,1.64,0,0,0,.22-.81A1.57,1.57,0,0,0,441.19,222.72Z"/><path class="cls-3" d="M431.54,217.6c-4,0-4,6.22,0,6.22S435.56,217.6,431.54,217.6Z"/><path class="cls-2" d="M450.88,194.72a2.36,2.36,0,0,0-.38-1.2,5.83,5.83,0,0,0-2-2,7.07,7.07,0,0,0-1.82-.86h0l1-1.28a5.29,5.29,0,0,0,1.13-1.78,6.61,6.61,0,0,0,.14-1,1.63,1.63,0,0,0,0-.38,2.74,2.74,0,0,0-.75-1.82,2.45,2.45,0,0,0-1.81-.75,5.08,5.08,0,0,0-1,.17,8.53,8.53,0,0,0-.88.36,4.46,4.46,0,0,0-1.46,1.5l-.78,1a3.11,3.11,0,0,0-.6-.79,7,7,0,0,0-1.13-.86,3.81,3.81,0,0,0-3.77,0,3.74,3.74,0,0,0-1.34,1.34,3.67,3.67,0,0,0-.51,1.89,4.65,4.65,0,0,0,.58,2.39c.09.16.19.32.29.48l.35.52.29.4-.68.14c-.46.1-.91.26-1.38.37l-.72.16a3.27,3.27,0,0,0-1.21.6,3.44,3.44,0,0,0-1.17,1.72,3.09,3.09,0,0,0,.8,3,3.48,3.48,0,0,0,1.46.88,3.55,3.55,0,0,0,1.83,0l.72-.16a11.69,11.69,0,0,0,1.43-.41l.52-.22c0,.26-.08.52-.11.78a4.36,4.36,0,0,0,.4,3.07,3.1,3.1,0,0,0,4.78.62,4.64,4.64,0,0,0,1.13-3.13c.05-.44.1-.88.12-1.32l0-1.32v-.17l.06,0-.06-.06h0a7.79,7.79,0,0,0,.65.48l.32.24a4.28,4.28,0,0,0,.52.38,5.87,5.87,0,0,0,1,.42l.85.11.86-.11.76-.33a2.3,2.3,0,0,0,.9-.82,3.2,3.2,0,0,0,.63-2.37Z"/><path class="cls-3" d="M441.24,189.59c-4,0-4,6.23,0,6.23S445.25,189.59,441.24,189.59Z"/><path class="cls-4" d="M32.94,247.35q2.82-30.51,3.68-61.16c.56-20.41.5-40.84-.5-61.22-.08-1.79-.57-1.78-.54,0,.45,20.38-.18,40.76-1.4,61.1s-3.08,40.62-5.4,60.83C27.13,260.75,31.6,261.31,32.94,247.35Z"/><path class="cls-5" d="M46.24,92.6a12.09,12.09,0,0,0-18.72,1.59A40.82,40.82,0,0,0,25,136.51c2.47,4.68,6.63,9.26,11.92,9.22,7.58-.07,5.28,3.72,12.31-10.33,4.08-8.16,6.32-17.46,5-26.49A29.15,29.15,0,0,0,46.24,92.6Z"/><path class="cls-6" d="M33,94.58c-8.9,12.93-11,30.24-5.59,43.61A82.41,82.41,0,0,1,33,94.58Z"/><path class="cls-6" d="M35.47,94.92c-2.15,7.64-4.31,15.32-5.33,23.19s-.87,16,1.77,23.24C31,126.6,32.16,111.72,35.47,94.92Z"/><path class="cls-6" d="M38.38,94.21q-1.55,23.52-3.1,47Q41.94,119.29,38.38,94.21Z"/><path class="cls-6" d="M40.76,94.79a167.44,167.44,0,0,1-1,44.44C46.62,125.52,47.45,108.9,40.76,94.79Z"/><path class="cls-6" d="M43.14,95.85a94,94,0,0,1,1.43,43c3-7,5.31-14.34,5.45-21.91S48,101.52,43.14,95.85Z"/><path class="cls-5" d="M36.59,91.53c-3.47-.91-7.45-9-7.45-9l4.75,3.41c-.72-3.39.79-10.23.79-10.23s2,5.73,2.26,8.75c.74-2.88,5.18-7,5.18-7s-.64,6-1,8.93c1.31-2.78,6.78-5.83,6.78-5.83S42.74,93.14,36.59,91.53Z"/><path class="cls-7" d="M35.72,148c-8.88-1.63-14.15-12-16.19-20.8a4.27,4.27,0,0,1-.13-1.94,1.65,1.65,0,0,1,1.27-1.33c.95-.14,1.67.79,2.16,1.62,1.47,2.49,2.83,5.06,4.06,7.68a24.14,24.14,0,0,1-1.39-12,3.47,3.47,0,0,1,.47-1.51,1.33,1.33,0,0,1,1.36-.63c.58.15.89.76,1.13,1.31a73.32,73.32,0,0,1,4,12.25c-.51-4.5-1-9.31,1.12-13.32.29-.57.79-1.19,1.42-1.08s.88.82,1,1.43c1,4.16,1.68,8.39,2.32,12.78a22.77,22.77,0,0,1,3.74-11.89c.45-.69,1.24-1.43,2-1.06.54.27.65,1,.68,1.57a51.39,51.39,0,0,1-1.06,12.44,36.26,36.26,0,0,1,4.51-10.85c.3-.48.72-1,1.28-1a1.12,1.12,0,0,1,.92.76,3,3,0,0,1,.11,1.24A35.17,35.17,0,0,1,48.64,133q1.5-3.07,3-6.13a2.82,2.82,0,0,1,.72-1,1,1,0,0,1,1.18,0,1.35,1.35,0,0,1,.28,1.13C53.52,131.77,46.4,149.91,35.72,148Z"/><path class="cls-4" d="M34.58,250.76q8.73-20.56,16.11-41.65c4.91-14.05,9.4-28.25,13.22-42.62.34-1.27,0-1.36-.38-.11C59.32,180.63,54.37,194.65,49,208.5s-11.14,27.52-17.23,41C27.58,258.78,30.56,260.16,34.58,250.76Z"/><path class="cls-5" d="M78.11,146.26a8.82,8.82,0,0,0-13.36-3A29.74,29.74,0,0,0,53.63,172c.68,3.79,2.55,7.9,6.23,9,5.28,1.63,2.85,3.75,10.84-4.45,4.64-4.76,8.26-10.72,9.34-17.28A21.24,21.24,0,0,0,78.11,146.26Z"/><path class="cls-6" d="M68.46,144.69c-9,7-14.37,18.55-13.53,29.05A60.09,60.09,0,0,1,68.46,144.69Z"/><path class="cls-6" d="M70.11,145.48a119.85,119.85,0,0,0-8.83,14.92c-2.45,5.24-4.15,10.93-3.92,16.53A129.6,129.6,0,0,1,70.11,145.48Z"/><path class="cls-6" d="M72.3,145.63q-6.3,16-12.58,32A78.49,78.49,0,0,0,72.3,145.63Z"/><path class="cls-6" d="M73.82,146.56a122.12,122.12,0,0,1-10.56,30.63A37.19,37.19,0,0,0,73.82,146.56Z"/><path class="cls-6" d="M75.23,147.83A68.46,68.46,0,0,1,66.71,178c3.61-4.17,6.86-8.77,8.64-14A23.15,23.15,0,0,0,75.23,147.83Z"/><path class="cls-5" d="M71.64,143.37c-2.21-1.4-3.17-7.93-3.17-7.93L71,138.86c.25-2.51,2.81-6.92,2.81-6.92a34.64,34.64,0,0,1-.36,6.57c1.15-1.83,5.14-3.71,5.14-3.71l-2.65,6c1.53-1.63,6-2.54,6-2.54S75.56,145.85,71.64,143.37Z"/><path class="cls-7" d="M58.54,182.36c-5.81-3.1-7.17-11.47-6.64-18a3.23,3.23,0,0,1,.34-1.38,1.24,1.24,0,0,1,1.18-.65c.69.12,1,.93,1.14,1.61.47,2.06.85,4.14,1.12,6.23a17.62,17.62,0,0,1,1.69-8.63,2.75,2.75,0,0,1,.66-.95,1,1,0,0,1,1.09-.13,1.45,1.45,0,0,1,.49,1.16,54.17,54.17,0,0,1,0,9.38c.64-3.23,1.38-6.67,3.72-9,.33-.33.82-.65,1.23-.43s.43.77.39,1.22c-.23,3.11-.69,6.2-1.21,9.39A16.55,16.55,0,0,1,69,164.72c.46-.37,1.18-.72,1.6-.3a1.3,1.3,0,0,1,.12,1.25,37,37,0,0,1-3.49,8.39,26.87,26.87,0,0,1,5.54-6.53c.31-.27.72-.55,1.11-.4a.8.8,0,0,1,.46.73,2.16,2.16,0,0,1-.19.89,25.41,25.41,0,0,1-3.34,6.05l3.45-3.59a2.14,2.14,0,0,1,.74-.56.69.69,0,0,1,.82.23,1,1,0,0,1,0,.85C74.48,175.06,65.52,186.09,58.54,182.36Z"/><path class="cls-4" d="M31.39,249q-3.08-22.12-7.56-44c-3-14.58-6.44-29.07-10.54-43.36-.35-1.26-.7-1.17-.38.1,3.71,14.39,6.65,29,9.17,43.59s4.57,29.34,6.28,44.07C29.5,259.49,32.76,259.14,31.39,249Z"/><path class="cls-5" d="M15.09,137a8.81,8.81,0,0,0-13,4.24A29.79,29.79,0,0,0,0,152.66a30.11,30.11,0,0,0,7.31,19c2.53,2.9,6.25,5.47,10,4.56,5.37-1.31,4.37,1.76,7-9.38,1.54-6.47,1.59-13.44-.85-19.63A21.24,21.24,0,0,0,15.09,137Z"/><path class="cls-6" d="M6,140.6c-4.17,10.65-2.81,23.29,3.29,31.87A60,60,0,0,1,6,140.6Z"/><path class="cls-6" d="M7.83,140.42a121,121,0,0,0,.08,17.35C8.5,163.52,10,169.27,13,174A129.69,129.69,0,0,1,7.83,140.42Z"/><path class="cls-6" d="M9.78,139.43q2.82,16.95,5.62,33.9A78.37,78.37,0,0,0,9.78,139.43Z"/><path class="cls-6" d="M11.57,139.45a121.6,121.6,0,0,1,6.66,31.71A37.21,37.21,0,0,0,11.57,139.45Z"/><path class="cls-6" d="M13.43,139.81a68.42,68.42,0,0,1,8.16,30.25c1-5.44,1.39-11.05.23-16.45A23.16,23.16,0,0,0,13.43,139.81Z"/><path class="cls-5" d="M8.06,137.83c-2.61-.07-6.79-5.18-6.79-5.18l3.94,1.63c-1.07-2.28-1.13-7.39-1.13-7.39a34.75,34.75,0,0,1,3.05,5.84c0-2.17,2.51-5.83,2.51-5.83s.54,4.33.8,6.49c.47-2.18,3.84-5.26,3.84-5.26S12.7,138,8.06,137.83Z"/><path class="cls-7" d="M16.83,178c-6.57.33-12-6.16-14.95-12.06a3.16,3.16,0,0,1-.41-1.36,1.2,1.2,0,0,1,.68-1.16c.65-.25,1.32.29,1.8.79q2.19,2.29,4.16,4.78a17.61,17.61,0,0,1-3-8.27,2.52,2.52,0,0,1,.08-1.16,1,1,0,0,1,.86-.67c.44,0,.76.39,1,.74a53.43,53.43,0,0,1,4.86,8c-1.11-3.11-2.24-6.44-1.43-9.64.12-.45.37-1,.83-1s.77.44,1,.85c1.4,2.78,2.59,5.67,3.78,8.68a16.56,16.56,0,0,1,.67-9.06c.21-.56.64-1.22,1.23-1.08.42.1.62.58.74,1a37.56,37.56,0,0,1,1.31,9,26.63,26.63,0,0,1,1.4-8.44c.13-.4.34-.84.75-.92a.8.8,0,0,1,.77.39,2.31,2.31,0,0,1,.29.86,25.34,25.34,0,0,1,.24,6.91c.38-1.62.75-3.24,1.12-4.85a2.1,2.1,0,0,1,.34-.86.7.7,0,0,1,.83-.23,1,1,0,0,1,.39.76C26.77,163.57,24.74,177.63,16.83,178Z"/><path class="cls-4" d="M143.54,295.64q1.71-18.4,2.22-36.89c.34-12.31.31-24.64-.3-36.93-.05-1.08-.34-1.07-.32,0,.27,12.29-.11,24.59-.85,36.85s-1.85,24.51-3.26,36.7C140,303.72,142.74,304.06,143.54,295.64Z"/><path class="cls-5" d="M151.57,202.3a7.29,7.29,0,0,0-11.3.95,24.64,24.64,0,0,0-1.51,25.53c1.48,2.82,4,5.59,7.18,5.56,4.58,0,3.19,2.25,7.43-6.23a27.4,27.4,0,0,0,3-16A17.59,17.59,0,0,0,151.57,202.3Z"/><path class="cls-6" d="M143.57,203.49c-5.37,7.8-6.66,18.24-3.37,26.3A49.74,49.74,0,0,1,143.57,203.49Z"/><path class="cls-6" d="M145.07,203.69a97.7,97.7,0,0,0-3.21,14,29.92,29.92,0,0,0,1.06,14A106.88,106.88,0,0,1,145.07,203.69Z"/><path class="cls-6" d="M146.83,203.26q-.95,14.19-1.88,28.38A64.87,64.87,0,0,0,146.83,203.26Z"/><path class="cls-6" d="M148.26,203.62a100.64,100.64,0,0,1-.62,26.8A30.74,30.74,0,0,0,148.26,203.62Z"/><path class="cls-6" d="M149.7,204.26a56.72,56.72,0,0,1,.86,25.91A35.65,35.65,0,0,0,153.85,217,19.18,19.18,0,0,0,149.7,204.26Z"/><path class="cls-5" d="M145.74,201.65c-2.09-.55-4.49-5.46-4.49-5.46l2.87,2.06c-.44-2,.48-6.17.48-6.17a29.29,29.29,0,0,1,1.36,5.28c.45-1.74,3.12-4.22,3.12-4.22s-.39,3.59-.58,5.38c.79-1.67,4.09-3.51,4.09-3.51S149.46,202.62,145.74,201.65Z"/><path class="cls-7" d="M145.22,235.68c-5.36-1-8.54-7.24-9.77-12.55a2.72,2.72,0,0,1-.08-1.17,1,1,0,0,1,.77-.8c.57-.08,1,.48,1.31,1,.89,1.5,1.7,3.05,2.45,4.63a14.6,14.6,0,0,1-.85-7.23,2.17,2.17,0,0,1,.29-.91.8.8,0,0,1,.82-.38c.35.09.54.46.68.79a43.86,43.86,0,0,1,2.4,7.39c-.31-2.72-.59-5.62.67-8,.18-.34.48-.71.86-.65s.53.5.62.87c.6,2.5,1,5,1.4,7.7a13.8,13.8,0,0,1,2.26-7.17c.27-.41.74-.86,1.19-.64a1.05,1.05,0,0,1,.4.95A30.61,30.61,0,0,1,150,227a22.1,22.1,0,0,1,2.72-6.54c.18-.29.44-.61.78-.6a.67.67,0,0,1,.55.46,1.9,1.9,0,0,1,.07.75,21.23,21.23,0,0,1-1.11,5.61c.61-1.23,1.21-2.46,1.82-3.7a1.53,1.53,0,0,1,.44-.62.57.57,0,0,1,.71,0,.8.8,0,0,1,.16.68C156,225.92,151.66,236.87,145.22,235.68Z"/><path class="cls-4" d="M144.54,297.7q5.25-12.4,9.71-25.13c3-8.47,5.67-17,8-25.71.21-.76,0-.82-.22-.06-2.54,8.59-5.53,17.05-8.75,25.4s-6.72,16.6-10.4,24.76C140.31,302.53,142.11,303.37,144.54,297.7Z"/><path class="cls-5" d="M170.79,234.66a5.33,5.33,0,0,0-8.06-1.84A17.95,17.95,0,0,0,156,250.21c.41,2.29,1.54,4.77,3.76,5.45,3.19,1,1.72,2.27,6.54-2.68A19.94,19.94,0,0,0,172,242.56,12.87,12.87,0,0,0,170.79,234.66Z"/><path class="cls-6" d="M165,233.72c-5.45,4.22-8.67,11.19-8.16,17.52A36.15,36.15,0,0,1,165,233.72Z"/><path class="cls-6" d="M166,234.19a72.17,72.17,0,0,0-5.33,9,21.82,21.82,0,0,0-2.37,10A78.26,78.26,0,0,1,166,234.19Z"/><path class="cls-6" d="M167.28,234.28l-7.59,19.29A47.21,47.21,0,0,0,167.28,234.28Z"/><path class="cls-6" d="M168.2,234.84a73.29,73.29,0,0,1-6.37,18.48A22.42,22.42,0,0,0,168.2,234.84Z"/><path class="cls-6" d="M169.06,235.61a41.28,41.28,0,0,1-5.15,18.18,25.84,25.84,0,0,0,5.21-8.44A14,14,0,0,0,169.06,235.61Z"/><path class="cls-5" d="M166.89,232.92c-1.33-.84-1.91-4.78-1.91-4.78l1.53,2.06a14.81,14.81,0,0,1,1.7-4.18,20.87,20.87,0,0,1-.22,4c.69-1.11,3.1-2.24,3.1-2.24l-1.59,3.61c.91-1,3.61-1.53,3.61-1.53S169.25,234.41,166.89,232.92Z"/><path class="cls-7" d="M159,256.44c-3.51-1.87-4.33-6.92-4-10.88a2,2,0,0,1,.21-.83.72.72,0,0,1,.71-.39c.41.07.59.56.69,1,.28,1.24.51,2.5.67,3.76a10.63,10.63,0,0,1,1-5.21,1.51,1.51,0,0,1,.4-.57.56.56,0,0,1,.65-.08.85.85,0,0,1,.3.7,32.28,32.28,0,0,1,0,5.66c.39-1.95.83-4,2.25-5.43.2-.2.49-.39.74-.26s.25.46.23.73c-.13,1.88-.41,3.74-.73,5.67a10,10,0,0,1,3.16-4.48c.28-.23.71-.44,1-.18s.14.49.08.75a22.6,22.6,0,0,1-2.11,5.06,16,16,0,0,1,3.34-3.94c.19-.16.44-.33.67-.24a.49.49,0,0,1,.28.44,1.24,1.24,0,0,1-.12.53,15.37,15.37,0,0,1-2,3.66l2.08-2.17a1.45,1.45,0,0,1,.44-.34.42.42,0,0,1,.5.14.61.61,0,0,1,0,.51C168.6,252,163.2,258.68,159,256.44Z"/><path class="cls-4" d="M142.61,296.64q-1.86-13.33-4.56-26.55c-1.81-8.79-3.88-17.53-6.36-26.15-.21-.76-.42-.71-.23.06,2.24,8.68,4,17.47,5.54,26.29s2.75,17.7,3.78,26.59C141.47,303,143.44,302.75,142.61,296.64Z"/><path class="cls-5" d="M132.78,229.07a5.32,5.32,0,0,0-7.86,2.56A18,18,0,0,0,128.09,250c1.53,1.76,3.77,3.3,6,2.75,3.24-.79,2.63,1.07,4.23-5.65a19.91,19.91,0,0,0-.51-11.84A12.91,12.91,0,0,0,132.78,229.07Z"/><path class="cls-6" d="M127.3,231.25c-2.51,6.42-1.69,14.05,2,19.22A36.15,36.15,0,0,1,127.3,231.25Z"/><path class="cls-6" d="M128.4,231.14a71.6,71.6,0,0,0,0,10.46,21.85,21.85,0,0,0,3.08,9.77A78.27,78.27,0,0,1,128.4,231.14Z"/><path class="cls-6" d="M129.58,230.54,133,251A47.47,47.47,0,0,0,129.58,230.54Z"/><path class="cls-6" d="M130.65,230.55a73.22,73.22,0,0,1,4,19.13A22.46,22.46,0,0,0,130.65,230.55Z"/><path class="cls-6" d="M131.78,230.77A41.29,41.29,0,0,1,136.7,249a26.13,26.13,0,0,0,.14-9.93A14,14,0,0,0,131.78,230.77Z"/><path class="cls-5" d="M128.54,229.58c-1.58,0-4.1-3.13-4.1-3.13l2.38,1a14.9,14.9,0,0,1-.69-4.46A21,21,0,0,1,128,226.5c0-1.31,1.51-3.52,1.51-3.52l.48,3.92c.29-1.32,2.32-3.17,2.32-3.17S131.33,229.65,128.54,229.58Z"/><path class="cls-7" d="M133.83,253.82c-4,.19-7.26-3.72-9-7.28a1.87,1.87,0,0,1-.25-.82.73.73,0,0,1,.41-.7c.39-.15.8.17,1.09.48.88.92,1.72,1.88,2.51,2.88a10.58,10.58,0,0,1-1.8-5,1.5,1.5,0,0,1,0-.7.57.57,0,0,1,.52-.4c.26,0,.46.23.61.45a31.69,31.69,0,0,1,2.93,4.84c-.67-1.88-1.35-3.89-.86-5.82.07-.27.22-.58.5-.6s.46.26.59.51c.84,1.68,1.56,3.42,2.27,5.24a10.09,10.09,0,0,1,.41-5.47c.13-.34.39-.74.74-.65s.37.35.45.61a22.55,22.55,0,0,1,.79,5.42,16,16,0,0,1,.84-5.09c.08-.24.21-.51.45-.55a.48.48,0,0,1,.47.23,1.33,1.33,0,0,1,.17.52,15.31,15.31,0,0,1,.15,4.17c.23-1,.45-1.95.68-2.93a1.23,1.23,0,0,1,.2-.52.43.43,0,0,1,.5-.13.54.54,0,0,1,.23.45C139.82,245.1,138.6,253.58,133.83,253.82Z"/><path class="cls-8" d="M335.16,284.53c-4.28-10.74-5.17-22.72-4-34.42s4.34-23.27,8.47-34.53,9-22.35,13.47-33.74a216.63,216.63,0,0,0,10.79-35.28c4.5-20.75,6.2-43.77,3.49-66.09s-10.26-43.68-21.53-60c-.35-.51-.62,0-.37.54,19.88,41.72,23.54,90.72,11,135.29-6.66,24.09-19.35,46.05-26.83,70.6-3.79,12.74-6,26.18-5.09,39.79.1,2.1.39,4.17.63,6.23A52.34,52.34,0,0,0,326.4,279a30.34,30.34,0,0,0,5.06,10.69c1.91,2.39,3.45,2.46,4.19,1.27a4.36,4.36,0,0,0,.46-2.58A14.94,14.94,0,0,0,335.16,284.53Z"/><path class="cls-9" d="M352.07,31.23c-1.29-3.34-4.19-5.77-7.13-7.81s-6.1-3.9-8.38-6.65c-2.6-3.14-3.85-7.6-2.4-11.41s6-6.39,9.82-5a9,9,0,0,1,4.81,5,23.38,23.38,0,0,1,1.42,7C350.69,17.88,350.83,23.36,352.07,31.23Z"/><path class="cls-8" d="M364.73,75.44a49.69,49.69,0,0,1,4.46-23.16,48.44,48.44,0,0,1,14.75-18.77c.55-.44.37-.7-.21-.28A51.47,51.47,0,0,0,362,75.53c.07,2.87,1,4.21,1.66,4.11S364.9,78.12,364.73,75.44Z"/><path class="cls-9" d="M375.93,40.23c2.61-4.7,5-12.1,8.52-16.14,1.6-1.82,3.88-3.63,6.19-2.93a4.86,4.86,0,0,1,3.05,3.89c.77,4.06-.6,7.66-4.23,9.65S380.43,40.17,375.93,40.23Z"/><path class="cls-8" d="M365.24,87.24A74.78,74.78,0,0,0,355,69.63c-4.18-5.33-9.12-10.21-15.1-13.4-.52-.29-.67,0-.17.31,5.73,3.47,10.25,8.57,14,14a79.18,79.18,0,0,1,9,17.66C364.12,92.45,367,91.65,365.24,87.24Z"/><path class="cls-9" d="M348.9,63.43a37.08,37.08,0,0,1-5.21-9.19,23.83,23.83,0,0,0-2.62-6.41,6.9,6.9,0,0,0-5.75-3.33c-3.39.18-5.76,4-5.15,7.37s3.46,5.91,6.62,7.14S345.55,63.38,348.9,63.43Z"/><path class="cls-8" d="M366.94,118.44a69.76,69.76,0,0,1,24.5-29.27c.47-.33.3-.6-.19-.3a70.23,70.23,0,0,0-26.77,28.39C362.49,121.4,365.24,122.44,366.94,118.44Z"/><path class="cls-8" d="M361.91,139.68a39,39,0,0,0-3.28-11.29c-1.58-3.54-3.41-6.9-5.17-10.27a84.67,84.67,0,0,1-4.77-10.29,28.77,28.77,0,0,1-2-11.08c0-.67-.32-.7-.35,0a30,30,0,0,0,1.41,11.39,87.53,87.53,0,0,0,4.24,10.7c3.13,6.92,6.64,13.83,7.16,21.12.14,2.45.73,3.72,1.47,3.78.36,0,.71-.28,1-1A6.27,6.27,0,0,0,361.91,139.68Z"/><path class="cls-8" d="M355.93,174.25a115.59,115.59,0,0,0,26.69-22,135.45,135.45,0,0,0,19.6-28.3c.48-.89.19-1-.31-.17-11.22,19.92-27.54,37.07-47.35,48.09-3.38,1.87-4.81,3.35-4.49,4S352.49,176.27,355.93,174.25Z"/><path class="cls-8" d="M345.77,187.29c-3.25-8.71-7.4-16.93-10.52-25.52s-5.22-17.69-4.09-26.84c.09-.8-.22-.86-.35-.05-1.51,9.17.22,18.58,2.94,27.39s6.55,17.3,9.44,25.93c1,3,2.1,4.23,2.78,4S346.88,190.29,345.77,187.29Z"/><path class="cls-8" d="M331.74,244.52a41.48,41.48,0,0,1,9-9.9c3.49-2.9,7.28-5.49,11.08-8.14a88.59,88.59,0,0,0,10.88-8.67,33.64,33.64,0,0,0,8.06-11.28c.32-.75,0-.87-.32-.14A32.47,32.47,0,0,1,362,217.12a87.72,87.72,0,0,1-11.13,8c-3.89,2.46-7.84,4.9-11.57,7.74a42.5,42.5,0,0,0-9.9,10.16c-1.81,2.8-1.68,4.68-1.06,4.91S330.2,247.08,331.74,244.52Z"/><path class="cls-8" d="M331.57,231c-1.26-7.93-4.52-15.08-6.83-22.39a53.78,53.78,0,0,1-2.43-11.21,27.12,27.12,0,0,1,1.13-11.35c.2-.64-.09-.76-.33-.12a28.24,28.24,0,0,0-1.74,11.53,56,56,0,0,0,1.84,11.59c2,7.55,4.78,14.83,5.65,22.32.29,2.53,1,3.78,1.71,3.77S332,233.72,331.57,231Z"/><path class="cls-9" d="M322.12,192.18a16.73,16.73,0,0,1-3.07-17.71,9.14,9.14,0,0,1,2.77-3.77,4.85,4.85,0,0,1,4.47-.79c2.13.82,3.1,3.33,3.19,5.6a16.68,16.68,0,0,1-2.28,8.55C325.76,186.67,323.87,189,322.12,192.18Z"/><path class="cls-9" d="M330.87,145.74a14.59,14.59,0,0,1-4.49-15,9.4,9.4,0,0,1,2.32-4.11A5.63,5.63,0,0,1,333,125c2.65.22,4.64,2.79,5,5.42s-.63,5.26-1.87,7.61A51.71,51.71,0,0,1,330.87,145.74Z"/><path class="cls-9" d="M393.33,139.28c0-5.14.2-10.66,3.19-14.84,1.62-2.26,4.29-4,7-3.62,3.15.46,5.35,3.8,5.2,7a10.69,10.69,0,0,1-4.79,7.87C401.38,137.52,398.29,138.52,393.33,139.28Z"/><path class="cls-9" d="M361.47,218.37a46.6,46.6,0,0,1,.24-11,15.9,15.9,0,0,1,5-9.51,7.78,7.78,0,0,1,6.33-2c2.64.53,4.61,2.94,5.29,5.55,1,4-.57,8.39-3.48,11.32S367.91,217.33,361.47,218.37Z"/><path class="cls-9" d="M348.59,109.51l2.34-12.84a18.09,18.09,0,0,0,.44-4.91,6.12,6.12,0,0,0-2.12-4.31c-2.12-1.62-5.31-1-7.39.63-3.33,2.65-4.37,7.55-3.06,11.6S343.42,106.91,348.59,109.51Z"/><path class="cls-9" d="M379,98.77a35.26,35.26,0,0,1,3.35-8.86,15.78,15.78,0,0,1,6.69-6.53,10.26,10.26,0,0,1,9.15,0,7.64,7.64,0,0,1,3.93,8c-.59,2.79-3,4.92-5.62,6a26.61,26.61,0,0,1-8.39,1.41A55.13,55.13,0,0,1,379,98.77Z"/><path class="cls-8" d="M621.7,250a24.24,24.24,0,0,1-1.32-11.3,45,45,0,0,1,2.78-11.33c1.35-3.71,3-7.34,4.42-11.08a70.9,70.9,0,0,0,3.54-11.59A66.14,66.14,0,0,0,632.27,183a44.24,44.24,0,0,0-7.07-19.69c-.11-.18-.2,0-.12.17a63.88,63.88,0,0,1,3.6,44.42c-2.18,7.91-6.35,15.12-8.81,23.18a37,37,0,0,0-1.67,13.06c0,.69.13,1.37.21,2a19,19,0,0,0,.41,2,9.87,9.87,0,0,0,1.67,3.5c.62.79,1.13.81,1.37.42a1.41,1.41,0,0,0,.15-.85A4.5,4.5,0,0,0,621.7,250Z"/><path class="cls-9" d="M627.25,166.87a5.91,5.91,0,0,0-2.34-2.57,13,13,0,0,1-2.75-2.18,3.89,3.89,0,0,1-.79-3.74,2.67,2.67,0,0,1,3.23-1.63,3,3,0,0,1,1.58,1.65,7.84,7.84,0,0,1,.46,2.3C626.8,162.49,626.85,164.29,627.25,166.87Z"/><path class="cls-8" d="M631.41,181.39a16.3,16.3,0,0,1,1.46-7.61,16,16,0,0,1,4.85-6.16c.18-.15.12-.23-.07-.09a16.82,16.82,0,0,0-7.13,13.89c0,.94.32,1.38.54,1.35S631.47,182.27,631.41,181.39Z"/><path class="cls-9" d="M635.09,169.83c.86-1.55,1.63-4,2.8-5.31.52-.59,1.27-1.19,2-1a1.63,1.63,0,0,1,1,1.28,2.81,2.81,0,0,1-1.39,3.17C638.34,168.67,636.56,169.81,635.09,169.83Z"/><path class="cls-8" d="M631.58,185.26a24.87,24.87,0,0,0-3.36-5.78,16.3,16.3,0,0,0-5-4.4c-.17-.1-.22,0-.06.1a15.52,15.52,0,0,1,4.6,4.6,26.15,26.15,0,0,1,2.94,5.8C631.21,187,632.14,186.71,631.58,185.26Z"/><path class="cls-9" d="M626.21,177.44a12.32,12.32,0,0,1-1.71-3,7.56,7.56,0,0,0-.86-2.1,2.26,2.26,0,0,0-1.89-1.09,2,2,0,0,0-1.69,2.42,3.35,3.35,0,0,0,2.18,2.34C623.28,176.39,625.11,177.42,626.21,177.44Z"/><path class="cls-8" d="M632.14,195.5a22.85,22.85,0,0,1,8-9.61c.15-.1.1-.19-.06-.1a23,23,0,0,0-8.79,9.33C630.67,196.47,631.58,196.82,632.14,195.5Z"/><path class="cls-8" d="M630.48,202.48a12.59,12.59,0,0,0-1.07-3.71c-.52-1.16-1.12-2.27-1.7-3.37a29.5,29.5,0,0,1-1.57-3.38,9.61,9.61,0,0,1-.64-3.64c0-.22-.1-.23-.11,0a9.68,9.68,0,0,0,.46,3.74,26.82,26.82,0,0,0,1.39,3.52c1,2.27,2.18,4.54,2.35,6.93,0,.81.24,1.22.48,1.24s.24-.09.32-.31A2,2,0,0,0,630.48,202.48Z"/><path class="cls-8" d="M628.52,213.83a37.87,37.87,0,0,0,8.76-7.22,44.84,44.84,0,0,0,6.44-9.29c.16-.3.06-.35-.1-.06a41.1,41.1,0,0,1-15.55,15.79c-1.11.61-1.58,1.1-1.47,1.31S627.39,214.49,628.52,213.83Z"/><path class="cls-8" d="M625.18,218.11c-1.06-2.86-2.42-5.56-3.45-8.38a19.27,19.27,0,0,1-1.34-8.81c0-.27-.08-.28-.12,0a19.94,19.94,0,0,0,1,9c.9,2.91,2.15,5.68,3.1,8.52.32,1,.69,1.39.91,1.32S625.55,219.09,625.18,218.11Z"/><path class="cls-8" d="M620.58,236.9a13.55,13.55,0,0,1,2.95-3.25c1.14-1,2.39-1.81,3.63-2.67a29.84,29.84,0,0,0,3.58-2.85,11.11,11.11,0,0,0,2.64-3.7c.11-.25,0-.29-.1-.05a10.74,10.74,0,0,1-2.75,3.52,29.09,29.09,0,0,1-3.66,2.64c-1.27.81-2.57,1.61-3.8,2.54a14,14,0,0,0-3.25,3.34c-.59.92-.55,1.54-.35,1.61S620.07,237.74,620.58,236.9Z"/><path class="cls-8" d="M620.52,232.46a50.13,50.13,0,0,0-2.24-7.35,17.91,17.91,0,0,1-.8-3.68,8.9,8.9,0,0,1,.37-3.73c.07-.21,0-.25-.11,0a9.38,9.38,0,0,0-.57,3.79,18.71,18.71,0,0,0,.61,3.8,55.41,55.41,0,0,1,1.85,7.33c.1.83.32,1.24.56,1.24S620.66,233.35,620.52,232.46Z"/><path class="cls-9" d="M617.42,219.71a5.48,5.48,0,0,1-1-5.81,3,3,0,0,1,.91-1.24,1.6,1.6,0,0,1,1.47-.26,2,2,0,0,1,1.05,1.84,5.48,5.48,0,0,1-.75,2.81C618.62,217.91,618,218.67,617.42,219.71Z"/><path class="cls-9" d="M620.29,204.47a4.79,4.79,0,0,1-1.47-4.91,3.12,3.12,0,0,1,.76-1.35,1.82,1.82,0,0,1,1.42-.55,2,2,0,0,1,1.63,1.78,4.26,4.26,0,0,1-.61,2.49A17.45,17.45,0,0,1,620.29,204.47Z"/><path class="cls-9" d="M640.8,202.35c0-1.69.06-3.5,1.05-4.88a2.56,2.56,0,0,1,2.31-1.19,2.23,2.23,0,0,1,1.71,2.3,3.53,3.53,0,0,1-1.58,2.58A7.76,7.76,0,0,1,640.8,202.35Z"/><path class="cls-9" d="M630.34,228.31a15.38,15.38,0,0,1,.08-3.59,5.22,5.22,0,0,1,1.65-3.13,2.53,2.53,0,0,1,2.07-.64,2.41,2.41,0,0,1,1.74,1.82,4,4,0,0,1-1.14,3.72A7.53,7.53,0,0,1,630.34,228.31Z"/><path class="cls-9" d="M626.11,192.57c.26-1.4.51-2.81.77-4.22a5.82,5.82,0,0,0,.14-1.61,1.79,1.79,0,0,0-3.12-1.2,3.54,3.54,0,0,0-1,3.8A5.74,5.74,0,0,0,626.11,192.57Z"/><path class="cls-9" d="M636.1,189.05a11.49,11.49,0,0,1,1.1-2.91,5.24,5.24,0,0,1,2.2-2.15,3.37,3.37,0,0,1,3,0,2.49,2.49,0,0,1,1.29,2.6,2.94,2.94,0,0,1-1.84,2,8.88,8.88,0,0,1-2.76.47A19.78,19.78,0,0,1,636.1,189.05Z"/><path class="cls-10" d="M510,282.63c.73-8.29,1.87-16.5,3-24.71s2.56-16.35,3.58-24.56,1.83-16.45,2.32-24.71.76-16.55.71-24.84a.11.11,0,0,1,.11-.11.1.1,0,0,1,.11.11q.54,12.42.2,24.89c-.26,8.3-.83,16.59-1.65,24.86s-1.7,16.54-3.15,24.71-3,16.32-5,24.39a.11.11,0,0,1-.13.09A.13.13,0,0,1,510,282.63Z"/><path class="cls-10" d="M505.75,184.36Q507,196.6,508,208.87t1.69,24.56c.48,8.19,1.07,16.38,1.12,24.59s0,16.42-.59,24.62a.12.12,0,0,1-.13.11.11.11,0,0,1-.1-.1c-.68-8.2-1.07-16.38-1.44-24.57s-.39-16.38-.67-24.57-.6-16.38-1-24.57-.83-16.37-1.36-24.56a.13.13,0,0,1,.11-.12A.12.12,0,0,1,505.75,184.36Z"/><path class="cls-11" d="M510,157.45a4.38,4.38,0,0,0-8.17-.62,26.67,26.67,0,0,0-2,10.58,66.69,66.69,0,0,0,1.94,17.17,10.89,10.89,0,0,0,1.53,3.8,4.11,4.11,0,0,0,3.48,1.86c2.5-.19,3.73-3.09,4.24-5.54a56.78,56.78,0,0,0-1-27.17Z"/><path class="cls-12" d="M503.47,176.22a73.75,73.75,0,0,1-.68-11.37c0-.43-.14-.45-.18,0a72.7,72.7,0,0,0,1.32,22.25c.63,2.62,1.63,2.57,1.26.31C504.68,184,504,180.13,503.47,176.22Z"/><path class="cls-12" d="M507.84,169.47c-.44,4.85-1,9.82-1.46,14.71-.09-2.3-.22-4.7-.3-7.12a92,92,0,0,1,.19-10.85c0-.4-.11-.43-.17,0a87.76,87.76,0,0,0-.82,21.18c.19,1.86.77,2.4,1.05,1.69.27.43.72.1.92-1.06,1-5.6.63-12.8.76-18.52C508,169.13,507.87,169.12,507.84,169.47Z"/><path class="cls-12" d="M509.12,176.31c-.5,4.21-1.24,8.56-1.61,12.77-.13,1.54.82,1.74,1.13.43.95-4,.56-9.11.65-13.19C509.3,176.07,509.15,176.06,509.12,176.31Z"/><path class="cls-13" d="M506.2,192.24a17.37,17.37,0,0,1-6-6.47,3.22,3.22,0,0,1-.47-1.45,1.24,1.24,0,0,1,.75-1.23,1.77,1.77,0,0,1,1.58.51,14.43,14.43,0,0,1,3,3.2,7.49,7.49,0,0,1-.26-5.41c.27-.79,1-1.68,1.77-1.4a1.71,1.71,0,0,1,.88,1.27,18.54,18.54,0,0,1,.7,5.64,10.54,10.54,0,0,1,2.48-4.76,1.45,1.45,0,0,1,1.18-.62c.68.1.9,1,.9,1.65A9.82,9.82,0,0,1,506.2,192.24Z"/><path d="M505.93,154.63c-.19-.85-.38-1.71-.56-2.56a11.33,11.33,0,0,0-.65-2.53c-.35-.71-1.65-.74-1.7.21a11.17,11.17,0,0,0,.39,2.56l.52,2.58C504.18,156.16,506.21,155.9,505.93,154.63Z"/><path d="M505,156.18a1.57,1.57,0,0,1-.52-.08,1.42,1.42,0,0,1-1-1.12L503,152.4l-.12-.57a8.06,8.06,0,0,1-.28-2.1,1.19,1.19,0,0,1,1-1.14,1.51,1.51,0,0,1,1.62.74,7.38,7.38,0,0,1,.54,2c.05.23.09.45.13.67l.57,2.56a1.3,1.3,0,0,1-.38,1.28A1.54,1.54,0,0,1,505,156.18Zm-1.16-6.7h-.11a.27.27,0,0,0-.23.28,7.25,7.25,0,0,0,.26,1.86c0,.2.09.4.13.59l.51,2.58a.54.54,0,0,0,.37.43.68.68,0,0,0,.64-.11.37.37,0,0,0,.09-.39l-.56-2.56c-.05-.23-.1-.47-.14-.71a6.49,6.49,0,0,0-.47-1.72A.55.55,0,0,0,503.82,149.48Z"/><path class="cls-11" d="M530.74,156.57a4.37,4.37,0,0,0-7.84-2.36,26.67,26.67,0,0,0-4.27,9.88,66.78,66.78,0,0,0-1.8,17.19,11.08,11.08,0,0,0,.67,4.05,4.12,4.12,0,0,0,3,2.56c2.47.35,4.3-2.22,5.33-4.5a56.8,56.8,0,0,0,4.91-26.74Z"/><path class="cls-12" d="M527,167c0-.34-.11-.36-.18,0a49.29,49.29,0,0,1-4.6,13.41c1.12-3.26,1.89-7,2.75-10,.07-.25-.07-.31-.16-.05-1.35,3.51-2.88,7.07-4.21,10.62.4-2.5.81-5.17,1.35-7.83A62.5,62.5,0,0,1,524.82,163c.14-.38,0-.45-.17-.07a64.68,64.68,0,0,0-5.09,16.23,40.09,40.09,0,0,1-.21-4.28,26.91,26.91,0,0,1,1.4-8.79c.1-.32,0-.38-.17-.06a27.79,27.79,0,0,0-1.69,17.44c.07.24.14.44.21.62.08.62.28.89.49.8.28.24.53.08.58-.4a.6.6,0,0,0,.16-.08c-.05.57.32.68.88.15-.17.6.34.89,1.08.31a12.69,12.69,0,0,0,3.44-5,24.8,24.8,0,0,0,1.49-5.85c0-.22-.12-.25-.18,0a24,24,0,0,1-4.72,9,28.36,28.36,0,0,0,3.07-7.09A50.34,50.34,0,0,0,527,167Z"/><path class="cls-13" d="M519.57,189.73a17.43,17.43,0,0,1-4.47-7.61,3.3,3.3,0,0,1-.15-1.52,1.28,1.28,0,0,1,1-1,1.82,1.82,0,0,1,1.43.84,14.43,14.43,0,0,1,2.28,3.78,7.56,7.56,0,0,1,.91-5.34c.44-.72,1.32-1.43,2-1a1.7,1.7,0,0,1,.59,1.43,18.21,18.21,0,0,1-.53,5.65,10.63,10.63,0,0,1,3.44-4.11,1.5,1.5,0,0,1,1.29-.35c.64.24.68,1.13.52,1.8A9.78,9.78,0,0,1,519.57,189.73Z"/><path d="M527.41,153v-2.63a11.39,11.39,0,0,0-.08-2.61c-.19-.76-1.46-1.07-1.71-.15a11.13,11.13,0,0,0-.17,2.58l-.05,2.63C525.37,154.07,527.41,154.25,527.41,153Z"/><path d="M526.5,154.3a1.69,1.69,0,0,1-.84-.23,1.46,1.46,0,0,1-.72-1.31l0-2.63c0-.19,0-.38,0-.58a7.94,7.94,0,0,1,.19-2.11,1.17,1.17,0,0,1,1.18-.91,1.5,1.5,0,0,1,1.42,1.07,7.73,7.73,0,0,1,.11,2c0,.23,0,.46,0,.68V153a1.28,1.28,0,0,1-.64,1.16A1.42,1.42,0,0,1,526.5,154.3Zm-.15-6.85a.26.26,0,0,0-.28.23,7.05,7.05,0,0,0-.16,1.87q0,.3,0,.6l0,2.63a.51.51,0,0,0,.27.49.64.64,0,0,0,.64,0A.36.36,0,0,0,527,153v-2.63c0-.23,0-.47,0-.71a6.88,6.88,0,0,0-.09-1.78.56.56,0,0,0-.53-.38Z"/><path class="cls-10" d="M224.33,103.42q1.89,18.66,3.44,37.37t2.59,37.44c.72,12.49,1.62,25,1.7,37.51s-.05,25-.91,37.55a.18.18,0,0,1-.18.16.18.18,0,0,1-.16-.16c-1-12.5-1.63-25-2.2-37.46s-.59-25-1-37.47-.92-25-1.55-37.46-1.26-25-2.07-37.45a.18.18,0,0,1,.35,0Z"/><path class="cls-11" d="M230.76,62.39a6.68,6.68,0,0,0-12.46-1c-2.26,4.86-3,10.68-3.11,16.12a101.78,101.78,0,0,0,3,26.19,16.59,16.59,0,0,0,2.32,5.8,6.3,6.3,0,0,0,5.32,2.83c3.8-.29,5.68-4.71,6.46-8.45a86.45,86.45,0,0,0-1.47-41.43Z"/><path class="cls-12" d="M220.85,91a112.65,112.65,0,0,1-1-17.35c0-.65-.22-.68-.27,0a110.55,110.55,0,0,0,2,33.92c1,4,2.48,3.92,1.93.48C222.69,102.8,221.61,97,220.85,91Z"/><path class="cls-12" d="M227.51,80.71c-.66,7.39-1.57,15-2.22,22.43-.14-3.5-.34-7.17-.45-10.86a136.05,136.05,0,0,1,.29-16.54c.05-.62-.18-.66-.27,0A134.7,134.7,0,0,0,223.61,108c.29,2.85,1.18,3.66,1.61,2.59.41.65,1.09.14,1.4-1.62,1.49-8.55,1-19.52,1.16-28.24C227.79,80.19,227.56,80.17,227.51,80.71Z"/><path class="cls-12" d="M229.46,91.14c-.75,6.42-1.88,13-2.45,19.48-.2,2.33,1.25,2.65,1.73.65,1.44-6,.84-13.89,1-20.11C229.74,90.78,229.51,90.75,229.46,91.14Z"/><path class="cls-13" d="M225,115.43a26.56,26.56,0,0,1-9.16-9.87,4.93,4.93,0,0,1-.72-2.21,2,2,0,0,1,1.15-1.88,2.76,2.76,0,0,1,2.41.78,22.16,22.16,0,0,1,4.63,4.89,11.46,11.46,0,0,1-.39-8.25c.41-1.22,1.49-2.56,2.69-2.14A2.64,2.64,0,0,1,227,98.69a28.08,28.08,0,0,1,1.07,8.6,15.93,15.93,0,0,1,3.78-7.25,2.22,2.22,0,0,1,1.8-1c1,.15,1.37,1.47,1.36,2.52A14.94,14.94,0,0,1,225,115.43Z"/><path d="M224.61,58.09l-.87-3.92a16.74,16.74,0,0,0-1-3.85c-.53-1.09-2.52-1.12-2.59.32a16.32,16.32,0,0,0,.6,3.91l.78,3.92C221.94,60.42,225,60,224.61,58.09Z"/><path d="M223.15,60.45a2.42,2.42,0,0,1-.79-.13,2.21,2.21,0,0,1-1.5-1.71l-.78-3.92c-.06-.29-.12-.58-.19-.87a12.29,12.29,0,0,1-.42-3.21,1.79,1.79,0,0,1,1.47-1.74A2.27,2.27,0,0,1,223.39,50a11.43,11.43,0,0,1,.84,3c.06.35.12.69.2,1l.86,3.91a2,2,0,0,1-.57,1.94A2.33,2.33,0,0,1,223.15,60.45Zm-1.76-10.22-.17,0a.4.4,0,0,0-.35.43,11.07,11.07,0,0,0,.39,2.83c.07.3.14.6.2.9l.78,3.92a.79.79,0,0,0,.56.66,1,1,0,0,0,1-.16.54.54,0,0,0,.14-.59l-.86-3.91q-.12-.53-.21-1.08a10.38,10.38,0,0,0-.71-2.62A.85.85,0,0,0,221.39,50.23Z"/><path class="cls-1" d="M820.39,189.62a1.17,1.17,0,0,0-.4-.37,1.71,1.71,0,0,0-1.16-.46l-.42,0c-.06,0-.48-.08-.28,0s-.53-.07-.65-.07h-.42a8,8,0,0,0-.85,0,16,16,0,0,0-2.07.25,3.36,3.36,0,0,0-1.11.36,1.27,1.27,0,0,0-.13.11l0-.08c.07-.31.14-.62.22-.93a8.19,8.19,0,0,1,.23-.85l.15-.42h0v0c.17-.39.3-.78.45-1.17.06-.17.06-.17,0-.13a2.23,2.23,0,0,0,.15-.51h0a4.08,4.08,0,0,0,.29-1.24.58.58,0,0,1,0-.16c.24-.59-.45-1.07-1-1l0,0-.22,0a1.62,1.62,0,0,0-.53.11,4.89,4.89,0,0,0-.82.34,4.77,4.77,0,0,0-2,1.71,9.25,9.25,0,0,0-1,1.71,8.58,8.58,0,0,0-.52,1.71,13.78,13.78,0,0,0-1.73-1.69,6.86,6.86,0,0,0-1.09-.76,4.19,4.19,0,0,0-1.28-.53h-.08l-.19-.08a1.7,1.7,0,0,0-.45-.08h0a6,6,0,0,0-1-.14.8.8,0,0,0-.68,1.19,3.21,3.21,0,0,0,.43.69c0,.06,0,0,0,0s0-.1,0,.08a1.68,1.68,0,0,0,.27.45,1.47,1.47,0,0,0,.19.4l.19.24,0,0,.37.52c.3.42.65.8,1,1.2s.47.65.69,1,.26.37.39.55a7.69,7.69,0,0,0,.73,1,2.06,2.06,0,0,0,2,.54,5.65,5.65,0,0,0,.65-.31,2.12,2.12,0,0,0,1.91.75,2.21,2.21,0,0,0,1.77-1.51,1.72,1.72,0,0,0,.68.5,2.82,2.82,0,0,0,1.32.17,15.38,15.38,0,0,0,2.13-.3,7.18,7.18,0,0,0,1.87-.55l.16-.08.4-.15a2.76,2.76,0,0,0,.72-.33,1.45,1.45,0,0,0,.35-.44,1.09,1.09,0,0,0,.27-.44A.35.35,0,0,0,820.39,189.62Z"/><path class="cls-1" d="M818.6,191.72h0C818.48,191.78,818.42,191.81,818.6,191.72Z"/><path class="cls-2" d="M1181.11,231.72a2.46,2.46,0,0,0-.38-1.2,6,6,0,0,0-2-2,7.22,7.22,0,0,0-1.82-.86h0c.34-.42.67-.85,1-1.28a5.32,5.32,0,0,0,1.14-1.78,5.26,5.26,0,0,0,.13-1,1.61,1.61,0,0,0,0-.38,2.74,2.74,0,0,0-.75-1.82,2.49,2.49,0,0,0-1.81-.75,5.08,5.08,0,0,0-1,.17c-.29.11-.6.22-.88.36a4.34,4.34,0,0,0-1.45,1.5l-.78,1a3.15,3.15,0,0,0-.61-.78,6.9,6.9,0,0,0-1.12-.87,3.81,3.81,0,0,0-3.77,0,3.73,3.73,0,0,0-1.85,3.23,4.74,4.74,0,0,0,.57,2.39c.09.17.19.32.29.48l.36.52c.09.12.18.26.28.41l-.68.13c-.46.1-.91.26-1.37.37l-.73.16a3.35,3.35,0,0,0-1.21.6,3.44,3.44,0,0,0-1.17,1.72,3.1,3.1,0,0,0,.8,3,3.38,3.38,0,0,0,1.46.88,3.44,3.44,0,0,0,1.83,0l.72-.16a11.69,11.69,0,0,0,1.43-.41,4.77,4.77,0,0,0,.52-.22c0,.26-.08.52-.11.78a4.42,4.42,0,0,0,.4,3.07,3,3,0,0,0,2.22,1.46,3,3,0,0,0,2.56-.84,4.7,4.7,0,0,0,1.14-3.13c0-.44.1-.88.11-1.32l0-1.32c0-.06,0-.11,0-.17l.07,0-.07,0v0a7.89,7.89,0,0,0,.65.49l.32.23c.18.14.35.28.52.39a6.18,6.18,0,0,0,1,.41l.86.11.85-.11.77-.33a2.45,2.45,0,0,0,.9-.82,3.22,3.22,0,0,0,.63-1.52A1.75,1.75,0,0,0,1181.11,231.72Z"/><path class="cls-3" d="M1171.46,226.59c-4,0-4,6.23,0,6.23S1175.48,226.59,1171.46,226.59Z"/><path class="cls-2" d="M1196.19,252.72a2.46,2.46,0,0,0-.38-1.19,6,6,0,0,0-2-2,7.55,7.55,0,0,0-1.82-.85h0l1-1.28a5.42,5.42,0,0,0,1.14-1.78,5.49,5.49,0,0,0,.13-1,2.55,2.55,0,0,0,0-.39,2.74,2.74,0,0,0-.76-1.81,2.44,2.44,0,0,0-1.81-.75,4.39,4.39,0,0,0-1,.17c-.29.11-.6.22-.88.36a4.34,4.34,0,0,0-1.45,1.5l-.78,1a3.29,3.29,0,0,0-.61-.78,6.83,6.83,0,0,0-1.12-.86,3.81,3.81,0,0,0-3.77,0,3.74,3.74,0,0,0-1.34,1.34,3.66,3.66,0,0,0-.51,1.88,4.69,4.69,0,0,0,.58,2.4,4.48,4.48,0,0,0,.28.47l.36.53.28.4-.68.14c-.46.1-.91.25-1.37.37l-.73.16a3.06,3.06,0,0,0-1.21.6,3.5,3.5,0,0,0-1.17,1.72,3.11,3.11,0,0,0,.8,3,3.36,3.36,0,0,0,1.46.87,3.55,3.55,0,0,0,1.83,0l.73-.17a10,10,0,0,0,1.42-.4l.52-.22c0,.26-.08.52-.1.78a4.37,4.37,0,0,0,.39,3.07,3,3,0,0,0,2.23,1.45,3,3,0,0,0,2.55-.84,4.66,4.66,0,0,0,1.14-3.12c0-.44.1-.88.11-1.32l0-1.33s0-.11,0-.16l.07,0-.07,0h0c.22.16.42.33.65.48l.33.23a3.46,3.46,0,0,0,.51.39,6.18,6.18,0,0,0,1,.41l.86.12.85-.12.77-.32a2.47,2.47,0,0,0,.9-.83,1.61,1.61,0,0,0,.41-.7,1.64,1.64,0,0,0,.22-.81A1.57,1.57,0,0,0,1196.19,252.72Z"/><path class="cls-3" d="M1186.54,247.6c-4,0-4,6.22,0,6.22S1190.56,247.6,1186.54,247.6Z"/><path class="cls-2" d="M1205.88,224.72a2.36,2.36,0,0,0-.38-1.2,5.83,5.83,0,0,0-2-2,7.07,7.07,0,0,0-1.82-.86h0l1-1.28a5.29,5.29,0,0,0,1.13-1.78,6.61,6.61,0,0,0,.14-1,1.63,1.63,0,0,0,0-.38,2.74,2.74,0,0,0-.75-1.82,2.45,2.45,0,0,0-1.81-.75,5.08,5.08,0,0,0-1,.17,8.53,8.53,0,0,0-.88.36,4.46,4.46,0,0,0-1.46,1.5l-.78,1a3.11,3.11,0,0,0-.6-.79,7,7,0,0,0-1.13-.86,3.81,3.81,0,0,0-3.77,0,3.74,3.74,0,0,0-1.34,1.34,3.67,3.67,0,0,0-.51,1.89,4.65,4.65,0,0,0,.58,2.39c.09.16.19.32.29.48l.35.52.29.4-.68.14c-.46.1-.91.26-1.38.37l-.72.16a3.27,3.27,0,0,0-1.21.6,3.44,3.44,0,0,0-1.17,1.72,3.09,3.09,0,0,0,.8,3,3.48,3.48,0,0,0,1.46.88,3.55,3.55,0,0,0,1.83,0l.72-.16a11.69,11.69,0,0,0,1.43-.41l.52-.22c0,.26-.08.52-.11.78a4.36,4.36,0,0,0,.4,3.07,3.1,3.1,0,0,0,4.78.62,4.64,4.64,0,0,0,1.13-3.13c0-.44.1-.88.12-1.32l0-1.32v-.17l.06,0-.06-.06h0a7.79,7.79,0,0,0,.65.48l.32.24a4.28,4.28,0,0,0,.52.38,5.87,5.87,0,0,0,1,.42l.85.11.86-.11.76-.33a2.3,2.3,0,0,0,.9-.82,3.2,3.2,0,0,0,.63-2.37Z"/><path class="cls-3" d="M1196.24,219.59c-4,0-4,6.23,0,6.23S1200.25,219.59,1196.24,219.59Z"/><path class="cls-4" d="M787.94,277.35q2.82-30.51,3.68-61.16c.56-20.41.5-40.84-.5-61.22-.08-1.79-.57-1.78-.54,0,.45,20.38-.18,40.76-1.4,61.1s-3.08,40.62-5.4,60.83C782.13,290.75,786.6,291.31,787.94,277.35Z"/><path class="cls-5" d="M801.24,122.6a12.09,12.09,0,0,0-18.72,1.59A40.82,40.82,0,0,0,780,166.51c2.47,4.68,6.63,9.26,11.92,9.22,7.58-.07,5.28,3.72,12.31-10.33,4.08-8.16,6.32-17.46,5-26.49A29.15,29.15,0,0,0,801.24,122.6Z"/><path class="cls-6" d="M788,124.58c-8.9,12.93-11,30.24-5.59,43.61A82.41,82.41,0,0,1,788,124.58Z"/><path class="cls-6" d="M790.47,124.92c-2.15,7.64-4.31,15.32-5.33,23.19s-.87,16,1.77,23.24C786,156.6,787.16,141.72,790.47,124.92Z"/><path class="cls-6" d="M793.38,124.21q-1.54,23.52-3.1,47Q796.94,149.29,793.38,124.21Z"/><path class="cls-6" d="M795.76,124.79a167.44,167.44,0,0,1-1,44.44C801.62,155.52,802.45,138.9,795.76,124.79Z"/><path class="cls-6" d="M798.14,125.85a94,94,0,0,1,1.43,43c3-7,5.31-14.34,5.45-21.91S803,131.52,798.14,125.85Z"/><path class="cls-5" d="M791.59,121.53c-3.47-.91-7.45-9-7.45-9l4.75,3.41c-.72-3.39.79-10.23.79-10.23s2,5.73,2.26,8.75c.74-2.88,5.18-7,5.18-7s-.64,6-1,8.93c1.31-2.78,6.78-5.83,6.78-5.83S797.74,123.14,791.59,121.53Z"/><path class="cls-7" d="M790.72,178c-8.88-1.63-14.15-12-16.19-20.8a4.27,4.27,0,0,1-.13-1.94,1.65,1.65,0,0,1,1.27-1.33c1-.14,1.67.79,2.16,1.62,1.47,2.49,2.83,5.06,4.06,7.68a24.14,24.14,0,0,1-1.39-12,3.47,3.47,0,0,1,.47-1.51,1.33,1.33,0,0,1,1.36-.63c.58.15.89.76,1.13,1.31a73.32,73.32,0,0,1,4,12.25c-.51-4.5-1-9.31,1.12-13.32.29-.57.79-1.19,1.42-1.08s.88.82,1,1.43c1,4.16,1.68,8.39,2.32,12.78a22.77,22.77,0,0,1,3.74-11.89c.45-.69,1.24-1.43,2-1.06.54.27.65,1,.68,1.57a51.39,51.39,0,0,1-1.06,12.44,36.26,36.26,0,0,1,4.51-10.85c.3-.48.72-1,1.28-1a1.12,1.12,0,0,1,.92.76,3,3,0,0,1,.11,1.24,35.17,35.17,0,0,1-1.83,9.31q1.5-3.07,3-6.13a2.82,2.82,0,0,1,.72-1,1,1,0,0,1,1.18,0,1.35,1.35,0,0,1,.28,1.13C808.52,161.77,801.4,179.91,790.72,178Z"/><path class="cls-4" d="M789.58,280.76q8.73-20.56,16.11-41.65c4.91-14.05,9.4-28.25,13.22-42.62.34-1.27,0-1.36-.38-.11-4.21,14.25-9.16,28.27-14.51,42.12s-11.14,27.52-17.23,41C782.58,288.78,785.56,290.16,789.58,280.76Z"/><path class="cls-5" d="M833.11,176.26a8.82,8.82,0,0,0-13.36-3A29.74,29.74,0,0,0,808.63,202c.68,3.79,2.55,7.9,6.23,9,5.28,1.63,2.85,3.75,10.84-4.45,4.64-4.76,8.26-10.72,9.34-17.28A21.24,21.24,0,0,0,833.11,176.26Z"/><path class="cls-6" d="M823.46,174.69c-9,7-14.37,18.55-13.53,29.05A60.09,60.09,0,0,1,823.46,174.69Z"/><path class="cls-6" d="M825.11,175.48a119.85,119.85,0,0,0-8.83,14.92c-2.45,5.24-4.15,10.93-3.92,16.53A129.6,129.6,0,0,1,825.11,175.48Z"/><path class="cls-6" d="M827.3,175.63q-6.3,16-12.58,32A78.49,78.49,0,0,0,827.3,175.63Z"/><path class="cls-6" d="M828.82,176.56a122.12,122.12,0,0,1-10.56,30.63A37.19,37.19,0,0,0,828.82,176.56Z"/><path class="cls-6" d="M830.23,177.83A68.46,68.46,0,0,1,821.71,208c3.61-4.17,6.86-8.77,8.64-14A23.15,23.15,0,0,0,830.23,177.83Z"/><path class="cls-5" d="M826.64,173.37c-2.21-1.4-3.17-7.93-3.17-7.93l2.55,3.42c.25-2.51,2.81-6.92,2.81-6.92a34.64,34.64,0,0,1-.36,6.57c1.15-1.83,5.14-3.71,5.14-3.71l-2.65,6c1.53-1.63,6-2.54,6-2.54S830.56,175.85,826.64,173.37Z"/><path class="cls-7" d="M813.54,212.36c-5.81-3.1-7.17-11.47-6.64-18a3.23,3.23,0,0,1,.34-1.38,1.24,1.24,0,0,1,1.18-.65c.69.12,1,.93,1.14,1.61.47,2.06.85,4.14,1.12,6.23a17.62,17.62,0,0,1,1.69-8.63,2.75,2.75,0,0,1,.66-.95,1,1,0,0,1,1.09-.13,1.45,1.45,0,0,1,.49,1.16,54.17,54.17,0,0,1,0,9.38c.64-3.23,1.38-6.67,3.72-9,.33-.33.82-.65,1.23-.43s.43.77.39,1.22c-.23,3.11-.69,6.2-1.21,9.39a16.55,16.55,0,0,1,5.23-7.43c.46-.37,1.18-.72,1.6-.3a1.3,1.3,0,0,1,.12,1.25,37,37,0,0,1-3.49,8.39,26.87,26.87,0,0,1,5.54-6.53c.31-.27.72-.55,1.11-.4a.8.8,0,0,1,.46.73,2.16,2.16,0,0,1-.19.89,25.41,25.41,0,0,1-3.34,6.05l3.45-3.59a2.14,2.14,0,0,1,.74-.56.69.69,0,0,1,.82.23,1,1,0,0,1-.05.85C829.48,205.06,820.52,216.09,813.54,212.36Z"/><path class="cls-4" d="M786.39,279q-3.07-22.12-7.56-44c-3-14.58-6.44-29.07-10.54-43.36-.35-1.26-.7-1.17-.38.1,3.71,14.39,6.65,29,9.17,43.59s4.57,29.34,6.28,44.07C784.5,289.49,787.76,289.14,786.39,279Z"/><path class="cls-5" d="M770.09,167a8.81,8.81,0,0,0-13,4.24A29.79,29.79,0,0,0,755,182.66a30.11,30.11,0,0,0,7.31,19c2.53,2.9,6.25,5.47,10,4.56,5.37-1.31,4.37,1.76,7-9.38,1.54-6.47,1.59-13.44-.85-19.63A21.24,21.24,0,0,0,770.09,167Z"/><path class="cls-6" d="M761,170.6c-4.17,10.65-2.81,23.29,3.29,31.87A60,60,0,0,1,761,170.6Z"/><path class="cls-6" d="M762.83,170.42a121,121,0,0,0,.08,17.35c.59,5.75,2.05,11.5,5.12,16.19A129.69,129.69,0,0,1,762.83,170.42Z"/><path class="cls-6" d="M764.78,169.43q2.82,16.95,5.62,33.9A78.37,78.37,0,0,0,764.78,169.43Z"/><path class="cls-6" d="M766.57,169.45a121.6,121.6,0,0,1,6.66,31.71A37.21,37.21,0,0,0,766.57,169.45Z"/><path class="cls-6" d="M768.43,169.81a68.42,68.42,0,0,1,8.16,30.25c1-5.44,1.39-11.05.23-16.45A23.16,23.16,0,0,0,768.43,169.81Z"/><path class="cls-5" d="M763.06,167.83c-2.61-.07-6.79-5.18-6.79-5.18l3.94,1.63c-1.07-2.28-1.13-7.39-1.13-7.39a34.75,34.75,0,0,1,3,5.84c0-2.17,2.51-5.83,2.51-5.83s.54,4.33.8,6.49c.47-2.18,3.84-5.26,3.84-5.26S767.7,168,763.06,167.83Z"/><path class="cls-7" d="M771.83,208c-6.57.33-12-6.16-15-12.06a3.16,3.16,0,0,1-.41-1.36,1.2,1.2,0,0,1,.68-1.16c.65-.25,1.32.29,1.8.79q2.19,2.29,4.16,4.78a17.61,17.61,0,0,1-3-8.27,2.52,2.52,0,0,1,.08-1.16,1,1,0,0,1,.86-.67c.44,0,.76.39,1,.74a53.43,53.43,0,0,1,4.86,8c-1.11-3.11-2.24-6.44-1.43-9.64.12-.45.37-1,.83-1s.77.44,1,.85c1.4,2.78,2.59,5.67,3.78,8.68a16.56,16.56,0,0,1,.67-9.06c.21-.56.64-1.22,1.23-1.08.42.1.62.58.74,1a37.56,37.56,0,0,1,1.31,9,26.63,26.63,0,0,1,1.4-8.44c.13-.4.34-.84.75-.92a.8.8,0,0,1,.77.39,2.31,2.31,0,0,1,.29.86,25.34,25.34,0,0,1,.24,6.91c.38-1.62.75-3.24,1.12-4.85a2.1,2.1,0,0,1,.34-.86.7.7,0,0,1,.83-.23,1,1,0,0,1,.39.76C781.77,193.57,779.74,207.63,771.83,208Z"/><path class="cls-4" d="M898.54,325.64q1.71-18.4,2.22-36.89c.34-12.31.31-24.64-.3-36.93-.05-1.08-.34-1.07-.32,0,.27,12.29-.11,24.59-.85,36.85s-1.85,24.51-3.26,36.7C895,333.72,897.74,334.06,898.54,325.64Z"/><path class="cls-5" d="M906.57,232.3a7.29,7.29,0,0,0-11.3.95,24.64,24.64,0,0,0-1.51,25.53c1.48,2.82,4,5.59,7.18,5.56,4.58,0,3.19,2.25,7.43-6.23a27.4,27.4,0,0,0,3-16A17.59,17.59,0,0,0,906.57,232.3Z"/><path class="cls-6" d="M898.57,233.49c-5.37,7.8-6.66,18.24-3.37,26.3A49.74,49.74,0,0,1,898.57,233.49Z"/><path class="cls-6" d="M900.07,233.69a97.7,97.7,0,0,0-3.21,14,29.92,29.92,0,0,0,1.06,14A106.88,106.88,0,0,1,900.07,233.69Z"/><path class="cls-6" d="M901.83,233.26q-.95,14.19-1.88,28.38A64.87,64.87,0,0,0,901.83,233.26Z"/><path class="cls-6" d="M903.26,233.62a100.64,100.64,0,0,1-.62,26.8A30.74,30.74,0,0,0,903.26,233.62Z"/><path class="cls-6" d="M904.7,234.26a56.72,56.72,0,0,1,.86,25.91A35.65,35.65,0,0,0,908.85,247,19.18,19.18,0,0,0,904.7,234.26Z"/><path class="cls-5" d="M900.74,231.65c-2.09-.55-4.49-5.46-4.49-5.46l2.87,2.06c-.44-2,.48-6.17.48-6.17a29.29,29.29,0,0,1,1.36,5.28c.45-1.74,3.12-4.22,3.12-4.22s-.39,3.59-.58,5.38c.79-1.67,4.09-3.51,4.09-3.51S904.46,232.62,900.74,231.65Z"/><path class="cls-7" d="M900.22,265.68c-5.36-1-8.54-7.24-9.77-12.55a2.72,2.72,0,0,1-.08-1.17,1,1,0,0,1,.77-.8c.57-.08,1,.48,1.31,1,.89,1.5,1.7,3.05,2.45,4.63a14.6,14.6,0,0,1-.85-7.23,2.17,2.17,0,0,1,.29-.91.8.8,0,0,1,.82-.38c.35.09.54.46.68.79a43.86,43.86,0,0,1,2.4,7.39c-.31-2.72-.59-5.62.67-8,.18-.34.48-.71.86-.65s.53.5.62.87c.6,2.5,1,5,1.4,7.7a13.8,13.8,0,0,1,2.26-7.17c.27-.41.74-.86,1.19-.64a1.05,1.05,0,0,1,.4.95A30.61,30.61,0,0,1,905,257a22.1,22.1,0,0,1,2.72-6.54c.18-.29.44-.61.78-.6a.67.67,0,0,1,.55.46,1.9,1.9,0,0,1,.07.75,21.23,21.23,0,0,1-1.11,5.61c.61-1.23,1.21-2.46,1.82-3.7a1.53,1.53,0,0,1,.44-.62.57.57,0,0,1,.71,0,.8.8,0,0,1,.16.68C911,255.92,906.66,266.87,900.22,265.68Z"/><path class="cls-4" d="M899.54,327.7q5.25-12.4,9.71-25.13c3-8.47,5.67-17,8-25.71.21-.76,0-.82-.22-.06-2.54,8.59-5.53,17.05-8.75,25.4s-6.72,16.6-10.4,24.76C895.31,332.53,897.11,333.37,899.54,327.7Z"/><path class="cls-5" d="M925.79,264.66a5.33,5.33,0,0,0-8.06-1.84A17.95,17.95,0,0,0,911,280.21c.41,2.29,1.54,4.77,3.76,5.45,3.19,1,1.72,2.27,6.54-2.68A19.94,19.94,0,0,0,927,272.56,12.87,12.87,0,0,0,925.79,264.66Z"/><path class="cls-6" d="M920,263.72c-5.45,4.22-8.67,11.19-8.16,17.52A36.15,36.15,0,0,1,920,263.72Z"/><path class="cls-6" d="M921,264.19a72.17,72.17,0,0,0-5.33,9,21.82,21.82,0,0,0-2.37,10A78.26,78.26,0,0,1,921,264.19Z"/><path class="cls-6" d="M922.28,264.28l-7.59,19.29A47.21,47.21,0,0,0,922.28,264.28Z"/><path class="cls-6" d="M923.2,264.84a73.29,73.29,0,0,1-6.37,18.48A22.42,22.42,0,0,0,923.2,264.84Z"/><path class="cls-6" d="M924.06,265.61a41.28,41.28,0,0,1-5.15,18.18,25.84,25.84,0,0,0,5.21-8.44A14,14,0,0,0,924.06,265.61Z"/><path class="cls-5" d="M921.89,262.92c-1.33-.84-1.91-4.78-1.91-4.78l1.53,2.06a14.81,14.81,0,0,1,1.7-4.18,20.87,20.87,0,0,1-.22,4c.69-1.11,3.1-2.24,3.1-2.24l-1.59,3.61c.91-1,3.61-1.53,3.61-1.53S924.25,264.41,921.89,262.92Z"/><path class="cls-7" d="M914,286.44c-3.51-1.87-4.33-6.92-4-10.88a2,2,0,0,1,.21-.83.72.72,0,0,1,.71-.39c.41.07.59.56.69,1,.28,1.24.51,2.5.67,3.76a10.63,10.63,0,0,1,1-5.21,1.51,1.51,0,0,1,.4-.57.56.56,0,0,1,.65-.08.85.85,0,0,1,.3.7,32.28,32.28,0,0,1,0,5.66c.39-1.95.83-4,2.25-5.43.2-.2.49-.39.74-.26s.25.46.23.73c-.13,1.88-.41,3.74-.73,5.67a10,10,0,0,1,3.16-4.48c.28-.23.71-.44,1-.18s.14.49.08.75a22.6,22.6,0,0,1-2.11,5.06,16,16,0,0,1,3.34-3.94c.19-.16.44-.33.67-.24a.49.49,0,0,1,.28.44,1.24,1.24,0,0,1-.12.53,15.37,15.37,0,0,1-2,3.66l2.08-2.17a1.45,1.45,0,0,1,.44-.34.42.42,0,0,1,.5.14.61.61,0,0,1,0,.51C923.6,282,918.2,288.68,914,286.44Z"/><path class="cls-4" d="M897.61,326.64q-1.86-13.33-4.56-26.55c-1.81-8.79-3.88-17.53-6.36-26.15-.21-.76-.42-.71-.23.06,2.24,8.68,4,17.47,5.54,26.29s2.75,17.7,3.78,26.59C896.47,333,898.44,332.75,897.61,326.64Z"/><path class="cls-5" d="M887.78,259.07a5.32,5.32,0,0,0-7.86,2.56A18,18,0,0,0,883.09,280c1.53,1.76,3.77,3.3,6,2.75,3.24-.79,2.63,1.07,4.23-5.65a19.91,19.91,0,0,0-.51-11.84A12.91,12.91,0,0,0,887.78,259.07Z"/><path class="cls-6" d="M882.3,261.25c-2.51,6.42-1.69,14.05,2,19.22A36.15,36.15,0,0,1,882.3,261.25Z"/><path class="cls-6" d="M883.4,261.14a71.6,71.6,0,0,0,.05,10.46,21.85,21.85,0,0,0,3.08,9.77A78.27,78.27,0,0,1,883.4,261.14Z"/><path class="cls-6" d="M884.58,260.54,888,281A47.47,47.47,0,0,0,884.58,260.54Z"/><path class="cls-6" d="M885.65,260.55a73.22,73.22,0,0,1,4,19.13A22.46,22.46,0,0,0,885.65,260.55Z"/><path class="cls-6" d="M886.78,260.77A41.29,41.29,0,0,1,891.7,279a26.13,26.13,0,0,0,.14-9.93A14,14,0,0,0,886.78,260.77Z"/><path class="cls-5" d="M883.54,259.58c-1.58,0-4.1-3.13-4.1-3.13l2.38,1a14.9,14.9,0,0,1-.69-4.46A21,21,0,0,1,883,256.5c0-1.31,1.51-3.52,1.51-3.52l.48,3.92c.29-1.32,2.32-3.17,2.32-3.17S886.33,259.65,883.54,259.58Z"/><path class="cls-7" d="M888.83,283.82c-4,.19-7.26-3.72-9-7.28a1.87,1.87,0,0,1-.25-.82.73.73,0,0,1,.41-.7c.39-.15.8.17,1.09.48.88.92,1.72,1.88,2.51,2.88a10.58,10.58,0,0,1-1.8-5,1.5,1.5,0,0,1,.05-.7.57.57,0,0,1,.52-.4c.26,0,.46.23.61.45a31.69,31.69,0,0,1,2.93,4.84c-.67-1.88-1.35-3.89-.86-5.82.07-.27.22-.58.5-.6s.46.26.59.51c.84,1.68,1.56,3.42,2.27,5.24a10.09,10.09,0,0,1,.41-5.47c.13-.34.39-.74.74-.65s.37.35.45.61a22.55,22.55,0,0,1,.79,5.42,16,16,0,0,1,.84-5.09c.08-.24.21-.51.45-.55a.48.48,0,0,1,.47.23,1.33,1.33,0,0,1,.17.52,15.31,15.31,0,0,1,.15,4.17c.23-1,.45-2,.68-2.93a1.23,1.23,0,0,1,.2-.52.43.43,0,0,1,.5-.13.54.54,0,0,1,.23.45C894.82,275.1,893.6,283.58,888.83,283.82Z"/><path class="cls-8" d="M1090.16,314.53c-4.28-10.74-5.17-22.72-4-34.42s4.34-23.27,8.47-34.53,9-22.35,13.47-33.74a216.63,216.63,0,0,0,10.79-35.28c4.5-20.75,6.2-43.77,3.49-66.09s-10.26-43.68-21.53-60c-.35-.51-.62,0-.37.54,19.88,41.72,23.54,90.72,11,135.29-6.66,24.09-19.35,46.05-26.83,70.6-3.79,12.74-6,26.18-5.09,39.79.1,2.1.39,4.17.63,6.23a52.34,52.34,0,0,0,1.27,6.05,30.34,30.34,0,0,0,5.06,10.69c1.91,2.39,3.45,2.46,4.19,1.27a4.36,4.36,0,0,0,.46-2.58A14.94,14.94,0,0,0,1090.16,314.53Z"/><path class="cls-9" d="M1107.07,61.23c-1.29-3.34-4.19-5.77-7.13-7.81s-6.1-3.9-8.38-6.65c-2.6-3.14-3.85-7.6-2.4-11.41s6-6.39,9.82-5a9,9,0,0,1,4.81,5,23.38,23.38,0,0,1,1.42,7C1105.69,47.88,1105.83,53.36,1107.07,61.23Z"/><path class="cls-8" d="M1119.73,105.44a49.69,49.69,0,0,1,4.46-23.16,48.44,48.44,0,0,1,14.75-18.77c.55-.44.37-.7-.21-.28a51.47,51.47,0,0,0-21.72,42.3c.07,2.87,1,4.21,1.66,4.11S1119.9,108.12,1119.73,105.44Z"/><path class="cls-9" d="M1130.93,70.23c2.61-4.7,5-12.1,8.52-16.14,1.6-1.82,3.88-3.63,6.19-2.93a4.86,4.86,0,0,1,3,3.89c.77,4.06-.6,7.66-4.23,9.65S1135.43,70.17,1130.93,70.23Z"/><path class="cls-8" d="M1120.24,117.24A74.78,74.78,0,0,0,1110,99.63c-4.18-5.33-9.12-10.21-15.1-13.4-.52-.29-.67,0-.17.31,5.73,3.47,10.25,8.57,14,14a79.18,79.18,0,0,1,9,17.66C1119.12,122.45,1122,121.65,1120.24,117.24Z"/><path class="cls-9" d="M1103.9,93.43a37.08,37.08,0,0,1-5.21-9.19,23.83,23.83,0,0,0-2.62-6.41,6.9,6.9,0,0,0-5.75-3.33c-3.39.18-5.76,4-5.15,7.37s3.46,5.91,6.62,7.14S1100.55,93.38,1103.9,93.43Z"/><path class="cls-8" d="M1121.94,148.44a69.76,69.76,0,0,1,24.5-29.27c.47-.33.3-.6-.19-.3a70.23,70.23,0,0,0-26.77,28.39C1117.49,151.4,1120.24,152.44,1121.94,148.44Z"/><path class="cls-8" d="M1116.91,169.68a39,39,0,0,0-3.28-11.29c-1.58-3.54-3.41-6.9-5.17-10.27a84.67,84.67,0,0,1-4.77-10.29,28.77,28.77,0,0,1-2-11.08c0-.67-.32-.7-.35,0a30,30,0,0,0,1.41,11.39,87.53,87.53,0,0,0,4.24,10.7c3.13,6.92,6.64,13.83,7.16,21.12.14,2.45.73,3.72,1.47,3.78.36,0,.71-.28,1-1A6.27,6.27,0,0,0,1116.91,169.68Z"/><path class="cls-8" d="M1110.93,204.25a115.59,115.59,0,0,0,26.69-22,135.45,135.45,0,0,0,19.6-28.3c.48-.89.19-1-.31-.17-11.22,19.92-27.54,37.07-47.35,48.09-3.38,1.87-4.81,3.35-4.49,4S1107.49,206.27,1110.93,204.25Z"/><path class="cls-8" d="M1100.77,217.29c-3.25-8.71-7.4-16.93-10.52-25.52s-5.22-17.69-4.09-26.84c.09-.8-.22-.86-.35-.05-1.51,9.17.22,18.58,2.94,27.39s6.55,17.3,9.44,25.93c1,3,2.1,4.23,2.78,4S1101.88,220.29,1100.77,217.29Z"/><path class="cls-8" d="M1086.74,274.52a41.48,41.48,0,0,1,9-9.9c3.49-2.9,7.28-5.49,11.08-8.14a88.59,88.59,0,0,0,10.88-8.67,33.64,33.64,0,0,0,8.06-11.28c.32-.75,0-.87-.32-.14a32.47,32.47,0,0,1-8.38,10.73,87.72,87.72,0,0,1-11.13,8c-3.89,2.46-7.84,4.9-11.57,7.74a42.5,42.5,0,0,0-9.9,10.16c-1.81,2.8-1.68,4.68-1.06,4.91S1085.2,277.08,1086.74,274.52Z"/><path class="cls-8" d="M1086.57,261c-1.26-7.93-4.52-15.08-6.83-22.39a53.78,53.78,0,0,1-2.43-11.21,27.12,27.12,0,0,1,1.13-11.35c.2-.64-.09-.76-.33-.12a28.24,28.24,0,0,0-1.74,11.53,56,56,0,0,0,1.84,11.59c2,7.55,4.78,14.83,5.65,22.32.29,2.53,1,3.78,1.71,3.77S1087,263.72,1086.57,261Z"/><path class="cls-9" d="M1077.12,222.18a16.73,16.73,0,0,1-3.07-17.71,9.14,9.14,0,0,1,2.77-3.77,4.85,4.85,0,0,1,4.47-.79c2.13.82,3.1,3.33,3.19,5.6a16.68,16.68,0,0,1-2.28,8.55C1080.76,216.67,1078.87,219,1077.12,222.18Z"/><path class="cls-9" d="M1085.87,175.74a14.59,14.59,0,0,1-4.49-15,9.4,9.4,0,0,1,2.32-4.11A5.63,5.63,0,0,1,1088,155c2.65.22,4.64,2.79,5,5.42s-.63,5.26-1.87,7.61A51.71,51.71,0,0,1,1085.87,175.74Z"/><path class="cls-9" d="M1148.33,169.28c0-5.14.2-10.66,3.19-14.84,1.62-2.26,4.29-4,7-3.62,3.15.46,5.35,3.8,5.2,7a10.69,10.69,0,0,1-4.79,7.87C1156.38,167.52,1153.29,168.52,1148.33,169.28Z"/><path class="cls-9" d="M1116.47,248.37a46.6,46.6,0,0,1,.24-11,15.9,15.9,0,0,1,5-9.51,7.78,7.78,0,0,1,6.33-2c2.64.53,4.61,2.94,5.29,5.55,1,4-.57,8.39-3.48,11.32S1122.91,247.33,1116.47,248.37Z"/><path class="cls-9" d="M1103.59,139.51l2.34-12.84a18.09,18.09,0,0,0,.44-4.91,6.12,6.12,0,0,0-2.12-4.31c-2.12-1.62-5.31-1-7.39.63-3.33,2.65-4.37,7.55-3.06,11.6S1098.42,136.91,1103.59,139.51Z"/><path class="cls-9" d="M1134,128.77a35.26,35.26,0,0,1,3.35-8.86,15.78,15.78,0,0,1,6.69-6.53,10.26,10.26,0,0,1,9.15,0,7.64,7.64,0,0,1,3.93,8c-.59,2.79-3,4.92-5.62,6a26.61,26.61,0,0,1-8.39,1.41A55.13,55.13,0,0,1,1134,128.77Z"/><path class="cls-8" d="M1376.7,280a24.24,24.24,0,0,1-1.32-11.3,45,45,0,0,1,2.78-11.33c1.35-3.71,3-7.34,4.42-11.08a70.9,70.9,0,0,0,3.54-11.59,66.14,66.14,0,0,0,1.15-21.69,44.24,44.24,0,0,0-7.07-19.69c-.11-.18-.2,0-.12.17a63.88,63.88,0,0,1,3.6,44.42c-2.18,7.91-6.35,15.12-8.81,23.18a37,37,0,0,0-1.67,13.06c0,.69.13,1.37.21,2.05a19,19,0,0,0,.41,2,9.87,9.87,0,0,0,1.67,3.5c.62.79,1.13.81,1.37.42a1.41,1.41,0,0,0,.15-.85A4.5,4.5,0,0,0,1376.7,280Z"/><path class="cls-9" d="M1382.25,196.87a5.91,5.91,0,0,0-2.34-2.57,13,13,0,0,1-2.75-2.18,3.89,3.89,0,0,1-.79-3.74,2.67,2.67,0,0,1,3.23-1.63,3,3,0,0,1,1.58,1.65,7.84,7.84,0,0,1,.46,2.3C1381.8,192.49,1381.85,194.29,1382.25,196.87Z"/><path class="cls-8" d="M1386.41,211.39a16.3,16.3,0,0,1,1.46-7.61,16,16,0,0,1,4.85-6.16c.18-.15.12-.23-.07-.09a16.82,16.82,0,0,0-7.13,13.89c0,.94.32,1.38.54,1.35S1386.47,212.27,1386.41,211.39Z"/><path class="cls-9" d="M1390.09,199.83c.86-1.55,1.63-4,2.8-5.31.52-.59,1.27-1.19,2-1a1.63,1.63,0,0,1,1,1.28,2.81,2.81,0,0,1-1.39,3.17C1393.34,198.67,1391.56,199.81,1390.09,199.83Z"/><path class="cls-8" d="M1386.58,215.26a24.87,24.87,0,0,0-3.36-5.78,16.3,16.3,0,0,0-5-4.4c-.17-.1-.22,0-.06.1a15.52,15.52,0,0,1,4.6,4.6,26.15,26.15,0,0,1,2.94,5.8C1386.21,217,1387.14,216.71,1386.58,215.26Z"/><path class="cls-9" d="M1381.21,207.44a12.32,12.32,0,0,1-1.71-3,7.56,7.56,0,0,0-.86-2.1,2.26,2.26,0,0,0-1.89-1.09,2,2,0,0,0-1.69,2.42,3.35,3.35,0,0,0,2.18,2.34C1378.28,206.39,1380.11,207.42,1381.21,207.44Z"/><path class="cls-8" d="M1387.14,225.5a22.85,22.85,0,0,1,8-9.61c.15-.1.1-.19-.06-.1a23,23,0,0,0-8.79,9.33C1385.67,226.47,1386.58,226.82,1387.14,225.5Z"/><path class="cls-8" d="M1385.48,232.48a12.59,12.59,0,0,0-1.07-3.71c-.52-1.16-1.12-2.27-1.7-3.37a29.5,29.5,0,0,1-1.57-3.38,9.61,9.61,0,0,1-.64-3.64c0-.22-.1-.23-.11,0a9.68,9.68,0,0,0,.46,3.74,26.82,26.82,0,0,0,1.39,3.52c1,2.27,2.18,4.54,2.35,6.93.05.81.24,1.22.48,1.24s.24-.09.32-.31A2,2,0,0,0,1385.48,232.48Z"/><path class="cls-8" d="M1383.52,243.83a37.87,37.87,0,0,0,8.76-7.22,44.84,44.84,0,0,0,6.44-9.29c.16-.3.06-.35-.1-.06a41.1,41.1,0,0,1-15.55,15.79c-1.11.61-1.58,1.1-1.47,1.31S1382.39,244.49,1383.52,243.83Z"/><path class="cls-8" d="M1380.18,248.11c-1.06-2.86-2.42-5.56-3.45-8.38a19.27,19.27,0,0,1-1.34-8.81c0-.27-.08-.28-.12,0a19.94,19.94,0,0,0,1,9c.9,2.91,2.15,5.68,3.1,8.52.32,1,.69,1.39.91,1.32S1380.55,249.09,1380.18,248.11Z"/><path class="cls-8" d="M1375.58,266.9a13.55,13.55,0,0,1,3-3.25c1.14-1,2.39-1.81,3.63-2.67a29.84,29.84,0,0,0,3.58-2.85,11.11,11.11,0,0,0,2.64-3.7c.11-.25,0-.29-.1-.05a10.74,10.74,0,0,1-2.75,3.52,29.09,29.09,0,0,1-3.66,2.64c-1.27.81-2.57,1.61-3.8,2.54a14,14,0,0,0-3.25,3.34c-.59.92-.55,1.54-.35,1.61S1375.07,267.74,1375.58,266.9Z"/><path class="cls-8" d="M1375.52,262.46a50.13,50.13,0,0,0-2.24-7.35,17.91,17.91,0,0,1-.8-3.68,8.9,8.9,0,0,1,.37-3.73c.07-.21,0-.25-.11,0a9.38,9.38,0,0,0-.57,3.79,18.71,18.71,0,0,0,.61,3.8,55.41,55.41,0,0,1,1.85,7.33c.1.83.32,1.24.56,1.24S1375.66,263.35,1375.52,262.46Z"/><path class="cls-9" d="M1372.42,249.71a5.48,5.48,0,0,1-1-5.81,3,3,0,0,1,.91-1.24,1.6,1.6,0,0,1,1.47-.26,2,2,0,0,1,1,1.84,5.48,5.48,0,0,1-.75,2.81C1373.62,247.91,1373,248.67,1372.42,249.71Z"/><path class="cls-9" d="M1375.29,234.47a4.79,4.79,0,0,1-1.47-4.91,3.12,3.12,0,0,1,.76-1.35,1.82,1.82,0,0,1,1.42-.55,2,2,0,0,1,1.63,1.78,4.26,4.26,0,0,1-.61,2.49A17.45,17.45,0,0,1,1375.29,234.47Z"/><path class="cls-9" d="M1395.8,232.35c0-1.69.06-3.5,1-4.88a2.56,2.56,0,0,1,2.31-1.19,2.23,2.23,0,0,1,1.71,2.3,3.53,3.53,0,0,1-1.58,2.58A7.76,7.76,0,0,1,1395.8,232.35Z"/><path class="cls-9" d="M1385.34,258.31a15.38,15.38,0,0,1,.08-3.59,5.22,5.22,0,0,1,1.65-3.13,2.53,2.53,0,0,1,2.07-.64,2.41,2.41,0,0,1,1.74,1.82,4,4,0,0,1-1.14,3.72A7.53,7.53,0,0,1,1385.34,258.31Z"/><path class="cls-9" d="M1381.11,222.57c.26-1.4.51-2.81.77-4.22a5.82,5.82,0,0,0,.14-1.61,1.79,1.79,0,0,0-3.12-1.2,3.54,3.54,0,0,0-1,3.8A5.74,5.74,0,0,0,1381.11,222.57Z"/><path class="cls-9" d="M1391.1,219.05a11.49,11.49,0,0,1,1.1-2.91,5.24,5.24,0,0,1,2.2-2.15,3.37,3.37,0,0,1,3,0,2.49,2.49,0,0,1,1.29,2.6,2.94,2.94,0,0,1-1.84,2,8.88,8.88,0,0,1-2.76.47A19.78,19.78,0,0,1,1391.1,219.05Z"/><path class="cls-10" d="M1265,312.63c.73-8.29,1.87-16.5,3-24.71s2.56-16.35,3.58-24.56,1.83-16.45,2.32-24.71.76-16.55.71-24.84a.11.11,0,0,1,.11-.11.1.1,0,0,1,.11.11q.54,12.42.2,24.89c-.26,8.3-.83,16.59-1.65,24.86s-1.7,16.54-3.15,24.71-3,16.32-5,24.39a.11.11,0,0,1-.13.09A.13.13,0,0,1,1265,312.63Z"/><path class="cls-10" d="M1260.75,214.36q1.24,12.24,2.26,24.51t1.69,24.56c.48,8.19,1.07,16.38,1.12,24.59s0,16.42-.59,24.62a.12.12,0,0,1-.13.11.11.11,0,0,1-.1-.1c-.68-8.2-1.07-16.38-1.44-24.57s-.39-16.38-.67-24.57-.6-16.38-1-24.57-.83-16.37-1.36-24.56a.13.13,0,0,1,.11-.12A.12.12,0,0,1,1260.75,214.36Z"/><path class="cls-11" d="M1265,187.45a4.38,4.38,0,0,0-8.17-.62,26.67,26.67,0,0,0-2,10.58,66.69,66.69,0,0,0,1.94,17.17,10.89,10.89,0,0,0,1.53,3.8,4.11,4.11,0,0,0,3.48,1.86c2.5-.19,3.73-3.09,4.24-5.54a56.78,56.78,0,0,0-1-27.17Z"/><path class="cls-12" d="M1258.47,206.22a73.75,73.75,0,0,1-.68-11.37c0-.43-.14-.45-.18,0a72.7,72.7,0,0,0,1.32,22.25c.63,2.62,1.63,2.57,1.26.31C1259.68,214,1259,210.13,1258.47,206.22Z"/><path class="cls-12" d="M1262.84,199.47c-.44,4.85-1,9.82-1.46,14.71-.09-2.3-.22-4.7-.3-7.12a92,92,0,0,1,.19-10.85c0-.4-.11-.43-.17,0a87.76,87.76,0,0,0-.82,21.18c.19,1.86.77,2.4,1,1.69.27.43.72.1.92-1.06,1-5.6.63-12.8.76-18.52C1263,199.13,1262.87,199.12,1262.84,199.47Z"/><path class="cls-12" d="M1264.12,206.31c-.5,4.21-1.24,8.56-1.61,12.77-.13,1.54.82,1.74,1.13.43.95-4,.56-9.11.65-13.19C1264.3,206.07,1264.15,206.06,1264.12,206.31Z"/><path class="cls-13" d="M1261.2,222.24a17.37,17.37,0,0,1-6-6.47,3.22,3.22,0,0,1-.47-1.45,1.24,1.24,0,0,1,.75-1.23,1.77,1.77,0,0,1,1.58.51,14.43,14.43,0,0,1,3,3.2,7.49,7.49,0,0,1-.26-5.41c.27-.79,1-1.68,1.77-1.4a1.71,1.71,0,0,1,.88,1.27,18.54,18.54,0,0,1,.7,5.64,10.54,10.54,0,0,1,2.48-4.76,1.45,1.45,0,0,1,1.18-.62c.68.1.9,1,.9,1.65A9.82,9.82,0,0,1,1261.2,222.24Z"/><path d="M1260.93,184.63c-.19-.85-.38-1.71-.56-2.56a11.33,11.33,0,0,0-.65-2.53c-.35-.71-1.65-.74-1.7.21a11.17,11.17,0,0,0,.39,2.56l.52,2.58C1259.18,186.16,1261.21,185.9,1260.93,184.63Z"/><path d="M1260,186.18a1.57,1.57,0,0,1-.52-.08,1.42,1.42,0,0,1-1-1.12l-.52-2.58-.12-.57a8.06,8.06,0,0,1-.28-2.1,1.19,1.19,0,0,1,1-1.14,1.51,1.51,0,0,1,1.62.74,7.38,7.38,0,0,1,.54,2c0,.23.09.45.13.67l.57,2.56a1.3,1.3,0,0,1-.38,1.28A1.54,1.54,0,0,1,1260,186.18Zm-1.16-6.7h-.11a.27.27,0,0,0-.23.28,7.25,7.25,0,0,0,.26,1.86c0,.2.09.4.13.59l.51,2.58a.54.54,0,0,0,.37.43.68.68,0,0,0,.64-.11.37.37,0,0,0,.09-.39l-.56-2.56c-.05-.23-.1-.47-.14-.71a6.49,6.49,0,0,0-.47-1.72A.55.55,0,0,0,1258.82,179.48Z"/><path class="cls-11" d="M1285.74,186.57a4.37,4.37,0,0,0-7.84-2.36,26.67,26.67,0,0,0-4.27,9.88,66.78,66.78,0,0,0-1.8,17.19,11.08,11.08,0,0,0,.67,4.05,4.12,4.12,0,0,0,3,2.56c2.47.35,4.3-2.22,5.33-4.5a56.8,56.8,0,0,0,4.91-26.74Z"/><path class="cls-12" d="M1282,197c0-.34-.11-.36-.18,0a49.29,49.29,0,0,1-4.6,13.41c1.12-3.26,1.89-7,2.75-10,.07-.25-.07-.31-.16-.05-1.35,3.51-2.88,7.07-4.21,10.62.4-2.5.81-5.17,1.35-7.83a62.5,62.5,0,0,1,2.85-10.17c.14-.38,0-.45-.17-.07a64.68,64.68,0,0,0-5.09,16.23,40.09,40.09,0,0,1-.21-4.28,26.91,26.91,0,0,1,1.4-8.79c.1-.32,0-.38-.17-.06a27.79,27.79,0,0,0-1.69,17.44c.07.24.14.44.21.62.08.62.28.89.49.8.28.24.53.08.58-.4a.6.6,0,0,0,.16-.08c0,.57.32.68.88.15-.17.6.34.89,1.08.31a12.69,12.69,0,0,0,3.44-5,24.8,24.8,0,0,0,1.49-5.85c0-.22-.12-.25-.18,0a24,24,0,0,1-4.72,9,28.36,28.36,0,0,0,3.07-7.09A50.34,50.34,0,0,0,1282,197Z"/><path class="cls-13" d="M1274.57,219.73a17.43,17.43,0,0,1-4.47-7.61,3.3,3.3,0,0,1-.15-1.52,1.28,1.28,0,0,1,1-1,1.82,1.82,0,0,1,1.43.84,14.43,14.43,0,0,1,2.28,3.78,7.56,7.56,0,0,1,.91-5.34c.44-.72,1.32-1.43,2-1a1.7,1.7,0,0,1,.59,1.43,18.21,18.21,0,0,1-.53,5.65,10.63,10.63,0,0,1,3.44-4.11,1.5,1.5,0,0,1,1.29-.35c.64.24.68,1.13.52,1.8A9.78,9.78,0,0,1,1274.57,219.73Z"/><path d="M1282.41,183v-2.63a11.39,11.39,0,0,0-.08-2.61c-.19-.76-1.46-1.07-1.71-.15a11.13,11.13,0,0,0-.17,2.58l0,2.63C1280.37,184.07,1282.41,184.25,1282.41,183Z"/><path d="M1281.5,184.3a1.69,1.69,0,0,1-.84-.23,1.46,1.46,0,0,1-.72-1.31l0-2.63c0-.19,0-.38,0-.58a7.94,7.94,0,0,1,.19-2.11,1.17,1.17,0,0,1,1.18-.91,1.5,1.5,0,0,1,1.42,1.07,7.73,7.73,0,0,1,.11,2c0,.23,0,.46,0,.68V183a1.28,1.28,0,0,1-.64,1.16A1.42,1.42,0,0,1,1281.5,184.3Zm-.15-6.85a.26.26,0,0,0-.28.23,7.05,7.05,0,0,0-.16,1.87q0,.3,0,.6l-.05,2.63a.51.51,0,0,0,.27.49.64.64,0,0,0,.64,0,.36.36,0,0,0,.18-.36v-2.63c0-.23,0-.47,0-.71a6.88,6.88,0,0,0-.09-1.78.56.56,0,0,0-.53-.38Z"/><path class="cls-10" d="M979.33,133.42q1.89,18.66,3.44,37.37t2.59,37.44c.72,12.49,1.62,25,1.7,37.51s0,25-.91,37.55a.18.18,0,0,1-.18.16.18.18,0,0,1-.16-.16c-1-12.5-1.63-25-2.2-37.46s-.59-25-1-37.47-.92-25-1.55-37.46-1.26-25-2.07-37.45a.18.18,0,0,1,.35,0Z"/><path class="cls-11" d="M985.76,92.39a6.68,6.68,0,0,0-12.46-1c-2.26,4.86-3,10.68-3.11,16.12a101.78,101.78,0,0,0,3,26.19,16.59,16.59,0,0,0,2.32,5.8,6.3,6.3,0,0,0,5.32,2.83c3.8-.29,5.68-4.71,6.46-8.45a86.45,86.45,0,0,0-1.47-41.43Z"/><path class="cls-12" d="M975.85,121a112.65,112.65,0,0,1-1-17.35c0-.65-.22-.68-.27,0a110.55,110.55,0,0,0,2,33.92c1,4,2.48,3.92,1.93.48C977.69,132.8,976.61,127,975.85,121Z"/><path class="cls-12" d="M982.51,110.71c-.66,7.39-1.57,15-2.22,22.43-.14-3.5-.34-7.17-.45-10.86a136.05,136.05,0,0,1,.29-16.54c0-.62-.18-.66-.27,0A134.7,134.7,0,0,0,978.61,138c.29,2.85,1.18,3.66,1.61,2.59.41.65,1.09.14,1.4-1.62,1.49-8.55,1-19.52,1.16-28.24C982.79,110.19,982.56,110.17,982.51,110.71Z"/><path class="cls-12" d="M984.46,121.14c-.75,6.42-1.88,13-2.45,19.48-.2,2.33,1.25,2.65,1.73.65,1.44-6.05.84-13.89,1-20.11C984.74,120.78,984.51,120.75,984.46,121.14Z"/><path class="cls-13" d="M980,145.43a26.56,26.56,0,0,1-9.16-9.87,4.93,4.93,0,0,1-.72-2.21,2,2,0,0,1,1.15-1.88,2.76,2.76,0,0,1,2.41.78,22.16,22.16,0,0,1,4.63,4.89,11.46,11.46,0,0,1-.39-8.25c.41-1.22,1.49-2.56,2.69-2.14a2.64,2.64,0,0,1,1.35,1.94,28.08,28.08,0,0,1,1.07,8.6,15.93,15.93,0,0,1,3.78-7.25,2.22,2.22,0,0,1,1.8-1c1,.15,1.37,1.47,1.36,2.52A14.94,14.94,0,0,1,980,145.43Z"/><path d="M979.61,88.09l-.87-3.92a16.74,16.74,0,0,0-1-3.85c-.53-1.09-2.52-1.12-2.59.32a16.32,16.32,0,0,0,.6,3.91l.78,3.92C976.94,90.42,980,90,979.61,88.09Z"/><path d="M978.15,90.45a2.42,2.42,0,0,1-.79-.13,2.21,2.21,0,0,1-1.5-1.71l-.78-3.92c-.06-.29-.12-.58-.19-.87a12.29,12.29,0,0,1-.42-3.21,1.79,1.79,0,0,1,1.47-1.74A2.27,2.27,0,0,1,978.39,80a11.43,11.43,0,0,1,.84,3c.06.35.12.69.2,1l.86,3.91a2,2,0,0,1-.57,1.94A2.33,2.33,0,0,1,978.15,90.45Zm-1.76-10.22-.17,0a.4.4,0,0,0-.35.43,11.07,11.07,0,0,0,.39,2.83c.07.3.14.6.2.9l.78,3.92a.79.79,0,0,0,.56.66,1,1,0,0,0,1-.16.54.54,0,0,0,.14-.59l-.86-3.91q-.12-.52-.21-1.08a10.38,10.38,0,0,0-.71-2.62A.85.85,0,0,0,976.39,80.23Z"/></g></g></svg>