<svg xmlns="http://www.w3.org/2000/svg" viewBox="0 0 1600 2289"><defs><style>.cls-1{fill:#ffdba4;}.cls-2{fill:#ffca75;}</style></defs><g id="Livello_2" data-name="Livello 2"><g id="Livello_1-2" data-name="Livello 1"><path class="cls-1" d="M1600,32.13c-5,.9-9.69,1.69-14.11,2.33-102.66,14.84-211.07,20.81-326,23.5C995.41,64.18,771.84,27.09,525.45,7.3,435.83.1,326.83-2.53,235.75,2.87,141.73,8.44,72.8,23.86,0,38.81V2289H1600Z"/><path class="cls-2" d="M1600,106.13c-5,.9-9.69,1.69-14.11,2.33-102.66,14.84-211.07,20.81-326,23.5-264.51,6.22-488.08-30.87-734.47-50.66-89.62-7.2-198.62-9.83-289.7-4.43-94,5.57-162.95,21-235.75,35.94V2010H1600Z"/></g></g></svg>