<svg xmlns="http://www.w3.org/2000/svg" xmlns:xlink="http://www.w3.org/1999/xlink" viewBox="0 0 795.01 472.28"><defs><style>.cls-1{fill:#89adfd;}.cls-2{isolation:isolate;}.cls-3{fill:#78a883;}.cls-4{fill:#3e9379;}.cls-5,.cls-7,.cls-8{fill:#606060;}.cls-6{clip-path:url(#clip-path);}.cls-7{opacity:0.2;}.cls-7,.cls-8{mix-blend-mode:multiply;}.cls-8{opacity:0.54;}.cls-9{fill:#ad6442;}.cls-10{fill:#b56d46;}.cls-11{fill:#fdd9c0;}.cls-12{fill:#704763;}.cls-13{fill:#e6b65f;}.cls-14{fill:#0c4e65;}.cls-15{fill:#6da4ae;}.cls-16{fill:#14293a;}.cls-17{fill:#498fb3;}.cls-18{fill:none;}.cls-19{fill:#ca5f5c;}.cls-20{fill:#f2bfad;}.cls-21{fill:#e7bf66;}.cls-22{fill:#0a4b61;}.cls-23{fill:#3d7f31;}.cls-24{fill:#fff;}.cls-25{fill:#fabd28;}</style><clipPath id="clip-path"><path class="cls-1" d="M613.23,296.58S510.76,110.65,516,68.39c0,0-176.43,24.3-233.47,0,0,0-60.22,180.65-109.87,228.19,0,0,216.57,19,256.71,0C429.41,296.58,593.16,307.15,613.23,296.58Z"/></clipPath></defs><g class="cls-2"><g id="Livello_2" data-name="Livello 2"><g id="campeggio"><path class="cls-3" d="M391.8,242.61C175.41,242.61,0,278.09,0,321.85c0,10.72,23,15.57,57.74,17.57-25.47,5.8-40.38,12.81-40.38,20.35,0,20,104.31,36.18,233,36.18,56.76,0,108.77-3.15,149.18-8.39,60.24,96.94,384.08-24.73,384.08-65.71C783.6,278.09,608.19,242.61,391.8,242.61Z"/><ellipse class="cls-3" cx="117.36" cy="422.6" rx="60.47" ry="19.32"/><ellipse class="cls-3" cx="362.61" cy="432.68" rx="30.24" ry="9.66"/><ellipse class="cls-3" cx="426.44" cy="442.76" rx="10.08" ry="3.22"/><path class="cls-4" d="M592.17,263.3s185.16,46.29,119-72.74-180.2,0-180.2,0,52.91-34.72,11.57-66.13S463.22,179,463.22,179s-92.58-79.36-74.39-16.54S458.26,263.3,458.26,263.3L335,246.66s115-173.48-32.09-75.94c-1.38.91-76.05-124-84.32-31.41,0,0-106.36-21.26-72.19,34.83,0,0-169.18,19-43.53,97.06S592.17,263.3,592.17,263.3Z"/><path class="cls-5" d="M729.36,301.6c-23.62-7.25-49.75-23.84-77.66-49.29-22.31-20.37-45.81-46.42-69.84-77.44A1024,1024,0,0,1,512,72l.22-.13a1026.72,1026.72,0,0,0,69.81,102.85c24,31,47.5,57.05,69.81,77.4,27.87,25.43,54,42,77.56,49.24Z"/><path class="cls-5" d="M43.36,301.09l-.08-.24c37.38-12.62,73.36-32.54,106.92-59.19,26.85-21.33,52.23-47,75.42-76.29,39.5-49.88,59.23-93.57,59.43-94l.23.1c-.19.44-19.93,44.15-59.45,94.05-23.21,29.31-48.6,55-75.47,76.33C116.78,268.53,80.78,288.46,43.36,301.09Z"/><path class="cls-1" d="M613.23,296.58S510.76,110.65,516,68.39c0,0-176.43,24.3-233.47,0,0,0-60.22,180.65-109.87,228.19,0,0,216.57,19,256.71,0C429.41,296.58,593.16,307.15,613.23,296.58Z"/><g class="cls-6"><polygon class="cls-7" points="465.33 314.54 429.41 296.58 528.72 37.76 669.22 186.71 663.94 337.78 465.33 314.54"/><polygon class="cls-8" points="466.39 325.11 498.08 186.71 521.32 163.47 572.03 314.54 466.39 325.11"/></g><path class="cls-9" d="M147.6,303.34V253.52s32.67,4.9,34.3,4.9,0,44.92,0,44.92Z"/><path class="cls-10" d="M179.45,208.6c2.45,0,80.86,26.13,80.86,26.13s1.63,7.35-3.27,7.35-82.49-27.76-82.49-27.76Z"/><path class="cls-11" d="M341.88,266.26c-.22,3.36-1.52,10.54,4.29,21.57s26.15,61.51,26.15,61.51-14,11.24-9.1,10.35c6.39-1.16,21-7.25,19.6-11.43l-3.7-2.56s-13.66-64.76-20.67-70.14,8.71-44.44,8.71-44.44S342.38,258.92,341.88,266.26Z"/><path class="cls-11" d="M297.47,262.91s0,84.12-2.45,86.57-11.43,4.9-13.07,5.72,2.45,1.63,4.09.82,19.6.81,19.6-1.64-2.45-4.9-2.45-4.9,18.78-46.55,10.62-81.67S297.47,262.91,297.47,262.91Z"/><path class="cls-12" d="M313.81,205.74s-13.07,32.67-16.34,57.17c0,0,13.89,12.25,22.87,4.9L331,242.49l4.9,27.77s22.87,4.08,26.95-7.35c0,0,10.62-62.07,0-73.51S313.81,205.74,313.81,205.74Z"/><path class="cls-11" d="M265.62,165.72s-3.27,29.4-5.72,33.49-23.68,31.85-23.68,31.85l21.23-10.62s28.59-31,23.69-49.82Z"/><path class="cls-11" d="M251.73,107.73c.2,1.82,18.79,25.32,26.14,18,0,0,4.08,2.45,0,8.17,0,0,24.91,10.21,18.38-20,0,0-12.66-1.23-15.93-17.56S249.28,84.86,251.73,107.73Z"/><path class="cls-13" d="M296.25,113.86s-3.68,18.37-18.38,20.82c0,0-10.62,11.44-12.25,31,0,0,9.8,9,17.15,10.62l2.45-13.89s24.5,20.42,27.77,43.29c0,0,3.27,13.88,25.32,0s24.5-16.34,24.5-16.34S331.77,100.38,296.25,113.86Z"/><path class="cls-11" d="M293.39,155.1l16.33,10.62s-5.71,32.67-12.25,37.57-54.72,29.4-54.72,29.4-1.63,8.17-5.72,7.35-13.88-4.08-12.25-6.53c0,0,6.54-1.64,4.9-10.62l12.25.82,44.92-29.4Z"/><path class="cls-14" d="M285,107.07s-4.3.25-5.94-1.38-3.26-5.72-4.9-1.63-7.35-1.64-7.35-1.64-13.06,12.25-18.78,9.8,2.45-36.75,17.15-34.3S286.88,92.11,285,107.07Z"/><path class="cls-15" d="M166.39,202.06c.77-.25,15.51,5.72,15.51,5.72l-10.61,34.3-14.71-5.71S163.94,202.88,166.39,202.06Z"/><path class="cls-10" d="M128,301.71c-.09-1.83,71.05,0,71.05,0s4.09,49.82,28.59,56.35c0,0-16.33,6.53-30.22,3.27s-71,16.33-92.29,0C105.13,361.33,129.63,336.83,128,301.71Z"/><path class="cls-16" d="M694,329.33a12.83,12.83,0,0,1,2.17,7.6H672.78s-1.63,0-1.08-1.08,9.23-1.63,10.86-2.72,3.25-4.34,3.25-4.34Z"/><path class="cls-17" d="M735,163.76l2.9,166.65s1.57,4.76-7.61,1.09L700.93,187.67l-6.88,141.66s-3.74,4.23-8.34-.37l-12-171.36,5-4.16h38Z"/><path class="cls-16" d="M742.1,336.35H727.74a8.91,8.91,0,0,1,1.54-3.6c1-1,1.54-3.07,4.1-3.59a6.55,6.55,0,0,1,7.19,3.59A5.69,5.69,0,0,1,742.1,336.35Z"/><polygon class="cls-11" points="667.76 80.43 658.54 102.17 674.48 111.59 684.27 98.18 678.47 82.6 667.76 80.43"/><path class="cls-18" d="M731.33,123.94l-1.6-18.33,3.63,2.17a4.48,4.48,0,0,0,3.27-.5c4.28,6.23,8.73,11.72,8.73,11.72C742.41,119,735.74,121.88,731.33,123.94Z"/><path class="cls-19" d="M666.69,82.06s10.15-32.61,22.83-31.88c1.68.09,3.22.14,4.63.15l12-1.54.13.28a8.94,8.94,0,0,0,1-.31l34.45,10,.22-.05.08.14h0L759.8,87.13s-.69.76-1.86,2c-4.33,4.52-15.12,15.4-21.31,18.17a4.48,4.48,0,0,1-3.27.5l-3.63-2.17,5.08,58.33s-19.93,10.87-34.06,2.17a58.27,58.27,0,0,0-23.58-8.51h-3.61l5.15-66Z"/><path class="cls-20" d="M649.44,123.24s3.63-15.71,8.22-17.55,3.68,13.77,3.68,13.77Z"/><path class="cls-20" d="M693.48,51.51s-1.84,4.59,3.67,5.51,10.1-6.43,10.1-6.43l.92-11.93Z"/><polygon class="cls-21" points="654.12 87.23 681.54 104.77 718.27 104.77 720.11 148.85 679.77 151.66 656.75 136.91 654.12 87.23"/><path class="cls-11" d="M715.56,127.87l3.57-.36-.16-4,4.48,1.43,2.52,1.26a6.33,6.33,0,0,1,3.22,1.45c.8-.42,2.79-1.45,4.71-2.35,4.41-2.06,8.51-6.35,11.46-6.35,0,0-4.45-5.49-8.73-11.72,6.19-2.77,17-13.65,21.31-18.17,4.9,11.29,8.76,23.37,7.62,31.73-2.27,16.62-23.34,16.64-31.3,16.83-.91,0-2.17,0-3.17,0-.88.52-4.48,2.32-11.45,2C711.52,139.34,715.56,127.87,715.56,127.87Z"/><path class="cls-20" d="M655.64,115.6a25.8,25.8,0,0,0-2.57,3.86c-.92,1.84-5.51,3.68-3.67,6.43,0,0-2.76,4.59,0,5.51s7.35,3.67,10.1,1.84S660.05,120.93,655.64,115.6Z"/><path class="cls-11" d="M674.65,20.75s3.67,22,15.61,26.63c0,0,19.28-.92,14.69-16.53,0,0,6.43.92,6.43-3.67s-6.43-10.1-9.18-.92L696.69,9.73Z"/><path class="cls-22" d="M701.17,23.18S700,39.76,681.82,39.9c0,0,1.1,10.23,2,11.15a14.42,14.42,0,0,0,11,2.76c5.51-.92,15.61-13.78,14.69-16.53S702.9,28.37,701.17,23.18Z"/><path class="cls-22" d="M675.61,25s-7.85-2-7.85-8.41S679.7,1,688.88.09a18,18,0,0,1,14.7,5.51l3.67,15.61s-4.59.92-4.59,5.51c0,0-8.27-5.51-11-10.1C691.64,16.62,687.12,23.33,675.61,25Z"/><path class="cls-23" d="M745.65,429.71a1.44,1.44,0,0,0-.46-.43,2.11,2.11,0,0,0-1.36-.55l-.51-.05c-.06,0-.56-.1-.32,0s-.63-.09-.76-.09h-.51c-.33,0-.66,0-1,0a18.1,18.1,0,0,0-2.43.29,4,4,0,0,0-1.3.43l-.16.13a.29.29,0,0,0,0-.09c.09-.37.17-.73.26-1.1a8.73,8.73,0,0,1,.28-1c.05-.17.12-.33.17-.49h0v0c.2-.46.36-.91.53-1.38.08-.2.07-.2,0-.15a3.33,3.33,0,0,0,.18-.6h0a4.56,4.56,0,0,0,.33-1.46c0-.06,0-.12.06-.19.29-.69-.52-1.26-1.13-1.13l-.05,0-.26,0a2.2,2.2,0,0,0-.62.12,7.63,7.63,0,0,0-1,.41,5.56,5.56,0,0,0-2.33,2,11,11,0,0,0-1.13,2,9.76,9.76,0,0,0-.62,2,15.88,15.88,0,0,0-2-2,8.27,8.27,0,0,0-1.29-.9,4.65,4.65,0,0,0-1.5-.61h-.09a2.18,2.18,0,0,0-.23-.09,2.28,2.28,0,0,0-.52-.1h-.05a7.27,7.27,0,0,0-1.23-.16.93.93,0,0,0-.8,1.4,3.57,3.57,0,0,0,.51.81c0,.07,0,.06,0,0s0-.13.05.09a2.62,2.62,0,0,0,.33.53,1.48,1.48,0,0,0,.21.46c.08.1.15.2.23.29l0,.05.44.61c.35.49.76.94,1.15,1.41s.55.76.81,1.16c.14.22.31.43.46.64A8,8,0,0,0,729,433a2.42,2.42,0,0,0,2.4.64,7,7,0,0,0,.77-.36,2.51,2.51,0,0,0,2.25.88,2.59,2.59,0,0,0,2.08-1.78,2,2,0,0,0,.8.59,3.44,3.44,0,0,0,1.56.2,19,19,0,0,0,2.5-.35,8.84,8.84,0,0,0,2.2-.65l.19-.09.48-.18a3,3,0,0,0,.84-.4,1.48,1.48,0,0,0,.41-.5,1.59,1.59,0,0,0,.33-.53A.42.42,0,0,0,745.65,429.71Z"/><path class="cls-23" d="M743.55,432.18l0,0Z"/><path class="cls-23" d="M590.61,370.09a.79.79,0,0,0-.55-1.33h-.48a1.89,1.89,0,0,0-.85-.08,3.12,3.12,0,0,0-1.37.28,10.7,10.7,0,0,0-1.35.57,19.43,19.43,0,0,0-2,1.27c-.15.11-.28.23-.42.34l0-.12c.23-1,.42-2.05.55-3.1a5.93,5.93,0,0,0-.05-2.87,3.22,3.22,0,0,0,0-.43,1,1,0,0,0-.16-.49c-.15-.19-.3-.39-.46-.58,0-.37-.56-.55-.72-.2a3.07,3.07,0,0,1-.63.31.87.87,0,0,0-.37.34,2.31,2.31,0,0,0-.27.42,5.38,5.38,0,0,0-1.23,2.23,24.54,24.54,0,0,0-.76,2.34c-.2.76-.39,1.52-.59,2.28-.06.26-.13.53-.2.79l-.86-.79a8.1,8.1,0,0,0-1.09-.84,4.39,4.39,0,0,0-1.27-.56,2.18,2.18,0,0,0-2.1.56,2.12,2.12,0,0,0-.55,2.1,6.38,6.38,0,0,0,.33.82,5.44,5.44,0,0,0,.58.78,5.22,5.22,0,0,0,.6.64c.43.41.86.8,1.32,1.17l.5.39a1.75,1.75,0,0,0,.91.29,1.23,1.23,0,0,0,.66,0,1.75,1.75,0,0,0,.59-.14,1,1,0,0,0,.17,0,2,2,0,0,0,.77-.45l.14.12a2.08,2.08,0,0,0,1.56.25,3.05,3.05,0,0,0,.32.44l-.06-.1a1,1,0,0,0,.78.46c.09,0,.06.06.09.07a2.28,2.28,0,0,0,1.07,0,2.8,2.8,0,0,0,1.17-.7,9.82,9.82,0,0,0,.78-.8c.51-.55,1.07-1,1.58-1.58s1-1,1.58-1.46c.28-.24.54-.49.81-.74a3.36,3.36,0,0,0,.91-1,2.16,2.16,0,0,0,.26-.47Z"/><path class="cls-23" d="M75.83,362.42a1.24,1.24,0,0,0-.41-.38,1.77,1.77,0,0,0-1.18-.48l-.44,0c-.06,0-.49-.09-.29,0s-.54-.07-.66-.08h-.44a8.42,8.42,0,0,0-.87,0,13.63,13.63,0,0,0-2.12.25,3.25,3.25,0,0,0-1.14.37l-.13.11s0-.05,0-.07c.07-.32.15-.64.22-1a8.84,8.84,0,0,1,.25-.88l.15-.42h0v0c.18-.4.32-.8.47-1.21l0-.12a3.14,3.14,0,0,0,.16-.53v0a4.4,4.4,0,0,0,.29-1.28s0-.11,0-.17c.25-.6-.45-1.1-1-1h0l-.23,0a1.73,1.73,0,0,0-.54.11,5.7,5.7,0,0,0-.84.35,5,5,0,0,0-2,1.75,9.76,9.76,0,0,0-1,1.76,8.46,8.46,0,0,0-.54,1.76,14.43,14.43,0,0,0-1.77-1.73,6.21,6.21,0,0,0-1.13-.79,4.27,4.27,0,0,0-1.31-.54h-.08a.84.84,0,0,0-.2-.08,1.8,1.8,0,0,0-.45-.09h0a6.26,6.26,0,0,0-1.07-.14.82.82,0,0,0-.7,1.23,4.14,4.14,0,0,0,.44.7c0,.06,0,.05,0,0s0-.1,0,.08a2.05,2.05,0,0,0,.29.47,1.23,1.23,0,0,0,.19.4c.06.09.13.17.19.25l0,.05.39.53c.3.43.66.82,1,1.23s.49.66.71,1l.4.56a8.15,8.15,0,0,0,.75,1,2.11,2.11,0,0,0,2.09.55,4.18,4.18,0,0,0,.67-.32,2.21,2.21,0,0,0,2,.78,2.26,2.26,0,0,0,1.81-1.56,1.84,1.84,0,0,0,.7.52,3,3,0,0,0,1.36.17,15.88,15.88,0,0,0,2.18-.3,8.09,8.09,0,0,0,1.93-.57l.16-.08.41-.16a2.49,2.49,0,0,0,.74-.34,1.4,1.4,0,0,0,.36-.45,1.37,1.37,0,0,0,.28-.45A.37.37,0,0,0,75.83,362.42Z"/><path class="cls-23" d="M74,364.57l0,0C73.87,364.63,73.81,364.67,74,364.57Z"/><path class="cls-24" d="M468.45,461.89a3,3,0,0,0-.45-1.41,7,7,0,0,0-2.38-2.31,8.92,8.92,0,0,0-2.14-1h-.05c.4-.5.8-1,1.19-1.51a5.94,5.94,0,0,0,1.34-2.09,6.35,6.35,0,0,0,.16-1.16,3.39,3.39,0,0,0,0-.45,3.2,3.2,0,0,0-.89-2.13,2.89,2.89,0,0,0-2.13-.89,5.93,5.93,0,0,0-1.13.2,9.47,9.47,0,0,0-1,.43,5.24,5.24,0,0,0-1.71,1.76l-.92,1.22a3.59,3.59,0,0,0-.71-.92,8.34,8.34,0,0,0-1.32-1,4.4,4.4,0,0,0-6,1.58,4.35,4.35,0,0,0-.6,2.22,5.55,5.55,0,0,0,.68,2.82,6.42,6.42,0,0,0,.34.56c.13.21.27.41.42.61l.33.48-.8.16c-.54.12-1.07.3-1.61.44l-.86.19a3.64,3.64,0,0,0-1.42.7,4.09,4.09,0,0,0-1.38,2,3.63,3.63,0,0,0,.94,3.55,3.8,3.8,0,0,0,3.87,1l.85-.19a14.15,14.15,0,0,0,1.69-.48l.6-.26c0,.31-.09.61-.12.92a5.2,5.2,0,0,0,.46,3.61,3.56,3.56,0,0,0,2.62,1.71,3.47,3.47,0,0,0,3-1,5.49,5.49,0,0,0,1.34-3.68c.06-.52.12-1,.13-1.56l.05-1.55c0-.07,0-.13,0-.2l.08.06-.08-.07h0c.25.19.5.39.76.57s.26.18.38.27a6.19,6.19,0,0,0,.62.46,6.68,6.68,0,0,0,1.17.48l1,.14,1-.14.9-.38a2.83,2.83,0,0,0,1.06-1,1.86,1.86,0,0,0,.49-.83,1.92,1.92,0,0,0,.26-1A1.89,1.89,0,0,0,468.45,461.89Z"/><path class="cls-25" d="M457.09,455.85c-4.72,0-4.72,7.33,0,7.33S461.82,455.85,457.09,455.85Z"/><path class="cls-24" d="M794.94,361.09a2.85,2.85,0,0,0-.44-1.41,7,7,0,0,0-2.38-2.31,8.55,8.55,0,0,0-2.14-1h-.05l1.19-1.51a6.28,6.28,0,0,0,1.34-2.1,6.37,6.37,0,0,0,.16-1.15,2.26,2.26,0,0,0,0-.45,3.24,3.24,0,0,0-.88-2.13,2.92,2.92,0,0,0-2.14-.89,5.47,5.47,0,0,0-1.13.2,10.19,10.19,0,0,0-1,.43,5.06,5.06,0,0,0-1.71,1.76l-.92,1.22a3.59,3.59,0,0,0-.71-.92,8.89,8.89,0,0,0-1.33-1,4.5,4.5,0,0,0-4.44,0,4.4,4.4,0,0,0-1.57,1.58,4.35,4.35,0,0,0-.6,2.22,5.58,5.58,0,0,0,.68,2.82c.1.19.22.37.34.56s.27.41.42.61l.33.48-.8.16c-.54.12-1.08.3-1.62.43l-.85.2a3.61,3.61,0,0,0-1.43.7,4,4,0,0,0-1.37,2,3.64,3.64,0,0,0,.94,3.55,3.93,3.93,0,0,0,1.72,1,4.13,4.13,0,0,0,2.15,0l.85-.19a14,14,0,0,0,1.68-.48l.61-.26c0,.31-.09.61-.12.92a5.15,5.15,0,0,0,.46,3.61,3.59,3.59,0,0,0,2.62,1.71,3.5,3.5,0,0,0,3-1,5.51,5.51,0,0,0,1.34-3.68c0-.52.11-1,.13-1.56l0-1.56a1.21,1.21,0,0,0,0-.19l.07,0-.07-.06v0c.25.2.49.4.76.58s.25.18.38.27a4.76,4.76,0,0,0,.61.45,6.12,6.12,0,0,0,1.18.49l1,.13,1-.13.9-.38a2.91,2.91,0,0,0,1.06-1,2,2,0,0,0,.49-.84,1.85,1.85,0,0,0,.25-1A1.89,1.89,0,0,0,794.94,361.09Z"/><path class="cls-25" d="M783.59,355.05c-4.72,0-4.73,7.33,0,7.33S788.31,355.05,783.59,355.05Z"/><path class="cls-24" d="M252.26,376.3a2.73,2.73,0,0,0-.45-1.4,7,7,0,0,0-2.38-2.32,8.21,8.21,0,0,0-2.14-1l0,0,1.19-1.5a6.38,6.38,0,0,0,1.34-2.1,7.39,7.39,0,0,0,.15-1.15,1.78,1.78,0,0,0,0-.46,3.24,3.24,0,0,0-.88-2.13,2.88,2.88,0,0,0-2.14-.88,4.78,4.78,0,0,0-1.13.2,9.26,9.26,0,0,0-1,.42,5.36,5.36,0,0,0-1.72,1.76l-.91,1.22a4,4,0,0,0-.72-.92,7.72,7.72,0,0,0-1.32-1,4.5,4.5,0,0,0-4.44,0,4.43,4.43,0,0,0-1.58,1.58,4.49,4.49,0,0,0-.6,2.21,5.65,5.65,0,0,0,.68,2.82c.11.2.22.38.34.56l.42.62c.11.14.22.31.34.47l-.8.16c-.54.13-1.08.31-1.62.44l-.85.19a3.77,3.77,0,0,0-1.43.71,4.09,4.09,0,0,0-1.38,2,3.67,3.67,0,0,0,.94,3.55,4,4,0,0,0,1.72,1,4,4,0,0,0,2.15,0c.29,0,.57-.12.86-.19a14,14,0,0,0,1.68-.47l.61-.26c0,.3-.09.61-.13.92a5.15,5.15,0,0,0,.47,3.61,3.57,3.57,0,0,0,2.62,1.71,3.52,3.52,0,0,0,3-1,5.48,5.48,0,0,0,1.34-3.68c.05-.52.11-1,.13-1.55l0-1.56c0-.07,0-.13,0-.2l.08.06-.08-.06v0c.25.19.5.4.77.57l.38.27a4.88,4.88,0,0,0,.61.46,6.78,6.78,0,0,0,1.18.48l1,.14,1-.14.9-.38a2.83,2.83,0,0,0,1.06-1,3.79,3.79,0,0,0,.74-1.78A1.92,1.92,0,0,0,252.26,376.3Z"/><path class="cls-25" d="M240.91,370.27c-4.72,0-4.73,7.33,0,7.33S245.63,370.27,240.91,370.27Z"/><path class="cls-23" d="M174.09,453.14a.79.79,0,0,0-.56-1.33h-.48a1.83,1.83,0,0,0-.84-.08,3.12,3.12,0,0,0-1.37.28,10.7,10.7,0,0,0-1.35.57,20.76,20.76,0,0,0-2,1.27l-.41.35,0-.13a29.57,29.57,0,0,0,.55-3.1,5.81,5.81,0,0,0,0-2.87,3.28,3.28,0,0,0,0-.43,1,1,0,0,0-.15-.49c-.15-.19-.3-.39-.46-.58a.4.4,0,0,0-.73-.2,3,3,0,0,1-.62.31,1,1,0,0,0-.38.34,3,3,0,0,0-.26.42,5.27,5.27,0,0,0-1.23,2.23A24.61,24.61,0,0,0,163,452c-.19.76-.38,1.52-.58,2.28-.06.26-.13.53-.2.79l-.86-.79a8.79,8.79,0,0,0-1.09-.84,4.51,4.51,0,0,0-1.27-.56,2.17,2.17,0,0,0-2.1.56,2.15,2.15,0,0,0-.56,2.1,6.45,6.45,0,0,0,.34.82,5.44,5.44,0,0,0,.58.78,5.22,5.22,0,0,0,.6.64c.43.41.86.8,1.32,1.18l.49.38a1.81,1.81,0,0,0,.92.29,1.2,1.2,0,0,0,.65,0,1.75,1.75,0,0,0,.6-.14,1.11,1.11,0,0,0,.17,0,2,2,0,0,0,.77-.45,1.49,1.49,0,0,0,.14.12,2.07,2.07,0,0,0,1.56.25,2.59,2.59,0,0,0,.32.44l-.06-.1a.94.94,0,0,0,.78.46c.09,0,.06.06.09.07a2.28,2.28,0,0,0,1.07,0,2.86,2.86,0,0,0,1.17-.7c.27-.25.53-.52.78-.8.5-.55,1.07-1,1.58-1.57a18.32,18.32,0,0,1,1.58-1.47c.28-.24.54-.49.81-.73a3.35,3.35,0,0,0,.9-1,2.2,2.2,0,0,0,.27-.47Z"/><path class="cls-23" d="M445.15,334.61a1.6,1.6,0,0,0-.47-.43,2,2,0,0,0-1.36-.54l-.5-.05c-.07,0-.56-.11-.33,0s-.62-.08-.76-.08h-.5c-.34,0-.67,0-1,0a16.45,16.45,0,0,0-2.43.29,3.61,3.61,0,0,0-1.31.43.88.88,0,0,0-.15.12s0-.06,0-.09c.08-.36.17-.73.25-1.09s.17-.68.28-1l.18-.49h0v0c.21-.46.36-.92.54-1.39l.05-.14a3.33,3.33,0,0,0,.17-.61v0a5,5,0,0,0,.34-1.47,1.27,1.27,0,0,1,.06-.18c.28-.7-.52-1.27-1.13-1.13h-.06l-.26,0a2.21,2.21,0,0,0-.62.13,5.44,5.44,0,0,0-1,.41,5.53,5.53,0,0,0-2.33,2,11.42,11.42,0,0,0-1.14,2,10.45,10.45,0,0,0-.61,2,15.86,15.86,0,0,0-2-2,7.7,7.7,0,0,0-1.29-.91,4.61,4.61,0,0,0-1.51-.61h-.09a1.43,1.43,0,0,0-.22-.08,1.93,1.93,0,0,0-.53-.11h0a8.31,8.31,0,0,0-1.22-.16,1,1,0,0,0-.81,1.41,4.81,4.81,0,0,0,.51.81c0,.07,0,0,0-.05s0-.12.05.09a2,2,0,0,0,.32.53,1.56,1.56,0,0,0,.22.47l.22.29,0,0,.44.62c.35.49.76.94,1.14,1.4s.55.77.81,1.16l.46.65a9.46,9.46,0,0,0,.86,1.14,2.4,2.4,0,0,0,2.4.63,6.78,6.78,0,0,0,.76-.36,2.54,2.54,0,0,0,2.25.89,2.61,2.61,0,0,0,2.09-1.79,2.16,2.16,0,0,0,.79.6,3.47,3.47,0,0,0,1.56.19,19.17,19.17,0,0,0,2.51-.34,8.86,8.86,0,0,0,2.2-.66l.19-.09.47-.18a3.07,3.07,0,0,0,.84-.39,1.52,1.52,0,0,0,.41-.51,1.4,1.4,0,0,0,.33-.52A.42.42,0,0,0,445.15,334.61Z"/><path class="cls-23" d="M443.05,337.09h0C442.9,337.16,442.83,337.2,443.05,337.09Z"/></g></g></g></svg>