<svg xmlns="http://www.w3.org/2000/svg" xmlns:xlink="http://www.w3.org/1999/xlink" viewBox="0 0 784 465.75"><defs><style>.cls-1{fill:#f0b94e;}.cls-2{fill:#b56d46;}.cls-3{fill:#78a883;}.cls-4{fill:#e7bf66;}.cls-5{fill:#ca5f5c;}.cls-6{fill:#154b5e;}.cls-7{fill:#498fb3;}.cls-8{fill:#022e42;}.cls-9{fill:#fdd9c0;}.cls-10{fill:#0c4e65;}.cls-11{fill:#724430;}.cls-12{clip-path:url(#clip-path);}.cls-13{fill:#ec7d50;}.cls-14{fill:#e8b3a2;}.cls-15{fill:#96bfc0;}.cls-16{fill:#704763;}.cls-17{fill:#f2bfad;}.cls-18{fill:#0a4b61;}.cls-19{clip-path:url(#clip-path-2);}.cls-20{fill:#a85d43;}.cls-21{fill:#bc5252;}.cls-22{fill:#6da4ae;}.cls-23{fill:#3d7f31;}.cls-24{fill:#fff;}.cls-25{fill:#fabd28;}</style><clipPath id="clip-path"><path class="cls-1" d="M435.12,333.63s-30.49-10.17-17.28-24.4,18.3-5.08,13.22-14.23h0s14.23,5.08,7.11,10.17,23.38-1,5.09-18.3,6.09-35.58,6.09-35.58-11.18,25.41,6.1,33.54S487,335.66,435.12,333.63Z"/></clipPath><clipPath id="clip-path-2"><path class="cls-2" d="M609.16,244.18c1.73.53,74.42,23.48,74.42,23.48s13.74,61.25-28.05,44.65-71-56.1-71-56.1S588.55,237.89,609.16,244.18Z"/></clipPath></defs><g id="Livello_2" data-name="Livello 2"><g id="campeggio"><path class="cls-3" d="M735.44,324.06c0,37.56-328-8.75-335.73,36.81-20,117.32-337,.75-337-36.81s150.59-68,336.35-68S735.44,286.49,735.44,324.06Z"/><ellipse class="cls-3" cx="583.88" cy="361.59" rx="22.36" ry="7.14"/><ellipse class="cls-3" cx="121.76" cy="262.2" rx="22.36" ry="7.14"/><path class="cls-3" d="M534.19,371.52c0,9.65-24.47,17.46-54.66,17.46s-54.66-7.81-54.66-17.46,24.47-17.46,54.66-17.46S534.19,361.88,534.19,371.52Z"/><path class="cls-4" d="M394.67,240.39l3.06-1.52s9.15,1.52,0-7.63-22.88-30.51-48.82-30.51c0,0-6.1,12.21-22.88,0,0,0-16.77-6.1-33.55,16.78s-25.93,38.14-25.93,38.14-15.26-15.26-16.78-21.36c0,0-4.58,1.53-6.1,0,0,0,9.15,42.71,29,36.61s36.61-41.19,36.61-41.19-6.4,43.58-2.44,46.2,47.11,13.72,47.11,13.72Z"/><path class="cls-5" d="M382.47,278.53s10.68-7.63,10.68-25.94-10.68-36.6-32-32-22.88,6.1-30.51,0S300.1,208.36,294,232.77s9.15,44.23,25.93,38.13,12.21,21.35,39.66,15.25S382.47,278.53,382.47,278.53Z"/><path class="cls-6" d="M313.83,306c-1.52,0-18.3,9.15-19.83,6.1s-3.05-12.2,0-12.2h18.31Z"/><path class="cls-7" d="M341.29,287.68S381,269.37,396.2,275.47s12.2,15.26,0,21.36-59.49,6.1-68.64,10.68-15.25,0-15.25,0l-1.53-7.63S332.14,287.68,341.29,287.68Z"/><path class="cls-6" d="M377.9,307.51c1.52,0,18.3,9.15,19.83,6.1s3-12.2,0-12.2H379.42Z"/><path class="cls-7" d="M350.44,289.2s-39.66-18.3-54.91-12.2-12.21,15.25,0,21.36S355,304.46,364.17,309s15.25,0,15.25,0l1.53-7.62S359.59,289.2,350.44,289.2Z"/><path class="cls-8" d="M352.51,244.76l-127.15-30.3-12.66-4.87a5.93,5.93,0,0,0-8,4.88h0a5.92,5.92,0,0,0,5.44,6.56l13.72,1.06L349.9,256Z"/><circle class="cls-8" cx="355.2" cy="253.89" r="12.2"/><path class="cls-9" d="M352.51,241s-5.62,2.57-9.23,4.37-8.51-12.15,7.74-10.34S352.51,241,352.51,241Z"/><path class="cls-4" d="M401.54,236.58s-3.05,15.25-38.13,7.63l-10.68-3.06-1.53-6.1s30.51-6.1,39.66-3.05S401.54,236.58,401.54,236.58Z"/><path class="cls-9" d="M250.27,235.67s2.55-9-.5-9S245.19,216,242.14,219s1.53,16.63,1.53,16.63Z"/><path class="cls-9" d="M350.44,202.26s-6.1-7.63-4.58-10.68,7.63,1.53,10.68-3.05,10.68-25.93,3-30.51-24.4-10.67-29,9.16c0,0,3.05,33.17-3.05,35.65C327.56,202.83,336.71,214.46,350.44,202.26Z"/><path class="cls-10" d="M342.81,167.15s10.29-6.1,20.07-2.49l-.25,5.24s12.27-2.38,8.54-6.48,3-14.56-5.6-12.32-5.6-10.45-14.55-6-22,3.36-20.9,9.33-11.56,9.7-6.34,15.3,3.25,14.05,7.59,14.3,6.22-8.7,6.22-8.7S326.39,161.55,342.81,167.15Z"/><polygon class="cls-2" points="357.86 339.73 364.98 339.73 468.67 195.38 459.52 190.29 357.86 339.73"/><polygon class="cls-2" points="533.73 342.78 526.61 342.78 422.92 198.43 432.07 193.34 533.73 342.78"/><path class="cls-11" d="M412.76,332.61s50.83-18.29,55.91-14.23,4.07,11.18,4.07,11.18-50.83,20.34-53.88,19.32S405.64,334.65,412.76,332.61Z"/><path class="cls-11" d="M466.64,328.55s-50.83-18.3-55.91-14.23-4.07,11.18-4.07,11.18,50.83,20.33,53.88,19.31S473.75,330.58,466.64,328.55Z"/><path class="cls-1" d="M435.12,333.63s-30.49-10.17-17.28-24.4,18.3-5.08,13.22-14.23h0s14.23,5.08,7.11,10.17,23.38-1,5.09-18.3,6.09-35.58,6.09-35.58-11.18,25.41,6.1,33.54S487,335.66,435.12,333.63Z"/><g class="cls-12"><path class="cls-13" d="M438.17,348.88s-21.31-8.61-11.94-23.85c11.7-19,32.13-13.83,31.12-31.11C457.35,293.92,483.92,343.8,438.17,348.88Z"/></g><path class="cls-9" d="M202,75.38s19.46-12.28,19.46-27.64S214.32,20.09,226.61,14s32.76-2,22.52,27.64S230.7,52.86,230.7,52.86s-6.14,17.4-6.14,22.52S202,75.38,202,75.38Z"/><path class="cls-14" d="M219.44,77.43c1,1,28.67,34.3,29.69,40.19a9.34,9.34,0,0,1-3.07,9s-21.5-17.4-25.6-31.74S219.44,77.43,219.44,77.43Z"/><path class="cls-8" d="M217.33,348.78s-3.52,17.63,0,17.63,31.73,3.52,31.73,0-19.39-3.53-22.91-8.82-1.92-13.53-1.92-13.53Z"/><path class="cls-15" d="M217.33,172.52s8.82,47.59,7,88.13,0,88.13,0,88.13h-7s-15.86-35.25-14.1-65.22-12.34-79.32-12.34-79.32-24.67-21.15-8.81-37S217.33,172.52,217.33,172.52Z"/><path class="cls-8" d="M183.84,348.78s-3.52,17.63,0,17.63,31.73,3.52,31.73,0-19.39-3.53-22.91-8.82-1.92-13.53-1.92-13.53Z"/><path class="cls-15" d="M212.64,176.22s1.12,48.39-7.07,88.13-14,87-14,87l-7-1.12s-10-37.33-3.54-66.64.45-80.27.45-80.27-21-24.81-2.8-37.94S212.64,176.22,212.64,176.22Z"/><path class="cls-16" d="M172,174.26c.06.53,15.33,15.88,25.91,3.55s19.38-5.29,19.38-5.29,0-70.51,7-79.32,3-18.69-6-29.08C208,52.12,165.52,119.61,172,174.26Z"/><path class="cls-9" d="M207.41,85.55s-4.6-13.8,4.6-16.1,18.4,13.8,23,57.51c0,0,4.67-3.47,16.17-12.67,0,0,1.34,22.23-17.79,27.42a8.4,8.4,0,0,1-10.08-5.13C219.11,125.5,210.79,102.43,207.41,85.55Z"/><path class="cls-2" d="M257.47,101.67l-38,35.11s1.46,7.31,7.31,4.39,33.65-38,33.65-38Z"/><path class="cls-2" d="M250.16,98.74s-20.48,42.43-17.55,45.35,5.85,0,7.31-2.92,13.16-42.43,13.16-42.43Z"/><path class="cls-2" d="M239.92,101.67s5.85,51.2,10.24,52.66S256,151.4,256,151.4,244.31,100.21,239.92,101.67Z"/><path class="cls-17" d="M251.18,128.63s-5.32-6.7-9.31-3.35-.93,11.54,4.19,10.52,8.24-7.68,5.14-16.13C251.2,119.67,246.06,125.56,251.18,128.63Z"/><path class="cls-18" d="M251.18,21.11s1,8.2-8.19,9.22-11.26,4.1-11.26,4.1-9.22-1-7.17,3.07.77,7.08-3.2,6.61-9.09-22-2.94-30.16C218.42,14,253.4,1.08,251.18,21.11Z"/><path class="cls-18" d="M219.44,16s-13.31-11.26-11.26,6.15S222.51,52.86,201,54.91c0,0,10.24-16.39,1-27.65S205.1-20.87,219.44,16Z"/><path class="cls-2" d="M609.16,244.18c1.73.53,74.42,23.48,74.42,23.48s13.74,61.25-28.05,44.65-71-56.1-71-56.1S588.55,237.89,609.16,244.18Z"/><g class="cls-19"><path class="cls-20" d="M695.61,282s-14.89-32.63-25.19-2.86S655,344.94,681.29,319.18,695.61,282,695.61,282Z"/></g><path class="cls-21" d="M656.55,265.27s-14.31,37.21-70.64,8c-10.41-5.4-11.75-.67-7.39,8a81.33,81.33,0,0,1,7.07,20.14L590,322.79l-15.42-1.36s-56.37-65.41-20.75-77.8S656.55,265.27,656.55,265.27Z"/><path class="cls-6" d="M575.83,316.8s-19.47,6.87-9.73,8,25.76-2.29,25.76-2.29l-1.15-5.72Z"/><polygon class="cls-2" points="534.61 272.71 472.78 295.04 475.07 298.48 534.61 272.71"/><path class="cls-9" d="M585.8,180.54s-.58-9.47-3-11.4-5.69,4.16-9.94,1.56-18.66-17.27-14.12-23.94,16-18.07,27.32-3.5c0,0,10.12,28.45,16.08,28.16C602.14,171.42,601.73,185.35,585.8,180.54Z"/><path class="cls-5" d="M657,261.47s-11.94,40.77-61.68,9c-9.35-6-11.13.35-6.3,8.15A77,77,0,0,1,597.39,297l5.94,19.79H588.68s-58.59-57-26-71.61S657,261.47,657,261.47Z"/><path class="cls-22" d="M581.82,194.88a24.17,24.17,0,0,1,9.69-22c5.41-3.89,12.51-5.6,19.27,3.15,14.69,19,60.9,81.33,46.25,89.47s-38.26-20.81-52-22C595.11,242.69,583.73,214,581.82,194.88Z"/><path class="cls-9" d="M604.25,220.17c-2.92-9.6-13.08-13.79-19.87-15.56-13.83,23.66-37.09,51.69-44.2,60.08h-.42s-12.59,7.44-8.59,10.88,8.83,4.5,13.3-2.69C551.83,267.69,586.36,242.72,604.25,220.17Z"/><path class="cls-22" d="M595.19,179.22c-.43,6.46-4.51,15.53-10.27,25.39,6.61,1.72,16.49,5.8,19.33,15.14,6-7.58,10.08-14.88,10.47-21C616.34,172.71,595.19,179.22,595.19,179.22Z"/><path class="cls-6" d="M588.42,316.8s-19.46,6.87-9.73,8,25.76-2.29,25.76-2.29l-1.14-5.72Z"/><path class="cls-10" d="M591.86,157.44s-4.93-1.88-7.2-3-3.41-11.35-6.81-7.94,0,5.67,0,5.67-6.82-6.81-12.49-3.4-18.17,4.54-17-6.82c0,0,7.95,3.41,14.77-5.67s14.76-9.09,17-3.41C580.12,132.85,595.65,128.65,591.86,157.44Z"/><path class="cls-23" d="M496.29,423.38a.75.75,0,0,0-.52-1.26h-.45a1.76,1.76,0,0,0-.79-.07,2.67,2.67,0,0,0-1.29.26,8.19,8.19,0,0,0-1.26.53,17.82,17.82,0,0,0-1.86,1.19c-.14.1-.26.22-.39.33l0-.12a28.59,28.59,0,0,0,.52-2.91,5.56,5.56,0,0,0,0-2.69,2.71,2.71,0,0,0,0-.41.86.86,0,0,0-.14-.46l-.43-.55c0-.34-.53-.52-.68-.18a3.52,3.52,0,0,1-.59.28.91.91,0,0,0-.35.32,2.75,2.75,0,0,0-.26.4,5,5,0,0,0-1.15,2.1c-.27.73-.52,1.44-.72,2.2l-.54,2.14c-.07.24-.13.49-.2.74l-.8-.74a9.69,9.69,0,0,0-1-.8,4.41,4.41,0,0,0-1.2-.52,2.05,2.05,0,0,0-2,.52,2,2,0,0,0-.52,2,5.16,5.16,0,0,0,.31.77,5.37,5.37,0,0,0,.55.73,5.3,5.3,0,0,0,.56.6c.41.38.81.76,1.24,1.11l.46.36a1.71,1.71,0,0,0,.86.27,1.09,1.09,0,0,0,.62,0,1.76,1.76,0,0,0,.56-.13.68.68,0,0,0,.15,0,1.86,1.86,0,0,0,.73-.42l.14.11a2,2,0,0,0,1.46.24,2.67,2.67,0,0,0,.3.41l-.06-.1a.93.93,0,0,0,.74.44c.08,0,.05.05.08.06a2.16,2.16,0,0,0,1,0,2.57,2.57,0,0,0,1.09-.66c.26-.23.5-.49.74-.74.47-.52,1-1,1.48-1.49s1-.94,1.48-1.38c.27-.22.51-.45.77-.68a3.38,3.38,0,0,0,.85-1,2.38,2.38,0,0,0,.25-.44Z"/><path class="cls-23" d="M783.68,368a1.32,1.32,0,0,0-.44-.41,1.94,1.94,0,0,0-1.28-.51l-.47-.05c-.06,0-.53-.1-.31,0s-.58-.08-.71-.08H780c-.32,0-.63,0-.94,0a16.07,16.07,0,0,0-2.29.27,3.5,3.5,0,0,0-1.22.4l-.15.12,0-.08.24-1c.07-.32.16-.64.26-.95.06-.15.11-.3.17-.46h0v0c.19-.43.34-.86.5-1.3.07-.18.07-.18,0-.14a2.58,2.58,0,0,0,.16-.57v0a4.4,4.4,0,0,0,.32-1.38,1.77,1.77,0,0,1,.06-.17c.26-.65-.49-1.19-1.06-1.06l-.06,0-.24,0a2.85,2.85,0,0,0-.58.12,5.67,5.67,0,0,0-.91.39,5.2,5.2,0,0,0-2.19,1.88,10.63,10.63,0,0,0-1.06,1.89,9.19,9.19,0,0,0-.58,1.9,14.64,14.64,0,0,0-1.91-1.87,8,8,0,0,0-1.21-.85,4.37,4.37,0,0,0-1.42-.57h-.08a1.8,1.8,0,0,0-.21-.08,2,2,0,0,0-.49-.1h-.05a6.35,6.35,0,0,0-1.15-.15.88.88,0,0,0-.76,1.32,3.92,3.92,0,0,0,.48.76c0,.07,0,.05,0,0s0-.12,0,.08a2.1,2.1,0,0,0,.31.5,1.6,1.6,0,0,0,.2.44l.21.27,0,.05.41.57c.33.46.71.88,1.07,1.32s.52.72.77,1.09c.13.21.28.4.43.6a8.62,8.62,0,0,0,.8,1.08,2.27,2.27,0,0,0,2.25.59,4.4,4.4,0,0,0,.72-.34,2.39,2.39,0,0,0,2.12.84,2.44,2.44,0,0,0,1.95-1.68,2,2,0,0,0,.75.56,3.35,3.35,0,0,0,1.47.18,18.69,18.69,0,0,0,2.35-.32,8.24,8.24,0,0,0,2.07-.62l.18-.08.44-.17a2.73,2.73,0,0,0,.79-.37,1.48,1.48,0,0,0,.39-.48,1.52,1.52,0,0,0,.31-.49A.39.39,0,0,0,783.68,368Z"/><path class="cls-23" d="M781.7,370.34h0C781.57,370.4,781.5,370.44,781.7,370.34Z"/><path class="cls-23" d="M609.78,461.52a1.32,1.32,0,0,0-.44-.41,1.94,1.94,0,0,0-1.28-.51l-.47-.05c-.06,0-.53-.1-.31,0s-.58-.08-.71-.08h-.47c-.32,0-.63,0-.94,0a15.77,15.77,0,0,0-2.28.27,3.78,3.78,0,0,0-1.23.4.87.87,0,0,0-.14.12s0-.05,0-.08l.24-1a7.9,7.9,0,0,1,.27-.95l.16-.45h0v0c.2-.43.34-.86.51-1.3.06-.18.06-.18,0-.14a2.72,2.72,0,0,0,.17-.56h0a4.68,4.68,0,0,0,.31-1.38,1.77,1.77,0,0,1,.06-.17c.26-.65-.49-1.19-1.06-1.06l-.05,0-.25,0a2.29,2.29,0,0,0-.58.11,5.67,5.67,0,0,0-.91.39,5.2,5.2,0,0,0-2.19,1.88,11,11,0,0,0-1.06,1.89,9.19,9.19,0,0,0-.58,1.9,14.64,14.64,0,0,0-1.91-1.87,8,8,0,0,0-1.21-.85,4.31,4.31,0,0,0-1.41-.57H592a1.31,1.31,0,0,0-.21-.08,2,2,0,0,0-.49-.1h0a7.39,7.39,0,0,0-1.15-.15.88.88,0,0,0-.76,1.32,3.92,3.92,0,0,0,.48.76c0,.07,0,.05,0,0s0-.12,0,.08a2.1,2.1,0,0,0,.31.5,1.6,1.6,0,0,0,.2.44l.21.27s0,0,0,.05l.41.57c.33.46.71.88,1.07,1.32s.52.72.77,1.09c.13.21.29.4.43.61a9.31,9.31,0,0,0,.8,1.07,2.28,2.28,0,0,0,2.26.59,5.36,5.36,0,0,0,.72-.34,2.36,2.36,0,0,0,2.11.84,2.44,2.44,0,0,0,2-1.68,2,2,0,0,0,.75.56,3.21,3.21,0,0,0,1.47.18,16.81,16.81,0,0,0,2.35-.32,8.24,8.24,0,0,0,2.07-.62l.18-.08.44-.17a2.73,2.73,0,0,0,.79-.37,1.36,1.36,0,0,0,.39-.48,1.52,1.52,0,0,0,.31-.49A.39.39,0,0,0,609.78,461.52Z"/><path class="cls-23" d="M607.81,463.84h0C607.67,463.9,607.6,463.94,607.81,463.84Z"/><path class="cls-24" d="M313.64,398.24a2.64,2.64,0,0,0-.42-1.32,6.44,6.44,0,0,0-2.23-2.17,8.23,8.23,0,0,0-2-.95h-.05l1.12-1.41a5.87,5.87,0,0,0,1.26-2,6.65,6.65,0,0,0,.15-1.09,2,2,0,0,0,0-.42,3,3,0,0,0-.83-2,2.73,2.73,0,0,0-2-.83,5.22,5.22,0,0,0-1.06.19,10.38,10.38,0,0,0-1,.4,4.83,4.83,0,0,0-1.61,1.66l-.87,1.14a3.32,3.32,0,0,0-.67-.86,7.93,7.93,0,0,0-1.24-1,4.24,4.24,0,0,0-4.17,0,4.14,4.14,0,0,0-1.48,1.49,4.08,4.08,0,0,0-.56,2.08,5.24,5.24,0,0,0,.63,2.65c.1.18.21.35.32.52s.26.39.4.58l.31.45-.75.15c-.51.11-1,.28-1.52.41l-.8.18a3.3,3.3,0,0,0-1.34.66,3.8,3.8,0,0,0-1.29,1.9,3.42,3.42,0,0,0,.88,3.34,3.79,3.79,0,0,0,1.62,1,3.85,3.85,0,0,0,2,0l.8-.18a12.37,12.37,0,0,0,1.58-.45l.57-.24c0,.29-.09.57-.12.86a4.86,4.86,0,0,0,.44,3.39,3.35,3.35,0,0,0,2.46,1.61,3.31,3.31,0,0,0,2.83-.92,5.21,5.21,0,0,0,1.25-3.46c.05-.49.11-1,.13-1.46l0-1.47c0-.06,0-.12,0-.18l.07,0-.07,0v0c.24.18.47.37.72.53l.36.26a5.32,5.32,0,0,0,.57.43,6,6,0,0,0,1.11.45l.94.13.94-.13.85-.35a2.76,2.76,0,0,0,1-.92,1.71,1.71,0,0,0,.45-.78,1.75,1.75,0,0,0,.24-.89A1.71,1.71,0,0,0,313.64,398.24Z"/><path class="cls-25" d="M303,392.57c-4.43,0-4.44,6.89,0,6.89S307.42,392.57,303,392.57Z"/><path class="cls-24" d="M21.83,279.13a2.64,2.64,0,0,0-.42-1.32,6.65,6.65,0,0,0-2.24-2.17,7.85,7.85,0,0,0-2-.94l0,0,1.12-1.41a5.84,5.84,0,0,0,1.25-2,6.65,6.65,0,0,0,.15-1.09,3,3,0,0,0,0-.42,3.06,3.06,0,0,0-.83-2,2.76,2.76,0,0,0-2-.84,5.35,5.35,0,0,0-1.06.19,10.38,10.38,0,0,0-1,.4,4.92,4.92,0,0,0-1.61,1.66l-.86,1.14a3.75,3.75,0,0,0-.67-.86,8,8,0,0,0-1.25-1A4.12,4.12,0,0,0,4.75,270a4.11,4.11,0,0,0-.56,2.08,5.12,5.12,0,0,0,.64,2.65,4,4,0,0,0,.32.52c.12.2.26.39.39.58l.31.45-.75.15c-.51.11-1,.29-1.52.41l-.8.18a3.44,3.44,0,0,0-1.34.66,3.86,3.86,0,0,0-1.29,1.9A3.42,3.42,0,0,0,1,282.93a3.79,3.79,0,0,0,1.62,1,3.85,3.85,0,0,0,2,0c.27-.05.53-.12.8-.18a12.37,12.37,0,0,0,1.58-.45l.57-.24c0,.29-.09.57-.12.86a4.9,4.9,0,0,0,.44,3.4,3.36,3.36,0,0,0,2.46,1.6,3.3,3.3,0,0,0,2.83-.92,5.2,5.2,0,0,0,1.26-3.46c0-.49.1-1,.12-1.46l0-1.47c0-.06,0-.12,0-.18l.08.05-.08-.05v0c.24.18.47.37.72.54l.36.25a4.26,4.26,0,0,0,.57.43,7.2,7.2,0,0,0,1.11.46l.94.12.95-.12.84-.36a2.61,2.61,0,0,0,1-.92,1.82,1.82,0,0,0,.46-.78,1.72,1.72,0,0,0,.24-.89A1.91,1.91,0,0,0,21.83,279.13Z"/><path class="cls-25" d="M11.16,273.46c-4.43,0-4.44,6.89,0,6.89S15.6,273.46,11.16,273.46Z"/><path class="cls-24" d="M735.29,373.23a2.64,2.64,0,0,0-.42-1.32,6.47,6.47,0,0,0-2.24-2.17,7.72,7.72,0,0,0-2-.95h0c.37-.47.75-.94,1.12-1.42a5.83,5.83,0,0,0,1.26-2,5.5,5.5,0,0,0,.14-1.08,1.48,1.48,0,0,0,0-.42,3.06,3.06,0,0,0-.83-2,2.7,2.7,0,0,0-2-.83,4.71,4.71,0,0,0-1.06.19,9,9,0,0,0-1,.4,4.89,4.89,0,0,0-1.61,1.65l-.86,1.15a3.37,3.37,0,0,0-.67-.86,7.26,7.26,0,0,0-1.24-1,4.22,4.22,0,0,0-4.17,0,4.12,4.12,0,0,0-1.48,1.48,4.05,4.05,0,0,0-.57,2.09,5.35,5.35,0,0,0,.64,2.65c.1.18.21.35.32.52l.39.58c.1.13.21.29.32.45l-.75.15c-.51.11-1,.28-1.52.4l-.81.19a3.43,3.43,0,0,0-1.34.66,3.82,3.82,0,0,0-1.29,1.9,3.45,3.45,0,0,0,.88,3.34,3.67,3.67,0,0,0,1.62,1,3.75,3.75,0,0,0,2,0l.8-.18a14.25,14.25,0,0,0,1.58-.45l.57-.25c0,.29-.08.58-.11.87a4.82,4.82,0,0,0,.43,3.39,3.37,3.37,0,0,0,2.46,1.61,3.31,3.31,0,0,0,2.83-.93,5.13,5.13,0,0,0,1.26-3.46c0-.48.11-1,.12-1.46l0-1.46v-.18l.07,0-.07-.06h0c.24.18.47.37.72.53s.24.17.36.26a4.57,4.57,0,0,0,.58.43,6.2,6.2,0,0,0,1.1.45l.95.13.94-.13.85-.36a2.63,2.63,0,0,0,1-.91,1.82,1.82,0,0,0,.46-.78,1.78,1.78,0,0,0,.24-.9A1.87,1.87,0,0,0,735.29,373.23Z"/><path class="cls-25" d="M724.62,367.56c-4.43,0-4.43,6.89,0,6.89S729.06,367.56,724.62,367.56Z"/><path class="cls-23" d="M99.08,413.19a1.18,1.18,0,0,0-.39-.35,1.66,1.66,0,0,0-1.11-.45l-.41,0c-.06,0-.47-.09-.27,0s-.51-.07-.63-.07h-.41c-.27,0-.54,0-.82,0a14.81,14.81,0,0,0-2,.24,3.13,3.13,0,0,0-1.07.35,1.27,1.27,0,0,0-.12.1.17.17,0,0,1,0-.07l.21-.9a7.66,7.66,0,0,1,.23-.82c0-.14.1-.27.14-.4h0v0c.17-.38.3-.75.44-1.14.06-.16.06-.16,0-.12a2.09,2.09,0,0,0,.15-.49h0a4.1,4.1,0,0,0,.27-1.2s0-.1,0-.15c.23-.57-.43-1-.92-.93l0,0-.21,0a1.71,1.71,0,0,0-.51.1,5.08,5.08,0,0,0-.79.34A4.56,4.56,0,0,0,89,408.76a9,9,0,0,0-.93,1.65,8.78,8.78,0,0,0-.51,1.66,12.16,12.16,0,0,0-1.66-1.63,5.93,5.93,0,0,0-1.06-.74,3.78,3.78,0,0,0-1.23-.51h-.08a.56.56,0,0,0-.18-.07,1.57,1.57,0,0,0-.43-.09h0a6.67,6.67,0,0,0-1-.13.77.77,0,0,0-.66,1.15,3.25,3.25,0,0,0,.41.67s0,0,0,0,0-.1,0,.07a1.79,1.79,0,0,0,.27.44,1.3,1.3,0,0,0,.17.38l.19.24,0,0,.36.5c.29.4.62.77.93,1.15s.46.63.67.95.25.35.38.53a6.29,6.29,0,0,0,.7.93,2,2,0,0,0,2,.52,4.1,4.1,0,0,0,.63-.29,2.07,2.07,0,0,0,1.85.72,2.09,2.09,0,0,0,1.7-1.46,1.64,1.64,0,0,0,.66.49,2.76,2.76,0,0,0,1.27.16,15.71,15.71,0,0,0,2.06-.29,7,7,0,0,0,1.8-.53l.16-.08.38-.14a2.32,2.32,0,0,0,.69-.33,1.18,1.18,0,0,0,.34-.41,1.36,1.36,0,0,0,.27-.43A.35.35,0,0,0,99.08,413.19Z"/><path class="cls-23" d="M97.35,415.22h0C97.23,415.27,97.17,415.31,97.35,415.22Z"/><path class="cls-23" d="M117.54,324.45a1.3,1.3,0,0,0-.39-.35,1.64,1.64,0,0,0-1.11-.45l-.41,0c-.06,0-.46-.08-.27,0s-.51-.06-.62-.07h-.41a7.66,7.66,0,0,0-.83,0,13.33,13.33,0,0,0-2,.23,3.45,3.45,0,0,0-1.07.35.63.63,0,0,0-.12.11s0-.05,0-.08l.21-.89a7.84,7.84,0,0,1,.23-.83c0-.13.1-.27.14-.4h0v0c.16-.38.29-.75.43-1.13.06-.16.06-.16,0-.12a2.16,2.16,0,0,0,.15-.5h0a3.8,3.8,0,0,0,.27-1.2s0-.1.05-.15c.24-.57-.43-1-.92-.92h0l-.21,0a2.21,2.21,0,0,0-.51.11,4.25,4.25,0,0,0-.79.33,4.51,4.51,0,0,0-1.91,1.65,8.63,8.63,0,0,0-.93,1.65,7.81,7.81,0,0,0-.5,1.65,12.83,12.83,0,0,0-1.67-1.63,6.41,6.41,0,0,0-1-.74,4,4,0,0,0-1.24-.5s0,0-.07,0a1.46,1.46,0,0,0-.19-.07,2.05,2.05,0,0,0-.43-.09h0a5.6,5.6,0,0,0-1-.14.77.77,0,0,0-.66,1.16,4,4,0,0,0,.41.66c0,.06,0,0,0,0s0-.1,0,.08a1.73,1.73,0,0,0,.27.43,1.19,1.19,0,0,0,.17.38l.19.24,0,0,.36.5c.29.4.62.77.94,1.15s.45.63.66.95.25.36.38.53a6.37,6.37,0,0,0,.7.94,2,2,0,0,0,2,.52,6,6,0,0,0,.62-.3,2.07,2.07,0,0,0,1.85.73,2.13,2.13,0,0,0,1.7-1.46,1.79,1.79,0,0,0,.66.48,2.78,2.78,0,0,0,1.28.16,14.23,14.23,0,0,0,2-.28,7.05,7.05,0,0,0,1.8-.54l.16-.07.39-.15A2.55,2.55,0,0,0,117,326a1.31,1.31,0,0,0,.33-.42,1.05,1.05,0,0,0,.27-.43A.35.35,0,0,0,117.54,324.45Z"/><path class="cls-23" d="M115.81,326.48h0C115.7,326.54,115.64,326.57,115.81,326.48Z"/></g></g></svg>