<svg id="Livello_1" data-name="Livello 1" xmlns="http://www.w3.org/2000/svg" xmlns:xlink="http://www.w3.org/1999/xlink" viewBox="0 0 1125 2436"><defs><style>.cls-1{fill:#e2b957;}.cls-2{fill:#a46d4a;}.cls-3{fill:#87a785;}.cls-4{fill:#ddbf6b;}.cls-5{fill:#b35f5c;}.cls-6{fill:#304c5e;}.cls-7{fill:#648fb1;}.cls-8{fill:#1d3243;}.cls-9{fill:#eac4a2;}.cls-10{fill:#2f4f64;}.cls-11{fill:#674634;}.cls-12{clip-path:url(#clip-path);}.cls-13{fill:#d47c53;}.cls-14{fill:#a3bfc0;}.cls-15{fill:#664962;}.cls-16{fill:#e5bfad;}.cls-17{fill:#2d4c60;}.cls-18{clip-path:url(#clip-path-2);}.cls-19{fill:#975d46;}.cls-20{fill:#a65353;}.cls-21{fill:#7fa3ad;}</style><clipPath id="clip-path"><path class="cls-1" d="M600.82,1386.65s-32.23-10.74-18.26-25.78,19.33-5.37,14-15h0s15,5.38,7.52,10.75,24.71-1.08,5.37-19.34,6.45-37.59,6.45-37.59-11.82,26.85,6.44,35.44S655.6,1388.8,600.82,1386.65Z"/></clipPath><clipPath id="clip-path-2"><path class="cls-2" d="M784.72,1292.14c1.83.56,78.64,24.8,78.64,24.8s14.52,64.73-29.64,47.19-75-59.29-75-59.29S762.94,1285.49,784.72,1292.14Z"/></clipPath></defs><title>Scenettebosco</title><path class="cls-3" d="M207.33,1376.54c0-39.7,159.12-71.88,355.41-71.88s355.41,32.18,355.41,71.88-346.55-9.24-354.75,38.9c-21.1,124-356.07.79-356.07-38.9"/><ellipse class="cls-3" cx="758.01" cy="1416.19" rx="23.63" ry="7.55"/><ellipse class="cls-3" cx="269.7" cy="1311.18" rx="23.63" ry="7.55"/><path class="cls-3" d="M705.5,1426.7c0,10.19-25.86,18.45-57.76,18.45S590,1436.89,590,1426.7s25.85-18.45,57.75-18.45S705.5,1416.51,705.5,1426.7Z"/><path class="cls-4" d="M558.08,1288.13l3.22-1.61s9.67,1.61,0-8.06-24.17-32.23-51.57-32.23c0,0-6.45,12.89-24.18,0,0,0-17.73-6.45-35.46,17.73s-27.4,40.29-27.4,40.29-16.12-16.12-17.73-22.57c0,0-4.84,1.62-6.45,0,0,0,9.67,45.14,30.63,38.69s38.68-43.52,38.68-43.52-6.76,46-2.57,48.81S515,1340.17,515,1340.17Z"/><path class="cls-5" d="M545.19,1328.43s11.28-8.06,11.28-27.4-11.28-38.69-33.85-33.85-24.18,6.45-32.24,0-32.23-12.9-38.68,12.89,9.67,46.75,27.4,40.3,12.9,22.56,41.91,16.12S545.19,1328.43,545.19,1328.43Z"/><path class="cls-6" d="M472.65,1357.44c-1.61,0-19.34,9.67-20.95,6.45s-3.22-12.9,0-12.9H471Z"/><path class="cls-7" d="M501.67,1338.1s41.9-19.34,58-12.9,12.9,16.12,0,22.57-62.86,6.45-72.53,11.28-16.12,0-16.12,0l-1.61-8.06S492,1338.1,501.67,1338.1Z"/><path class="cls-6" d="M540.35,1359.05c1.61,0,19.34,9.67,20.95,6.45s3.23-12.9,0-12.9H542Z"/><path class="cls-7" d="M511.34,1339.71s-41.91-19.34-58-12.89-12.89,16.11,0,22.56,62.86,6.45,72.53,11.28,16.12,0,16.12,0l1.61-8.06S521,1339.71,511.34,1339.71Z"/><path class="cls-8" d="M513.53,1292.74l-134.36-32-13.38-5.14a6.25,6.25,0,0,0-8.47,5.15h0a6.27,6.27,0,0,0,5.75,6.94l14.49,1.11,133.21,35.78Z"/><circle class="cls-8" cx="516.37" cy="1302.4" r="12.89"/><path class="cls-9" d="M513.53,1288.8s-5.94,2.72-9.76,4.63-9-12.85,8.18-10.94S513.53,1288.8,513.53,1288.8Z"/><path class="cls-4" d="M565.33,1284.1s-3.22,16.12-40.29,8.06l-11.28-3.22-1.62-6.45s32.24-6.45,41.91-3.22S565.33,1284.1,565.33,1284.1Z"/><path class="cls-9" d="M405.49,1283.14s2.69-9.51-.53-9.51-4.84-11.29-8.06-8.06,1.61,17.57,1.61,17.57Z"/><path class="cls-9" d="M511.34,1247.84s-6.45-8.06-4.84-11.28,8.06,1.61,11.29-3.23,11.28-27.4,3.22-32.23-25.79-11.29-30.63,9.67c0,0,3.23,35-3.22,37.67C487.16,1248.44,496.83,1260.73,511.34,1247.84Z"/><path class="cls-10" d="M503.27,1210.74s10.88-6.44,21.21-2.63l-.26,5.54s13-2.52,9-6.86,3.15-15.37-5.91-13-5.92-11-15.38-6.31-23.26,3.55-22.08,9.86-12.22,10.25-6.7,16.17,3.43,14.84,8,15.11,6.57-9.2,6.57-9.2S485.93,1204.82,503.27,1210.74Z"/><polygon class="cls-2" points="519.18 1393.1 526.7 1393.1 636.27 1240.57 626.6 1235.19 519.18 1393.1"/><polygon class="cls-2" points="705.01 1396.32 697.5 1396.32 587.93 1243.79 597.6 1238.42 705.01 1396.32"/><path class="cls-11" d="M577.19,1385.58s53.71-19.34,59.08-15,4.29,11.82,4.29,11.82-53.7,21.48-56.93,20.41S569.67,1387.73,577.19,1385.58Z"/><path class="cls-11" d="M634.12,1381.28s-53.71-19.33-59.08-15-4.3,11.82-4.3,11.82,53.71,21.48,56.93,20.41S641.64,1383.43,634.12,1381.28Z"/><path class="cls-1" d="M600.82,1386.65s-32.23-10.74-18.26-25.78,19.33-5.37,14-15h0s15,5.38,7.52,10.75,24.71-1.08,5.37-19.34,6.45-37.59,6.45-37.59-11.82,26.85,6.44,35.44S655.6,1388.8,600.82,1386.65Z"/><g class="cls-12"><path class="cls-13" d="M604,1402.77s-22.52-9.1-12.61-25.2c12.36-20.09,34-14.62,32.87-32.88C624.3,1344.69,652.38,1397.4,604,1402.77Z"/></g><path class="cls-9" d="M354.52,1113.77s20.56-13,20.56-29.21-7.58-29.21,5.41-35.71,34.62-2.16,23.8,29.22-19.47,11.9-19.47,11.9-6.5,18.39-6.5,23.8S354.52,1113.77,354.52,1113.77Z"/><path class="cls-9" d="M372.91,1115.94c1.09,1.08,30.3,36.24,31.38,42.47a9.87,9.87,0,0,1-3.24,9.46s-22.73-18.39-27.05-33.54S372.91,1115.94,372.91,1115.94Z"/><path class="cls-8" d="M370.69,1402.66s-3.73,18.63,0,18.63,33.52,3.72,33.52,0-20.48-3.73-24.21-9.31-2-14.31-2-14.31Z"/><path class="cls-14" d="M370.69,1216.41s9.31,50.29,7.45,93.13,0,93.12,0,93.12h-7.45s-16.76-37.25-14.9-68.91-13-83.81-13-83.81-26.07-22.35-9.31-39.12S370.69,1216.41,370.69,1216.41Z"/><path class="cls-8" d="M335.3,1402.66s-3.72,18.63,0,18.63,33.53,3.72,33.53,0-20.49-3.73-24.22-9.31-2-14.31-2-14.31Z"/><path class="cls-14" d="M365.73,1220.32s1.18,51.13-7.48,93.13-14.83,91.94-14.83,91.94l-7.35-1.19s-10.62-39.44-3.74-70.41.48-84.82.48-84.82-22.19-26.21-3-40.09S365.73,1220.32,365.73,1220.32Z"/><path class="cls-15" d="M322.83,1218.26c.06.56,16.2,16.78,27.37,3.74s20.49-5.59,20.49-5.59,0-74.5,7.45-83.81,3.19-19.75-6.31-30.73C360.86,1089.2,315.94,1160.5,322.83,1218.26Z"/><path class="cls-9" d="M360.2,1124.52s-4.86-14.58,4.86-17,19.45,14.58,24.31,60.76c0,0,4.93-3.66,17.09-13.38,0,0,1.41,23.48-18.8,29a8.9,8.9,0,0,1-10.66-5.42C372.57,1166.72,363.77,1142.35,360.2,1124.52Z"/><path class="cls-2" d="M413.1,1141.55l-40.19,37.1s1.55,7.72,7.73,4.63,35.55-40.19,35.55-40.19Z"/><path class="cls-2" d="M405.37,1138.46s-21.64,44.82-18.54,47.91,6.18,0,7.72-3.09,13.92-44.82,13.92-44.82Z"/><path class="cls-2" d="M394.55,1141.55s6.19,54.1,10.82,55.64,6.19-3.09,6.19-3.09S399.19,1140,394.55,1141.55Z"/><path class="cls-16" d="M406.46,1170s-5.63-7.09-9.85-3.54-1,12.19,4.44,11.11,8.69-8.11,5.43-17C406.48,1160.57,401.05,1166.79,406.46,1170Z"/><path class="cls-17" d="M406.46,1056.43s1.08,8.65-8.66,9.74-11.9,4.32-11.9,4.32-9.74-1.08-7.58,3.25.82,7.48-3.38,7-9.6-23.22-3.11-31.88C371.83,1048.85,408.79,1035.26,406.46,1056.43Z"/><path class="cls-17" d="M372.91,1051s-14.06-11.9-11.9,6.49,15.15,32.46-7.57,34.62c0,0,10.82-17.31,1.08-29.21S357.77,1012.07,372.91,1051Z"/><path class="cls-2" d="M784.72,1292.14c1.83.56,78.64,24.8,78.64,24.8s14.52,64.73-29.64,47.19-75-59.29-75-59.29S762.94,1285.49,784.72,1292.14Z"/><g class="cls-18"><path class="cls-19" d="M876.06,1332.07s-15.72-34.49-26.61-3-16.34,69.57,11.49,42.35S876.06,1332.07,876.06,1332.07Z"/></g><path class="cls-20" d="M834.8,1314.42s-15.13,39.32-74.64,8.47c-11-5.7-12.43-.71-7.82,8.45a85.54,85.54,0,0,1,7.47,21.27l4.66,22.59-16.29-1.44s-59.57-69.11-21.93-82.2S834.8,1314.42,834.8,1314.42Z"/><path class="cls-6" d="M749.5,1368.87s-20.57,7.26-10.28,8.47,27.22-2.42,27.22-2.42l-1.21-6.05Z"/><polygon class="cls-2" points="705.94 1322.29 640.61 1345.88 643.03 1349.51 705.94 1322.29"/><path class="cls-9" d="M760,1224.89s-.61-10-3.16-12.05-6,4.4-10.51,1.65-19.71-18.25-14.92-25.29,16.91-19.1,28.87-3.71c0,0,10.69,30.07,17,29.76C777.3,1215.25,776.87,1230,760,1224.89Z"/><path class="cls-5" d="M835.3,1310.4s-12.62,43.08-65.17,9.52c-9.88-6.31-11.77.37-6.66,8.61a81.25,81.25,0,0,1,8.81,19.43l6.27,20.91H763.08s-61.91-60.19-27.52-75.67S835.3,1310.4,835.3,1310.4Z"/><path class="cls-21" d="M755.83,1240a25.56,25.56,0,0,1,10.24-23.28c5.72-4.11,13.22-5.91,20.36,3.33,15.52,20.09,64.35,85.94,48.87,94.54s-40.43-22-54.95-23.2C769.87,1290.56,757.84,1260.21,755.83,1240Z"/><path class="cls-9" d="M779.53,1266.77c-3.09-10.15-13.82-14.58-21-16.45-14.61,25-39.19,54.62-46.7,63.49h-.44s-13.31,7.86-9.08,11.49,9.33,4.76,14.05-2.84C724.14,1317,760.63,1290.59,779.53,1266.77Z"/><path class="cls-21" d="M770,1223.49c-.46,6.82-4.77,16.42-10.85,26.83,7,1.82,17.42,6.13,20.42,16,6.35-8,10.66-15.72,11.06-22.19C792.31,1216.61,770,1223.49,770,1223.49Z"/><path class="cls-6" d="M762.81,1368.87s-20.57,7.26-10.29,8.47,27.23-2.42,27.23-2.42l-1.21-6.05Z"/><path class="cls-10" d="M766.44,1200.47s-5.21-2-7.61-3.18-3.6-12-7.2-8.4,0,6,0,6-7.2-7.2-13.2-3.6-19.19,4.8-18-7.2c0,0,8.4,3.6,15.6-6s15.59-9.6,18-3.6C754,1174.5,770.45,1170.06,766.44,1200.47Z"/></svg>