<svg xmlns="http://www.w3.org/2000/svg" viewBox="0 0 370 366"><defs><style>.cls-1{fill:#642304;}</style></defs><title>social</title><g id="campeggio"><path class="cls-1" d="M210.07,152.14a5.63,5.63,0,1,0,5.63,5.63A5.63,5.63,0,0,0,210.07,152.14Z"/><path class="cls-1" d="M185.05,159.36A23.64,23.64,0,1,0,208.7,183,23.67,23.67,0,0,0,185.05,159.36Zm0,38.78A15.14,15.14,0,1,1,200.2,183,15.15,15.15,0,0,1,185.05,198.14Z"/><path class="cls-1" d="M203.82,231H165.5a28.88,28.88,0,0,1-28.84-28.84V163.84A28.87,28.87,0,0,1,165.5,135h38.32a28.87,28.87,0,0,1,28.84,28.84v38.32A28.88,28.88,0,0,1,203.82,231ZM165.5,144a19.82,19.82,0,0,0-19.81,19.81v38.32A19.82,19.82,0,0,0,165.5,222h38.32a19.83,19.83,0,0,0,19.81-19.81V163.84A19.83,19.83,0,0,0,203.82,144Z"/></g></svg>