<svg xmlns="http://www.w3.org/2000/svg" viewBox="0 0 1604 1060.43"><defs><style>.cls-1{isolation:isolate;}.cls-2{fill:#578089;}.cls-3{fill:#bfe6ee;}.cls-4{fill:#fdd9c0;}.cls-5{fill:#fda902;}.cls-6{fill:#25599a;}.cls-7,.cls-9{fill:#5a8e8e;}.cls-7{opacity:0.2;}.cls-11,.cls-7,.cls-9{mix-blend-mode:multiply;}.cls-8{fill:#fcce18;}.cls-11,.cls-9{opacity:0.3;}.cls-10{fill:#ff1a50;}.cls-11{fill:#005f63;}.cls-12{fill:none;stroke:#ffb474;stroke-linecap:round;stroke-miterlimit:12;stroke-width:8px;stroke-dasharray:20;}.cls-13{fill:#fd9aa6;}.cls-14{fill:#fa8598;}.cls-15{fill:#f9b800;}.cls-16{fill:#f95d92;}.cls-17{fill:#f51a74;}.cls-18{fill:#ffe428;}.cls-19{fill:#ff9300;}.cls-20{fill:#6b3f00;}</style></defs><g class="cls-1"><g id="Livello_2" data-name="Livello 2"><g id="campeggio"><path class="cls-2" d="M1.05,993.43H1600V510.79C1153,197.43,426.6-205.57,0,121.43Z"/><path class="cls-3" d="M1600,738.42C1600,1146.24,0,500.92,0,1025.69v34.74H1600Z"/><path class="cls-4" d="M1415.73,896.81c2,3.79,9.39,2.25,12.41,1.2a40.54,40.54,0,0,0,25.08-25.5c1.52-4.74,2.3-10.25-1.14-14.34s-9.32-6-14.07-8.59c.11-.61-.68-1-1-.59-.16-.11-.34-.2-.5-.3s-.56.18-.31.39l.58.42a101.19,101.19,0,0,1-4.41,11.37,20,20,0,0,0-2.38,8.15c-.45,8.43,1.63,17.13-7.45,21.68C1420.75,891.57,1414.13,893.81,1415.73,896.81Z"/><path class="cls-5" d="M1441.87,852.22c-4.34,2.3-8.22,15.11-14.33,19.38-6.7-8-16-9-25.72-10-10-1-20.1-3.25-30-3.86-9.19-.56-18.66,1-27.81,0-13.74-1.41-26.3-8.17-39.52-12.26-19.07-5.9-39.3-7.9-57.38-17.66-17.62-9.51-27.17-29.81-18.92-49.08,5.35-12.5,12-11,24-7.82,13.91,3.69,16.46,12.33,26.17,21.19,8,7.28,18.9,9,28.22,14.45,8.59,5,14.55,13.62,22.79,19,7.79,5.12,20.44-.55,29.06-2.36,13.09-2.74,22.6-.45,35.07,4,15.86,5.68,39.16,9.68,48.25,24.72-.61-.5-.15-1-.45-1.49"/><path class="cls-4" d="M1247,592.75c6.46,6.19,3,17.67,1.52,25.28-1.42,7.16-7.11,12.81-12.29,17.81-4.47,4.32-14.15,7-18.69,1.24-4.22-5.33-.78-17.14,1.33-22.68,2.61-6.84,6.9-14.94,13.15-19.08,5-3.29,10.17-3.32,15.41-1.81.52.07-.35-.23-.43-.38"/><path class="cls-6" d="M1235,594c9.56-6.35,24.15-4.65,34.3-.52,11.38,4.62,14.21,11.54,18.33,22.55,8.38,1.43,14.8-2.29,19,8.09a26.59,26.59,0,0,1-6.16,29.09c-6,6-16.48,11.34-22.53,2.61-2.65-3.8-3.69-8.37-5.42-12.61-2-4.87-3.32-5.41-7.5-2.92a27.15,27.15,0,0,1-19.2,3.44,25.38,25.38,0,0,1-8.75-3c-3.54-2.14-3.21-2.81-2.09-6.26,2.62-8.06,2.51-15.31,2.51-23.9,0-5.73,1.17-12.07-1.67-16.16"/><path class="cls-7" d="M1294.65,842c-4.52-4.36-17.24-6.07-14.93-12.28,1.12-3,12.78-3.69,11.21-6.42-4.17-7.28-18.43-.78-25.1-6.31,5.79-.19,16.35-8.09,16.35-8.09-2.7-2.49-13.67-.21-20.87-1.68-4.83-1-10.27-2.38-15.14-2.57-9-.36-16.62,6.22-9.36,14.55,9.89,11.37,26.11,14.3,39.25,18.58,6.5,2.12,14.82,1.91,19.87,5.57"/><path class="cls-4" d="M1057.79,901c7.7,3.23,14.68,0,22.46-.65,6.61-.55,14.66,2.64,20.91-.45,6.9-3.42,2.82-15.77,2.34-21.92a3.45,3.45,0,0,0,.84-.07c.87-.19.73-1.56-.13-1.37-4.65,1-7.51-5.82-12.67-3.26s-7.78,9.1-12.57,12.41a83.6,83.6,0,0,1-11,6.66c-3.16,1.53-6.6,2.36-9.68,4C1056.27,897.52,1055,899.86,1057.79,901Z"/><path class="cls-8" d="M1084.55,875.66a.87.87,0,0,0,.68.73c5.84,1.53,11.38,3.85,17.09,5.77,2.38.79,4.17.9,6.1-.86,6.53-6,4.66-17.49,8.26-24.93,4.86-10,13.07-17.93,18.64-27.51,5.19-8.93,4.38-17.81,4.73-27.62,8.92,4.89,19,7.27,27.87,12.18,8.29,4.58,16.72,9.09,26,11.34,13.88,3.35,30.85,5.67,44.74,1.23,13.65-4.38,25.62-17.65,25.36-32.6-.3-17.16-13-30.83-22.91-43.75h.07a.87.87,0,0,0,.45-1.53,4,4,0,0,0-1.85-1.23.88.88,0,0,0-1.09,1.22c-5.81.64-11.35,2.86-16.91,4.57-7.54,2.33-14.67,2.56-22.48,3a.91.91,0,0,0-.79,1c0,4.06,1.82,11.62-4.21,11.82-4.7.16-9-2.78-13-5-8-4.42-17.7-5.72-26.72-6.37a147,147,0,0,0-26.78.31c-5.57.62-11.75,2-15.41,6.67-5.67,7.22-5.92,17.65-6.76,26.4-1.1,11.54-4.21,22.51-7.08,33.72-1.47,5.75-2.6,11.74-4.5,17.37-1.39,4.1-3.11,8.08-4.71,12.11C1086.6,860.6,1083.6,868.1,1084.55,875.66Z"/><path class="cls-9" d="M1199.11,766.92c10.53,2.3,30.57,17.43,28.16,20.35,0,0-11.81-7.59-17.26-10.21-2.76-1.33-5.36-3.44-8.27-4.48-2.43-.88-5.85-.24-7-3a4.72,4.72,0,0,1,4.4-2.62"/><path class="cls-9" d="M1138.5,800.63c-1.36-3.61-9.49-11.09-9.44-7.44.12,8.49,8.37,19.67,2.44,26.92-.33-1.63-.86-5.11-2.5-4.62-3.63,1.08-.28,7.57-1.51,11.2-1.18,3.46-3.92,6.23-5.06,9.64,6.5-3.15,11.89-8.11,13.79-15.65,1.25-5,3.3-15.87,1.85-20.49"/><path class="cls-10" d="M1184.3,737.48c1.24,8.34,3.32,16.61,2.7,25.09a.73.73,0,0,0,.58.8c16.88,4.47,33,.56,49.67-2.64,3.86-.73,9.69-1.34,12.16-4.86s-1-10.57-1.68-14.09c-1.74-8.61,1.41-18.41,4.51-26.38,2.8-7.19,6.1-14.2,8.31-21.63,3.94-13.24,5.76-28.21-1.07-40.72a.81.81,0,0,0-.46-1.27l-.3-.07a2.46,2.46,0,0,0-.22-.39c-.12-.21-.48,0-.37.2l0,0c-4.47-1.12-8.21-3.37-13.08-3.2a48.32,48.32,0,0,0-17.59,4.06A73.13,73.13,0,0,0,1198,675.74c-8.19,11.18-11,24.29-13,37.83C1183.87,721.54,1183.1,729.48,1184.3,737.48Z"/><path class="cls-11" d="M1205.65,684.51c0,23.23,10.39,44.74,30.7,55.43-11.93,4.95-23-8.48-26.79-18.17-4.1-10.61-3.91-25.68-3.91-36"/><path class="cls-11" d="M1191.59,704.78c0,12.06-1.15,24.58,7.19,36.22,6,8.35,22.22,14.47,32.71,9.9C1202.46,752.71,1191.59,704.78,1191.59,704.78Z"/><path class="cls-4" d="M1216.53,686.17c1.84,4.24,8.48,7.18,12.37,8.91,5.43,2.43,21.53,8.41,25,.62,7.77-9.47,8.62-22.64,8-34.42-.39-7-1.28-13.89-2.23-20.8-.43-3.09-.87-6.17-1.23-9.27-.5-4.38-1.75-9.24-1.12-13.64.71-5,2.51-9.93,4-14.67,1.28-4.09,2.27-8.4,3.92-12.35,3.2-7.63,8-14.21,13-20.76,2.4-3.17,4.81-6.34,7-9.68s3.8-6.77,6.23-9.78a28.56,28.56,0,0,1,10.5-8.2,43.38,43.38,0,0,0,9.11-5.29.67.67,0,0,0,0-1,10.76,10.76,0,0,0-5.3-2.72c4.14-5,9.71-12,9.42-18.53a.63.63,0,0,0-.85-.52,8.48,8.48,0,0,0-3.49,1.8,20.59,20.59,0,0,0,1.54-6.68c0-.42-.36-.89-.83-.67a13.33,13.33,0,0,0-5.42,5.06,13.08,13.08,0,0,0,.13-2.88.6.6,0,0,0-.66-.54c-3.25.36-5.63,3.47-7.64,7a13.54,13.54,0,0,0,0-1.42.61.61,0,0,0-1-.43c-5.74,3.2-7,8.82-9.36,14.46-3.38,7.94-9.15,13-15.63,18.39-8.57,7.17-15.25,16.06-22.23,24.71a73.08,73.08,0,0,0-13.69,25.7,134.58,134.58,0,0,0-5.08,30c-.35,5.14-.06,10.39-.55,15.5a31.25,31.25,0,0,1-5.62,14.84C1219.26,667,1212.11,676,1216.53,686.17Z"/><path class="cls-12" d="M15.41,540c111,24,211.45,94.75,272.15,191.83,19.93,31.87,36.12,68.6,32.22,106.11s-34.06,74.18-71.34,73.52c-33.18-.6-60.86-31-66.49-64s6.94-67.08,26-94.58c36.19-52.25,97.08-86.11,160.07-89,73.25-3.39,141.92,32.1,208.89,62.29a1649.92,1649.92,0,0,0,289.87,99.44c92.64,22.41,188.43,36.78,283.14,26.49s188.82-47,256-115.33C1475.46,665.92,1515,563.87,1600,513.26"/><path class="cls-13" d="M274,667.07a3.14,3.14,0,0,1-4.13.46c-4.07-2.6-8.31-4.92-12.36-7.55-4.75-3.08-9.32-6.69-12.53-11.27s-5-10.27-3.66-15.24a11.21,11.21,0,0,1,11.57-8.39c6.5.58,11.55,6.55,14.83,12.28a74.62,74.62,0,0,1,7.22,17.24,21.53,21.53,0,0,1,1,7.57A8.8,8.8,0,0,1,274,667.07Z"/><path class="cls-13" d="M274.85,662.09a54.79,54.79,0,0,1,.95-36.6c1.79-4.5,4.73-9.07,9.68-10.06,4.55-.9,9.74,1.71,12.64,5.64a18.43,18.43,0,0,1,3.13,13.38,35.2,35.2,0,0,1-4.69,12.45,94.34,94.34,0,0,1-10.87,15.51c-1.24,1.44-2.66,2.92-4.63,3.26S275.73,664.9,274.85,662.09Z"/><path class="cls-13" d="M280.36,666.87c3.61-6.07,7.82-12,13.85-15.83s14.2-5.36,21.41-2.3c4.26,1.81,8.17,5.58,8.6,9.93a9.64,9.64,0,0,1-3.41,8,22.41,22.41,0,0,1-8,4.16,67.82,67.82,0,0,1-20.91,3.44,15.3,15.3,0,0,1-5.83-.79C284.21,672.7,282.48,671.17,280.36,666.87Z"/><path class="cls-13" d="M277.7,672.25a3.52,3.52,0,0,1,4.6-2.75A79.29,79.29,0,0,1,306.72,681c3.35,2.33,6.65,5.09,8.22,8.72a10.75,10.75,0,0,1-2.11,11.87c-3,2.91-7.86,3.85-12.24,2.5-4.55-1.4-8.25-4.91-11.34-8.56a71.61,71.61,0,0,1-9.61-14.57C278.35,678.31,277.3,675.17,277.7,672.25Z"/><path class="cls-13" d="M271.37,665.93c-11.66-3.41-23.8-6.85-35.28-5.1-5,.77-10.39,3.24-11.05,8.13-.47,3.44,1.68,7.09,4.57,9.55,5.74,4.89,14,5.79,20.8,4.07S263,676.9,268.61,673a10.21,10.21,0,0,0,3.22-3C272.56,668.71,272.9,666.38,271.37,665.93Z"/><path class="cls-13" d="M273.75,666.43a7.77,7.77,0,0,1,5.32,5.09,20.13,20.13,0,0,1,.86,7.53c-.16,7.12-.93,14.36-3.79,20.84-1.42,3.21-3.49,6.33-6.68,7.8s-7,1-10.48,0c-3.61-1.06-7.4-3.05-8.63-6.59-1.07-3.11.16-6.47,1.55-9.41C255.61,683.9,271.25,665.9,273.75,666.43Z"/><path class="cls-14" d="M285.47,670.92A84.89,84.89,0,0,0,303.53,693a.31.31,0,1,1-.37.5,82.69,82.69,0,0,1-21.73-19.9C279.41,670.79,283.89,668.14,285.47,670.92Z"/><path class="cls-14" d="M283.54,671.71a54,54,0,0,0,12.37,21.74.31.31,0,0,1-.41.46A53.69,53.69,0,0,1,279,673.41C277.79,670.51,282.79,669,283.54,671.71Z"/><path class="cls-14" d="M286.6,670.57c6.19,5.2,12.15,10.73,18.28,16a.31.31,0,0,1-.37.5c-6.89-4.26-13.95-8.28-20.77-12.63C281.4,673,284.47,668.79,286.6,670.57Z"/><path class="cls-14" d="M283.67,666.27a34.64,34.64,0,0,1,23.77-4.2c.34,0,.28.61-.06.62a33.16,33.16,0,0,0-20.95,7.56C284.59,671.82,281.16,667.88,283.67,666.27Z"/><path class="cls-14" d="M281.52,667.81c6.15.17,12.33.75,18.48,1,.27,0,.31.57,0,.62-6.08,1-12.15,2.28-18.24,3.17C279.72,672.94,279.41,667.75,281.52,667.81Z"/><path class="cls-14" d="M282.07,664.68a82.81,82.81,0,0,1,26.8-11.49.31.31,0,1,1,.19.6A85.53,85.53,0,0,0,285,668.54C282.61,670.61,279.26,666.63,282.07,664.68Z"/><path class="cls-14" d="M281.28,664.66a19.94,19.94,0,0,1,8-7,20.65,20.65,0,0,1,9.9-2.13c.3,0,.32.57,0,.62a17.78,17.78,0,0,0-8.44,3.88,19,19,0,0,0-5.33,7C284.83,668.72,279.91,666.93,281.28,664.66Z"/><path class="cls-14" d="M279.72,663.8a72.55,72.55,0,0,1,15.88-27.52c.31-.34.75,0,.49.39A73.27,73.27,0,0,0,284.41,665,2.43,2.43,0,1,1,279.72,663.8Z"/><path class="cls-14" d="M277.31,666a89.84,89.84,0,0,1,5.49-22c.12-.31.66-.15.6.17a98.75,98.75,0,0,0-1.26,22C282.26,668.58,277.06,668.59,277.31,666Z"/><path class="cls-14" d="M275.55,666.43a130.18,130.18,0,0,1,3.17-26,.31.31,0,0,1,.62.08,146.1,146.1,0,0,0,1,25.65C280.73,669,275.55,669.47,275.55,666.43Z"/><path class="cls-14" d="M275.91,666.86a224.44,224.44,0,0,0-16.75-26.29c-.28-.36.15-.74.47-.4A194.62,194.62,0,0,1,280,664.29,2.43,2.43,0,1,1,275.91,666.86Z"/><path class="cls-14" d="M275.46,670.21c-6.13-7.9-12-16.08-18-24.06a.31.31,0,1,1,.47-.41c7,7.14,14.26,14.1,21.2,21.31C281.49,669.52,277.56,672.93,275.46,670.21Z"/><path class="cls-14" d="M274.61,671.88a88.12,88.12,0,0,1-18.47-20.22.31.31,0,0,1,.48-.39,92.85,92.85,0,0,0,20.74,16.63C279.92,669.41,277.16,673.82,274.61,671.88Z"/><path class="cls-14" d="M272.72,671.6c-9.61-1-19.2-2.48-28.81-3.62a.32.32,0,1,1,0-.63c9.66-.13,19.36-.56,29-.58C276.28,666.76,276,672,272.72,671.6Z"/><path class="cls-14" d="M276.72,673.34c-9.26.5-18.57.59-27.85,1a.31.31,0,0,1-.07-.62c9.14-1.66,18.24-3.61,27.38-5.15C279.31,668,279.89,673.17,276.72,673.34Z"/><path class="cls-14" d="M278,672.35a204.78,204.78,0,0,1-26.18,5.79.31.31,0,0,1-.14-.61,250.1,250.1,0,0,0,24.64-9.71C279,666.6,280.91,671.44,278,672.35Z"/><path class="cls-14" d="M278.21,672.74a65.79,65.79,0,0,0-19.57,20.72.31.31,0,1,1-.55-.27,65,65,0,0,1,17.15-24.26C277.93,666.67,280.85,671,278.21,672.74Z"/><path class="cls-14" d="M281.8,675.24a82.28,82.28,0,0,0-15.19,19.58.31.31,0,0,1-.56-.25A78.27,78.27,0,0,1,278.2,672C280.1,669.67,283.8,673.33,281.8,675.24Z"/><path class="cls-14" d="M280,673.23a70.2,70.2,0,0,0-14.8,14.95c-.18.26-.67,0-.54-.31a66.55,66.55,0,0,1,12.1-18.24C278.52,667.8,281.82,671.83,280,673.23Z"/><path class="cls-14" d="M284.21,673.62a52,52,0,0,0-10.51,19c-.09.31-.65.21-.61-.12a51.26,51.26,0,0,1,7.2-21.75C281.78,668.49,285.79,671.81,284.21,673.62Z"/><path d="M272.42,661.9a14.91,14.91,0,0,0-5.32-4.9c-.64-.35-1.54-.62-2-.1s.06,1.33.53,1.89a40.61,40.61,0,0,0,4.73,4.82,10.49,10.49,0,0,0-6.39-1.56c-.79.08-1.71.41-1.74,1.18s.69,1.25,1.34,1.62a18.39,18.39,0,0,0,5.78,2.12,11.07,11.07,0,0,0-5.35,1.72c-.51.33-1,.82-.92,1.44.15.84,1.26,1.19,2.12,1.2a7.42,7.42,0,0,0,5-1.81,11.89,11.89,0,0,0-2.3,4.57,2.18,2.18,0,0,0,0,1.57c1.13,2.16,3.42.56,5.19-3.81a14.18,14.18,0,0,0,1.84,5.87,2.7,2.7,0,0,0,1.61,1.47c1.07.21,1.78-.89,2-1.89a7.77,7.77,0,0,0-1.23-5.6,40.89,40.89,0,0,0,3.5,5.21,3,3,0,0,0,1.91,1.37,1.55,1.55,0,0,0,1.54-1.23,3.85,3.85,0,0,0-.3-2.17,12.18,12.18,0,0,0-4-5.3,18.08,18.08,0,0,1,3,2.23c1,.74,2.36,1.28,3.38.77,1.33-.67,1.13-2.77,0-3.94a9,9,0,0,0-4.3-2.08,13.3,13.3,0,0,0,4.7-1.42,1.62,1.62,0,0,0,.43-2.18,2.54,2.54,0,0,0-1.67-.88,7,7,0,0,0-5.5,1.18,7.43,7.43,0,0,0,2.82-4.35,2,2,0,0,0-1.44-2.14,2.17,2.17,0,0,0-1.65.64,9.09,9.09,0,0,0-2.7,3.77,13.6,13.6,0,0,0-.41-5.56,3,3,0,0,0-1.79-2,1.89,1.89,0,0,0-2.19,1.52c-.39,1.86.21,3.53,1.22,6a36.72,36.72,0,0,0-2.42-5.22,3.62,3.62,0,0,0-1-1.21,1.2,1.2,0,0,0-1.39-.11c-.48.39-.28,1.18,0,1.79A28.6,28.6,0,0,0,272.42,661.9Z"/><path class="cls-15" d="M271.52,664.17a1.6,1.6,0,0,1,.85-1.6,2,2,0,0,1,1.95.17,2.55,2.55,0,0,1,2.67-.55,3,3,0,0,1,1.91,2.17,2.76,2.76,0,0,1,1.82,2.35,2.11,2.11,0,0,1-1.67,2.11,2.13,2.13,0,0,1-1.11,2.29,2.66,2.66,0,0,1-2.73-.37,2.93,2.93,0,0,1-2.86-.29,3,3,0,0,1-1.32-2.57,1.94,1.94,0,0,1-.77-1.72C270.33,665.54,270.8,665,271.52,664.17Z"/><path class="cls-16" d="M341.86,693.42a62.16,62.16,0,0,0,33.37,27.82,11.08,11.08,0,0,0,5.28.83,4.35,4.35,0,0,0,3.78-3.33c.29-2.09-1.43-3.86-3-5.25C370.9,704.43,359.89,696.1,341.86,693.42Z"/><path class="cls-16" d="M342.24,694.31a62.1,62.1,0,0,0,43.11,5.36,11.26,11.26,0,0,0,4.89-2.15,4.36,4.36,0,0,0,1.38-4.85c-.88-1.91-3.29-2.48-5.37-2.79C372.62,687.87,358.85,686.81,342.24,694.31Z"/><path class="cls-16" d="M343,694.85a62.06,62.06,0,0,0,39.16-18.8,11.09,11.09,0,0,0,3-4.45,4.35,4.35,0,0,0-1.47-4.82c-1.77-1.14-4.1-.31-6,.56C365.11,673,353,679.56,343,694.85Z"/><path class="cls-16" d="M344,694.87a62.06,62.06,0,0,0,22.79-37,11.27,11.27,0,0,0,.08-5.35,4.35,4.35,0,0,0-3.84-3.26c-2.11,0-3.62,2-4.77,3.72C350.76,664.56,344.09,676.65,344,694.87Z"/><path class="cls-16" d="M344.83,694.37a62.14,62.14,0,0,0-.83-43.43,11.27,11.27,0,0,0-2.83-4.54,4.33,4.33,0,0,0-5-.67c-1.77,1.14-2,3.6-2,5.71C334.13,665.22,335,679,344.83,694.37Z"/><path class="cls-16" d="M345.25,693.51a62.08,62.08,0,0,0-24.18-36.09,11.19,11.19,0,0,0-4.83-2.3,4.35,4.35,0,0,0-4.56,2.14c-.87,1.92.28,4.11,1.41,5.88C320.48,674.76,328.71,685.86,345.25,693.51Z"/><path class="cls-16" d="M345.14,692.55a62.08,62.08,0,0,0-39.86-17.29,11.17,11.17,0,0,0-5.3.68,4.35,4.35,0,0,0-2.68,4.27c.3,2.08,2.45,3.3,4.36,4.18C314.17,690.17,327.09,695.06,345.14,692.55Z"/><path class="cls-16" d="M344.52,691.8a62.06,62.06,0,0,0-42.87,7,11.13,11.13,0,0,0-4.09,3.44,4.35,4.35,0,0,0,0,5c1.39,1.58,3.86,1.45,5.94,1.16C317.19,706.54,330.7,703.68,344.52,691.8Z"/><path class="cls-16" d="M343.61,691.51a62.13,62.13,0,0,0-32.29,29.07,11.35,11.35,0,0,0-1.58,5.11,4.35,4.35,0,0,0,2.77,4.21c2,.59,4-.86,5.62-2.24C328.58,718.69,338.39,709,343.61,691.51Z"/><path class="cls-16" d="M342.67,691.76a62.07,62.07,0,0,0-11.44,41.9,11.3,11.3,0,0,0,1.43,5.16,4.37,4.37,0,0,0,4.61,2c2-.6,2.92-2.9,3.52-4.92C344.73,722.75,347.73,709.27,342.67,691.76Z"/><path class="cls-16" d="M342,692.47a62.09,62.09,0,0,0,13,41.44,11.12,11.12,0,0,0,4,3.56,4.35,4.35,0,0,0,5-.76c1.38-1.6.89-4,.31-6.05C360.5,717.43,355.74,704.47,342,692.47Z"/><path class="cls-17" d="M336.18,687.25c-3.74-6-7.26-12.16-10.94-18.21-.16-.26.15-.48.34-.23,4.38,5.55,8.93,11,13.25,16.6A1.62,1.62,0,1,1,336.18,687.25Z"/><path class="cls-17" d="M336.21,693.81c-6.81-3.29-13.51-6.82-20.28-10.18-.3-.14-.15-.49.16-.38,7.11,2.57,14.3,5,21.38,7.59A1.64,1.64,0,1,1,336.21,693.81Z"/><path class="cls-17" d="M333.47,697.38a77.21,77.21,0,0,0-22,3.58c-.31.1-.45-.25-.15-.38a73.64,73.64,0,0,1,21.9-6.42A1.64,1.64,0,1,1,333.47,697.38Z"/><path class="cls-17" d="M337.09,702.78a89.35,89.35,0,0,0-20.37,17.1c-.26.29-.56.06-.32-.26a86.46,86.46,0,0,1,18.88-19.51C337.84,698.26,339.66,701.22,337.09,702.78Z"/><path class="cls-17" d="M344.18,702.78a47,47,0,0,0-6.09,22c0,.34-.38.36-.41,0a47,47,0,0,1,3.61-23.44C342.48,698.8,345.47,700.57,344.18,702.78Z"/><path class="cls-17" d="M348.85,704.74a49.56,49.56,0,0,0,7.9,24.13c.21.32-.09.55-.33.24a49.63,49.63,0,0,1-10.78-24C345.25,702,348.72,701.89,348.85,704.74Z"/><path class="cls-17" d="M351.25,696.65a164.66,164.66,0,0,0,19,14.84c.29.2.1.52-.21.36a148.44,148.44,0,0,1-20.85-12.7C347,697.46,349.21,694.82,351.25,696.65Z"/><path class="cls-17" d="M354,692a255.15,255.15,0,0,1,25.8,1.73c.37,0,.35.41,0,.41-8.58-.07-17.15.44-25.66,1.08C351.19,695.48,351,692,354,692Z"/><path class="cls-17" d="M350.65,689.65a144.25,144.25,0,0,1,24.74-14.15c.38-.17.55.16.19.37a155.24,155.24,0,0,0-22.95,16.32C350.21,694.26,348,691.59,350.65,689.65Z"/><path class="cls-17" d="M347,687a106.66,106.66,0,0,1,13.34-23.28c.23-.31.55-.1.35.24A111.36,111.36,0,0,0,350,688.08C349.13,690.93,345.82,689.88,347,687Z"/><path class="cls-17" d="M341.84,686.15a73.64,73.64,0,0,0-1.54-25c-.08-.37.28-.48.4-.12a71.81,71.81,0,0,1,4.36,25.33C345,689.34,341.52,689,341.84,686.15Z"/><path d="M332.75,706.05a4,4,0,0,1-.36-4.65,11.7,11.7,0,0,1,3.51-3.53c-2.79,1.63-6.94-.7-7-3.92,0-2.79,3-5,5.61-4.59a3.82,3.82,0,0,1-2-2.61,3.29,3.29,0,0,1,2.21-3.71,2.2,2.2,0,0,1,1.51.11,3.54,3.54,0,0,1,.47-2.59c1.25-1.87,4.27-1.66,5.95-.17s2.37,3.78,3,6a12.72,12.72,0,0,1,3.5-3,4.37,4.37,0,0,1,4.42.07c1.55,1.12,1.78,3.45,1,5.21a12.77,12.77,0,0,1-3.67,4.35,5.11,5.11,0,0,1,5.92,2.42,5.31,5.31,0,0,1-1.23,6.32,5.53,5.53,0,0,1-6.47.36,4.6,4.6,0,0,1,1.43,6.18,4.8,4.8,0,0,1-6.23,1.48,5,5,0,0,1-2-6.15,9.46,9.46,0,0,1-5.51,3.32A4.5,4.5,0,0,1,332.75,706.05Z"/><path class="cls-15" d="M342.16,701.7a1.48,1.48,0,0,1,.26-.29,2.33,2.33,0,0,1-.7-3.44,2.31,2.31,0,0,1,1.2-.88,2.16,2.16,0,0,1-.05-1.66l-.8,1.09a2,2,0,0,1-.73.64,1.81,1.81,0,0,1-.88.33,1.77,1.77,0,0,1-.94,0,1.92,1.92,0,0,1-.89-.39c-.15-.16-.31-.31-.47-.46a2.43,2.43,0,0,1-.5-1.15c0-.21,0-.42,0-.63a2.51,2.51,0,0,1,.47-1.2l.81-1.11a1.78,1.78,0,0,1,.73-.63,1.83,1.83,0,0,1,.88-.34,2,2,0,0,1,.49,0,2.4,2.4,0,0,1,.48-1.36c1.87-2.55,5.84.35,4,2.91a2.24,2.24,0,0,1-2.13,1v.19a2.14,2.14,0,0,1-.14.58c1.61-2.18,4.74-.36,4.42,1.82l.11-.19c1.5-2,4.67.28,3.17,2.32-1.26,1.72-3.71.33-3.54-1.37a2.9,2.9,0,0,1-.2.33,2.32,2.32,0,0,1-1.18.88,2.24,2.24,0,0,1-.29,2.3,2.74,2.74,0,0,1-.64.6,1.84,1.84,0,0,1,.28,2.54C343.83,706.06,340.66,703.74,342.16,701.7Z"/><path class="cls-15" d="M347.4,691.06a2,2,0,0,1,3.17,2.33C349.08,695.43,345.9,693.1,347.4,691.06Z"/><path class="cls-15" d="M337.87,699.41c1.5-2,4.67.28,3.17,2.32S336.38,701.45,337.87,699.41Z"/><path class="cls-18" d="M266,717.51a91.18,91.18,0,0,1,67.69-12.92c3.1.64,6.93,2.53,6.4,5.65-.35,2-2.47,3.21-4.39,4-5.52,2.18-11.42,3.42-17.86,4.85,9.41,3.64,19,7.41,26.62,14.06a12.41,12.41,0,0,1,3.59,4.56,5.16,5.16,0,0,1-.83,5.47c-1.63,1.62-4.26,1.5-6.51,1.06-10.46-2-19.53-8.28-28.21-14.13,5.88,6.95,11.93,14.23,14.17,23,.76,3,.92,6.6-1.24,8.85-2.52,2.63-6.92,2.1-10.17.45-5.2-2.63-9-7.47-11.5-12.75s-3.68-11.06-4.7-17.45a34.28,34.28,0,0,1-14.86,30.27c-1.83,1.22-4,2.29-6.16,1.74-2.64-.68-4.07-3.58-4.55-6.27-.89-5.05.36-10.29,2.59-14.91s5.37-8.73,8.25-13.64a73.09,73.09,0,0,1-21.66,15.68,20.38,20.38,0,0,1-8.63,2.42c-3,0-6.19-1.41-7.56-4.09-1.66-3.24-.31-7.19,1.53-10.32C251.87,726.54,258.53,722.41,266,717.51Z"/><path class="cls-19" d="M307.58,716.49a136.55,136.55,0,0,1,26.12,17.1c.36.28.09.64-.29.4A146.35,146.35,0,0,0,306,720C302.78,718.77,304.33,714.92,307.58,716.49Z"/><path class="cls-19" d="M303.57,721.58A163.06,163.06,0,0,0,315,750.29c.21.4-.17.64-.42.25a150.9,150.9,0,0,1-14.68-27.7C298.63,719.47,302.59,718.22,303.57,721.58Z"/><path class="cls-19" d="M295.4,725a247.93,247.93,0,0,0-12.15,29.17c-.15.44-.58.32-.48-.13a221.49,221.49,0,0,1,9.09-30.58C293.2,720,297,721.75,295.4,725Z"/><path class="cls-19" d="M284.45,721.59a81.55,81.55,0,0,0-25.79,14.61c-.34.29-.65,0-.34-.36A80.1,80.1,0,0,1,283,718C286.27,716.59,287.61,720.52,284.45,721.59Z"/><path class="cls-19" d="M305.62,709.15a42.47,42.47,0,0,1,21.69.4.25.25,0,0,1-.1.49,42.3,42.3,0,0,0-20.42,2.79C304.69,713.7,303.12,709.84,305.62,709.15Z"/><path class="cls-20" d="M311.91,710.75a22,22,0,0,1-32.84,14.36,40.42,40.42,0,0,1-4.31-22.53c.32-3.16,1.14-6.5,3.46-8.68a10.34,10.34,0,0,1,8.23-2.35,22.23,22.23,0,0,1,8.23,3.08A51.83,51.83,0,0,1,311.91,710.75Z"/></g></g></g></svg>